%TF.GenerationSoftware,KiCad,Pcbnew,10.0.5*%
%TF.CreationDate,2026-08-03T18:08:09-07:00*%
%TF.ProjectId,palpod-audio-amp,70616c70-6f64-42d6-9175-64696f2d616d,A0*%
%TF.SameCoordinates,Original*%
%TF.FileFunction,Legend,Top*%
%TF.FilePolarity,Positive*%
%FSLAX46Y46*%
G04 Gerber Fmt 4.6, Leading zero omitted, Abs format (unit mm)*
G04 Created by KiCad (PCBNEW 10.0.5) date 2026-08-03 18:08:09*
%MOMM*%
%LPD*%
G01*
G04 APERTURE LIST*
%ADD10C,0.400000*%
%ADD11C,0.200000*%
G04 APERTURE END LIST*
D10*
X10977442Y-9612057D02*
X10977442Y-6612057D01*
X10977442Y-6612057D02*
X12120299Y-6612057D01*
X12120299Y-6612057D02*
X12406014Y-6754914D01*
X12406014Y-6754914D02*
X12548871Y-6897771D01*
X12548871Y-6897771D02*
X12691728Y-7183485D01*
X12691728Y-7183485D02*
X12691728Y-7612057D01*
X12691728Y-7612057D02*
X12548871Y-7897771D01*
X12548871Y-7897771D02*
X12406014Y-8040628D01*
X12406014Y-8040628D02*
X12120299Y-8183485D01*
X12120299Y-8183485D02*
X10977442Y-8183485D01*
X13834585Y-8754914D02*
X15263157Y-8754914D01*
X13548871Y-9612057D02*
X14548871Y-6612057D01*
X14548871Y-6612057D02*
X15548871Y-9612057D01*
X17977443Y-9612057D02*
X16548871Y-9612057D01*
X16548871Y-9612057D02*
X16548871Y-6612057D01*
X21263156Y-9612057D02*
X21263156Y-6612057D01*
X21263156Y-6612057D02*
X22406013Y-6612057D01*
X22406013Y-6612057D02*
X22691728Y-6754914D01*
X22691728Y-6754914D02*
X22834585Y-6897771D01*
X22834585Y-6897771D02*
X22977442Y-7183485D01*
X22977442Y-7183485D02*
X22977442Y-7612057D01*
X22977442Y-7612057D02*
X22834585Y-7897771D01*
X22834585Y-7897771D02*
X22691728Y-8040628D01*
X22691728Y-8040628D02*
X22406013Y-8183485D01*
X22406013Y-8183485D02*
X21263156Y-8183485D01*
X24691728Y-9612057D02*
X24406013Y-9469200D01*
X24406013Y-9469200D02*
X24263156Y-9326342D01*
X24263156Y-9326342D02*
X24120299Y-9040628D01*
X24120299Y-9040628D02*
X24120299Y-8183485D01*
X24120299Y-8183485D02*
X24263156Y-7897771D01*
X24263156Y-7897771D02*
X24406013Y-7754914D01*
X24406013Y-7754914D02*
X24691728Y-7612057D01*
X24691728Y-7612057D02*
X25120299Y-7612057D01*
X25120299Y-7612057D02*
X25406013Y-7754914D01*
X25406013Y-7754914D02*
X25548871Y-7897771D01*
X25548871Y-7897771D02*
X25691728Y-8183485D01*
X25691728Y-8183485D02*
X25691728Y-9040628D01*
X25691728Y-9040628D02*
X25548871Y-9326342D01*
X25548871Y-9326342D02*
X25406013Y-9469200D01*
X25406013Y-9469200D02*
X25120299Y-9612057D01*
X25120299Y-9612057D02*
X24691728Y-9612057D01*
X28263157Y-9612057D02*
X28263157Y-6612057D01*
X28263157Y-9469200D02*
X27977442Y-9612057D01*
X27977442Y-9612057D02*
X27406014Y-9612057D01*
X27406014Y-9612057D02*
X27120299Y-9469200D01*
X27120299Y-9469200D02*
X26977442Y-9326342D01*
X26977442Y-9326342D02*
X26834585Y-9040628D01*
X26834585Y-9040628D02*
X26834585Y-8183485D01*
X26834585Y-8183485D02*
X26977442Y-7897771D01*
X26977442Y-7897771D02*
X27120299Y-7754914D01*
X27120299Y-7754914D02*
X27406014Y-7612057D01*
X27406014Y-7612057D02*
X27977442Y-7612057D01*
X27977442Y-7612057D02*
X28263157Y-7754914D01*
X31834585Y-8754914D02*
X33263157Y-8754914D01*
X31548871Y-9612057D02*
X32548871Y-6612057D01*
X32548871Y-6612057D02*
X33548871Y-9612057D01*
X35834586Y-7612057D02*
X35834586Y-9612057D01*
X34548871Y-7612057D02*
X34548871Y-9183485D01*
X34548871Y-9183485D02*
X34691728Y-9469200D01*
X34691728Y-9469200D02*
X34977443Y-9612057D01*
X34977443Y-9612057D02*
X35406014Y-9612057D01*
X35406014Y-9612057D02*
X35691728Y-9469200D01*
X35691728Y-9469200D02*
X35834586Y-9326342D01*
X38548872Y-9612057D02*
X38548872Y-6612057D01*
X38548872Y-9469200D02*
X38263157Y-9612057D01*
X38263157Y-9612057D02*
X37691729Y-9612057D01*
X37691729Y-9612057D02*
X37406014Y-9469200D01*
X37406014Y-9469200D02*
X37263157Y-9326342D01*
X37263157Y-9326342D02*
X37120300Y-9040628D01*
X37120300Y-9040628D02*
X37120300Y-8183485D01*
X37120300Y-8183485D02*
X37263157Y-7897771D01*
X37263157Y-7897771D02*
X37406014Y-7754914D01*
X37406014Y-7754914D02*
X37691729Y-7612057D01*
X37691729Y-7612057D02*
X38263157Y-7612057D01*
X38263157Y-7612057D02*
X38548872Y-7754914D01*
X39977443Y-9612057D02*
X39977443Y-7612057D01*
X39977443Y-6612057D02*
X39834586Y-6754914D01*
X39834586Y-6754914D02*
X39977443Y-6897771D01*
X39977443Y-6897771D02*
X40120300Y-6754914D01*
X40120300Y-6754914D02*
X39977443Y-6612057D01*
X39977443Y-6612057D02*
X39977443Y-6897771D01*
X41834586Y-9612057D02*
X41548871Y-9469200D01*
X41548871Y-9469200D02*
X41406014Y-9326342D01*
X41406014Y-9326342D02*
X41263157Y-9040628D01*
X41263157Y-9040628D02*
X41263157Y-8183485D01*
X41263157Y-8183485D02*
X41406014Y-7897771D01*
X41406014Y-7897771D02*
X41548871Y-7754914D01*
X41548871Y-7754914D02*
X41834586Y-7612057D01*
X41834586Y-7612057D02*
X42263157Y-7612057D01*
X42263157Y-7612057D02*
X42548871Y-7754914D01*
X42548871Y-7754914D02*
X42691729Y-7897771D01*
X42691729Y-7897771D02*
X42834586Y-8183485D01*
X42834586Y-8183485D02*
X42834586Y-9040628D01*
X42834586Y-9040628D02*
X42691729Y-9326342D01*
X42691729Y-9326342D02*
X42548871Y-9469200D01*
X42548871Y-9469200D02*
X42263157Y-9612057D01*
X42263157Y-9612057D02*
X41834586Y-9612057D01*
X46263157Y-8754914D02*
X47691729Y-8754914D01*
X45977443Y-9612057D02*
X46977443Y-6612057D01*
X46977443Y-6612057D02*
X47977443Y-9612057D01*
X48977443Y-9612057D02*
X48977443Y-7612057D01*
X48977443Y-7897771D02*
X49120300Y-7754914D01*
X49120300Y-7754914D02*
X49406015Y-7612057D01*
X49406015Y-7612057D02*
X49834586Y-7612057D01*
X49834586Y-7612057D02*
X50120300Y-7754914D01*
X50120300Y-7754914D02*
X50263158Y-8040628D01*
X50263158Y-8040628D02*
X50263158Y-9612057D01*
X50263158Y-8040628D02*
X50406015Y-7754914D01*
X50406015Y-7754914D02*
X50691729Y-7612057D01*
X50691729Y-7612057D02*
X51120300Y-7612057D01*
X51120300Y-7612057D02*
X51406015Y-7754914D01*
X51406015Y-7754914D02*
X51548872Y-8040628D01*
X51548872Y-8040628D02*
X51548872Y-9612057D01*
X52977443Y-7612057D02*
X52977443Y-10612057D01*
X52977443Y-7754914D02*
X53263158Y-7612057D01*
X53263158Y-7612057D02*
X53834586Y-7612057D01*
X53834586Y-7612057D02*
X54120300Y-7754914D01*
X54120300Y-7754914D02*
X54263158Y-7897771D01*
X54263158Y-7897771D02*
X54406015Y-8183485D01*
X54406015Y-8183485D02*
X54406015Y-9040628D01*
X54406015Y-9040628D02*
X54263158Y-9326342D01*
X54263158Y-9326342D02*
X54120300Y-9469200D01*
X54120300Y-9469200D02*
X53834586Y-9612057D01*
X53834586Y-9612057D02*
X53263158Y-9612057D01*
X53263158Y-9612057D02*
X52977443Y-9469200D01*
X57977443Y-8469200D02*
X60263158Y-8469200D01*
X65691729Y-9612057D02*
X64691729Y-8183485D01*
X63977443Y-9612057D02*
X63977443Y-6612057D01*
X63977443Y-6612057D02*
X65120300Y-6612057D01*
X65120300Y-6612057D02*
X65406015Y-6754914D01*
X65406015Y-6754914D02*
X65548872Y-6897771D01*
X65548872Y-6897771D02*
X65691729Y-7183485D01*
X65691729Y-7183485D02*
X65691729Y-7612057D01*
X65691729Y-7612057D02*
X65548872Y-7897771D01*
X65548872Y-7897771D02*
X65406015Y-8040628D01*
X65406015Y-8040628D02*
X65120300Y-8183485D01*
X65120300Y-8183485D02*
X63977443Y-8183485D01*
X68120300Y-9469200D02*
X67834586Y-9612057D01*
X67834586Y-9612057D02*
X67263158Y-9612057D01*
X67263158Y-9612057D02*
X66977443Y-9469200D01*
X66977443Y-9469200D02*
X66834586Y-9183485D01*
X66834586Y-9183485D02*
X66834586Y-8040628D01*
X66834586Y-8040628D02*
X66977443Y-7754914D01*
X66977443Y-7754914D02*
X67263158Y-7612057D01*
X67263158Y-7612057D02*
X67834586Y-7612057D01*
X67834586Y-7612057D02*
X68120300Y-7754914D01*
X68120300Y-7754914D02*
X68263158Y-8040628D01*
X68263158Y-8040628D02*
X68263158Y-8326342D01*
X68263158Y-8326342D02*
X66834586Y-8612057D01*
X69263158Y-7612057D02*
X69977444Y-9612057D01*
X69977444Y-9612057D02*
X70691729Y-7612057D01*
X73977443Y-8754914D02*
X75406015Y-8754914D01*
X73691729Y-9612057D02*
X74691729Y-6612057D01*
X74691729Y-6612057D02*
X75691729Y-9612057D01*
X77263158Y-6612057D02*
X77548872Y-6612057D01*
X77548872Y-6612057D02*
X77834586Y-6754914D01*
X77834586Y-6754914D02*
X77977444Y-6897771D01*
X77977444Y-6897771D02*
X78120301Y-7183485D01*
X78120301Y-7183485D02*
X78263158Y-7754914D01*
X78263158Y-7754914D02*
X78263158Y-8469200D01*
X78263158Y-8469200D02*
X78120301Y-9040628D01*
X78120301Y-9040628D02*
X77977444Y-9326342D01*
X77977444Y-9326342D02*
X77834586Y-9469200D01*
X77834586Y-9469200D02*
X77548872Y-9612057D01*
X77548872Y-9612057D02*
X77263158Y-9612057D01*
X77263158Y-9612057D02*
X76977444Y-9469200D01*
X76977444Y-9469200D02*
X76834586Y-9326342D01*
X76834586Y-9326342D02*
X76691729Y-9040628D01*
X76691729Y-9040628D02*
X76548872Y-8469200D01*
X76548872Y-8469200D02*
X76548872Y-7754914D01*
X76548872Y-7754914D02*
X76691729Y-7183485D01*
X76691729Y-7183485D02*
X76834586Y-6897771D01*
X76834586Y-6897771D02*
X76977444Y-6754914D01*
X76977444Y-6754914D02*
X77263158Y-6612057D01*
X81834586Y-8469200D02*
X84120301Y-8469200D01*
X87834586Y-9612057D02*
X87834586Y-6612057D01*
X87834586Y-6612057D02*
X88977443Y-6612057D01*
X88977443Y-6612057D02*
X89263158Y-6754914D01*
X89263158Y-6754914D02*
X89406015Y-6897771D01*
X89406015Y-6897771D02*
X89548872Y-7183485D01*
X89548872Y-7183485D02*
X89548872Y-7612057D01*
X89548872Y-7612057D02*
X89406015Y-7897771D01*
X89406015Y-7897771D02*
X89263158Y-8040628D01*
X89263158Y-8040628D02*
X88977443Y-8183485D01*
X88977443Y-8183485D02*
X87834586Y-8183485D01*
X92263158Y-9612057D02*
X90834586Y-9612057D01*
X90834586Y-9612057D02*
X90834586Y-6612057D01*
X93120300Y-8754914D02*
X94548872Y-8754914D01*
X92834586Y-9612057D02*
X93834586Y-6612057D01*
X93834586Y-6612057D02*
X94834586Y-9612057D01*
X97548872Y-9326342D02*
X97406015Y-9469200D01*
X97406015Y-9469200D02*
X96977443Y-9612057D01*
X96977443Y-9612057D02*
X96691729Y-9612057D01*
X96691729Y-9612057D02*
X96263158Y-9469200D01*
X96263158Y-9469200D02*
X95977443Y-9183485D01*
X95977443Y-9183485D02*
X95834586Y-8897771D01*
X95834586Y-8897771D02*
X95691729Y-8326342D01*
X95691729Y-8326342D02*
X95691729Y-7897771D01*
X95691729Y-7897771D02*
X95834586Y-7326342D01*
X95834586Y-7326342D02*
X95977443Y-7040628D01*
X95977443Y-7040628D02*
X96263158Y-6754914D01*
X96263158Y-6754914D02*
X96691729Y-6612057D01*
X96691729Y-6612057D02*
X96977443Y-6612057D01*
X96977443Y-6612057D02*
X97406015Y-6754914D01*
X97406015Y-6754914D02*
X97548872Y-6897771D01*
X98834586Y-8040628D02*
X99834586Y-8040628D01*
X100263158Y-9612057D02*
X98834586Y-9612057D01*
X98834586Y-9612057D02*
X98834586Y-6612057D01*
X98834586Y-6612057D02*
X100263158Y-6612057D01*
X101548872Y-9612057D02*
X101548872Y-6612057D01*
X101548872Y-8040628D02*
X103263158Y-8040628D01*
X103263158Y-9612057D02*
X103263158Y-6612057D01*
X105263158Y-6612057D02*
X105834586Y-6612057D01*
X105834586Y-6612057D02*
X106120301Y-6754914D01*
X106120301Y-6754914D02*
X106406015Y-7040628D01*
X106406015Y-7040628D02*
X106548872Y-7612057D01*
X106548872Y-7612057D02*
X106548872Y-8612057D01*
X106548872Y-8612057D02*
X106406015Y-9183485D01*
X106406015Y-9183485D02*
X106120301Y-9469200D01*
X106120301Y-9469200D02*
X105834586Y-9612057D01*
X105834586Y-9612057D02*
X105263158Y-9612057D01*
X105263158Y-9612057D02*
X104977444Y-9469200D01*
X104977444Y-9469200D02*
X104691729Y-9183485D01*
X104691729Y-9183485D02*
X104548872Y-8612057D01*
X104548872Y-8612057D02*
X104548872Y-7612057D01*
X104548872Y-7612057D02*
X104691729Y-7040628D01*
X104691729Y-7040628D02*
X104977444Y-6754914D01*
X104977444Y-6754914D02*
X105263158Y-6612057D01*
X109263158Y-9612057D02*
X107834586Y-9612057D01*
X107834586Y-9612057D02*
X107834586Y-6612057D01*
X110263157Y-9612057D02*
X110263157Y-6612057D01*
X110263157Y-6612057D02*
X110977443Y-6612057D01*
X110977443Y-6612057D02*
X111406014Y-6754914D01*
X111406014Y-6754914D02*
X111691729Y-7040628D01*
X111691729Y-7040628D02*
X111834586Y-7326342D01*
X111834586Y-7326342D02*
X111977443Y-7897771D01*
X111977443Y-7897771D02*
X111977443Y-8326342D01*
X111977443Y-8326342D02*
X111834586Y-8897771D01*
X111834586Y-8897771D02*
X111691729Y-9183485D01*
X111691729Y-9183485D02*
X111406014Y-9469200D01*
X111406014Y-9469200D02*
X110977443Y-9612057D01*
X110977443Y-9612057D02*
X110263157Y-9612057D01*
X113263157Y-8040628D02*
X114263157Y-8040628D01*
X114691729Y-9612057D02*
X113263157Y-9612057D01*
X113263157Y-9612057D02*
X113263157Y-6612057D01*
X113263157Y-6612057D02*
X114691729Y-6612057D01*
X117691729Y-9612057D02*
X116691729Y-8183485D01*
X115977443Y-9612057D02*
X115977443Y-6612057D01*
X115977443Y-6612057D02*
X117120300Y-6612057D01*
X117120300Y-6612057D02*
X117406015Y-6754914D01*
X117406015Y-6754914D02*
X117548872Y-6897771D01*
X117548872Y-6897771D02*
X117691729Y-7183485D01*
X117691729Y-7183485D02*
X117691729Y-7612057D01*
X117691729Y-7612057D02*
X117548872Y-7897771D01*
X117548872Y-7897771D02*
X117406015Y-8040628D01*
X117406015Y-8040628D02*
X117120300Y-8183485D01*
X117120300Y-8183485D02*
X115977443Y-8183485D01*
X121263157Y-9612057D02*
X121263157Y-6612057D01*
X121263157Y-6612057D02*
X122406014Y-6612057D01*
X122406014Y-6612057D02*
X122691729Y-6754914D01*
X122691729Y-6754914D02*
X122834586Y-6897771D01*
X122834586Y-6897771D02*
X122977443Y-7183485D01*
X122977443Y-7183485D02*
X122977443Y-7612057D01*
X122977443Y-7612057D02*
X122834586Y-7897771D01*
X122834586Y-7897771D02*
X122691729Y-8040628D01*
X122691729Y-8040628D02*
X122406014Y-8183485D01*
X122406014Y-8183485D02*
X121263157Y-8183485D01*
X125977443Y-9326342D02*
X125834586Y-9469200D01*
X125834586Y-9469200D02*
X125406014Y-9612057D01*
X125406014Y-9612057D02*
X125120300Y-9612057D01*
X125120300Y-9612057D02*
X124691729Y-9469200D01*
X124691729Y-9469200D02*
X124406014Y-9183485D01*
X124406014Y-9183485D02*
X124263157Y-8897771D01*
X124263157Y-8897771D02*
X124120300Y-8326342D01*
X124120300Y-8326342D02*
X124120300Y-7897771D01*
X124120300Y-7897771D02*
X124263157Y-7326342D01*
X124263157Y-7326342D02*
X124406014Y-7040628D01*
X124406014Y-7040628D02*
X124691729Y-6754914D01*
X124691729Y-6754914D02*
X125120300Y-6612057D01*
X125120300Y-6612057D02*
X125406014Y-6612057D01*
X125406014Y-6612057D02*
X125834586Y-6754914D01*
X125834586Y-6754914D02*
X125977443Y-6897771D01*
X128263157Y-8040628D02*
X128691729Y-8183485D01*
X128691729Y-8183485D02*
X128834586Y-8326342D01*
X128834586Y-8326342D02*
X128977443Y-8612057D01*
X128977443Y-8612057D02*
X128977443Y-9040628D01*
X128977443Y-9040628D02*
X128834586Y-9326342D01*
X128834586Y-9326342D02*
X128691729Y-9469200D01*
X128691729Y-9469200D02*
X128406014Y-9612057D01*
X128406014Y-9612057D02*
X127263157Y-9612057D01*
X127263157Y-9612057D02*
X127263157Y-6612057D01*
X127263157Y-6612057D02*
X128263157Y-6612057D01*
X128263157Y-6612057D02*
X128548872Y-6754914D01*
X128548872Y-6754914D02*
X128691729Y-6897771D01*
X128691729Y-6897771D02*
X128834586Y-7183485D01*
X128834586Y-7183485D02*
X128834586Y-7469200D01*
X128834586Y-7469200D02*
X128691729Y-7754914D01*
X128691729Y-7754914D02*
X128548872Y-7897771D01*
X128548872Y-7897771D02*
X128263157Y-8040628D01*
X128263157Y-8040628D02*
X127263157Y-8040628D01*
D11*
X10398244Y-14751600D02*
X10598244Y-14818266D01*
X10598244Y-14818266D02*
X10931578Y-14818266D01*
X10931578Y-14818266D02*
X11064911Y-14751600D01*
X11064911Y-14751600D02*
X11131578Y-14684933D01*
X11131578Y-14684933D02*
X11198244Y-14551600D01*
X11198244Y-14551600D02*
X11198244Y-14418266D01*
X11198244Y-14418266D02*
X11131578Y-14284933D01*
X11131578Y-14284933D02*
X11064911Y-14218266D01*
X11064911Y-14218266D02*
X10931578Y-14151600D01*
X10931578Y-14151600D02*
X10664911Y-14084933D01*
X10664911Y-14084933D02*
X10531578Y-14018266D01*
X10531578Y-14018266D02*
X10464911Y-13951600D01*
X10464911Y-13951600D02*
X10398244Y-13818266D01*
X10398244Y-13818266D02*
X10398244Y-13684933D01*
X10398244Y-13684933D02*
X10464911Y-13551600D01*
X10464911Y-13551600D02*
X10531578Y-13484933D01*
X10531578Y-13484933D02*
X10664911Y-13418266D01*
X10664911Y-13418266D02*
X10998244Y-13418266D01*
X10998244Y-13418266D02*
X11198244Y-13484933D01*
X12331577Y-14751600D02*
X12198244Y-14818266D01*
X12198244Y-14818266D02*
X11931577Y-14818266D01*
X11931577Y-14818266D02*
X11798244Y-14751600D01*
X11798244Y-14751600D02*
X11731577Y-14618266D01*
X11731577Y-14618266D02*
X11731577Y-14084933D01*
X11731577Y-14084933D02*
X11798244Y-13951600D01*
X11798244Y-13951600D02*
X11931577Y-13884933D01*
X11931577Y-13884933D02*
X12198244Y-13884933D01*
X12198244Y-13884933D02*
X12331577Y-13951600D01*
X12331577Y-13951600D02*
X12398244Y-14084933D01*
X12398244Y-14084933D02*
X12398244Y-14218266D01*
X12398244Y-14218266D02*
X11731577Y-14351600D01*
X13531577Y-14751600D02*
X13398244Y-14818266D01*
X13398244Y-14818266D02*
X13131577Y-14818266D01*
X13131577Y-14818266D02*
X12998244Y-14751600D01*
X12998244Y-14751600D02*
X12931577Y-14618266D01*
X12931577Y-14618266D02*
X12931577Y-14084933D01*
X12931577Y-14084933D02*
X12998244Y-13951600D01*
X12998244Y-13951600D02*
X13131577Y-13884933D01*
X13131577Y-13884933D02*
X13398244Y-13884933D01*
X13398244Y-13884933D02*
X13531577Y-13951600D01*
X13531577Y-13951600D02*
X13598244Y-14084933D01*
X13598244Y-14084933D02*
X13598244Y-14218266D01*
X13598244Y-14218266D02*
X12931577Y-14351600D01*
X15264911Y-14684933D02*
X15331578Y-14751600D01*
X15331578Y-14751600D02*
X15264911Y-14818266D01*
X15264911Y-14818266D02*
X15198244Y-14751600D01*
X15198244Y-14751600D02*
X15264911Y-14684933D01*
X15264911Y-14684933D02*
X15264911Y-14818266D01*
X15931578Y-14684933D02*
X15998245Y-14751600D01*
X15998245Y-14751600D02*
X15931578Y-14818266D01*
X15931578Y-14818266D02*
X15864911Y-14751600D01*
X15864911Y-14751600D02*
X15931578Y-14684933D01*
X15931578Y-14684933D02*
X15931578Y-14818266D01*
X17598245Y-13351600D02*
X16398245Y-15151600D01*
X18064912Y-14818266D02*
X18064912Y-13418266D01*
X18064912Y-13951600D02*
X18198245Y-13884933D01*
X18198245Y-13884933D02*
X18464912Y-13884933D01*
X18464912Y-13884933D02*
X18598245Y-13951600D01*
X18598245Y-13951600D02*
X18664912Y-14018266D01*
X18664912Y-14018266D02*
X18731579Y-14151600D01*
X18731579Y-14151600D02*
X18731579Y-14551600D01*
X18731579Y-14551600D02*
X18664912Y-14684933D01*
X18664912Y-14684933D02*
X18598245Y-14751600D01*
X18598245Y-14751600D02*
X18464912Y-14818266D01*
X18464912Y-14818266D02*
X18198245Y-14818266D01*
X18198245Y-14818266D02*
X18064912Y-14751600D01*
X19531579Y-14818266D02*
X19398246Y-14751600D01*
X19398246Y-14751600D02*
X19331579Y-14618266D01*
X19331579Y-14618266D02*
X19331579Y-13418266D01*
X20264912Y-14818266D02*
X20131579Y-14751600D01*
X20131579Y-14751600D02*
X20064912Y-14684933D01*
X20064912Y-14684933D02*
X19998245Y-14551600D01*
X19998245Y-14551600D02*
X19998245Y-14151600D01*
X19998245Y-14151600D02*
X20064912Y-14018266D01*
X20064912Y-14018266D02*
X20131579Y-13951600D01*
X20131579Y-13951600D02*
X20264912Y-13884933D01*
X20264912Y-13884933D02*
X20464912Y-13884933D01*
X20464912Y-13884933D02*
X20598245Y-13951600D01*
X20598245Y-13951600D02*
X20664912Y-14018266D01*
X20664912Y-14018266D02*
X20731579Y-14151600D01*
X20731579Y-14151600D02*
X20731579Y-14551600D01*
X20731579Y-14551600D02*
X20664912Y-14684933D01*
X20664912Y-14684933D02*
X20598245Y-14751600D01*
X20598245Y-14751600D02*
X20464912Y-14818266D01*
X20464912Y-14818266D02*
X20264912Y-14818266D01*
X21931579Y-14751600D02*
X21798246Y-14818266D01*
X21798246Y-14818266D02*
X21531579Y-14818266D01*
X21531579Y-14818266D02*
X21398246Y-14751600D01*
X21398246Y-14751600D02*
X21331579Y-14684933D01*
X21331579Y-14684933D02*
X21264912Y-14551600D01*
X21264912Y-14551600D02*
X21264912Y-14151600D01*
X21264912Y-14151600D02*
X21331579Y-14018266D01*
X21331579Y-14018266D02*
X21398246Y-13951600D01*
X21398246Y-13951600D02*
X21531579Y-13884933D01*
X21531579Y-13884933D02*
X21798246Y-13884933D01*
X21798246Y-13884933D02*
X21931579Y-13951600D01*
X22531579Y-14818266D02*
X22531579Y-13418266D01*
X22664912Y-14284933D02*
X23064912Y-14818266D01*
X23064912Y-13884933D02*
X22531579Y-14418266D01*
X23664912Y-14284933D02*
X24731579Y-14284933D01*
X25998245Y-14818266D02*
X25998245Y-13418266D01*
X25998245Y-14751600D02*
X25864912Y-14818266D01*
X25864912Y-14818266D02*
X25598245Y-14818266D01*
X25598245Y-14818266D02*
X25464912Y-14751600D01*
X25464912Y-14751600D02*
X25398245Y-14684933D01*
X25398245Y-14684933D02*
X25331578Y-14551600D01*
X25331578Y-14551600D02*
X25331578Y-14151600D01*
X25331578Y-14151600D02*
X25398245Y-14018266D01*
X25398245Y-14018266D02*
X25464912Y-13951600D01*
X25464912Y-13951600D02*
X25598245Y-13884933D01*
X25598245Y-13884933D02*
X25864912Y-13884933D01*
X25864912Y-13884933D02*
X25998245Y-13951600D01*
X26664912Y-14818266D02*
X26664912Y-13884933D01*
X26664912Y-13418266D02*
X26598245Y-13484933D01*
X26598245Y-13484933D02*
X26664912Y-13551600D01*
X26664912Y-13551600D02*
X26731579Y-13484933D01*
X26731579Y-13484933D02*
X26664912Y-13418266D01*
X26664912Y-13418266D02*
X26664912Y-13551600D01*
X27931579Y-14818266D02*
X27931579Y-14084933D01*
X27931579Y-14084933D02*
X27864912Y-13951600D01*
X27864912Y-13951600D02*
X27731579Y-13884933D01*
X27731579Y-13884933D02*
X27464912Y-13884933D01*
X27464912Y-13884933D02*
X27331579Y-13951600D01*
X27931579Y-14751600D02*
X27798246Y-14818266D01*
X27798246Y-14818266D02*
X27464912Y-14818266D01*
X27464912Y-14818266D02*
X27331579Y-14751600D01*
X27331579Y-14751600D02*
X27264912Y-14618266D01*
X27264912Y-14618266D02*
X27264912Y-14484933D01*
X27264912Y-14484933D02*
X27331579Y-14351600D01*
X27331579Y-14351600D02*
X27464912Y-14284933D01*
X27464912Y-14284933D02*
X27798246Y-14284933D01*
X27798246Y-14284933D02*
X27931579Y-14218266D01*
X29198246Y-13884933D02*
X29198246Y-15018266D01*
X29198246Y-15018266D02*
X29131579Y-15151600D01*
X29131579Y-15151600D02*
X29064913Y-15218266D01*
X29064913Y-15218266D02*
X28931579Y-15284933D01*
X28931579Y-15284933D02*
X28731579Y-15284933D01*
X28731579Y-15284933D02*
X28598246Y-15218266D01*
X29198246Y-14751600D02*
X29064913Y-14818266D01*
X29064913Y-14818266D02*
X28798246Y-14818266D01*
X28798246Y-14818266D02*
X28664913Y-14751600D01*
X28664913Y-14751600D02*
X28598246Y-14684933D01*
X28598246Y-14684933D02*
X28531579Y-14551600D01*
X28531579Y-14551600D02*
X28531579Y-14151600D01*
X28531579Y-14151600D02*
X28598246Y-14018266D01*
X28598246Y-14018266D02*
X28664913Y-13951600D01*
X28664913Y-13951600D02*
X28798246Y-13884933D01*
X28798246Y-13884933D02*
X29064913Y-13884933D01*
X29064913Y-13884933D02*
X29198246Y-13951600D01*
X29864913Y-14818266D02*
X29864913Y-13884933D01*
X29864913Y-14151600D02*
X29931580Y-14018266D01*
X29931580Y-14018266D02*
X29998246Y-13951600D01*
X29998246Y-13951600D02*
X30131580Y-13884933D01*
X30131580Y-13884933D02*
X30264913Y-13884933D01*
X31331580Y-14818266D02*
X31331580Y-14084933D01*
X31331580Y-14084933D02*
X31264913Y-13951600D01*
X31264913Y-13951600D02*
X31131580Y-13884933D01*
X31131580Y-13884933D02*
X30864913Y-13884933D01*
X30864913Y-13884933D02*
X30731580Y-13951600D01*
X31331580Y-14751600D02*
X31198247Y-14818266D01*
X31198247Y-14818266D02*
X30864913Y-14818266D01*
X30864913Y-14818266D02*
X30731580Y-14751600D01*
X30731580Y-14751600D02*
X30664913Y-14618266D01*
X30664913Y-14618266D02*
X30664913Y-14484933D01*
X30664913Y-14484933D02*
X30731580Y-14351600D01*
X30731580Y-14351600D02*
X30864913Y-14284933D01*
X30864913Y-14284933D02*
X31198247Y-14284933D01*
X31198247Y-14284933D02*
X31331580Y-14218266D01*
X31998247Y-14818266D02*
X31998247Y-13884933D01*
X31998247Y-14018266D02*
X32064914Y-13951600D01*
X32064914Y-13951600D02*
X32198247Y-13884933D01*
X32198247Y-13884933D02*
X32398247Y-13884933D01*
X32398247Y-13884933D02*
X32531580Y-13951600D01*
X32531580Y-13951600D02*
X32598247Y-14084933D01*
X32598247Y-14084933D02*
X32598247Y-14818266D01*
X32598247Y-14084933D02*
X32664914Y-13951600D01*
X32664914Y-13951600D02*
X32798247Y-13884933D01*
X32798247Y-13884933D02*
X32998247Y-13884933D01*
X32998247Y-13884933D02*
X33131580Y-13951600D01*
X33131580Y-13951600D02*
X33198247Y-14084933D01*
X33198247Y-14084933D02*
X33198247Y-14818266D01*
X33798247Y-14751600D02*
X33931581Y-14818266D01*
X33931581Y-14818266D02*
X34198247Y-14818266D01*
X34198247Y-14818266D02*
X34331581Y-14751600D01*
X34331581Y-14751600D02*
X34398247Y-14618266D01*
X34398247Y-14618266D02*
X34398247Y-14551600D01*
X34398247Y-14551600D02*
X34331581Y-14418266D01*
X34331581Y-14418266D02*
X34198247Y-14351600D01*
X34198247Y-14351600D02*
X33998247Y-14351600D01*
X33998247Y-14351600D02*
X33864914Y-14284933D01*
X33864914Y-14284933D02*
X33798247Y-14151600D01*
X33798247Y-14151600D02*
X33798247Y-14084933D01*
X33798247Y-14084933D02*
X33864914Y-13951600D01*
X33864914Y-13951600D02*
X33998247Y-13884933D01*
X33998247Y-13884933D02*
X34198247Y-13884933D01*
X34198247Y-13884933D02*
X34331581Y-13951600D01*
X35998247Y-13351600D02*
X34798247Y-15151600D01*
X37064914Y-14818266D02*
X37064914Y-14084933D01*
X37064914Y-14084933D02*
X36998247Y-13951600D01*
X36998247Y-13951600D02*
X36864914Y-13884933D01*
X36864914Y-13884933D02*
X36598247Y-13884933D01*
X36598247Y-13884933D02*
X36464914Y-13951600D01*
X37064914Y-14751600D02*
X36931581Y-14818266D01*
X36931581Y-14818266D02*
X36598247Y-14818266D01*
X36598247Y-14818266D02*
X36464914Y-14751600D01*
X36464914Y-14751600D02*
X36398247Y-14618266D01*
X36398247Y-14618266D02*
X36398247Y-14484933D01*
X36398247Y-14484933D02*
X36464914Y-14351600D01*
X36464914Y-14351600D02*
X36598247Y-14284933D01*
X36598247Y-14284933D02*
X36931581Y-14284933D01*
X36931581Y-14284933D02*
X37064914Y-14218266D01*
X38331581Y-13884933D02*
X38331581Y-14818266D01*
X37731581Y-13884933D02*
X37731581Y-14618266D01*
X37731581Y-14618266D02*
X37798248Y-14751600D01*
X37798248Y-14751600D02*
X37931581Y-14818266D01*
X37931581Y-14818266D02*
X38131581Y-14818266D01*
X38131581Y-14818266D02*
X38264914Y-14751600D01*
X38264914Y-14751600D02*
X38331581Y-14684933D01*
X39598248Y-14818266D02*
X39598248Y-13418266D01*
X39598248Y-14751600D02*
X39464915Y-14818266D01*
X39464915Y-14818266D02*
X39198248Y-14818266D01*
X39198248Y-14818266D02*
X39064915Y-14751600D01*
X39064915Y-14751600D02*
X38998248Y-14684933D01*
X38998248Y-14684933D02*
X38931581Y-14551600D01*
X38931581Y-14551600D02*
X38931581Y-14151600D01*
X38931581Y-14151600D02*
X38998248Y-14018266D01*
X38998248Y-14018266D02*
X39064915Y-13951600D01*
X39064915Y-13951600D02*
X39198248Y-13884933D01*
X39198248Y-13884933D02*
X39464915Y-13884933D01*
X39464915Y-13884933D02*
X39598248Y-13951600D01*
X40264915Y-14818266D02*
X40264915Y-13884933D01*
X40264915Y-13418266D02*
X40198248Y-13484933D01*
X40198248Y-13484933D02*
X40264915Y-13551600D01*
X40264915Y-13551600D02*
X40331582Y-13484933D01*
X40331582Y-13484933D02*
X40264915Y-13418266D01*
X40264915Y-13418266D02*
X40264915Y-13551600D01*
X41131582Y-14818266D02*
X40998249Y-14751600D01*
X40998249Y-14751600D02*
X40931582Y-14684933D01*
X40931582Y-14684933D02*
X40864915Y-14551600D01*
X40864915Y-14551600D02*
X40864915Y-14151600D01*
X40864915Y-14151600D02*
X40931582Y-14018266D01*
X40931582Y-14018266D02*
X40998249Y-13951600D01*
X40998249Y-13951600D02*
X41131582Y-13884933D01*
X41131582Y-13884933D02*
X41331582Y-13884933D01*
X41331582Y-13884933D02*
X41464915Y-13951600D01*
X41464915Y-13951600D02*
X41531582Y-14018266D01*
X41531582Y-14018266D02*
X41598249Y-14151600D01*
X41598249Y-14151600D02*
X41598249Y-14551600D01*
X41598249Y-14551600D02*
X41531582Y-14684933D01*
X41531582Y-14684933D02*
X41464915Y-14751600D01*
X41464915Y-14751600D02*
X41331582Y-14818266D01*
X41331582Y-14818266D02*
X41131582Y-14818266D01*
X42198249Y-14284933D02*
X43264916Y-14284933D01*
X44531582Y-14818266D02*
X44531582Y-14084933D01*
X44531582Y-14084933D02*
X44464915Y-13951600D01*
X44464915Y-13951600D02*
X44331582Y-13884933D01*
X44331582Y-13884933D02*
X44064915Y-13884933D01*
X44064915Y-13884933D02*
X43931582Y-13951600D01*
X44531582Y-14751600D02*
X44398249Y-14818266D01*
X44398249Y-14818266D02*
X44064915Y-14818266D01*
X44064915Y-14818266D02*
X43931582Y-14751600D01*
X43931582Y-14751600D02*
X43864915Y-14618266D01*
X43864915Y-14618266D02*
X43864915Y-14484933D01*
X43864915Y-14484933D02*
X43931582Y-14351600D01*
X43931582Y-14351600D02*
X44064915Y-14284933D01*
X44064915Y-14284933D02*
X44398249Y-14284933D01*
X44398249Y-14284933D02*
X44531582Y-14218266D01*
X45198249Y-14818266D02*
X45198249Y-13884933D01*
X45198249Y-14018266D02*
X45264916Y-13951600D01*
X45264916Y-13951600D02*
X45398249Y-13884933D01*
X45398249Y-13884933D02*
X45598249Y-13884933D01*
X45598249Y-13884933D02*
X45731582Y-13951600D01*
X45731582Y-13951600D02*
X45798249Y-14084933D01*
X45798249Y-14084933D02*
X45798249Y-14818266D01*
X45798249Y-14084933D02*
X45864916Y-13951600D01*
X45864916Y-13951600D02*
X45998249Y-13884933D01*
X45998249Y-13884933D02*
X46198249Y-13884933D01*
X46198249Y-13884933D02*
X46331582Y-13951600D01*
X46331582Y-13951600D02*
X46398249Y-14084933D01*
X46398249Y-14084933D02*
X46398249Y-14818266D01*
X47064916Y-13884933D02*
X47064916Y-15284933D01*
X47064916Y-13951600D02*
X47198249Y-13884933D01*
X47198249Y-13884933D02*
X47464916Y-13884933D01*
X47464916Y-13884933D02*
X47598249Y-13951600D01*
X47598249Y-13951600D02*
X47664916Y-14018266D01*
X47664916Y-14018266D02*
X47731583Y-14151600D01*
X47731583Y-14151600D02*
X47731583Y-14551600D01*
X47731583Y-14551600D02*
X47664916Y-14684933D01*
X47664916Y-14684933D02*
X47598249Y-14751600D01*
X47598249Y-14751600D02*
X47464916Y-14818266D01*
X47464916Y-14818266D02*
X47198249Y-14818266D01*
X47198249Y-14818266D02*
X47064916Y-14751600D01*
X48331583Y-14684933D02*
X48398250Y-14751600D01*
X48398250Y-14751600D02*
X48331583Y-14818266D01*
X48331583Y-14818266D02*
X48264916Y-14751600D01*
X48264916Y-14751600D02*
X48331583Y-14684933D01*
X48331583Y-14684933D02*
X48331583Y-14818266D01*
X48998250Y-14818266D02*
X48998250Y-13884933D01*
X48998250Y-14018266D02*
X49064917Y-13951600D01*
X49064917Y-13951600D02*
X49198250Y-13884933D01*
X49198250Y-13884933D02*
X49398250Y-13884933D01*
X49398250Y-13884933D02*
X49531583Y-13951600D01*
X49531583Y-13951600D02*
X49598250Y-14084933D01*
X49598250Y-14084933D02*
X49598250Y-14818266D01*
X49598250Y-14084933D02*
X49664917Y-13951600D01*
X49664917Y-13951600D02*
X49798250Y-13884933D01*
X49798250Y-13884933D02*
X49998250Y-13884933D01*
X49998250Y-13884933D02*
X50131583Y-13951600D01*
X50131583Y-13951600D02*
X50198250Y-14084933D01*
X50198250Y-14084933D02*
X50198250Y-14818266D01*
X51464917Y-14818266D02*
X51464917Y-13418266D01*
X51464917Y-14751600D02*
X51331584Y-14818266D01*
X51331584Y-14818266D02*
X51064917Y-14818266D01*
X51064917Y-14818266D02*
X50931584Y-14751600D01*
X50931584Y-14751600D02*
X50864917Y-14684933D01*
X50864917Y-14684933D02*
X50798250Y-14551600D01*
X50798250Y-14551600D02*
X50798250Y-14151600D01*
X50798250Y-14151600D02*
X50864917Y-14018266D01*
X50864917Y-14018266D02*
X50931584Y-13951600D01*
X50931584Y-13951600D02*
X51064917Y-13884933D01*
X51064917Y-13884933D02*
X51331584Y-13884933D01*
X51331584Y-13884933D02*
X51464917Y-13951600D01*
X53798251Y-14818266D02*
X53798251Y-14084933D01*
X53798251Y-14084933D02*
X53731584Y-13951600D01*
X53731584Y-13951600D02*
X53598251Y-13884933D01*
X53598251Y-13884933D02*
X53331584Y-13884933D01*
X53331584Y-13884933D02*
X53198251Y-13951600D01*
X53798251Y-14751600D02*
X53664918Y-14818266D01*
X53664918Y-14818266D02*
X53331584Y-14818266D01*
X53331584Y-14818266D02*
X53198251Y-14751600D01*
X53198251Y-14751600D02*
X53131584Y-14618266D01*
X53131584Y-14618266D02*
X53131584Y-14484933D01*
X53131584Y-14484933D02*
X53198251Y-14351600D01*
X53198251Y-14351600D02*
X53331584Y-14284933D01*
X53331584Y-14284933D02*
X53664918Y-14284933D01*
X53664918Y-14284933D02*
X53798251Y-14218266D01*
X54464918Y-13884933D02*
X54464918Y-14818266D01*
X54464918Y-14018266D02*
X54531585Y-13951600D01*
X54531585Y-13951600D02*
X54664918Y-13884933D01*
X54664918Y-13884933D02*
X54864918Y-13884933D01*
X54864918Y-13884933D02*
X54998251Y-13951600D01*
X54998251Y-13951600D02*
X55064918Y-14084933D01*
X55064918Y-14084933D02*
X55064918Y-14818266D01*
X56331585Y-14818266D02*
X56331585Y-13418266D01*
X56331585Y-14751600D02*
X56198252Y-14818266D01*
X56198252Y-14818266D02*
X55931585Y-14818266D01*
X55931585Y-14818266D02*
X55798252Y-14751600D01*
X55798252Y-14751600D02*
X55731585Y-14684933D01*
X55731585Y-14684933D02*
X55664918Y-14551600D01*
X55664918Y-14551600D02*
X55664918Y-14151600D01*
X55664918Y-14151600D02*
X55731585Y-14018266D01*
X55731585Y-14018266D02*
X55798252Y-13951600D01*
X55798252Y-13951600D02*
X55931585Y-13884933D01*
X55931585Y-13884933D02*
X56198252Y-13884933D01*
X56198252Y-13884933D02*
X56331585Y-13951600D01*
X58864919Y-14818266D02*
X58398252Y-14151600D01*
X58064919Y-14818266D02*
X58064919Y-13418266D01*
X58064919Y-13418266D02*
X58598252Y-13418266D01*
X58598252Y-13418266D02*
X58731586Y-13484933D01*
X58731586Y-13484933D02*
X58798252Y-13551600D01*
X58798252Y-13551600D02*
X58864919Y-13684933D01*
X58864919Y-13684933D02*
X58864919Y-13884933D01*
X58864919Y-13884933D02*
X58798252Y-14018266D01*
X58798252Y-14018266D02*
X58731586Y-14084933D01*
X58731586Y-14084933D02*
X58598252Y-14151600D01*
X58598252Y-14151600D02*
X58064919Y-14151600D01*
X59464919Y-14084933D02*
X59931586Y-14084933D01*
X60131586Y-14818266D02*
X59464919Y-14818266D01*
X59464919Y-14818266D02*
X59464919Y-13418266D01*
X59464919Y-13418266D02*
X60131586Y-13418266D01*
X60664919Y-14418266D02*
X61331586Y-14418266D01*
X60531586Y-14818266D02*
X60998253Y-13418266D01*
X60998253Y-13418266D02*
X61464919Y-14818266D01*
X61931586Y-14818266D02*
X61931586Y-13418266D01*
X61931586Y-13418266D02*
X62264919Y-13418266D01*
X62264919Y-13418266D02*
X62464919Y-13484933D01*
X62464919Y-13484933D02*
X62598253Y-13618266D01*
X62598253Y-13618266D02*
X62664919Y-13751600D01*
X62664919Y-13751600D02*
X62731586Y-14018266D01*
X62731586Y-14018266D02*
X62731586Y-14218266D01*
X62731586Y-14218266D02*
X62664919Y-14484933D01*
X62664919Y-14484933D02*
X62598253Y-14618266D01*
X62598253Y-14618266D02*
X62464919Y-14751600D01*
X62464919Y-14751600D02*
X62264919Y-14818266D01*
X62264919Y-14818266D02*
X61931586Y-14818266D01*
X63331586Y-14818266D02*
X63331586Y-13418266D01*
X63331586Y-13418266D02*
X63798253Y-14418266D01*
X63798253Y-14418266D02*
X64264919Y-13418266D01*
X64264919Y-13418266D02*
X64264919Y-14818266D01*
X64931586Y-14084933D02*
X65398253Y-14084933D01*
X65598253Y-14818266D02*
X64931586Y-14818266D01*
X64931586Y-14818266D02*
X64931586Y-13418266D01*
X64931586Y-13418266D02*
X65598253Y-13418266D01*
X67064920Y-13884933D02*
X67598253Y-13884933D01*
X67264920Y-14818266D02*
X67264920Y-13618266D01*
X67264920Y-13618266D02*
X67331587Y-13484933D01*
X67331587Y-13484933D02*
X67464920Y-13418266D01*
X67464920Y-13418266D02*
X67598253Y-13418266D01*
X68264920Y-14818266D02*
X68131587Y-14751600D01*
X68131587Y-14751600D02*
X68064920Y-14684933D01*
X68064920Y-14684933D02*
X67998253Y-14551600D01*
X67998253Y-14551600D02*
X67998253Y-14151600D01*
X67998253Y-14151600D02*
X68064920Y-14018266D01*
X68064920Y-14018266D02*
X68131587Y-13951600D01*
X68131587Y-13951600D02*
X68264920Y-13884933D01*
X68264920Y-13884933D02*
X68464920Y-13884933D01*
X68464920Y-13884933D02*
X68598253Y-13951600D01*
X68598253Y-13951600D02*
X68664920Y-14018266D01*
X68664920Y-14018266D02*
X68731587Y-14151600D01*
X68731587Y-14151600D02*
X68731587Y-14551600D01*
X68731587Y-14551600D02*
X68664920Y-14684933D01*
X68664920Y-14684933D02*
X68598253Y-14751600D01*
X68598253Y-14751600D02*
X68464920Y-14818266D01*
X68464920Y-14818266D02*
X68264920Y-14818266D01*
X69331587Y-14818266D02*
X69331587Y-13884933D01*
X69331587Y-14151600D02*
X69398254Y-14018266D01*
X69398254Y-14018266D02*
X69464920Y-13951600D01*
X69464920Y-13951600D02*
X69598254Y-13884933D01*
X69598254Y-13884933D02*
X69731587Y-13884933D01*
X71198254Y-14751600D02*
X71331588Y-14818266D01*
X71331588Y-14818266D02*
X71598254Y-14818266D01*
X71598254Y-14818266D02*
X71731588Y-14751600D01*
X71731588Y-14751600D02*
X71798254Y-14618266D01*
X71798254Y-14618266D02*
X71798254Y-14551600D01*
X71798254Y-14551600D02*
X71731588Y-14418266D01*
X71731588Y-14418266D02*
X71598254Y-14351600D01*
X71598254Y-14351600D02*
X71398254Y-14351600D01*
X71398254Y-14351600D02*
X71264921Y-14284933D01*
X71264921Y-14284933D02*
X71198254Y-14151600D01*
X71198254Y-14151600D02*
X71198254Y-14084933D01*
X71198254Y-14084933D02*
X71264921Y-13951600D01*
X71264921Y-13951600D02*
X71398254Y-13884933D01*
X71398254Y-13884933D02*
X71598254Y-13884933D01*
X71598254Y-13884933D02*
X71731588Y-13951600D01*
X72398254Y-14818266D02*
X72398254Y-13884933D01*
X72398254Y-13418266D02*
X72331587Y-13484933D01*
X72331587Y-13484933D02*
X72398254Y-13551600D01*
X72398254Y-13551600D02*
X72464921Y-13484933D01*
X72464921Y-13484933D02*
X72398254Y-13418266D01*
X72398254Y-13418266D02*
X72398254Y-13551600D01*
X73664921Y-13884933D02*
X73664921Y-15018266D01*
X73664921Y-15018266D02*
X73598254Y-15151600D01*
X73598254Y-15151600D02*
X73531588Y-15218266D01*
X73531588Y-15218266D02*
X73398254Y-15284933D01*
X73398254Y-15284933D02*
X73198254Y-15284933D01*
X73198254Y-15284933D02*
X73064921Y-15218266D01*
X73664921Y-14751600D02*
X73531588Y-14818266D01*
X73531588Y-14818266D02*
X73264921Y-14818266D01*
X73264921Y-14818266D02*
X73131588Y-14751600D01*
X73131588Y-14751600D02*
X73064921Y-14684933D01*
X73064921Y-14684933D02*
X72998254Y-14551600D01*
X72998254Y-14551600D02*
X72998254Y-14151600D01*
X72998254Y-14151600D02*
X73064921Y-14018266D01*
X73064921Y-14018266D02*
X73131588Y-13951600D01*
X73131588Y-13951600D02*
X73264921Y-13884933D01*
X73264921Y-13884933D02*
X73531588Y-13884933D01*
X73531588Y-13884933D02*
X73664921Y-13951600D01*
X74331588Y-13884933D02*
X74331588Y-14818266D01*
X74331588Y-14018266D02*
X74398255Y-13951600D01*
X74398255Y-13951600D02*
X74531588Y-13884933D01*
X74531588Y-13884933D02*
X74731588Y-13884933D01*
X74731588Y-13884933D02*
X74864921Y-13951600D01*
X74864921Y-13951600D02*
X74931588Y-14084933D01*
X74931588Y-14084933D02*
X74931588Y-14818266D01*
X76198255Y-14818266D02*
X76198255Y-14084933D01*
X76198255Y-14084933D02*
X76131588Y-13951600D01*
X76131588Y-13951600D02*
X75998255Y-13884933D01*
X75998255Y-13884933D02*
X75731588Y-13884933D01*
X75731588Y-13884933D02*
X75598255Y-13951600D01*
X76198255Y-14751600D02*
X76064922Y-14818266D01*
X76064922Y-14818266D02*
X75731588Y-14818266D01*
X75731588Y-14818266D02*
X75598255Y-14751600D01*
X75598255Y-14751600D02*
X75531588Y-14618266D01*
X75531588Y-14618266D02*
X75531588Y-14484933D01*
X75531588Y-14484933D02*
X75598255Y-14351600D01*
X75598255Y-14351600D02*
X75731588Y-14284933D01*
X75731588Y-14284933D02*
X76064922Y-14284933D01*
X76064922Y-14284933D02*
X76198255Y-14218266D01*
X77064922Y-14818266D02*
X76931589Y-14751600D01*
X76931589Y-14751600D02*
X76864922Y-14618266D01*
X76864922Y-14618266D02*
X76864922Y-13418266D01*
X79264922Y-14751600D02*
X79131589Y-14818266D01*
X79131589Y-14818266D02*
X78864922Y-14818266D01*
X78864922Y-14818266D02*
X78731589Y-14751600D01*
X78731589Y-14751600D02*
X78664922Y-14684933D01*
X78664922Y-14684933D02*
X78598255Y-14551600D01*
X78598255Y-14551600D02*
X78598255Y-14151600D01*
X78598255Y-14151600D02*
X78664922Y-14018266D01*
X78664922Y-14018266D02*
X78731589Y-13951600D01*
X78731589Y-13951600D02*
X78864922Y-13884933D01*
X78864922Y-13884933D02*
X79131589Y-13884933D01*
X79131589Y-13884933D02*
X79264922Y-13951600D01*
X79864922Y-14818266D02*
X79864922Y-13418266D01*
X80464922Y-14818266D02*
X80464922Y-14084933D01*
X80464922Y-14084933D02*
X80398255Y-13951600D01*
X80398255Y-13951600D02*
X80264922Y-13884933D01*
X80264922Y-13884933D02*
X80064922Y-13884933D01*
X80064922Y-13884933D02*
X79931589Y-13951600D01*
X79931589Y-13951600D02*
X79864922Y-14018266D01*
X81731589Y-14818266D02*
X81731589Y-14084933D01*
X81731589Y-14084933D02*
X81664922Y-13951600D01*
X81664922Y-13951600D02*
X81531589Y-13884933D01*
X81531589Y-13884933D02*
X81264922Y-13884933D01*
X81264922Y-13884933D02*
X81131589Y-13951600D01*
X81731589Y-14751600D02*
X81598256Y-14818266D01*
X81598256Y-14818266D02*
X81264922Y-14818266D01*
X81264922Y-14818266D02*
X81131589Y-14751600D01*
X81131589Y-14751600D02*
X81064922Y-14618266D01*
X81064922Y-14618266D02*
X81064922Y-14484933D01*
X81064922Y-14484933D02*
X81131589Y-14351600D01*
X81131589Y-14351600D02*
X81264922Y-14284933D01*
X81264922Y-14284933D02*
X81598256Y-14284933D01*
X81598256Y-14284933D02*
X81731589Y-14218266D01*
X82398256Y-14818266D02*
X82398256Y-13884933D01*
X82398256Y-13418266D02*
X82331589Y-13484933D01*
X82331589Y-13484933D02*
X82398256Y-13551600D01*
X82398256Y-13551600D02*
X82464923Y-13484933D01*
X82464923Y-13484933D02*
X82398256Y-13418266D01*
X82398256Y-13418266D02*
X82398256Y-13551600D01*
X83064923Y-13884933D02*
X83064923Y-14818266D01*
X83064923Y-14018266D02*
X83131590Y-13951600D01*
X83131590Y-13951600D02*
X83264923Y-13884933D01*
X83264923Y-13884933D02*
X83464923Y-13884933D01*
X83464923Y-13884933D02*
X83598256Y-13951600D01*
X83598256Y-13951600D02*
X83664923Y-14084933D01*
X83664923Y-14084933D02*
X83664923Y-14818266D01*
X84398257Y-14751600D02*
X84398257Y-14818266D01*
X84398257Y-14818266D02*
X84331590Y-14951600D01*
X84331590Y-14951600D02*
X84264923Y-15018266D01*
X86531591Y-14084933D02*
X86731591Y-14151600D01*
X86731591Y-14151600D02*
X86798257Y-14218266D01*
X86798257Y-14218266D02*
X86864924Y-14351600D01*
X86864924Y-14351600D02*
X86864924Y-14551600D01*
X86864924Y-14551600D02*
X86798257Y-14684933D01*
X86798257Y-14684933D02*
X86731591Y-14751600D01*
X86731591Y-14751600D02*
X86598257Y-14818266D01*
X86598257Y-14818266D02*
X86064924Y-14818266D01*
X86064924Y-14818266D02*
X86064924Y-13418266D01*
X86064924Y-13418266D02*
X86531591Y-13418266D01*
X86531591Y-13418266D02*
X86664924Y-13484933D01*
X86664924Y-13484933D02*
X86731591Y-13551600D01*
X86731591Y-13551600D02*
X86798257Y-13684933D01*
X86798257Y-13684933D02*
X86798257Y-13818266D01*
X86798257Y-13818266D02*
X86731591Y-13951600D01*
X86731591Y-13951600D02*
X86664924Y-14018266D01*
X86664924Y-14018266D02*
X86531591Y-14084933D01*
X86531591Y-14084933D02*
X86064924Y-14084933D01*
X87731591Y-13418266D02*
X87998257Y-13418266D01*
X87998257Y-13418266D02*
X88131591Y-13484933D01*
X88131591Y-13484933D02*
X88264924Y-13618266D01*
X88264924Y-13618266D02*
X88331591Y-13884933D01*
X88331591Y-13884933D02*
X88331591Y-14351600D01*
X88331591Y-14351600D02*
X88264924Y-14618266D01*
X88264924Y-14618266D02*
X88131591Y-14751600D01*
X88131591Y-14751600D02*
X87998257Y-14818266D01*
X87998257Y-14818266D02*
X87731591Y-14818266D01*
X87731591Y-14818266D02*
X87598257Y-14751600D01*
X87598257Y-14751600D02*
X87464924Y-14618266D01*
X87464924Y-14618266D02*
X87398257Y-14351600D01*
X87398257Y-14351600D02*
X87398257Y-13884933D01*
X87398257Y-13884933D02*
X87464924Y-13618266D01*
X87464924Y-13618266D02*
X87598257Y-13484933D01*
X87598257Y-13484933D02*
X87731591Y-13418266D01*
X88931591Y-14818266D02*
X88931591Y-13418266D01*
X88931591Y-13418266D02*
X89398258Y-14418266D01*
X89398258Y-14418266D02*
X89864924Y-13418266D01*
X89864924Y-13418266D02*
X89864924Y-14818266D01*
X90598258Y-14751600D02*
X90598258Y-14818266D01*
X90598258Y-14818266D02*
X90531591Y-14951600D01*
X90531591Y-14951600D02*
X90464924Y-15018266D01*
X92864925Y-14818266D02*
X92864925Y-14084933D01*
X92864925Y-14084933D02*
X92798258Y-13951600D01*
X92798258Y-13951600D02*
X92664925Y-13884933D01*
X92664925Y-13884933D02*
X92398258Y-13884933D01*
X92398258Y-13884933D02*
X92264925Y-13951600D01*
X92864925Y-14751600D02*
X92731592Y-14818266D01*
X92731592Y-14818266D02*
X92398258Y-14818266D01*
X92398258Y-14818266D02*
X92264925Y-14751600D01*
X92264925Y-14751600D02*
X92198258Y-14618266D01*
X92198258Y-14618266D02*
X92198258Y-14484933D01*
X92198258Y-14484933D02*
X92264925Y-14351600D01*
X92264925Y-14351600D02*
X92398258Y-14284933D01*
X92398258Y-14284933D02*
X92731592Y-14284933D01*
X92731592Y-14284933D02*
X92864925Y-14218266D01*
X93531592Y-13884933D02*
X93531592Y-14818266D01*
X93531592Y-14018266D02*
X93598259Y-13951600D01*
X93598259Y-13951600D02*
X93731592Y-13884933D01*
X93731592Y-13884933D02*
X93931592Y-13884933D01*
X93931592Y-13884933D02*
X94064925Y-13951600D01*
X94064925Y-13951600D02*
X94131592Y-14084933D01*
X94131592Y-14084933D02*
X94131592Y-14818266D01*
X95398259Y-14818266D02*
X95398259Y-13418266D01*
X95398259Y-14751600D02*
X95264926Y-14818266D01*
X95264926Y-14818266D02*
X94998259Y-14818266D01*
X94998259Y-14818266D02*
X94864926Y-14751600D01*
X94864926Y-14751600D02*
X94798259Y-14684933D01*
X94798259Y-14684933D02*
X94731592Y-14551600D01*
X94731592Y-14551600D02*
X94731592Y-14151600D01*
X94731592Y-14151600D02*
X94798259Y-14018266D01*
X94798259Y-14018266D02*
X94864926Y-13951600D01*
X94864926Y-13951600D02*
X94998259Y-13884933D01*
X94998259Y-13884933D02*
X95264926Y-13884933D01*
X95264926Y-13884933D02*
X95398259Y-13951600D01*
X97331593Y-14818266D02*
X97198260Y-14751600D01*
X97198260Y-14751600D02*
X97131593Y-14618266D01*
X97131593Y-14618266D02*
X97131593Y-13418266D01*
X98464926Y-14818266D02*
X98464926Y-14084933D01*
X98464926Y-14084933D02*
X98398259Y-13951600D01*
X98398259Y-13951600D02*
X98264926Y-13884933D01*
X98264926Y-13884933D02*
X97998259Y-13884933D01*
X97998259Y-13884933D02*
X97864926Y-13951600D01*
X98464926Y-14751600D02*
X98331593Y-14818266D01*
X98331593Y-14818266D02*
X97998259Y-14818266D01*
X97998259Y-14818266D02*
X97864926Y-14751600D01*
X97864926Y-14751600D02*
X97798259Y-14618266D01*
X97798259Y-14618266D02*
X97798259Y-14484933D01*
X97798259Y-14484933D02*
X97864926Y-14351600D01*
X97864926Y-14351600D02*
X97998259Y-14284933D01*
X97998259Y-14284933D02*
X98331593Y-14284933D01*
X98331593Y-14284933D02*
X98464926Y-14218266D01*
X98998260Y-13884933D02*
X99331593Y-14818266D01*
X99664926Y-13884933D02*
X99331593Y-14818266D01*
X99331593Y-14818266D02*
X99198260Y-15151600D01*
X99198260Y-15151600D02*
X99131593Y-15218266D01*
X99131593Y-15218266D02*
X98998260Y-15284933D01*
X100398260Y-14818266D02*
X100264927Y-14751600D01*
X100264927Y-14751600D02*
X100198260Y-14684933D01*
X100198260Y-14684933D02*
X100131593Y-14551600D01*
X100131593Y-14551600D02*
X100131593Y-14151600D01*
X100131593Y-14151600D02*
X100198260Y-14018266D01*
X100198260Y-14018266D02*
X100264927Y-13951600D01*
X100264927Y-13951600D02*
X100398260Y-13884933D01*
X100398260Y-13884933D02*
X100598260Y-13884933D01*
X100598260Y-13884933D02*
X100731593Y-13951600D01*
X100731593Y-13951600D02*
X100798260Y-14018266D01*
X100798260Y-14018266D02*
X100864927Y-14151600D01*
X100864927Y-14151600D02*
X100864927Y-14551600D01*
X100864927Y-14551600D02*
X100798260Y-14684933D01*
X100798260Y-14684933D02*
X100731593Y-14751600D01*
X100731593Y-14751600D02*
X100598260Y-14818266D01*
X100598260Y-14818266D02*
X100398260Y-14818266D01*
X102064927Y-13884933D02*
X102064927Y-14818266D01*
X101464927Y-13884933D02*
X101464927Y-14618266D01*
X101464927Y-14618266D02*
X101531594Y-14751600D01*
X101531594Y-14751600D02*
X101664927Y-14818266D01*
X101664927Y-14818266D02*
X101864927Y-14818266D01*
X101864927Y-14818266D02*
X101998260Y-14751600D01*
X101998260Y-14751600D02*
X102064927Y-14684933D01*
X102531594Y-13884933D02*
X103064927Y-13884933D01*
X102731594Y-13418266D02*
X102731594Y-14618266D01*
X102731594Y-14618266D02*
X102798261Y-14751600D01*
X102798261Y-14751600D02*
X102931594Y-14818266D01*
X102931594Y-14818266D02*
X103064927Y-14818266D01*
X104598261Y-13884933D02*
X104598261Y-15284933D01*
X104598261Y-13951600D02*
X104731594Y-13884933D01*
X104731594Y-13884933D02*
X104998261Y-13884933D01*
X104998261Y-13884933D02*
X105131594Y-13951600D01*
X105131594Y-13951600D02*
X105198261Y-14018266D01*
X105198261Y-14018266D02*
X105264928Y-14151600D01*
X105264928Y-14151600D02*
X105264928Y-14551600D01*
X105264928Y-14551600D02*
X105198261Y-14684933D01*
X105198261Y-14684933D02*
X105131594Y-14751600D01*
X105131594Y-14751600D02*
X104998261Y-14818266D01*
X104998261Y-14818266D02*
X104731594Y-14818266D01*
X104731594Y-14818266D02*
X104598261Y-14751600D01*
X106064928Y-14818266D02*
X105931595Y-14751600D01*
X105931595Y-14751600D02*
X105864928Y-14618266D01*
X105864928Y-14618266D02*
X105864928Y-13418266D01*
X107198261Y-14818266D02*
X107198261Y-14084933D01*
X107198261Y-14084933D02*
X107131594Y-13951600D01*
X107131594Y-13951600D02*
X106998261Y-13884933D01*
X106998261Y-13884933D02*
X106731594Y-13884933D01*
X106731594Y-13884933D02*
X106598261Y-13951600D01*
X107198261Y-14751600D02*
X107064928Y-14818266D01*
X107064928Y-14818266D02*
X106731594Y-14818266D01*
X106731594Y-14818266D02*
X106598261Y-14751600D01*
X106598261Y-14751600D02*
X106531594Y-14618266D01*
X106531594Y-14618266D02*
X106531594Y-14484933D01*
X106531594Y-14484933D02*
X106598261Y-14351600D01*
X106598261Y-14351600D02*
X106731594Y-14284933D01*
X106731594Y-14284933D02*
X107064928Y-14284933D01*
X107064928Y-14284933D02*
X107198261Y-14218266D01*
X107864928Y-13884933D02*
X107864928Y-14818266D01*
X107864928Y-14018266D02*
X107931595Y-13951600D01*
X107931595Y-13951600D02*
X108064928Y-13884933D01*
X108064928Y-13884933D02*
X108264928Y-13884933D01*
X108264928Y-13884933D02*
X108398261Y-13951600D01*
X108398261Y-13951600D02*
X108464928Y-14084933D01*
X108464928Y-14084933D02*
X108464928Y-14818266D01*
M02*
