%TF.GenerationSoftware,KiCad,Pcbnew,10.0.5*%
%TF.CreationDate,2026-08-04T17:47:03-07:00*%
%TF.ProjectId,palpod-halbach-controller-real,70616c70-6f64-42d6-9861-6c626163682d,A0*%
%TF.SameCoordinates,Original*%
%TF.FileFunction,Soldermask,Top*%
%TF.FilePolarity,Negative*%
%FSLAX46Y46*%
G04 Gerber Fmt 4.6, Leading zero omitted, Abs format (unit mm)*
G04 Created by KiCad (PCBNEW 10.0.5) date 2026-08-04 17:47:03*
%MOMM*%
%LPD*%
G01*
G04 APERTURE LIST*
G04 Aperture macros list*
%AMRoundRect*
0 Rectangle with rounded corners*
0 $1 Rounding radius*
0 $2 $3 $4 $5 $6 $7 $8 $9 X,Y pos of 4 corners*
0 Add a 4 corners polygon primitive as box body*
4,1,4,$2,$3,$4,$5,$6,$7,$8,$9,$2,$3,0*
0 Add four circle primitives for the rounded corners*
1,1,$1+$1,$2,$3*
1,1,$1+$1,$4,$5*
1,1,$1+$1,$6,$7*
1,1,$1+$1,$8,$9*
0 Add four rect primitives between the rounded corners*
20,1,$1+$1,$2,$3,$4,$5,0*
20,1,$1+$1,$4,$5,$6,$7,0*
20,1,$1+$1,$6,$7,$8,$9,0*
20,1,$1+$1,$8,$9,$2,$3,0*%
G04 Aperture macros list end*
%ADD10RoundRect,0.250000X-1.950000X-1.000000X1.950000X-1.000000X1.950000X1.000000X-1.950000X1.000000X0*%
%ADD11RoundRect,0.075000X-0.075000X-0.225000X0.075000X-0.225000X0.075000X0.225000X-0.075000X0.225000X0*%
%ADD12RoundRect,0.135000X-0.135000X-0.185000X0.135000X-0.185000X0.135000X0.185000X-0.135000X0.185000X0*%
%ADD13RoundRect,0.500000X-0.500000X-0.750000X0.500000X-0.750000X0.500000X0.750000X-0.500000X0.750000X0*%
%ADD14RoundRect,0.075000X-0.075000X-0.625000X0.075000X-0.625000X0.075000X0.625000X-0.075000X0.625000X0*%
%ADD15RoundRect,0.250000X-0.362500X-1.425000X0.362500X-1.425000X0.362500X1.425000X-0.362500X1.425000X0*%
%ADD16RoundRect,0.100000X-0.100000X-0.600000X0.100000X-0.600000X0.100000X0.600000X-0.100000X0.600000X0*%
%ADD17RoundRect,0.375000X-0.375000X-0.375000X0.375000X-0.375000X0.375000X0.375000X-0.375000X0.375000X0*%
%ADD18RoundRect,0.150000X-0.150000X-0.700000X0.150000X-0.700000X0.150000X0.700000X-0.150000X0.700000X0*%
%ADD19RoundRect,0.140000X-0.140000X-0.170000X0.140000X-0.170000X0.140000X0.170000X-0.140000X0.170000X0*%
%ADD20RoundRect,0.150000X-0.150000X-0.350000X0.150000X-0.350000X0.150000X0.350000X-0.150000X0.350000X0*%
G04 APERTURE END LIST*
D10*
%TO.C,C11*%
X44595238Y-100000000D03*
X52995238Y-100000000D03*
%TD*%
%TO.C,C12*%
X120800000Y-96503500D03*
X129200000Y-96503500D03*
%TD*%
%TO.C,C13*%
X190800000Y-100000000D03*
X199200000Y-100000000D03*
%TD*%
D11*
%TO.C,U11*%
X128710000Y-106875000D03*
X128710000Y-107625000D03*
X128710000Y-108375000D03*
X128710000Y-109125000D03*
X128875000Y-109080000D03*
X129625000Y-109080000D03*
X130375000Y-109080000D03*
X131125000Y-109080000D03*
X131290000Y-109125000D03*
X131290000Y-108375000D03*
X131290000Y-107625000D03*
X131290000Y-106875000D03*
X131125000Y-106920000D03*
X130375000Y-106920000D03*
X129625000Y-106920000D03*
X128875000Y-106920000D03*
%TD*%
%TO.C,U10*%
X112710000Y-106875000D03*
X112710000Y-107625000D03*
X112710000Y-108375000D03*
X112710000Y-109125000D03*
X112875000Y-109080000D03*
X113625000Y-109080000D03*
X114375000Y-109080000D03*
X115125000Y-109080000D03*
X115290000Y-109125000D03*
X115290000Y-108375000D03*
X115290000Y-107625000D03*
X115290000Y-106875000D03*
X115125000Y-106920000D03*
X114375000Y-106920000D03*
X113625000Y-106920000D03*
X112875000Y-106920000D03*
%TD*%
%TO.C,U12*%
X144710000Y-106875000D03*
X144710000Y-107625000D03*
X144710000Y-108375000D03*
X144710000Y-109125000D03*
X144875000Y-109080000D03*
X145625000Y-109080000D03*
X146375000Y-109080000D03*
X147125000Y-109080000D03*
X147290000Y-109125000D03*
X147290000Y-108375000D03*
X147290000Y-107625000D03*
X147290000Y-106875000D03*
X147125000Y-106920000D03*
X146375000Y-106920000D03*
X145625000Y-106920000D03*
X144875000Y-106920000D03*
%TD*%
%TO.C,U7*%
X64710000Y-106875000D03*
X64710000Y-107625000D03*
X64710000Y-108375000D03*
X64710000Y-109125000D03*
X64875000Y-109080000D03*
X65625000Y-109080000D03*
X66375000Y-109080000D03*
X67125000Y-109080000D03*
X67290000Y-109125000D03*
X67290000Y-108375000D03*
X67290000Y-107625000D03*
X67290000Y-106875000D03*
X67125000Y-106920000D03*
X66375000Y-106920000D03*
X65625000Y-106920000D03*
X64875000Y-106920000D03*
%TD*%
%TO.C,U8*%
X80710000Y-106875000D03*
X80710000Y-107625000D03*
X80710000Y-108375000D03*
X80710000Y-109125000D03*
X80875000Y-109080000D03*
X81625000Y-109080000D03*
X82375000Y-109080000D03*
X83125000Y-109080000D03*
X83290000Y-109125000D03*
X83290000Y-108375000D03*
X83290000Y-107625000D03*
X83290000Y-106875000D03*
X83125000Y-106920000D03*
X82375000Y-106920000D03*
X81625000Y-106920000D03*
X80875000Y-106920000D03*
%TD*%
%TO.C,U9*%
X96710000Y-106875000D03*
X96710000Y-107625000D03*
X96710000Y-108375000D03*
X96710000Y-109125000D03*
X96875000Y-109080000D03*
X97625000Y-109080000D03*
X98375000Y-109080000D03*
X99125000Y-109080000D03*
X99290000Y-109125000D03*
X99290000Y-108375000D03*
X99290000Y-107625000D03*
X99290000Y-106875000D03*
X99125000Y-106920000D03*
X98375000Y-106920000D03*
X97625000Y-106920000D03*
X96875000Y-106920000D03*
%TD*%
D12*
%TO.C,R3*%
X67490000Y-101633500D03*
X68510000Y-101633500D03*
%TD*%
%TO.C,R4*%
X72787620Y-105000000D03*
X73807620Y-105000000D03*
%TD*%
%TO.C,R2*%
X63490000Y-101633500D03*
X64510000Y-101633500D03*
%TD*%
%TO.C,R1*%
X58192381Y-105000000D03*
X59212381Y-105000000D03*
%TD*%
%TO.C,R5*%
X74192381Y-105000000D03*
X75212381Y-105000000D03*
%TD*%
D13*
%TO.C,Q4*%
X90400000Y-130000000D03*
X90667000Y-132250000D03*
X94000000Y-132250000D03*
%TD*%
%TO.C,Q5*%
X112400000Y-118000000D03*
X112667000Y-120250000D03*
X116000000Y-120250000D03*
%TD*%
%TO.C,Q6*%
X112400000Y-130000000D03*
X112667000Y-132250000D03*
X116000000Y-132250000D03*
%TD*%
%TO.C,Q2*%
X68400000Y-130000000D03*
X68667000Y-132250000D03*
X72000000Y-132250000D03*
%TD*%
%TO.C,Q3*%
X90400000Y-118000000D03*
X90667000Y-120250000D03*
X94000000Y-120250000D03*
%TD*%
%TO.C,Q7*%
X134400000Y-118000000D03*
X134667000Y-120250000D03*
X138000000Y-120250000D03*
%TD*%
%TO.C,Q8*%
X134400000Y-130000000D03*
X134667000Y-132250000D03*
X138000000Y-132250000D03*
%TD*%
%TO.C,Q10*%
X156400000Y-130000000D03*
X156667000Y-132250000D03*
X160000000Y-132250000D03*
%TD*%
%TO.C,Q1*%
X68400000Y-118000000D03*
X68667000Y-120250000D03*
X72000000Y-120250000D03*
%TD*%
%TO.C,Q11*%
X178400000Y-118000000D03*
X178667000Y-120250000D03*
X182000000Y-120250000D03*
%TD*%
%TO.C,Q12*%
X178400000Y-130000000D03*
X178667000Y-132250000D03*
X182000000Y-132250000D03*
%TD*%
%TO.C,Q9*%
X156400000Y-118000000D03*
X156667000Y-120250000D03*
X160000000Y-120250000D03*
%TD*%
D14*
%TO.C,U17*%
X144160000Y-116271000D03*
X144160000Y-117312000D03*
X144160000Y-118354000D03*
X144160000Y-119396000D03*
X144160000Y-120438000D03*
X144160000Y-121479000D03*
X144160000Y-122521000D03*
X144160000Y-123563000D03*
X144160000Y-124604000D03*
X144160000Y-125646000D03*
X144160000Y-126688000D03*
X144160000Y-127729000D03*
X144204000Y-127270000D03*
X144713000Y-127270000D03*
X145221000Y-127270000D03*
X145729000Y-127270000D03*
X146237000Y-127270000D03*
X146746000Y-127270000D03*
X147254000Y-127270000D03*
X147763000Y-127270000D03*
X148271000Y-127270000D03*
X148779000Y-127270000D03*
X149287000Y-127270000D03*
X149796000Y-127270000D03*
X149840000Y-127729000D03*
X149840000Y-126688000D03*
X149840000Y-125646000D03*
X149840000Y-124604000D03*
X149840000Y-123562000D03*
X149840000Y-122521000D03*
X149840000Y-121479000D03*
X149840000Y-120437000D03*
X149840000Y-119396000D03*
X149840000Y-118354000D03*
X149840000Y-117312000D03*
X149840000Y-116271000D03*
X149796000Y-116730000D03*
X149287000Y-116730000D03*
X148779000Y-116730000D03*
X148271000Y-116730000D03*
X147763000Y-116730000D03*
X147254000Y-116730000D03*
X146746000Y-116730000D03*
X146237000Y-116730000D03*
X145729000Y-116730000D03*
X145221000Y-116730000D03*
X144713000Y-116730000D03*
X144204000Y-116730000D03*
%TD*%
%TO.C,U18*%
X166160000Y-116271000D03*
X166160000Y-117312000D03*
X166160000Y-118354000D03*
X166160000Y-119396000D03*
X166160000Y-120438000D03*
X166160000Y-121479000D03*
X166160000Y-122521000D03*
X166160000Y-123563000D03*
X166160000Y-124604000D03*
X166160000Y-125646000D03*
X166160000Y-126688000D03*
X166160000Y-127729000D03*
X166204000Y-127270000D03*
X166713000Y-127270000D03*
X167221000Y-127270000D03*
X167729000Y-127270000D03*
X168237000Y-127270000D03*
X168746000Y-127270000D03*
X169254000Y-127270000D03*
X169763000Y-127270000D03*
X170271000Y-127270000D03*
X170779000Y-127270000D03*
X171287000Y-127270000D03*
X171796000Y-127270000D03*
X171840000Y-127729000D03*
X171840000Y-126688000D03*
X171840000Y-125646000D03*
X171840000Y-124604000D03*
X171840000Y-123562000D03*
X171840000Y-122521000D03*
X171840000Y-121479000D03*
X171840000Y-120437000D03*
X171840000Y-119396000D03*
X171840000Y-118354000D03*
X171840000Y-117312000D03*
X171840000Y-116271000D03*
X171796000Y-116730000D03*
X171287000Y-116730000D03*
X170779000Y-116730000D03*
X170271000Y-116730000D03*
X169763000Y-116730000D03*
X169254000Y-116730000D03*
X168746000Y-116730000D03*
X168237000Y-116730000D03*
X167729000Y-116730000D03*
X167221000Y-116730000D03*
X166713000Y-116730000D03*
X166204000Y-116730000D03*
%TD*%
%TO.C,U13*%
X56160000Y-116271000D03*
X56160000Y-117312000D03*
X56160000Y-118354000D03*
X56160000Y-119396000D03*
X56160000Y-120438000D03*
X56160000Y-121479000D03*
X56160000Y-122521000D03*
X56160000Y-123563000D03*
X56160000Y-124604000D03*
X56160000Y-125646000D03*
X56160000Y-126688000D03*
X56160000Y-127729000D03*
X56204000Y-127270000D03*
X56713000Y-127270000D03*
X57221000Y-127270000D03*
X57729000Y-127270000D03*
X58237000Y-127270000D03*
X58746000Y-127270000D03*
X59254000Y-127270000D03*
X59763000Y-127270000D03*
X60271000Y-127270000D03*
X60779000Y-127270000D03*
X61287000Y-127270000D03*
X61796000Y-127270000D03*
X61840000Y-127729000D03*
X61840000Y-126688000D03*
X61840000Y-125646000D03*
X61840000Y-124604000D03*
X61840000Y-123562000D03*
X61840000Y-122521000D03*
X61840000Y-121479000D03*
X61840000Y-120437000D03*
X61840000Y-119396000D03*
X61840000Y-118354000D03*
X61840000Y-117312000D03*
X61840000Y-116271000D03*
X61796000Y-116730000D03*
X61287000Y-116730000D03*
X60779000Y-116730000D03*
X60271000Y-116730000D03*
X59763000Y-116730000D03*
X59254000Y-116730000D03*
X58746000Y-116730000D03*
X58237000Y-116730000D03*
X57729000Y-116730000D03*
X57221000Y-116730000D03*
X56713000Y-116730000D03*
X56204000Y-116730000D03*
%TD*%
%TO.C,U16*%
X122160000Y-116271000D03*
X122160000Y-117312000D03*
X122160000Y-118354000D03*
X122160000Y-119396000D03*
X122160000Y-120438000D03*
X122160000Y-121479000D03*
X122160000Y-122521000D03*
X122160000Y-123563000D03*
X122160000Y-124604000D03*
X122160000Y-125646000D03*
X122160000Y-126688000D03*
X122160000Y-127729000D03*
X122204000Y-127270000D03*
X122713000Y-127270000D03*
X123221000Y-127270000D03*
X123729000Y-127270000D03*
X124237000Y-127270000D03*
X124746000Y-127270000D03*
X125254000Y-127270000D03*
X125763000Y-127270000D03*
X126271000Y-127270000D03*
X126779000Y-127270000D03*
X127287000Y-127270000D03*
X127796000Y-127270000D03*
X127840000Y-127729000D03*
X127840000Y-126688000D03*
X127840000Y-125646000D03*
X127840000Y-124604000D03*
X127840000Y-123562000D03*
X127840000Y-122521000D03*
X127840000Y-121479000D03*
X127840000Y-120437000D03*
X127840000Y-119396000D03*
X127840000Y-118354000D03*
X127840000Y-117312000D03*
X127840000Y-116271000D03*
X127796000Y-116730000D03*
X127287000Y-116730000D03*
X126779000Y-116730000D03*
X126271000Y-116730000D03*
X125763000Y-116730000D03*
X125254000Y-116730000D03*
X124746000Y-116730000D03*
X124237000Y-116730000D03*
X123729000Y-116730000D03*
X123221000Y-116730000D03*
X122713000Y-116730000D03*
X122204000Y-116730000D03*
%TD*%
%TO.C,U15*%
X100160000Y-116271000D03*
X100160000Y-117312000D03*
X100160000Y-118354000D03*
X100160000Y-119396000D03*
X100160000Y-120438000D03*
X100160000Y-121479000D03*
X100160000Y-122521000D03*
X100160000Y-123563000D03*
X100160000Y-124604000D03*
X100160000Y-125646000D03*
X100160000Y-126688000D03*
X100160000Y-127729000D03*
X100204000Y-127270000D03*
X100713000Y-127270000D03*
X101221000Y-127270000D03*
X101729000Y-127270000D03*
X102237000Y-127270000D03*
X102746000Y-127270000D03*
X103254000Y-127270000D03*
X103763000Y-127270000D03*
X104271000Y-127270000D03*
X104779000Y-127270000D03*
X105287000Y-127270000D03*
X105796000Y-127270000D03*
X105840000Y-127729000D03*
X105840000Y-126688000D03*
X105840000Y-125646000D03*
X105840000Y-124604000D03*
X105840000Y-123562000D03*
X105840000Y-122521000D03*
X105840000Y-121479000D03*
X105840000Y-120437000D03*
X105840000Y-119396000D03*
X105840000Y-118354000D03*
X105840000Y-117312000D03*
X105840000Y-116271000D03*
X105796000Y-116730000D03*
X105287000Y-116730000D03*
X104779000Y-116730000D03*
X104271000Y-116730000D03*
X103763000Y-116730000D03*
X103254000Y-116730000D03*
X102746000Y-116730000D03*
X102237000Y-116730000D03*
X101729000Y-116730000D03*
X101221000Y-116730000D03*
X100713000Y-116730000D03*
X100204000Y-116730000D03*
%TD*%
%TO.C,U14*%
X78160000Y-116271000D03*
X78160000Y-117312000D03*
X78160000Y-118354000D03*
X78160000Y-119396000D03*
X78160000Y-120438000D03*
X78160000Y-121479000D03*
X78160000Y-122521000D03*
X78160000Y-123563000D03*
X78160000Y-124604000D03*
X78160000Y-125646000D03*
X78160000Y-126688000D03*
X78160000Y-127729000D03*
X78204000Y-127270000D03*
X78713000Y-127270000D03*
X79221000Y-127270000D03*
X79729000Y-127270000D03*
X80237000Y-127270000D03*
X80746000Y-127270000D03*
X81254000Y-127270000D03*
X81763000Y-127270000D03*
X82271000Y-127270000D03*
X82779000Y-127270000D03*
X83287000Y-127270000D03*
X83796000Y-127270000D03*
X83840000Y-127729000D03*
X83840000Y-126688000D03*
X83840000Y-125646000D03*
X83840000Y-124604000D03*
X83840000Y-123562000D03*
X83840000Y-122521000D03*
X83840000Y-121479000D03*
X83840000Y-120437000D03*
X83840000Y-119396000D03*
X83840000Y-118354000D03*
X83840000Y-117312000D03*
X83840000Y-116271000D03*
X83796000Y-116730000D03*
X83287000Y-116730000D03*
X82779000Y-116730000D03*
X82271000Y-116730000D03*
X81763000Y-116730000D03*
X81254000Y-116730000D03*
X80746000Y-116730000D03*
X80237000Y-116730000D03*
X79729000Y-116730000D03*
X79221000Y-116730000D03*
X78713000Y-116730000D03*
X78204000Y-116730000D03*
%TD*%
D15*
%TO.C,R11*%
X179037500Y-140326500D03*
X184962500Y-140326500D03*
%TD*%
%TO.C,R10*%
X157037500Y-140326500D03*
X162962500Y-140326500D03*
%TD*%
%TO.C,R8*%
X113037500Y-140326500D03*
X118962500Y-140326500D03*
%TD*%
%TO.C,R9*%
X135037500Y-140326500D03*
X140962500Y-140326500D03*
%TD*%
%TO.C,R6*%
X69037500Y-140326500D03*
X74962500Y-140326500D03*
%TD*%
%TO.C,R7*%
X91037500Y-140326500D03*
X96962500Y-140326500D03*
%TD*%
D16*
%TO.C,U6*%
X121780000Y-68938000D03*
X121780000Y-69812000D03*
X121780000Y-70688000D03*
X121780000Y-71562000D03*
X121780000Y-72438000D03*
X121780000Y-73312000D03*
X121780000Y-74188000D03*
X121780000Y-75062000D03*
X121938000Y-74520000D03*
X122812000Y-74520000D03*
X123688000Y-74520000D03*
X124562000Y-74520000D03*
X125438000Y-74520000D03*
X126312000Y-74520000D03*
X127188000Y-74520000D03*
X128062000Y-74520000D03*
X128220000Y-75062000D03*
X128220000Y-74188000D03*
X128220000Y-73312000D03*
X128220000Y-72438000D03*
X128220000Y-71562000D03*
X128220000Y-70688000D03*
X128220000Y-69812000D03*
X128220000Y-68938000D03*
X128062000Y-69480000D03*
X127188000Y-69480000D03*
X126312000Y-69480000D03*
X125438000Y-69480000D03*
X124562000Y-69480000D03*
X123688000Y-69480000D03*
X122812000Y-69480000D03*
X121938000Y-69480000D03*
%TD*%
D17*
%TO.C,U31*%
X58050000Y-85500000D03*
X58050000Y-88500000D03*
X58050000Y-91500000D03*
X58050000Y-94500000D03*
%TD*%
D18*
%TO.C,U3*%
X58470000Y-60775000D03*
X58470000Y-63225000D03*
X58538000Y-63260000D03*
X59512000Y-63260000D03*
X60488000Y-63260000D03*
X61463000Y-63260000D03*
X61530000Y-63225000D03*
X61530000Y-60775000D03*
%TD*%
%TO.C,U5*%
X123470000Y-58775000D03*
X123470000Y-61225000D03*
X123538000Y-61260000D03*
X124512000Y-61260000D03*
X125488000Y-61260000D03*
X126463000Y-61260000D03*
X126530000Y-61225000D03*
X126530000Y-58775000D03*
%TD*%
D19*
%TO.C,C10*%
X189520000Y-68000000D03*
X190480000Y-68000000D03*
%TD*%
%TO.C,C1*%
X77520000Y-78000000D03*
X78480000Y-78000000D03*
%TD*%
%TO.C,C3*%
X91520000Y-78000000D03*
X92480000Y-78000000D03*
%TD*%
%TO.C,C2*%
X84520000Y-78000000D03*
X85480000Y-78000000D03*
%TD*%
%TO.C,C7*%
X124520000Y-80356500D03*
X125480000Y-80356500D03*
%TD*%
%TO.C,C8*%
X124520000Y-67306500D03*
X125480000Y-67306500D03*
%TD*%
%TO.C,C9*%
X59520000Y-69306500D03*
X60480000Y-69306500D03*
%TD*%
%TO.C,C5*%
X164520000Y-78000000D03*
X165480000Y-78000000D03*
%TD*%
%TO.C,C6*%
X171520000Y-78000000D03*
X172480000Y-78000000D03*
%TD*%
%TO.C,C4*%
X157520000Y-78000000D03*
X158480000Y-78000000D03*
%TD*%
D20*
%TO.C,U4*%
X189020000Y-59275000D03*
X189020000Y-60725000D03*
X189067000Y-60750000D03*
X190000000Y-60750000D03*
X190933000Y-60750000D03*
%TD*%
D14*
%TO.C,U1*%
X75710000Y-86875000D03*
X75710000Y-87625000D03*
X75710000Y-88375000D03*
X75710000Y-89125000D03*
X75764000Y-88520000D03*
X76292000Y-88520000D03*
X76819000Y-88520000D03*
X77347000Y-88520000D03*
X77875000Y-88520000D03*
X78403000Y-88520000D03*
X78931000Y-88520000D03*
X79458000Y-88520000D03*
X79986000Y-88520000D03*
X80514000Y-88520000D03*
X81042000Y-88520000D03*
X81569000Y-88520000D03*
X82097000Y-88520000D03*
X82625000Y-88520000D03*
X83153000Y-88520000D03*
X83681000Y-88520000D03*
X84208000Y-88520000D03*
X84736000Y-88520000D03*
X85264000Y-88520000D03*
X85792000Y-88520000D03*
X86319000Y-88520000D03*
X86847000Y-88520000D03*
X87375000Y-88520000D03*
X87903000Y-88520000D03*
X88431000Y-88520000D03*
X88958000Y-88520000D03*
X89486000Y-88520000D03*
X90014000Y-88520000D03*
X90542000Y-88520000D03*
X91069000Y-88520000D03*
X91597000Y-88520000D03*
X92125000Y-88520000D03*
X92653000Y-88520000D03*
X93181000Y-88520000D03*
X93708000Y-88520000D03*
X94236000Y-88520000D03*
X94290000Y-89125000D03*
X94290000Y-88375000D03*
X94290000Y-87625000D03*
X94290000Y-86875000D03*
X94236000Y-87480000D03*
X93708000Y-87480000D03*
X93181000Y-87480000D03*
X92653000Y-87480000D03*
X92125000Y-87480000D03*
X91597000Y-87480000D03*
X91069000Y-87480000D03*
X90542000Y-87480000D03*
X90014000Y-87480000D03*
X89486000Y-87480000D03*
X88958000Y-87480000D03*
X88431000Y-87480000D03*
X87903000Y-87480000D03*
X87375000Y-87480000D03*
X86847000Y-87480000D03*
X86319000Y-87480000D03*
X85792000Y-87480000D03*
X85264000Y-87480000D03*
X84736000Y-87480000D03*
X84208000Y-87480000D03*
X83681000Y-87480000D03*
X83153000Y-87480000D03*
X82625000Y-87480000D03*
X82097000Y-87480000D03*
X81569000Y-87480000D03*
X81042000Y-87480000D03*
X80514000Y-87480000D03*
X79986000Y-87480000D03*
X79458000Y-87480000D03*
X78931000Y-87480000D03*
X78403000Y-87480000D03*
X77875000Y-87480000D03*
X77347000Y-87480000D03*
X76819000Y-87480000D03*
X76292000Y-87480000D03*
X75764000Y-87480000D03*
%TD*%
%TO.C,U2*%
X155710000Y-86875000D03*
X155710000Y-87625000D03*
X155710000Y-88375000D03*
X155710000Y-89125000D03*
X155764000Y-88520000D03*
X156292000Y-88520000D03*
X156819000Y-88520000D03*
X157347000Y-88520000D03*
X157875000Y-88520000D03*
X158403000Y-88520000D03*
X158931000Y-88520000D03*
X159458000Y-88520000D03*
X159986000Y-88520000D03*
X160514000Y-88520000D03*
X161042000Y-88520000D03*
X161569000Y-88520000D03*
X162097000Y-88520000D03*
X162625000Y-88520000D03*
X163153000Y-88520000D03*
X163681000Y-88520000D03*
X164208000Y-88520000D03*
X164736000Y-88520000D03*
X165264000Y-88520000D03*
X165792000Y-88520000D03*
X166319000Y-88520000D03*
X166847000Y-88520000D03*
X167375000Y-88520000D03*
X167903000Y-88520000D03*
X168431000Y-88520000D03*
X168958000Y-88520000D03*
X169486000Y-88520000D03*
X170014000Y-88520000D03*
X170542000Y-88520000D03*
X171069000Y-88520000D03*
X171597000Y-88520000D03*
X172125000Y-88520000D03*
X172653000Y-88520000D03*
X173181000Y-88520000D03*
X173708000Y-88520000D03*
X174236000Y-88520000D03*
X174290000Y-89125000D03*
X174290000Y-88375000D03*
X174290000Y-87625000D03*
X174290000Y-86875000D03*
X174236000Y-87480000D03*
X173708000Y-87480000D03*
X173181000Y-87480000D03*
X172653000Y-87480000D03*
X172125000Y-87480000D03*
X171597000Y-87480000D03*
X171069000Y-87480000D03*
X170542000Y-87480000D03*
X170014000Y-87480000D03*
X169486000Y-87480000D03*
X168958000Y-87480000D03*
X168431000Y-87480000D03*
X167903000Y-87480000D03*
X167375000Y-87480000D03*
X166847000Y-87480000D03*
X166319000Y-87480000D03*
X165792000Y-87480000D03*
X165264000Y-87480000D03*
X164736000Y-87480000D03*
X164208000Y-87480000D03*
X163681000Y-87480000D03*
X163153000Y-87480000D03*
X162625000Y-87480000D03*
X162097000Y-87480000D03*
X161569000Y-87480000D03*
X161042000Y-87480000D03*
X160514000Y-87480000D03*
X159986000Y-87480000D03*
X159458000Y-87480000D03*
X158931000Y-87480000D03*
X158403000Y-87480000D03*
X157875000Y-87480000D03*
X157347000Y-87480000D03*
X156819000Y-87480000D03*
X156292000Y-87480000D03*
X155764000Y-87480000D03*
%TD*%
D16*
%TO.C,U26*%
X79080000Y-137250000D03*
X79080000Y-138750000D03*
X79350000Y-138520000D03*
X80450000Y-138520000D03*
X81550000Y-138520000D03*
X82650000Y-138520000D03*
X82920000Y-138750000D03*
X82920000Y-137250000D03*
%TD*%
%TO.C,U27*%
X101080000Y-137250000D03*
X101080000Y-138750000D03*
X101350000Y-138520000D03*
X102450000Y-138520000D03*
X103550000Y-138520000D03*
X104650000Y-138520000D03*
X104920000Y-138750000D03*
X104920000Y-137250000D03*
%TD*%
%TO.C,U28*%
X123080000Y-137250000D03*
X123080000Y-138750000D03*
X123350000Y-138520000D03*
X124450000Y-138520000D03*
X125550000Y-138520000D03*
X126650000Y-138520000D03*
X126920000Y-138750000D03*
X126920000Y-137250000D03*
%TD*%
%TO.C,U25*%
X57080000Y-137250000D03*
X57080000Y-138750000D03*
X57350000Y-138520000D03*
X58450000Y-138520000D03*
X59550000Y-138520000D03*
X60650000Y-138520000D03*
X60920000Y-138750000D03*
X60920000Y-137250000D03*
%TD*%
%TO.C,U29*%
X145080000Y-137250000D03*
X145080000Y-138750000D03*
X145350000Y-138520000D03*
X146450000Y-138520000D03*
X147550000Y-138520000D03*
X148650000Y-138520000D03*
X148920000Y-138750000D03*
X148920000Y-137250000D03*
%TD*%
%TO.C,U30*%
X167080000Y-137250000D03*
X167080000Y-138750000D03*
X167350000Y-138520000D03*
X168450000Y-138520000D03*
X169550000Y-138520000D03*
X170650000Y-138520000D03*
X170920000Y-138750000D03*
X170920000Y-137250000D03*
%TD*%
M02*
