%TF.GenerationSoftware,KiCad,Pcbnew,10.0.5*%
%TF.CreationDate,2026-08-03T18:12:57-07:00*%
%TF.ProjectId,palpod-compute-backplane,70616c70-6f64-42d6-936f-6d707574652d,A0*%
%TF.SameCoordinates,Original*%
%TF.FileFunction,Other,Comment*%
%FSLAX46Y46*%
G04 Gerber Fmt 4.6, Leading zero omitted, Abs format (unit mm)*
G04 Created by KiCad (PCBNEW 10.0.5) date 2026-08-03 18:12:57*
%MOMM*%
%LPD*%
G01*
G04 APERTURE LIST*
%ADD10C,0.300000*%
G04 APERTURE END LIST*
D10*
X225673558Y-289739638D02*
X225673558Y-287739638D01*
X226625939Y-289739638D02*
X226625939Y-288406304D01*
X226625939Y-288596780D02*
X226721177Y-288501542D01*
X226721177Y-288501542D02*
X226911653Y-288406304D01*
X226911653Y-288406304D02*
X227197368Y-288406304D01*
X227197368Y-288406304D02*
X227387844Y-288501542D01*
X227387844Y-288501542D02*
X227483082Y-288692019D01*
X227483082Y-288692019D02*
X227483082Y-289739638D01*
X227483082Y-288692019D02*
X227578320Y-288501542D01*
X227578320Y-288501542D02*
X227768796Y-288406304D01*
X227768796Y-288406304D02*
X228054510Y-288406304D01*
X228054510Y-288406304D02*
X228244987Y-288501542D01*
X228244987Y-288501542D02*
X228340225Y-288692019D01*
X228340225Y-288692019D02*
X228340225Y-289739638D01*
X229292606Y-288406304D02*
X229292606Y-290406304D01*
X229292606Y-288501542D02*
X229483082Y-288406304D01*
X229483082Y-288406304D02*
X229864035Y-288406304D01*
X229864035Y-288406304D02*
X230054511Y-288501542D01*
X230054511Y-288501542D02*
X230149749Y-288596780D01*
X230149749Y-288596780D02*
X230244987Y-288787257D01*
X230244987Y-288787257D02*
X230244987Y-289358685D01*
X230244987Y-289358685D02*
X230149749Y-289549161D01*
X230149749Y-289549161D02*
X230054511Y-289644400D01*
X230054511Y-289644400D02*
X229864035Y-289739638D01*
X229864035Y-289739638D02*
X229483082Y-289739638D01*
X229483082Y-289739638D02*
X229292606Y-289644400D01*
X231864035Y-289644400D02*
X231673559Y-289739638D01*
X231673559Y-289739638D02*
X231292606Y-289739638D01*
X231292606Y-289739638D02*
X231102130Y-289644400D01*
X231102130Y-289644400D02*
X231006892Y-289453923D01*
X231006892Y-289453923D02*
X231006892Y-288692019D01*
X231006892Y-288692019D02*
X231102130Y-288501542D01*
X231102130Y-288501542D02*
X231292606Y-288406304D01*
X231292606Y-288406304D02*
X231673559Y-288406304D01*
X231673559Y-288406304D02*
X231864035Y-288501542D01*
X231864035Y-288501542D02*
X231959273Y-288692019D01*
X231959273Y-288692019D02*
X231959273Y-288882495D01*
X231959273Y-288882495D02*
X231006892Y-289072971D01*
X233673559Y-289739638D02*
X233673559Y-287739638D01*
X233673559Y-289644400D02*
X233483083Y-289739638D01*
X233483083Y-289739638D02*
X233102130Y-289739638D01*
X233102130Y-289739638D02*
X232911654Y-289644400D01*
X232911654Y-289644400D02*
X232816416Y-289549161D01*
X232816416Y-289549161D02*
X232721178Y-289358685D01*
X232721178Y-289358685D02*
X232721178Y-288787257D01*
X232721178Y-288787257D02*
X232816416Y-288596780D01*
X232816416Y-288596780D02*
X232911654Y-288501542D01*
X232911654Y-288501542D02*
X233102130Y-288406304D01*
X233102130Y-288406304D02*
X233483083Y-288406304D01*
X233483083Y-288406304D02*
X233673559Y-288501542D01*
X235483083Y-289739638D02*
X235483083Y-288692019D01*
X235483083Y-288692019D02*
X235387845Y-288501542D01*
X235387845Y-288501542D02*
X235197369Y-288406304D01*
X235197369Y-288406304D02*
X234816416Y-288406304D01*
X234816416Y-288406304D02*
X234625940Y-288501542D01*
X235483083Y-289644400D02*
X235292607Y-289739638D01*
X235292607Y-289739638D02*
X234816416Y-289739638D01*
X234816416Y-289739638D02*
X234625940Y-289644400D01*
X234625940Y-289644400D02*
X234530702Y-289453923D01*
X234530702Y-289453923D02*
X234530702Y-289263447D01*
X234530702Y-289263447D02*
X234625940Y-289072971D01*
X234625940Y-289072971D02*
X234816416Y-288977733D01*
X234816416Y-288977733D02*
X235292607Y-288977733D01*
X235292607Y-288977733D02*
X235483083Y-288882495D01*
X236435464Y-288406304D02*
X236435464Y-289739638D01*
X236435464Y-288596780D02*
X236530702Y-288501542D01*
X236530702Y-288501542D02*
X236721178Y-288406304D01*
X236721178Y-288406304D02*
X237006893Y-288406304D01*
X237006893Y-288406304D02*
X237197369Y-288501542D01*
X237197369Y-288501542D02*
X237292607Y-288692019D01*
X237292607Y-288692019D02*
X237292607Y-289739638D01*
X239102131Y-289644400D02*
X238911655Y-289739638D01*
X238911655Y-289739638D02*
X238530702Y-289739638D01*
X238530702Y-289739638D02*
X238340226Y-289644400D01*
X238340226Y-289644400D02*
X238244988Y-289549161D01*
X238244988Y-289549161D02*
X238149750Y-289358685D01*
X238149750Y-289358685D02*
X238149750Y-288787257D01*
X238149750Y-288787257D02*
X238244988Y-288596780D01*
X238244988Y-288596780D02*
X238340226Y-288501542D01*
X238340226Y-288501542D02*
X238530702Y-288406304D01*
X238530702Y-288406304D02*
X238911655Y-288406304D01*
X238911655Y-288406304D02*
X239102131Y-288501542D01*
X240721179Y-289644400D02*
X240530703Y-289739638D01*
X240530703Y-289739638D02*
X240149750Y-289739638D01*
X240149750Y-289739638D02*
X239959274Y-289644400D01*
X239959274Y-289644400D02*
X239864036Y-289453923D01*
X239864036Y-289453923D02*
X239864036Y-288692019D01*
X239864036Y-288692019D02*
X239959274Y-288501542D01*
X239959274Y-288501542D02*
X240149750Y-288406304D01*
X240149750Y-288406304D02*
X240530703Y-288406304D01*
X240530703Y-288406304D02*
X240721179Y-288501542D01*
X240721179Y-288501542D02*
X240816417Y-288692019D01*
X240816417Y-288692019D02*
X240816417Y-288882495D01*
X240816417Y-288882495D02*
X239864036Y-289072971D01*
X241673560Y-288977733D02*
X243197370Y-288977733D01*
X245006893Y-289644400D02*
X244816417Y-289739638D01*
X244816417Y-289739638D02*
X244435464Y-289739638D01*
X244435464Y-289739638D02*
X244244988Y-289644400D01*
X244244988Y-289644400D02*
X244149750Y-289549161D01*
X244149750Y-289549161D02*
X244054512Y-289358685D01*
X244054512Y-289358685D02*
X244054512Y-288787257D01*
X244054512Y-288787257D02*
X244149750Y-288596780D01*
X244149750Y-288596780D02*
X244244988Y-288501542D01*
X244244988Y-288501542D02*
X244435464Y-288406304D01*
X244435464Y-288406304D02*
X244816417Y-288406304D01*
X244816417Y-288406304D02*
X245006893Y-288501542D01*
X246149750Y-289739638D02*
X245959274Y-289644400D01*
X245959274Y-289644400D02*
X245864036Y-289549161D01*
X245864036Y-289549161D02*
X245768798Y-289358685D01*
X245768798Y-289358685D02*
X245768798Y-288787257D01*
X245768798Y-288787257D02*
X245864036Y-288596780D01*
X245864036Y-288596780D02*
X245959274Y-288501542D01*
X245959274Y-288501542D02*
X246149750Y-288406304D01*
X246149750Y-288406304D02*
X246435465Y-288406304D01*
X246435465Y-288406304D02*
X246625941Y-288501542D01*
X246625941Y-288501542D02*
X246721179Y-288596780D01*
X246721179Y-288596780D02*
X246816417Y-288787257D01*
X246816417Y-288787257D02*
X246816417Y-289358685D01*
X246816417Y-289358685D02*
X246721179Y-289549161D01*
X246721179Y-289549161D02*
X246625941Y-289644400D01*
X246625941Y-289644400D02*
X246435465Y-289739638D01*
X246435465Y-289739638D02*
X246149750Y-289739638D01*
X247673560Y-288406304D02*
X247673560Y-289739638D01*
X247673560Y-288596780D02*
X247768798Y-288501542D01*
X247768798Y-288501542D02*
X247959274Y-288406304D01*
X247959274Y-288406304D02*
X248244989Y-288406304D01*
X248244989Y-288406304D02*
X248435465Y-288501542D01*
X248435465Y-288501542D02*
X248530703Y-288692019D01*
X248530703Y-288692019D02*
X248530703Y-289739638D01*
X249197370Y-288406304D02*
X249959274Y-288406304D01*
X249483084Y-287739638D02*
X249483084Y-289453923D01*
X249483084Y-289453923D02*
X249578322Y-289644400D01*
X249578322Y-289644400D02*
X249768798Y-289739638D01*
X249768798Y-289739638D02*
X249959274Y-289739638D01*
X250625941Y-289739638D02*
X250625941Y-288406304D01*
X250625941Y-288787257D02*
X250721179Y-288596780D01*
X250721179Y-288596780D02*
X250816417Y-288501542D01*
X250816417Y-288501542D02*
X251006893Y-288406304D01*
X251006893Y-288406304D02*
X251197370Y-288406304D01*
X252149750Y-289739638D02*
X251959274Y-289644400D01*
X251959274Y-289644400D02*
X251864036Y-289549161D01*
X251864036Y-289549161D02*
X251768798Y-289358685D01*
X251768798Y-289358685D02*
X251768798Y-288787257D01*
X251768798Y-288787257D02*
X251864036Y-288596780D01*
X251864036Y-288596780D02*
X251959274Y-288501542D01*
X251959274Y-288501542D02*
X252149750Y-288406304D01*
X252149750Y-288406304D02*
X252435465Y-288406304D01*
X252435465Y-288406304D02*
X252625941Y-288501542D01*
X252625941Y-288501542D02*
X252721179Y-288596780D01*
X252721179Y-288596780D02*
X252816417Y-288787257D01*
X252816417Y-288787257D02*
X252816417Y-289358685D01*
X252816417Y-289358685D02*
X252721179Y-289549161D01*
X252721179Y-289549161D02*
X252625941Y-289644400D01*
X252625941Y-289644400D02*
X252435465Y-289739638D01*
X252435465Y-289739638D02*
X252149750Y-289739638D01*
X253959274Y-289739638D02*
X253768798Y-289644400D01*
X253768798Y-289644400D02*
X253673560Y-289453923D01*
X253673560Y-289453923D02*
X253673560Y-287739638D01*
X255006893Y-289739638D02*
X254816417Y-289644400D01*
X254816417Y-289644400D02*
X254721179Y-289453923D01*
X254721179Y-289453923D02*
X254721179Y-287739638D01*
X256530703Y-289644400D02*
X256340227Y-289739638D01*
X256340227Y-289739638D02*
X255959274Y-289739638D01*
X255959274Y-289739638D02*
X255768798Y-289644400D01*
X255768798Y-289644400D02*
X255673560Y-289453923D01*
X255673560Y-289453923D02*
X255673560Y-288692019D01*
X255673560Y-288692019D02*
X255768798Y-288501542D01*
X255768798Y-288501542D02*
X255959274Y-288406304D01*
X255959274Y-288406304D02*
X256340227Y-288406304D01*
X256340227Y-288406304D02*
X256530703Y-288501542D01*
X256530703Y-288501542D02*
X256625941Y-288692019D01*
X256625941Y-288692019D02*
X256625941Y-288882495D01*
X256625941Y-288882495D02*
X255673560Y-289072971D01*
X258340227Y-289739638D02*
X258340227Y-287739638D01*
X258340227Y-289644400D02*
X258149751Y-289739638D01*
X258149751Y-289739638D02*
X257768798Y-289739638D01*
X257768798Y-289739638D02*
X257578322Y-289644400D01*
X257578322Y-289644400D02*
X257483084Y-289549161D01*
X257483084Y-289549161D02*
X257387846Y-289358685D01*
X257387846Y-289358685D02*
X257387846Y-288787257D01*
X257387846Y-288787257D02*
X257483084Y-288596780D01*
X257483084Y-288596780D02*
X257578322Y-288501542D01*
X257578322Y-288501542D02*
X257768798Y-288406304D01*
X257768798Y-288406304D02*
X258149751Y-288406304D01*
X258149751Y-288406304D02*
X258340227Y-288501542D01*
X260816418Y-289739638D02*
X260816418Y-288406304D01*
X260816418Y-288787257D02*
X260911656Y-288596780D01*
X260911656Y-288596780D02*
X261006894Y-288501542D01*
X261006894Y-288501542D02*
X261197370Y-288406304D01*
X261197370Y-288406304D02*
X261387847Y-288406304D01*
X262340227Y-289739638D02*
X262149751Y-289644400D01*
X262149751Y-289644400D02*
X262054513Y-289549161D01*
X262054513Y-289549161D02*
X261959275Y-289358685D01*
X261959275Y-289358685D02*
X261959275Y-288787257D01*
X261959275Y-288787257D02*
X262054513Y-288596780D01*
X262054513Y-288596780D02*
X262149751Y-288501542D01*
X262149751Y-288501542D02*
X262340227Y-288406304D01*
X262340227Y-288406304D02*
X262625942Y-288406304D01*
X262625942Y-288406304D02*
X262816418Y-288501542D01*
X262816418Y-288501542D02*
X262911656Y-288596780D01*
X262911656Y-288596780D02*
X263006894Y-288787257D01*
X263006894Y-288787257D02*
X263006894Y-289358685D01*
X263006894Y-289358685D02*
X262911656Y-289549161D01*
X262911656Y-289549161D02*
X262816418Y-289644400D01*
X262816418Y-289644400D02*
X262625942Y-289739638D01*
X262625942Y-289739638D02*
X262340227Y-289739638D01*
X264721180Y-288406304D02*
X264721180Y-289739638D01*
X263864037Y-288406304D02*
X263864037Y-289453923D01*
X263864037Y-289453923D02*
X263959275Y-289644400D01*
X263959275Y-289644400D02*
X264149751Y-289739638D01*
X264149751Y-289739638D02*
X264435466Y-289739638D01*
X264435466Y-289739638D02*
X264625942Y-289644400D01*
X264625942Y-289644400D02*
X264721180Y-289549161D01*
X265387847Y-288406304D02*
X266149751Y-288406304D01*
X265673561Y-287739638D02*
X265673561Y-289453923D01*
X265673561Y-289453923D02*
X265768799Y-289644400D01*
X265768799Y-289644400D02*
X265959275Y-289739638D01*
X265959275Y-289739638D02*
X266149751Y-289739638D01*
X266816418Y-289739638D02*
X266816418Y-288406304D01*
X266816418Y-287739638D02*
X266721180Y-287834876D01*
X266721180Y-287834876D02*
X266816418Y-287930114D01*
X266816418Y-287930114D02*
X266911656Y-287834876D01*
X266911656Y-287834876D02*
X266816418Y-287739638D01*
X266816418Y-287739638D02*
X266816418Y-287930114D01*
X267768799Y-288406304D02*
X267768799Y-289739638D01*
X267768799Y-288596780D02*
X267864037Y-288501542D01*
X267864037Y-288501542D02*
X268054513Y-288406304D01*
X268054513Y-288406304D02*
X268340228Y-288406304D01*
X268340228Y-288406304D02*
X268530704Y-288501542D01*
X268530704Y-288501542D02*
X268625942Y-288692019D01*
X268625942Y-288692019D02*
X268625942Y-289739638D01*
X270435466Y-288406304D02*
X270435466Y-290025352D01*
X270435466Y-290025352D02*
X270340228Y-290215828D01*
X270340228Y-290215828D02*
X270244990Y-290311066D01*
X270244990Y-290311066D02*
X270054513Y-290406304D01*
X270054513Y-290406304D02*
X269768799Y-290406304D01*
X269768799Y-290406304D02*
X269578323Y-290311066D01*
X270435466Y-289644400D02*
X270244990Y-289739638D01*
X270244990Y-289739638D02*
X269864037Y-289739638D01*
X269864037Y-289739638D02*
X269673561Y-289644400D01*
X269673561Y-289644400D02*
X269578323Y-289549161D01*
X269578323Y-289549161D02*
X269483085Y-289358685D01*
X269483085Y-289358685D02*
X269483085Y-288787257D01*
X269483085Y-288787257D02*
X269578323Y-288596780D01*
X269578323Y-288596780D02*
X269673561Y-288501542D01*
X269673561Y-288501542D02*
X269864037Y-288406304D01*
X269864037Y-288406304D02*
X270244990Y-288406304D01*
X270244990Y-288406304D02*
X270435466Y-288501542D01*
X273197371Y-289739638D02*
X273006895Y-289644400D01*
X273006895Y-289644400D02*
X272911657Y-289549161D01*
X272911657Y-289549161D02*
X272816419Y-289358685D01*
X272816419Y-289358685D02*
X272816419Y-288787257D01*
X272816419Y-288787257D02*
X272911657Y-288596780D01*
X272911657Y-288596780D02*
X273006895Y-288501542D01*
X273006895Y-288501542D02*
X273197371Y-288406304D01*
X273197371Y-288406304D02*
X273483086Y-288406304D01*
X273483086Y-288406304D02*
X273673562Y-288501542D01*
X273673562Y-288501542D02*
X273768800Y-288596780D01*
X273768800Y-288596780D02*
X273864038Y-288787257D01*
X273864038Y-288787257D02*
X273864038Y-289358685D01*
X273864038Y-289358685D02*
X273768800Y-289549161D01*
X273768800Y-289549161D02*
X273673562Y-289644400D01*
X273673562Y-289644400D02*
X273483086Y-289739638D01*
X273483086Y-289739638D02*
X273197371Y-289739638D01*
X274435467Y-288406304D02*
X275197371Y-288406304D01*
X274721181Y-289739638D02*
X274721181Y-288025352D01*
X274721181Y-288025352D02*
X274816419Y-287834876D01*
X274816419Y-287834876D02*
X275006895Y-287739638D01*
X275006895Y-287739638D02*
X275197371Y-287739638D01*
X277387848Y-288692019D02*
X278054515Y-288692019D01*
X278340229Y-289739638D02*
X277387848Y-289739638D01*
X277387848Y-289739638D02*
X277387848Y-287739638D01*
X277387848Y-287739638D02*
X278340229Y-287739638D01*
X278911658Y-287739638D02*
X280054515Y-287739638D01*
X279483086Y-289739638D02*
X279483086Y-287739638D01*
X280721182Y-289739638D02*
X280721182Y-287739638D01*
X280721182Y-288692019D02*
X281864039Y-288692019D01*
X281864039Y-289739638D02*
X281864039Y-287739638D01*
X284244991Y-287644400D02*
X282530706Y-290215828D01*
X284911658Y-289739638D02*
X284911658Y-287739638D01*
X284911658Y-287739638D02*
X285673563Y-287739638D01*
X285673563Y-287739638D02*
X285864039Y-287834876D01*
X285864039Y-287834876D02*
X285959277Y-287930114D01*
X285959277Y-287930114D02*
X286054515Y-288120590D01*
X286054515Y-288120590D02*
X286054515Y-288406304D01*
X286054515Y-288406304D02*
X285959277Y-288596780D01*
X285959277Y-288596780D02*
X285864039Y-288692019D01*
X285864039Y-288692019D02*
X285673563Y-288787257D01*
X285673563Y-288787257D02*
X284911658Y-288787257D01*
X288054515Y-289549161D02*
X287959277Y-289644400D01*
X287959277Y-289644400D02*
X287673563Y-289739638D01*
X287673563Y-289739638D02*
X287483087Y-289739638D01*
X287483087Y-289739638D02*
X287197372Y-289644400D01*
X287197372Y-289644400D02*
X287006896Y-289453923D01*
X287006896Y-289453923D02*
X286911658Y-289263447D01*
X286911658Y-289263447D02*
X286816420Y-288882495D01*
X286816420Y-288882495D02*
X286816420Y-288596780D01*
X286816420Y-288596780D02*
X286911658Y-288215828D01*
X286911658Y-288215828D02*
X287006896Y-288025352D01*
X287006896Y-288025352D02*
X287197372Y-287834876D01*
X287197372Y-287834876D02*
X287483087Y-287739638D01*
X287483087Y-287739638D02*
X287673563Y-287739638D01*
X287673563Y-287739638D02*
X287959277Y-287834876D01*
X287959277Y-287834876D02*
X288054515Y-287930114D01*
X288911658Y-289739638D02*
X288911658Y-287739638D01*
X290625944Y-289644400D02*
X290435468Y-289739638D01*
X290435468Y-289739638D02*
X290054515Y-289739638D01*
X290054515Y-289739638D02*
X289864039Y-289644400D01*
X289864039Y-289644400D02*
X289768801Y-289453923D01*
X289768801Y-289453923D02*
X289768801Y-288692019D01*
X289768801Y-288692019D02*
X289864039Y-288501542D01*
X289864039Y-288501542D02*
X290054515Y-288406304D01*
X290054515Y-288406304D02*
X290435468Y-288406304D01*
X290435468Y-288406304D02*
X290625944Y-288501542D01*
X290625944Y-288501542D02*
X290721182Y-288692019D01*
X290721182Y-288692019D02*
X290721182Y-288882495D01*
X290721182Y-288882495D02*
X289768801Y-289072971D01*
X293387849Y-289739638D02*
X293197373Y-289644400D01*
X293197373Y-289644400D02*
X293102135Y-289453923D01*
X293102135Y-289453923D02*
X293102135Y-287739638D01*
X295006897Y-289739638D02*
X295006897Y-288692019D01*
X295006897Y-288692019D02*
X294911659Y-288501542D01*
X294911659Y-288501542D02*
X294721183Y-288406304D01*
X294721183Y-288406304D02*
X294340230Y-288406304D01*
X294340230Y-288406304D02*
X294149754Y-288501542D01*
X295006897Y-289644400D02*
X294816421Y-289739638D01*
X294816421Y-289739638D02*
X294340230Y-289739638D01*
X294340230Y-289739638D02*
X294149754Y-289644400D01*
X294149754Y-289644400D02*
X294054516Y-289453923D01*
X294054516Y-289453923D02*
X294054516Y-289263447D01*
X294054516Y-289263447D02*
X294149754Y-289072971D01*
X294149754Y-289072971D02*
X294340230Y-288977733D01*
X294340230Y-288977733D02*
X294816421Y-288977733D01*
X294816421Y-288977733D02*
X295006897Y-288882495D01*
X295959278Y-288406304D02*
X295959278Y-289739638D01*
X295959278Y-288596780D02*
X296054516Y-288501542D01*
X296054516Y-288501542D02*
X296244992Y-288406304D01*
X296244992Y-288406304D02*
X296530707Y-288406304D01*
X296530707Y-288406304D02*
X296721183Y-288501542D01*
X296721183Y-288501542D02*
X296816421Y-288692019D01*
X296816421Y-288692019D02*
X296816421Y-289739638D01*
X298530707Y-289644400D02*
X298340231Y-289739638D01*
X298340231Y-289739638D02*
X297959278Y-289739638D01*
X297959278Y-289739638D02*
X297768802Y-289644400D01*
X297768802Y-289644400D02*
X297673564Y-289453923D01*
X297673564Y-289453923D02*
X297673564Y-288692019D01*
X297673564Y-288692019D02*
X297768802Y-288501542D01*
X297768802Y-288501542D02*
X297959278Y-288406304D01*
X297959278Y-288406304D02*
X298340231Y-288406304D01*
X298340231Y-288406304D02*
X298530707Y-288501542D01*
X298530707Y-288501542D02*
X298625945Y-288692019D01*
X298625945Y-288692019D02*
X298625945Y-288882495D01*
X298625945Y-288882495D02*
X297673564Y-289072971D01*
X299387850Y-289644400D02*
X299578326Y-289739638D01*
X299578326Y-289739638D02*
X299959278Y-289739638D01*
X299959278Y-289739638D02*
X300149755Y-289644400D01*
X300149755Y-289644400D02*
X300244993Y-289453923D01*
X300244993Y-289453923D02*
X300244993Y-289358685D01*
X300244993Y-289358685D02*
X300149755Y-289168209D01*
X300149755Y-289168209D02*
X299959278Y-289072971D01*
X299959278Y-289072971D02*
X299673564Y-289072971D01*
X299673564Y-289072971D02*
X299483088Y-288977733D01*
X299483088Y-288977733D02*
X299387850Y-288787257D01*
X299387850Y-288787257D02*
X299387850Y-288692019D01*
X299387850Y-288692019D02*
X299483088Y-288501542D01*
X299483088Y-288501542D02*
X299673564Y-288406304D01*
X299673564Y-288406304D02*
X299959278Y-288406304D01*
X299959278Y-288406304D02*
X300149755Y-288501542D01*
X302625946Y-289739638D02*
X302625946Y-288406304D01*
X302625946Y-288787257D02*
X302721184Y-288596780D01*
X302721184Y-288596780D02*
X302816422Y-288501542D01*
X302816422Y-288501542D02*
X303006898Y-288406304D01*
X303006898Y-288406304D02*
X303197375Y-288406304D01*
X304625946Y-289644400D02*
X304435470Y-289739638D01*
X304435470Y-289739638D02*
X304054517Y-289739638D01*
X304054517Y-289739638D02*
X303864041Y-289644400D01*
X303864041Y-289644400D02*
X303768803Y-289453923D01*
X303768803Y-289453923D02*
X303768803Y-288692019D01*
X303768803Y-288692019D02*
X303864041Y-288501542D01*
X303864041Y-288501542D02*
X304054517Y-288406304D01*
X304054517Y-288406304D02*
X304435470Y-288406304D01*
X304435470Y-288406304D02*
X304625946Y-288501542D01*
X304625946Y-288501542D02*
X304721184Y-288692019D01*
X304721184Y-288692019D02*
X304721184Y-288882495D01*
X304721184Y-288882495D02*
X303768803Y-289072971D01*
X306435470Y-288406304D02*
X306435470Y-290406304D01*
X306435470Y-289644400D02*
X306244994Y-289739638D01*
X306244994Y-289739638D02*
X305864041Y-289739638D01*
X305864041Y-289739638D02*
X305673565Y-289644400D01*
X305673565Y-289644400D02*
X305578327Y-289549161D01*
X305578327Y-289549161D02*
X305483089Y-289358685D01*
X305483089Y-289358685D02*
X305483089Y-288787257D01*
X305483089Y-288787257D02*
X305578327Y-288596780D01*
X305578327Y-288596780D02*
X305673565Y-288501542D01*
X305673565Y-288501542D02*
X305864041Y-288406304D01*
X305864041Y-288406304D02*
X306244994Y-288406304D01*
X306244994Y-288406304D02*
X306435470Y-288501542D01*
X308244994Y-288406304D02*
X308244994Y-289739638D01*
X307387851Y-288406304D02*
X307387851Y-289453923D01*
X307387851Y-289453923D02*
X307483089Y-289644400D01*
X307483089Y-289644400D02*
X307673565Y-289739638D01*
X307673565Y-289739638D02*
X307959280Y-289739638D01*
X307959280Y-289739638D02*
X308149756Y-289644400D01*
X308149756Y-289644400D02*
X308244994Y-289549161D01*
X309197375Y-289739638D02*
X309197375Y-288406304D01*
X309197375Y-287739638D02*
X309102137Y-287834876D01*
X309102137Y-287834876D02*
X309197375Y-287930114D01*
X309197375Y-287930114D02*
X309292613Y-287834876D01*
X309292613Y-287834876D02*
X309197375Y-287739638D01*
X309197375Y-287739638D02*
X309197375Y-287930114D01*
X310149756Y-289739638D02*
X310149756Y-288406304D01*
X310149756Y-288787257D02*
X310244994Y-288596780D01*
X310244994Y-288596780D02*
X310340232Y-288501542D01*
X310340232Y-288501542D02*
X310530708Y-288406304D01*
X310530708Y-288406304D02*
X310721185Y-288406304D01*
X312149756Y-289644400D02*
X311959280Y-289739638D01*
X311959280Y-289739638D02*
X311578327Y-289739638D01*
X311578327Y-289739638D02*
X311387851Y-289644400D01*
X311387851Y-289644400D02*
X311292613Y-289453923D01*
X311292613Y-289453923D02*
X311292613Y-288692019D01*
X311292613Y-288692019D02*
X311387851Y-288501542D01*
X311387851Y-288501542D02*
X311578327Y-288406304D01*
X311578327Y-288406304D02*
X311959280Y-288406304D01*
X311959280Y-288406304D02*
X312149756Y-288501542D01*
X312149756Y-288501542D02*
X312244994Y-288692019D01*
X312244994Y-288692019D02*
X312244994Y-288882495D01*
X312244994Y-288882495D02*
X311292613Y-289072971D01*
X313959280Y-289739638D02*
X313959280Y-287739638D01*
X313959280Y-289644400D02*
X313768804Y-289739638D01*
X313768804Y-289739638D02*
X313387851Y-289739638D01*
X313387851Y-289739638D02*
X313197375Y-289644400D01*
X313197375Y-289644400D02*
X313102137Y-289549161D01*
X313102137Y-289549161D02*
X313006899Y-289358685D01*
X313006899Y-289358685D02*
X313006899Y-288787257D01*
X313006899Y-288787257D02*
X313102137Y-288596780D01*
X313102137Y-288596780D02*
X313197375Y-288501542D01*
X313197375Y-288501542D02*
X313387851Y-288406304D01*
X313387851Y-288406304D02*
X313768804Y-288406304D01*
X313768804Y-288406304D02*
X313959280Y-288501542D01*
X316435471Y-288977733D02*
X317959281Y-288977733D01*
X320340233Y-289644400D02*
X320530709Y-289739638D01*
X320530709Y-289739638D02*
X320911661Y-289739638D01*
X320911661Y-289739638D02*
X321102138Y-289644400D01*
X321102138Y-289644400D02*
X321197376Y-289453923D01*
X321197376Y-289453923D02*
X321197376Y-289358685D01*
X321197376Y-289358685D02*
X321102138Y-289168209D01*
X321102138Y-289168209D02*
X320911661Y-289072971D01*
X320911661Y-289072971D02*
X320625947Y-289072971D01*
X320625947Y-289072971D02*
X320435471Y-288977733D01*
X320435471Y-288977733D02*
X320340233Y-288787257D01*
X320340233Y-288787257D02*
X320340233Y-288692019D01*
X320340233Y-288692019D02*
X320435471Y-288501542D01*
X320435471Y-288501542D02*
X320625947Y-288406304D01*
X320625947Y-288406304D02*
X320911661Y-288406304D01*
X320911661Y-288406304D02*
X321102138Y-288501542D01*
X322816424Y-289644400D02*
X322625948Y-289739638D01*
X322625948Y-289739638D02*
X322244995Y-289739638D01*
X322244995Y-289739638D02*
X322054519Y-289644400D01*
X322054519Y-289644400D02*
X321959281Y-289453923D01*
X321959281Y-289453923D02*
X321959281Y-288692019D01*
X321959281Y-288692019D02*
X322054519Y-288501542D01*
X322054519Y-288501542D02*
X322244995Y-288406304D01*
X322244995Y-288406304D02*
X322625948Y-288406304D01*
X322625948Y-288406304D02*
X322816424Y-288501542D01*
X322816424Y-288501542D02*
X322911662Y-288692019D01*
X322911662Y-288692019D02*
X322911662Y-288882495D01*
X322911662Y-288882495D02*
X321959281Y-289072971D01*
X324530710Y-289644400D02*
X324340234Y-289739638D01*
X324340234Y-289739638D02*
X323959281Y-289739638D01*
X323959281Y-289739638D02*
X323768805Y-289644400D01*
X323768805Y-289644400D02*
X323673567Y-289453923D01*
X323673567Y-289453923D02*
X323673567Y-288692019D01*
X323673567Y-288692019D02*
X323768805Y-288501542D01*
X323768805Y-288501542D02*
X323959281Y-288406304D01*
X323959281Y-288406304D02*
X324340234Y-288406304D01*
X324340234Y-288406304D02*
X324530710Y-288501542D01*
X324530710Y-288501542D02*
X324625948Y-288692019D01*
X324625948Y-288692019D02*
X324625948Y-288882495D01*
X324625948Y-288882495D02*
X323673567Y-289072971D01*
X328149758Y-289739638D02*
X327483091Y-288787257D01*
X327006901Y-289739638D02*
X327006901Y-287739638D01*
X327006901Y-287739638D02*
X327768806Y-287739638D01*
X327768806Y-287739638D02*
X327959282Y-287834876D01*
X327959282Y-287834876D02*
X328054520Y-287930114D01*
X328054520Y-287930114D02*
X328149758Y-288120590D01*
X328149758Y-288120590D02*
X328149758Y-288406304D01*
X328149758Y-288406304D02*
X328054520Y-288596780D01*
X328054520Y-288596780D02*
X327959282Y-288692019D01*
X327959282Y-288692019D02*
X327768806Y-288787257D01*
X327768806Y-288787257D02*
X327006901Y-288787257D01*
X329006901Y-288692019D02*
X329673568Y-288692019D01*
X329959282Y-289739638D02*
X329006901Y-289739638D01*
X329006901Y-289739638D02*
X329006901Y-287739638D01*
X329006901Y-287739638D02*
X329959282Y-287739638D01*
X330721187Y-289168209D02*
X331673568Y-289168209D01*
X330530711Y-289739638D02*
X331197377Y-287739638D01*
X331197377Y-287739638D02*
X331864044Y-289739638D01*
X332530711Y-289739638D02*
X332530711Y-287739638D01*
X332530711Y-287739638D02*
X333006901Y-287739638D01*
X333006901Y-287739638D02*
X333292616Y-287834876D01*
X333292616Y-287834876D02*
X333483092Y-288025352D01*
X333483092Y-288025352D02*
X333578330Y-288215828D01*
X333578330Y-288215828D02*
X333673568Y-288596780D01*
X333673568Y-288596780D02*
X333673568Y-288882495D01*
X333673568Y-288882495D02*
X333578330Y-289263447D01*
X333578330Y-289263447D02*
X333483092Y-289453923D01*
X333483092Y-289453923D02*
X333292616Y-289644400D01*
X333292616Y-289644400D02*
X333006901Y-289739638D01*
X333006901Y-289739638D02*
X332530711Y-289739638D01*
X334530711Y-289739638D02*
X334530711Y-287739638D01*
X334530711Y-287739638D02*
X335197378Y-289168209D01*
X335197378Y-289168209D02*
X335864044Y-287739638D01*
X335864044Y-287739638D02*
X335864044Y-289739638D01*
X336816425Y-288692019D02*
X337483092Y-288692019D01*
X337768806Y-289739638D02*
X336816425Y-289739638D01*
X336816425Y-289739638D02*
X336816425Y-287739638D01*
X336816425Y-287739638D02*
X337768806Y-287739638D01*
M02*
