%TF.GenerationSoftware,KiCad,Pcbnew,10.0.5*%
%TF.CreationDate,2026-08-03T18:12:57-07:00*%
%TF.ProjectId,palpod-compute-backplane,70616c70-6f64-42d6-936f-6d707574652d,A0*%
%TF.SameCoordinates,Original*%
%TF.FileFunction,Legend,Top*%
%TF.FilePolarity,Positive*%
%FSLAX46Y46*%
G04 Gerber Fmt 4.6, Leading zero omitted, Abs format (unit mm)*
G04 Created by KiCad (PCBNEW 10.0.5) date 2026-08-03 18:12:57*
%MOMM*%
%LPD*%
G01*
G04 APERTURE LIST*
%ADD10C,0.600000*%
%ADD11C,0.300000*%
%ADD12C,0.200000*%
G04 APERTURE END LIST*
D10*
X226347116Y-19479276D02*
X226347116Y-15479276D01*
X226347116Y-15479276D02*
X227870926Y-15479276D01*
X227870926Y-15479276D02*
X228251878Y-15669752D01*
X228251878Y-15669752D02*
X228442355Y-15860228D01*
X228442355Y-15860228D02*
X228632831Y-16241180D01*
X228632831Y-16241180D02*
X228632831Y-16812609D01*
X228632831Y-16812609D02*
X228442355Y-17193561D01*
X228442355Y-17193561D02*
X228251878Y-17384038D01*
X228251878Y-17384038D02*
X227870926Y-17574514D01*
X227870926Y-17574514D02*
X226347116Y-17574514D01*
X230156640Y-18336419D02*
X232061402Y-18336419D01*
X229775688Y-19479276D02*
X231109021Y-15479276D01*
X231109021Y-15479276D02*
X232442355Y-19479276D01*
X235680449Y-19479276D02*
X233775687Y-19479276D01*
X233775687Y-19479276D02*
X233775687Y-15479276D01*
X240061401Y-19479276D02*
X240061401Y-15479276D01*
X240061401Y-15479276D02*
X241585211Y-15479276D01*
X241585211Y-15479276D02*
X241966163Y-15669752D01*
X241966163Y-15669752D02*
X242156640Y-15860228D01*
X242156640Y-15860228D02*
X242347116Y-16241180D01*
X242347116Y-16241180D02*
X242347116Y-16812609D01*
X242347116Y-16812609D02*
X242156640Y-17193561D01*
X242156640Y-17193561D02*
X241966163Y-17384038D01*
X241966163Y-17384038D02*
X241585211Y-17574514D01*
X241585211Y-17574514D02*
X240061401Y-17574514D01*
X244632830Y-19479276D02*
X244251878Y-19288800D01*
X244251878Y-19288800D02*
X244061401Y-19098323D01*
X244061401Y-19098323D02*
X243870925Y-18717371D01*
X243870925Y-18717371D02*
X243870925Y-17574514D01*
X243870925Y-17574514D02*
X244061401Y-17193561D01*
X244061401Y-17193561D02*
X244251878Y-17003085D01*
X244251878Y-17003085D02*
X244632830Y-16812609D01*
X244632830Y-16812609D02*
X245204259Y-16812609D01*
X245204259Y-16812609D02*
X245585211Y-17003085D01*
X245585211Y-17003085D02*
X245775687Y-17193561D01*
X245775687Y-17193561D02*
X245966163Y-17574514D01*
X245966163Y-17574514D02*
X245966163Y-18717371D01*
X245966163Y-18717371D02*
X245775687Y-19098323D01*
X245775687Y-19098323D02*
X245585211Y-19288800D01*
X245585211Y-19288800D02*
X245204259Y-19479276D01*
X245204259Y-19479276D02*
X244632830Y-19479276D01*
X249394735Y-19479276D02*
X249394735Y-15479276D01*
X249394735Y-19288800D02*
X249013783Y-19479276D01*
X249013783Y-19479276D02*
X248251878Y-19479276D01*
X248251878Y-19479276D02*
X247870926Y-19288800D01*
X247870926Y-19288800D02*
X247680449Y-19098323D01*
X247680449Y-19098323D02*
X247489973Y-18717371D01*
X247489973Y-18717371D02*
X247489973Y-17574514D01*
X247489973Y-17574514D02*
X247680449Y-17193561D01*
X247680449Y-17193561D02*
X247870926Y-17003085D01*
X247870926Y-17003085D02*
X248251878Y-16812609D01*
X248251878Y-16812609D02*
X249013783Y-16812609D01*
X249013783Y-16812609D02*
X249394735Y-17003085D01*
X256632831Y-19098323D02*
X256442355Y-19288800D01*
X256442355Y-19288800D02*
X255870926Y-19479276D01*
X255870926Y-19479276D02*
X255489974Y-19479276D01*
X255489974Y-19479276D02*
X254918545Y-19288800D01*
X254918545Y-19288800D02*
X254537593Y-18907847D01*
X254537593Y-18907847D02*
X254347116Y-18526895D01*
X254347116Y-18526895D02*
X254156640Y-17764990D01*
X254156640Y-17764990D02*
X254156640Y-17193561D01*
X254156640Y-17193561D02*
X254347116Y-16431657D01*
X254347116Y-16431657D02*
X254537593Y-16050704D01*
X254537593Y-16050704D02*
X254918545Y-15669752D01*
X254918545Y-15669752D02*
X255489974Y-15479276D01*
X255489974Y-15479276D02*
X255870926Y-15479276D01*
X255870926Y-15479276D02*
X256442355Y-15669752D01*
X256442355Y-15669752D02*
X256632831Y-15860228D01*
X258918545Y-19479276D02*
X258537593Y-19288800D01*
X258537593Y-19288800D02*
X258347116Y-19098323D01*
X258347116Y-19098323D02*
X258156640Y-18717371D01*
X258156640Y-18717371D02*
X258156640Y-17574514D01*
X258156640Y-17574514D02*
X258347116Y-17193561D01*
X258347116Y-17193561D02*
X258537593Y-17003085D01*
X258537593Y-17003085D02*
X258918545Y-16812609D01*
X258918545Y-16812609D02*
X259489974Y-16812609D01*
X259489974Y-16812609D02*
X259870926Y-17003085D01*
X259870926Y-17003085D02*
X260061402Y-17193561D01*
X260061402Y-17193561D02*
X260251878Y-17574514D01*
X260251878Y-17574514D02*
X260251878Y-18717371D01*
X260251878Y-18717371D02*
X260061402Y-19098323D01*
X260061402Y-19098323D02*
X259870926Y-19288800D01*
X259870926Y-19288800D02*
X259489974Y-19479276D01*
X259489974Y-19479276D02*
X258918545Y-19479276D01*
X261966164Y-19479276D02*
X261966164Y-16812609D01*
X261966164Y-17193561D02*
X262156641Y-17003085D01*
X262156641Y-17003085D02*
X262537593Y-16812609D01*
X262537593Y-16812609D02*
X263109022Y-16812609D01*
X263109022Y-16812609D02*
X263489974Y-17003085D01*
X263489974Y-17003085D02*
X263680450Y-17384038D01*
X263680450Y-17384038D02*
X263680450Y-19479276D01*
X263680450Y-17384038D02*
X263870926Y-17003085D01*
X263870926Y-17003085D02*
X264251879Y-16812609D01*
X264251879Y-16812609D02*
X264823307Y-16812609D01*
X264823307Y-16812609D02*
X265204260Y-17003085D01*
X265204260Y-17003085D02*
X265394736Y-17384038D01*
X265394736Y-17384038D02*
X265394736Y-19479276D01*
X267299497Y-16812609D02*
X267299497Y-20812609D01*
X267299497Y-17003085D02*
X267680450Y-16812609D01*
X267680450Y-16812609D02*
X268442355Y-16812609D01*
X268442355Y-16812609D02*
X268823307Y-17003085D01*
X268823307Y-17003085D02*
X269013783Y-17193561D01*
X269013783Y-17193561D02*
X269204259Y-17574514D01*
X269204259Y-17574514D02*
X269204259Y-18717371D01*
X269204259Y-18717371D02*
X269013783Y-19098323D01*
X269013783Y-19098323D02*
X268823307Y-19288800D01*
X268823307Y-19288800D02*
X268442355Y-19479276D01*
X268442355Y-19479276D02*
X267680450Y-19479276D01*
X267680450Y-19479276D02*
X267299497Y-19288800D01*
X272632831Y-16812609D02*
X272632831Y-19479276D01*
X270918545Y-16812609D02*
X270918545Y-18907847D01*
X270918545Y-18907847D02*
X271109022Y-19288800D01*
X271109022Y-19288800D02*
X271489974Y-19479276D01*
X271489974Y-19479276D02*
X272061403Y-19479276D01*
X272061403Y-19479276D02*
X272442355Y-19288800D01*
X272442355Y-19288800D02*
X272632831Y-19098323D01*
X273966165Y-16812609D02*
X275489974Y-16812609D01*
X274537593Y-15479276D02*
X274537593Y-18907847D01*
X274537593Y-18907847D02*
X274728070Y-19288800D01*
X274728070Y-19288800D02*
X275109022Y-19479276D01*
X275109022Y-19479276D02*
X275489974Y-19479276D01*
X278347117Y-19288800D02*
X277966165Y-19479276D01*
X277966165Y-19479276D02*
X277204260Y-19479276D01*
X277204260Y-19479276D02*
X276823307Y-19288800D01*
X276823307Y-19288800D02*
X276632831Y-18907847D01*
X276632831Y-18907847D02*
X276632831Y-17384038D01*
X276632831Y-17384038D02*
X276823307Y-17003085D01*
X276823307Y-17003085D02*
X277204260Y-16812609D01*
X277204260Y-16812609D02*
X277966165Y-16812609D01*
X277966165Y-16812609D02*
X278347117Y-17003085D01*
X278347117Y-17003085D02*
X278537593Y-17384038D01*
X278537593Y-17384038D02*
X278537593Y-17764990D01*
X278537593Y-17764990D02*
X276632831Y-18145942D01*
X284632831Y-17384038D02*
X285204259Y-17574514D01*
X285204259Y-17574514D02*
X285394736Y-17764990D01*
X285394736Y-17764990D02*
X285585212Y-18145942D01*
X285585212Y-18145942D02*
X285585212Y-18717371D01*
X285585212Y-18717371D02*
X285394736Y-19098323D01*
X285394736Y-19098323D02*
X285204259Y-19288800D01*
X285204259Y-19288800D02*
X284823307Y-19479276D01*
X284823307Y-19479276D02*
X283299497Y-19479276D01*
X283299497Y-19479276D02*
X283299497Y-15479276D01*
X283299497Y-15479276D02*
X284632831Y-15479276D01*
X284632831Y-15479276D02*
X285013783Y-15669752D01*
X285013783Y-15669752D02*
X285204259Y-15860228D01*
X285204259Y-15860228D02*
X285394736Y-16241180D01*
X285394736Y-16241180D02*
X285394736Y-16622133D01*
X285394736Y-16622133D02*
X285204259Y-17003085D01*
X285204259Y-17003085D02*
X285013783Y-17193561D01*
X285013783Y-17193561D02*
X284632831Y-17384038D01*
X284632831Y-17384038D02*
X283299497Y-17384038D01*
X289013783Y-19479276D02*
X289013783Y-17384038D01*
X289013783Y-17384038D02*
X288823307Y-17003085D01*
X288823307Y-17003085D02*
X288442355Y-16812609D01*
X288442355Y-16812609D02*
X287680450Y-16812609D01*
X287680450Y-16812609D02*
X287299497Y-17003085D01*
X289013783Y-19288800D02*
X288632831Y-19479276D01*
X288632831Y-19479276D02*
X287680450Y-19479276D01*
X287680450Y-19479276D02*
X287299497Y-19288800D01*
X287299497Y-19288800D02*
X287109021Y-18907847D01*
X287109021Y-18907847D02*
X287109021Y-18526895D01*
X287109021Y-18526895D02*
X287299497Y-18145942D01*
X287299497Y-18145942D02*
X287680450Y-17955466D01*
X287680450Y-17955466D02*
X288632831Y-17955466D01*
X288632831Y-17955466D02*
X289013783Y-17764990D01*
X292632831Y-19288800D02*
X292251879Y-19479276D01*
X292251879Y-19479276D02*
X291489974Y-19479276D01*
X291489974Y-19479276D02*
X291109022Y-19288800D01*
X291109022Y-19288800D02*
X290918545Y-19098323D01*
X290918545Y-19098323D02*
X290728069Y-18717371D01*
X290728069Y-18717371D02*
X290728069Y-17574514D01*
X290728069Y-17574514D02*
X290918545Y-17193561D01*
X290918545Y-17193561D02*
X291109022Y-17003085D01*
X291109022Y-17003085D02*
X291489974Y-16812609D01*
X291489974Y-16812609D02*
X292251879Y-16812609D01*
X292251879Y-16812609D02*
X292632831Y-17003085D01*
X294347116Y-19479276D02*
X294347116Y-15479276D01*
X294728069Y-17955466D02*
X295870926Y-19479276D01*
X295870926Y-16812609D02*
X294347116Y-18336419D01*
X297585211Y-16812609D02*
X297585211Y-20812609D01*
X297585211Y-17003085D02*
X297966164Y-16812609D01*
X297966164Y-16812609D02*
X298728069Y-16812609D01*
X298728069Y-16812609D02*
X299109021Y-17003085D01*
X299109021Y-17003085D02*
X299299497Y-17193561D01*
X299299497Y-17193561D02*
X299489973Y-17574514D01*
X299489973Y-17574514D02*
X299489973Y-18717371D01*
X299489973Y-18717371D02*
X299299497Y-19098323D01*
X299299497Y-19098323D02*
X299109021Y-19288800D01*
X299109021Y-19288800D02*
X298728069Y-19479276D01*
X298728069Y-19479276D02*
X297966164Y-19479276D01*
X297966164Y-19479276D02*
X297585211Y-19288800D01*
X301775688Y-19479276D02*
X301394736Y-19288800D01*
X301394736Y-19288800D02*
X301204259Y-18907847D01*
X301204259Y-18907847D02*
X301204259Y-15479276D01*
X305013783Y-19479276D02*
X305013783Y-17384038D01*
X305013783Y-17384038D02*
X304823307Y-17003085D01*
X304823307Y-17003085D02*
X304442355Y-16812609D01*
X304442355Y-16812609D02*
X303680450Y-16812609D01*
X303680450Y-16812609D02*
X303299497Y-17003085D01*
X305013783Y-19288800D02*
X304632831Y-19479276D01*
X304632831Y-19479276D02*
X303680450Y-19479276D01*
X303680450Y-19479276D02*
X303299497Y-19288800D01*
X303299497Y-19288800D02*
X303109021Y-18907847D01*
X303109021Y-18907847D02*
X303109021Y-18526895D01*
X303109021Y-18526895D02*
X303299497Y-18145942D01*
X303299497Y-18145942D02*
X303680450Y-17955466D01*
X303680450Y-17955466D02*
X304632831Y-17955466D01*
X304632831Y-17955466D02*
X305013783Y-17764990D01*
X306918545Y-16812609D02*
X306918545Y-19479276D01*
X306918545Y-17193561D02*
X307109022Y-17003085D01*
X307109022Y-17003085D02*
X307489974Y-16812609D01*
X307489974Y-16812609D02*
X308061403Y-16812609D01*
X308061403Y-16812609D02*
X308442355Y-17003085D01*
X308442355Y-17003085D02*
X308632831Y-17384038D01*
X308632831Y-17384038D02*
X308632831Y-19479276D01*
X312061403Y-19288800D02*
X311680451Y-19479276D01*
X311680451Y-19479276D02*
X310918546Y-19479276D01*
X310918546Y-19479276D02*
X310537593Y-19288800D01*
X310537593Y-19288800D02*
X310347117Y-18907847D01*
X310347117Y-18907847D02*
X310347117Y-17384038D01*
X310347117Y-17384038D02*
X310537593Y-17003085D01*
X310537593Y-17003085D02*
X310918546Y-16812609D01*
X310918546Y-16812609D02*
X311680451Y-16812609D01*
X311680451Y-16812609D02*
X312061403Y-17003085D01*
X312061403Y-17003085D02*
X312251879Y-17384038D01*
X312251879Y-17384038D02*
X312251879Y-17764990D01*
X312251879Y-17764990D02*
X310347117Y-18145942D01*
X317013783Y-17955466D02*
X320061403Y-17955466D01*
X327299498Y-19479276D02*
X325966164Y-17574514D01*
X325013783Y-19479276D02*
X325013783Y-15479276D01*
X325013783Y-15479276D02*
X326537593Y-15479276D01*
X326537593Y-15479276D02*
X326918545Y-15669752D01*
X326918545Y-15669752D02*
X327109022Y-15860228D01*
X327109022Y-15860228D02*
X327299498Y-16241180D01*
X327299498Y-16241180D02*
X327299498Y-16812609D01*
X327299498Y-16812609D02*
X327109022Y-17193561D01*
X327109022Y-17193561D02*
X326918545Y-17384038D01*
X326918545Y-17384038D02*
X326537593Y-17574514D01*
X326537593Y-17574514D02*
X325013783Y-17574514D01*
X330537593Y-19288800D02*
X330156641Y-19479276D01*
X330156641Y-19479276D02*
X329394736Y-19479276D01*
X329394736Y-19479276D02*
X329013783Y-19288800D01*
X329013783Y-19288800D02*
X328823307Y-18907847D01*
X328823307Y-18907847D02*
X328823307Y-17384038D01*
X328823307Y-17384038D02*
X329013783Y-17003085D01*
X329013783Y-17003085D02*
X329394736Y-16812609D01*
X329394736Y-16812609D02*
X330156641Y-16812609D01*
X330156641Y-16812609D02*
X330537593Y-17003085D01*
X330537593Y-17003085D02*
X330728069Y-17384038D01*
X330728069Y-17384038D02*
X330728069Y-17764990D01*
X330728069Y-17764990D02*
X328823307Y-18145942D01*
X332061402Y-16812609D02*
X333013783Y-19479276D01*
X333013783Y-19479276D02*
X333966164Y-16812609D01*
X338347116Y-18336419D02*
X340251878Y-18336419D01*
X337966164Y-19479276D02*
X339299497Y-15479276D01*
X339299497Y-15479276D02*
X340632831Y-19479276D01*
X342728068Y-15479276D02*
X343109021Y-15479276D01*
X343109021Y-15479276D02*
X343489973Y-15669752D01*
X343489973Y-15669752D02*
X343680449Y-15860228D01*
X343680449Y-15860228D02*
X343870925Y-16241180D01*
X343870925Y-16241180D02*
X344061402Y-17003085D01*
X344061402Y-17003085D02*
X344061402Y-17955466D01*
X344061402Y-17955466D02*
X343870925Y-18717371D01*
X343870925Y-18717371D02*
X343680449Y-19098323D01*
X343680449Y-19098323D02*
X343489973Y-19288800D01*
X343489973Y-19288800D02*
X343109021Y-19479276D01*
X343109021Y-19479276D02*
X342728068Y-19479276D01*
X342728068Y-19479276D02*
X342347116Y-19288800D01*
X342347116Y-19288800D02*
X342156640Y-19098323D01*
X342156640Y-19098323D02*
X341966163Y-18717371D01*
X341966163Y-18717371D02*
X341775687Y-17955466D01*
X341775687Y-17955466D02*
X341775687Y-17003085D01*
X341775687Y-17003085D02*
X341966163Y-16241180D01*
X341966163Y-16241180D02*
X342156640Y-15860228D01*
X342156640Y-15860228D02*
X342347116Y-15669752D01*
X342347116Y-15669752D02*
X342728068Y-15479276D01*
X348823306Y-17955466D02*
X351870926Y-17955466D01*
X356823306Y-19479276D02*
X356823306Y-15479276D01*
X356823306Y-15479276D02*
X358347116Y-15479276D01*
X358347116Y-15479276D02*
X358728068Y-15669752D01*
X358728068Y-15669752D02*
X358918545Y-15860228D01*
X358918545Y-15860228D02*
X359109021Y-16241180D01*
X359109021Y-16241180D02*
X359109021Y-16812609D01*
X359109021Y-16812609D02*
X358918545Y-17193561D01*
X358918545Y-17193561D02*
X358728068Y-17384038D01*
X358728068Y-17384038D02*
X358347116Y-17574514D01*
X358347116Y-17574514D02*
X356823306Y-17574514D01*
X362728068Y-19479276D02*
X360823306Y-19479276D01*
X360823306Y-19479276D02*
X360823306Y-15479276D01*
X363870925Y-18336419D02*
X365775687Y-18336419D01*
X363489973Y-19479276D02*
X364823306Y-15479276D01*
X364823306Y-15479276D02*
X366156640Y-19479276D01*
X369775687Y-19098323D02*
X369585211Y-19288800D01*
X369585211Y-19288800D02*
X369013782Y-19479276D01*
X369013782Y-19479276D02*
X368632830Y-19479276D01*
X368632830Y-19479276D02*
X368061401Y-19288800D01*
X368061401Y-19288800D02*
X367680449Y-18907847D01*
X367680449Y-18907847D02*
X367489972Y-18526895D01*
X367489972Y-18526895D02*
X367299496Y-17764990D01*
X367299496Y-17764990D02*
X367299496Y-17193561D01*
X367299496Y-17193561D02*
X367489972Y-16431657D01*
X367489972Y-16431657D02*
X367680449Y-16050704D01*
X367680449Y-16050704D02*
X368061401Y-15669752D01*
X368061401Y-15669752D02*
X368632830Y-15479276D01*
X368632830Y-15479276D02*
X369013782Y-15479276D01*
X369013782Y-15479276D02*
X369585211Y-15669752D01*
X369585211Y-15669752D02*
X369775687Y-15860228D01*
X371489972Y-17384038D02*
X372823306Y-17384038D01*
X373394734Y-19479276D02*
X371489972Y-19479276D01*
X371489972Y-19479276D02*
X371489972Y-15479276D01*
X371489972Y-15479276D02*
X373394734Y-15479276D01*
X375109020Y-19479276D02*
X375109020Y-15479276D01*
X375109020Y-17384038D02*
X377394735Y-17384038D01*
X377394735Y-19479276D02*
X377394735Y-15479276D01*
X380061401Y-15479276D02*
X380823306Y-15479276D01*
X380823306Y-15479276D02*
X381204258Y-15669752D01*
X381204258Y-15669752D02*
X381585211Y-16050704D01*
X381585211Y-16050704D02*
X381775687Y-16812609D01*
X381775687Y-16812609D02*
X381775687Y-18145942D01*
X381775687Y-18145942D02*
X381585211Y-18907847D01*
X381585211Y-18907847D02*
X381204258Y-19288800D01*
X381204258Y-19288800D02*
X380823306Y-19479276D01*
X380823306Y-19479276D02*
X380061401Y-19479276D01*
X380061401Y-19479276D02*
X379680449Y-19288800D01*
X379680449Y-19288800D02*
X379299496Y-18907847D01*
X379299496Y-18907847D02*
X379109020Y-18145942D01*
X379109020Y-18145942D02*
X379109020Y-16812609D01*
X379109020Y-16812609D02*
X379299496Y-16050704D01*
X379299496Y-16050704D02*
X379680449Y-15669752D01*
X379680449Y-15669752D02*
X380061401Y-15479276D01*
X385394734Y-19479276D02*
X383489972Y-19479276D01*
X383489972Y-19479276D02*
X383489972Y-15479276D01*
X386728067Y-19479276D02*
X386728067Y-15479276D01*
X386728067Y-15479276D02*
X387680448Y-15479276D01*
X387680448Y-15479276D02*
X388251877Y-15669752D01*
X388251877Y-15669752D02*
X388632829Y-16050704D01*
X388632829Y-16050704D02*
X388823306Y-16431657D01*
X388823306Y-16431657D02*
X389013782Y-17193561D01*
X389013782Y-17193561D02*
X389013782Y-17764990D01*
X389013782Y-17764990D02*
X388823306Y-18526895D01*
X388823306Y-18526895D02*
X388632829Y-18907847D01*
X388632829Y-18907847D02*
X388251877Y-19288800D01*
X388251877Y-19288800D02*
X387680448Y-19479276D01*
X387680448Y-19479276D02*
X386728067Y-19479276D01*
X390728067Y-17384038D02*
X392061401Y-17384038D01*
X392632829Y-19479276D02*
X390728067Y-19479276D01*
X390728067Y-19479276D02*
X390728067Y-15479276D01*
X390728067Y-15479276D02*
X392632829Y-15479276D01*
X396632830Y-19479276D02*
X395299496Y-17574514D01*
X394347115Y-19479276D02*
X394347115Y-15479276D01*
X394347115Y-15479276D02*
X395870925Y-15479276D01*
X395870925Y-15479276D02*
X396251877Y-15669752D01*
X396251877Y-15669752D02*
X396442354Y-15860228D01*
X396442354Y-15860228D02*
X396632830Y-16241180D01*
X396632830Y-16241180D02*
X396632830Y-16812609D01*
X396632830Y-16812609D02*
X396442354Y-17193561D01*
X396442354Y-17193561D02*
X396251877Y-17384038D01*
X396251877Y-17384038D02*
X395870925Y-17574514D01*
X395870925Y-17574514D02*
X394347115Y-17574514D01*
D11*
X226721177Y-29739638D02*
X225578320Y-29739638D01*
X226149748Y-29739638D02*
X226149748Y-27739638D01*
X226149748Y-27739638D02*
X225959272Y-28025352D01*
X225959272Y-28025352D02*
X225768796Y-28215828D01*
X225768796Y-28215828D02*
X225578320Y-28311066D01*
X228435463Y-28406304D02*
X228435463Y-29739638D01*
X227959272Y-27644400D02*
X227483082Y-29072971D01*
X227483082Y-29072971D02*
X228721177Y-29072971D01*
X229483082Y-28977733D02*
X231006892Y-28977733D01*
X232244986Y-29739638D02*
X232054510Y-29644400D01*
X232054510Y-29644400D02*
X231959272Y-29453923D01*
X231959272Y-29453923D02*
X231959272Y-27739638D01*
X233864034Y-29739638D02*
X233864034Y-28692019D01*
X233864034Y-28692019D02*
X233768796Y-28501542D01*
X233768796Y-28501542D02*
X233578320Y-28406304D01*
X233578320Y-28406304D02*
X233197367Y-28406304D01*
X233197367Y-28406304D02*
X233006891Y-28501542D01*
X233864034Y-29644400D02*
X233673558Y-29739638D01*
X233673558Y-29739638D02*
X233197367Y-29739638D01*
X233197367Y-29739638D02*
X233006891Y-29644400D01*
X233006891Y-29644400D02*
X232911653Y-29453923D01*
X232911653Y-29453923D02*
X232911653Y-29263447D01*
X232911653Y-29263447D02*
X233006891Y-29072971D01*
X233006891Y-29072971D02*
X233197367Y-28977733D01*
X233197367Y-28977733D02*
X233673558Y-28977733D01*
X233673558Y-28977733D02*
X233864034Y-28882495D01*
X234625939Y-28406304D02*
X235102129Y-29739638D01*
X235578320Y-28406304D02*
X235102129Y-29739638D01*
X235102129Y-29739638D02*
X234911653Y-30215828D01*
X234911653Y-30215828D02*
X234816415Y-30311066D01*
X234816415Y-30311066D02*
X234625939Y-30406304D01*
X237102130Y-29644400D02*
X236911654Y-29739638D01*
X236911654Y-29739638D02*
X236530701Y-29739638D01*
X236530701Y-29739638D02*
X236340225Y-29644400D01*
X236340225Y-29644400D02*
X236244987Y-29453923D01*
X236244987Y-29453923D02*
X236244987Y-28692019D01*
X236244987Y-28692019D02*
X236340225Y-28501542D01*
X236340225Y-28501542D02*
X236530701Y-28406304D01*
X236530701Y-28406304D02*
X236911654Y-28406304D01*
X236911654Y-28406304D02*
X237102130Y-28501542D01*
X237102130Y-28501542D02*
X237197368Y-28692019D01*
X237197368Y-28692019D02*
X237197368Y-28882495D01*
X237197368Y-28882495D02*
X236244987Y-29072971D01*
X238054511Y-29739638D02*
X238054511Y-28406304D01*
X238054511Y-28787257D02*
X238149749Y-28596780D01*
X238149749Y-28596780D02*
X238244987Y-28501542D01*
X238244987Y-28501542D02*
X238435463Y-28406304D01*
X238435463Y-28406304D02*
X238625940Y-28406304D01*
X242244987Y-27644400D02*
X240530702Y-30215828D01*
X244435464Y-28692019D02*
X245102131Y-28692019D01*
X245387845Y-29739638D02*
X244435464Y-29739638D01*
X244435464Y-29739638D02*
X244435464Y-27739638D01*
X244435464Y-27739638D02*
X245387845Y-27739638D01*
X246244988Y-29739638D02*
X246244988Y-27739638D01*
X246244988Y-27739638D02*
X247387845Y-29739638D01*
X247387845Y-29739638D02*
X247387845Y-27739638D01*
X248340226Y-29739638D02*
X248340226Y-27739638D01*
X250340226Y-27834876D02*
X250149750Y-27739638D01*
X250149750Y-27739638D02*
X249864036Y-27739638D01*
X249864036Y-27739638D02*
X249578321Y-27834876D01*
X249578321Y-27834876D02*
X249387845Y-28025352D01*
X249387845Y-28025352D02*
X249292607Y-28215828D01*
X249292607Y-28215828D02*
X249197369Y-28596780D01*
X249197369Y-28596780D02*
X249197369Y-28882495D01*
X249197369Y-28882495D02*
X249292607Y-29263447D01*
X249292607Y-29263447D02*
X249387845Y-29453923D01*
X249387845Y-29453923D02*
X249578321Y-29644400D01*
X249578321Y-29644400D02*
X249864036Y-29739638D01*
X249864036Y-29739638D02*
X250054512Y-29739638D01*
X250054512Y-29739638D02*
X250340226Y-29644400D01*
X250340226Y-29644400D02*
X250435464Y-29549161D01*
X250435464Y-29549161D02*
X250435464Y-28882495D01*
X250435464Y-28882495D02*
X250054512Y-28882495D01*
X254244988Y-27644400D02*
X252530703Y-30215828D01*
X256435465Y-29739638D02*
X256435465Y-27739638D01*
X256435465Y-27739638D02*
X257102132Y-29168209D01*
X257102132Y-29168209D02*
X257768798Y-27739638D01*
X257768798Y-27739638D02*
X257768798Y-29739638D01*
X259483084Y-29644400D02*
X259292608Y-29739638D01*
X259292608Y-29739638D02*
X258911655Y-29739638D01*
X258911655Y-29739638D02*
X258721179Y-29644400D01*
X258721179Y-29644400D02*
X258625941Y-29453923D01*
X258625941Y-29453923D02*
X258625941Y-28692019D01*
X258625941Y-28692019D02*
X258721179Y-28501542D01*
X258721179Y-28501542D02*
X258911655Y-28406304D01*
X258911655Y-28406304D02*
X259292608Y-28406304D01*
X259292608Y-28406304D02*
X259483084Y-28501542D01*
X259483084Y-28501542D02*
X259578322Y-28692019D01*
X259578322Y-28692019D02*
X259578322Y-28882495D01*
X259578322Y-28882495D02*
X258625941Y-29072971D01*
X261292608Y-28406304D02*
X261292608Y-30025352D01*
X261292608Y-30025352D02*
X261197370Y-30215828D01*
X261197370Y-30215828D02*
X261102132Y-30311066D01*
X261102132Y-30311066D02*
X260911655Y-30406304D01*
X260911655Y-30406304D02*
X260625941Y-30406304D01*
X260625941Y-30406304D02*
X260435465Y-30311066D01*
X261292608Y-29644400D02*
X261102132Y-29739638D01*
X261102132Y-29739638D02*
X260721179Y-29739638D01*
X260721179Y-29739638D02*
X260530703Y-29644400D01*
X260530703Y-29644400D02*
X260435465Y-29549161D01*
X260435465Y-29549161D02*
X260340227Y-29358685D01*
X260340227Y-29358685D02*
X260340227Y-28787257D01*
X260340227Y-28787257D02*
X260435465Y-28596780D01*
X260435465Y-28596780D02*
X260530703Y-28501542D01*
X260530703Y-28501542D02*
X260721179Y-28406304D01*
X260721179Y-28406304D02*
X261102132Y-28406304D01*
X261102132Y-28406304D02*
X261292608Y-28501542D01*
X261959275Y-28406304D02*
X262721179Y-28406304D01*
X262244989Y-27739638D02*
X262244989Y-29453923D01*
X262244989Y-29453923D02*
X262340227Y-29644400D01*
X262340227Y-29644400D02*
X262530703Y-29739638D01*
X262530703Y-29739638D02*
X262721179Y-29739638D01*
X263387846Y-29739638D02*
X263387846Y-28406304D01*
X263387846Y-28787257D02*
X263483084Y-28596780D01*
X263483084Y-28596780D02*
X263578322Y-28501542D01*
X263578322Y-28501542D02*
X263768798Y-28406304D01*
X263768798Y-28406304D02*
X263959275Y-28406304D01*
X264911655Y-29739638D02*
X264721179Y-29644400D01*
X264721179Y-29644400D02*
X264625941Y-29549161D01*
X264625941Y-29549161D02*
X264530703Y-29358685D01*
X264530703Y-29358685D02*
X264530703Y-28787257D01*
X264530703Y-28787257D02*
X264625941Y-28596780D01*
X264625941Y-28596780D02*
X264721179Y-28501542D01*
X264721179Y-28501542D02*
X264911655Y-28406304D01*
X264911655Y-28406304D02*
X265197370Y-28406304D01*
X265197370Y-28406304D02*
X265387846Y-28501542D01*
X265387846Y-28501542D02*
X265483084Y-28596780D01*
X265483084Y-28596780D02*
X265578322Y-28787257D01*
X265578322Y-28787257D02*
X265578322Y-29358685D01*
X265578322Y-29358685D02*
X265483084Y-29549161D01*
X265483084Y-29549161D02*
X265387846Y-29644400D01*
X265387846Y-29644400D02*
X265197370Y-29739638D01*
X265197370Y-29739638D02*
X264911655Y-29739638D01*
X266435465Y-28406304D02*
X266435465Y-29739638D01*
X266435465Y-28596780D02*
X266530703Y-28501542D01*
X266530703Y-28501542D02*
X266721179Y-28406304D01*
X266721179Y-28406304D02*
X267006894Y-28406304D01*
X267006894Y-28406304D02*
X267197370Y-28501542D01*
X267197370Y-28501542D02*
X267292608Y-28692019D01*
X267292608Y-28692019D02*
X267292608Y-29739638D01*
X270625942Y-27739638D02*
X270244989Y-27739638D01*
X270244989Y-27739638D02*
X270054513Y-27834876D01*
X270054513Y-27834876D02*
X269959275Y-27930114D01*
X269959275Y-27930114D02*
X269768799Y-28215828D01*
X269768799Y-28215828D02*
X269673561Y-28596780D01*
X269673561Y-28596780D02*
X269673561Y-29358685D01*
X269673561Y-29358685D02*
X269768799Y-29549161D01*
X269768799Y-29549161D02*
X269864037Y-29644400D01*
X269864037Y-29644400D02*
X270054513Y-29739638D01*
X270054513Y-29739638D02*
X270435466Y-29739638D01*
X270435466Y-29739638D02*
X270625942Y-29644400D01*
X270625942Y-29644400D02*
X270721180Y-29549161D01*
X270721180Y-29549161D02*
X270816418Y-29358685D01*
X270816418Y-29358685D02*
X270816418Y-28882495D01*
X270816418Y-28882495D02*
X270721180Y-28692019D01*
X270721180Y-28692019D02*
X270625942Y-28596780D01*
X270625942Y-28596780D02*
X270435466Y-28501542D01*
X270435466Y-28501542D02*
X270054513Y-28501542D01*
X270054513Y-28501542D02*
X269864037Y-28596780D01*
X269864037Y-28596780D02*
X269768799Y-28692019D01*
X269768799Y-28692019D02*
X269673561Y-28882495D01*
X274625942Y-27644400D02*
X272911657Y-30215828D01*
X277673562Y-28406304D02*
X277673562Y-29739638D01*
X277197371Y-27644400D02*
X276721181Y-29072971D01*
X276721181Y-29072971D02*
X277959276Y-29072971D01*
X279673562Y-27739638D02*
X278721181Y-27739638D01*
X278721181Y-27739638D02*
X278625943Y-28692019D01*
X278625943Y-28692019D02*
X278721181Y-28596780D01*
X278721181Y-28596780D02*
X278911657Y-28501542D01*
X278911657Y-28501542D02*
X279387848Y-28501542D01*
X279387848Y-28501542D02*
X279578324Y-28596780D01*
X279578324Y-28596780D02*
X279673562Y-28692019D01*
X279673562Y-28692019D02*
X279768800Y-28882495D01*
X279768800Y-28882495D02*
X279768800Y-29358685D01*
X279768800Y-29358685D02*
X279673562Y-29549161D01*
X279673562Y-29549161D02*
X279578324Y-29644400D01*
X279578324Y-29644400D02*
X279387848Y-29739638D01*
X279387848Y-29739638D02*
X278911657Y-29739638D01*
X278911657Y-29739638D02*
X278721181Y-29644400D01*
X278721181Y-29644400D02*
X278625943Y-29549161D01*
X281006895Y-27739638D02*
X281197372Y-27739638D01*
X281197372Y-27739638D02*
X281387848Y-27834876D01*
X281387848Y-27834876D02*
X281483086Y-27930114D01*
X281483086Y-27930114D02*
X281578324Y-28120590D01*
X281578324Y-28120590D02*
X281673562Y-28501542D01*
X281673562Y-28501542D02*
X281673562Y-28977733D01*
X281673562Y-28977733D02*
X281578324Y-29358685D01*
X281578324Y-29358685D02*
X281483086Y-29549161D01*
X281483086Y-29549161D02*
X281387848Y-29644400D01*
X281387848Y-29644400D02*
X281197372Y-29739638D01*
X281197372Y-29739638D02*
X281006895Y-29739638D01*
X281006895Y-29739638D02*
X280816419Y-29644400D01*
X280816419Y-29644400D02*
X280721181Y-29549161D01*
X280721181Y-29549161D02*
X280625943Y-29358685D01*
X280625943Y-29358685D02*
X280530705Y-28977733D01*
X280530705Y-28977733D02*
X280530705Y-28501542D01*
X280530705Y-28501542D02*
X280625943Y-28120590D01*
X280625943Y-28120590D02*
X280721181Y-27930114D01*
X280721181Y-27930114D02*
X280816419Y-27834876D01*
X280816419Y-27834876D02*
X281006895Y-27739638D01*
X282340229Y-29739638D02*
X283387848Y-28406304D01*
X282340229Y-28406304D02*
X283387848Y-29739638D01*
X283959277Y-27739638D02*
X285197372Y-27739638D01*
X285197372Y-27739638D02*
X284530705Y-28501542D01*
X284530705Y-28501542D02*
X284816420Y-28501542D01*
X284816420Y-28501542D02*
X285006896Y-28596780D01*
X285006896Y-28596780D02*
X285102134Y-28692019D01*
X285102134Y-28692019D02*
X285197372Y-28882495D01*
X285197372Y-28882495D02*
X285197372Y-29358685D01*
X285197372Y-29358685D02*
X285102134Y-29549161D01*
X285102134Y-29549161D02*
X285006896Y-29644400D01*
X285006896Y-29644400D02*
X284816420Y-29739638D01*
X284816420Y-29739638D02*
X284244991Y-29739638D01*
X284244991Y-29739638D02*
X284054515Y-29644400D01*
X284054515Y-29644400D02*
X283959277Y-29549161D01*
X286435467Y-27739638D02*
X286625944Y-27739638D01*
X286625944Y-27739638D02*
X286816420Y-27834876D01*
X286816420Y-27834876D02*
X286911658Y-27930114D01*
X286911658Y-27930114D02*
X287006896Y-28120590D01*
X287006896Y-28120590D02*
X287102134Y-28501542D01*
X287102134Y-28501542D02*
X287102134Y-28977733D01*
X287102134Y-28977733D02*
X287006896Y-29358685D01*
X287006896Y-29358685D02*
X286911658Y-29549161D01*
X286911658Y-29549161D02*
X286816420Y-29644400D01*
X286816420Y-29644400D02*
X286625944Y-29739638D01*
X286625944Y-29739638D02*
X286435467Y-29739638D01*
X286435467Y-29739638D02*
X286244991Y-29644400D01*
X286244991Y-29644400D02*
X286149753Y-29549161D01*
X286149753Y-29549161D02*
X286054515Y-29358685D01*
X286054515Y-29358685D02*
X285959277Y-28977733D01*
X285959277Y-28977733D02*
X285959277Y-28501542D01*
X285959277Y-28501542D02*
X286054515Y-28120590D01*
X286054515Y-28120590D02*
X286149753Y-27930114D01*
X286149753Y-27930114D02*
X286244991Y-27834876D01*
X286244991Y-27834876D02*
X286435467Y-27739638D01*
X288340229Y-27739638D02*
X288530706Y-27739638D01*
X288530706Y-27739638D02*
X288721182Y-27834876D01*
X288721182Y-27834876D02*
X288816420Y-27930114D01*
X288816420Y-27930114D02*
X288911658Y-28120590D01*
X288911658Y-28120590D02*
X289006896Y-28501542D01*
X289006896Y-28501542D02*
X289006896Y-28977733D01*
X289006896Y-28977733D02*
X288911658Y-29358685D01*
X288911658Y-29358685D02*
X288816420Y-29549161D01*
X288816420Y-29549161D02*
X288721182Y-29644400D01*
X288721182Y-29644400D02*
X288530706Y-29739638D01*
X288530706Y-29739638D02*
X288340229Y-29739638D01*
X288340229Y-29739638D02*
X288149753Y-29644400D01*
X288149753Y-29644400D02*
X288054515Y-29549161D01*
X288054515Y-29549161D02*
X287959277Y-29358685D01*
X287959277Y-29358685D02*
X287864039Y-28977733D01*
X287864039Y-28977733D02*
X287864039Y-28501542D01*
X287864039Y-28501542D02*
X287959277Y-28120590D01*
X287959277Y-28120590D02*
X288054515Y-27930114D01*
X288054515Y-27930114D02*
X288149753Y-27834876D01*
X288149753Y-27834876D02*
X288340229Y-27739638D01*
X289864039Y-29739638D02*
X289864039Y-28406304D01*
X289864039Y-28596780D02*
X289959277Y-28501542D01*
X289959277Y-28501542D02*
X290149753Y-28406304D01*
X290149753Y-28406304D02*
X290435468Y-28406304D01*
X290435468Y-28406304D02*
X290625944Y-28501542D01*
X290625944Y-28501542D02*
X290721182Y-28692019D01*
X290721182Y-28692019D02*
X290721182Y-29739638D01*
X290721182Y-28692019D02*
X290816420Y-28501542D01*
X290816420Y-28501542D02*
X291006896Y-28406304D01*
X291006896Y-28406304D02*
X291292610Y-28406304D01*
X291292610Y-28406304D02*
X291483087Y-28501542D01*
X291483087Y-28501542D02*
X291578325Y-28692019D01*
X291578325Y-28692019D02*
X291578325Y-29739638D01*
X292530706Y-29739638D02*
X292530706Y-28406304D01*
X292530706Y-28596780D02*
X292625944Y-28501542D01*
X292625944Y-28501542D02*
X292816420Y-28406304D01*
X292816420Y-28406304D02*
X293102135Y-28406304D01*
X293102135Y-28406304D02*
X293292611Y-28501542D01*
X293292611Y-28501542D02*
X293387849Y-28692019D01*
X293387849Y-28692019D02*
X293387849Y-29739638D01*
X293387849Y-28692019D02*
X293483087Y-28501542D01*
X293483087Y-28501542D02*
X293673563Y-28406304D01*
X293673563Y-28406304D02*
X293959277Y-28406304D01*
X293959277Y-28406304D02*
X294149754Y-28501542D01*
X294149754Y-28501542D02*
X294244992Y-28692019D01*
X294244992Y-28692019D02*
X294244992Y-29739638D01*
D12*
X225417292Y-279734600D02*
X225631578Y-279806028D01*
X225631578Y-279806028D02*
X225988720Y-279806028D01*
X225988720Y-279806028D02*
X226131578Y-279734600D01*
X226131578Y-279734600D02*
X226203006Y-279663171D01*
X226203006Y-279663171D02*
X226274435Y-279520314D01*
X226274435Y-279520314D02*
X226274435Y-279377457D01*
X226274435Y-279377457D02*
X226203006Y-279234600D01*
X226203006Y-279234600D02*
X226131578Y-279163171D01*
X226131578Y-279163171D02*
X225988720Y-279091742D01*
X225988720Y-279091742D02*
X225703006Y-279020314D01*
X225703006Y-279020314D02*
X225560149Y-278948885D01*
X225560149Y-278948885D02*
X225488720Y-278877457D01*
X225488720Y-278877457D02*
X225417292Y-278734600D01*
X225417292Y-278734600D02*
X225417292Y-278591742D01*
X225417292Y-278591742D02*
X225488720Y-278448885D01*
X225488720Y-278448885D02*
X225560149Y-278377457D01*
X225560149Y-278377457D02*
X225703006Y-278306028D01*
X225703006Y-278306028D02*
X226060149Y-278306028D01*
X226060149Y-278306028D02*
X226274435Y-278377457D01*
X227488720Y-279734600D02*
X227345863Y-279806028D01*
X227345863Y-279806028D02*
X227060149Y-279806028D01*
X227060149Y-279806028D02*
X226917291Y-279734600D01*
X226917291Y-279734600D02*
X226845863Y-279591742D01*
X226845863Y-279591742D02*
X226845863Y-279020314D01*
X226845863Y-279020314D02*
X226917291Y-278877457D01*
X226917291Y-278877457D02*
X227060149Y-278806028D01*
X227060149Y-278806028D02*
X227345863Y-278806028D01*
X227345863Y-278806028D02*
X227488720Y-278877457D01*
X227488720Y-278877457D02*
X227560149Y-279020314D01*
X227560149Y-279020314D02*
X227560149Y-279163171D01*
X227560149Y-279163171D02*
X226845863Y-279306028D01*
X228774434Y-279734600D02*
X228631577Y-279806028D01*
X228631577Y-279806028D02*
X228345863Y-279806028D01*
X228345863Y-279806028D02*
X228203005Y-279734600D01*
X228203005Y-279734600D02*
X228131577Y-279591742D01*
X228131577Y-279591742D02*
X228131577Y-279020314D01*
X228131577Y-279020314D02*
X228203005Y-278877457D01*
X228203005Y-278877457D02*
X228345863Y-278806028D01*
X228345863Y-278806028D02*
X228631577Y-278806028D01*
X228631577Y-278806028D02*
X228774434Y-278877457D01*
X228774434Y-278877457D02*
X228845863Y-279020314D01*
X228845863Y-279020314D02*
X228845863Y-279163171D01*
X228845863Y-279163171D02*
X228131577Y-279306028D01*
X230631576Y-279806028D02*
X230631576Y-278306028D01*
X230631576Y-278877457D02*
X230774434Y-278806028D01*
X230774434Y-278806028D02*
X231060148Y-278806028D01*
X231060148Y-278806028D02*
X231203005Y-278877457D01*
X231203005Y-278877457D02*
X231274434Y-278948885D01*
X231274434Y-278948885D02*
X231345862Y-279091742D01*
X231345862Y-279091742D02*
X231345862Y-279520314D01*
X231345862Y-279520314D02*
X231274434Y-279663171D01*
X231274434Y-279663171D02*
X231203005Y-279734600D01*
X231203005Y-279734600D02*
X231060148Y-279806028D01*
X231060148Y-279806028D02*
X230774434Y-279806028D01*
X230774434Y-279806028D02*
X230631576Y-279734600D01*
X232203005Y-279806028D02*
X232060148Y-279734600D01*
X232060148Y-279734600D02*
X231988719Y-279591742D01*
X231988719Y-279591742D02*
X231988719Y-278306028D01*
X232988719Y-279806028D02*
X232845862Y-279734600D01*
X232845862Y-279734600D02*
X232774433Y-279663171D01*
X232774433Y-279663171D02*
X232703005Y-279520314D01*
X232703005Y-279520314D02*
X232703005Y-279091742D01*
X232703005Y-279091742D02*
X232774433Y-278948885D01*
X232774433Y-278948885D02*
X232845862Y-278877457D01*
X232845862Y-278877457D02*
X232988719Y-278806028D01*
X232988719Y-278806028D02*
X233203005Y-278806028D01*
X233203005Y-278806028D02*
X233345862Y-278877457D01*
X233345862Y-278877457D02*
X233417291Y-278948885D01*
X233417291Y-278948885D02*
X233488719Y-279091742D01*
X233488719Y-279091742D02*
X233488719Y-279520314D01*
X233488719Y-279520314D02*
X233417291Y-279663171D01*
X233417291Y-279663171D02*
X233345862Y-279734600D01*
X233345862Y-279734600D02*
X233203005Y-279806028D01*
X233203005Y-279806028D02*
X232988719Y-279806028D01*
X234774434Y-279734600D02*
X234631576Y-279806028D01*
X234631576Y-279806028D02*
X234345862Y-279806028D01*
X234345862Y-279806028D02*
X234203005Y-279734600D01*
X234203005Y-279734600D02*
X234131576Y-279663171D01*
X234131576Y-279663171D02*
X234060148Y-279520314D01*
X234060148Y-279520314D02*
X234060148Y-279091742D01*
X234060148Y-279091742D02*
X234131576Y-278948885D01*
X234131576Y-278948885D02*
X234203005Y-278877457D01*
X234203005Y-278877457D02*
X234345862Y-278806028D01*
X234345862Y-278806028D02*
X234631576Y-278806028D01*
X234631576Y-278806028D02*
X234774434Y-278877457D01*
X235417290Y-279806028D02*
X235417290Y-278306028D01*
X235560148Y-279234600D02*
X235988719Y-279806028D01*
X235988719Y-278806028D02*
X235417290Y-279377457D01*
X236631576Y-279234600D02*
X237774434Y-279234600D01*
X239131577Y-279806028D02*
X239131577Y-278306028D01*
X239131577Y-279734600D02*
X238988719Y-279806028D01*
X238988719Y-279806028D02*
X238703005Y-279806028D01*
X238703005Y-279806028D02*
X238560148Y-279734600D01*
X238560148Y-279734600D02*
X238488719Y-279663171D01*
X238488719Y-279663171D02*
X238417291Y-279520314D01*
X238417291Y-279520314D02*
X238417291Y-279091742D01*
X238417291Y-279091742D02*
X238488719Y-278948885D01*
X238488719Y-278948885D02*
X238560148Y-278877457D01*
X238560148Y-278877457D02*
X238703005Y-278806028D01*
X238703005Y-278806028D02*
X238988719Y-278806028D01*
X238988719Y-278806028D02*
X239131577Y-278877457D01*
X239845862Y-279806028D02*
X239845862Y-278806028D01*
X239845862Y-278306028D02*
X239774434Y-278377457D01*
X239774434Y-278377457D02*
X239845862Y-278448885D01*
X239845862Y-278448885D02*
X239917291Y-278377457D01*
X239917291Y-278377457D02*
X239845862Y-278306028D01*
X239845862Y-278306028D02*
X239845862Y-278448885D01*
X241203006Y-279806028D02*
X241203006Y-279020314D01*
X241203006Y-279020314D02*
X241131577Y-278877457D01*
X241131577Y-278877457D02*
X240988720Y-278806028D01*
X240988720Y-278806028D02*
X240703006Y-278806028D01*
X240703006Y-278806028D02*
X240560148Y-278877457D01*
X241203006Y-279734600D02*
X241060148Y-279806028D01*
X241060148Y-279806028D02*
X240703006Y-279806028D01*
X240703006Y-279806028D02*
X240560148Y-279734600D01*
X240560148Y-279734600D02*
X240488720Y-279591742D01*
X240488720Y-279591742D02*
X240488720Y-279448885D01*
X240488720Y-279448885D02*
X240560148Y-279306028D01*
X240560148Y-279306028D02*
X240703006Y-279234600D01*
X240703006Y-279234600D02*
X241060148Y-279234600D01*
X241060148Y-279234600D02*
X241203006Y-279163171D01*
X242560149Y-278806028D02*
X242560149Y-280020314D01*
X242560149Y-280020314D02*
X242488720Y-280163171D01*
X242488720Y-280163171D02*
X242417291Y-280234600D01*
X242417291Y-280234600D02*
X242274434Y-280306028D01*
X242274434Y-280306028D02*
X242060149Y-280306028D01*
X242060149Y-280306028D02*
X241917291Y-280234600D01*
X242560149Y-279734600D02*
X242417291Y-279806028D01*
X242417291Y-279806028D02*
X242131577Y-279806028D01*
X242131577Y-279806028D02*
X241988720Y-279734600D01*
X241988720Y-279734600D02*
X241917291Y-279663171D01*
X241917291Y-279663171D02*
X241845863Y-279520314D01*
X241845863Y-279520314D02*
X241845863Y-279091742D01*
X241845863Y-279091742D02*
X241917291Y-278948885D01*
X241917291Y-278948885D02*
X241988720Y-278877457D01*
X241988720Y-278877457D02*
X242131577Y-278806028D01*
X242131577Y-278806028D02*
X242417291Y-278806028D01*
X242417291Y-278806028D02*
X242560149Y-278877457D01*
X243274434Y-279806028D02*
X243274434Y-278806028D01*
X243274434Y-279091742D02*
X243345863Y-278948885D01*
X243345863Y-278948885D02*
X243417292Y-278877457D01*
X243417292Y-278877457D02*
X243560149Y-278806028D01*
X243560149Y-278806028D02*
X243703006Y-278806028D01*
X244845863Y-279806028D02*
X244845863Y-279020314D01*
X244845863Y-279020314D02*
X244774434Y-278877457D01*
X244774434Y-278877457D02*
X244631577Y-278806028D01*
X244631577Y-278806028D02*
X244345863Y-278806028D01*
X244345863Y-278806028D02*
X244203005Y-278877457D01*
X244845863Y-279734600D02*
X244703005Y-279806028D01*
X244703005Y-279806028D02*
X244345863Y-279806028D01*
X244345863Y-279806028D02*
X244203005Y-279734600D01*
X244203005Y-279734600D02*
X244131577Y-279591742D01*
X244131577Y-279591742D02*
X244131577Y-279448885D01*
X244131577Y-279448885D02*
X244203005Y-279306028D01*
X244203005Y-279306028D02*
X244345863Y-279234600D01*
X244345863Y-279234600D02*
X244703005Y-279234600D01*
X244703005Y-279234600D02*
X244845863Y-279163171D01*
X245560148Y-279806028D02*
X245560148Y-278806028D01*
X245560148Y-278948885D02*
X245631577Y-278877457D01*
X245631577Y-278877457D02*
X245774434Y-278806028D01*
X245774434Y-278806028D02*
X245988720Y-278806028D01*
X245988720Y-278806028D02*
X246131577Y-278877457D01*
X246131577Y-278877457D02*
X246203006Y-279020314D01*
X246203006Y-279020314D02*
X246203006Y-279806028D01*
X246203006Y-279020314D02*
X246274434Y-278877457D01*
X246274434Y-278877457D02*
X246417291Y-278806028D01*
X246417291Y-278806028D02*
X246631577Y-278806028D01*
X246631577Y-278806028D02*
X246774434Y-278877457D01*
X246774434Y-278877457D02*
X246845863Y-279020314D01*
X246845863Y-279020314D02*
X246845863Y-279806028D01*
X247488720Y-279734600D02*
X247631577Y-279806028D01*
X247631577Y-279806028D02*
X247917291Y-279806028D01*
X247917291Y-279806028D02*
X248060148Y-279734600D01*
X248060148Y-279734600D02*
X248131577Y-279591742D01*
X248131577Y-279591742D02*
X248131577Y-279520314D01*
X248131577Y-279520314D02*
X248060148Y-279377457D01*
X248060148Y-279377457D02*
X247917291Y-279306028D01*
X247917291Y-279306028D02*
X247703006Y-279306028D01*
X247703006Y-279306028D02*
X247560148Y-279234600D01*
X247560148Y-279234600D02*
X247488720Y-279091742D01*
X247488720Y-279091742D02*
X247488720Y-279020314D01*
X247488720Y-279020314D02*
X247560148Y-278877457D01*
X247560148Y-278877457D02*
X247703006Y-278806028D01*
X247703006Y-278806028D02*
X247917291Y-278806028D01*
X247917291Y-278806028D02*
X248060148Y-278877457D01*
X249845863Y-278234600D02*
X248560149Y-280163171D01*
X250988721Y-279734600D02*
X250845863Y-279806028D01*
X250845863Y-279806028D02*
X250560149Y-279806028D01*
X250560149Y-279806028D02*
X250417292Y-279734600D01*
X250417292Y-279734600D02*
X250345863Y-279663171D01*
X250345863Y-279663171D02*
X250274435Y-279520314D01*
X250274435Y-279520314D02*
X250274435Y-279091742D01*
X250274435Y-279091742D02*
X250345863Y-278948885D01*
X250345863Y-278948885D02*
X250417292Y-278877457D01*
X250417292Y-278877457D02*
X250560149Y-278806028D01*
X250560149Y-278806028D02*
X250845863Y-278806028D01*
X250845863Y-278806028D02*
X250988721Y-278877457D01*
X251845863Y-279806028D02*
X251703006Y-279734600D01*
X251703006Y-279734600D02*
X251631577Y-279663171D01*
X251631577Y-279663171D02*
X251560149Y-279520314D01*
X251560149Y-279520314D02*
X251560149Y-279091742D01*
X251560149Y-279091742D02*
X251631577Y-278948885D01*
X251631577Y-278948885D02*
X251703006Y-278877457D01*
X251703006Y-278877457D02*
X251845863Y-278806028D01*
X251845863Y-278806028D02*
X252060149Y-278806028D01*
X252060149Y-278806028D02*
X252203006Y-278877457D01*
X252203006Y-278877457D02*
X252274435Y-278948885D01*
X252274435Y-278948885D02*
X252345863Y-279091742D01*
X252345863Y-279091742D02*
X252345863Y-279520314D01*
X252345863Y-279520314D02*
X252274435Y-279663171D01*
X252274435Y-279663171D02*
X252203006Y-279734600D01*
X252203006Y-279734600D02*
X252060149Y-279806028D01*
X252060149Y-279806028D02*
X251845863Y-279806028D01*
X252988720Y-279806028D02*
X252988720Y-278806028D01*
X252988720Y-278948885D02*
X253060149Y-278877457D01*
X253060149Y-278877457D02*
X253203006Y-278806028D01*
X253203006Y-278806028D02*
X253417292Y-278806028D01*
X253417292Y-278806028D02*
X253560149Y-278877457D01*
X253560149Y-278877457D02*
X253631578Y-279020314D01*
X253631578Y-279020314D02*
X253631578Y-279806028D01*
X253631578Y-279020314D02*
X253703006Y-278877457D01*
X253703006Y-278877457D02*
X253845863Y-278806028D01*
X253845863Y-278806028D02*
X254060149Y-278806028D01*
X254060149Y-278806028D02*
X254203006Y-278877457D01*
X254203006Y-278877457D02*
X254274435Y-279020314D01*
X254274435Y-279020314D02*
X254274435Y-279806028D01*
X254988720Y-278806028D02*
X254988720Y-280306028D01*
X254988720Y-278877457D02*
X255131578Y-278806028D01*
X255131578Y-278806028D02*
X255417292Y-278806028D01*
X255417292Y-278806028D02*
X255560149Y-278877457D01*
X255560149Y-278877457D02*
X255631578Y-278948885D01*
X255631578Y-278948885D02*
X255703006Y-279091742D01*
X255703006Y-279091742D02*
X255703006Y-279520314D01*
X255703006Y-279520314D02*
X255631578Y-279663171D01*
X255631578Y-279663171D02*
X255560149Y-279734600D01*
X255560149Y-279734600D02*
X255417292Y-279806028D01*
X255417292Y-279806028D02*
X255131578Y-279806028D01*
X255131578Y-279806028D02*
X254988720Y-279734600D01*
X256988721Y-278806028D02*
X256988721Y-279806028D01*
X256345863Y-278806028D02*
X256345863Y-279591742D01*
X256345863Y-279591742D02*
X256417292Y-279734600D01*
X256417292Y-279734600D02*
X256560149Y-279806028D01*
X256560149Y-279806028D02*
X256774435Y-279806028D01*
X256774435Y-279806028D02*
X256917292Y-279734600D01*
X256917292Y-279734600D02*
X256988721Y-279663171D01*
X257488721Y-278806028D02*
X258060149Y-278806028D01*
X257703006Y-278306028D02*
X257703006Y-279591742D01*
X257703006Y-279591742D02*
X257774435Y-279734600D01*
X257774435Y-279734600D02*
X257917292Y-279806028D01*
X257917292Y-279806028D02*
X258060149Y-279806028D01*
X259131578Y-279734600D02*
X258988721Y-279806028D01*
X258988721Y-279806028D02*
X258703007Y-279806028D01*
X258703007Y-279806028D02*
X258560149Y-279734600D01*
X258560149Y-279734600D02*
X258488721Y-279591742D01*
X258488721Y-279591742D02*
X258488721Y-279020314D01*
X258488721Y-279020314D02*
X258560149Y-278877457D01*
X258560149Y-278877457D02*
X258703007Y-278806028D01*
X258703007Y-278806028D02*
X258988721Y-278806028D01*
X258988721Y-278806028D02*
X259131578Y-278877457D01*
X259131578Y-278877457D02*
X259203007Y-279020314D01*
X259203007Y-279020314D02*
X259203007Y-279163171D01*
X259203007Y-279163171D02*
X258488721Y-279306028D01*
X259845863Y-279234600D02*
X260988721Y-279234600D01*
X261703006Y-279806028D02*
X261703006Y-278306028D01*
X261703006Y-278877457D02*
X261845864Y-278806028D01*
X261845864Y-278806028D02*
X262131578Y-278806028D01*
X262131578Y-278806028D02*
X262274435Y-278877457D01*
X262274435Y-278877457D02*
X262345864Y-278948885D01*
X262345864Y-278948885D02*
X262417292Y-279091742D01*
X262417292Y-279091742D02*
X262417292Y-279520314D01*
X262417292Y-279520314D02*
X262345864Y-279663171D01*
X262345864Y-279663171D02*
X262274435Y-279734600D01*
X262274435Y-279734600D02*
X262131578Y-279806028D01*
X262131578Y-279806028D02*
X261845864Y-279806028D01*
X261845864Y-279806028D02*
X261703006Y-279734600D01*
X263703007Y-279806028D02*
X263703007Y-279020314D01*
X263703007Y-279020314D02*
X263631578Y-278877457D01*
X263631578Y-278877457D02*
X263488721Y-278806028D01*
X263488721Y-278806028D02*
X263203007Y-278806028D01*
X263203007Y-278806028D02*
X263060149Y-278877457D01*
X263703007Y-279734600D02*
X263560149Y-279806028D01*
X263560149Y-279806028D02*
X263203007Y-279806028D01*
X263203007Y-279806028D02*
X263060149Y-279734600D01*
X263060149Y-279734600D02*
X262988721Y-279591742D01*
X262988721Y-279591742D02*
X262988721Y-279448885D01*
X262988721Y-279448885D02*
X263060149Y-279306028D01*
X263060149Y-279306028D02*
X263203007Y-279234600D01*
X263203007Y-279234600D02*
X263560149Y-279234600D01*
X263560149Y-279234600D02*
X263703007Y-279163171D01*
X265060150Y-279734600D02*
X264917292Y-279806028D01*
X264917292Y-279806028D02*
X264631578Y-279806028D01*
X264631578Y-279806028D02*
X264488721Y-279734600D01*
X264488721Y-279734600D02*
X264417292Y-279663171D01*
X264417292Y-279663171D02*
X264345864Y-279520314D01*
X264345864Y-279520314D02*
X264345864Y-279091742D01*
X264345864Y-279091742D02*
X264417292Y-278948885D01*
X264417292Y-278948885D02*
X264488721Y-278877457D01*
X264488721Y-278877457D02*
X264631578Y-278806028D01*
X264631578Y-278806028D02*
X264917292Y-278806028D01*
X264917292Y-278806028D02*
X265060150Y-278877457D01*
X265703006Y-279806028D02*
X265703006Y-278306028D01*
X265845864Y-279234600D02*
X266274435Y-279806028D01*
X266274435Y-278806028D02*
X265703006Y-279377457D01*
X266917292Y-278806028D02*
X266917292Y-280306028D01*
X266917292Y-278877457D02*
X267060150Y-278806028D01*
X267060150Y-278806028D02*
X267345864Y-278806028D01*
X267345864Y-278806028D02*
X267488721Y-278877457D01*
X267488721Y-278877457D02*
X267560150Y-278948885D01*
X267560150Y-278948885D02*
X267631578Y-279091742D01*
X267631578Y-279091742D02*
X267631578Y-279520314D01*
X267631578Y-279520314D02*
X267560150Y-279663171D01*
X267560150Y-279663171D02*
X267488721Y-279734600D01*
X267488721Y-279734600D02*
X267345864Y-279806028D01*
X267345864Y-279806028D02*
X267060150Y-279806028D01*
X267060150Y-279806028D02*
X266917292Y-279734600D01*
X268488721Y-279806028D02*
X268345864Y-279734600D01*
X268345864Y-279734600D02*
X268274435Y-279591742D01*
X268274435Y-279591742D02*
X268274435Y-278306028D01*
X269703007Y-279806028D02*
X269703007Y-279020314D01*
X269703007Y-279020314D02*
X269631578Y-278877457D01*
X269631578Y-278877457D02*
X269488721Y-278806028D01*
X269488721Y-278806028D02*
X269203007Y-278806028D01*
X269203007Y-278806028D02*
X269060149Y-278877457D01*
X269703007Y-279734600D02*
X269560149Y-279806028D01*
X269560149Y-279806028D02*
X269203007Y-279806028D01*
X269203007Y-279806028D02*
X269060149Y-279734600D01*
X269060149Y-279734600D02*
X268988721Y-279591742D01*
X268988721Y-279591742D02*
X268988721Y-279448885D01*
X268988721Y-279448885D02*
X269060149Y-279306028D01*
X269060149Y-279306028D02*
X269203007Y-279234600D01*
X269203007Y-279234600D02*
X269560149Y-279234600D01*
X269560149Y-279234600D02*
X269703007Y-279163171D01*
X270417292Y-278806028D02*
X270417292Y-279806028D01*
X270417292Y-278948885D02*
X270488721Y-278877457D01*
X270488721Y-278877457D02*
X270631578Y-278806028D01*
X270631578Y-278806028D02*
X270845864Y-278806028D01*
X270845864Y-278806028D02*
X270988721Y-278877457D01*
X270988721Y-278877457D02*
X271060150Y-279020314D01*
X271060150Y-279020314D02*
X271060150Y-279806028D01*
X272345864Y-279734600D02*
X272203007Y-279806028D01*
X272203007Y-279806028D02*
X271917293Y-279806028D01*
X271917293Y-279806028D02*
X271774435Y-279734600D01*
X271774435Y-279734600D02*
X271703007Y-279591742D01*
X271703007Y-279591742D02*
X271703007Y-279020314D01*
X271703007Y-279020314D02*
X271774435Y-278877457D01*
X271774435Y-278877457D02*
X271917293Y-278806028D01*
X271917293Y-278806028D02*
X272203007Y-278806028D01*
X272203007Y-278806028D02*
X272345864Y-278877457D01*
X272345864Y-278877457D02*
X272417293Y-279020314D01*
X272417293Y-279020314D02*
X272417293Y-279163171D01*
X272417293Y-279163171D02*
X271703007Y-279306028D01*
X273060149Y-279663171D02*
X273131578Y-279734600D01*
X273131578Y-279734600D02*
X273060149Y-279806028D01*
X273060149Y-279806028D02*
X272988721Y-279734600D01*
X272988721Y-279734600D02*
X273060149Y-279663171D01*
X273060149Y-279663171D02*
X273060149Y-279806028D01*
X273774435Y-279806028D02*
X273774435Y-278806028D01*
X273774435Y-278948885D02*
X273845864Y-278877457D01*
X273845864Y-278877457D02*
X273988721Y-278806028D01*
X273988721Y-278806028D02*
X274203007Y-278806028D01*
X274203007Y-278806028D02*
X274345864Y-278877457D01*
X274345864Y-278877457D02*
X274417293Y-279020314D01*
X274417293Y-279020314D02*
X274417293Y-279806028D01*
X274417293Y-279020314D02*
X274488721Y-278877457D01*
X274488721Y-278877457D02*
X274631578Y-278806028D01*
X274631578Y-278806028D02*
X274845864Y-278806028D01*
X274845864Y-278806028D02*
X274988721Y-278877457D01*
X274988721Y-278877457D02*
X275060150Y-279020314D01*
X275060150Y-279020314D02*
X275060150Y-279806028D01*
X276417293Y-279806028D02*
X276417293Y-278306028D01*
X276417293Y-279734600D02*
X276274435Y-279806028D01*
X276274435Y-279806028D02*
X275988721Y-279806028D01*
X275988721Y-279806028D02*
X275845864Y-279734600D01*
X275845864Y-279734600D02*
X275774435Y-279663171D01*
X275774435Y-279663171D02*
X275703007Y-279520314D01*
X275703007Y-279520314D02*
X275703007Y-279091742D01*
X275703007Y-279091742D02*
X275774435Y-278948885D01*
X275774435Y-278948885D02*
X275845864Y-278877457D01*
X275845864Y-278877457D02*
X275988721Y-278806028D01*
X275988721Y-278806028D02*
X276274435Y-278806028D01*
X276274435Y-278806028D02*
X276417293Y-278877457D01*
X278060150Y-278806028D02*
X278631578Y-278806028D01*
X278274435Y-279806028D02*
X278274435Y-278520314D01*
X278274435Y-278520314D02*
X278345864Y-278377457D01*
X278345864Y-278377457D02*
X278488721Y-278306028D01*
X278488721Y-278306028D02*
X278631578Y-278306028D01*
X279345864Y-279806028D02*
X279203007Y-279734600D01*
X279203007Y-279734600D02*
X279131578Y-279663171D01*
X279131578Y-279663171D02*
X279060150Y-279520314D01*
X279060150Y-279520314D02*
X279060150Y-279091742D01*
X279060150Y-279091742D02*
X279131578Y-278948885D01*
X279131578Y-278948885D02*
X279203007Y-278877457D01*
X279203007Y-278877457D02*
X279345864Y-278806028D01*
X279345864Y-278806028D02*
X279560150Y-278806028D01*
X279560150Y-278806028D02*
X279703007Y-278877457D01*
X279703007Y-278877457D02*
X279774436Y-278948885D01*
X279774436Y-278948885D02*
X279845864Y-279091742D01*
X279845864Y-279091742D02*
X279845864Y-279520314D01*
X279845864Y-279520314D02*
X279774436Y-279663171D01*
X279774436Y-279663171D02*
X279703007Y-279734600D01*
X279703007Y-279734600D02*
X279560150Y-279806028D01*
X279560150Y-279806028D02*
X279345864Y-279806028D01*
X280488721Y-279806028D02*
X280488721Y-278806028D01*
X280488721Y-279091742D02*
X280560150Y-278948885D01*
X280560150Y-278948885D02*
X280631579Y-278877457D01*
X280631579Y-278877457D02*
X280774436Y-278806028D01*
X280774436Y-278806028D02*
X280917293Y-278806028D01*
X282345864Y-278806028D02*
X282917292Y-278806028D01*
X282560149Y-278306028D02*
X282560149Y-279591742D01*
X282560149Y-279591742D02*
X282631578Y-279734600D01*
X282631578Y-279734600D02*
X282774435Y-279806028D01*
X282774435Y-279806028D02*
X282917292Y-279806028D01*
X283631578Y-279806028D02*
X283488721Y-279734600D01*
X283488721Y-279734600D02*
X283417292Y-279663171D01*
X283417292Y-279663171D02*
X283345864Y-279520314D01*
X283345864Y-279520314D02*
X283345864Y-279091742D01*
X283345864Y-279091742D02*
X283417292Y-278948885D01*
X283417292Y-278948885D02*
X283488721Y-278877457D01*
X283488721Y-278877457D02*
X283631578Y-278806028D01*
X283631578Y-278806028D02*
X283845864Y-278806028D01*
X283845864Y-278806028D02*
X283988721Y-278877457D01*
X283988721Y-278877457D02*
X284060150Y-278948885D01*
X284060150Y-278948885D02*
X284131578Y-279091742D01*
X284131578Y-279091742D02*
X284131578Y-279520314D01*
X284131578Y-279520314D02*
X284060150Y-279663171D01*
X284060150Y-279663171D02*
X283988721Y-279734600D01*
X283988721Y-279734600D02*
X283845864Y-279806028D01*
X283845864Y-279806028D02*
X283631578Y-279806028D01*
X284774435Y-278806028D02*
X284774435Y-280306028D01*
X284774435Y-278877457D02*
X284917293Y-278806028D01*
X284917293Y-278806028D02*
X285203007Y-278806028D01*
X285203007Y-278806028D02*
X285345864Y-278877457D01*
X285345864Y-278877457D02*
X285417293Y-278948885D01*
X285417293Y-278948885D02*
X285488721Y-279091742D01*
X285488721Y-279091742D02*
X285488721Y-279520314D01*
X285488721Y-279520314D02*
X285417293Y-279663171D01*
X285417293Y-279663171D02*
X285345864Y-279734600D01*
X285345864Y-279734600D02*
X285203007Y-279806028D01*
X285203007Y-279806028D02*
X284917293Y-279806028D01*
X284917293Y-279806028D02*
X284774435Y-279734600D01*
X286345864Y-279806028D02*
X286203007Y-279734600D01*
X286203007Y-279734600D02*
X286131578Y-279663171D01*
X286131578Y-279663171D02*
X286060150Y-279520314D01*
X286060150Y-279520314D02*
X286060150Y-279091742D01*
X286060150Y-279091742D02*
X286131578Y-278948885D01*
X286131578Y-278948885D02*
X286203007Y-278877457D01*
X286203007Y-278877457D02*
X286345864Y-278806028D01*
X286345864Y-278806028D02*
X286560150Y-278806028D01*
X286560150Y-278806028D02*
X286703007Y-278877457D01*
X286703007Y-278877457D02*
X286774436Y-278948885D01*
X286774436Y-278948885D02*
X286845864Y-279091742D01*
X286845864Y-279091742D02*
X286845864Y-279520314D01*
X286845864Y-279520314D02*
X286774436Y-279663171D01*
X286774436Y-279663171D02*
X286703007Y-279734600D01*
X286703007Y-279734600D02*
X286560150Y-279806028D01*
X286560150Y-279806028D02*
X286345864Y-279806028D01*
X287703007Y-279806028D02*
X287560150Y-279734600D01*
X287560150Y-279734600D02*
X287488721Y-279591742D01*
X287488721Y-279591742D02*
X287488721Y-278306028D01*
X288488721Y-279806028D02*
X288345864Y-279734600D01*
X288345864Y-279734600D02*
X288274435Y-279663171D01*
X288274435Y-279663171D02*
X288203007Y-279520314D01*
X288203007Y-279520314D02*
X288203007Y-279091742D01*
X288203007Y-279091742D02*
X288274435Y-278948885D01*
X288274435Y-278948885D02*
X288345864Y-278877457D01*
X288345864Y-278877457D02*
X288488721Y-278806028D01*
X288488721Y-278806028D02*
X288703007Y-278806028D01*
X288703007Y-278806028D02*
X288845864Y-278877457D01*
X288845864Y-278877457D02*
X288917293Y-278948885D01*
X288917293Y-278948885D02*
X288988721Y-279091742D01*
X288988721Y-279091742D02*
X288988721Y-279520314D01*
X288988721Y-279520314D02*
X288917293Y-279663171D01*
X288917293Y-279663171D02*
X288845864Y-279734600D01*
X288845864Y-279734600D02*
X288703007Y-279806028D01*
X288703007Y-279806028D02*
X288488721Y-279806028D01*
X290274436Y-278806028D02*
X290274436Y-280020314D01*
X290274436Y-280020314D02*
X290203007Y-280163171D01*
X290203007Y-280163171D02*
X290131578Y-280234600D01*
X290131578Y-280234600D02*
X289988721Y-280306028D01*
X289988721Y-280306028D02*
X289774436Y-280306028D01*
X289774436Y-280306028D02*
X289631578Y-280234600D01*
X290274436Y-279734600D02*
X290131578Y-279806028D01*
X290131578Y-279806028D02*
X289845864Y-279806028D01*
X289845864Y-279806028D02*
X289703007Y-279734600D01*
X289703007Y-279734600D02*
X289631578Y-279663171D01*
X289631578Y-279663171D02*
X289560150Y-279520314D01*
X289560150Y-279520314D02*
X289560150Y-279091742D01*
X289560150Y-279091742D02*
X289631578Y-278948885D01*
X289631578Y-278948885D02*
X289703007Y-278877457D01*
X289703007Y-278877457D02*
X289845864Y-278806028D01*
X289845864Y-278806028D02*
X290131578Y-278806028D01*
X290131578Y-278806028D02*
X290274436Y-278877457D01*
X290845864Y-278806028D02*
X291203007Y-279806028D01*
X291560150Y-278806028D02*
X291203007Y-279806028D01*
X291203007Y-279806028D02*
X291060150Y-280163171D01*
X291060150Y-280163171D02*
X290988721Y-280234600D01*
X290988721Y-280234600D02*
X290845864Y-280306028D01*
M02*
