%TF.GenerationSoftware,KiCad,Pcbnew,10.0.5*%
%TF.CreationDate,2026-08-04T09:00:20-07:00*%
%TF.ProjectId,palpod-mic-array-real,70616c70-6f64-42d6-9d69-632d61727261,A0*%
%TF.SameCoordinates,Original*%
%TF.FileFunction,Other,User*%
%FSLAX46Y46*%
G04 Gerber Fmt 4.6, Leading zero omitted, Abs format (unit mm)*
G04 Created by KiCad (PCBNEW 10.0.5) date 2026-08-04 09:00:20*
%MOMM*%
%LPD*%
G01*
G04 APERTURE LIST*
%ADD10C,0.050000*%
G04 APERTURE END LIST*
%TO.C,U2*%
D10*
X11250000Y2750000D02*
X16750000Y2750000D01*
X11250000Y-2750000D02*
X11250000Y2750000D01*
X16750000Y2750000D02*
X16750000Y-2750000D01*
X16750000Y-2750000D02*
X11250000Y-2750000D01*
%TO.C,C1*%
X-14480000Y-49270000D02*
X-11520000Y-49270000D01*
X-11520000Y-50730000D01*
X-14480000Y-50730000D01*
X-14480000Y-49270000D01*
%TO.C,C4*%
X-14480000Y-29270000D02*
X-11520000Y-29270000D01*
X-11520000Y-30730000D01*
X-14480000Y-30730000D01*
X-14480000Y-29270000D01*
%TO.C,C5*%
X-1480000Y-29270000D02*
X1480000Y-29270000D01*
X1480000Y-30730000D01*
X-1480000Y-30730000D01*
X-1480000Y-29270000D01*
%TO.C,C6*%
X11520000Y-29270000D02*
X14480000Y-29270000D01*
X14480000Y-30730000D01*
X11520000Y-30730000D01*
X11520000Y-29270000D01*
%TO.C,C2*%
X5311300Y-49270000D02*
X8271300Y-49270000D01*
X8271300Y-50730000D01*
X5311300Y-50730000D01*
X5311300Y-49270000D01*
%TO.C,C3*%
X11520000Y-49270000D02*
X14480000Y-49270000D01*
X14480000Y-50730000D01*
X11520000Y-50730000D01*
X11520000Y-49270000D01*
%TO.C,U4*%
X-36700000Y-10850000D02*
X-35250000Y-10850000D01*
X-36700000Y-19150000D02*
X-36700000Y-10850000D01*
X-35250000Y-9750000D02*
X-34150000Y-9750000D01*
X-35250000Y-10850000D02*
X-35250000Y-9750000D01*
X-35250000Y-19150000D02*
X-36700000Y-19150000D01*
X-35250000Y-20250000D02*
X-35250000Y-19150000D01*
X-34150000Y-8300000D02*
X-25850000Y-8300000D01*
X-34150000Y-9750000D02*
X-34150000Y-8300000D01*
X-34150000Y-20250000D02*
X-35250000Y-20250000D01*
X-34150000Y-21700000D02*
X-34150000Y-20250000D01*
X-25850000Y-8300000D02*
X-25850000Y-9750000D01*
X-25850000Y-9750000D02*
X-24750000Y-9750000D01*
X-25850000Y-20250000D02*
X-25850000Y-21700000D01*
X-25850000Y-21700000D02*
X-34150000Y-21700000D01*
X-24750000Y-9750000D02*
X-24750000Y-10850000D01*
X-24750000Y-10850000D02*
X-23300000Y-10850000D01*
X-24750000Y-19150000D02*
X-24750000Y-20250000D01*
X-24750000Y-20250000D02*
X-25850000Y-20250000D01*
X-23300000Y-10850000D02*
X-23300000Y-19150000D01*
X-23300000Y-19150000D02*
X-24750000Y-19150000D01*
%TO.C,U3*%
X-40130000Y10130000D02*
X-39750000Y10130000D01*
X-40130000Y5870000D02*
X-40130000Y10130000D01*
X-39750000Y10750000D02*
X-39130000Y10750000D01*
X-39750000Y10130000D02*
X-39750000Y10750000D01*
X-39750000Y5870000D02*
X-40130000Y5870000D01*
X-39750000Y5250000D02*
X-39750000Y5870000D01*
X-39130000Y11130000D02*
X-34870000Y11130000D01*
X-39130000Y10750000D02*
X-39130000Y11130000D01*
X-39130000Y5250000D02*
X-39750000Y5250000D01*
X-39130000Y4870000D02*
X-39130000Y5250000D01*
X-34870000Y11130000D02*
X-34870000Y10750000D01*
X-34870000Y10750000D02*
X-34250000Y10750000D01*
X-34870000Y5250000D02*
X-34870000Y4870000D01*
X-34870000Y4870000D02*
X-39130000Y4870000D01*
X-34250000Y10750000D02*
X-34250000Y10130000D01*
X-34250000Y10130000D02*
X-33870000Y10130000D01*
X-34250000Y5870000D02*
X-34250000Y5250000D01*
X-34250000Y5250000D02*
X-34870000Y5250000D01*
X-33870000Y10130000D02*
X-33870000Y5870000D01*
X-33870000Y5870000D02*
X-34250000Y5870000D01*
%TO.C,C12*%
X20090000Y4460000D02*
X21910000Y4460000D01*
X21910000Y3540000D01*
X20090000Y3540000D01*
X20090000Y4460000D01*
%TO.C,C14*%
X-30910000Y-25540000D02*
X-29090000Y-25540000D01*
X-29090000Y-26460000D01*
X-30910000Y-26460000D01*
X-30910000Y-25540000D01*
%TO.C,C15*%
X-43910000Y1460000D02*
X-42090000Y1460000D01*
X-42090000Y540000D01*
X-43910000Y540000D01*
X-43910000Y1460000D01*
%TO.C,C13*%
X20090000Y429800D02*
X21910000Y429800D01*
X21910000Y-490200D01*
X20090000Y-490200D01*
X20090000Y429800D01*
%TO.C,C11*%
X4090000Y8460000D02*
X5910000Y8460000D01*
X5910000Y7540000D01*
X4090000Y7540000D01*
X4090000Y8460000D01*
%TO.C,C10*%
X-12910000Y4460000D02*
X-11090000Y4460000D01*
X-11090000Y3540000D01*
X-12910000Y3540000D01*
X-12910000Y4460000D01*
%TO.C,U5*%
X-18400000Y-36400000D02*
X-18400000Y-43600000D01*
X-18400000Y-43600000D02*
X-9600000Y-43600000D01*
X-9600000Y-36400000D02*
X-18400000Y-36400000D01*
X-9600000Y-43600000D02*
X-9600000Y-36400000D01*
%TO.C,U6*%
X-4400000Y-36400000D02*
X-4400000Y-43600000D01*
X-4400000Y-43600000D02*
X4400000Y-43600000D01*
X4400000Y-36400000D02*
X-4400000Y-36400000D01*
X4400000Y-43600000D02*
X4400000Y-36400000D01*
%TO.C,U7*%
X9600000Y-36400000D02*
X9600000Y-43600000D01*
X9600000Y-43600000D02*
X18400000Y-43600000D01*
X18400000Y-36400000D02*
X9600000Y-36400000D01*
X18400000Y-43600000D02*
X18400000Y-36400000D01*
%TO.C,U1*%
X-3750000Y3750000D02*
X3750000Y3750000D01*
X-3750000Y-3750000D02*
X-3750000Y3750000D01*
X3750000Y3750000D02*
X3750000Y-3750000D01*
X3750000Y-3750000D02*
X-3750000Y-3750000D01*
%TO.C,M1*%
X47722700Y12917400D02*
X51722700Y12917400D01*
X47722700Y9767400D02*
X47722700Y12917400D01*
X51722700Y12917400D02*
X51722700Y9767400D01*
X51722700Y9767400D02*
X47722700Y9767400D01*
%TO.C,M10*%
X-18970600Y-15395600D02*
X-14970600Y-15395600D01*
X-18970600Y-18545600D02*
X-18970600Y-15395600D01*
X-14970600Y-15395600D02*
X-14970600Y-18545600D01*
X-14970600Y-18545600D02*
X-18970600Y-18545600D01*
%TO.C,M11*%
X-25182200Y7786700D02*
X-21182200Y7786700D01*
X-25182200Y4636700D02*
X-25182200Y7786700D01*
X-21182200Y7786700D02*
X-21182200Y4636700D01*
X-21182200Y4636700D02*
X-25182200Y4636700D01*
%TO.C,M12*%
X-8211700Y24757200D02*
X-4211700Y24757200D01*
X-8211700Y21607200D02*
X-8211700Y24757200D01*
X-4211700Y24757200D02*
X-4211700Y21607200D01*
X-4211700Y21607200D02*
X-8211700Y21607200D01*
%TO.C,M13*%
X14970600Y18545600D02*
X18970600Y18545600D01*
X14970600Y15395600D02*
X14970600Y18545600D01*
X18970600Y18545600D02*
X18970600Y15395600D01*
X18970600Y15395600D02*
X14970600Y15395600D01*
%TO.C,M2*%
X37869400Y-30227900D02*
X41869400Y-30227900D01*
X37869400Y-33377900D02*
X37869400Y-30227900D01*
X41869400Y-30227900D02*
X41869400Y-33377900D01*
X41869400Y-33377900D02*
X37869400Y-33377900D01*
%TO.C,M3*%
X-2006400Y-49425000D02*
X1993600Y-49425000D01*
X-2006400Y-52575000D02*
X-2006400Y-49425000D01*
X1993600Y-49425000D02*
X1993600Y-52575000D01*
X1993600Y-52575000D02*
X-2006400Y-52575000D01*
%TO.C,M4*%
X-41877400Y-30218000D02*
X-37877400Y-30218000D01*
X-41877400Y-33368000D02*
X-41877400Y-30218000D01*
X-37877400Y-30218000D02*
X-37877400Y-33368000D01*
X-37877400Y-33368000D02*
X-41877400Y-33368000D01*
%TO.C,M5*%
X-51719900Y12929800D02*
X-47719900Y12929800D01*
X-51719900Y9779800D02*
X-51719900Y12929800D01*
X-47719900Y12929800D02*
X-47719900Y9779800D01*
X-47719900Y9779800D02*
X-51719900Y9779800D01*
%TO.C,M6*%
X-24122300Y47527200D02*
X-20122300Y47527200D01*
X-24122300Y44377200D02*
X-24122300Y47527200D01*
X-20122300Y47527200D02*
X-20122300Y44377200D01*
X-20122300Y44377200D02*
X-24122300Y44377200D01*
%TO.C,M7*%
X20133800Y47521700D02*
X24133800Y47521700D01*
X20133800Y44371700D02*
X20133800Y47521700D01*
X24133800Y47521700D02*
X24133800Y44371700D01*
X24133800Y44371700D02*
X20133800Y44371700D01*
%TO.C,M8*%
X21182200Y-4636700D02*
X25182200Y-4636700D01*
X21182200Y-7786700D02*
X21182200Y-4636700D01*
X25182200Y-4636700D02*
X25182200Y-7786700D01*
X25182200Y-7786700D02*
X21182200Y-7786700D01*
%TO.C,M9*%
X4211700Y-21607200D02*
X8211700Y-21607200D01*
X4211700Y-24757200D02*
X4211700Y-21607200D01*
X8211700Y-21607200D02*
X8211700Y-24757200D01*
X8211700Y-24757200D02*
X4211700Y-24757200D01*
%TO.C,J1*%
X-6700000Y56610000D02*
X-4250000Y56610000D01*
X-6700000Y53600000D02*
X-6700000Y56610000D01*
X-6700000Y52680000D02*
X-4970000Y52680000D01*
X-6700000Y49670000D02*
X-6700000Y52680000D01*
X-4970000Y53600000D02*
X-6700000Y53600000D01*
X-4970000Y52680000D02*
X-4970000Y53600000D01*
X-4970000Y49670000D02*
X-6700000Y49670000D01*
X-4970000Y47820000D02*
X-4970000Y49670000D01*
X-4250000Y56760000D02*
X4250000Y56760000D01*
X-4250000Y56610000D02*
X-4250000Y56760000D01*
X4250000Y56760000D02*
X4250000Y56610000D01*
X4250000Y56610000D02*
X6700000Y56610000D01*
X4970000Y53600000D02*
X4970000Y52680000D01*
X4970000Y52680000D02*
X6700000Y52680000D01*
X4970000Y49670000D02*
X4970000Y47820000D01*
X4970000Y47820000D02*
X-4970000Y47820000D01*
X6700000Y56610000D02*
X6700000Y53600000D01*
X6700000Y53600000D02*
X4970000Y53600000D01*
X6700000Y52680000D02*
X6700000Y49670000D01*
X6700000Y49670000D02*
X4970000Y49670000D01*
%TD*%
M02*
