%TF.GenerationSoftware,KiCad,Pcbnew,10.0.5*%
%TF.CreationDate,2026-08-04T09:00:20-07:00*%
%TF.ProjectId,palpod-mic-array-real,70616c70-6f64-42d6-9d69-632d61727261,A0*%
%TF.SameCoordinates,Original*%
%TF.FileFunction,Copper,L4,Bot*%
%TF.FilePolarity,Positive*%
%FSLAX46Y46*%
G04 Gerber Fmt 4.6, Leading zero omitted, Abs format (unit mm)*
G04 Created by KiCad (PCBNEW 10.0.5) date 2026-08-04 09:00:20*
%MOMM*%
%LPD*%
G01*
G04 APERTURE LIST*
%TA.AperFunction,ViaPad*%
%ADD10C,0.800000*%
%TD*%
%TA.AperFunction,ViaPad*%
%ADD11C,0.600000*%
%TD*%
%TA.AperFunction,ViaPad*%
%ADD12C,0.400000*%
%TD*%
%TA.AperFunction,ViaPad*%
%ADD13C,0.500000*%
%TD*%
%TA.AperFunction,Conductor*%
%ADD14C,0.400000*%
%TD*%
%TA.AperFunction,Conductor*%
%ADD15C,0.200000*%
%TD*%
%TA.AperFunction,Conductor*%
%ADD16C,0.140000*%
%TD*%
G04 APERTURE END LIST*
D10*
%TO.N,+3V3*%
X-3070400Y1575000D03*
X-18170600Y-1968600D03*
X13311500Y-3455700D03*
X-36750000Y-1968600D03*
D11*
%TO.N,GND*%
X15770600Y19708000D03*
X-37325700Y-32503400D03*
X-3209100Y21110400D03*
X-39411200Y-29557000D03*
%TO.N,SPI_CS_NDP*%
X-33499400Y-15762800D03*
X17358200Y-175400D03*
%TO.N,I2C_SCL*%
X-2906600Y-5909800D03*
X-30750000Y-5909800D03*
%TO.N,NDP_INT*%
X-34224200Y-17989100D03*
X18491400Y79300D03*
D10*
%TO.N,+1V8*%
X13000000Y4858000D03*
X-27275500Y3943200D03*
X-11242400Y2552900D03*
D12*
%TO.N,USB_DN*%
X-1969800Y25619800D03*
X-33762300Y7370700D03*
%TO.N,USB_DP*%
X-33692500Y8322200D03*
X750000Y27590400D03*
D13*
%TO.N,PDM_DATA_5*%
X-22122300Y11686800D03*
X2803900Y4817700D03*
%TO.N,PDM_DATA_6*%
X24333800Y14053100D03*
X-2839000Y-54100D03*
%TO.N,PDM_CLK*%
X-16310300Y7118100D03*
X1906300Y-49785300D03*
X-32025000Y9293100D03*
X-3833400Y23701700D03*
X-9761900Y-21570800D03*
X21088200Y14057500D03*
X-19354800Y-37089000D03*
%TD*%
%TO.N,+3V3*%
D14*
X-6614000Y-1968600D02*
X-4258800Y386600D01*
X-18170600Y-1968600D02*
X-6614000Y-1968600D01*
X-4258800Y386600D02*
X-416600Y-3455700D01*
X-416600Y-3455700D02*
X13311500Y-3455700D01*
X-4258800Y386600D02*
X-3070400Y1575000D01*
X-18170600Y-1968600D02*
X-36750000Y-1968600D01*
%TO.N,GND*%
D15*
X-37325700Y-31642500D02*
X-37325700Y-32503400D01*
X15770600Y19708000D02*
X14368200Y21110400D01*
X-39411200Y-29557000D02*
X-37325700Y-31642500D01*
X14368200Y21110400D02*
X-3209100Y21110400D01*
%TO.N,SPI_CS_NDP*%
X1996700Y-15762800D02*
X17358200Y-401300D01*
X17358200Y-401300D02*
X17358200Y-175400D01*
X-33499400Y-15762800D02*
X1996700Y-15762800D01*
%TO.N,I2C_SCL*%
X-30750000Y-5909800D02*
X-2906600Y-5909800D01*
%TO.N,NDP_INT*%
X423000Y-17989100D02*
X18491400Y79300D01*
X-34224200Y-17989100D02*
X423000Y-17989100D01*
%TO.N,+1V8*%
D14*
X10694900Y2552900D02*
X-11242400Y2552900D01*
X13000000Y4858000D02*
X10694900Y2552900D01*
X-11242400Y2552900D02*
X-12632700Y3943200D01*
X-12632700Y3943200D02*
X-27275500Y3943200D01*
%TO.N,USB_DN*%
D16*
X-32546700Y8586300D02*
X-33762300Y7370700D01*
X-32546700Y9509100D02*
X-32546700Y8586300D01*
X-1969800Y25619800D02*
X-16436000Y25619800D01*
X-16436000Y25619800D02*
X-32546700Y9509100D01*
%TO.N,USB_DP*%
X750000Y27590400D02*
X-14877900Y27590400D01*
X-33692500Y8775800D02*
X-33692500Y8322200D01*
X-14877900Y27590400D02*
X-33692500Y8775800D01*
%TO.N,PDM_DATA_5*%
D15*
X-22122300Y11686800D02*
X-15253200Y4817700D01*
X-15253200Y4817700D02*
X2803900Y4817700D01*
%TO.N,PDM_DATA_6*%
X10226600Y-54100D02*
X-2839000Y-54100D01*
X24333800Y14053100D02*
X10226600Y-54100D01*
%TO.N,PDM_CLK*%
X-29087300Y12230800D02*
X-32025000Y9293100D01*
X1906300Y-49785300D02*
X-6658500Y-49785300D01*
X-3833400Y14057500D02*
X-9370900Y14057500D01*
X-3833400Y23701700D02*
X-3833400Y14057500D01*
X-16310300Y7118100D02*
X-21423000Y12230800D01*
X-9370900Y14057500D02*
X-16310300Y7118100D01*
X-21423000Y12230800D02*
X-29087300Y12230800D01*
X-9761900Y-21570800D02*
X-19354800Y-31163700D01*
X-19354800Y-31163700D02*
X-19354800Y-37089000D01*
X21088200Y14057500D02*
X-3833400Y14057500D01*
X-6658500Y-49785300D02*
X-19354800Y-37089000D01*
%TD*%
M02*
