%TF.GenerationSoftware,KiCad,Pcbnew,10.0.5*%
%TF.CreationDate,2026-08-04T09:00:20-07:00*%
%TF.ProjectId,palpod-mic-array-real,70616c70-6f64-42d6-9d69-632d61727261,A0*%
%TF.SameCoordinates,Original*%
%TF.FileFunction,OtherDrawing,Comment*%
%FSLAX46Y46*%
G04 Gerber Fmt 4.6, Leading zero omitted, Abs format (unit mm)*
G04 Created by KiCad (PCBNEW 10.0.5) date 2026-08-04 09:00:20*
%MOMM*%
%LPD*%
G01*
G04 APERTURE LIST*
%ADD10C,0.100000*%
G04 APERTURE END LIST*
D10*
X-1714285Y48698890D02*
X-1714285Y49198890D01*
X-1714285Y49198890D02*
X-1523809Y49198890D01*
X-1523809Y49198890D02*
X-1476190Y49175080D01*
X-1476190Y49175080D02*
X-1452380Y49151271D01*
X-1452380Y49151271D02*
X-1428571Y49103652D01*
X-1428571Y49103652D02*
X-1428571Y49032223D01*
X-1428571Y49032223D02*
X-1452380Y48984604D01*
X-1452380Y48984604D02*
X-1476190Y48960795D01*
X-1476190Y48960795D02*
X-1523809Y48936985D01*
X-1523809Y48936985D02*
X-1714285Y48936985D01*
X-928571Y48746509D02*
X-952380Y48722700D01*
X-952380Y48722700D02*
X-1023809Y48698890D01*
X-1023809Y48698890D02*
X-1071428Y48698890D01*
X-1071428Y48698890D02*
X-1142856Y48722700D01*
X-1142856Y48722700D02*
X-1190475Y48770319D01*
X-1190475Y48770319D02*
X-1214285Y48817938D01*
X-1214285Y48817938D02*
X-1238094Y48913176D01*
X-1238094Y48913176D02*
X-1238094Y48984604D01*
X-1238094Y48984604D02*
X-1214285Y49079842D01*
X-1214285Y49079842D02*
X-1190475Y49127461D01*
X-1190475Y49127461D02*
X-1142856Y49175080D01*
X-1142856Y49175080D02*
X-1071428Y49198890D01*
X-1071428Y49198890D02*
X-1023809Y49198890D01*
X-1023809Y49198890D02*
X-952380Y49175080D01*
X-952380Y49175080D02*
X-928571Y49151271D01*
X-547618Y48960795D02*
X-476190Y48936985D01*
X-476190Y48936985D02*
X-452380Y48913176D01*
X-452380Y48913176D02*
X-428571Y48865557D01*
X-428571Y48865557D02*
X-428571Y48794128D01*
X-428571Y48794128D02*
X-452380Y48746509D01*
X-452380Y48746509D02*
X-476190Y48722700D01*
X-476190Y48722700D02*
X-523809Y48698890D01*
X-523809Y48698890D02*
X-714285Y48698890D01*
X-714285Y48698890D02*
X-714285Y49198890D01*
X-714285Y49198890D02*
X-547618Y49198890D01*
X-547618Y49198890D02*
X-499999Y49175080D01*
X-499999Y49175080D02*
X-476190Y49151271D01*
X-476190Y49151271D02*
X-452380Y49103652D01*
X-452380Y49103652D02*
X-452380Y49056033D01*
X-452380Y49056033D02*
X-476190Y49008414D01*
X-476190Y49008414D02*
X-499999Y48984604D01*
X-499999Y48984604D02*
X-547618Y48960795D01*
X-547618Y48960795D02*
X-714285Y48960795D01*
X166666Y48960795D02*
X333333Y48960795D01*
X404761Y48698890D02*
X166666Y48698890D01*
X166666Y48698890D02*
X166666Y49198890D01*
X166666Y49198890D02*
X404761Y49198890D01*
X833333Y48698890D02*
X833333Y49198890D01*
X833333Y48722700D02*
X785714Y48698890D01*
X785714Y48698890D02*
X690476Y48698890D01*
X690476Y48698890D02*
X642857Y48722700D01*
X642857Y48722700D02*
X619047Y48746509D01*
X619047Y48746509D02*
X595238Y48794128D01*
X595238Y48794128D02*
X595238Y48936985D01*
X595238Y48936985D02*
X619047Y48984604D01*
X619047Y48984604D02*
X642857Y49008414D01*
X642857Y49008414D02*
X690476Y49032223D01*
X690476Y49032223D02*
X785714Y49032223D01*
X785714Y49032223D02*
X833333Y49008414D01*
X1285714Y49032223D02*
X1285714Y48627461D01*
X1285714Y48627461D02*
X1261904Y48579842D01*
X1261904Y48579842D02*
X1238095Y48556033D01*
X1238095Y48556033D02*
X1190476Y48532223D01*
X1190476Y48532223D02*
X1119047Y48532223D01*
X1119047Y48532223D02*
X1071428Y48556033D01*
X1285714Y48722700D02*
X1238095Y48698890D01*
X1238095Y48698890D02*
X1142857Y48698890D01*
X1142857Y48698890D02*
X1095238Y48722700D01*
X1095238Y48722700D02*
X1071428Y48746509D01*
X1071428Y48746509D02*
X1047619Y48794128D01*
X1047619Y48794128D02*
X1047619Y48936985D01*
X1047619Y48936985D02*
X1071428Y48984604D01*
X1071428Y48984604D02*
X1095238Y49008414D01*
X1095238Y49008414D02*
X1142857Y49032223D01*
X1142857Y49032223D02*
X1238095Y49032223D01*
X1238095Y49032223D02*
X1285714Y49008414D01*
X1714285Y48722700D02*
X1666666Y48698890D01*
X1666666Y48698890D02*
X1571428Y48698890D01*
X1571428Y48698890D02*
X1523809Y48722700D01*
X1523809Y48722700D02*
X1500000Y48770319D01*
X1500000Y48770319D02*
X1500000Y48960795D01*
X1500000Y48960795D02*
X1523809Y49008414D01*
X1523809Y49008414D02*
X1571428Y49032223D01*
X1571428Y49032223D02*
X1666666Y49032223D01*
X1666666Y49032223D02*
X1714285Y49008414D01*
X1714285Y49008414D02*
X1738095Y48960795D01*
X1738095Y48960795D02*
X1738095Y48913176D01*
X1738095Y48913176D02*
X1500000Y48865557D01*
%TO.C,J1*%
X-5000000Y48325000D02*
X5000000Y48325000D01*
%TD*%
M02*
