%TF.GenerationSoftware,KiCad,Pcbnew,10.0.5*%
%TF.CreationDate,2026-08-04T09:00:20-07:00*%
%TF.ProjectId,palpod-mic-array-real,70616c70-6f64-42d6-9d69-632d61727261,A0*%
%TF.SameCoordinates,Original*%
%TF.FileFunction,Legend,Top*%
%TF.FilePolarity,Positive*%
%FSLAX46Y46*%
G04 Gerber Fmt 4.6, Leading zero omitted, Abs format (unit mm)*
G04 Created by KiCad (PCBNEW 10.0.5) date 2026-08-04 09:00:20*
%MOMM*%
%LPD*%
G01*
G04 APERTURE LIST*
%ADD10C,0.200000*%
%ADD11C,0.300000*%
%ADD12C,0.150000*%
%ADD13C,0.120000*%
%ADD14C,0.275000*%
G04 APERTURE END LIST*
D10*
X360149Y58214400D02*
X531578Y58157257D01*
X531578Y58157257D02*
X817292Y58157257D01*
X817292Y58157257D02*
X931578Y58214400D01*
X931578Y58214400D02*
X988720Y58271542D01*
X988720Y58271542D02*
X1045863Y58385828D01*
X1045863Y58385828D02*
X1045863Y58500114D01*
X1045863Y58500114D02*
X988720Y58614400D01*
X988720Y58614400D02*
X931578Y58671542D01*
X931578Y58671542D02*
X817292Y58728685D01*
X817292Y58728685D02*
X588720Y58785828D01*
X588720Y58785828D02*
X474435Y58842971D01*
X474435Y58842971D02*
X417292Y58900114D01*
X417292Y58900114D02*
X360149Y59014400D01*
X360149Y59014400D02*
X360149Y59128685D01*
X360149Y59128685D02*
X417292Y59242971D01*
X417292Y59242971D02*
X474435Y59300114D01*
X474435Y59300114D02*
X588720Y59357257D01*
X588720Y59357257D02*
X874435Y59357257D01*
X874435Y59357257D02*
X1045863Y59300114D01*
X2017292Y58214400D02*
X1903006Y58157257D01*
X1903006Y58157257D02*
X1674435Y58157257D01*
X1674435Y58157257D02*
X1560149Y58214400D01*
X1560149Y58214400D02*
X1503006Y58328685D01*
X1503006Y58328685D02*
X1503006Y58785828D01*
X1503006Y58785828D02*
X1560149Y58900114D01*
X1560149Y58900114D02*
X1674435Y58957257D01*
X1674435Y58957257D02*
X1903006Y58957257D01*
X1903006Y58957257D02*
X2017292Y58900114D01*
X2017292Y58900114D02*
X2074435Y58785828D01*
X2074435Y58785828D02*
X2074435Y58671542D01*
X2074435Y58671542D02*
X1503006Y58557257D01*
X3045863Y58214400D02*
X2931577Y58157257D01*
X2931577Y58157257D02*
X2703006Y58157257D01*
X2703006Y58157257D02*
X2588720Y58214400D01*
X2588720Y58214400D02*
X2531577Y58328685D01*
X2531577Y58328685D02*
X2531577Y58785828D01*
X2531577Y58785828D02*
X2588720Y58900114D01*
X2588720Y58900114D02*
X2703006Y58957257D01*
X2703006Y58957257D02*
X2931577Y58957257D01*
X2931577Y58957257D02*
X3045863Y58900114D01*
X3045863Y58900114D02*
X3103006Y58785828D01*
X3103006Y58785828D02*
X3103006Y58671542D01*
X3103006Y58671542D02*
X2531577Y58557257D01*
X4531577Y58157257D02*
X4531577Y58957257D01*
X4531577Y58842971D02*
X4588720Y58900114D01*
X4588720Y58900114D02*
X4703005Y58957257D01*
X4703005Y58957257D02*
X4874434Y58957257D01*
X4874434Y58957257D02*
X4988720Y58900114D01*
X4988720Y58900114D02*
X5045863Y58785828D01*
X5045863Y58785828D02*
X5045863Y58157257D01*
X5045863Y58785828D02*
X5103005Y58900114D01*
X5103005Y58900114D02*
X5217291Y58957257D01*
X5217291Y58957257D02*
X5388720Y58957257D01*
X5388720Y58957257D02*
X5503005Y58900114D01*
X5503005Y58900114D02*
X5560148Y58785828D01*
X5560148Y58785828D02*
X5560148Y58157257D01*
X6131577Y58157257D02*
X6131577Y58957257D01*
X6131577Y59357257D02*
X6074434Y59300114D01*
X6074434Y59300114D02*
X6131577Y59242971D01*
X6131577Y59242971D02*
X6188720Y59300114D01*
X6188720Y59300114D02*
X6131577Y59357257D01*
X6131577Y59357257D02*
X6131577Y59242971D01*
X7217292Y58214400D02*
X7103006Y58157257D01*
X7103006Y58157257D02*
X6874434Y58157257D01*
X6874434Y58157257D02*
X6760149Y58214400D01*
X6760149Y58214400D02*
X6703006Y58271542D01*
X6703006Y58271542D02*
X6645863Y58385828D01*
X6645863Y58385828D02*
X6645863Y58728685D01*
X6645863Y58728685D02*
X6703006Y58842971D01*
X6703006Y58842971D02*
X6760149Y58900114D01*
X6760149Y58900114D02*
X6874434Y58957257D01*
X6874434Y58957257D02*
X7103006Y58957257D01*
X7103006Y58957257D02*
X7217292Y58900114D01*
X7731577Y58614400D02*
X8645863Y58614400D01*
X9731577Y58157257D02*
X9731577Y58785828D01*
X9731577Y58785828D02*
X9674434Y58900114D01*
X9674434Y58900114D02*
X9560148Y58957257D01*
X9560148Y58957257D02*
X9331577Y58957257D01*
X9331577Y58957257D02*
X9217291Y58900114D01*
X9731577Y58214400D02*
X9617291Y58157257D01*
X9617291Y58157257D02*
X9331577Y58157257D01*
X9331577Y58157257D02*
X9217291Y58214400D01*
X9217291Y58214400D02*
X9160148Y58328685D01*
X9160148Y58328685D02*
X9160148Y58442971D01*
X9160148Y58442971D02*
X9217291Y58557257D01*
X9217291Y58557257D02*
X9331577Y58614400D01*
X9331577Y58614400D02*
X9617291Y58614400D01*
X9617291Y58614400D02*
X9731577Y58671542D01*
X10303005Y58157257D02*
X10303005Y58957257D01*
X10303005Y58728685D02*
X10360148Y58842971D01*
X10360148Y58842971D02*
X10417291Y58900114D01*
X10417291Y58900114D02*
X10531576Y58957257D01*
X10531576Y58957257D02*
X10645862Y58957257D01*
X11045862Y58157257D02*
X11045862Y58957257D01*
X11045862Y58728685D02*
X11103005Y58842971D01*
X11103005Y58842971D02*
X11160148Y58900114D01*
X11160148Y58900114D02*
X11274433Y58957257D01*
X11274433Y58957257D02*
X11388719Y58957257D01*
X12303005Y58157257D02*
X12303005Y58785828D01*
X12303005Y58785828D02*
X12245862Y58900114D01*
X12245862Y58900114D02*
X12131576Y58957257D01*
X12131576Y58957257D02*
X11903005Y58957257D01*
X11903005Y58957257D02*
X11788719Y58900114D01*
X12303005Y58214400D02*
X12188719Y58157257D01*
X12188719Y58157257D02*
X11903005Y58157257D01*
X11903005Y58157257D02*
X11788719Y58214400D01*
X11788719Y58214400D02*
X11731576Y58328685D01*
X11731576Y58328685D02*
X11731576Y58442971D01*
X11731576Y58442971D02*
X11788719Y58557257D01*
X11788719Y58557257D02*
X11903005Y58614400D01*
X11903005Y58614400D02*
X12188719Y58614400D01*
X12188719Y58614400D02*
X12303005Y58671542D01*
X12760147Y58957257D02*
X13045861Y58157257D01*
X13331576Y58957257D02*
X13045861Y58157257D01*
X13045861Y58157257D02*
X12931576Y57871542D01*
X12931576Y57871542D02*
X12874433Y57814400D01*
X12874433Y57814400D02*
X12760147Y57757257D01*
X13788719Y58614400D02*
X14703005Y58614400D01*
X15274433Y58157257D02*
X15274433Y58957257D01*
X15274433Y58728685D02*
X15331576Y58842971D01*
X15331576Y58842971D02*
X15388719Y58900114D01*
X15388719Y58900114D02*
X15503004Y58957257D01*
X15503004Y58957257D02*
X15617290Y58957257D01*
X16474433Y58214400D02*
X16360147Y58157257D01*
X16360147Y58157257D02*
X16131576Y58157257D01*
X16131576Y58157257D02*
X16017290Y58214400D01*
X16017290Y58214400D02*
X15960147Y58328685D01*
X15960147Y58328685D02*
X15960147Y58785828D01*
X15960147Y58785828D02*
X16017290Y58900114D01*
X16017290Y58900114D02*
X16131576Y58957257D01*
X16131576Y58957257D02*
X16360147Y58957257D01*
X16360147Y58957257D02*
X16474433Y58900114D01*
X16474433Y58900114D02*
X16531576Y58785828D01*
X16531576Y58785828D02*
X16531576Y58671542D01*
X16531576Y58671542D02*
X15960147Y58557257D01*
X16874432Y58957257D02*
X17331575Y58957257D01*
X17045861Y58157257D02*
X17045861Y59185828D01*
X17045861Y59185828D02*
X17103004Y59300114D01*
X17103004Y59300114D02*
X17217289Y59357257D01*
X17217289Y59357257D02*
X17331575Y59357257D01*
X18188718Y58214400D02*
X18074432Y58157257D01*
X18074432Y58157257D02*
X17845861Y58157257D01*
X17845861Y58157257D02*
X17731575Y58214400D01*
X17731575Y58214400D02*
X17674432Y58328685D01*
X17674432Y58328685D02*
X17674432Y58785828D01*
X17674432Y58785828D02*
X17731575Y58900114D01*
X17731575Y58900114D02*
X17845861Y58957257D01*
X17845861Y58957257D02*
X18074432Y58957257D01*
X18074432Y58957257D02*
X18188718Y58900114D01*
X18188718Y58900114D02*
X18245861Y58785828D01*
X18245861Y58785828D02*
X18245861Y58671542D01*
X18245861Y58671542D02*
X17674432Y58557257D01*
X18760146Y58157257D02*
X18760146Y58957257D01*
X18760146Y58728685D02*
X18817289Y58842971D01*
X18817289Y58842971D02*
X18874432Y58900114D01*
X18874432Y58900114D02*
X18988717Y58957257D01*
X18988717Y58957257D02*
X19103003Y58957257D01*
X19960146Y58214400D02*
X19845860Y58157257D01*
X19845860Y58157257D02*
X19617289Y58157257D01*
X19617289Y58157257D02*
X19503003Y58214400D01*
X19503003Y58214400D02*
X19445860Y58328685D01*
X19445860Y58328685D02*
X19445860Y58785828D01*
X19445860Y58785828D02*
X19503003Y58900114D01*
X19503003Y58900114D02*
X19617289Y58957257D01*
X19617289Y58957257D02*
X19845860Y58957257D01*
X19845860Y58957257D02*
X19960146Y58900114D01*
X19960146Y58900114D02*
X20017289Y58785828D01*
X20017289Y58785828D02*
X20017289Y58671542D01*
X20017289Y58671542D02*
X19445860Y58557257D01*
X20531574Y58957257D02*
X20531574Y58157257D01*
X20531574Y58842971D02*
X20588717Y58900114D01*
X20588717Y58900114D02*
X20703002Y58957257D01*
X20703002Y58957257D02*
X20874431Y58957257D01*
X20874431Y58957257D02*
X20988717Y58900114D01*
X20988717Y58900114D02*
X21045860Y58785828D01*
X21045860Y58785828D02*
X21045860Y58157257D01*
X22131574Y58214400D02*
X22017288Y58157257D01*
X22017288Y58157257D02*
X21788716Y58157257D01*
X21788716Y58157257D02*
X21674431Y58214400D01*
X21674431Y58214400D02*
X21617288Y58271542D01*
X21617288Y58271542D02*
X21560145Y58385828D01*
X21560145Y58385828D02*
X21560145Y58728685D01*
X21560145Y58728685D02*
X21617288Y58842971D01*
X21617288Y58842971D02*
X21674431Y58900114D01*
X21674431Y58900114D02*
X21788716Y58957257D01*
X21788716Y58957257D02*
X22017288Y58957257D01*
X22017288Y58957257D02*
X22131574Y58900114D01*
X23103002Y58214400D02*
X22988716Y58157257D01*
X22988716Y58157257D02*
X22760145Y58157257D01*
X22760145Y58157257D02*
X22645859Y58214400D01*
X22645859Y58214400D02*
X22588716Y58328685D01*
X22588716Y58328685D02*
X22588716Y58785828D01*
X22588716Y58785828D02*
X22645859Y58900114D01*
X22645859Y58900114D02*
X22760145Y58957257D01*
X22760145Y58957257D02*
X22988716Y58957257D01*
X22988716Y58957257D02*
X23103002Y58900114D01*
X23103002Y58900114D02*
X23160145Y58785828D01*
X23160145Y58785828D02*
X23160145Y58671542D01*
X23160145Y58671542D02*
X22588716Y58557257D01*
X23674430Y58614400D02*
X24588716Y58614400D01*
X25674430Y58157257D02*
X25674430Y59357257D01*
X25674430Y58214400D02*
X25560144Y58157257D01*
X25560144Y58157257D02*
X25331572Y58157257D01*
X25331572Y58157257D02*
X25217287Y58214400D01*
X25217287Y58214400D02*
X25160144Y58271542D01*
X25160144Y58271542D02*
X25103001Y58385828D01*
X25103001Y58385828D02*
X25103001Y58728685D01*
X25103001Y58728685D02*
X25160144Y58842971D01*
X25160144Y58842971D02*
X25217287Y58900114D01*
X25217287Y58900114D02*
X25331572Y58957257D01*
X25331572Y58957257D02*
X25560144Y58957257D01*
X25560144Y58957257D02*
X25674430Y58900114D01*
X26703001Y58214400D02*
X26588715Y58157257D01*
X26588715Y58157257D02*
X26360144Y58157257D01*
X26360144Y58157257D02*
X26245858Y58214400D01*
X26245858Y58214400D02*
X26188715Y58328685D01*
X26188715Y58328685D02*
X26188715Y58785828D01*
X26188715Y58785828D02*
X26245858Y58900114D01*
X26245858Y58900114D02*
X26360144Y58957257D01*
X26360144Y58957257D02*
X26588715Y58957257D01*
X26588715Y58957257D02*
X26703001Y58900114D01*
X26703001Y58900114D02*
X26760144Y58785828D01*
X26760144Y58785828D02*
X26760144Y58671542D01*
X26760144Y58671542D02*
X26188715Y58557257D01*
X27217286Y58214400D02*
X27331572Y58157257D01*
X27331572Y58157257D02*
X27560143Y58157257D01*
X27560143Y58157257D02*
X27674429Y58214400D01*
X27674429Y58214400D02*
X27731572Y58328685D01*
X27731572Y58328685D02*
X27731572Y58385828D01*
X27731572Y58385828D02*
X27674429Y58500114D01*
X27674429Y58500114D02*
X27560143Y58557257D01*
X27560143Y58557257D02*
X27388715Y58557257D01*
X27388715Y58557257D02*
X27274429Y58614400D01*
X27274429Y58614400D02*
X27217286Y58728685D01*
X27217286Y58728685D02*
X27217286Y58785828D01*
X27217286Y58785828D02*
X27274429Y58900114D01*
X27274429Y58900114D02*
X27388715Y58957257D01*
X27388715Y58957257D02*
X27560143Y58957257D01*
X27560143Y58957257D02*
X27674429Y58900114D01*
X28245858Y58157257D02*
X28245858Y58957257D01*
X28245858Y59357257D02*
X28188715Y59300114D01*
X28188715Y59300114D02*
X28245858Y59242971D01*
X28245858Y59242971D02*
X28303001Y59300114D01*
X28303001Y59300114D02*
X28245858Y59357257D01*
X28245858Y59357257D02*
X28245858Y59242971D01*
X29331573Y58957257D02*
X29331573Y57985828D01*
X29331573Y57985828D02*
X29274430Y57871542D01*
X29274430Y57871542D02*
X29217287Y57814400D01*
X29217287Y57814400D02*
X29103001Y57757257D01*
X29103001Y57757257D02*
X28931573Y57757257D01*
X28931573Y57757257D02*
X28817287Y57814400D01*
X29331573Y58214400D02*
X29217287Y58157257D01*
X29217287Y58157257D02*
X28988715Y58157257D01*
X28988715Y58157257D02*
X28874430Y58214400D01*
X28874430Y58214400D02*
X28817287Y58271542D01*
X28817287Y58271542D02*
X28760144Y58385828D01*
X28760144Y58385828D02*
X28760144Y58728685D01*
X28760144Y58728685D02*
X28817287Y58842971D01*
X28817287Y58842971D02*
X28874430Y58900114D01*
X28874430Y58900114D02*
X28988715Y58957257D01*
X28988715Y58957257D02*
X29217287Y58957257D01*
X29217287Y58957257D02*
X29331573Y58900114D01*
X29903001Y58957257D02*
X29903001Y58157257D01*
X29903001Y58842971D02*
X29960144Y58900114D01*
X29960144Y58900114D02*
X30074429Y58957257D01*
X30074429Y58957257D02*
X30245858Y58957257D01*
X30245858Y58957257D02*
X30360144Y58900114D01*
X30360144Y58900114D02*
X30417287Y58785828D01*
X30417287Y58785828D02*
X30417287Y58157257D01*
X30988715Y58271542D02*
X31045858Y58214400D01*
X31045858Y58214400D02*
X30988715Y58157257D01*
X30988715Y58157257D02*
X30931572Y58214400D01*
X30931572Y58214400D02*
X30988715Y58271542D01*
X30988715Y58271542D02*
X30988715Y58157257D01*
X31560144Y58157257D02*
X31560144Y58957257D01*
X31560144Y58842971D02*
X31617287Y58900114D01*
X31617287Y58900114D02*
X31731572Y58957257D01*
X31731572Y58957257D02*
X31903001Y58957257D01*
X31903001Y58957257D02*
X32017287Y58900114D01*
X32017287Y58900114D02*
X32074430Y58785828D01*
X32074430Y58785828D02*
X32074430Y58157257D01*
X32074430Y58785828D02*
X32131572Y58900114D01*
X32131572Y58900114D02*
X32245858Y58957257D01*
X32245858Y58957257D02*
X32417287Y58957257D01*
X32417287Y58957257D02*
X32531572Y58900114D01*
X32531572Y58900114D02*
X32588715Y58785828D01*
X32588715Y58785828D02*
X32588715Y58157257D01*
X33674430Y58157257D02*
X33674430Y59357257D01*
X33674430Y58214400D02*
X33560144Y58157257D01*
X33560144Y58157257D02*
X33331572Y58157257D01*
X33331572Y58157257D02*
X33217287Y58214400D01*
X33217287Y58214400D02*
X33160144Y58271542D01*
X33160144Y58271542D02*
X33103001Y58385828D01*
X33103001Y58385828D02*
X33103001Y58728685D01*
X33103001Y58728685D02*
X33160144Y58842971D01*
X33160144Y58842971D02*
X33217287Y58900114D01*
X33217287Y58900114D02*
X33331572Y58957257D01*
X33331572Y58957257D02*
X33560144Y58957257D01*
X33560144Y58957257D02*
X33674430Y58900114D01*
X34988715Y58957257D02*
X35445858Y58957257D01*
X35160144Y58157257D02*
X35160144Y59185828D01*
X35160144Y59185828D02*
X35217287Y59300114D01*
X35217287Y59300114D02*
X35331572Y59357257D01*
X35331572Y59357257D02*
X35445858Y59357257D01*
X36017286Y58157257D02*
X35903001Y58214400D01*
X35903001Y58214400D02*
X35845858Y58271542D01*
X35845858Y58271542D02*
X35788715Y58385828D01*
X35788715Y58385828D02*
X35788715Y58728685D01*
X35788715Y58728685D02*
X35845858Y58842971D01*
X35845858Y58842971D02*
X35903001Y58900114D01*
X35903001Y58900114D02*
X36017286Y58957257D01*
X36017286Y58957257D02*
X36188715Y58957257D01*
X36188715Y58957257D02*
X36303001Y58900114D01*
X36303001Y58900114D02*
X36360144Y58842971D01*
X36360144Y58842971D02*
X36417286Y58728685D01*
X36417286Y58728685D02*
X36417286Y58385828D01*
X36417286Y58385828D02*
X36360144Y58271542D01*
X36360144Y58271542D02*
X36303001Y58214400D01*
X36303001Y58214400D02*
X36188715Y58157257D01*
X36188715Y58157257D02*
X36017286Y58157257D01*
X36931572Y58157257D02*
X36931572Y58957257D01*
X36931572Y58728685D02*
X36988715Y58842971D01*
X36988715Y58842971D02*
X37045858Y58900114D01*
X37045858Y58900114D02*
X37160143Y58957257D01*
X37160143Y58957257D02*
X37274429Y58957257D01*
X38988715Y58785828D02*
X39160143Y58728685D01*
X39160143Y58728685D02*
X39217286Y58671542D01*
X39217286Y58671542D02*
X39274429Y58557257D01*
X39274429Y58557257D02*
X39274429Y58385828D01*
X39274429Y58385828D02*
X39217286Y58271542D01*
X39217286Y58271542D02*
X39160143Y58214400D01*
X39160143Y58214400D02*
X39045858Y58157257D01*
X39045858Y58157257D02*
X38588715Y58157257D01*
X38588715Y58157257D02*
X38588715Y59357257D01*
X38588715Y59357257D02*
X38988715Y59357257D01*
X38988715Y59357257D02*
X39103001Y59300114D01*
X39103001Y59300114D02*
X39160143Y59242971D01*
X39160143Y59242971D02*
X39217286Y59128685D01*
X39217286Y59128685D02*
X39217286Y59014400D01*
X39217286Y59014400D02*
X39160143Y58900114D01*
X39160143Y58900114D02*
X39103001Y58842971D01*
X39103001Y58842971D02*
X38988715Y58785828D01*
X38988715Y58785828D02*
X38588715Y58785828D01*
X40017286Y59357257D02*
X40245858Y59357257D01*
X40245858Y59357257D02*
X40360143Y59300114D01*
X40360143Y59300114D02*
X40474429Y59185828D01*
X40474429Y59185828D02*
X40531572Y58957257D01*
X40531572Y58957257D02*
X40531572Y58557257D01*
X40531572Y58557257D02*
X40474429Y58328685D01*
X40474429Y58328685D02*
X40360143Y58214400D01*
X40360143Y58214400D02*
X40245858Y58157257D01*
X40245858Y58157257D02*
X40017286Y58157257D01*
X40017286Y58157257D02*
X39903001Y58214400D01*
X39903001Y58214400D02*
X39788715Y58328685D01*
X39788715Y58328685D02*
X39731572Y58557257D01*
X39731572Y58557257D02*
X39731572Y58957257D01*
X39731572Y58957257D02*
X39788715Y59185828D01*
X39788715Y59185828D02*
X39903001Y59300114D01*
X39903001Y59300114D02*
X40017286Y59357257D01*
X41045858Y58157257D02*
X41045858Y59357257D01*
X41045858Y59357257D02*
X41445858Y58500114D01*
X41445858Y58500114D02*
X41845858Y59357257D01*
X41845858Y59357257D02*
X41845858Y58157257D01*
X43845859Y58157257D02*
X43845859Y58785828D01*
X43845859Y58785828D02*
X43788716Y58900114D01*
X43788716Y58900114D02*
X43674430Y58957257D01*
X43674430Y58957257D02*
X43445859Y58957257D01*
X43445859Y58957257D02*
X43331573Y58900114D01*
X43845859Y58214400D02*
X43731573Y58157257D01*
X43731573Y58157257D02*
X43445859Y58157257D01*
X43445859Y58157257D02*
X43331573Y58214400D01*
X43331573Y58214400D02*
X43274430Y58328685D01*
X43274430Y58328685D02*
X43274430Y58442971D01*
X43274430Y58442971D02*
X43331573Y58557257D01*
X43331573Y58557257D02*
X43445859Y58614400D01*
X43445859Y58614400D02*
X43731573Y58614400D01*
X43731573Y58614400D02*
X43845859Y58671542D01*
X44417287Y58957257D02*
X44417287Y58157257D01*
X44417287Y58842971D02*
X44474430Y58900114D01*
X44474430Y58900114D02*
X44588715Y58957257D01*
X44588715Y58957257D02*
X44760144Y58957257D01*
X44760144Y58957257D02*
X44874430Y58900114D01*
X44874430Y58900114D02*
X44931573Y58785828D01*
X44931573Y58785828D02*
X44931573Y58157257D01*
X46017287Y58157257D02*
X46017287Y59357257D01*
X46017287Y58214400D02*
X45903001Y58157257D01*
X45903001Y58157257D02*
X45674429Y58157257D01*
X45674429Y58157257D02*
X45560144Y58214400D01*
X45560144Y58214400D02*
X45503001Y58271542D01*
X45503001Y58271542D02*
X45445858Y58385828D01*
X45445858Y58385828D02*
X45445858Y58728685D01*
X45445858Y58728685D02*
X45503001Y58842971D01*
X45503001Y58842971D02*
X45560144Y58900114D01*
X45560144Y58900114D02*
X45674429Y58957257D01*
X45674429Y58957257D02*
X45903001Y58957257D01*
X45903001Y58957257D02*
X46017287Y58900114D01*
X47503001Y58957257D02*
X47503001Y57757257D01*
X47503001Y58900114D02*
X47617287Y58957257D01*
X47617287Y58957257D02*
X47845858Y58957257D01*
X47845858Y58957257D02*
X47960144Y58900114D01*
X47960144Y58900114D02*
X48017287Y58842971D01*
X48017287Y58842971D02*
X48074429Y58728685D01*
X48074429Y58728685D02*
X48074429Y58385828D01*
X48074429Y58385828D02*
X48017287Y58271542D01*
X48017287Y58271542D02*
X47960144Y58214400D01*
X47960144Y58214400D02*
X47845858Y58157257D01*
X47845858Y58157257D02*
X47617287Y58157257D01*
X47617287Y58157257D02*
X47503001Y58214400D01*
X48760143Y58157257D02*
X48645858Y58214400D01*
X48645858Y58214400D02*
X48588715Y58328685D01*
X48588715Y58328685D02*
X48588715Y59357257D01*
X49731572Y58157257D02*
X49731572Y58785828D01*
X49731572Y58785828D02*
X49674429Y58900114D01*
X49674429Y58900114D02*
X49560143Y58957257D01*
X49560143Y58957257D02*
X49331572Y58957257D01*
X49331572Y58957257D02*
X49217286Y58900114D01*
X49731572Y58214400D02*
X49617286Y58157257D01*
X49617286Y58157257D02*
X49331572Y58157257D01*
X49331572Y58157257D02*
X49217286Y58214400D01*
X49217286Y58214400D02*
X49160143Y58328685D01*
X49160143Y58328685D02*
X49160143Y58442971D01*
X49160143Y58442971D02*
X49217286Y58557257D01*
X49217286Y58557257D02*
X49331572Y58614400D01*
X49331572Y58614400D02*
X49617286Y58614400D01*
X49617286Y58614400D02*
X49731572Y58671542D01*
X50817286Y58214400D02*
X50703000Y58157257D01*
X50703000Y58157257D02*
X50474428Y58157257D01*
X50474428Y58157257D02*
X50360143Y58214400D01*
X50360143Y58214400D02*
X50303000Y58271542D01*
X50303000Y58271542D02*
X50245857Y58385828D01*
X50245857Y58385828D02*
X50245857Y58728685D01*
X50245857Y58728685D02*
X50303000Y58842971D01*
X50303000Y58842971D02*
X50360143Y58900114D01*
X50360143Y58900114D02*
X50474428Y58957257D01*
X50474428Y58957257D02*
X50703000Y58957257D01*
X50703000Y58957257D02*
X50817286Y58900114D01*
X51788714Y58214400D02*
X51674428Y58157257D01*
X51674428Y58157257D02*
X51445857Y58157257D01*
X51445857Y58157257D02*
X51331571Y58214400D01*
X51331571Y58214400D02*
X51274428Y58328685D01*
X51274428Y58328685D02*
X51274428Y58785828D01*
X51274428Y58785828D02*
X51331571Y58900114D01*
X51331571Y58900114D02*
X51445857Y58957257D01*
X51445857Y58957257D02*
X51674428Y58957257D01*
X51674428Y58957257D02*
X51788714Y58900114D01*
X51788714Y58900114D02*
X51845857Y58785828D01*
X51845857Y58785828D02*
X51845857Y58671542D01*
X51845857Y58671542D02*
X51274428Y58557257D01*
X52360142Y58157257D02*
X52360142Y58957257D01*
X52360142Y58842971D02*
X52417285Y58900114D01*
X52417285Y58900114D02*
X52531570Y58957257D01*
X52531570Y58957257D02*
X52702999Y58957257D01*
X52702999Y58957257D02*
X52817285Y58900114D01*
X52817285Y58900114D02*
X52874428Y58785828D01*
X52874428Y58785828D02*
X52874428Y58157257D01*
X52874428Y58785828D02*
X52931570Y58900114D01*
X52931570Y58900114D02*
X53045856Y58957257D01*
X53045856Y58957257D02*
X53217285Y58957257D01*
X53217285Y58957257D02*
X53331570Y58900114D01*
X53331570Y58900114D02*
X53388713Y58785828D01*
X53388713Y58785828D02*
X53388713Y58157257D01*
X54417285Y58214400D02*
X54302999Y58157257D01*
X54302999Y58157257D02*
X54074428Y58157257D01*
X54074428Y58157257D02*
X53960142Y58214400D01*
X53960142Y58214400D02*
X53902999Y58328685D01*
X53902999Y58328685D02*
X53902999Y58785828D01*
X53902999Y58785828D02*
X53960142Y58900114D01*
X53960142Y58900114D02*
X54074428Y58957257D01*
X54074428Y58957257D02*
X54302999Y58957257D01*
X54302999Y58957257D02*
X54417285Y58900114D01*
X54417285Y58900114D02*
X54474428Y58785828D01*
X54474428Y58785828D02*
X54474428Y58671542D01*
X54474428Y58671542D02*
X53902999Y58557257D01*
X54988713Y58957257D02*
X54988713Y58157257D01*
X54988713Y58842971D02*
X55045856Y58900114D01*
X55045856Y58900114D02*
X55160141Y58957257D01*
X55160141Y58957257D02*
X55331570Y58957257D01*
X55331570Y58957257D02*
X55445856Y58900114D01*
X55445856Y58900114D02*
X55502999Y58785828D01*
X55502999Y58785828D02*
X55502999Y58157257D01*
X55902998Y58957257D02*
X56360141Y58957257D01*
X56074427Y59357257D02*
X56074427Y58328685D01*
X56074427Y58328685D02*
X56131570Y58214400D01*
X56131570Y58214400D02*
X56245855Y58157257D01*
X56245855Y58157257D02*
X56360141Y58157257D01*
X57674427Y58957257D02*
X57674427Y57757257D01*
X57674427Y58900114D02*
X57788713Y58957257D01*
X57788713Y58957257D02*
X58017284Y58957257D01*
X58017284Y58957257D02*
X58131570Y58900114D01*
X58131570Y58900114D02*
X58188713Y58842971D01*
X58188713Y58842971D02*
X58245855Y58728685D01*
X58245855Y58728685D02*
X58245855Y58385828D01*
X58245855Y58385828D02*
X58188713Y58271542D01*
X58188713Y58271542D02*
X58131570Y58214400D01*
X58131570Y58214400D02*
X58017284Y58157257D01*
X58017284Y58157257D02*
X57788713Y58157257D01*
X57788713Y58157257D02*
X57674427Y58214400D01*
X58931569Y58157257D02*
X58817284Y58214400D01*
X58817284Y58214400D02*
X58760141Y58328685D01*
X58760141Y58328685D02*
X58760141Y59357257D01*
X59902998Y58157257D02*
X59902998Y58785828D01*
X59902998Y58785828D02*
X59845855Y58900114D01*
X59845855Y58900114D02*
X59731569Y58957257D01*
X59731569Y58957257D02*
X59502998Y58957257D01*
X59502998Y58957257D02*
X59388712Y58900114D01*
X59902998Y58214400D02*
X59788712Y58157257D01*
X59788712Y58157257D02*
X59502998Y58157257D01*
X59502998Y58157257D02*
X59388712Y58214400D01*
X59388712Y58214400D02*
X59331569Y58328685D01*
X59331569Y58328685D02*
X59331569Y58442971D01*
X59331569Y58442971D02*
X59388712Y58557257D01*
X59388712Y58557257D02*
X59502998Y58614400D01*
X59502998Y58614400D02*
X59788712Y58614400D01*
X59788712Y58614400D02*
X59902998Y58671542D01*
X60474426Y58957257D02*
X60474426Y58157257D01*
X60474426Y58842971D02*
X60531569Y58900114D01*
X60531569Y58900114D02*
X60645854Y58957257D01*
X60645854Y58957257D02*
X60817283Y58957257D01*
X60817283Y58957257D02*
X60931569Y58900114D01*
X60931569Y58900114D02*
X60988712Y58785828D01*
X60988712Y58785828D02*
X60988712Y58157257D01*
D11*
X673558Y55260361D02*
X673558Y57260361D01*
X673558Y57260361D02*
X1435463Y57260361D01*
X1435463Y57260361D02*
X1625939Y57165123D01*
X1625939Y57165123D02*
X1721177Y57069885D01*
X1721177Y57069885D02*
X1816415Y56879409D01*
X1816415Y56879409D02*
X1816415Y56593695D01*
X1816415Y56593695D02*
X1721177Y56403219D01*
X1721177Y56403219D02*
X1625939Y56307980D01*
X1625939Y56307980D02*
X1435463Y56212742D01*
X1435463Y56212742D02*
X673558Y56212742D01*
X2578320Y55831790D02*
X3530701Y55831790D01*
X2387844Y55260361D02*
X3054510Y57260361D01*
X3054510Y57260361D02*
X3721177Y55260361D01*
X5340225Y55260361D02*
X4387844Y55260361D01*
X4387844Y55260361D02*
X4387844Y57260361D01*
X7530702Y55260361D02*
X7530702Y57260361D01*
X7530702Y57260361D02*
X8292607Y57260361D01*
X8292607Y57260361D02*
X8483083Y57165123D01*
X8483083Y57165123D02*
X8578321Y57069885D01*
X8578321Y57069885D02*
X8673559Y56879409D01*
X8673559Y56879409D02*
X8673559Y56593695D01*
X8673559Y56593695D02*
X8578321Y56403219D01*
X8578321Y56403219D02*
X8483083Y56307980D01*
X8483083Y56307980D02*
X8292607Y56212742D01*
X8292607Y56212742D02*
X7530702Y56212742D01*
X9816416Y55260361D02*
X9625940Y55355600D01*
X9625940Y55355600D02*
X9530702Y55450838D01*
X9530702Y55450838D02*
X9435464Y55641314D01*
X9435464Y55641314D02*
X9435464Y56212742D01*
X9435464Y56212742D02*
X9530702Y56403219D01*
X9530702Y56403219D02*
X9625940Y56498457D01*
X9625940Y56498457D02*
X9816416Y56593695D01*
X9816416Y56593695D02*
X10102131Y56593695D01*
X10102131Y56593695D02*
X10292607Y56498457D01*
X10292607Y56498457D02*
X10387845Y56403219D01*
X10387845Y56403219D02*
X10483083Y56212742D01*
X10483083Y56212742D02*
X10483083Y55641314D01*
X10483083Y55641314D02*
X10387845Y55450838D01*
X10387845Y55450838D02*
X10292607Y55355600D01*
X10292607Y55355600D02*
X10102131Y55260361D01*
X10102131Y55260361D02*
X9816416Y55260361D01*
X12197369Y55260361D02*
X12197369Y57260361D01*
X12197369Y55355600D02*
X12006893Y55260361D01*
X12006893Y55260361D02*
X11625940Y55260361D01*
X11625940Y55260361D02*
X11435464Y55355600D01*
X11435464Y55355600D02*
X11340226Y55450838D01*
X11340226Y55450838D02*
X11244988Y55641314D01*
X11244988Y55641314D02*
X11244988Y56212742D01*
X11244988Y56212742D02*
X11340226Y56403219D01*
X11340226Y56403219D02*
X11435464Y56498457D01*
X11435464Y56498457D02*
X11625940Y56593695D01*
X11625940Y56593695D02*
X12006893Y56593695D01*
X12006893Y56593695D02*
X12197369Y56498457D01*
X14673560Y55260361D02*
X14673560Y57260361D01*
X14673560Y57260361D02*
X15340227Y55831790D01*
X15340227Y55831790D02*
X16006893Y57260361D01*
X16006893Y57260361D02*
X16006893Y55260361D01*
X16959274Y55260361D02*
X16959274Y56593695D01*
X16959274Y57260361D02*
X16864036Y57165123D01*
X16864036Y57165123D02*
X16959274Y57069885D01*
X16959274Y57069885D02*
X17054512Y57165123D01*
X17054512Y57165123D02*
X16959274Y57260361D01*
X16959274Y57260361D02*
X16959274Y57069885D01*
X18768798Y55355600D02*
X18578322Y55260361D01*
X18578322Y55260361D02*
X18197369Y55260361D01*
X18197369Y55260361D02*
X18006893Y55355600D01*
X18006893Y55355600D02*
X17911655Y55450838D01*
X17911655Y55450838D02*
X17816417Y55641314D01*
X17816417Y55641314D02*
X17816417Y56212742D01*
X17816417Y56212742D02*
X17911655Y56403219D01*
X17911655Y56403219D02*
X18006893Y56498457D01*
X18006893Y56498457D02*
X18197369Y56593695D01*
X18197369Y56593695D02*
X18578322Y56593695D01*
X18578322Y56593695D02*
X18768798Y56498457D01*
X21054513Y55831790D02*
X22006894Y55831790D01*
X20864037Y55260361D02*
X21530703Y57260361D01*
X21530703Y57260361D02*
X22197370Y55260361D01*
X22864037Y55260361D02*
X22864037Y56593695D01*
X22864037Y56212742D02*
X22959275Y56403219D01*
X22959275Y56403219D02*
X23054513Y56498457D01*
X23054513Y56498457D02*
X23244989Y56593695D01*
X23244989Y56593695D02*
X23435466Y56593695D01*
X24102132Y55260361D02*
X24102132Y56593695D01*
X24102132Y56212742D02*
X24197370Y56403219D01*
X24197370Y56403219D02*
X24292608Y56498457D01*
X24292608Y56498457D02*
X24483084Y56593695D01*
X24483084Y56593695D02*
X24673561Y56593695D01*
X26197370Y55260361D02*
X26197370Y56307980D01*
X26197370Y56307980D02*
X26102132Y56498457D01*
X26102132Y56498457D02*
X25911656Y56593695D01*
X25911656Y56593695D02*
X25530703Y56593695D01*
X25530703Y56593695D02*
X25340227Y56498457D01*
X26197370Y55355600D02*
X26006894Y55260361D01*
X26006894Y55260361D02*
X25530703Y55260361D01*
X25530703Y55260361D02*
X25340227Y55355600D01*
X25340227Y55355600D02*
X25244989Y55546076D01*
X25244989Y55546076D02*
X25244989Y55736552D01*
X25244989Y55736552D02*
X25340227Y55927028D01*
X25340227Y55927028D02*
X25530703Y56022266D01*
X25530703Y56022266D02*
X26006894Y56022266D01*
X26006894Y56022266D02*
X26197370Y56117504D01*
X26959275Y56593695D02*
X27435465Y55260361D01*
X27911656Y56593695D02*
X27435465Y55260361D01*
X27435465Y55260361D02*
X27244989Y54784171D01*
X27244989Y54784171D02*
X27149751Y54688933D01*
X27149751Y54688933D02*
X26959275Y54593695D01*
X30197371Y56022266D02*
X31721181Y56022266D01*
X35340228Y55260361D02*
X34673561Y56212742D01*
X34197371Y55260361D02*
X34197371Y57260361D01*
X34197371Y57260361D02*
X34959276Y57260361D01*
X34959276Y57260361D02*
X35149752Y57165123D01*
X35149752Y57165123D02*
X35244990Y57069885D01*
X35244990Y57069885D02*
X35340228Y56879409D01*
X35340228Y56879409D02*
X35340228Y56593695D01*
X35340228Y56593695D02*
X35244990Y56403219D01*
X35244990Y56403219D02*
X35149752Y56307980D01*
X35149752Y56307980D02*
X34959276Y56212742D01*
X34959276Y56212742D02*
X34197371Y56212742D01*
X36959276Y55355600D02*
X36768800Y55260361D01*
X36768800Y55260361D02*
X36387847Y55260361D01*
X36387847Y55260361D02*
X36197371Y55355600D01*
X36197371Y55355600D02*
X36102133Y55546076D01*
X36102133Y55546076D02*
X36102133Y56307980D01*
X36102133Y56307980D02*
X36197371Y56498457D01*
X36197371Y56498457D02*
X36387847Y56593695D01*
X36387847Y56593695D02*
X36768800Y56593695D01*
X36768800Y56593695D02*
X36959276Y56498457D01*
X36959276Y56498457D02*
X37054514Y56307980D01*
X37054514Y56307980D02*
X37054514Y56117504D01*
X37054514Y56117504D02*
X36102133Y55927028D01*
X37721181Y56593695D02*
X38197371Y55260361D01*
X38197371Y55260361D02*
X38673562Y56593695D01*
X40864039Y55831790D02*
X41816420Y55831790D01*
X40673563Y55260361D02*
X41340229Y57260361D01*
X41340229Y57260361D02*
X42006896Y55260361D01*
X43054515Y57260361D02*
X43244992Y57260361D01*
X43244992Y57260361D02*
X43435468Y57165123D01*
X43435468Y57165123D02*
X43530706Y57069885D01*
X43530706Y57069885D02*
X43625944Y56879409D01*
X43625944Y56879409D02*
X43721182Y56498457D01*
X43721182Y56498457D02*
X43721182Y56022266D01*
X43721182Y56022266D02*
X43625944Y55641314D01*
X43625944Y55641314D02*
X43530706Y55450838D01*
X43530706Y55450838D02*
X43435468Y55355600D01*
X43435468Y55355600D02*
X43244992Y55260361D01*
X43244992Y55260361D02*
X43054515Y55260361D01*
X43054515Y55260361D02*
X42864039Y55355600D01*
X42864039Y55355600D02*
X42768801Y55450838D01*
X42768801Y55450838D02*
X42673563Y55641314D01*
X42673563Y55641314D02*
X42578325Y56022266D01*
X42578325Y56022266D02*
X42578325Y56498457D01*
X42578325Y56498457D02*
X42673563Y56879409D01*
X42673563Y56879409D02*
X42768801Y57069885D01*
X42768801Y57069885D02*
X42864039Y57165123D01*
X42864039Y57165123D02*
X43054515Y57260361D01*
X46102135Y56022266D02*
X47625945Y56022266D01*
X50102135Y55260361D02*
X50102135Y57260361D01*
X50102135Y57260361D02*
X50864040Y57260361D01*
X50864040Y57260361D02*
X51054516Y57165123D01*
X51054516Y57165123D02*
X51149754Y57069885D01*
X51149754Y57069885D02*
X51244992Y56879409D01*
X51244992Y56879409D02*
X51244992Y56593695D01*
X51244992Y56593695D02*
X51149754Y56403219D01*
X51149754Y56403219D02*
X51054516Y56307980D01*
X51054516Y56307980D02*
X50864040Y56212742D01*
X50864040Y56212742D02*
X50102135Y56212742D01*
X53054516Y55260361D02*
X52102135Y55260361D01*
X52102135Y55260361D02*
X52102135Y57260361D01*
X53625945Y55831790D02*
X54578326Y55831790D01*
X53435469Y55260361D02*
X54102135Y57260361D01*
X54102135Y57260361D02*
X54768802Y55260361D01*
X56578326Y55450838D02*
X56483088Y55355600D01*
X56483088Y55355600D02*
X56197374Y55260361D01*
X56197374Y55260361D02*
X56006898Y55260361D01*
X56006898Y55260361D02*
X55721183Y55355600D01*
X55721183Y55355600D02*
X55530707Y55546076D01*
X55530707Y55546076D02*
X55435469Y55736552D01*
X55435469Y55736552D02*
X55340231Y56117504D01*
X55340231Y56117504D02*
X55340231Y56403219D01*
X55340231Y56403219D02*
X55435469Y56784171D01*
X55435469Y56784171D02*
X55530707Y56974647D01*
X55530707Y56974647D02*
X55721183Y57165123D01*
X55721183Y57165123D02*
X56006898Y57260361D01*
X56006898Y57260361D02*
X56197374Y57260361D01*
X56197374Y57260361D02*
X56483088Y57165123D01*
X56483088Y57165123D02*
X56578326Y57069885D01*
X57435469Y56307980D02*
X58102136Y56307980D01*
X58387850Y55260361D02*
X57435469Y55260361D01*
X57435469Y55260361D02*
X57435469Y57260361D01*
X57435469Y57260361D02*
X58387850Y57260361D01*
X59244993Y55260361D02*
X59244993Y57260361D01*
X59244993Y56307980D02*
X60387850Y56307980D01*
X60387850Y55260361D02*
X60387850Y57260361D01*
X61721183Y57260361D02*
X62102136Y57260361D01*
X62102136Y57260361D02*
X62292612Y57165123D01*
X62292612Y57165123D02*
X62483088Y56974647D01*
X62483088Y56974647D02*
X62578326Y56593695D01*
X62578326Y56593695D02*
X62578326Y55927028D01*
X62578326Y55927028D02*
X62483088Y55546076D01*
X62483088Y55546076D02*
X62292612Y55355600D01*
X62292612Y55355600D02*
X62102136Y55260361D01*
X62102136Y55260361D02*
X61721183Y55260361D01*
X61721183Y55260361D02*
X61530707Y55355600D01*
X61530707Y55355600D02*
X61340231Y55546076D01*
X61340231Y55546076D02*
X61244993Y55927028D01*
X61244993Y55927028D02*
X61244993Y56593695D01*
X61244993Y56593695D02*
X61340231Y56974647D01*
X61340231Y56974647D02*
X61530707Y57165123D01*
X61530707Y57165123D02*
X61721183Y57260361D01*
X64387850Y55260361D02*
X63435469Y55260361D01*
X63435469Y55260361D02*
X63435469Y57260361D01*
X65054517Y55260361D02*
X65054517Y57260361D01*
X65054517Y57260361D02*
X65530707Y57260361D01*
X65530707Y57260361D02*
X65816422Y57165123D01*
X65816422Y57165123D02*
X66006898Y56974647D01*
X66006898Y56974647D02*
X66102136Y56784171D01*
X66102136Y56784171D02*
X66197374Y56403219D01*
X66197374Y56403219D02*
X66197374Y56117504D01*
X66197374Y56117504D02*
X66102136Y55736552D01*
X66102136Y55736552D02*
X66006898Y55546076D01*
X66006898Y55546076D02*
X65816422Y55355600D01*
X65816422Y55355600D02*
X65530707Y55260361D01*
X65530707Y55260361D02*
X65054517Y55260361D01*
X67054517Y56307980D02*
X67721184Y56307980D01*
X68006898Y55260361D02*
X67054517Y55260361D01*
X67054517Y55260361D02*
X67054517Y57260361D01*
X67054517Y57260361D02*
X68006898Y57260361D01*
X70006898Y55260361D02*
X69340231Y56212742D01*
X68864041Y55260361D02*
X68864041Y57260361D01*
X68864041Y57260361D02*
X69625946Y57260361D01*
X69625946Y57260361D02*
X69816422Y57165123D01*
X69816422Y57165123D02*
X69911660Y57069885D01*
X69911660Y57069885D02*
X70006898Y56879409D01*
X70006898Y56879409D02*
X70006898Y56593695D01*
X70006898Y56593695D02*
X69911660Y56403219D01*
X69911660Y56403219D02*
X69816422Y56307980D01*
X69816422Y56307980D02*
X69625946Y56212742D01*
X69625946Y56212742D02*
X68864041Y56212742D01*
X72387851Y55260361D02*
X72387851Y57260361D01*
X72387851Y57260361D02*
X73149756Y57260361D01*
X73149756Y57260361D02*
X73340232Y57165123D01*
X73340232Y57165123D02*
X73435470Y57069885D01*
X73435470Y57069885D02*
X73530708Y56879409D01*
X73530708Y56879409D02*
X73530708Y56593695D01*
X73530708Y56593695D02*
X73435470Y56403219D01*
X73435470Y56403219D02*
X73340232Y56307980D01*
X73340232Y56307980D02*
X73149756Y56212742D01*
X73149756Y56212742D02*
X72387851Y56212742D01*
X75530708Y55450838D02*
X75435470Y55355600D01*
X75435470Y55355600D02*
X75149756Y55260361D01*
X75149756Y55260361D02*
X74959280Y55260361D01*
X74959280Y55260361D02*
X74673565Y55355600D01*
X74673565Y55355600D02*
X74483089Y55546076D01*
X74483089Y55546076D02*
X74387851Y55736552D01*
X74387851Y55736552D02*
X74292613Y56117504D01*
X74292613Y56117504D02*
X74292613Y56403219D01*
X74292613Y56403219D02*
X74387851Y56784171D01*
X74387851Y56784171D02*
X74483089Y56974647D01*
X74483089Y56974647D02*
X74673565Y57165123D01*
X74673565Y57165123D02*
X74959280Y57260361D01*
X74959280Y57260361D02*
X75149756Y57260361D01*
X75149756Y57260361D02*
X75435470Y57165123D01*
X75435470Y57165123D02*
X75530708Y57069885D01*
X77054518Y56307980D02*
X77340232Y56212742D01*
X77340232Y56212742D02*
X77435470Y56117504D01*
X77435470Y56117504D02*
X77530708Y55927028D01*
X77530708Y55927028D02*
X77530708Y55641314D01*
X77530708Y55641314D02*
X77435470Y55450838D01*
X77435470Y55450838D02*
X77340232Y55355600D01*
X77340232Y55355600D02*
X77149756Y55260361D01*
X77149756Y55260361D02*
X76387851Y55260361D01*
X76387851Y55260361D02*
X76387851Y57260361D01*
X76387851Y57260361D02*
X77054518Y57260361D01*
X77054518Y57260361D02*
X77244994Y57165123D01*
X77244994Y57165123D02*
X77340232Y57069885D01*
X77340232Y57069885D02*
X77435470Y56879409D01*
X77435470Y56879409D02*
X77435470Y56688933D01*
X77435470Y56688933D02*
X77340232Y56498457D01*
X77340232Y56498457D02*
X77244994Y56403219D01*
X77244994Y56403219D02*
X77054518Y56307980D01*
X77054518Y56307980D02*
X76387851Y56307980D01*
D12*
X13238095Y4545180D02*
X13238095Y3735657D01*
X13238095Y3735657D02*
X13285714Y3640419D01*
X13285714Y3640419D02*
X13333333Y3592800D01*
X13333333Y3592800D02*
X13428571Y3545180D01*
X13428571Y3545180D02*
X13619047Y3545180D01*
X13619047Y3545180D02*
X13714285Y3592800D01*
X13714285Y3592800D02*
X13761904Y3640419D01*
X13761904Y3640419D02*
X13809523Y3735657D01*
X13809523Y3735657D02*
X13809523Y4545180D01*
X14238095Y4449942D02*
X14285714Y4497561D01*
X14285714Y4497561D02*
X14380952Y4545180D01*
X14380952Y4545180D02*
X14619047Y4545180D01*
X14619047Y4545180D02*
X14714285Y4497561D01*
X14714285Y4497561D02*
X14761904Y4449942D01*
X14761904Y4449942D02*
X14809523Y4354704D01*
X14809523Y4354704D02*
X14809523Y4259466D01*
X14809523Y4259466D02*
X14761904Y4116609D01*
X14761904Y4116609D02*
X14190476Y3545180D01*
X14190476Y3545180D02*
X14809523Y3545180D01*
X-13166666Y-48929580D02*
X-13214285Y-48977200D01*
X-13214285Y-48977200D02*
X-13357142Y-49024819D01*
X-13357142Y-49024819D02*
X-13452380Y-49024819D01*
X-13452380Y-49024819D02*
X-13595237Y-48977200D01*
X-13595237Y-48977200D02*
X-13690475Y-48881961D01*
X-13690475Y-48881961D02*
X-13738094Y-48786723D01*
X-13738094Y-48786723D02*
X-13785713Y-48596247D01*
X-13785713Y-48596247D02*
X-13785713Y-48453390D01*
X-13785713Y-48453390D02*
X-13738094Y-48262914D01*
X-13738094Y-48262914D02*
X-13690475Y-48167676D01*
X-13690475Y-48167676D02*
X-13595237Y-48072438D01*
X-13595237Y-48072438D02*
X-13452380Y-48024819D01*
X-13452380Y-48024819D02*
X-13357142Y-48024819D01*
X-13357142Y-48024819D02*
X-13214285Y-48072438D01*
X-13214285Y-48072438D02*
X-13166666Y-48120057D01*
X-12214285Y-49024819D02*
X-12785713Y-49024819D01*
X-12499999Y-49024819D02*
X-12499999Y-48024819D01*
X-12499999Y-48024819D02*
X-12595237Y-48167676D01*
X-12595237Y-48167676D02*
X-12690475Y-48262914D01*
X-12690475Y-48262914D02*
X-12785713Y-48310533D01*
X-13166666Y-28929580D02*
X-13214285Y-28977200D01*
X-13214285Y-28977200D02*
X-13357142Y-29024819D01*
X-13357142Y-29024819D02*
X-13452380Y-29024819D01*
X-13452380Y-29024819D02*
X-13595237Y-28977200D01*
X-13595237Y-28977200D02*
X-13690475Y-28881961D01*
X-13690475Y-28881961D02*
X-13738094Y-28786723D01*
X-13738094Y-28786723D02*
X-13785713Y-28596247D01*
X-13785713Y-28596247D02*
X-13785713Y-28453390D01*
X-13785713Y-28453390D02*
X-13738094Y-28262914D01*
X-13738094Y-28262914D02*
X-13690475Y-28167676D01*
X-13690475Y-28167676D02*
X-13595237Y-28072438D01*
X-13595237Y-28072438D02*
X-13452380Y-28024819D01*
X-13452380Y-28024819D02*
X-13357142Y-28024819D01*
X-13357142Y-28024819D02*
X-13214285Y-28072438D01*
X-13214285Y-28072438D02*
X-13166666Y-28120057D01*
X-12309523Y-28358152D02*
X-12309523Y-29024819D01*
X-12547618Y-27977200D02*
X-12785713Y-28691485D01*
X-12785713Y-28691485D02*
X-12166666Y-28691485D01*
X-166666Y-28929580D02*
X-214285Y-28977200D01*
X-214285Y-28977200D02*
X-357142Y-29024819D01*
X-357142Y-29024819D02*
X-452380Y-29024819D01*
X-452380Y-29024819D02*
X-595237Y-28977200D01*
X-595237Y-28977200D02*
X-690475Y-28881961D01*
X-690475Y-28881961D02*
X-738094Y-28786723D01*
X-738094Y-28786723D02*
X-785713Y-28596247D01*
X-785713Y-28596247D02*
X-785713Y-28453390D01*
X-785713Y-28453390D02*
X-738094Y-28262914D01*
X-738094Y-28262914D02*
X-690475Y-28167676D01*
X-690475Y-28167676D02*
X-595237Y-28072438D01*
X-595237Y-28072438D02*
X-452380Y-28024819D01*
X-452380Y-28024819D02*
X-357142Y-28024819D01*
X-357142Y-28024819D02*
X-214285Y-28072438D01*
X-214285Y-28072438D02*
X-166666Y-28120057D01*
X738095Y-28024819D02*
X261905Y-28024819D01*
X261905Y-28024819D02*
X214286Y-28501009D01*
X214286Y-28501009D02*
X261905Y-28453390D01*
X261905Y-28453390D02*
X357143Y-28405771D01*
X357143Y-28405771D02*
X595238Y-28405771D01*
X595238Y-28405771D02*
X690476Y-28453390D01*
X690476Y-28453390D02*
X738095Y-28501009D01*
X738095Y-28501009D02*
X785714Y-28596247D01*
X785714Y-28596247D02*
X785714Y-28834342D01*
X785714Y-28834342D02*
X738095Y-28929580D01*
X738095Y-28929580D02*
X690476Y-28977200D01*
X690476Y-28977200D02*
X595238Y-29024819D01*
X595238Y-29024819D02*
X357143Y-29024819D01*
X357143Y-29024819D02*
X261905Y-28977200D01*
X261905Y-28977200D02*
X214286Y-28929580D01*
X12833333Y-28929580D02*
X12785714Y-28977200D01*
X12785714Y-28977200D02*
X12642857Y-29024819D01*
X12642857Y-29024819D02*
X12547619Y-29024819D01*
X12547619Y-29024819D02*
X12404762Y-28977200D01*
X12404762Y-28977200D02*
X12309524Y-28881961D01*
X12309524Y-28881961D02*
X12261905Y-28786723D01*
X12261905Y-28786723D02*
X12214286Y-28596247D01*
X12214286Y-28596247D02*
X12214286Y-28453390D01*
X12214286Y-28453390D02*
X12261905Y-28262914D01*
X12261905Y-28262914D02*
X12309524Y-28167676D01*
X12309524Y-28167676D02*
X12404762Y-28072438D01*
X12404762Y-28072438D02*
X12547619Y-28024819D01*
X12547619Y-28024819D02*
X12642857Y-28024819D01*
X12642857Y-28024819D02*
X12785714Y-28072438D01*
X12785714Y-28072438D02*
X12833333Y-28120057D01*
X13690476Y-28024819D02*
X13500000Y-28024819D01*
X13500000Y-28024819D02*
X13404762Y-28072438D01*
X13404762Y-28072438D02*
X13357143Y-28120057D01*
X13357143Y-28120057D02*
X13261905Y-28262914D01*
X13261905Y-28262914D02*
X13214286Y-28453390D01*
X13214286Y-28453390D02*
X13214286Y-28834342D01*
X13214286Y-28834342D02*
X13261905Y-28929580D01*
X13261905Y-28929580D02*
X13309524Y-28977200D01*
X13309524Y-28977200D02*
X13404762Y-29024819D01*
X13404762Y-29024819D02*
X13595238Y-29024819D01*
X13595238Y-29024819D02*
X13690476Y-28977200D01*
X13690476Y-28977200D02*
X13738095Y-28929580D01*
X13738095Y-28929580D02*
X13785714Y-28834342D01*
X13785714Y-28834342D02*
X13785714Y-28596247D01*
X13785714Y-28596247D02*
X13738095Y-28501009D01*
X13738095Y-28501009D02*
X13690476Y-28453390D01*
X13690476Y-28453390D02*
X13595238Y-28405771D01*
X13595238Y-28405771D02*
X13404762Y-28405771D01*
X13404762Y-28405771D02*
X13309524Y-28453390D01*
X13309524Y-28453390D02*
X13261905Y-28501009D01*
X13261905Y-28501009D02*
X13214286Y-28596247D01*
X6624633Y-48929580D02*
X6577014Y-48977200D01*
X6577014Y-48977200D02*
X6434157Y-49024819D01*
X6434157Y-49024819D02*
X6338919Y-49024819D01*
X6338919Y-49024819D02*
X6196062Y-48977200D01*
X6196062Y-48977200D02*
X6100824Y-48881961D01*
X6100824Y-48881961D02*
X6053205Y-48786723D01*
X6053205Y-48786723D02*
X6005586Y-48596247D01*
X6005586Y-48596247D02*
X6005586Y-48453390D01*
X6005586Y-48453390D02*
X6053205Y-48262914D01*
X6053205Y-48262914D02*
X6100824Y-48167676D01*
X6100824Y-48167676D02*
X6196062Y-48072438D01*
X6196062Y-48072438D02*
X6338919Y-48024819D01*
X6338919Y-48024819D02*
X6434157Y-48024819D01*
X6434157Y-48024819D02*
X6577014Y-48072438D01*
X6577014Y-48072438D02*
X6624633Y-48120057D01*
X7005586Y-48120057D02*
X7053205Y-48072438D01*
X7053205Y-48072438D02*
X7148443Y-48024819D01*
X7148443Y-48024819D02*
X7386538Y-48024819D01*
X7386538Y-48024819D02*
X7481776Y-48072438D01*
X7481776Y-48072438D02*
X7529395Y-48120057D01*
X7529395Y-48120057D02*
X7577014Y-48215295D01*
X7577014Y-48215295D02*
X7577014Y-48310533D01*
X7577014Y-48310533D02*
X7529395Y-48453390D01*
X7529395Y-48453390D02*
X6957967Y-49024819D01*
X6957967Y-49024819D02*
X7577014Y-49024819D01*
X12833333Y-48929580D02*
X12785714Y-48977200D01*
X12785714Y-48977200D02*
X12642857Y-49024819D01*
X12642857Y-49024819D02*
X12547619Y-49024819D01*
X12547619Y-49024819D02*
X12404762Y-48977200D01*
X12404762Y-48977200D02*
X12309524Y-48881961D01*
X12309524Y-48881961D02*
X12261905Y-48786723D01*
X12261905Y-48786723D02*
X12214286Y-48596247D01*
X12214286Y-48596247D02*
X12214286Y-48453390D01*
X12214286Y-48453390D02*
X12261905Y-48262914D01*
X12261905Y-48262914D02*
X12309524Y-48167676D01*
X12309524Y-48167676D02*
X12404762Y-48072438D01*
X12404762Y-48072438D02*
X12547619Y-48024819D01*
X12547619Y-48024819D02*
X12642857Y-48024819D01*
X12642857Y-48024819D02*
X12785714Y-48072438D01*
X12785714Y-48072438D02*
X12833333Y-48120057D01*
X13166667Y-48024819D02*
X13785714Y-48024819D01*
X13785714Y-48024819D02*
X13452381Y-48405771D01*
X13452381Y-48405771D02*
X13595238Y-48405771D01*
X13595238Y-48405771D02*
X13690476Y-48453390D01*
X13690476Y-48453390D02*
X13738095Y-48501009D01*
X13738095Y-48501009D02*
X13785714Y-48596247D01*
X13785714Y-48596247D02*
X13785714Y-48834342D01*
X13785714Y-48834342D02*
X13738095Y-48929580D01*
X13738095Y-48929580D02*
X13690476Y-48977200D01*
X13690476Y-48977200D02*
X13595238Y-49024819D01*
X13595238Y-49024819D02*
X13309524Y-49024819D01*
X13309524Y-49024819D02*
X13214286Y-48977200D01*
X13214286Y-48977200D02*
X13166667Y-48929580D01*
X-30761904Y-7054819D02*
X-30761904Y-7864342D01*
X-30761904Y-7864342D02*
X-30714285Y-7959580D01*
X-30714285Y-7959580D02*
X-30666666Y-8007200D01*
X-30666666Y-8007200D02*
X-30571428Y-8054819D01*
X-30571428Y-8054819D02*
X-30380952Y-8054819D01*
X-30380952Y-8054819D02*
X-30285714Y-8007200D01*
X-30285714Y-8007200D02*
X-30238095Y-7959580D01*
X-30238095Y-7959580D02*
X-30190476Y-7864342D01*
X-30190476Y-7864342D02*
X-30190476Y-7054819D01*
X-29285714Y-7388152D02*
X-29285714Y-8054819D01*
X-29523809Y-7007200D02*
X-29761904Y-7721485D01*
X-29761904Y-7721485D02*
X-29142857Y-7721485D01*
X-37761904Y12375180D02*
X-37761904Y11565657D01*
X-37761904Y11565657D02*
X-37714285Y11470419D01*
X-37714285Y11470419D02*
X-37666666Y11422800D01*
X-37666666Y11422800D02*
X-37571428Y11375180D01*
X-37571428Y11375180D02*
X-37380952Y11375180D01*
X-37380952Y11375180D02*
X-37285714Y11422800D01*
X-37285714Y11422800D02*
X-37238095Y11470419D01*
X-37238095Y11470419D02*
X-37190476Y11565657D01*
X-37190476Y11565657D02*
X-37190476Y12375180D01*
X-36809523Y12375180D02*
X-36190476Y12375180D01*
X-36190476Y12375180D02*
X-36523809Y11994228D01*
X-36523809Y11994228D02*
X-36380952Y11994228D01*
X-36380952Y11994228D02*
X-36285714Y11946609D01*
X-36285714Y11946609D02*
X-36238095Y11898990D01*
X-36238095Y11898990D02*
X-36190476Y11803752D01*
X-36190476Y11803752D02*
X-36190476Y11565657D01*
X-36190476Y11565657D02*
X-36238095Y11470419D01*
X-36238095Y11470419D02*
X-36285714Y11422800D01*
X-36285714Y11422800D02*
X-36380952Y11375180D01*
X-36380952Y11375180D02*
X-36666666Y11375180D01*
X-36666666Y11375180D02*
X-36761904Y11422800D01*
X-36761904Y11422800D02*
X-36809523Y11470419D01*
X20357142Y4800419D02*
X20309523Y4752800D01*
X20309523Y4752800D02*
X20166666Y4705180D01*
X20166666Y4705180D02*
X20071428Y4705180D01*
X20071428Y4705180D02*
X19928571Y4752800D01*
X19928571Y4752800D02*
X19833333Y4848038D01*
X19833333Y4848038D02*
X19785714Y4943276D01*
X19785714Y4943276D02*
X19738095Y5133752D01*
X19738095Y5133752D02*
X19738095Y5276609D01*
X19738095Y5276609D02*
X19785714Y5467085D01*
X19785714Y5467085D02*
X19833333Y5562323D01*
X19833333Y5562323D02*
X19928571Y5657561D01*
X19928571Y5657561D02*
X20071428Y5705180D01*
X20071428Y5705180D02*
X20166666Y5705180D01*
X20166666Y5705180D02*
X20309523Y5657561D01*
X20309523Y5657561D02*
X20357142Y5609942D01*
X21309523Y4705180D02*
X20738095Y4705180D01*
X21023809Y4705180D02*
X21023809Y5705180D01*
X21023809Y5705180D02*
X20928571Y5562323D01*
X20928571Y5562323D02*
X20833333Y5467085D01*
X20833333Y5467085D02*
X20738095Y5419466D01*
X21690476Y5609942D02*
X21738095Y5657561D01*
X21738095Y5657561D02*
X21833333Y5705180D01*
X21833333Y5705180D02*
X22071428Y5705180D01*
X22071428Y5705180D02*
X22166666Y5657561D01*
X22166666Y5657561D02*
X22214285Y5609942D01*
X22214285Y5609942D02*
X22261904Y5514704D01*
X22261904Y5514704D02*
X22261904Y5419466D01*
X22261904Y5419466D02*
X22214285Y5276609D01*
X22214285Y5276609D02*
X21642857Y4705180D01*
X21642857Y4705180D02*
X22261904Y4705180D01*
X-30642857Y-25199580D02*
X-30690476Y-25247200D01*
X-30690476Y-25247200D02*
X-30833333Y-25294819D01*
X-30833333Y-25294819D02*
X-30928571Y-25294819D01*
X-30928571Y-25294819D02*
X-31071428Y-25247200D01*
X-31071428Y-25247200D02*
X-31166666Y-25151961D01*
X-31166666Y-25151961D02*
X-31214285Y-25056723D01*
X-31214285Y-25056723D02*
X-31261904Y-24866247D01*
X-31261904Y-24866247D02*
X-31261904Y-24723390D01*
X-31261904Y-24723390D02*
X-31214285Y-24532914D01*
X-31214285Y-24532914D02*
X-31166666Y-24437676D01*
X-31166666Y-24437676D02*
X-31071428Y-24342438D01*
X-31071428Y-24342438D02*
X-30928571Y-24294819D01*
X-30928571Y-24294819D02*
X-30833333Y-24294819D01*
X-30833333Y-24294819D02*
X-30690476Y-24342438D01*
X-30690476Y-24342438D02*
X-30642857Y-24390057D01*
X-29690476Y-25294819D02*
X-30261904Y-25294819D01*
X-29976190Y-25294819D02*
X-29976190Y-24294819D01*
X-29976190Y-24294819D02*
X-30071428Y-24437676D01*
X-30071428Y-24437676D02*
X-30166666Y-24532914D01*
X-30166666Y-24532914D02*
X-30261904Y-24580533D01*
X-28833333Y-24628152D02*
X-28833333Y-25294819D01*
X-29071428Y-24247200D02*
X-29309523Y-24961485D01*
X-29309523Y-24961485D02*
X-28690476Y-24961485D01*
X-43642857Y1800419D02*
X-43690476Y1752800D01*
X-43690476Y1752800D02*
X-43833333Y1705180D01*
X-43833333Y1705180D02*
X-43928571Y1705180D01*
X-43928571Y1705180D02*
X-44071428Y1752800D01*
X-44071428Y1752800D02*
X-44166666Y1848038D01*
X-44166666Y1848038D02*
X-44214285Y1943276D01*
X-44214285Y1943276D02*
X-44261904Y2133752D01*
X-44261904Y2133752D02*
X-44261904Y2276609D01*
X-44261904Y2276609D02*
X-44214285Y2467085D01*
X-44214285Y2467085D02*
X-44166666Y2562323D01*
X-44166666Y2562323D02*
X-44071428Y2657561D01*
X-44071428Y2657561D02*
X-43928571Y2705180D01*
X-43928571Y2705180D02*
X-43833333Y2705180D01*
X-43833333Y2705180D02*
X-43690476Y2657561D01*
X-43690476Y2657561D02*
X-43642857Y2609942D01*
X-42690476Y1705180D02*
X-43261904Y1705180D01*
X-42976190Y1705180D02*
X-42976190Y2705180D01*
X-42976190Y2705180D02*
X-43071428Y2562323D01*
X-43071428Y2562323D02*
X-43166666Y2467085D01*
X-43166666Y2467085D02*
X-43261904Y2419466D01*
X-41785714Y2705180D02*
X-42261904Y2705180D01*
X-42261904Y2705180D02*
X-42309523Y2228990D01*
X-42309523Y2228990D02*
X-42261904Y2276609D01*
X-42261904Y2276609D02*
X-42166666Y2324228D01*
X-42166666Y2324228D02*
X-41928571Y2324228D01*
X-41928571Y2324228D02*
X-41833333Y2276609D01*
X-41833333Y2276609D02*
X-41785714Y2228990D01*
X-41785714Y2228990D02*
X-41738095Y2133752D01*
X-41738095Y2133752D02*
X-41738095Y1895657D01*
X-41738095Y1895657D02*
X-41785714Y1800419D01*
X-41785714Y1800419D02*
X-41833333Y1752800D01*
X-41833333Y1752800D02*
X-41928571Y1705180D01*
X-41928571Y1705180D02*
X-42166666Y1705180D01*
X-42166666Y1705180D02*
X-42261904Y1752800D01*
X-42261904Y1752800D02*
X-42309523Y1800419D01*
X20357142Y770219D02*
X20309523Y722600D01*
X20309523Y722600D02*
X20166666Y674980D01*
X20166666Y674980D02*
X20071428Y674980D01*
X20071428Y674980D02*
X19928571Y722600D01*
X19928571Y722600D02*
X19833333Y817838D01*
X19833333Y817838D02*
X19785714Y913076D01*
X19785714Y913076D02*
X19738095Y1103552D01*
X19738095Y1103552D02*
X19738095Y1246409D01*
X19738095Y1246409D02*
X19785714Y1436885D01*
X19785714Y1436885D02*
X19833333Y1532123D01*
X19833333Y1532123D02*
X19928571Y1627361D01*
X19928571Y1627361D02*
X20071428Y1674980D01*
X20071428Y1674980D02*
X20166666Y1674980D01*
X20166666Y1674980D02*
X20309523Y1627361D01*
X20309523Y1627361D02*
X20357142Y1579742D01*
X21309523Y674980D02*
X20738095Y674980D01*
X21023809Y674980D02*
X21023809Y1674980D01*
X21023809Y1674980D02*
X20928571Y1532123D01*
X20928571Y1532123D02*
X20833333Y1436885D01*
X20833333Y1436885D02*
X20738095Y1389266D01*
X21642857Y1674980D02*
X22261904Y1674980D01*
X22261904Y1674980D02*
X21928571Y1294028D01*
X21928571Y1294028D02*
X22071428Y1294028D01*
X22071428Y1294028D02*
X22166666Y1246409D01*
X22166666Y1246409D02*
X22214285Y1198790D01*
X22214285Y1198790D02*
X22261904Y1103552D01*
X22261904Y1103552D02*
X22261904Y865457D01*
X22261904Y865457D02*
X22214285Y770219D01*
X22214285Y770219D02*
X22166666Y722600D01*
X22166666Y722600D02*
X22071428Y674980D01*
X22071428Y674980D02*
X21785714Y674980D01*
X21785714Y674980D02*
X21690476Y722600D01*
X21690476Y722600D02*
X21642857Y770219D01*
X4357142Y8800419D02*
X4309523Y8752800D01*
X4309523Y8752800D02*
X4166666Y8705180D01*
X4166666Y8705180D02*
X4071428Y8705180D01*
X4071428Y8705180D02*
X3928571Y8752800D01*
X3928571Y8752800D02*
X3833333Y8848038D01*
X3833333Y8848038D02*
X3785714Y8943276D01*
X3785714Y8943276D02*
X3738095Y9133752D01*
X3738095Y9133752D02*
X3738095Y9276609D01*
X3738095Y9276609D02*
X3785714Y9467085D01*
X3785714Y9467085D02*
X3833333Y9562323D01*
X3833333Y9562323D02*
X3928571Y9657561D01*
X3928571Y9657561D02*
X4071428Y9705180D01*
X4071428Y9705180D02*
X4166666Y9705180D01*
X4166666Y9705180D02*
X4309523Y9657561D01*
X4309523Y9657561D02*
X4357142Y9609942D01*
X5309523Y8705180D02*
X4738095Y8705180D01*
X5023809Y8705180D02*
X5023809Y9705180D01*
X5023809Y9705180D02*
X4928571Y9562323D01*
X4928571Y9562323D02*
X4833333Y9467085D01*
X4833333Y9467085D02*
X4738095Y9419466D01*
X6261904Y8705180D02*
X5690476Y8705180D01*
X5976190Y8705180D02*
X5976190Y9705180D01*
X5976190Y9705180D02*
X5880952Y9562323D01*
X5880952Y9562323D02*
X5785714Y9467085D01*
X5785714Y9467085D02*
X5690476Y9419466D01*
X-12642857Y4800419D02*
X-12690476Y4752800D01*
X-12690476Y4752800D02*
X-12833333Y4705180D01*
X-12833333Y4705180D02*
X-12928571Y4705180D01*
X-12928571Y4705180D02*
X-13071428Y4752800D01*
X-13071428Y4752800D02*
X-13166666Y4848038D01*
X-13166666Y4848038D02*
X-13214285Y4943276D01*
X-13214285Y4943276D02*
X-13261904Y5133752D01*
X-13261904Y5133752D02*
X-13261904Y5276609D01*
X-13261904Y5276609D02*
X-13214285Y5467085D01*
X-13214285Y5467085D02*
X-13166666Y5562323D01*
X-13166666Y5562323D02*
X-13071428Y5657561D01*
X-13071428Y5657561D02*
X-12928571Y5705180D01*
X-12928571Y5705180D02*
X-12833333Y5705180D01*
X-12833333Y5705180D02*
X-12690476Y5657561D01*
X-12690476Y5657561D02*
X-12642857Y5609942D01*
X-11690476Y4705180D02*
X-12261904Y4705180D01*
X-11976190Y4705180D02*
X-11976190Y5705180D01*
X-11976190Y5705180D02*
X-12071428Y5562323D01*
X-12071428Y5562323D02*
X-12166666Y5467085D01*
X-12166666Y5467085D02*
X-12261904Y5419466D01*
X-11071428Y5705180D02*
X-10976190Y5705180D01*
X-10976190Y5705180D02*
X-10880952Y5657561D01*
X-10880952Y5657561D02*
X-10833333Y5609942D01*
X-10833333Y5609942D02*
X-10785714Y5514704D01*
X-10785714Y5514704D02*
X-10738095Y5324228D01*
X-10738095Y5324228D02*
X-10738095Y5086133D01*
X-10738095Y5086133D02*
X-10785714Y4895657D01*
X-10785714Y4895657D02*
X-10833333Y4800419D01*
X-10833333Y4800419D02*
X-10880952Y4752800D01*
X-10880952Y4752800D02*
X-10976190Y4705180D01*
X-10976190Y4705180D02*
X-11071428Y4705180D01*
X-11071428Y4705180D02*
X-11166666Y4752800D01*
X-11166666Y4752800D02*
X-11214285Y4800419D01*
X-11214285Y4800419D02*
X-11261904Y4895657D01*
X-11261904Y4895657D02*
X-11309523Y5086133D01*
X-11309523Y5086133D02*
X-11309523Y5324228D01*
X-11309523Y5324228D02*
X-11261904Y5514704D01*
X-11261904Y5514704D02*
X-11214285Y5609942D01*
X-11214285Y5609942D02*
X-11166666Y5657561D01*
X-11166666Y5657561D02*
X-11071428Y5705180D01*
X-14761904Y-34954819D02*
X-14761904Y-35764342D01*
X-14761904Y-35764342D02*
X-14714285Y-35859580D01*
X-14714285Y-35859580D02*
X-14666666Y-35907200D01*
X-14666666Y-35907200D02*
X-14571428Y-35954819D01*
X-14571428Y-35954819D02*
X-14380952Y-35954819D01*
X-14380952Y-35954819D02*
X-14285714Y-35907200D01*
X-14285714Y-35907200D02*
X-14238095Y-35859580D01*
X-14238095Y-35859580D02*
X-14190476Y-35764342D01*
X-14190476Y-35764342D02*
X-14190476Y-34954819D01*
X-13238095Y-34954819D02*
X-13714285Y-34954819D01*
X-13714285Y-34954819D02*
X-13761904Y-35431009D01*
X-13761904Y-35431009D02*
X-13714285Y-35383390D01*
X-13714285Y-35383390D02*
X-13619047Y-35335771D01*
X-13619047Y-35335771D02*
X-13380952Y-35335771D01*
X-13380952Y-35335771D02*
X-13285714Y-35383390D01*
X-13285714Y-35383390D02*
X-13238095Y-35431009D01*
X-13238095Y-35431009D02*
X-13190476Y-35526247D01*
X-13190476Y-35526247D02*
X-13190476Y-35764342D01*
X-13190476Y-35764342D02*
X-13238095Y-35859580D01*
X-13238095Y-35859580D02*
X-13285714Y-35907200D01*
X-13285714Y-35907200D02*
X-13380952Y-35954819D01*
X-13380952Y-35954819D02*
X-13619047Y-35954819D01*
X-13619047Y-35954819D02*
X-13714285Y-35907200D01*
X-13714285Y-35907200D02*
X-13761904Y-35859580D01*
X-761904Y-34954819D02*
X-761904Y-35764342D01*
X-761904Y-35764342D02*
X-714285Y-35859580D01*
X-714285Y-35859580D02*
X-666666Y-35907200D01*
X-666666Y-35907200D02*
X-571428Y-35954819D01*
X-571428Y-35954819D02*
X-380952Y-35954819D01*
X-380952Y-35954819D02*
X-285714Y-35907200D01*
X-285714Y-35907200D02*
X-238095Y-35859580D01*
X-238095Y-35859580D02*
X-190476Y-35764342D01*
X-190476Y-35764342D02*
X-190476Y-34954819D01*
X714285Y-34954819D02*
X523809Y-34954819D01*
X523809Y-34954819D02*
X428571Y-35002438D01*
X428571Y-35002438D02*
X380952Y-35050057D01*
X380952Y-35050057D02*
X285714Y-35192914D01*
X285714Y-35192914D02*
X238095Y-35383390D01*
X238095Y-35383390D02*
X238095Y-35764342D01*
X238095Y-35764342D02*
X285714Y-35859580D01*
X285714Y-35859580D02*
X333333Y-35907200D01*
X333333Y-35907200D02*
X428571Y-35954819D01*
X428571Y-35954819D02*
X619047Y-35954819D01*
X619047Y-35954819D02*
X714285Y-35907200D01*
X714285Y-35907200D02*
X761904Y-35859580D01*
X761904Y-35859580D02*
X809523Y-35764342D01*
X809523Y-35764342D02*
X809523Y-35526247D01*
X809523Y-35526247D02*
X761904Y-35431009D01*
X761904Y-35431009D02*
X714285Y-35383390D01*
X714285Y-35383390D02*
X619047Y-35335771D01*
X619047Y-35335771D02*
X428571Y-35335771D01*
X428571Y-35335771D02*
X333333Y-35383390D01*
X333333Y-35383390D02*
X285714Y-35431009D01*
X285714Y-35431009D02*
X238095Y-35526247D01*
X13238095Y-34954819D02*
X13238095Y-35764342D01*
X13238095Y-35764342D02*
X13285714Y-35859580D01*
X13285714Y-35859580D02*
X13333333Y-35907200D01*
X13333333Y-35907200D02*
X13428571Y-35954819D01*
X13428571Y-35954819D02*
X13619047Y-35954819D01*
X13619047Y-35954819D02*
X13714285Y-35907200D01*
X13714285Y-35907200D02*
X13761904Y-35859580D01*
X13761904Y-35859580D02*
X13809523Y-35764342D01*
X13809523Y-35764342D02*
X13809523Y-34954819D01*
X14190476Y-34954819D02*
X14857142Y-34954819D01*
X14857142Y-34954819D02*
X14428571Y-35954819D01*
X-761904Y5545180D02*
X-761904Y4735657D01*
X-761904Y4735657D02*
X-714285Y4640419D01*
X-714285Y4640419D02*
X-666666Y4592800D01*
X-666666Y4592800D02*
X-571428Y4545180D01*
X-571428Y4545180D02*
X-380952Y4545180D01*
X-380952Y4545180D02*
X-285714Y4592800D01*
X-285714Y4592800D02*
X-238095Y4640419D01*
X-238095Y4640419D02*
X-190476Y4735657D01*
X-190476Y4735657D02*
X-190476Y5545180D01*
X809523Y4545180D02*
X238095Y4545180D01*
X523809Y4545180D02*
X523809Y5545180D01*
X523809Y5545180D02*
X428571Y5402323D01*
X428571Y5402323D02*
X333333Y5307085D01*
X333333Y5307085D02*
X238095Y5259466D01*
X48913176Y13712580D02*
X48913176Y14712580D01*
X48913176Y14712580D02*
X49246509Y13998295D01*
X49246509Y13998295D02*
X49579842Y14712580D01*
X49579842Y14712580D02*
X49579842Y13712580D01*
X50579842Y13712580D02*
X50008414Y13712580D01*
X50294128Y13712580D02*
X50294128Y14712580D01*
X50294128Y14712580D02*
X50198890Y14569723D01*
X50198890Y14569723D02*
X50103652Y14474485D01*
X50103652Y14474485D02*
X50008414Y14426866D01*
X-18256313Y-14600419D02*
X-18256313Y-13600419D01*
X-18256313Y-13600419D02*
X-17922980Y-14314704D01*
X-17922980Y-14314704D02*
X-17589647Y-13600419D01*
X-17589647Y-13600419D02*
X-17589647Y-14600419D01*
X-16589647Y-14600419D02*
X-17161075Y-14600419D01*
X-16875361Y-14600419D02*
X-16875361Y-13600419D01*
X-16875361Y-13600419D02*
X-16970599Y-13743276D01*
X-16970599Y-13743276D02*
X-17065837Y-13838514D01*
X-17065837Y-13838514D02*
X-17161075Y-13886133D01*
X-15970599Y-13600419D02*
X-15875361Y-13600419D01*
X-15875361Y-13600419D02*
X-15780123Y-13648038D01*
X-15780123Y-13648038D02*
X-15732504Y-13695657D01*
X-15732504Y-13695657D02*
X-15684885Y-13790895D01*
X-15684885Y-13790895D02*
X-15637266Y-13981371D01*
X-15637266Y-13981371D02*
X-15637266Y-14219466D01*
X-15637266Y-14219466D02*
X-15684885Y-14409942D01*
X-15684885Y-14409942D02*
X-15732504Y-14505180D01*
X-15732504Y-14505180D02*
X-15780123Y-14552800D01*
X-15780123Y-14552800D02*
X-15875361Y-14600419D01*
X-15875361Y-14600419D02*
X-15970599Y-14600419D01*
X-15970599Y-14600419D02*
X-16065837Y-14552800D01*
X-16065837Y-14552800D02*
X-16113456Y-14505180D01*
X-16113456Y-14505180D02*
X-16161075Y-14409942D01*
X-16161075Y-14409942D02*
X-16208694Y-14219466D01*
X-16208694Y-14219466D02*
X-16208694Y-13981371D01*
X-16208694Y-13981371D02*
X-16161075Y-13790895D01*
X-16161075Y-13790895D02*
X-16113456Y-13695657D01*
X-16113456Y-13695657D02*
X-16065837Y-13648038D01*
X-16065837Y-13648038D02*
X-15970599Y-13600419D01*
X-24467913Y8581880D02*
X-24467913Y9581880D01*
X-24467913Y9581880D02*
X-24134580Y8867595D01*
X-24134580Y8867595D02*
X-23801247Y9581880D01*
X-23801247Y9581880D02*
X-23801247Y8581880D01*
X-22801247Y8581880D02*
X-23372675Y8581880D01*
X-23086961Y8581880D02*
X-23086961Y9581880D01*
X-23086961Y9581880D02*
X-23182199Y9439023D01*
X-23182199Y9439023D02*
X-23277437Y9343785D01*
X-23277437Y9343785D02*
X-23372675Y9296166D01*
X-21848866Y8581880D02*
X-22420294Y8581880D01*
X-22134580Y8581880D02*
X-22134580Y9581880D01*
X-22134580Y9581880D02*
X-22229818Y9439023D01*
X-22229818Y9439023D02*
X-22325056Y9343785D01*
X-22325056Y9343785D02*
X-22420294Y9296166D01*
X-7497413Y25552380D02*
X-7497413Y26552380D01*
X-7497413Y26552380D02*
X-7164080Y25838095D01*
X-7164080Y25838095D02*
X-6830747Y26552380D01*
X-6830747Y26552380D02*
X-6830747Y25552380D01*
X-5830747Y25552380D02*
X-6402175Y25552380D01*
X-6116461Y25552380D02*
X-6116461Y26552380D01*
X-6116461Y26552380D02*
X-6211699Y26409523D01*
X-6211699Y26409523D02*
X-6306937Y26314285D01*
X-6306937Y26314285D02*
X-6402175Y26266666D01*
X-5449794Y26457142D02*
X-5402175Y26504761D01*
X-5402175Y26504761D02*
X-5306937Y26552380D01*
X-5306937Y26552380D02*
X-5068842Y26552380D01*
X-5068842Y26552380D02*
X-4973604Y26504761D01*
X-4973604Y26504761D02*
X-4925985Y26457142D01*
X-4925985Y26457142D02*
X-4878366Y26361904D01*
X-4878366Y26361904D02*
X-4878366Y26266666D01*
X-4878366Y26266666D02*
X-4925985Y26123809D01*
X-4925985Y26123809D02*
X-5497413Y25552380D01*
X-5497413Y25552380D02*
X-4878366Y25552380D01*
X15684886Y19340780D02*
X15684886Y20340780D01*
X15684886Y20340780D02*
X16018219Y19626495D01*
X16018219Y19626495D02*
X16351552Y20340780D01*
X16351552Y20340780D02*
X16351552Y19340780D01*
X17351552Y19340780D02*
X16780124Y19340780D01*
X17065838Y19340780D02*
X17065838Y20340780D01*
X17065838Y20340780D02*
X16970600Y20197923D01*
X16970600Y20197923D02*
X16875362Y20102685D01*
X16875362Y20102685D02*
X16780124Y20055066D01*
X17684886Y20340780D02*
X18303933Y20340780D01*
X18303933Y20340780D02*
X17970600Y19959828D01*
X17970600Y19959828D02*
X18113457Y19959828D01*
X18113457Y19959828D02*
X18208695Y19912209D01*
X18208695Y19912209D02*
X18256314Y19864590D01*
X18256314Y19864590D02*
X18303933Y19769352D01*
X18303933Y19769352D02*
X18303933Y19531257D01*
X18303933Y19531257D02*
X18256314Y19436019D01*
X18256314Y19436019D02*
X18208695Y19388400D01*
X18208695Y19388400D02*
X18113457Y19340780D01*
X18113457Y19340780D02*
X17827743Y19340780D01*
X17827743Y19340780D02*
X17732505Y19388400D01*
X17732505Y19388400D02*
X17684886Y19436019D01*
X39059876Y-29432719D02*
X39059876Y-28432719D01*
X39059876Y-28432719D02*
X39393209Y-29147004D01*
X39393209Y-29147004D02*
X39726542Y-28432719D01*
X39726542Y-28432719D02*
X39726542Y-29432719D01*
X40155114Y-28527957D02*
X40202733Y-28480338D01*
X40202733Y-28480338D02*
X40297971Y-28432719D01*
X40297971Y-28432719D02*
X40536066Y-28432719D01*
X40536066Y-28432719D02*
X40631304Y-28480338D01*
X40631304Y-28480338D02*
X40678923Y-28527957D01*
X40678923Y-28527957D02*
X40726542Y-28623195D01*
X40726542Y-28623195D02*
X40726542Y-28718433D01*
X40726542Y-28718433D02*
X40678923Y-28861290D01*
X40678923Y-28861290D02*
X40107495Y-29432719D01*
X40107495Y-29432719D02*
X40726542Y-29432719D01*
X-815923Y-48629819D02*
X-815923Y-47629819D01*
X-815923Y-47629819D02*
X-482590Y-48344104D01*
X-482590Y-48344104D02*
X-149257Y-47629819D01*
X-149257Y-47629819D02*
X-149257Y-48629819D01*
X231695Y-47629819D02*
X850742Y-47629819D01*
X850742Y-47629819D02*
X517409Y-48010771D01*
X517409Y-48010771D02*
X660266Y-48010771D01*
X660266Y-48010771D02*
X755504Y-48058390D01*
X755504Y-48058390D02*
X803123Y-48106009D01*
X803123Y-48106009D02*
X850742Y-48201247D01*
X850742Y-48201247D02*
X850742Y-48439342D01*
X850742Y-48439342D02*
X803123Y-48534580D01*
X803123Y-48534580D02*
X755504Y-48582200D01*
X755504Y-48582200D02*
X660266Y-48629819D01*
X660266Y-48629819D02*
X374552Y-48629819D01*
X374552Y-48629819D02*
X279314Y-48582200D01*
X279314Y-48582200D02*
X231695Y-48534580D01*
X-40686923Y-29422819D02*
X-40686923Y-28422819D01*
X-40686923Y-28422819D02*
X-40353590Y-29137104D01*
X-40353590Y-29137104D02*
X-40020257Y-28422819D01*
X-40020257Y-28422819D02*
X-40020257Y-29422819D01*
X-39115495Y-28756152D02*
X-39115495Y-29422819D01*
X-39353590Y-28375200D02*
X-39591685Y-29089485D01*
X-39591685Y-29089485D02*
X-38972638Y-29089485D01*
X-50529423Y13724980D02*
X-50529423Y14724980D01*
X-50529423Y14724980D02*
X-50196090Y14010695D01*
X-50196090Y14010695D02*
X-49862757Y14724980D01*
X-49862757Y14724980D02*
X-49862757Y13724980D01*
X-48910376Y14724980D02*
X-49386566Y14724980D01*
X-49386566Y14724980D02*
X-49434185Y14248790D01*
X-49434185Y14248790D02*
X-49386566Y14296409D01*
X-49386566Y14296409D02*
X-49291328Y14344028D01*
X-49291328Y14344028D02*
X-49053233Y14344028D01*
X-49053233Y14344028D02*
X-48957995Y14296409D01*
X-48957995Y14296409D02*
X-48910376Y14248790D01*
X-48910376Y14248790D02*
X-48862757Y14153552D01*
X-48862757Y14153552D02*
X-48862757Y13915457D01*
X-48862757Y13915457D02*
X-48910376Y13820219D01*
X-48910376Y13820219D02*
X-48957995Y13772600D01*
X-48957995Y13772600D02*
X-49053233Y13724980D01*
X-49053233Y13724980D02*
X-49291328Y13724980D01*
X-49291328Y13724980D02*
X-49386566Y13772600D01*
X-49386566Y13772600D02*
X-49434185Y13820219D01*
X-22931823Y48322380D02*
X-22931823Y49322380D01*
X-22931823Y49322380D02*
X-22598490Y48608095D01*
X-22598490Y48608095D02*
X-22265157Y49322380D01*
X-22265157Y49322380D02*
X-22265157Y48322380D01*
X-21360395Y49322380D02*
X-21550871Y49322380D01*
X-21550871Y49322380D02*
X-21646109Y49274761D01*
X-21646109Y49274761D02*
X-21693728Y49227142D01*
X-21693728Y49227142D02*
X-21788966Y49084285D01*
X-21788966Y49084285D02*
X-21836585Y48893809D01*
X-21836585Y48893809D02*
X-21836585Y48512857D01*
X-21836585Y48512857D02*
X-21788966Y48417619D01*
X-21788966Y48417619D02*
X-21741347Y48370000D01*
X-21741347Y48370000D02*
X-21646109Y48322380D01*
X-21646109Y48322380D02*
X-21455633Y48322380D01*
X-21455633Y48322380D02*
X-21360395Y48370000D01*
X-21360395Y48370000D02*
X-21312776Y48417619D01*
X-21312776Y48417619D02*
X-21265157Y48512857D01*
X-21265157Y48512857D02*
X-21265157Y48750952D01*
X-21265157Y48750952D02*
X-21312776Y48846190D01*
X-21312776Y48846190D02*
X-21360395Y48893809D01*
X-21360395Y48893809D02*
X-21455633Y48941428D01*
X-21455633Y48941428D02*
X-21646109Y48941428D01*
X-21646109Y48941428D02*
X-21741347Y48893809D01*
X-21741347Y48893809D02*
X-21788966Y48846190D01*
X-21788966Y48846190D02*
X-21836585Y48750952D01*
X21324276Y48316880D02*
X21324276Y49316880D01*
X21324276Y49316880D02*
X21657609Y48602595D01*
X21657609Y48602595D02*
X21990942Y49316880D01*
X21990942Y49316880D02*
X21990942Y48316880D01*
X22371895Y49316880D02*
X23038561Y49316880D01*
X23038561Y49316880D02*
X22609990Y48316880D01*
X22372676Y-3841519D02*
X22372676Y-2841519D01*
X22372676Y-2841519D02*
X22706009Y-3555804D01*
X22706009Y-3555804D02*
X23039342Y-2841519D01*
X23039342Y-2841519D02*
X23039342Y-3841519D01*
X23658390Y-3270090D02*
X23563152Y-3222471D01*
X23563152Y-3222471D02*
X23515533Y-3174852D01*
X23515533Y-3174852D02*
X23467914Y-3079614D01*
X23467914Y-3079614D02*
X23467914Y-3031995D01*
X23467914Y-3031995D02*
X23515533Y-2936757D01*
X23515533Y-2936757D02*
X23563152Y-2889138D01*
X23563152Y-2889138D02*
X23658390Y-2841519D01*
X23658390Y-2841519D02*
X23848866Y-2841519D01*
X23848866Y-2841519D02*
X23944104Y-2889138D01*
X23944104Y-2889138D02*
X23991723Y-2936757D01*
X23991723Y-2936757D02*
X24039342Y-3031995D01*
X24039342Y-3031995D02*
X24039342Y-3079614D01*
X24039342Y-3079614D02*
X23991723Y-3174852D01*
X23991723Y-3174852D02*
X23944104Y-3222471D01*
X23944104Y-3222471D02*
X23848866Y-3270090D01*
X23848866Y-3270090D02*
X23658390Y-3270090D01*
X23658390Y-3270090D02*
X23563152Y-3317709D01*
X23563152Y-3317709D02*
X23515533Y-3365328D01*
X23515533Y-3365328D02*
X23467914Y-3460566D01*
X23467914Y-3460566D02*
X23467914Y-3651042D01*
X23467914Y-3651042D02*
X23515533Y-3746280D01*
X23515533Y-3746280D02*
X23563152Y-3793900D01*
X23563152Y-3793900D02*
X23658390Y-3841519D01*
X23658390Y-3841519D02*
X23848866Y-3841519D01*
X23848866Y-3841519D02*
X23944104Y-3793900D01*
X23944104Y-3793900D02*
X23991723Y-3746280D01*
X23991723Y-3746280D02*
X24039342Y-3651042D01*
X24039342Y-3651042D02*
X24039342Y-3460566D01*
X24039342Y-3460566D02*
X23991723Y-3365328D01*
X23991723Y-3365328D02*
X23944104Y-3317709D01*
X23944104Y-3317709D02*
X23848866Y-3270090D01*
X5402176Y-20812019D02*
X5402176Y-19812019D01*
X5402176Y-19812019D02*
X5735509Y-20526304D01*
X5735509Y-20526304D02*
X6068842Y-19812019D01*
X6068842Y-19812019D02*
X6068842Y-20812019D01*
X6592652Y-20812019D02*
X6783128Y-20812019D01*
X6783128Y-20812019D02*
X6878366Y-20764400D01*
X6878366Y-20764400D02*
X6925985Y-20716780D01*
X6925985Y-20716780D02*
X7021223Y-20573923D01*
X7021223Y-20573923D02*
X7068842Y-20383447D01*
X7068842Y-20383447D02*
X7068842Y-20002495D01*
X7068842Y-20002495D02*
X7021223Y-19907257D01*
X7021223Y-19907257D02*
X6973604Y-19859638D01*
X6973604Y-19859638D02*
X6878366Y-19812019D01*
X6878366Y-19812019D02*
X6687890Y-19812019D01*
X6687890Y-19812019D02*
X6592652Y-19859638D01*
X6592652Y-19859638D02*
X6545033Y-19907257D01*
X6545033Y-19907257D02*
X6497414Y-20002495D01*
X6497414Y-20002495D02*
X6497414Y-20240590D01*
X6497414Y-20240590D02*
X6545033Y-20335828D01*
X6545033Y-20335828D02*
X6592652Y-20383447D01*
X6592652Y-20383447D02*
X6687890Y-20431066D01*
X6687890Y-20431066D02*
X6878366Y-20431066D01*
X6878366Y-20431066D02*
X6973604Y-20383447D01*
X6973604Y-20383447D02*
X7021223Y-20335828D01*
X7021223Y-20335828D02*
X7068842Y-20240590D01*
X-333333Y57560180D02*
X-333333Y56845895D01*
X-333333Y56845895D02*
X-380952Y56703038D01*
X-380952Y56703038D02*
X-476190Y56607800D01*
X-476190Y56607800D02*
X-619047Y56560180D01*
X-619047Y56560180D02*
X-714285Y56560180D01*
X666666Y56560180D02*
X95238Y56560180D01*
X380952Y56560180D02*
X380952Y57560180D01*
X380952Y57560180D02*
X285714Y57417323D01*
X285714Y57417323D02*
X190476Y57322085D01*
X190476Y57322085D02*
X95238Y57274466D01*
%TO.C,U2*%
D13*
X11400000Y2600000D02*
X16600000Y2600000D01*
X11400000Y-2600000D02*
X11400000Y2600000D01*
X16600000Y2600000D02*
X16600000Y-2600000D01*
X16600000Y-2600000D02*
X11400000Y-2600000D01*
D14*
X11137500Y3000000D02*
G75*
G02*
X10862500Y3000000I-137500J0D01*
G01*
X10862500Y3000000D02*
G75*
G02*
X11137500Y3000000I137500J0D01*
G01*
%TO.C,C1*%
D13*
X-13140580Y-49490000D02*
X-12859420Y-49490000D01*
X-13140580Y-50510000D02*
X-12859420Y-50510000D01*
%TO.C,C4*%
X-13140580Y-29490000D02*
X-12859420Y-29490000D01*
X-13140580Y-30510000D02*
X-12859420Y-30510000D01*
%TO.C,C5*%
X-140580Y-29490000D02*
X140580Y-29490000D01*
X-140580Y-30510000D02*
X140580Y-30510000D01*
%TO.C,C6*%
X12859420Y-29490000D02*
X13140580Y-29490000D01*
X12859420Y-30510000D02*
X13140580Y-30510000D01*
%TO.C,C2*%
X6650720Y-49490000D02*
X6931880Y-49490000D01*
X6650720Y-50510000D02*
X6931880Y-50510000D01*
%TO.C,C3*%
X12859420Y-49490000D02*
X13140580Y-49490000D01*
X12859420Y-50510000D02*
X13140580Y-50510000D01*
%TO.C,U4*%
X-35110000Y-9890000D02*
X-34160000Y-9890000D01*
X-35110000Y-10840000D02*
X-35110000Y-9890000D01*
X-35110000Y-20110000D02*
X-35110000Y-19160000D01*
X-34160000Y-20110000D02*
X-35110000Y-20110000D01*
X-25840000Y-9890000D02*
X-24890000Y-9890000D01*
X-24890000Y-9890000D02*
X-24890000Y-10840000D01*
X-24890000Y-19160000D02*
X-24890000Y-20110000D01*
X-24890000Y-20110000D02*
X-25840000Y-20110000D01*
X-35750000Y-10840000D02*
X-36090000Y-10370000D01*
X-35410000Y-10370000D01*
X-35750000Y-10840000D01*
G36*
X-35750000Y-10840000D02*
G01*
X-36090000Y-10370000D01*
X-35410000Y-10370000D01*
X-35750000Y-10840000D01*
G37*
%TO.C,U3*%
X-39610000Y10610000D02*
X-39135000Y10610000D01*
X-39610000Y10135000D02*
X-39610000Y10610000D01*
X-39610000Y5390000D02*
X-39610000Y5865000D01*
X-39135000Y5390000D02*
X-39610000Y5390000D01*
X-34865000Y10610000D02*
X-34390000Y10610000D01*
X-34390000Y10610000D02*
X-34390000Y10135000D01*
X-34390000Y5865000D02*
X-34390000Y5390000D01*
X-34390000Y5390000D02*
X-34865000Y5390000D01*
X-40140000Y9750000D02*
X-40470000Y9510000D01*
X-40470000Y9990000D01*
X-40140000Y9750000D01*
G36*
X-40140000Y9750000D02*
G01*
X-40470000Y9510000D01*
X-40470000Y9990000D01*
X-40140000Y9750000D01*
G37*
%TO.C,C12*%
X20892164Y4360000D02*
X21107836Y4360000D01*
X20892164Y3640000D02*
X21107836Y3640000D01*
%TO.C,C14*%
X-30107836Y-25640000D02*
X-29892164Y-25640000D01*
X-30107836Y-26360000D02*
X-29892164Y-26360000D01*
%TO.C,C15*%
X-43107836Y1360000D02*
X-42892164Y1360000D01*
X-43107836Y640000D02*
X-42892164Y640000D01*
%TO.C,C13*%
X20892164Y329800D02*
X21107836Y329800D01*
X20892164Y-390200D02*
X21107836Y-390200D01*
%TO.C,C11*%
X4892164Y8360000D02*
X5107836Y8360000D01*
X4892164Y7640000D02*
X5107836Y7640000D01*
%TO.C,C10*%
X-12107836Y4360000D02*
X-11892164Y4360000D01*
X-12107836Y3640000D02*
X-11892164Y3640000D01*
%TO.C,U5*%
X-15850000Y-36590000D02*
X-12090000Y-36590000D01*
X-15850000Y-43410000D02*
X-12090000Y-43410000D01*
X-12090000Y-36590000D02*
X-12090000Y-37850000D01*
X-12090000Y-43410000D02*
X-12090000Y-42150000D01*
X-17130000Y-36690000D02*
X-17370000Y-36360000D01*
X-16890000Y-36360000D01*
X-17130000Y-36690000D01*
G36*
X-17130000Y-36690000D02*
G01*
X-17370000Y-36360000D01*
X-16890000Y-36360000D01*
X-17130000Y-36690000D01*
G37*
%TO.C,U6*%
X-1850000Y-36590000D02*
X1910000Y-36590000D01*
X-1850000Y-43410000D02*
X1910000Y-43410000D01*
X1910000Y-36590000D02*
X1910000Y-37850000D01*
X1910000Y-43410000D02*
X1910000Y-42150000D01*
X-3130000Y-36690000D02*
X-3370000Y-36360000D01*
X-2890000Y-36360000D01*
X-3130000Y-36690000D01*
G36*
X-3130000Y-36690000D02*
G01*
X-3370000Y-36360000D01*
X-2890000Y-36360000D01*
X-3130000Y-36690000D01*
G37*
%TO.C,U7*%
X12150000Y-36590000D02*
X15910000Y-36590000D01*
X12150000Y-43410000D02*
X15910000Y-43410000D01*
X15910000Y-36590000D02*
X15910000Y-37850000D01*
X15910000Y-43410000D02*
X15910000Y-42150000D01*
X10870000Y-36690000D02*
X10630000Y-36360000D01*
X11110000Y-36360000D01*
X10870000Y-36690000D01*
G36*
X10870000Y-36690000D02*
G01*
X10630000Y-36360000D01*
X11110000Y-36360000D01*
X10870000Y-36690000D01*
G37*
%TO.C,U1*%
X-3600000Y3600000D02*
X3600000Y3600000D01*
X-3600000Y-3600000D02*
X-3600000Y3600000D01*
X3600000Y3600000D02*
X3600000Y-3600000D01*
X3600000Y-3600000D02*
X-3600000Y-3600000D01*
D14*
X-3862500Y4000000D02*
G75*
G02*
X-4137500Y4000000I-137500J0D01*
G01*
X-4137500Y4000000D02*
G75*
G02*
X-3862500Y4000000I137500J0D01*
G01*
%TO.C,M1*%
D13*
X47872700Y12767400D02*
X51572700Y12767400D01*
X47872700Y9917400D02*
X47872700Y12767400D01*
X51572700Y12767400D02*
X51572700Y9917400D01*
X51572700Y9917400D02*
X47872700Y9917400D01*
D14*
X47610200Y13167400D02*
G75*
G02*
X47335200Y13167400I-137500J0D01*
G01*
X47335200Y13167400D02*
G75*
G02*
X47610200Y13167400I137500J0D01*
G01*
%TO.C,M10*%
D13*
X-18820600Y-15545600D02*
X-15120600Y-15545600D01*
X-18820600Y-18395600D02*
X-18820600Y-15545600D01*
X-15120600Y-15545600D02*
X-15120600Y-18395600D01*
X-15120600Y-18395600D02*
X-18820600Y-18395600D01*
D14*
X-19083100Y-15145600D02*
G75*
G02*
X-19358100Y-15145600I-137500J0D01*
G01*
X-19358100Y-15145600D02*
G75*
G02*
X-19083100Y-15145600I137500J0D01*
G01*
%TO.C,M11*%
D13*
X-25032200Y7636700D02*
X-21332200Y7636700D01*
X-25032200Y4786700D02*
X-25032200Y7636700D01*
X-21332200Y7636700D02*
X-21332200Y4786700D01*
X-21332200Y4786700D02*
X-25032200Y4786700D01*
D14*
X-25294700Y8036700D02*
G75*
G02*
X-25569700Y8036700I-137500J0D01*
G01*
X-25569700Y8036700D02*
G75*
G02*
X-25294700Y8036700I137500J0D01*
G01*
%TO.C,M12*%
D13*
X-8061700Y24607200D02*
X-4361700Y24607200D01*
X-8061700Y21757200D02*
X-8061700Y24607200D01*
X-4361700Y24607200D02*
X-4361700Y21757200D01*
X-4361700Y21757200D02*
X-8061700Y21757200D01*
D14*
X-8324200Y25007200D02*
G75*
G02*
X-8599200Y25007200I-137500J0D01*
G01*
X-8599200Y25007200D02*
G75*
G02*
X-8324200Y25007200I137500J0D01*
G01*
%TO.C,M13*%
D13*
X15120600Y18395600D02*
X18820600Y18395600D01*
X15120600Y15545600D02*
X15120600Y18395600D01*
X18820600Y18395600D02*
X18820600Y15545600D01*
X18820600Y15545600D02*
X15120600Y15545600D01*
D14*
X14858100Y18795600D02*
G75*
G02*
X14583100Y18795600I-137500J0D01*
G01*
X14583100Y18795600D02*
G75*
G02*
X14858100Y18795600I137500J0D01*
G01*
%TO.C,M2*%
D13*
X38019400Y-30377900D02*
X41719400Y-30377900D01*
X38019400Y-33227900D02*
X38019400Y-30377900D01*
X41719400Y-30377900D02*
X41719400Y-33227900D01*
X41719400Y-33227900D02*
X38019400Y-33227900D01*
D14*
X37756900Y-29977900D02*
G75*
G02*
X37481900Y-29977900I-137500J0D01*
G01*
X37481900Y-29977900D02*
G75*
G02*
X37756900Y-29977900I137500J0D01*
G01*
%TO.C,M3*%
D13*
X-1856400Y-49575000D02*
X1843600Y-49575000D01*
X-1856400Y-52425000D02*
X-1856400Y-49575000D01*
X1843600Y-49575000D02*
X1843600Y-52425000D01*
X1843600Y-52425000D02*
X-1856400Y-52425000D01*
D14*
X-2118900Y-49175000D02*
G75*
G02*
X-2393900Y-49175000I-137500J0D01*
G01*
X-2393900Y-49175000D02*
G75*
G02*
X-2118900Y-49175000I137500J0D01*
G01*
%TO.C,M4*%
D13*
X-41727400Y-30368000D02*
X-38027400Y-30368000D01*
X-41727400Y-33218000D02*
X-41727400Y-30368000D01*
X-38027400Y-30368000D02*
X-38027400Y-33218000D01*
X-38027400Y-33218000D02*
X-41727400Y-33218000D01*
D14*
X-41989900Y-29968000D02*
G75*
G02*
X-42264900Y-29968000I-137500J0D01*
G01*
X-42264900Y-29968000D02*
G75*
G02*
X-41989900Y-29968000I137500J0D01*
G01*
%TO.C,M5*%
D13*
X-51569900Y12779800D02*
X-47869900Y12779800D01*
X-51569900Y9929800D02*
X-51569900Y12779800D01*
X-47869900Y12779800D02*
X-47869900Y9929800D01*
X-47869900Y9929800D02*
X-51569900Y9929800D01*
D14*
X-51832400Y13179800D02*
G75*
G02*
X-52107400Y13179800I-137500J0D01*
G01*
X-52107400Y13179800D02*
G75*
G02*
X-51832400Y13179800I137500J0D01*
G01*
%TO.C,M6*%
D13*
X-23972300Y47377200D02*
X-20272300Y47377200D01*
X-23972300Y44527200D02*
X-23972300Y47377200D01*
X-20272300Y47377200D02*
X-20272300Y44527200D01*
X-20272300Y44527200D02*
X-23972300Y44527200D01*
D14*
X-24234800Y47777200D02*
G75*
G02*
X-24509800Y47777200I-137500J0D01*
G01*
X-24509800Y47777200D02*
G75*
G02*
X-24234800Y47777200I137500J0D01*
G01*
%TO.C,M7*%
D13*
X20283800Y47371700D02*
X23983800Y47371700D01*
X20283800Y44521700D02*
X20283800Y47371700D01*
X23983800Y47371700D02*
X23983800Y44521700D01*
X23983800Y44521700D02*
X20283800Y44521700D01*
D14*
X20021300Y47771700D02*
G75*
G02*
X19746300Y47771700I-137500J0D01*
G01*
X19746300Y47771700D02*
G75*
G02*
X20021300Y47771700I137500J0D01*
G01*
%TO.C,M8*%
D13*
X21332200Y-4786700D02*
X25032200Y-4786700D01*
X21332200Y-7636700D02*
X21332200Y-4786700D01*
X25032200Y-4786700D02*
X25032200Y-7636700D01*
X25032200Y-7636700D02*
X21332200Y-7636700D01*
D14*
X21069700Y-4386700D02*
G75*
G02*
X20794700Y-4386700I-137500J0D01*
G01*
X20794700Y-4386700D02*
G75*
G02*
X21069700Y-4386700I137500J0D01*
G01*
%TO.C,M9*%
D13*
X4361700Y-21757200D02*
X8061700Y-21757200D01*
X4361700Y-24607200D02*
X4361700Y-21757200D01*
X8061700Y-21757200D02*
X8061700Y-24607200D01*
X8061700Y-24607200D02*
X4361700Y-24607200D01*
D14*
X4099200Y-21357200D02*
G75*
G02*
X3824200Y-21357200I-137500J0D01*
G01*
X3824200Y-21357200D02*
G75*
G02*
X4099200Y-21357200I137500J0D01*
G01*
%TO.C,J1*%
D13*
X-4580000Y52435000D02*
X-4580000Y53845000D01*
X-3760000Y56515000D02*
X-3760000Y56365000D01*
X-2960000Y56515000D02*
X-3760000Y56515000D01*
X4580000Y52435000D02*
X4580000Y53845000D01*
%TD*%
M02*
