%TF.GenerationSoftware,KiCad,Pcbnew,10.0.5*%
%TF.CreationDate,2026-08-04T09:00:20-07:00*%
%TF.ProjectId,palpod-mic-array-real,70616c70-6f64-42d6-9d69-632d61727261,A0*%
%TF.SameCoordinates,Original*%
%TF.FileFunction,Paste,Top*%
%TF.FilePolarity,Positive*%
%FSLAX46Y46*%
G04 Gerber Fmt 4.6, Leading zero omitted, Abs format (unit mm)*
G04 Created by KiCad (PCBNEW 10.0.5) date 2026-08-04 09:00:20*
%MOMM*%
%LPD*%
G01*
G04 APERTURE LIST*
G04 Aperture macros list*
%AMRoundRect*
0 Rectangle with rounded corners*
0 $1 Rounding radius*
0 $2 $3 $4 $5 $6 $7 $8 $9 X,Y pos of 4 corners*
0 Add a 4 corners polygon primitive as box body*
4,1,4,$2,$3,$4,$5,$6,$7,$8,$9,$2,$3,0*
0 Add four circle primitives for the rounded corners*
1,1,$1+$1,$2,$3*
1,1,$1+$1,$4,$5*
1,1,$1+$1,$6,$7*
1,1,$1+$1,$8,$9*
0 Add four rect primitives between the rounded corners*
20,1,$1+$1,$2,$3,$4,$5,0*
20,1,$1+$1,$4,$5,$6,$7,0*
20,1,$1+$1,$6,$7,$8,$9,0*
20,1,$1+$1,$8,$9,$2,$3,0*%
G04 Aperture macros list end*
%ADD10R,0.300000X0.500000*%
%ADD11R,0.500000X0.300000*%
%ADD12R,3.000000X3.000000*%
%ADD13RoundRect,0.225000X-0.225000X-0.250000X0.225000X-0.250000X0.225000X0.250000X-0.225000X0.250000X0*%
%ADD14RoundRect,0.075000X-0.700000X-0.075000X0.700000X-0.075000X0.700000X0.075000X-0.700000X0.075000X0*%
%ADD15RoundRect,0.075000X-0.075000X-0.700000X0.075000X-0.700000X0.075000X0.700000X-0.075000X0.700000X0*%
%ADD16RoundRect,0.222500X-0.222500X-0.222500X0.222500X-0.222500X0.222500X0.222500X-0.222500X0.222500X0*%
%ADD17RoundRect,0.062500X-0.375000X-0.062500X0.375000X-0.062500X0.375000X0.062500X-0.375000X0.062500X0*%
%ADD18RoundRect,0.062500X-0.062500X-0.375000X0.062500X-0.375000X0.062500X0.375000X-0.062500X0.375000X0*%
%ADD19RoundRect,0.140000X-0.140000X-0.170000X0.140000X-0.170000X0.140000X0.170000X-0.140000X0.170000X0*%
%ADD20RoundRect,0.375000X-0.625000X-0.375000X0.625000X-0.375000X0.625000X0.375000X-0.625000X0.375000X0*%
%ADD21RoundRect,0.500000X-0.500000X-1.400000X0.500000X-1.400000X0.500000X1.400000X-0.500000X1.400000X0*%
%ADD22C,0.350000*%
%ADD23R,0.600000X0.600000*%
%ADD24RoundRect,0.150000X-0.150000X-0.425000X0.150000X-0.425000X0.150000X0.425000X-0.150000X0.425000X0*%
%ADD25RoundRect,0.075000X-0.075000X-0.500000X0.075000X-0.500000X0.075000X0.500000X-0.075000X0.500000X0*%
%ADD26RoundRect,0.250000X-0.840000X-0.750000X0.840000X-0.750000X0.840000X0.750000X-0.840000X0.750000X0*%
G04 APERTURE END LIST*
D10*
%TO.C,U2*%
X10000000Y-2350000D03*
X10500000Y-2350000D03*
X11000000Y-2350000D03*
X11500000Y-2350000D03*
X12000000Y-2350000D03*
X12500000Y-2350000D03*
X13000000Y-2350000D03*
X13500000Y-2350000D03*
X14000000Y-2350000D03*
X14500000Y-2350000D03*
X15000000Y-2350000D03*
X15500000Y-2350000D03*
X16000000Y-2350000D03*
X16500000Y-2350000D03*
X17000000Y-2350000D03*
X17500000Y-2350000D03*
X18000000Y-2350000D03*
D11*
X16350000Y-4000000D03*
X16350000Y-3500000D03*
X16350000Y-3000000D03*
X16350000Y-2500000D03*
X16350000Y-2000000D03*
X16350000Y-1500000D03*
X16350000Y-1000000D03*
X16350000Y-500000D03*
X16350000Y0D03*
X16350000Y500000D03*
X16350000Y1000000D03*
X16350000Y1500000D03*
X16350000Y2000000D03*
X16350000Y2500000D03*
X16350000Y3000000D03*
X16350000Y3500000D03*
X16350000Y4000000D03*
D10*
X18000000Y2350000D03*
X17500000Y2350000D03*
X17000000Y2350000D03*
X16500000Y2350000D03*
X16000000Y2350000D03*
X15500000Y2350000D03*
X15000000Y2350000D03*
X14500000Y2350000D03*
X14000000Y2350000D03*
X13500000Y2350000D03*
X13000000Y2350000D03*
X12500000Y2350000D03*
X12000000Y2350000D03*
X11500000Y2350000D03*
X11000000Y2350000D03*
X10500000Y2350000D03*
X10000000Y2350000D03*
D11*
X11650000Y4000000D03*
X11650000Y3500000D03*
X11650000Y3000000D03*
X11650000Y2500000D03*
X11650000Y2000000D03*
X11650000Y1500000D03*
X11650000Y1000000D03*
X11650000Y500000D03*
X11650000Y0D03*
X11650000Y-500000D03*
X11650000Y-1000000D03*
X11650000Y-1500000D03*
X11650000Y-2000000D03*
X11650000Y-2500000D03*
X11650000Y-3000000D03*
X11650000Y-3500000D03*
X11650000Y-4000000D03*
D12*
X14000000Y0D03*
%TD*%
D13*
%TO.C,C1*%
X-13775000Y-50000000D03*
X-12225000Y-50000000D03*
%TD*%
%TO.C,C4*%
X-13775000Y-30000000D03*
X-12225000Y-30000000D03*
%TD*%
%TO.C,C5*%
X-775000Y-30000000D03*
X775000Y-30000000D03*
%TD*%
%TO.C,C6*%
X12225000Y-30000000D03*
X13775000Y-30000000D03*
%TD*%
%TO.C,C2*%
X6016300Y-50000000D03*
X7566300Y-50000000D03*
%TD*%
%TO.C,C3*%
X12225000Y-50000000D03*
X13775000Y-50000000D03*
%TD*%
D14*
%TO.C,U4*%
X-35675000Y-11250000D03*
X-35675000Y-11750000D03*
X-35675000Y-12250000D03*
X-35675000Y-12750000D03*
X-35675000Y-13250000D03*
X-35675000Y-13750000D03*
X-35675000Y-14250000D03*
X-35675000Y-14750000D03*
X-35675000Y-15250000D03*
X-35675000Y-15750000D03*
X-35675000Y-16250000D03*
X-35675000Y-16750000D03*
X-35675000Y-17250000D03*
X-35675000Y-17750000D03*
X-35675000Y-18250000D03*
X-35675000Y-18750000D03*
D15*
X-33750000Y-20675000D03*
X-33250000Y-20675000D03*
X-32750000Y-20675000D03*
X-32250000Y-20675000D03*
X-31750000Y-20675000D03*
X-31250000Y-20675000D03*
X-30750000Y-20675000D03*
X-30250000Y-20675000D03*
X-29750000Y-20675000D03*
X-29250000Y-20675000D03*
X-28750000Y-20675000D03*
X-28250000Y-20675000D03*
X-27750000Y-20675000D03*
X-27250000Y-20675000D03*
X-26750000Y-20675000D03*
X-26250000Y-20675000D03*
D14*
X-24325000Y-18750000D03*
X-24325000Y-18250000D03*
X-24325000Y-17750000D03*
X-24325000Y-17250000D03*
X-24325000Y-16750000D03*
X-24325000Y-16250000D03*
X-24325000Y-15750000D03*
X-24325000Y-15250000D03*
X-24325000Y-14750000D03*
X-24325000Y-14250000D03*
X-24325000Y-13750000D03*
X-24325000Y-13250000D03*
X-24325000Y-12750000D03*
X-24325000Y-12250000D03*
X-24325000Y-11750000D03*
X-24325000Y-11250000D03*
D15*
X-26250000Y-9325000D03*
X-26750000Y-9325000D03*
X-27250000Y-9325000D03*
X-27750000Y-9325000D03*
X-28250000Y-9325000D03*
X-28750000Y-9325000D03*
X-29250000Y-9325000D03*
X-29750000Y-9325000D03*
X-30250000Y-9325000D03*
X-30750000Y-9325000D03*
X-31250000Y-9325000D03*
X-31750000Y-9325000D03*
X-32250000Y-9325000D03*
X-32750000Y-9325000D03*
X-33250000Y-9325000D03*
X-33750000Y-9325000D03*
%TD*%
D16*
%TO.C,U3*%
X-38100000Y9100000D03*
X-38100000Y8000000D03*
X-38100000Y6900000D03*
X-37000000Y9100000D03*
X-37000000Y8000000D03*
X-37000000Y6900000D03*
X-35900000Y9100000D03*
X-35900000Y8000000D03*
X-35900000Y6900000D03*
D17*
X-39437500Y9750000D03*
X-39437500Y9250000D03*
X-39437500Y8750000D03*
X-39437500Y8250000D03*
X-39437500Y7750000D03*
X-39437500Y7250000D03*
X-39437500Y6750000D03*
X-39437500Y6250000D03*
D18*
X-38750000Y5562500D03*
X-38250000Y5562500D03*
X-37750000Y5562500D03*
X-37250000Y5562500D03*
X-36750000Y5562500D03*
X-36250000Y5562500D03*
X-35750000Y5562500D03*
X-35250000Y5562500D03*
D17*
X-34562500Y6250000D03*
X-34562500Y6750000D03*
X-34562500Y7250000D03*
X-34562500Y7750000D03*
X-34562500Y8250000D03*
X-34562500Y8750000D03*
X-34562500Y9250000D03*
X-34562500Y9750000D03*
D18*
X-35250000Y10437500D03*
X-35750000Y10437500D03*
X-36250000Y10437500D03*
X-36750000Y10437500D03*
X-37250000Y10437500D03*
X-37750000Y10437500D03*
X-38250000Y10437500D03*
X-38750000Y10437500D03*
%TD*%
D19*
%TO.C,C12*%
X20520000Y4000000D03*
X21480000Y4000000D03*
%TD*%
%TO.C,C14*%
X-30480000Y-26000000D03*
X-29520000Y-26000000D03*
%TD*%
%TO.C,C15*%
X-43480000Y1000000D03*
X-42520000Y1000000D03*
%TD*%
%TO.C,C13*%
X20520000Y-30200D03*
X21480000Y-30200D03*
%TD*%
%TO.C,C11*%
X4520000Y8000000D03*
X5480000Y8000000D03*
%TD*%
%TO.C,C10*%
X-12480000Y4000000D03*
X-11520000Y4000000D03*
%TD*%
D20*
%TO.C,U5*%
X-17150000Y-37700000D03*
X-17150000Y-40000000D03*
D21*
X-10850000Y-40000000D03*
D20*
X-17150000Y-42300000D03*
%TD*%
%TO.C,U6*%
X-3150000Y-37700000D03*
X-3150000Y-40000000D03*
D21*
X3150000Y-40000000D03*
D20*
X-3150000Y-42300000D03*
%TD*%
%TO.C,U7*%
X10850000Y-37700000D03*
X10850000Y-40000000D03*
D21*
X17150000Y-40000000D03*
D20*
X10850000Y-42300000D03*
%TD*%
D22*
%TO.C,U1*%
X-2275000Y2275000D03*
X-1625000Y2275000D03*
X-975000Y2275000D03*
X-325000Y2275000D03*
X325000Y2275000D03*
X975000Y2275000D03*
X1625000Y2275000D03*
X-2275000Y1625000D03*
X-1625000Y1625000D03*
X-975000Y1625000D03*
X-325000Y1625000D03*
X325000Y1625000D03*
X975000Y1625000D03*
X1625000Y1625000D03*
X2275000Y1625000D03*
X-2275000Y975000D03*
X-1625000Y975000D03*
X-975000Y975000D03*
X-325000Y975000D03*
X325000Y975000D03*
X975000Y975000D03*
X1625000Y975000D03*
X2275000Y975000D03*
X-2275000Y325000D03*
X-1625000Y325000D03*
X-975000Y325000D03*
X-325000Y325000D03*
X325000Y325000D03*
X975000Y325000D03*
X1625000Y325000D03*
X2275000Y325000D03*
X-2275000Y-325000D03*
X-1625000Y-325000D03*
X-975000Y-325000D03*
X-325000Y-325000D03*
X325000Y-325000D03*
X975000Y-325000D03*
X1625000Y-325000D03*
X2275000Y-325000D03*
X-2275000Y-975000D03*
X-1625000Y-975000D03*
X-975000Y-975000D03*
X-325000Y-975000D03*
X325000Y-975000D03*
X975000Y-975000D03*
X1625000Y-975000D03*
X2275000Y-975000D03*
X-2275000Y-1625000D03*
X-1625000Y-1625000D03*
X-975000Y-1625000D03*
X-325000Y-1625000D03*
X325000Y-1625000D03*
X975000Y-1625000D03*
X1625000Y-1625000D03*
X2275000Y-1625000D03*
X-1625000Y-2275000D03*
X-975000Y-2275000D03*
X-325000Y-2275000D03*
X325000Y-2275000D03*
X975000Y-2275000D03*
X1625000Y-2275000D03*
%TD*%
D23*
%TO.C,M1*%
X48522700Y10592400D03*
X50922700Y10592400D03*
X50922700Y12092400D03*
X49722700Y12092400D03*
X48522700Y12092400D03*
%TD*%
%TO.C,M10*%
X-18170600Y-17720600D03*
X-15770600Y-17720600D03*
X-15770600Y-16220600D03*
X-16970600Y-16220600D03*
X-18170600Y-16220600D03*
%TD*%
%TO.C,M11*%
X-24382200Y5461700D03*
X-21982200Y5461700D03*
X-21982200Y6961700D03*
X-23182200Y6961700D03*
X-24382200Y6961700D03*
%TD*%
%TO.C,M12*%
X-7411700Y22432200D03*
X-5011700Y22432200D03*
X-5011700Y23932200D03*
X-6211700Y23932200D03*
X-7411700Y23932200D03*
%TD*%
%TO.C,M13*%
X15770600Y16220600D03*
X18170600Y16220600D03*
X18170600Y17720600D03*
X16970600Y17720600D03*
X15770600Y17720600D03*
%TD*%
%TO.C,M2*%
X38669400Y-32552900D03*
X41069400Y-32552900D03*
X41069400Y-31052900D03*
X39869400Y-31052900D03*
X38669400Y-31052900D03*
%TD*%
%TO.C,M3*%
X-1206400Y-51750000D03*
X1193600Y-51750000D03*
X1193600Y-50250000D03*
X-6400Y-50250000D03*
X-1206400Y-50250000D03*
%TD*%
%TO.C,M4*%
X-41077400Y-32543000D03*
X-38677400Y-32543000D03*
X-38677400Y-31043000D03*
X-39877400Y-31043000D03*
X-41077400Y-31043000D03*
%TD*%
%TO.C,M5*%
X-50919900Y10604800D03*
X-48519900Y10604800D03*
X-48519900Y12104800D03*
X-49719900Y12104800D03*
X-50919900Y12104800D03*
%TD*%
%TO.C,M6*%
X-23322300Y45202200D03*
X-20922300Y45202200D03*
X-20922300Y46702200D03*
X-22122300Y46702200D03*
X-23322300Y46702200D03*
%TD*%
%TO.C,M7*%
X20933800Y45196700D03*
X23333800Y45196700D03*
X23333800Y46696700D03*
X22133800Y46696700D03*
X20933800Y46696700D03*
%TD*%
%TO.C,M8*%
X21982200Y-6961700D03*
X24382200Y-6961700D03*
X24382200Y-5461700D03*
X23182200Y-5461700D03*
X21982200Y-5461700D03*
%TD*%
%TO.C,M9*%
X5011700Y-23932200D03*
X7411700Y-23932200D03*
X7411700Y-22432200D03*
X6211700Y-22432200D03*
X5011700Y-22432200D03*
%TD*%
D24*
%TO.C,J1*%
X-3200000Y55680000D03*
X-2400000Y55680000D03*
D25*
X-1250000Y55680000D03*
X-250000Y55680000D03*
X250000Y55680000D03*
X1250000Y55680000D03*
D24*
X2400000Y55680000D03*
X3200000Y55680000D03*
X3200000Y55680000D03*
X2400000Y55680000D03*
D25*
X1750000Y55680000D03*
X750000Y55680000D03*
X-750000Y55680000D03*
X-1750000Y55680000D03*
D24*
X-2400000Y55680000D03*
X-3200000Y55680000D03*
D26*
X-5110000Y55105000D03*
X-5110000Y51175000D03*
X5110000Y55105000D03*
X5110000Y51175000D03*
%TD*%
M02*
