M48
; DRILL file KiCad 10.0.5 date 2026-08-04T09:00:21
; FORMAT={-:-/ absolute / metric / decimal}
; #@! TF.CreationDate,2026-08-04T09:00:21-07:00
; #@! TF.GenerationSoftware,Kicad,Pcbnew,10.0.5
; #@! TF.FileFunction,MixedPlating,1,4
FMAT,2
METRIC
; #@! TA.AperFunction,Plated,PTH,ViaDrill
T1C0.200
; #@! TA.AperFunction,Plated,PTH,ViaDrill
T2C0.250
; #@! TA.AperFunction,Plated,PTH,ViaDrill
T3C0.300
; #@! TA.AperFunction,Plated,PTH,ViaDrill
T4C0.400
; #@! TA.AperFunction,NonPlated,NPTH,ComponentDrill
T5C0.650
%
G90
G05
T1
X-33.762Y7.371
X-33.692Y8.322
X-1.97Y25.62
X0.75Y27.59
T2
X-32.025Y9.293
X-22.122Y11.687
X-19.355Y-37.089
X-16.31Y7.118
X-9.762Y-21.571
X-3.833Y23.702
X-2.839Y-0.054
X1.906Y-49.785
X2.804Y4.818
X21.088Y14.057
X24.334Y14.053
T3
X-39.411Y-29.557
X-37.326Y-32.503
X-34.224Y-17.989
X-33.499Y-15.763
X-30.75Y-5.91
X-3.209Y21.11
X-2.907Y-5.91
X15.771Y19.708
X17.358Y-0.175
X18.491Y0.079
T4
X-36.75Y-1.969
X-27.275Y3.943
X-18.171Y-1.969
X-11.242Y2.553
X-3.07Y1.575
X13.0Y4.858
X13.311Y-3.456
T5
X-2.89Y54.605
X2.89Y54.605
M30
