%TF.GenerationSoftware,KiCad,Pcbnew,10.0.5*%
%TF.CreationDate,2026-08-04T17:32:04-07:00*%
%TF.ProjectId,palpod-compute-backplane-real,70616c70-6f64-42d6-936f-6d707574652d,A0*%
%TF.SameCoordinates,Original*%
%TF.FileFunction,Copper,L4,Bot*%
%TF.FilePolarity,Positive*%
%FSLAX46Y46*%
G04 Gerber Fmt 4.6, Leading zero omitted, Abs format (unit mm)*
G04 Created by KiCad (PCBNEW 10.0.5) date 2026-08-04 17:32:04*
%MOMM*%
%LPD*%
G01*
G04 APERTURE LIST*
%TA.AperFunction,ComponentPad*%
%ADD10C,3.000000*%
%TD*%
G04 APERTURE END LIST*
D10*
%TO.P,J21,1*%
%TO.N,+3V3*%
X22900000Y-123100000D03*
%TO.P,J21,2*%
X22900000Y-118900000D03*
%TO.P,J21,3*%
%TO.N,GND*%
X22900000Y-114700000D03*
%TO.P,J21,4*%
%TO.N,+5V*%
X22900000Y-110500000D03*
%TO.P,J21,5*%
%TO.N,GND*%
X22900000Y-106300000D03*
%TO.P,J21,6*%
%TO.N,+5V*%
X22900000Y-102100000D03*
%TO.P,J21,7*%
%TO.N,GND*%
X22900000Y-97900000D03*
%TO.P,J21,8*%
%TO.N,PWR_OK*%
X22900000Y-93700000D03*
%TO.P,J21,9*%
%TO.N,+5VSB*%
X22900000Y-89500000D03*
%TO.P,J21,10*%
%TO.N,+12V*%
X22900000Y-85300000D03*
%TO.P,J21,11*%
X22900000Y-81100000D03*
%TO.P,J21,12*%
%TO.N,+3V3*%
X22900000Y-76900000D03*
%TO.P,J21,13*%
X27100000Y-123100000D03*
%TO.P,J21,14*%
%TO.N,N/C*%
X27100000Y-118900000D03*
%TO.P,J21,15*%
%TO.N,GND*%
X27100000Y-114700000D03*
%TO.P,J21,16*%
%TO.N,PSON_L*%
X27100000Y-110500000D03*
%TO.P,J21,17*%
%TO.N,GND*%
X27100000Y-106300000D03*
%TO.P,J21,18*%
X27100000Y-102100000D03*
%TO.P,J21,19*%
X27100000Y-97900000D03*
%TO.P,J21,20*%
%TO.N,N/C*%
X27100000Y-93700000D03*
%TO.P,J21,21*%
%TO.N,+5V*%
X27100000Y-89500000D03*
%TO.P,J21,22*%
X27100000Y-85300000D03*
%TO.P,J21,23*%
X27100000Y-81100000D03*
%TO.P,J21,24*%
%TO.N,GND*%
X27100000Y-76900000D03*
%TD*%
%TO.P,J22,1*%
%TO.N,+3V3*%
X22900000Y-213100000D03*
%TO.P,J22,2*%
X22900000Y-208900000D03*
%TO.P,J22,3*%
%TO.N,GND*%
X22900000Y-204700000D03*
%TO.P,J22,4*%
%TO.N,+5V*%
X22900000Y-200500000D03*
%TO.P,J22,5*%
%TO.N,GND*%
X22900000Y-196300000D03*
%TO.P,J22,6*%
%TO.N,+5V*%
X22900000Y-192100000D03*
%TO.P,J22,7*%
%TO.N,GND*%
X22900000Y-187900000D03*
%TO.P,J22,8*%
%TO.N,PWR_OK*%
X22900000Y-183700000D03*
%TO.P,J22,9*%
%TO.N,+5VSB*%
X22900000Y-179500000D03*
%TO.P,J22,10*%
%TO.N,+12V*%
X22900000Y-175300000D03*
%TO.P,J22,11*%
X22900000Y-171100000D03*
%TO.P,J22,12*%
%TO.N,+3V3*%
X22900000Y-166900000D03*
%TO.P,J22,13*%
X27100000Y-213100000D03*
%TO.P,J22,14*%
%TO.N,N/C*%
X27100000Y-208900000D03*
%TO.P,J22,15*%
%TO.N,GND*%
X27100000Y-204700000D03*
%TO.P,J22,16*%
%TO.N,PSON_L*%
X27100000Y-200500000D03*
%TO.P,J22,17*%
%TO.N,GND*%
X27100000Y-196300000D03*
%TO.P,J22,18*%
X27100000Y-192100000D03*
%TO.P,J22,19*%
X27100000Y-187900000D03*
%TO.P,J22,20*%
%TO.N,N/C*%
X27100000Y-183700000D03*
%TO.P,J22,21*%
%TO.N,+5V*%
X27100000Y-179500000D03*
%TO.P,J22,22*%
X27100000Y-175300000D03*
%TO.P,J22,23*%
X27100000Y-171100000D03*
%TO.P,J22,24*%
%TO.N,GND*%
X27100000Y-166900000D03*
%TD*%
M02*
