%TF.GenerationSoftware,KiCad,Pcbnew,10.0.5*%
%TF.CreationDate,2026-08-04T17:32:04-07:00*%
%TF.ProjectId,palpod-compute-backplane-real,70616c70-6f64-42d6-936f-6d707574652d,A0*%
%TF.SameCoordinates,Original*%
%TF.FileFunction,Soldermask,Top*%
%TF.FilePolarity,Negative*%
%FSLAX46Y46*%
G04 Gerber Fmt 4.6, Leading zero omitted, Abs format (unit mm)*
G04 Created by KiCad (PCBNEW 10.0.5) date 2026-08-04 17:32:04*
%MOMM*%
%LPD*%
G01*
G04 APERTURE LIST*
G04 Aperture macros list*
%AMRoundRect*
0 Rectangle with rounded corners*
0 $1 Rounding radius*
0 $2 $3 $4 $5 $6 $7 $8 $9 X,Y pos of 4 corners*
0 Add a 4 corners polygon primitive as box body*
4,1,4,$2,$3,$4,$5,$6,$7,$8,$9,$2,$3,0*
0 Add four circle primitives for the rounded corners*
1,1,$1+$1,$2,$3*
1,1,$1+$1,$4,$5*
1,1,$1+$1,$6,$7*
1,1,$1+$1,$8,$9*
0 Add four rect primitives between the rounded corners*
20,1,$1+$1,$2,$3,$4,$5,0*
20,1,$1+$1,$4,$5,$6,$7,0*
20,1,$1+$1,$6,$7,$8,$9,0*
20,1,$1+$1,$8,$9,$2,$3,0*%
G04 Aperture macros list end*
%ADD10C,3.200000*%
%ADD11R,1.500000X0.300000*%
%ADD12RoundRect,0.225000X-0.225000X-0.250000X0.225000X-0.250000X0.225000X0.250000X-0.225000X0.250000X0*%
%ADD13RoundRect,0.250000X-1.950000X-1.000000X1.950000X-1.000000X1.950000X1.000000X-1.950000X1.000000X0*%
%ADD14C,3.000000*%
%ADD15R,0.500000X0.500000*%
%ADD16R,0.900000X0.300000*%
%ADD17R,0.300000X0.900000*%
%ADD18R,3.000000X3.000000*%
%ADD19R,0.450000X0.450000*%
%ADD20R,1.500000X0.250000*%
%ADD21R,0.250000X1.500000*%
%ADD22RoundRect,0.250000X-0.250000X-0.475000X0.250000X-0.475000X0.250000X0.475000X-0.250000X0.475000X0*%
%ADD23R,1.000000X0.400000*%
%ADD24R,1.600000X0.300000*%
%ADD25RoundRect,0.135000X-0.135000X-0.185000X0.135000X-0.185000X0.135000X0.185000X-0.135000X0.185000X0*%
G04 APERTURE END LIST*
D10*
%TO.C,MK2*%
X440000000Y-10000000D03*
%TD*%
D11*
%TO.C,U5*%
X387000000Y-145775000D03*
X387000000Y-146425000D03*
X387000000Y-147075000D03*
X387000000Y-147725000D03*
X387000000Y-148375000D03*
X387000000Y-149025000D03*
X387000000Y-149675000D03*
X387000000Y-150325000D03*
X387000000Y-150975000D03*
X387000000Y-151625000D03*
X387000000Y-152275000D03*
X387000000Y-152925000D03*
X387000000Y-153575000D03*
X387000000Y-154225000D03*
X393000000Y-154225000D03*
X393000000Y-153575000D03*
X393000000Y-152925000D03*
X393000000Y-152275000D03*
X393000000Y-151625000D03*
X393000000Y-150975000D03*
X393000000Y-150325000D03*
X393000000Y-149675000D03*
X393000000Y-149025000D03*
X393000000Y-148375000D03*
X393000000Y-147725000D03*
X393000000Y-147075000D03*
X393000000Y-146425000D03*
X393000000Y-145775000D03*
%TD*%
D10*
%TO.C,MK1*%
X10000000Y-10000000D03*
%TD*%
D12*
%TO.C,C4*%
X74225000Y-220000000D03*
X75775000Y-220000000D03*
%TD*%
D13*
%TO.C,C1*%
X40800000Y-210000000D03*
X49200000Y-210000000D03*
%TD*%
D10*
%TO.C,MK3*%
X10000000Y-290000000D03*
%TD*%
D14*
%TO.C,J21*%
X22900000Y-123100000D03*
X22900000Y-118900000D03*
X22900000Y-114700000D03*
X22900000Y-110500000D03*
X22900000Y-106300000D03*
X22900000Y-102100000D03*
X22900000Y-97900000D03*
X22900000Y-93700000D03*
X22900000Y-89500000D03*
X22900000Y-85300000D03*
X22900000Y-81100000D03*
X22900000Y-76900000D03*
X27100000Y-123100000D03*
X27100000Y-118900000D03*
X27100000Y-114700000D03*
X27100000Y-110500000D03*
X27100000Y-106300000D03*
X27100000Y-102100000D03*
X27100000Y-97900000D03*
X27100000Y-93700000D03*
X27100000Y-89500000D03*
X27100000Y-85300000D03*
X27100000Y-81100000D03*
X27100000Y-76900000D03*
%TD*%
%TO.C,J22*%
X22900000Y-213100000D03*
X22900000Y-208900000D03*
X22900000Y-204700000D03*
X22900000Y-200500000D03*
X22900000Y-196300000D03*
X22900000Y-192100000D03*
X22900000Y-187900000D03*
X22900000Y-183700000D03*
X22900000Y-179500000D03*
X22900000Y-175300000D03*
X22900000Y-171100000D03*
X22900000Y-166900000D03*
X27100000Y-213100000D03*
X27100000Y-208900000D03*
X27100000Y-204700000D03*
X27100000Y-200500000D03*
X27100000Y-196300000D03*
X27100000Y-192100000D03*
X27100000Y-187900000D03*
X27100000Y-183700000D03*
X27100000Y-179500000D03*
X27100000Y-175300000D03*
X27100000Y-171100000D03*
X27100000Y-166900000D03*
%TD*%
D15*
%TO.C,U1*%
X207500000Y-132500000D03*
X208500000Y-132500000D03*
X209500000Y-132500000D03*
X210500000Y-132500000D03*
X211500000Y-132500000D03*
X212500000Y-132500000D03*
X213500000Y-132500000D03*
X214500000Y-132500000D03*
X215500000Y-132500000D03*
X216500000Y-132500000D03*
X217500000Y-132500000D03*
X218500000Y-132500000D03*
X219500000Y-132500000D03*
X220500000Y-132500000D03*
X221500000Y-132500000D03*
X222500000Y-132500000D03*
X223500000Y-132500000D03*
X224500000Y-132500000D03*
X225500000Y-132500000D03*
X226500000Y-132500000D03*
X227500000Y-132500000D03*
X228500000Y-132500000D03*
X229500000Y-132500000D03*
X230500000Y-132500000D03*
X231500000Y-132500000D03*
X232500000Y-132500000D03*
X233500000Y-132500000D03*
X234500000Y-132500000D03*
X235500000Y-132500000D03*
X236500000Y-132500000D03*
X237500000Y-132500000D03*
X238500000Y-132500000D03*
X239500000Y-132500000D03*
X240500000Y-132500000D03*
X241500000Y-132500000D03*
X242500000Y-132500000D03*
X207500000Y-133500000D03*
X208500000Y-133500000D03*
X209500000Y-133500000D03*
X210500000Y-133500000D03*
X211500000Y-133500000D03*
X212500000Y-133500000D03*
X213500000Y-133500000D03*
X214500000Y-133500000D03*
X215500000Y-133500000D03*
X216500000Y-133500000D03*
X217500000Y-133500000D03*
X218500000Y-133500000D03*
X219500000Y-133500000D03*
X220500000Y-133500000D03*
X221500000Y-133500000D03*
X222500000Y-133500000D03*
X223500000Y-133500000D03*
X224500000Y-133500000D03*
X225500000Y-133500000D03*
X226500000Y-133500000D03*
X227500000Y-133500000D03*
X228500000Y-133500000D03*
X229500000Y-133500000D03*
X230500000Y-133500000D03*
X231500000Y-133500000D03*
X232500000Y-133500000D03*
X233500000Y-133500000D03*
X234500000Y-133500000D03*
X235500000Y-133500000D03*
X236500000Y-133500000D03*
X237500000Y-133500000D03*
X238500000Y-133500000D03*
X239500000Y-133500000D03*
X240500000Y-133500000D03*
X241500000Y-133500000D03*
X242500000Y-133500000D03*
X207500000Y-134500000D03*
X208500000Y-134500000D03*
X209500000Y-134500000D03*
X210500000Y-134500000D03*
X211500000Y-134500000D03*
X212500000Y-134500000D03*
X213500000Y-134500000D03*
X214500000Y-134500000D03*
X215500000Y-134500000D03*
X216500000Y-134500000D03*
X217500000Y-134500000D03*
X218500000Y-134500000D03*
X219500000Y-134500000D03*
X220500000Y-134500000D03*
X221500000Y-134500000D03*
X222500000Y-134500000D03*
X223500000Y-134500000D03*
X224500000Y-134500000D03*
X225500000Y-134500000D03*
X226500000Y-134500000D03*
X227500000Y-134500000D03*
X228500000Y-134500000D03*
X229500000Y-134500000D03*
X230500000Y-134500000D03*
X231500000Y-134500000D03*
X232500000Y-134500000D03*
X233500000Y-134500000D03*
X234500000Y-134500000D03*
X235500000Y-134500000D03*
X236500000Y-134500000D03*
X237500000Y-134500000D03*
X238500000Y-134500000D03*
X239500000Y-134500000D03*
X240500000Y-134500000D03*
X241500000Y-134500000D03*
X242500000Y-134500000D03*
X207500000Y-135500000D03*
X208500000Y-135500000D03*
X209500000Y-135500000D03*
X210500000Y-135500000D03*
X211500000Y-135500000D03*
X212500000Y-135500000D03*
X213500000Y-135500000D03*
X214500000Y-135500000D03*
X215500000Y-135500000D03*
X216500000Y-135500000D03*
X217500000Y-135500000D03*
X218500000Y-135500000D03*
X219500000Y-135500000D03*
X220500000Y-135500000D03*
X221500000Y-135500000D03*
X222500000Y-135500000D03*
X223500000Y-135500000D03*
X224500000Y-135500000D03*
X225500000Y-135500000D03*
X226500000Y-135500000D03*
X227500000Y-135500000D03*
X228500000Y-135500000D03*
X229500000Y-135500000D03*
X230500000Y-135500000D03*
X231500000Y-135500000D03*
X232500000Y-135500000D03*
X233500000Y-135500000D03*
X234500000Y-135500000D03*
X235500000Y-135500000D03*
X236500000Y-135500000D03*
X237500000Y-135500000D03*
X238500000Y-135500000D03*
X239500000Y-135500000D03*
X240500000Y-135500000D03*
X241500000Y-135500000D03*
X242500000Y-135500000D03*
X207500000Y-136500000D03*
X208500000Y-136500000D03*
X209500000Y-136500000D03*
X210500000Y-136500000D03*
X211500000Y-136500000D03*
X212500000Y-136500000D03*
X213500000Y-136500000D03*
X214500000Y-136500000D03*
X215500000Y-136500000D03*
X216500000Y-136500000D03*
X217500000Y-136500000D03*
X218500000Y-136500000D03*
X219500000Y-136500000D03*
X220500000Y-136500000D03*
X221500000Y-136500000D03*
X222500000Y-136500000D03*
X223500000Y-136500000D03*
X224500000Y-136500000D03*
X225500000Y-136500000D03*
X226500000Y-136500000D03*
X227500000Y-136500000D03*
X228500000Y-136500000D03*
X229500000Y-136500000D03*
X230500000Y-136500000D03*
X231500000Y-136500000D03*
X232500000Y-136500000D03*
X233500000Y-136500000D03*
X234500000Y-136500000D03*
X235500000Y-136500000D03*
X236500000Y-136500000D03*
X237500000Y-136500000D03*
X238500000Y-136500000D03*
X239500000Y-136500000D03*
X240500000Y-136500000D03*
X241500000Y-136500000D03*
X242500000Y-136500000D03*
X207500000Y-137500000D03*
X208500000Y-137500000D03*
X209500000Y-137500000D03*
X210500000Y-137500000D03*
X211500000Y-137500000D03*
X212500000Y-137500000D03*
X213500000Y-137500000D03*
X214500000Y-137500000D03*
X215500000Y-137500000D03*
X216500000Y-137500000D03*
X217500000Y-137500000D03*
X218500000Y-137500000D03*
X219500000Y-137500000D03*
X220500000Y-137500000D03*
X221500000Y-137500000D03*
X222500000Y-137500000D03*
X223500000Y-137500000D03*
X224500000Y-137500000D03*
X225500000Y-137500000D03*
X226500000Y-137500000D03*
X227500000Y-137500000D03*
X228500000Y-137500000D03*
X229500000Y-137500000D03*
X230500000Y-137500000D03*
X231500000Y-137500000D03*
X232500000Y-137500000D03*
X233500000Y-137500000D03*
X234500000Y-137500000D03*
X235500000Y-137500000D03*
X236500000Y-137500000D03*
X237500000Y-137500000D03*
X238500000Y-137500000D03*
X239500000Y-137500000D03*
X240500000Y-137500000D03*
X241500000Y-137500000D03*
X242500000Y-137500000D03*
X207500000Y-138500000D03*
X208500000Y-138500000D03*
X209500000Y-138500000D03*
X210500000Y-138500000D03*
X211500000Y-138500000D03*
X212500000Y-138500000D03*
X213500000Y-138500000D03*
X214500000Y-138500000D03*
X215500000Y-138500000D03*
X216500000Y-138500000D03*
X217500000Y-138500000D03*
X218500000Y-138500000D03*
X219500000Y-138500000D03*
X220500000Y-138500000D03*
X221500000Y-138500000D03*
X222500000Y-138500000D03*
X223500000Y-138500000D03*
X224500000Y-138500000D03*
X225500000Y-138500000D03*
X226500000Y-138500000D03*
X227500000Y-138500000D03*
X228500000Y-138500000D03*
X229500000Y-138500000D03*
X230500000Y-138500000D03*
X231500000Y-138500000D03*
X232500000Y-138500000D03*
X233500000Y-138500000D03*
X234500000Y-138500000D03*
X235500000Y-138500000D03*
X236500000Y-138500000D03*
X237500000Y-138500000D03*
X238500000Y-138500000D03*
X239500000Y-138500000D03*
X240500000Y-138500000D03*
X241500000Y-138500000D03*
X242500000Y-138500000D03*
X207500000Y-139500000D03*
X208500000Y-139500000D03*
X209500000Y-139500000D03*
X210500000Y-139500000D03*
X211500000Y-139500000D03*
X212500000Y-139500000D03*
X213500000Y-139500000D03*
X214500000Y-139500000D03*
X215500000Y-139500000D03*
X216500000Y-139500000D03*
X217500000Y-139500000D03*
X218500000Y-139500000D03*
X219500000Y-139500000D03*
X220500000Y-139500000D03*
X221500000Y-139500000D03*
X222500000Y-139500000D03*
X223500000Y-139500000D03*
X224500000Y-139500000D03*
X225500000Y-139500000D03*
X226500000Y-139500000D03*
X227500000Y-139500000D03*
X228500000Y-139500000D03*
X229500000Y-139500000D03*
X230500000Y-139500000D03*
X231500000Y-139500000D03*
X232500000Y-139500000D03*
X233500000Y-139500000D03*
X234500000Y-139500000D03*
X235500000Y-139500000D03*
X236500000Y-139500000D03*
X237500000Y-139500000D03*
X238500000Y-139500000D03*
X239500000Y-139500000D03*
X240500000Y-139500000D03*
X241500000Y-139500000D03*
X242500000Y-139500000D03*
X207500000Y-140500000D03*
X208500000Y-140500000D03*
X209500000Y-140500000D03*
X210500000Y-140500000D03*
X211500000Y-140500000D03*
X212500000Y-140500000D03*
X213500000Y-140500000D03*
X214500000Y-140500000D03*
X215500000Y-140500000D03*
X216500000Y-140500000D03*
X217500000Y-140500000D03*
X218500000Y-140500000D03*
X219500000Y-140500000D03*
X220500000Y-140500000D03*
X221500000Y-140500000D03*
X222500000Y-140500000D03*
X223500000Y-140500000D03*
X224500000Y-140500000D03*
X225500000Y-140500000D03*
X226500000Y-140500000D03*
X227500000Y-140500000D03*
X228500000Y-140500000D03*
X229500000Y-140500000D03*
X230500000Y-140500000D03*
X231500000Y-140500000D03*
X232500000Y-140500000D03*
X233500000Y-140500000D03*
X234500000Y-140500000D03*
X235500000Y-140500000D03*
X236500000Y-140500000D03*
X237500000Y-140500000D03*
X238500000Y-140500000D03*
X239500000Y-140500000D03*
X240500000Y-140500000D03*
X241500000Y-140500000D03*
X242500000Y-140500000D03*
X207500000Y-141500000D03*
X208500000Y-141500000D03*
X209500000Y-141500000D03*
X210500000Y-141500000D03*
X211500000Y-141500000D03*
X212500000Y-141500000D03*
X213500000Y-141500000D03*
X214500000Y-141500000D03*
X215500000Y-141500000D03*
X216500000Y-141500000D03*
X217500000Y-141500000D03*
X218500000Y-141500000D03*
X219500000Y-141500000D03*
X220500000Y-141500000D03*
X221500000Y-141500000D03*
X222500000Y-141500000D03*
X223500000Y-141500000D03*
X224500000Y-141500000D03*
X225500000Y-141500000D03*
X226500000Y-141500000D03*
X227500000Y-141500000D03*
X228500000Y-141500000D03*
X229500000Y-141500000D03*
X230500000Y-141500000D03*
X231500000Y-141500000D03*
X232500000Y-141500000D03*
X233500000Y-141500000D03*
X234500000Y-141500000D03*
X235500000Y-141500000D03*
X236500000Y-141500000D03*
X237500000Y-141500000D03*
X238500000Y-141500000D03*
X239500000Y-141500000D03*
X240500000Y-141500000D03*
X241500000Y-141500000D03*
X242500000Y-141500000D03*
X207500000Y-142500000D03*
X208500000Y-142500000D03*
X209500000Y-142500000D03*
X210500000Y-142500000D03*
X211500000Y-142500000D03*
X212500000Y-142500000D03*
X213500000Y-142500000D03*
X214500000Y-142500000D03*
X215500000Y-142500000D03*
X216500000Y-142500000D03*
X217500000Y-142500000D03*
X218500000Y-142500000D03*
X219500000Y-142500000D03*
X220500000Y-142500000D03*
X221500000Y-142500000D03*
X222500000Y-142500000D03*
X223500000Y-142500000D03*
X224500000Y-142500000D03*
X225500000Y-142500000D03*
X226500000Y-142500000D03*
X227500000Y-142500000D03*
X228500000Y-142500000D03*
X229500000Y-142500000D03*
X230500000Y-142500000D03*
X231500000Y-142500000D03*
X232500000Y-142500000D03*
X233500000Y-142500000D03*
X234500000Y-142500000D03*
X235500000Y-142500000D03*
X236500000Y-142500000D03*
X237500000Y-142500000D03*
X238500000Y-142500000D03*
X239500000Y-142500000D03*
X240500000Y-142500000D03*
X241500000Y-142500000D03*
X242500000Y-142500000D03*
X207500000Y-143500000D03*
X208500000Y-143500000D03*
X209500000Y-143500000D03*
X210500000Y-143500000D03*
X211500000Y-143500000D03*
X212500000Y-143500000D03*
X213500000Y-143500000D03*
X214500000Y-143500000D03*
X215500000Y-143500000D03*
X216500000Y-143500000D03*
X217500000Y-143500000D03*
X218500000Y-143500000D03*
X219500000Y-143500000D03*
X220500000Y-143500000D03*
X221500000Y-143500000D03*
X222500000Y-143500000D03*
X223500000Y-143500000D03*
X224500000Y-143500000D03*
X225500000Y-143500000D03*
X226500000Y-143500000D03*
X227500000Y-143500000D03*
X228500000Y-143500000D03*
X229500000Y-143500000D03*
X230500000Y-143500000D03*
X231500000Y-143500000D03*
X232500000Y-143500000D03*
X233500000Y-143500000D03*
X234500000Y-143500000D03*
X235500000Y-143500000D03*
X236500000Y-143500000D03*
X237500000Y-143500000D03*
X238500000Y-143500000D03*
X239500000Y-143500000D03*
X240500000Y-143500000D03*
X241500000Y-143500000D03*
X242500000Y-143500000D03*
X207500000Y-144500000D03*
X208500000Y-144500000D03*
X209500000Y-144500000D03*
X210500000Y-144500000D03*
X211500000Y-144500000D03*
X212500000Y-144500000D03*
X213500000Y-144500000D03*
X214500000Y-144500000D03*
X215500000Y-144500000D03*
X216500000Y-144500000D03*
X217500000Y-144500000D03*
X218500000Y-144500000D03*
X219500000Y-144500000D03*
X220500000Y-144500000D03*
X221500000Y-144500000D03*
X222500000Y-144500000D03*
X223500000Y-144500000D03*
X224500000Y-144500000D03*
X225500000Y-144500000D03*
X226500000Y-144500000D03*
X227500000Y-144500000D03*
X228500000Y-144500000D03*
X229500000Y-144500000D03*
X230500000Y-144500000D03*
X231500000Y-144500000D03*
X232500000Y-144500000D03*
X233500000Y-144500000D03*
X234500000Y-144500000D03*
X235500000Y-144500000D03*
X236500000Y-144500000D03*
X237500000Y-144500000D03*
X238500000Y-144500000D03*
X239500000Y-144500000D03*
X240500000Y-144500000D03*
X241500000Y-144500000D03*
X242500000Y-144500000D03*
X207500000Y-145500000D03*
X208500000Y-145500000D03*
X209500000Y-145500000D03*
X210500000Y-145500000D03*
X211500000Y-145500000D03*
X212500000Y-145500000D03*
X213500000Y-145500000D03*
X214500000Y-145500000D03*
X215500000Y-145500000D03*
X216500000Y-145500000D03*
X217500000Y-145500000D03*
X218500000Y-145500000D03*
X219500000Y-145500000D03*
X220500000Y-145500000D03*
X221500000Y-145500000D03*
X222500000Y-145500000D03*
X223500000Y-145500000D03*
X224500000Y-145500000D03*
X225500000Y-145500000D03*
X226500000Y-145500000D03*
X227500000Y-145500000D03*
X228500000Y-145500000D03*
X229500000Y-145500000D03*
X230500000Y-145500000D03*
X231500000Y-145500000D03*
X232500000Y-145500000D03*
X233500000Y-145500000D03*
X234500000Y-145500000D03*
X235500000Y-145500000D03*
X236500000Y-145500000D03*
X237500000Y-145500000D03*
X238500000Y-145500000D03*
X239500000Y-145500000D03*
X240500000Y-145500000D03*
X241500000Y-145500000D03*
X242500000Y-145500000D03*
X207500000Y-146500000D03*
X208500000Y-146500000D03*
X209500000Y-146500000D03*
X210500000Y-146500000D03*
X211500000Y-146500000D03*
X212500000Y-146500000D03*
X213500000Y-146500000D03*
X214500000Y-146500000D03*
X215500000Y-146500000D03*
X216500000Y-146500000D03*
X217500000Y-146500000D03*
X218500000Y-146500000D03*
X219500000Y-146500000D03*
X220500000Y-146500000D03*
X221500000Y-146500000D03*
X222500000Y-146500000D03*
X223500000Y-146500000D03*
X224500000Y-146500000D03*
X225500000Y-146500000D03*
X226500000Y-146500000D03*
X227500000Y-146500000D03*
X228500000Y-146500000D03*
X229500000Y-146500000D03*
X230500000Y-146500000D03*
X231500000Y-146500000D03*
X232500000Y-146500000D03*
X233500000Y-146500000D03*
X234500000Y-146500000D03*
X235500000Y-146500000D03*
X236500000Y-146500000D03*
X237500000Y-146500000D03*
X238500000Y-146500000D03*
X239500000Y-146500000D03*
X240500000Y-146500000D03*
X241500000Y-146500000D03*
X242500000Y-146500000D03*
X207500000Y-147500000D03*
X208500000Y-147500000D03*
X209500000Y-147500000D03*
X210500000Y-147500000D03*
X211500000Y-147500000D03*
X212500000Y-147500000D03*
X213500000Y-147500000D03*
X214500000Y-147500000D03*
X215500000Y-147500000D03*
X216500000Y-147500000D03*
X217500000Y-147500000D03*
X218500000Y-147500000D03*
X219500000Y-147500000D03*
X220500000Y-147500000D03*
X221500000Y-147500000D03*
X222500000Y-147500000D03*
X223500000Y-147500000D03*
X224500000Y-147500000D03*
X225500000Y-147500000D03*
X226500000Y-147500000D03*
X227500000Y-147500000D03*
X228500000Y-147500000D03*
X229500000Y-147500000D03*
X230500000Y-147500000D03*
X231500000Y-147500000D03*
X232500000Y-147500000D03*
X233500000Y-147500000D03*
X234500000Y-147500000D03*
X235500000Y-147500000D03*
X236500000Y-147500000D03*
X237500000Y-147500000D03*
X238500000Y-147500000D03*
X239500000Y-147500000D03*
X240500000Y-147500000D03*
X241500000Y-147500000D03*
X242500000Y-147500000D03*
X207500000Y-148500000D03*
X208500000Y-148500000D03*
X209500000Y-148500000D03*
X210500000Y-148500000D03*
X211500000Y-148500000D03*
X212500000Y-148500000D03*
X213500000Y-148500000D03*
X214500000Y-148500000D03*
X215500000Y-148500000D03*
X216500000Y-148500000D03*
X217500000Y-148500000D03*
X218500000Y-148500000D03*
X219500000Y-148500000D03*
X220500000Y-148500000D03*
X221500000Y-148500000D03*
X222500000Y-148500000D03*
X223500000Y-148500000D03*
X224500000Y-148500000D03*
X225500000Y-148500000D03*
X226500000Y-148500000D03*
X227500000Y-148500000D03*
X228500000Y-148500000D03*
X229500000Y-148500000D03*
X230500000Y-148500000D03*
X231500000Y-148500000D03*
X232500000Y-148500000D03*
X233500000Y-148500000D03*
X234500000Y-148500000D03*
X235500000Y-148500000D03*
X236500000Y-148500000D03*
X237500000Y-148500000D03*
X238500000Y-148500000D03*
X239500000Y-148500000D03*
X240500000Y-148500000D03*
X241500000Y-148500000D03*
X242500000Y-148500000D03*
X207500000Y-149500000D03*
X208500000Y-149500000D03*
X209500000Y-149500000D03*
X210500000Y-149500000D03*
X211500000Y-149500000D03*
X212500000Y-149500000D03*
X213500000Y-149500000D03*
X214500000Y-149500000D03*
X215500000Y-149500000D03*
X216500000Y-149500000D03*
X217500000Y-149500000D03*
X218500000Y-149500000D03*
X219500000Y-149500000D03*
X220500000Y-149500000D03*
X221500000Y-149500000D03*
X222500000Y-149500000D03*
X223500000Y-149500000D03*
X224500000Y-149500000D03*
X225500000Y-149500000D03*
X226500000Y-149500000D03*
X227500000Y-149500000D03*
X228500000Y-149500000D03*
X229500000Y-149500000D03*
X230500000Y-149500000D03*
X231500000Y-149500000D03*
X232500000Y-149500000D03*
X233500000Y-149500000D03*
X234500000Y-149500000D03*
X235500000Y-149500000D03*
X236500000Y-149500000D03*
X237500000Y-149500000D03*
X238500000Y-149500000D03*
X239500000Y-149500000D03*
X240500000Y-149500000D03*
X241500000Y-149500000D03*
X242500000Y-149500000D03*
X207500000Y-150500000D03*
X208500000Y-150500000D03*
X209500000Y-150500000D03*
X210500000Y-150500000D03*
X211500000Y-150500000D03*
X212500000Y-150500000D03*
X213500000Y-150500000D03*
X214500000Y-150500000D03*
X215500000Y-150500000D03*
X216500000Y-150500000D03*
X217500000Y-150500000D03*
X218500000Y-150500000D03*
X219500000Y-150500000D03*
X220500000Y-150500000D03*
X221500000Y-150500000D03*
X222500000Y-150500000D03*
X223500000Y-150500000D03*
X224500000Y-150500000D03*
X225500000Y-150500000D03*
X226500000Y-150500000D03*
X227500000Y-150500000D03*
X228500000Y-150500000D03*
X229500000Y-150500000D03*
X230500000Y-150500000D03*
X231500000Y-150500000D03*
X232500000Y-150500000D03*
X233500000Y-150500000D03*
X234500000Y-150500000D03*
X235500000Y-150500000D03*
X236500000Y-150500000D03*
X237500000Y-150500000D03*
X238500000Y-150500000D03*
X239500000Y-150500000D03*
X240500000Y-150500000D03*
X241500000Y-150500000D03*
X242500000Y-150500000D03*
X207500000Y-151500000D03*
X208500000Y-151500000D03*
X209500000Y-151500000D03*
X210500000Y-151500000D03*
X211500000Y-151500000D03*
X212500000Y-151500000D03*
X213500000Y-151500000D03*
X214500000Y-151500000D03*
X215500000Y-151500000D03*
X216500000Y-151500000D03*
X217500000Y-151500000D03*
X218500000Y-151500000D03*
X219500000Y-151500000D03*
X220500000Y-151500000D03*
X221500000Y-151500000D03*
X222500000Y-151500000D03*
X223500000Y-151500000D03*
X224500000Y-151500000D03*
X225500000Y-151500000D03*
X226500000Y-151500000D03*
X227500000Y-151500000D03*
X228500000Y-151500000D03*
X229500000Y-151500000D03*
X230500000Y-151500000D03*
X231500000Y-151500000D03*
X232500000Y-151500000D03*
X233500000Y-151500000D03*
X234500000Y-151500000D03*
X235500000Y-151500000D03*
X236500000Y-151500000D03*
X237500000Y-151500000D03*
X238500000Y-151500000D03*
X239500000Y-151500000D03*
X240500000Y-151500000D03*
X241500000Y-151500000D03*
X242500000Y-151500000D03*
X207500000Y-152500000D03*
X208500000Y-152500000D03*
X209500000Y-152500000D03*
X210500000Y-152500000D03*
X211500000Y-152500000D03*
X212500000Y-152500000D03*
X213500000Y-152500000D03*
X214500000Y-152500000D03*
X215500000Y-152500000D03*
X216500000Y-152500000D03*
X217500000Y-152500000D03*
X218500000Y-152500000D03*
X219500000Y-152500000D03*
X220500000Y-152500000D03*
X221500000Y-152500000D03*
X222500000Y-152500000D03*
X223500000Y-152500000D03*
X224500000Y-152500000D03*
X225500000Y-152500000D03*
X226500000Y-152500000D03*
X227500000Y-152500000D03*
X228500000Y-152500000D03*
X229500000Y-152500000D03*
X230500000Y-152500000D03*
X231500000Y-152500000D03*
X232500000Y-152500000D03*
X233500000Y-152500000D03*
X234500000Y-152500000D03*
X235500000Y-152500000D03*
X236500000Y-152500000D03*
X237500000Y-152500000D03*
X238500000Y-152500000D03*
X239500000Y-152500000D03*
X240500000Y-152500000D03*
X241500000Y-152500000D03*
X242500000Y-152500000D03*
X207500000Y-153500000D03*
X208500000Y-153500000D03*
X209500000Y-153500000D03*
X210500000Y-153500000D03*
X211500000Y-153500000D03*
X212500000Y-153500000D03*
X213500000Y-153500000D03*
X214500000Y-153500000D03*
X215500000Y-153500000D03*
X216500000Y-153500000D03*
X217500000Y-153500000D03*
X218500000Y-153500000D03*
X219500000Y-153500000D03*
X220500000Y-153500000D03*
X221500000Y-153500000D03*
X222500000Y-153500000D03*
X223500000Y-153500000D03*
X224500000Y-153500000D03*
X225500000Y-153500000D03*
X226500000Y-153500000D03*
X227500000Y-153500000D03*
X228500000Y-153500000D03*
X229500000Y-153500000D03*
X230500000Y-153500000D03*
X231500000Y-153500000D03*
X232500000Y-153500000D03*
X233500000Y-153500000D03*
X234500000Y-153500000D03*
X235500000Y-153500000D03*
X236500000Y-153500000D03*
X237500000Y-153500000D03*
X238500000Y-153500000D03*
X239500000Y-153500000D03*
X240500000Y-153500000D03*
X241500000Y-153500000D03*
X242500000Y-153500000D03*
X207500000Y-154500000D03*
X208500000Y-154500000D03*
X209500000Y-154500000D03*
X210500000Y-154500000D03*
X211500000Y-154500000D03*
X212500000Y-154500000D03*
X213500000Y-154500000D03*
X214500000Y-154500000D03*
X215500000Y-154500000D03*
X216500000Y-154500000D03*
X217500000Y-154500000D03*
X218500000Y-154500000D03*
X219500000Y-154500000D03*
X220500000Y-154500000D03*
X221500000Y-154500000D03*
X222500000Y-154500000D03*
X223500000Y-154500000D03*
X224500000Y-154500000D03*
X225500000Y-154500000D03*
X226500000Y-154500000D03*
X227500000Y-154500000D03*
X228500000Y-154500000D03*
X229500000Y-154500000D03*
X230500000Y-154500000D03*
X231500000Y-154500000D03*
X232500000Y-154500000D03*
X233500000Y-154500000D03*
X234500000Y-154500000D03*
X235500000Y-154500000D03*
X236500000Y-154500000D03*
X237500000Y-154500000D03*
X238500000Y-154500000D03*
X239500000Y-154500000D03*
X240500000Y-154500000D03*
X241500000Y-154500000D03*
X242500000Y-154500000D03*
X207500000Y-155500000D03*
X208500000Y-155500000D03*
X209500000Y-155500000D03*
X210500000Y-155500000D03*
X211500000Y-155500000D03*
X212500000Y-155500000D03*
X213500000Y-155500000D03*
X214500000Y-155500000D03*
X215500000Y-155500000D03*
X216500000Y-155500000D03*
X217500000Y-155500000D03*
X218500000Y-155500000D03*
X219500000Y-155500000D03*
X220500000Y-155500000D03*
X221500000Y-155500000D03*
X222500000Y-155500000D03*
X223500000Y-155500000D03*
X224500000Y-155500000D03*
X225500000Y-155500000D03*
X226500000Y-155500000D03*
X227500000Y-155500000D03*
X228500000Y-155500000D03*
X229500000Y-155500000D03*
X230500000Y-155500000D03*
X231500000Y-155500000D03*
X232500000Y-155500000D03*
X233500000Y-155500000D03*
X234500000Y-155500000D03*
X235500000Y-155500000D03*
X236500000Y-155500000D03*
X237500000Y-155500000D03*
X238500000Y-155500000D03*
X239500000Y-155500000D03*
X240500000Y-155500000D03*
X241500000Y-155500000D03*
X242500000Y-155500000D03*
X207500000Y-156500000D03*
X208500000Y-156500000D03*
X209500000Y-156500000D03*
X210500000Y-156500000D03*
X211500000Y-156500000D03*
X212500000Y-156500000D03*
X213500000Y-156500000D03*
X214500000Y-156500000D03*
X215500000Y-156500000D03*
X216500000Y-156500000D03*
X217500000Y-156500000D03*
X218500000Y-156500000D03*
X219500000Y-156500000D03*
X220500000Y-156500000D03*
X221500000Y-156500000D03*
X222500000Y-156500000D03*
X223500000Y-156500000D03*
X224500000Y-156500000D03*
X225500000Y-156500000D03*
X226500000Y-156500000D03*
X227500000Y-156500000D03*
X228500000Y-156500000D03*
X229500000Y-156500000D03*
X230500000Y-156500000D03*
X231500000Y-156500000D03*
X232500000Y-156500000D03*
X233500000Y-156500000D03*
X234500000Y-156500000D03*
X235500000Y-156500000D03*
X236500000Y-156500000D03*
X237500000Y-156500000D03*
X238500000Y-156500000D03*
X239500000Y-156500000D03*
X240500000Y-156500000D03*
X241500000Y-156500000D03*
X242500000Y-156500000D03*
X207500000Y-157500000D03*
X208500000Y-157500000D03*
X209500000Y-157500000D03*
X210500000Y-157500000D03*
X211500000Y-157500000D03*
X212500000Y-157500000D03*
X213500000Y-157500000D03*
X214500000Y-157500000D03*
X215500000Y-157500000D03*
X216500000Y-157500000D03*
X217500000Y-157500000D03*
X218500000Y-157500000D03*
X219500000Y-157500000D03*
X220500000Y-157500000D03*
X221500000Y-157500000D03*
X222500000Y-157500000D03*
X223500000Y-157500000D03*
X224500000Y-157500000D03*
X225500000Y-157500000D03*
X226500000Y-157500000D03*
X227500000Y-157500000D03*
X228500000Y-157500000D03*
X229500000Y-157500000D03*
X230500000Y-157500000D03*
X231500000Y-157500000D03*
X232500000Y-157500000D03*
X233500000Y-157500000D03*
X234500000Y-157500000D03*
X235500000Y-157500000D03*
X236500000Y-157500000D03*
X237500000Y-157500000D03*
X238500000Y-157500000D03*
X239500000Y-157500000D03*
X240500000Y-157500000D03*
X241500000Y-157500000D03*
X242500000Y-157500000D03*
X207500000Y-158500000D03*
X208500000Y-158500000D03*
X209500000Y-158500000D03*
X210500000Y-158500000D03*
X211500000Y-158500000D03*
X212500000Y-158500000D03*
X213500000Y-158500000D03*
X214500000Y-158500000D03*
X215500000Y-158500000D03*
X216500000Y-158500000D03*
X217500000Y-158500000D03*
X218500000Y-158500000D03*
X219500000Y-158500000D03*
X220500000Y-158500000D03*
X221500000Y-158500000D03*
X222500000Y-158500000D03*
X223500000Y-158500000D03*
X224500000Y-158500000D03*
X225500000Y-158500000D03*
X226500000Y-158500000D03*
X227500000Y-158500000D03*
X228500000Y-158500000D03*
X229500000Y-158500000D03*
X230500000Y-158500000D03*
X231500000Y-158500000D03*
X232500000Y-158500000D03*
X233500000Y-158500000D03*
X234500000Y-158500000D03*
X235500000Y-158500000D03*
X236500000Y-158500000D03*
X237500000Y-158500000D03*
X238500000Y-158500000D03*
X239500000Y-158500000D03*
X240500000Y-158500000D03*
X241500000Y-158500000D03*
X242500000Y-158500000D03*
X207500000Y-159500000D03*
X208500000Y-159500000D03*
X209500000Y-159500000D03*
X210500000Y-159500000D03*
X211500000Y-159500000D03*
X212500000Y-159500000D03*
X213500000Y-159500000D03*
X214500000Y-159500000D03*
X215500000Y-159500000D03*
X216500000Y-159500000D03*
X217500000Y-159500000D03*
X218500000Y-159500000D03*
X219500000Y-159500000D03*
X220500000Y-159500000D03*
X221500000Y-159500000D03*
X222500000Y-159500000D03*
X223500000Y-159500000D03*
X224500000Y-159500000D03*
X225500000Y-159500000D03*
X226500000Y-159500000D03*
X227500000Y-159500000D03*
X228500000Y-159500000D03*
X229500000Y-159500000D03*
X230500000Y-159500000D03*
X231500000Y-159500000D03*
X232500000Y-159500000D03*
X233500000Y-159500000D03*
X234500000Y-159500000D03*
X235500000Y-159500000D03*
X236500000Y-159500000D03*
X237500000Y-159500000D03*
X238500000Y-159500000D03*
X239500000Y-159500000D03*
X240500000Y-159500000D03*
X241500000Y-159500000D03*
X242500000Y-159500000D03*
X207500000Y-160500000D03*
X208500000Y-160500000D03*
X209500000Y-160500000D03*
X210500000Y-160500000D03*
X211500000Y-160500000D03*
X212500000Y-160500000D03*
X213500000Y-160500000D03*
X214500000Y-160500000D03*
X215500000Y-160500000D03*
X216500000Y-160500000D03*
X217500000Y-160500000D03*
X218500000Y-160500000D03*
X219500000Y-160500000D03*
X220500000Y-160500000D03*
X221500000Y-160500000D03*
X222500000Y-160500000D03*
X223500000Y-160500000D03*
X224500000Y-160500000D03*
X225500000Y-160500000D03*
X226500000Y-160500000D03*
X227500000Y-160500000D03*
X228500000Y-160500000D03*
X229500000Y-160500000D03*
X230500000Y-160500000D03*
X231500000Y-160500000D03*
X232500000Y-160500000D03*
X233500000Y-160500000D03*
X234500000Y-160500000D03*
X235500000Y-160500000D03*
X236500000Y-160500000D03*
X237500000Y-160500000D03*
X238500000Y-160500000D03*
X239500000Y-160500000D03*
X240500000Y-160500000D03*
X241500000Y-160500000D03*
X242500000Y-160500000D03*
X207500000Y-161500000D03*
X208500000Y-161500000D03*
X209500000Y-161500000D03*
X210500000Y-161500000D03*
X211500000Y-161500000D03*
X212500000Y-161500000D03*
X213500000Y-161500000D03*
X214500000Y-161500000D03*
X215500000Y-161500000D03*
X216500000Y-161500000D03*
X217500000Y-161500000D03*
X218500000Y-161500000D03*
X219500000Y-161500000D03*
X220500000Y-161500000D03*
X221500000Y-161500000D03*
X222500000Y-161500000D03*
X223500000Y-161500000D03*
X224500000Y-161500000D03*
X225500000Y-161500000D03*
X226500000Y-161500000D03*
X227500000Y-161500000D03*
X228500000Y-161500000D03*
X229500000Y-161500000D03*
X230500000Y-161500000D03*
X231500000Y-161500000D03*
X232500000Y-161500000D03*
X233500000Y-161500000D03*
X234500000Y-161500000D03*
X235500000Y-161500000D03*
X236500000Y-161500000D03*
X237500000Y-161500000D03*
X238500000Y-161500000D03*
X239500000Y-161500000D03*
X240500000Y-161500000D03*
X241500000Y-161500000D03*
X242500000Y-161500000D03*
X207500000Y-162500000D03*
X208500000Y-162500000D03*
X209500000Y-162500000D03*
X210500000Y-162500000D03*
X211500000Y-162500000D03*
X212500000Y-162500000D03*
X213500000Y-162500000D03*
X214500000Y-162500000D03*
X215500000Y-162500000D03*
X216500000Y-162500000D03*
X217500000Y-162500000D03*
X218500000Y-162500000D03*
X219500000Y-162500000D03*
X220500000Y-162500000D03*
X221500000Y-162500000D03*
X222500000Y-162500000D03*
X223500000Y-162500000D03*
X224500000Y-162500000D03*
X225500000Y-162500000D03*
X226500000Y-162500000D03*
X227500000Y-162500000D03*
X228500000Y-162500000D03*
X229500000Y-162500000D03*
X230500000Y-162500000D03*
X231500000Y-162500000D03*
X232500000Y-162500000D03*
X233500000Y-162500000D03*
X234500000Y-162500000D03*
X235500000Y-162500000D03*
X236500000Y-162500000D03*
X237500000Y-162500000D03*
X238500000Y-162500000D03*
X239500000Y-162500000D03*
X240500000Y-162500000D03*
X241500000Y-162500000D03*
X242500000Y-162500000D03*
X207500000Y-163500000D03*
X208500000Y-163500000D03*
X209500000Y-163500000D03*
X210500000Y-163500000D03*
X211500000Y-163500000D03*
X212500000Y-163500000D03*
X213500000Y-163500000D03*
X214500000Y-163500000D03*
X215500000Y-163500000D03*
X216500000Y-163500000D03*
X217500000Y-163500000D03*
X218500000Y-163500000D03*
X219500000Y-163500000D03*
X220500000Y-163500000D03*
X221500000Y-163500000D03*
X222500000Y-163500000D03*
X223500000Y-163500000D03*
X224500000Y-163500000D03*
X225500000Y-163500000D03*
X226500000Y-163500000D03*
X227500000Y-163500000D03*
X228500000Y-163500000D03*
X229500000Y-163500000D03*
X230500000Y-163500000D03*
X231500000Y-163500000D03*
X232500000Y-163500000D03*
X233500000Y-163500000D03*
X234500000Y-163500000D03*
X235500000Y-163500000D03*
X236500000Y-163500000D03*
X237500000Y-163500000D03*
X238500000Y-163500000D03*
X239500000Y-163500000D03*
X240500000Y-163500000D03*
X241500000Y-163500000D03*
X242500000Y-163500000D03*
X207500000Y-164500000D03*
X208500000Y-164500000D03*
X209500000Y-164500000D03*
X210500000Y-164500000D03*
X211500000Y-164500000D03*
X212500000Y-164500000D03*
X213500000Y-164500000D03*
X214500000Y-164500000D03*
X215500000Y-164500000D03*
X216500000Y-164500000D03*
X217500000Y-164500000D03*
X218500000Y-164500000D03*
X219500000Y-164500000D03*
X220500000Y-164500000D03*
X221500000Y-164500000D03*
X222500000Y-164500000D03*
X223500000Y-164500000D03*
X224500000Y-164500000D03*
X225500000Y-164500000D03*
X226500000Y-164500000D03*
X227500000Y-164500000D03*
X228500000Y-164500000D03*
X229500000Y-164500000D03*
X230500000Y-164500000D03*
X231500000Y-164500000D03*
X232500000Y-164500000D03*
X233500000Y-164500000D03*
X234500000Y-164500000D03*
X235500000Y-164500000D03*
X236500000Y-164500000D03*
X237500000Y-164500000D03*
X238500000Y-164500000D03*
X239500000Y-164500000D03*
X240500000Y-164500000D03*
X241500000Y-164500000D03*
X242500000Y-164500000D03*
X207500000Y-165500000D03*
X208500000Y-165500000D03*
X209500000Y-165500000D03*
X210500000Y-165500000D03*
X211500000Y-165500000D03*
X212500000Y-165500000D03*
X213500000Y-165500000D03*
X214500000Y-165500000D03*
X215500000Y-165500000D03*
X216500000Y-165500000D03*
X217500000Y-165500000D03*
X218500000Y-165500000D03*
X219500000Y-165500000D03*
X220500000Y-165500000D03*
X221500000Y-165500000D03*
X222500000Y-165500000D03*
X223500000Y-165500000D03*
X224500000Y-165500000D03*
X225500000Y-165500000D03*
X226500000Y-165500000D03*
X227500000Y-165500000D03*
X228500000Y-165500000D03*
X229500000Y-165500000D03*
X230500000Y-165500000D03*
X231500000Y-165500000D03*
X232500000Y-165500000D03*
X233500000Y-165500000D03*
X234500000Y-165500000D03*
X235500000Y-165500000D03*
X236500000Y-165500000D03*
X237500000Y-165500000D03*
X238500000Y-165500000D03*
X239500000Y-165500000D03*
X240500000Y-165500000D03*
X241500000Y-165500000D03*
X242500000Y-165500000D03*
X207500000Y-166500000D03*
X208500000Y-166500000D03*
X209500000Y-166500000D03*
X210500000Y-166500000D03*
X211500000Y-166500000D03*
X212500000Y-166500000D03*
X213500000Y-166500000D03*
X214500000Y-166500000D03*
X215500000Y-166500000D03*
X216500000Y-166500000D03*
X217500000Y-166500000D03*
X218500000Y-166500000D03*
X219500000Y-166500000D03*
X220500000Y-166500000D03*
X221500000Y-166500000D03*
X222500000Y-166500000D03*
X223500000Y-166500000D03*
X224500000Y-166500000D03*
X225500000Y-166500000D03*
X226500000Y-166500000D03*
X227500000Y-166500000D03*
X228500000Y-166500000D03*
X229500000Y-166500000D03*
X230500000Y-166500000D03*
X231500000Y-166500000D03*
X232500000Y-166500000D03*
X233500000Y-166500000D03*
X234500000Y-166500000D03*
X235500000Y-166500000D03*
X236500000Y-166500000D03*
X237500000Y-166500000D03*
X238500000Y-166500000D03*
X239500000Y-166500000D03*
X240500000Y-166500000D03*
X241500000Y-166500000D03*
X242500000Y-166500000D03*
X207500000Y-167500000D03*
X208500000Y-167500000D03*
X209500000Y-167500000D03*
X210500000Y-167500000D03*
X211500000Y-167500000D03*
X212500000Y-167500000D03*
X213500000Y-167500000D03*
X214500000Y-167500000D03*
X215500000Y-167500000D03*
X216500000Y-167500000D03*
X217500000Y-167500000D03*
X218500000Y-167500000D03*
X219500000Y-167500000D03*
X220500000Y-167500000D03*
X221500000Y-167500000D03*
X222500000Y-167500000D03*
X223500000Y-167500000D03*
X224500000Y-167500000D03*
X225500000Y-167500000D03*
X226500000Y-167500000D03*
X227500000Y-167500000D03*
X228500000Y-167500000D03*
X229500000Y-167500000D03*
X230500000Y-167500000D03*
X231500000Y-167500000D03*
X232500000Y-167500000D03*
X233500000Y-167500000D03*
X234500000Y-167500000D03*
X235500000Y-167500000D03*
X236500000Y-167500000D03*
X237500000Y-167500000D03*
X238500000Y-167500000D03*
X239500000Y-167500000D03*
X240500000Y-167500000D03*
X241500000Y-167500000D03*
X242500000Y-167500000D03*
%TD*%
D16*
%TO.C,U6*%
X57500000Y-209025000D03*
X57500000Y-209675000D03*
X57500000Y-210325000D03*
X57500000Y-210975000D03*
D17*
X59025000Y-212500000D03*
X59675000Y-212500000D03*
X60325000Y-212500000D03*
X60975000Y-212500000D03*
D16*
X62500000Y-210975000D03*
X62500000Y-210325000D03*
X62500000Y-209675000D03*
X62500000Y-209025000D03*
D17*
X60975000Y-207500000D03*
X60325000Y-207500000D03*
X59675000Y-207500000D03*
X59025000Y-207500000D03*
D18*
X60000000Y-210000000D03*
%TD*%
D19*
%TO.C,U3*%
X283000000Y-144500000D03*
X284000000Y-144500000D03*
X285000000Y-144500000D03*
X286000000Y-144500000D03*
X287000000Y-144500000D03*
X288000000Y-144500000D03*
X289000000Y-144500000D03*
X290000000Y-144500000D03*
X291000000Y-144500000D03*
X292000000Y-144500000D03*
X293000000Y-144500000D03*
X294000000Y-144500000D03*
X295000000Y-144500000D03*
X296000000Y-144500000D03*
X297000000Y-144500000D03*
X283000000Y-145500000D03*
X284000000Y-145500000D03*
X285000000Y-145500000D03*
X286000000Y-145500000D03*
X287000000Y-145500000D03*
X288000000Y-145500000D03*
X289000000Y-145500000D03*
X290000000Y-145500000D03*
X291000000Y-145500000D03*
X292000000Y-145500000D03*
X293000000Y-145500000D03*
X294000000Y-145500000D03*
X295000000Y-145500000D03*
X296000000Y-145500000D03*
X297000000Y-145500000D03*
X283000000Y-146500000D03*
X284000000Y-146500000D03*
X285000000Y-146500000D03*
X286000000Y-146500000D03*
X287000000Y-146500000D03*
X288000000Y-146500000D03*
X289000000Y-146500000D03*
X290000000Y-146500000D03*
X291000000Y-146500000D03*
X292000000Y-146500000D03*
X293000000Y-146500000D03*
X294000000Y-146500000D03*
X295000000Y-146500000D03*
X296000000Y-146500000D03*
X297000000Y-146500000D03*
X283000000Y-147500000D03*
X284000000Y-147500000D03*
X285000000Y-147500000D03*
X286000000Y-147500000D03*
X287000000Y-147500000D03*
X288000000Y-147500000D03*
X289000000Y-147500000D03*
X290000000Y-147500000D03*
X291000000Y-147500000D03*
X292000000Y-147500000D03*
X293000000Y-147500000D03*
X294000000Y-147500000D03*
X295000000Y-147500000D03*
X296000000Y-147500000D03*
X297000000Y-147500000D03*
X283000000Y-148500000D03*
X284000000Y-148500000D03*
X285000000Y-148500000D03*
X286000000Y-148500000D03*
X287000000Y-148500000D03*
X288000000Y-148500000D03*
X289000000Y-148500000D03*
X290000000Y-148500000D03*
X291000000Y-148500000D03*
X292000000Y-148500000D03*
X293000000Y-148500000D03*
X294000000Y-148500000D03*
X295000000Y-148500000D03*
X296000000Y-148500000D03*
X297000000Y-148500000D03*
X283000000Y-149500000D03*
X284000000Y-149500000D03*
X285000000Y-149500000D03*
X286000000Y-149500000D03*
X287000000Y-149500000D03*
X288000000Y-149500000D03*
X289000000Y-149500000D03*
X290000000Y-149500000D03*
X291000000Y-149500000D03*
X292000000Y-149500000D03*
X293000000Y-149500000D03*
X294000000Y-149500000D03*
X295000000Y-149500000D03*
X296000000Y-149500000D03*
X297000000Y-149500000D03*
X283000000Y-150500000D03*
X284000000Y-150500000D03*
X285000000Y-150500000D03*
X286000000Y-150500000D03*
X287000000Y-150500000D03*
X288000000Y-150500000D03*
X289000000Y-150500000D03*
X290000000Y-150500000D03*
X291000000Y-150500000D03*
X292000000Y-150500000D03*
X293000000Y-150500000D03*
X294000000Y-150500000D03*
X295000000Y-150500000D03*
X296000000Y-150500000D03*
X297000000Y-150500000D03*
X283000000Y-151500000D03*
X284000000Y-151500000D03*
X285000000Y-151500000D03*
X286000000Y-151500000D03*
X287000000Y-151500000D03*
X288000000Y-151500000D03*
X289000000Y-151500000D03*
X290000000Y-151500000D03*
X291000000Y-151500000D03*
X292000000Y-151500000D03*
X293000000Y-151500000D03*
X294000000Y-151500000D03*
X295000000Y-151500000D03*
X296000000Y-151500000D03*
X297000000Y-151500000D03*
X283000000Y-152500000D03*
X284000000Y-152500000D03*
X285000000Y-152500000D03*
X286000000Y-152500000D03*
X287000000Y-152500000D03*
X288000000Y-152500000D03*
X289000000Y-152500000D03*
X290000000Y-152500000D03*
X291000000Y-152500000D03*
X292000000Y-152500000D03*
X293000000Y-152500000D03*
X294000000Y-152500000D03*
X295000000Y-152500000D03*
X296000000Y-152500000D03*
X297000000Y-152500000D03*
X283000000Y-153500000D03*
X284000000Y-153500000D03*
X285000000Y-153500000D03*
X286000000Y-153500000D03*
X287000000Y-153500000D03*
X288000000Y-153500000D03*
X289000000Y-153500000D03*
X290000000Y-153500000D03*
X291000000Y-153500000D03*
X292000000Y-153500000D03*
X293000000Y-153500000D03*
X294000000Y-153500000D03*
X295000000Y-153500000D03*
X296000000Y-153500000D03*
X297000000Y-153500000D03*
X283000000Y-154500000D03*
X284000000Y-154500000D03*
X285000000Y-154500000D03*
X286000000Y-154500000D03*
X287000000Y-154500000D03*
X288000000Y-154500000D03*
X289000000Y-154500000D03*
X290000000Y-154500000D03*
X291000000Y-154500000D03*
X292000000Y-154500000D03*
X293000000Y-154500000D03*
X294000000Y-154500000D03*
X295000000Y-154500000D03*
X296000000Y-154500000D03*
X297000000Y-154500000D03*
X283000000Y-155500000D03*
X284000000Y-155500000D03*
X285000000Y-155500000D03*
X286000000Y-155500000D03*
X287000000Y-155500000D03*
X288000000Y-155500000D03*
X289000000Y-155500000D03*
X290000000Y-155500000D03*
X291000000Y-155500000D03*
X292000000Y-155500000D03*
X293000000Y-155500000D03*
X294000000Y-155500000D03*
X295000000Y-155500000D03*
X296000000Y-155500000D03*
X297000000Y-155500000D03*
%TD*%
D20*
%TO.C,U4*%
X339500000Y-142250000D03*
X339500000Y-142750000D03*
X339500000Y-143250000D03*
X339500000Y-143750000D03*
X339500000Y-144250000D03*
X339500000Y-144750000D03*
X339500000Y-145250000D03*
X339500000Y-145750000D03*
X339500000Y-146250000D03*
X339500000Y-146750000D03*
X339500000Y-147250000D03*
X339500000Y-147750000D03*
X339500000Y-148250000D03*
X339500000Y-148750000D03*
X339500000Y-149250000D03*
X339500000Y-149750000D03*
X339500000Y-150250000D03*
X339500000Y-150750000D03*
X339500000Y-151250000D03*
X339500000Y-151750000D03*
X339500000Y-152250000D03*
X339500000Y-152750000D03*
X339500000Y-153250000D03*
X339500000Y-153750000D03*
X339500000Y-154250000D03*
X339500000Y-154750000D03*
X339500000Y-155250000D03*
X339500000Y-155750000D03*
X339500000Y-156250000D03*
X339500000Y-156750000D03*
X339500000Y-157250000D03*
X339500000Y-157750000D03*
D21*
X342250000Y-160500000D03*
X342750000Y-160500000D03*
X343250000Y-160500000D03*
X343750000Y-160500000D03*
X344250000Y-160500000D03*
X344750000Y-160500000D03*
X345250000Y-160500000D03*
X345750000Y-160500000D03*
X346250000Y-160500000D03*
X346750000Y-160500000D03*
X347250000Y-160500000D03*
X347750000Y-160500000D03*
X348250000Y-160500000D03*
X348750000Y-160500000D03*
X349250000Y-160500000D03*
X349750000Y-160500000D03*
X350250000Y-160500000D03*
X350750000Y-160500000D03*
X351250000Y-160500000D03*
X351750000Y-160500000D03*
X352250000Y-160500000D03*
X352750000Y-160500000D03*
X353250000Y-160500000D03*
X353750000Y-160500000D03*
X354250000Y-160500000D03*
X354750000Y-160500000D03*
X355250000Y-160500000D03*
X355750000Y-160500000D03*
X356250000Y-160500000D03*
X356750000Y-160500000D03*
X357250000Y-160500000D03*
X357750000Y-160500000D03*
D20*
X360500000Y-157750000D03*
X360500000Y-157250000D03*
X360500000Y-156750000D03*
X360500000Y-156250000D03*
X360500000Y-155750000D03*
X360500000Y-155250000D03*
X360500000Y-154750000D03*
X360500000Y-154250000D03*
X360500000Y-153750000D03*
X360500000Y-153250000D03*
X360500000Y-152750000D03*
X360500000Y-152250000D03*
X360500000Y-151750000D03*
X360500000Y-151250000D03*
X360500000Y-150750000D03*
X360500000Y-150250000D03*
X360500000Y-149750000D03*
X360500000Y-149250000D03*
X360500000Y-148750000D03*
X360500000Y-148250000D03*
X360500000Y-147750000D03*
X360500000Y-147250000D03*
X360500000Y-146750000D03*
X360500000Y-146250000D03*
X360500000Y-145750000D03*
X360500000Y-145250000D03*
X360500000Y-144750000D03*
X360500000Y-144250000D03*
X360500000Y-143750000D03*
X360500000Y-143250000D03*
X360500000Y-142750000D03*
X360500000Y-142250000D03*
D21*
X357750000Y-139500000D03*
X357250000Y-139500000D03*
X356750000Y-139500000D03*
X356250000Y-139500000D03*
X355750000Y-139500000D03*
X355250000Y-139500000D03*
X354750000Y-139500000D03*
X354250000Y-139500000D03*
X353750000Y-139500000D03*
X353250000Y-139500000D03*
X352750000Y-139500000D03*
X352250000Y-139500000D03*
X351750000Y-139500000D03*
X351250000Y-139500000D03*
X350750000Y-139500000D03*
X350250000Y-139500000D03*
X349750000Y-139500000D03*
X349250000Y-139500000D03*
X348750000Y-139500000D03*
X348250000Y-139500000D03*
X347750000Y-139500000D03*
X347250000Y-139500000D03*
X346750000Y-139500000D03*
X346250000Y-139500000D03*
X345750000Y-139500000D03*
X345250000Y-139500000D03*
X344750000Y-139500000D03*
X344250000Y-139500000D03*
X343750000Y-139500000D03*
X343250000Y-139500000D03*
X342750000Y-139500000D03*
X342250000Y-139500000D03*
%TD*%
D10*
%TO.C,MK6*%
X225000000Y-290000000D03*
%TD*%
%TO.C,MK5*%
X225000000Y-10000000D03*
%TD*%
D15*
%TO.C,U2*%
X138500000Y-138500000D03*
X139500000Y-138500000D03*
X140500000Y-138500000D03*
X141500000Y-138500000D03*
X142500000Y-138500000D03*
X143500000Y-138500000D03*
X144500000Y-138500000D03*
X145500000Y-138500000D03*
X146500000Y-138500000D03*
X147500000Y-138500000D03*
X148500000Y-138500000D03*
X149500000Y-138500000D03*
X150500000Y-138500000D03*
X151500000Y-138500000D03*
X152500000Y-138500000D03*
X153500000Y-138500000D03*
X154500000Y-138500000D03*
X155500000Y-138500000D03*
X156500000Y-138500000D03*
X157500000Y-138500000D03*
X158500000Y-138500000D03*
X159500000Y-138500000D03*
X160500000Y-138500000D03*
X161500000Y-138500000D03*
X138500000Y-139500000D03*
X139500000Y-139500000D03*
X140500000Y-139500000D03*
X141500000Y-139500000D03*
X142500000Y-139500000D03*
X143500000Y-139500000D03*
X144500000Y-139500000D03*
X145500000Y-139500000D03*
X146500000Y-139500000D03*
X147500000Y-139500000D03*
X148500000Y-139500000D03*
X149500000Y-139500000D03*
X150500000Y-139500000D03*
X151500000Y-139500000D03*
X152500000Y-139500000D03*
X153500000Y-139500000D03*
X154500000Y-139500000D03*
X155500000Y-139500000D03*
X156500000Y-139500000D03*
X157500000Y-139500000D03*
X158500000Y-139500000D03*
X159500000Y-139500000D03*
X160500000Y-139500000D03*
X161500000Y-139500000D03*
X138500000Y-140500000D03*
X139500000Y-140500000D03*
X140500000Y-140500000D03*
X141500000Y-140500000D03*
X142500000Y-140500000D03*
X143500000Y-140500000D03*
X144500000Y-140500000D03*
X145500000Y-140500000D03*
X146500000Y-140500000D03*
X147500000Y-140500000D03*
X148500000Y-140500000D03*
X149500000Y-140500000D03*
X150500000Y-140500000D03*
X151500000Y-140500000D03*
X152500000Y-140500000D03*
X153500000Y-140500000D03*
X154500000Y-140500000D03*
X155500000Y-140500000D03*
X156500000Y-140500000D03*
X157500000Y-140500000D03*
X158500000Y-140500000D03*
X159500000Y-140500000D03*
X160500000Y-140500000D03*
X161500000Y-140500000D03*
X138500000Y-141500000D03*
X139500000Y-141500000D03*
X140500000Y-141500000D03*
X141500000Y-141500000D03*
X142500000Y-141500000D03*
X143500000Y-141500000D03*
X144500000Y-141500000D03*
X145500000Y-141500000D03*
X146500000Y-141500000D03*
X147500000Y-141500000D03*
X148500000Y-141500000D03*
X149500000Y-141500000D03*
X150500000Y-141500000D03*
X151500000Y-141500000D03*
X152500000Y-141500000D03*
X153500000Y-141500000D03*
X154500000Y-141500000D03*
X155500000Y-141500000D03*
X156500000Y-141500000D03*
X157500000Y-141500000D03*
X158500000Y-141500000D03*
X159500000Y-141500000D03*
X160500000Y-141500000D03*
X161500000Y-141500000D03*
X138500000Y-142500000D03*
X139500000Y-142500000D03*
X140500000Y-142500000D03*
X141500000Y-142500000D03*
X142500000Y-142500000D03*
X143500000Y-142500000D03*
X144500000Y-142500000D03*
X145500000Y-142500000D03*
X146500000Y-142500000D03*
X147500000Y-142500000D03*
X148500000Y-142500000D03*
X149500000Y-142500000D03*
X150500000Y-142500000D03*
X151500000Y-142500000D03*
X152500000Y-142500000D03*
X153500000Y-142500000D03*
X154500000Y-142500000D03*
X155500000Y-142500000D03*
X156500000Y-142500000D03*
X157500000Y-142500000D03*
X158500000Y-142500000D03*
X159500000Y-142500000D03*
X160500000Y-142500000D03*
X161500000Y-142500000D03*
X138500000Y-143500000D03*
X139500000Y-143500000D03*
X140500000Y-143500000D03*
X141500000Y-143500000D03*
X142500000Y-143500000D03*
X143500000Y-143500000D03*
X144500000Y-143500000D03*
X145500000Y-143500000D03*
X146500000Y-143500000D03*
X147500000Y-143500000D03*
X148500000Y-143500000D03*
X149500000Y-143500000D03*
X150500000Y-143500000D03*
X151500000Y-143500000D03*
X152500000Y-143500000D03*
X153500000Y-143500000D03*
X154500000Y-143500000D03*
X155500000Y-143500000D03*
X156500000Y-143500000D03*
X157500000Y-143500000D03*
X158500000Y-143500000D03*
X159500000Y-143500000D03*
X160500000Y-143500000D03*
X161500000Y-143500000D03*
X138500000Y-144500000D03*
X139500000Y-144500000D03*
X140500000Y-144500000D03*
X141500000Y-144500000D03*
X142500000Y-144500000D03*
X143500000Y-144500000D03*
X144500000Y-144500000D03*
X145500000Y-144500000D03*
X146500000Y-144500000D03*
X147500000Y-144500000D03*
X148500000Y-144500000D03*
X149500000Y-144500000D03*
X150500000Y-144500000D03*
X151500000Y-144500000D03*
X152500000Y-144500000D03*
X153500000Y-144500000D03*
X154500000Y-144500000D03*
X155500000Y-144500000D03*
X156500000Y-144500000D03*
X157500000Y-144500000D03*
X158500000Y-144500000D03*
X159500000Y-144500000D03*
X160500000Y-144500000D03*
X161500000Y-144500000D03*
X138500000Y-145500000D03*
X139500000Y-145500000D03*
X140500000Y-145500000D03*
X141500000Y-145500000D03*
X142500000Y-145500000D03*
X143500000Y-145500000D03*
X144500000Y-145500000D03*
X145500000Y-145500000D03*
X146500000Y-145500000D03*
X147500000Y-145500000D03*
X148500000Y-145500000D03*
X149500000Y-145500000D03*
X150500000Y-145500000D03*
X151500000Y-145500000D03*
X152500000Y-145500000D03*
X153500000Y-145500000D03*
X154500000Y-145500000D03*
X155500000Y-145500000D03*
X156500000Y-145500000D03*
X157500000Y-145500000D03*
X158500000Y-145500000D03*
X159500000Y-145500000D03*
X160500000Y-145500000D03*
X161500000Y-145500000D03*
X138500000Y-146500000D03*
X139500000Y-146500000D03*
X140500000Y-146500000D03*
X141500000Y-146500000D03*
X142500000Y-146500000D03*
X143500000Y-146500000D03*
X144500000Y-146500000D03*
X145500000Y-146500000D03*
X146500000Y-146500000D03*
X147500000Y-146500000D03*
X148500000Y-146500000D03*
X149500000Y-146500000D03*
X150500000Y-146500000D03*
X151500000Y-146500000D03*
X152500000Y-146500000D03*
X153500000Y-146500000D03*
X154500000Y-146500000D03*
X155500000Y-146500000D03*
X156500000Y-146500000D03*
X157500000Y-146500000D03*
X158500000Y-146500000D03*
X159500000Y-146500000D03*
X160500000Y-146500000D03*
X161500000Y-146500000D03*
X138500000Y-147500000D03*
X139500000Y-147500000D03*
X140500000Y-147500000D03*
X141500000Y-147500000D03*
X142500000Y-147500000D03*
X143500000Y-147500000D03*
X144500000Y-147500000D03*
X145500000Y-147500000D03*
X146500000Y-147500000D03*
X147500000Y-147500000D03*
X148500000Y-147500000D03*
X149500000Y-147500000D03*
X150500000Y-147500000D03*
X151500000Y-147500000D03*
X152500000Y-147500000D03*
X153500000Y-147500000D03*
X154500000Y-147500000D03*
X155500000Y-147500000D03*
X156500000Y-147500000D03*
X157500000Y-147500000D03*
X158500000Y-147500000D03*
X159500000Y-147500000D03*
X160500000Y-147500000D03*
X161500000Y-147500000D03*
X138500000Y-148500000D03*
X139500000Y-148500000D03*
X140500000Y-148500000D03*
X141500000Y-148500000D03*
X142500000Y-148500000D03*
X143500000Y-148500000D03*
X144500000Y-148500000D03*
X145500000Y-148500000D03*
X146500000Y-148500000D03*
X147500000Y-148500000D03*
X148500000Y-148500000D03*
X149500000Y-148500000D03*
X150500000Y-148500000D03*
X151500000Y-148500000D03*
X152500000Y-148500000D03*
X153500000Y-148500000D03*
X154500000Y-148500000D03*
X155500000Y-148500000D03*
X156500000Y-148500000D03*
X157500000Y-148500000D03*
X158500000Y-148500000D03*
X159500000Y-148500000D03*
X160500000Y-148500000D03*
X161500000Y-148500000D03*
X138500000Y-149500000D03*
X139500000Y-149500000D03*
X140500000Y-149500000D03*
X141500000Y-149500000D03*
X142500000Y-149500000D03*
X143500000Y-149500000D03*
X144500000Y-149500000D03*
X145500000Y-149500000D03*
X146500000Y-149500000D03*
X147500000Y-149500000D03*
X148500000Y-149500000D03*
X149500000Y-149500000D03*
X150500000Y-149500000D03*
X151500000Y-149500000D03*
X152500000Y-149500000D03*
X153500000Y-149500000D03*
X154500000Y-149500000D03*
X155500000Y-149500000D03*
X156500000Y-149500000D03*
X157500000Y-149500000D03*
X158500000Y-149500000D03*
X159500000Y-149500000D03*
X160500000Y-149500000D03*
X161500000Y-149500000D03*
X138500000Y-150500000D03*
X139500000Y-150500000D03*
X140500000Y-150500000D03*
X141500000Y-150500000D03*
X142500000Y-150500000D03*
X143500000Y-150500000D03*
X144500000Y-150500000D03*
X145500000Y-150500000D03*
X146500000Y-150500000D03*
X147500000Y-150500000D03*
X148500000Y-150500000D03*
X149500000Y-150500000D03*
X150500000Y-150500000D03*
X151500000Y-150500000D03*
X152500000Y-150500000D03*
X153500000Y-150500000D03*
X154500000Y-150500000D03*
X155500000Y-150500000D03*
X156500000Y-150500000D03*
X157500000Y-150500000D03*
X158500000Y-150500000D03*
X159500000Y-150500000D03*
X160500000Y-150500000D03*
X161500000Y-150500000D03*
X138500000Y-151500000D03*
X139500000Y-151500000D03*
X140500000Y-151500000D03*
X141500000Y-151500000D03*
X142500000Y-151500000D03*
X143500000Y-151500000D03*
X144500000Y-151500000D03*
X145500000Y-151500000D03*
X146500000Y-151500000D03*
X147500000Y-151500000D03*
X148500000Y-151500000D03*
X149500000Y-151500000D03*
X150500000Y-151500000D03*
X151500000Y-151500000D03*
X152500000Y-151500000D03*
X153500000Y-151500000D03*
X154500000Y-151500000D03*
X155500000Y-151500000D03*
X156500000Y-151500000D03*
X157500000Y-151500000D03*
X158500000Y-151500000D03*
X159500000Y-151500000D03*
X160500000Y-151500000D03*
X161500000Y-151500000D03*
X138500000Y-152500000D03*
X139500000Y-152500000D03*
X140500000Y-152500000D03*
X141500000Y-152500000D03*
X142500000Y-152500000D03*
X143500000Y-152500000D03*
X144500000Y-152500000D03*
X145500000Y-152500000D03*
X146500000Y-152500000D03*
X147500000Y-152500000D03*
X148500000Y-152500000D03*
X149500000Y-152500000D03*
X150500000Y-152500000D03*
X151500000Y-152500000D03*
X152500000Y-152500000D03*
X153500000Y-152500000D03*
X154500000Y-152500000D03*
X155500000Y-152500000D03*
X156500000Y-152500000D03*
X157500000Y-152500000D03*
X158500000Y-152500000D03*
X159500000Y-152500000D03*
X160500000Y-152500000D03*
X161500000Y-152500000D03*
X138500000Y-153500000D03*
X139500000Y-153500000D03*
X140500000Y-153500000D03*
X141500000Y-153500000D03*
X142500000Y-153500000D03*
X143500000Y-153500000D03*
X144500000Y-153500000D03*
X145500000Y-153500000D03*
X146500000Y-153500000D03*
X147500000Y-153500000D03*
X148500000Y-153500000D03*
X149500000Y-153500000D03*
X150500000Y-153500000D03*
X151500000Y-153500000D03*
X152500000Y-153500000D03*
X153500000Y-153500000D03*
X154500000Y-153500000D03*
X155500000Y-153500000D03*
X156500000Y-153500000D03*
X157500000Y-153500000D03*
X158500000Y-153500000D03*
X159500000Y-153500000D03*
X160500000Y-153500000D03*
X161500000Y-153500000D03*
X138500000Y-154500000D03*
X139500000Y-154500000D03*
X140500000Y-154500000D03*
X141500000Y-154500000D03*
X142500000Y-154500000D03*
X143500000Y-154500000D03*
X144500000Y-154500000D03*
X145500000Y-154500000D03*
X146500000Y-154500000D03*
X147500000Y-154500000D03*
X148500000Y-154500000D03*
X149500000Y-154500000D03*
X150500000Y-154500000D03*
X151500000Y-154500000D03*
X152500000Y-154500000D03*
X153500000Y-154500000D03*
X154500000Y-154500000D03*
X155500000Y-154500000D03*
X156500000Y-154500000D03*
X157500000Y-154500000D03*
X158500000Y-154500000D03*
X159500000Y-154500000D03*
X160500000Y-154500000D03*
X161500000Y-154500000D03*
X138500000Y-155500000D03*
X139500000Y-155500000D03*
X140500000Y-155500000D03*
X141500000Y-155500000D03*
X142500000Y-155500000D03*
X143500000Y-155500000D03*
X144500000Y-155500000D03*
X145500000Y-155500000D03*
X146500000Y-155500000D03*
X147500000Y-155500000D03*
X148500000Y-155500000D03*
X149500000Y-155500000D03*
X150500000Y-155500000D03*
X151500000Y-155500000D03*
X152500000Y-155500000D03*
X153500000Y-155500000D03*
X154500000Y-155500000D03*
X155500000Y-155500000D03*
X156500000Y-155500000D03*
X157500000Y-155500000D03*
X158500000Y-155500000D03*
X159500000Y-155500000D03*
X160500000Y-155500000D03*
X161500000Y-155500000D03*
X138500000Y-156500000D03*
X139500000Y-156500000D03*
X140500000Y-156500000D03*
X141500000Y-156500000D03*
X142500000Y-156500000D03*
X143500000Y-156500000D03*
X144500000Y-156500000D03*
X145500000Y-156500000D03*
X146500000Y-156500000D03*
X147500000Y-156500000D03*
X148500000Y-156500000D03*
X149500000Y-156500000D03*
X150500000Y-156500000D03*
X151500000Y-156500000D03*
X152500000Y-156500000D03*
X153500000Y-156500000D03*
X154500000Y-156500000D03*
X155500000Y-156500000D03*
X156500000Y-156500000D03*
X157500000Y-156500000D03*
X158500000Y-156500000D03*
X159500000Y-156500000D03*
X160500000Y-156500000D03*
X161500000Y-156500000D03*
X138500000Y-157500000D03*
X139500000Y-157500000D03*
X140500000Y-157500000D03*
X141500000Y-157500000D03*
X142500000Y-157500000D03*
X143500000Y-157500000D03*
X144500000Y-157500000D03*
X145500000Y-157500000D03*
X146500000Y-157500000D03*
X147500000Y-157500000D03*
X148500000Y-157500000D03*
X149500000Y-157500000D03*
X150500000Y-157500000D03*
X151500000Y-157500000D03*
X152500000Y-157500000D03*
X153500000Y-157500000D03*
X154500000Y-157500000D03*
X155500000Y-157500000D03*
X156500000Y-157500000D03*
X157500000Y-157500000D03*
X158500000Y-157500000D03*
X159500000Y-157500000D03*
X160500000Y-157500000D03*
X161500000Y-157500000D03*
X138500000Y-158500000D03*
X139500000Y-158500000D03*
X140500000Y-158500000D03*
X141500000Y-158500000D03*
X142500000Y-158500000D03*
X143500000Y-158500000D03*
X144500000Y-158500000D03*
X145500000Y-158500000D03*
X146500000Y-158500000D03*
X147500000Y-158500000D03*
X148500000Y-158500000D03*
X149500000Y-158500000D03*
X150500000Y-158500000D03*
X151500000Y-158500000D03*
X152500000Y-158500000D03*
X153500000Y-158500000D03*
X154500000Y-158500000D03*
X155500000Y-158500000D03*
X156500000Y-158500000D03*
X157500000Y-158500000D03*
X158500000Y-158500000D03*
X159500000Y-158500000D03*
X160500000Y-158500000D03*
X161500000Y-158500000D03*
X138500000Y-159500000D03*
X139500000Y-159500000D03*
X140500000Y-159500000D03*
X141500000Y-159500000D03*
X142500000Y-159500000D03*
X143500000Y-159500000D03*
X144500000Y-159500000D03*
X145500000Y-159500000D03*
X146500000Y-159500000D03*
X147500000Y-159500000D03*
X148500000Y-159500000D03*
X149500000Y-159500000D03*
X150500000Y-159500000D03*
X151500000Y-159500000D03*
X152500000Y-159500000D03*
X153500000Y-159500000D03*
X154500000Y-159500000D03*
X155500000Y-159500000D03*
X156500000Y-159500000D03*
X157500000Y-159500000D03*
X158500000Y-159500000D03*
X159500000Y-159500000D03*
X160500000Y-159500000D03*
X161500000Y-159500000D03*
X138500000Y-160500000D03*
X139500000Y-160500000D03*
X140500000Y-160500000D03*
X141500000Y-160500000D03*
X142500000Y-160500000D03*
X143500000Y-160500000D03*
X144500000Y-160500000D03*
X145500000Y-160500000D03*
X146500000Y-160500000D03*
X147500000Y-160500000D03*
X148500000Y-160500000D03*
X149500000Y-160500000D03*
X150500000Y-160500000D03*
X151500000Y-160500000D03*
X152500000Y-160500000D03*
X153500000Y-160500000D03*
X154500000Y-160500000D03*
X155500000Y-160500000D03*
X156500000Y-160500000D03*
X157500000Y-160500000D03*
X158500000Y-160500000D03*
X159500000Y-160500000D03*
X160500000Y-160500000D03*
X161500000Y-160500000D03*
X138500000Y-161500000D03*
X139500000Y-161500000D03*
X140500000Y-161500000D03*
X141500000Y-161500000D03*
X142500000Y-161500000D03*
X143500000Y-161500000D03*
X144500000Y-161500000D03*
X145500000Y-161500000D03*
X146500000Y-161500000D03*
X147500000Y-161500000D03*
X148500000Y-161500000D03*
X149500000Y-161500000D03*
X150500000Y-161500000D03*
X151500000Y-161500000D03*
X152500000Y-161500000D03*
X153500000Y-161500000D03*
X154500000Y-161500000D03*
X155500000Y-161500000D03*
X156500000Y-161500000D03*
X157500000Y-161500000D03*
X158500000Y-161500000D03*
X159500000Y-161500000D03*
X160500000Y-161500000D03*
X161500000Y-161500000D03*
%TD*%
D22*
%TO.C,C2*%
X44050000Y-220000000D03*
X45950000Y-220000000D03*
%TD*%
D23*
%TO.C,J15*%
X195600000Y-284600000D03*
X195600000Y-283800000D03*
X195600000Y-283000000D03*
X195600000Y-282200000D03*
X195600000Y-281400000D03*
X195600000Y-280600000D03*
X195600000Y-279800000D03*
X195600000Y-279000000D03*
X195600000Y-278200000D03*
X195600000Y-277400000D03*
X195600000Y-276600000D03*
X195600000Y-275800000D03*
X195600000Y-275000000D03*
X195600000Y-274200000D03*
X195600000Y-273400000D03*
X195600000Y-272600000D03*
X195600000Y-271800000D03*
X195600000Y-271000000D03*
X195600000Y-270200000D03*
X195600000Y-269400000D03*
X195600000Y-268600000D03*
X195600000Y-267800000D03*
X195600000Y-267000000D03*
X195600000Y-266200000D03*
X195600000Y-265400000D03*
X195600000Y-264600000D03*
X195600000Y-263800000D03*
X195600000Y-263000000D03*
X195600000Y-262200000D03*
X195600000Y-261400000D03*
X195600000Y-260600000D03*
X195600000Y-259800000D03*
X195600000Y-259000000D03*
X195600000Y-258200000D03*
X195600000Y-257400000D03*
X195600000Y-256600000D03*
X195600000Y-255800000D03*
X195600000Y-255000000D03*
X195600000Y-254200000D03*
X195600000Y-253400000D03*
X195600000Y-252600000D03*
X195600000Y-251800000D03*
X195600000Y-251000000D03*
X195600000Y-250200000D03*
X195600000Y-249400000D03*
X195600000Y-248600000D03*
X195600000Y-247800000D03*
X195600000Y-247000000D03*
X195600000Y-246200000D03*
X195600000Y-245400000D03*
X197200000Y-284600000D03*
X197200000Y-283800000D03*
X197200000Y-283000000D03*
X197200000Y-282200000D03*
X197200000Y-281400000D03*
X197200000Y-280600000D03*
X197200000Y-279800000D03*
X197200000Y-279000000D03*
X197200000Y-278200000D03*
X197200000Y-277400000D03*
X197200000Y-276600000D03*
X197200000Y-275800000D03*
X197200000Y-275000000D03*
X197200000Y-274200000D03*
X197200000Y-273400000D03*
X197200000Y-272600000D03*
X197200000Y-271800000D03*
X197200000Y-271000000D03*
X197200000Y-270200000D03*
X197200000Y-269400000D03*
X197200000Y-268600000D03*
X197200000Y-267800000D03*
X197200000Y-267000000D03*
X197200000Y-266200000D03*
X197200000Y-265400000D03*
X197200000Y-264600000D03*
X197200000Y-263800000D03*
X197200000Y-263000000D03*
X197200000Y-262200000D03*
X197200000Y-261400000D03*
X197200000Y-260600000D03*
X197200000Y-259800000D03*
X197200000Y-259000000D03*
X197200000Y-258200000D03*
X197200000Y-257400000D03*
X197200000Y-256600000D03*
X197200000Y-255800000D03*
X197200000Y-255000000D03*
X197200000Y-254200000D03*
X197200000Y-253400000D03*
X197200000Y-252600000D03*
X197200000Y-251800000D03*
X197200000Y-251000000D03*
X197200000Y-250200000D03*
X197200000Y-249400000D03*
X197200000Y-248600000D03*
X197200000Y-247800000D03*
X197200000Y-247000000D03*
X197200000Y-246200000D03*
X197200000Y-245400000D03*
X198800000Y-284600000D03*
X198800000Y-283800000D03*
X198800000Y-283000000D03*
X198800000Y-282200000D03*
X198800000Y-281400000D03*
X198800000Y-280600000D03*
X198800000Y-279800000D03*
X198800000Y-279000000D03*
X198800000Y-278200000D03*
X198800000Y-277400000D03*
X198800000Y-276600000D03*
X198800000Y-275800000D03*
X198800000Y-275000000D03*
X198800000Y-274200000D03*
X198800000Y-273400000D03*
X198800000Y-272600000D03*
X198800000Y-271800000D03*
X198800000Y-271000000D03*
X198800000Y-270200000D03*
X198800000Y-269400000D03*
X198800000Y-268600000D03*
X198800000Y-267800000D03*
X198800000Y-267000000D03*
X198800000Y-266200000D03*
X198800000Y-265400000D03*
X198800000Y-264600000D03*
X198800000Y-263800000D03*
X198800000Y-263000000D03*
X198800000Y-262200000D03*
X198800000Y-261400000D03*
X198800000Y-260600000D03*
X198800000Y-259800000D03*
X198800000Y-259000000D03*
X198800000Y-258200000D03*
X198800000Y-257400000D03*
X198800000Y-256600000D03*
X198800000Y-255800000D03*
X198800000Y-255000000D03*
X198800000Y-254200000D03*
X198800000Y-253400000D03*
X198800000Y-252600000D03*
X198800000Y-251800000D03*
X198800000Y-251000000D03*
X198800000Y-250200000D03*
X198800000Y-249400000D03*
X198800000Y-248600000D03*
X198800000Y-247800000D03*
X198800000Y-247000000D03*
X198800000Y-246200000D03*
X198800000Y-245400000D03*
X200400000Y-284600000D03*
X200400000Y-283800000D03*
X200400000Y-283000000D03*
X200400000Y-282200000D03*
X200400000Y-281400000D03*
X200400000Y-280600000D03*
X200400000Y-279800000D03*
X200400000Y-279000000D03*
X200400000Y-278200000D03*
X200400000Y-277400000D03*
X200400000Y-276600000D03*
X200400000Y-275800000D03*
X200400000Y-275000000D03*
X200400000Y-274200000D03*
X200400000Y-273400000D03*
X200400000Y-272600000D03*
X200400000Y-271800000D03*
X200400000Y-271000000D03*
X200400000Y-270200000D03*
X200400000Y-269400000D03*
X200400000Y-268600000D03*
X200400000Y-267800000D03*
X200400000Y-267000000D03*
X200400000Y-266200000D03*
X200400000Y-265400000D03*
X200400000Y-264600000D03*
X200400000Y-263800000D03*
X200400000Y-263000000D03*
X200400000Y-262200000D03*
X200400000Y-261400000D03*
X200400000Y-260600000D03*
X200400000Y-259800000D03*
X200400000Y-259000000D03*
X200400000Y-258200000D03*
X200400000Y-257400000D03*
X200400000Y-256600000D03*
X200400000Y-255800000D03*
X200400000Y-255000000D03*
X200400000Y-254200000D03*
X200400000Y-253400000D03*
X200400000Y-252600000D03*
X200400000Y-251800000D03*
X200400000Y-251000000D03*
X200400000Y-250200000D03*
X200400000Y-249400000D03*
X200400000Y-248600000D03*
X200400000Y-247800000D03*
X200400000Y-247000000D03*
X200400000Y-246200000D03*
X200400000Y-245400000D03*
%TD*%
%TO.C,J11*%
X27600000Y-284600000D03*
X27600000Y-283800000D03*
X27600000Y-283000000D03*
X27600000Y-282200000D03*
X27600000Y-281400000D03*
X27600000Y-280600000D03*
X27600000Y-279800000D03*
X27600000Y-279000000D03*
X27600000Y-278200000D03*
X27600000Y-277400000D03*
X27600000Y-276600000D03*
X27600000Y-275800000D03*
X27600000Y-275000000D03*
X27600000Y-274200000D03*
X27600000Y-273400000D03*
X27600000Y-272600000D03*
X27600000Y-271800000D03*
X27600000Y-271000000D03*
X27600000Y-270200000D03*
X27600000Y-269400000D03*
X27600000Y-268600000D03*
X27600000Y-267800000D03*
X27600000Y-267000000D03*
X27600000Y-266200000D03*
X27600000Y-265400000D03*
X27600000Y-264600000D03*
X27600000Y-263800000D03*
X27600000Y-263000000D03*
X27600000Y-262200000D03*
X27600000Y-261400000D03*
X27600000Y-260600000D03*
X27600000Y-259800000D03*
X27600000Y-259000000D03*
X27600000Y-258200000D03*
X27600000Y-257400000D03*
X27600000Y-256600000D03*
X27600000Y-255800000D03*
X27600000Y-255000000D03*
X27600000Y-254200000D03*
X27600000Y-253400000D03*
X27600000Y-252600000D03*
X27600000Y-251800000D03*
X27600000Y-251000000D03*
X27600000Y-250200000D03*
X27600000Y-249400000D03*
X27600000Y-248600000D03*
X27600000Y-247800000D03*
X27600000Y-247000000D03*
X27600000Y-246200000D03*
X27600000Y-245400000D03*
X29200000Y-284600000D03*
X29200000Y-283800000D03*
X29200000Y-283000000D03*
X29200000Y-282200000D03*
X29200000Y-281400000D03*
X29200000Y-280600000D03*
X29200000Y-279800000D03*
X29200000Y-279000000D03*
X29200000Y-278200000D03*
X29200000Y-277400000D03*
X29200000Y-276600000D03*
X29200000Y-275800000D03*
X29200000Y-275000000D03*
X29200000Y-274200000D03*
X29200000Y-273400000D03*
X29200000Y-272600000D03*
X29200000Y-271800000D03*
X29200000Y-271000000D03*
X29200000Y-270200000D03*
X29200000Y-269400000D03*
X29200000Y-268600000D03*
X29200000Y-267800000D03*
X29200000Y-267000000D03*
X29200000Y-266200000D03*
X29200000Y-265400000D03*
X29200000Y-264600000D03*
X29200000Y-263800000D03*
X29200000Y-263000000D03*
X29200000Y-262200000D03*
X29200000Y-261400000D03*
X29200000Y-260600000D03*
X29200000Y-259800000D03*
X29200000Y-259000000D03*
X29200000Y-258200000D03*
X29200000Y-257400000D03*
X29200000Y-256600000D03*
X29200000Y-255800000D03*
X29200000Y-255000000D03*
X29200000Y-254200000D03*
X29200000Y-253400000D03*
X29200000Y-252600000D03*
X29200000Y-251800000D03*
X29200000Y-251000000D03*
X29200000Y-250200000D03*
X29200000Y-249400000D03*
X29200000Y-248600000D03*
X29200000Y-247800000D03*
X29200000Y-247000000D03*
X29200000Y-246200000D03*
X29200000Y-245400000D03*
X30800000Y-284600000D03*
X30800000Y-283800000D03*
X30800000Y-283000000D03*
X30800000Y-282200000D03*
X30800000Y-281400000D03*
X30800000Y-280600000D03*
X30800000Y-279800000D03*
X30800000Y-279000000D03*
X30800000Y-278200000D03*
X30800000Y-277400000D03*
X30800000Y-276600000D03*
X30800000Y-275800000D03*
X30800000Y-275000000D03*
X30800000Y-274200000D03*
X30800000Y-273400000D03*
X30800000Y-272600000D03*
X30800000Y-271800000D03*
X30800000Y-271000000D03*
X30800000Y-270200000D03*
X30800000Y-269400000D03*
X30800000Y-268600000D03*
X30800000Y-267800000D03*
X30800000Y-267000000D03*
X30800000Y-266200000D03*
X30800000Y-265400000D03*
X30800000Y-264600000D03*
X30800000Y-263800000D03*
X30800000Y-263000000D03*
X30800000Y-262200000D03*
X30800000Y-261400000D03*
X30800000Y-260600000D03*
X30800000Y-259800000D03*
X30800000Y-259000000D03*
X30800000Y-258200000D03*
X30800000Y-257400000D03*
X30800000Y-256600000D03*
X30800000Y-255800000D03*
X30800000Y-255000000D03*
X30800000Y-254200000D03*
X30800000Y-253400000D03*
X30800000Y-252600000D03*
X30800000Y-251800000D03*
X30800000Y-251000000D03*
X30800000Y-250200000D03*
X30800000Y-249400000D03*
X30800000Y-248600000D03*
X30800000Y-247800000D03*
X30800000Y-247000000D03*
X30800000Y-246200000D03*
X30800000Y-245400000D03*
X32400000Y-284600000D03*
X32400000Y-283800000D03*
X32400000Y-283000000D03*
X32400000Y-282200000D03*
X32400000Y-281400000D03*
X32400000Y-280600000D03*
X32400000Y-279800000D03*
X32400000Y-279000000D03*
X32400000Y-278200000D03*
X32400000Y-277400000D03*
X32400000Y-276600000D03*
X32400000Y-275800000D03*
X32400000Y-275000000D03*
X32400000Y-274200000D03*
X32400000Y-273400000D03*
X32400000Y-272600000D03*
X32400000Y-271800000D03*
X32400000Y-271000000D03*
X32400000Y-270200000D03*
X32400000Y-269400000D03*
X32400000Y-268600000D03*
X32400000Y-267800000D03*
X32400000Y-267000000D03*
X32400000Y-266200000D03*
X32400000Y-265400000D03*
X32400000Y-264600000D03*
X32400000Y-263800000D03*
X32400000Y-263000000D03*
X32400000Y-262200000D03*
X32400000Y-261400000D03*
X32400000Y-260600000D03*
X32400000Y-259800000D03*
X32400000Y-259000000D03*
X32400000Y-258200000D03*
X32400000Y-257400000D03*
X32400000Y-256600000D03*
X32400000Y-255800000D03*
X32400000Y-255000000D03*
X32400000Y-254200000D03*
X32400000Y-253400000D03*
X32400000Y-252600000D03*
X32400000Y-251800000D03*
X32400000Y-251000000D03*
X32400000Y-250200000D03*
X32400000Y-249400000D03*
X32400000Y-248600000D03*
X32400000Y-247800000D03*
X32400000Y-247000000D03*
X32400000Y-246200000D03*
X32400000Y-245400000D03*
%TD*%
%TO.C,J20*%
X405600000Y-284600000D03*
X405600000Y-283800000D03*
X405600000Y-283000000D03*
X405600000Y-282200000D03*
X405600000Y-281400000D03*
X405600000Y-280600000D03*
X405600000Y-279800000D03*
X405600000Y-279000000D03*
X405600000Y-278200000D03*
X405600000Y-277400000D03*
X405600000Y-276600000D03*
X405600000Y-275800000D03*
X405600000Y-275000000D03*
X405600000Y-274200000D03*
X405600000Y-273400000D03*
X405600000Y-272600000D03*
X405600000Y-271800000D03*
X405600000Y-271000000D03*
X405600000Y-270200000D03*
X405600000Y-269400000D03*
X405600000Y-268600000D03*
X405600000Y-267800000D03*
X405600000Y-267000000D03*
X405600000Y-266200000D03*
X405600000Y-265400000D03*
X405600000Y-264600000D03*
X405600000Y-263800000D03*
X405600000Y-263000000D03*
X405600000Y-262200000D03*
X405600000Y-261400000D03*
X405600000Y-260600000D03*
X405600000Y-259800000D03*
X405600000Y-259000000D03*
X405600000Y-258200000D03*
X405600000Y-257400000D03*
X405600000Y-256600000D03*
X405600000Y-255800000D03*
X405600000Y-255000000D03*
X405600000Y-254200000D03*
X405600000Y-253400000D03*
X405600000Y-252600000D03*
X405600000Y-251800000D03*
X405600000Y-251000000D03*
X405600000Y-250200000D03*
X405600000Y-249400000D03*
X405600000Y-248600000D03*
X405600000Y-247800000D03*
X405600000Y-247000000D03*
X405600000Y-246200000D03*
X405600000Y-245400000D03*
X407200000Y-284600000D03*
X407200000Y-283800000D03*
X407200000Y-283000000D03*
X407200000Y-282200000D03*
X407200000Y-281400000D03*
X407200000Y-280600000D03*
X407200000Y-279800000D03*
X407200000Y-279000000D03*
X407200000Y-278200000D03*
X407200000Y-277400000D03*
X407200000Y-276600000D03*
X407200000Y-275800000D03*
X407200000Y-275000000D03*
X407200000Y-274200000D03*
X407200000Y-273400000D03*
X407200000Y-272600000D03*
X407200000Y-271800000D03*
X407200000Y-271000000D03*
X407200000Y-270200000D03*
X407200000Y-269400000D03*
X407200000Y-268600000D03*
X407200000Y-267800000D03*
X407200000Y-267000000D03*
X407200000Y-266200000D03*
X407200000Y-265400000D03*
X407200000Y-264600000D03*
X407200000Y-263800000D03*
X407200000Y-263000000D03*
X407200000Y-262200000D03*
X407200000Y-261400000D03*
X407200000Y-260600000D03*
X407200000Y-259800000D03*
X407200000Y-259000000D03*
X407200000Y-258200000D03*
X407200000Y-257400000D03*
X407200000Y-256600000D03*
X407200000Y-255800000D03*
X407200000Y-255000000D03*
X407200000Y-254200000D03*
X407200000Y-253400000D03*
X407200000Y-252600000D03*
X407200000Y-251800000D03*
X407200000Y-251000000D03*
X407200000Y-250200000D03*
X407200000Y-249400000D03*
X407200000Y-248600000D03*
X407200000Y-247800000D03*
X407200000Y-247000000D03*
X407200000Y-246200000D03*
X407200000Y-245400000D03*
X408800000Y-284600000D03*
X408800000Y-283800000D03*
X408800000Y-283000000D03*
X408800000Y-282200000D03*
X408800000Y-281400000D03*
X408800000Y-280600000D03*
X408800000Y-279800000D03*
X408800000Y-279000000D03*
X408800000Y-278200000D03*
X408800000Y-277400000D03*
X408800000Y-276600000D03*
X408800000Y-275800000D03*
X408800000Y-275000000D03*
X408800000Y-274200000D03*
X408800000Y-273400000D03*
X408800000Y-272600000D03*
X408800000Y-271800000D03*
X408800000Y-271000000D03*
X408800000Y-270200000D03*
X408800000Y-269400000D03*
X408800000Y-268600000D03*
X408800000Y-267800000D03*
X408800000Y-267000000D03*
X408800000Y-266200000D03*
X408800000Y-265400000D03*
X408800000Y-264600000D03*
X408800000Y-263800000D03*
X408800000Y-263000000D03*
X408800000Y-262200000D03*
X408800000Y-261400000D03*
X408800000Y-260600000D03*
X408800000Y-259800000D03*
X408800000Y-259000000D03*
X408800000Y-258200000D03*
X408800000Y-257400000D03*
X408800000Y-256600000D03*
X408800000Y-255800000D03*
X408800000Y-255000000D03*
X408800000Y-254200000D03*
X408800000Y-253400000D03*
X408800000Y-252600000D03*
X408800000Y-251800000D03*
X408800000Y-251000000D03*
X408800000Y-250200000D03*
X408800000Y-249400000D03*
X408800000Y-248600000D03*
X408800000Y-247800000D03*
X408800000Y-247000000D03*
X408800000Y-246200000D03*
X408800000Y-245400000D03*
X410400000Y-284600000D03*
X410400000Y-283800000D03*
X410400000Y-283000000D03*
X410400000Y-282200000D03*
X410400000Y-281400000D03*
X410400000Y-280600000D03*
X410400000Y-279800000D03*
X410400000Y-279000000D03*
X410400000Y-278200000D03*
X410400000Y-277400000D03*
X410400000Y-276600000D03*
X410400000Y-275800000D03*
X410400000Y-275000000D03*
X410400000Y-274200000D03*
X410400000Y-273400000D03*
X410400000Y-272600000D03*
X410400000Y-271800000D03*
X410400000Y-271000000D03*
X410400000Y-270200000D03*
X410400000Y-269400000D03*
X410400000Y-268600000D03*
X410400000Y-267800000D03*
X410400000Y-267000000D03*
X410400000Y-266200000D03*
X410400000Y-265400000D03*
X410400000Y-264600000D03*
X410400000Y-263800000D03*
X410400000Y-263000000D03*
X410400000Y-262200000D03*
X410400000Y-261400000D03*
X410400000Y-260600000D03*
X410400000Y-259800000D03*
X410400000Y-259000000D03*
X410400000Y-258200000D03*
X410400000Y-257400000D03*
X410400000Y-256600000D03*
X410400000Y-255800000D03*
X410400000Y-255000000D03*
X410400000Y-254200000D03*
X410400000Y-253400000D03*
X410400000Y-252600000D03*
X410400000Y-251800000D03*
X410400000Y-251000000D03*
X410400000Y-250200000D03*
X410400000Y-249400000D03*
X410400000Y-248600000D03*
X410400000Y-247800000D03*
X410400000Y-247000000D03*
X410400000Y-246200000D03*
X410400000Y-245400000D03*
%TD*%
%TO.C,J19*%
X363600000Y-284600000D03*
X363600000Y-283800000D03*
X363600000Y-283000000D03*
X363600000Y-282200000D03*
X363600000Y-281400000D03*
X363600000Y-280600000D03*
X363600000Y-279800000D03*
X363600000Y-279000000D03*
X363600000Y-278200000D03*
X363600000Y-277400000D03*
X363600000Y-276600000D03*
X363600000Y-275800000D03*
X363600000Y-275000000D03*
X363600000Y-274200000D03*
X363600000Y-273400000D03*
X363600000Y-272600000D03*
X363600000Y-271800000D03*
X363600000Y-271000000D03*
X363600000Y-270200000D03*
X363600000Y-269400000D03*
X363600000Y-268600000D03*
X363600000Y-267800000D03*
X363600000Y-267000000D03*
X363600000Y-266200000D03*
X363600000Y-265400000D03*
X363600000Y-264600000D03*
X363600000Y-263800000D03*
X363600000Y-263000000D03*
X363600000Y-262200000D03*
X363600000Y-261400000D03*
X363600000Y-260600000D03*
X363600000Y-259800000D03*
X363600000Y-259000000D03*
X363600000Y-258200000D03*
X363600000Y-257400000D03*
X363600000Y-256600000D03*
X363600000Y-255800000D03*
X363600000Y-255000000D03*
X363600000Y-254200000D03*
X363600000Y-253400000D03*
X363600000Y-252600000D03*
X363600000Y-251800000D03*
X363600000Y-251000000D03*
X363600000Y-250200000D03*
X363600000Y-249400000D03*
X363600000Y-248600000D03*
X363600000Y-247800000D03*
X363600000Y-247000000D03*
X363600000Y-246200000D03*
X363600000Y-245400000D03*
X365200000Y-284600000D03*
X365200000Y-283800000D03*
X365200000Y-283000000D03*
X365200000Y-282200000D03*
X365200000Y-281400000D03*
X365200000Y-280600000D03*
X365200000Y-279800000D03*
X365200000Y-279000000D03*
X365200000Y-278200000D03*
X365200000Y-277400000D03*
X365200000Y-276600000D03*
X365200000Y-275800000D03*
X365200000Y-275000000D03*
X365200000Y-274200000D03*
X365200000Y-273400000D03*
X365200000Y-272600000D03*
X365200000Y-271800000D03*
X365200000Y-271000000D03*
X365200000Y-270200000D03*
X365200000Y-269400000D03*
X365200000Y-268600000D03*
X365200000Y-267800000D03*
X365200000Y-267000000D03*
X365200000Y-266200000D03*
X365200000Y-265400000D03*
X365200000Y-264600000D03*
X365200000Y-263800000D03*
X365200000Y-263000000D03*
X365200000Y-262200000D03*
X365200000Y-261400000D03*
X365200000Y-260600000D03*
X365200000Y-259800000D03*
X365200000Y-259000000D03*
X365200000Y-258200000D03*
X365200000Y-257400000D03*
X365200000Y-256600000D03*
X365200000Y-255800000D03*
X365200000Y-255000000D03*
X365200000Y-254200000D03*
X365200000Y-253400000D03*
X365200000Y-252600000D03*
X365200000Y-251800000D03*
X365200000Y-251000000D03*
X365200000Y-250200000D03*
X365200000Y-249400000D03*
X365200000Y-248600000D03*
X365200000Y-247800000D03*
X365200000Y-247000000D03*
X365200000Y-246200000D03*
X365200000Y-245400000D03*
X366800000Y-284600000D03*
X366800000Y-283800000D03*
X366800000Y-283000000D03*
X366800000Y-282200000D03*
X366800000Y-281400000D03*
X366800000Y-280600000D03*
X366800000Y-279800000D03*
X366800000Y-279000000D03*
X366800000Y-278200000D03*
X366800000Y-277400000D03*
X366800000Y-276600000D03*
X366800000Y-275800000D03*
X366800000Y-275000000D03*
X366800000Y-274200000D03*
X366800000Y-273400000D03*
X366800000Y-272600000D03*
X366800000Y-271800000D03*
X366800000Y-271000000D03*
X366800000Y-270200000D03*
X366800000Y-269400000D03*
X366800000Y-268600000D03*
X366800000Y-267800000D03*
X366800000Y-267000000D03*
X366800000Y-266200000D03*
X366800000Y-265400000D03*
X366800000Y-264600000D03*
X366800000Y-263800000D03*
X366800000Y-263000000D03*
X366800000Y-262200000D03*
X366800000Y-261400000D03*
X366800000Y-260600000D03*
X366800000Y-259800000D03*
X366800000Y-259000000D03*
X366800000Y-258200000D03*
X366800000Y-257400000D03*
X366800000Y-256600000D03*
X366800000Y-255800000D03*
X366800000Y-255000000D03*
X366800000Y-254200000D03*
X366800000Y-253400000D03*
X366800000Y-252600000D03*
X366800000Y-251800000D03*
X366800000Y-251000000D03*
X366800000Y-250200000D03*
X366800000Y-249400000D03*
X366800000Y-248600000D03*
X366800000Y-247800000D03*
X366800000Y-247000000D03*
X366800000Y-246200000D03*
X366800000Y-245400000D03*
X368400000Y-284600000D03*
X368400000Y-283800000D03*
X368400000Y-283000000D03*
X368400000Y-282200000D03*
X368400000Y-281400000D03*
X368400000Y-280600000D03*
X368400000Y-279800000D03*
X368400000Y-279000000D03*
X368400000Y-278200000D03*
X368400000Y-277400000D03*
X368400000Y-276600000D03*
X368400000Y-275800000D03*
X368400000Y-275000000D03*
X368400000Y-274200000D03*
X368400000Y-273400000D03*
X368400000Y-272600000D03*
X368400000Y-271800000D03*
X368400000Y-271000000D03*
X368400000Y-270200000D03*
X368400000Y-269400000D03*
X368400000Y-268600000D03*
X368400000Y-267800000D03*
X368400000Y-267000000D03*
X368400000Y-266200000D03*
X368400000Y-265400000D03*
X368400000Y-264600000D03*
X368400000Y-263800000D03*
X368400000Y-263000000D03*
X368400000Y-262200000D03*
X368400000Y-261400000D03*
X368400000Y-260600000D03*
X368400000Y-259800000D03*
X368400000Y-259000000D03*
X368400000Y-258200000D03*
X368400000Y-257400000D03*
X368400000Y-256600000D03*
X368400000Y-255800000D03*
X368400000Y-255000000D03*
X368400000Y-254200000D03*
X368400000Y-253400000D03*
X368400000Y-252600000D03*
X368400000Y-251800000D03*
X368400000Y-251000000D03*
X368400000Y-250200000D03*
X368400000Y-249400000D03*
X368400000Y-248600000D03*
X368400000Y-247800000D03*
X368400000Y-247000000D03*
X368400000Y-246200000D03*
X368400000Y-245400000D03*
%TD*%
%TO.C,J14*%
X153600000Y-284600000D03*
X153600000Y-283800000D03*
X153600000Y-283000000D03*
X153600000Y-282200000D03*
X153600000Y-281400000D03*
X153600000Y-280600000D03*
X153600000Y-279800000D03*
X153600000Y-279000000D03*
X153600000Y-278200000D03*
X153600000Y-277400000D03*
X153600000Y-276600000D03*
X153600000Y-275800000D03*
X153600000Y-275000000D03*
X153600000Y-274200000D03*
X153600000Y-273400000D03*
X153600000Y-272600000D03*
X153600000Y-271800000D03*
X153600000Y-271000000D03*
X153600000Y-270200000D03*
X153600000Y-269400000D03*
X153600000Y-268600000D03*
X153600000Y-267800000D03*
X153600000Y-267000000D03*
X153600000Y-266200000D03*
X153600000Y-265400000D03*
X153600000Y-264600000D03*
X153600000Y-263800000D03*
X153600000Y-263000000D03*
X153600000Y-262200000D03*
X153600000Y-261400000D03*
X153600000Y-260600000D03*
X153600000Y-259800000D03*
X153600000Y-259000000D03*
X153600000Y-258200000D03*
X153600000Y-257400000D03*
X153600000Y-256600000D03*
X153600000Y-255800000D03*
X153600000Y-255000000D03*
X153600000Y-254200000D03*
X153600000Y-253400000D03*
X153600000Y-252600000D03*
X153600000Y-251800000D03*
X153600000Y-251000000D03*
X153600000Y-250200000D03*
X153600000Y-249400000D03*
X153600000Y-248600000D03*
X153600000Y-247800000D03*
X153600000Y-247000000D03*
X153600000Y-246200000D03*
X153600000Y-245400000D03*
X155200000Y-284600000D03*
X155200000Y-283800000D03*
X155200000Y-283000000D03*
X155200000Y-282200000D03*
X155200000Y-281400000D03*
X155200000Y-280600000D03*
X155200000Y-279800000D03*
X155200000Y-279000000D03*
X155200000Y-278200000D03*
X155200000Y-277400000D03*
X155200000Y-276600000D03*
X155200000Y-275800000D03*
X155200000Y-275000000D03*
X155200000Y-274200000D03*
X155200000Y-273400000D03*
X155200000Y-272600000D03*
X155200000Y-271800000D03*
X155200000Y-271000000D03*
X155200000Y-270200000D03*
X155200000Y-269400000D03*
X155200000Y-268600000D03*
X155200000Y-267800000D03*
X155200000Y-267000000D03*
X155200000Y-266200000D03*
X155200000Y-265400000D03*
X155200000Y-264600000D03*
X155200000Y-263800000D03*
X155200000Y-263000000D03*
X155200000Y-262200000D03*
X155200000Y-261400000D03*
X155200000Y-260600000D03*
X155200000Y-259800000D03*
X155200000Y-259000000D03*
X155200000Y-258200000D03*
X155200000Y-257400000D03*
X155200000Y-256600000D03*
X155200000Y-255800000D03*
X155200000Y-255000000D03*
X155200000Y-254200000D03*
X155200000Y-253400000D03*
X155200000Y-252600000D03*
X155200000Y-251800000D03*
X155200000Y-251000000D03*
X155200000Y-250200000D03*
X155200000Y-249400000D03*
X155200000Y-248600000D03*
X155200000Y-247800000D03*
X155200000Y-247000000D03*
X155200000Y-246200000D03*
X155200000Y-245400000D03*
X156800000Y-284600000D03*
X156800000Y-283800000D03*
X156800000Y-283000000D03*
X156800000Y-282200000D03*
X156800000Y-281400000D03*
X156800000Y-280600000D03*
X156800000Y-279800000D03*
X156800000Y-279000000D03*
X156800000Y-278200000D03*
X156800000Y-277400000D03*
X156800000Y-276600000D03*
X156800000Y-275800000D03*
X156800000Y-275000000D03*
X156800000Y-274200000D03*
X156800000Y-273400000D03*
X156800000Y-272600000D03*
X156800000Y-271800000D03*
X156800000Y-271000000D03*
X156800000Y-270200000D03*
X156800000Y-269400000D03*
X156800000Y-268600000D03*
X156800000Y-267800000D03*
X156800000Y-267000000D03*
X156800000Y-266200000D03*
X156800000Y-265400000D03*
X156800000Y-264600000D03*
X156800000Y-263800000D03*
X156800000Y-263000000D03*
X156800000Y-262200000D03*
X156800000Y-261400000D03*
X156800000Y-260600000D03*
X156800000Y-259800000D03*
X156800000Y-259000000D03*
X156800000Y-258200000D03*
X156800000Y-257400000D03*
X156800000Y-256600000D03*
X156800000Y-255800000D03*
X156800000Y-255000000D03*
X156800000Y-254200000D03*
X156800000Y-253400000D03*
X156800000Y-252600000D03*
X156800000Y-251800000D03*
X156800000Y-251000000D03*
X156800000Y-250200000D03*
X156800000Y-249400000D03*
X156800000Y-248600000D03*
X156800000Y-247800000D03*
X156800000Y-247000000D03*
X156800000Y-246200000D03*
X156800000Y-245400000D03*
X158400000Y-284600000D03*
X158400000Y-283800000D03*
X158400000Y-283000000D03*
X158400000Y-282200000D03*
X158400000Y-281400000D03*
X158400000Y-280600000D03*
X158400000Y-279800000D03*
X158400000Y-279000000D03*
X158400000Y-278200000D03*
X158400000Y-277400000D03*
X158400000Y-276600000D03*
X158400000Y-275800000D03*
X158400000Y-275000000D03*
X158400000Y-274200000D03*
X158400000Y-273400000D03*
X158400000Y-272600000D03*
X158400000Y-271800000D03*
X158400000Y-271000000D03*
X158400000Y-270200000D03*
X158400000Y-269400000D03*
X158400000Y-268600000D03*
X158400000Y-267800000D03*
X158400000Y-267000000D03*
X158400000Y-266200000D03*
X158400000Y-265400000D03*
X158400000Y-264600000D03*
X158400000Y-263800000D03*
X158400000Y-263000000D03*
X158400000Y-262200000D03*
X158400000Y-261400000D03*
X158400000Y-260600000D03*
X158400000Y-259800000D03*
X158400000Y-259000000D03*
X158400000Y-258200000D03*
X158400000Y-257400000D03*
X158400000Y-256600000D03*
X158400000Y-255800000D03*
X158400000Y-255000000D03*
X158400000Y-254200000D03*
X158400000Y-253400000D03*
X158400000Y-252600000D03*
X158400000Y-251800000D03*
X158400000Y-251000000D03*
X158400000Y-250200000D03*
X158400000Y-249400000D03*
X158400000Y-248600000D03*
X158400000Y-247800000D03*
X158400000Y-247000000D03*
X158400000Y-246200000D03*
X158400000Y-245400000D03*
%TD*%
%TO.C,J16*%
X237600000Y-284600000D03*
X237600000Y-283800000D03*
X237600000Y-283000000D03*
X237600000Y-282200000D03*
X237600000Y-281400000D03*
X237600000Y-280600000D03*
X237600000Y-279800000D03*
X237600000Y-279000000D03*
X237600000Y-278200000D03*
X237600000Y-277400000D03*
X237600000Y-276600000D03*
X237600000Y-275800000D03*
X237600000Y-275000000D03*
X237600000Y-274200000D03*
X237600000Y-273400000D03*
X237600000Y-272600000D03*
X237600000Y-271800000D03*
X237600000Y-271000000D03*
X237600000Y-270200000D03*
X237600000Y-269400000D03*
X237600000Y-268600000D03*
X237600000Y-267800000D03*
X237600000Y-267000000D03*
X237600000Y-266200000D03*
X237600000Y-265400000D03*
X237600000Y-264600000D03*
X237600000Y-263800000D03*
X237600000Y-263000000D03*
X237600000Y-262200000D03*
X237600000Y-261400000D03*
X237600000Y-260600000D03*
X237600000Y-259800000D03*
X237600000Y-259000000D03*
X237600000Y-258200000D03*
X237600000Y-257400000D03*
X237600000Y-256600000D03*
X237600000Y-255800000D03*
X237600000Y-255000000D03*
X237600000Y-254200000D03*
X237600000Y-253400000D03*
X237600000Y-252600000D03*
X237600000Y-251800000D03*
X237600000Y-251000000D03*
X237600000Y-250200000D03*
X237600000Y-249400000D03*
X237600000Y-248600000D03*
X237600000Y-247800000D03*
X237600000Y-247000000D03*
X237600000Y-246200000D03*
X237600000Y-245400000D03*
X239200000Y-284600000D03*
X239200000Y-283800000D03*
X239200000Y-283000000D03*
X239200000Y-282200000D03*
X239200000Y-281400000D03*
X239200000Y-280600000D03*
X239200000Y-279800000D03*
X239200000Y-279000000D03*
X239200000Y-278200000D03*
X239200000Y-277400000D03*
X239200000Y-276600000D03*
X239200000Y-275800000D03*
X239200000Y-275000000D03*
X239200000Y-274200000D03*
X239200000Y-273400000D03*
X239200000Y-272600000D03*
X239200000Y-271800000D03*
X239200000Y-271000000D03*
X239200000Y-270200000D03*
X239200000Y-269400000D03*
X239200000Y-268600000D03*
X239200000Y-267800000D03*
X239200000Y-267000000D03*
X239200000Y-266200000D03*
X239200000Y-265400000D03*
X239200000Y-264600000D03*
X239200000Y-263800000D03*
X239200000Y-263000000D03*
X239200000Y-262200000D03*
X239200000Y-261400000D03*
X239200000Y-260600000D03*
X239200000Y-259800000D03*
X239200000Y-259000000D03*
X239200000Y-258200000D03*
X239200000Y-257400000D03*
X239200000Y-256600000D03*
X239200000Y-255800000D03*
X239200000Y-255000000D03*
X239200000Y-254200000D03*
X239200000Y-253400000D03*
X239200000Y-252600000D03*
X239200000Y-251800000D03*
X239200000Y-251000000D03*
X239200000Y-250200000D03*
X239200000Y-249400000D03*
X239200000Y-248600000D03*
X239200000Y-247800000D03*
X239200000Y-247000000D03*
X239200000Y-246200000D03*
X239200000Y-245400000D03*
X240800000Y-284600000D03*
X240800000Y-283800000D03*
X240800000Y-283000000D03*
X240800000Y-282200000D03*
X240800000Y-281400000D03*
X240800000Y-280600000D03*
X240800000Y-279800000D03*
X240800000Y-279000000D03*
X240800000Y-278200000D03*
X240800000Y-277400000D03*
X240800000Y-276600000D03*
X240800000Y-275800000D03*
X240800000Y-275000000D03*
X240800000Y-274200000D03*
X240800000Y-273400000D03*
X240800000Y-272600000D03*
X240800000Y-271800000D03*
X240800000Y-271000000D03*
X240800000Y-270200000D03*
X240800000Y-269400000D03*
X240800000Y-268600000D03*
X240800000Y-267800000D03*
X240800000Y-267000000D03*
X240800000Y-266200000D03*
X240800000Y-265400000D03*
X240800000Y-264600000D03*
X240800000Y-263800000D03*
X240800000Y-263000000D03*
X240800000Y-262200000D03*
X240800000Y-261400000D03*
X240800000Y-260600000D03*
X240800000Y-259800000D03*
X240800000Y-259000000D03*
X240800000Y-258200000D03*
X240800000Y-257400000D03*
X240800000Y-256600000D03*
X240800000Y-255800000D03*
X240800000Y-255000000D03*
X240800000Y-254200000D03*
X240800000Y-253400000D03*
X240800000Y-252600000D03*
X240800000Y-251800000D03*
X240800000Y-251000000D03*
X240800000Y-250200000D03*
X240800000Y-249400000D03*
X240800000Y-248600000D03*
X240800000Y-247800000D03*
X240800000Y-247000000D03*
X240800000Y-246200000D03*
X240800000Y-245400000D03*
X242400000Y-284600000D03*
X242400000Y-283800000D03*
X242400000Y-283000000D03*
X242400000Y-282200000D03*
X242400000Y-281400000D03*
X242400000Y-280600000D03*
X242400000Y-279800000D03*
X242400000Y-279000000D03*
X242400000Y-278200000D03*
X242400000Y-277400000D03*
X242400000Y-276600000D03*
X242400000Y-275800000D03*
X242400000Y-275000000D03*
X242400000Y-274200000D03*
X242400000Y-273400000D03*
X242400000Y-272600000D03*
X242400000Y-271800000D03*
X242400000Y-271000000D03*
X242400000Y-270200000D03*
X242400000Y-269400000D03*
X242400000Y-268600000D03*
X242400000Y-267800000D03*
X242400000Y-267000000D03*
X242400000Y-266200000D03*
X242400000Y-265400000D03*
X242400000Y-264600000D03*
X242400000Y-263800000D03*
X242400000Y-263000000D03*
X242400000Y-262200000D03*
X242400000Y-261400000D03*
X242400000Y-260600000D03*
X242400000Y-259800000D03*
X242400000Y-259000000D03*
X242400000Y-258200000D03*
X242400000Y-257400000D03*
X242400000Y-256600000D03*
X242400000Y-255800000D03*
X242400000Y-255000000D03*
X242400000Y-254200000D03*
X242400000Y-253400000D03*
X242400000Y-252600000D03*
X242400000Y-251800000D03*
X242400000Y-251000000D03*
X242400000Y-250200000D03*
X242400000Y-249400000D03*
X242400000Y-248600000D03*
X242400000Y-247800000D03*
X242400000Y-247000000D03*
X242400000Y-246200000D03*
X242400000Y-245400000D03*
%TD*%
%TO.C,J13*%
X111600000Y-284600000D03*
X111600000Y-283800000D03*
X111600000Y-283000000D03*
X111600000Y-282200000D03*
X111600000Y-281400000D03*
X111600000Y-280600000D03*
X111600000Y-279800000D03*
X111600000Y-279000000D03*
X111600000Y-278200000D03*
X111600000Y-277400000D03*
X111600000Y-276600000D03*
X111600000Y-275800000D03*
X111600000Y-275000000D03*
X111600000Y-274200000D03*
X111600000Y-273400000D03*
X111600000Y-272600000D03*
X111600000Y-271800000D03*
X111600000Y-271000000D03*
X111600000Y-270200000D03*
X111600000Y-269400000D03*
X111600000Y-268600000D03*
X111600000Y-267800000D03*
X111600000Y-267000000D03*
X111600000Y-266200000D03*
X111600000Y-265400000D03*
X111600000Y-264600000D03*
X111600000Y-263800000D03*
X111600000Y-263000000D03*
X111600000Y-262200000D03*
X111600000Y-261400000D03*
X111600000Y-260600000D03*
X111600000Y-259800000D03*
X111600000Y-259000000D03*
X111600000Y-258200000D03*
X111600000Y-257400000D03*
X111600000Y-256600000D03*
X111600000Y-255800000D03*
X111600000Y-255000000D03*
X111600000Y-254200000D03*
X111600000Y-253400000D03*
X111600000Y-252600000D03*
X111600000Y-251800000D03*
X111600000Y-251000000D03*
X111600000Y-250200000D03*
X111600000Y-249400000D03*
X111600000Y-248600000D03*
X111600000Y-247800000D03*
X111600000Y-247000000D03*
X111600000Y-246200000D03*
X111600000Y-245400000D03*
X113200000Y-284600000D03*
X113200000Y-283800000D03*
X113200000Y-283000000D03*
X113200000Y-282200000D03*
X113200000Y-281400000D03*
X113200000Y-280600000D03*
X113200000Y-279800000D03*
X113200000Y-279000000D03*
X113200000Y-278200000D03*
X113200000Y-277400000D03*
X113200000Y-276600000D03*
X113200000Y-275800000D03*
X113200000Y-275000000D03*
X113200000Y-274200000D03*
X113200000Y-273400000D03*
X113200000Y-272600000D03*
X113200000Y-271800000D03*
X113200000Y-271000000D03*
X113200000Y-270200000D03*
X113200000Y-269400000D03*
X113200000Y-268600000D03*
X113200000Y-267800000D03*
X113200000Y-267000000D03*
X113200000Y-266200000D03*
X113200000Y-265400000D03*
X113200000Y-264600000D03*
X113200000Y-263800000D03*
X113200000Y-263000000D03*
X113200000Y-262200000D03*
X113200000Y-261400000D03*
X113200000Y-260600000D03*
X113200000Y-259800000D03*
X113200000Y-259000000D03*
X113200000Y-258200000D03*
X113200000Y-257400000D03*
X113200000Y-256600000D03*
X113200000Y-255800000D03*
X113200000Y-255000000D03*
X113200000Y-254200000D03*
X113200000Y-253400000D03*
X113200000Y-252600000D03*
X113200000Y-251800000D03*
X113200000Y-251000000D03*
X113200000Y-250200000D03*
X113200000Y-249400000D03*
X113200000Y-248600000D03*
X113200000Y-247800000D03*
X113200000Y-247000000D03*
X113200000Y-246200000D03*
X113200000Y-245400000D03*
X114800000Y-284600000D03*
X114800000Y-283800000D03*
X114800000Y-283000000D03*
X114800000Y-282200000D03*
X114800000Y-281400000D03*
X114800000Y-280600000D03*
X114800000Y-279800000D03*
X114800000Y-279000000D03*
X114800000Y-278200000D03*
X114800000Y-277400000D03*
X114800000Y-276600000D03*
X114800000Y-275800000D03*
X114800000Y-275000000D03*
X114800000Y-274200000D03*
X114800000Y-273400000D03*
X114800000Y-272600000D03*
X114800000Y-271800000D03*
X114800000Y-271000000D03*
X114800000Y-270200000D03*
X114800000Y-269400000D03*
X114800000Y-268600000D03*
X114800000Y-267800000D03*
X114800000Y-267000000D03*
X114800000Y-266200000D03*
X114800000Y-265400000D03*
X114800000Y-264600000D03*
X114800000Y-263800000D03*
X114800000Y-263000000D03*
X114800000Y-262200000D03*
X114800000Y-261400000D03*
X114800000Y-260600000D03*
X114800000Y-259800000D03*
X114800000Y-259000000D03*
X114800000Y-258200000D03*
X114800000Y-257400000D03*
X114800000Y-256600000D03*
X114800000Y-255800000D03*
X114800000Y-255000000D03*
X114800000Y-254200000D03*
X114800000Y-253400000D03*
X114800000Y-252600000D03*
X114800000Y-251800000D03*
X114800000Y-251000000D03*
X114800000Y-250200000D03*
X114800000Y-249400000D03*
X114800000Y-248600000D03*
X114800000Y-247800000D03*
X114800000Y-247000000D03*
X114800000Y-246200000D03*
X114800000Y-245400000D03*
X116400000Y-284600000D03*
X116400000Y-283800000D03*
X116400000Y-283000000D03*
X116400000Y-282200000D03*
X116400000Y-281400000D03*
X116400000Y-280600000D03*
X116400000Y-279800000D03*
X116400000Y-279000000D03*
X116400000Y-278200000D03*
X116400000Y-277400000D03*
X116400000Y-276600000D03*
X116400000Y-275800000D03*
X116400000Y-275000000D03*
X116400000Y-274200000D03*
X116400000Y-273400000D03*
X116400000Y-272600000D03*
X116400000Y-271800000D03*
X116400000Y-271000000D03*
X116400000Y-270200000D03*
X116400000Y-269400000D03*
X116400000Y-268600000D03*
X116400000Y-267800000D03*
X116400000Y-267000000D03*
X116400000Y-266200000D03*
X116400000Y-265400000D03*
X116400000Y-264600000D03*
X116400000Y-263800000D03*
X116400000Y-263000000D03*
X116400000Y-262200000D03*
X116400000Y-261400000D03*
X116400000Y-260600000D03*
X116400000Y-259800000D03*
X116400000Y-259000000D03*
X116400000Y-258200000D03*
X116400000Y-257400000D03*
X116400000Y-256600000D03*
X116400000Y-255800000D03*
X116400000Y-255000000D03*
X116400000Y-254200000D03*
X116400000Y-253400000D03*
X116400000Y-252600000D03*
X116400000Y-251800000D03*
X116400000Y-251000000D03*
X116400000Y-250200000D03*
X116400000Y-249400000D03*
X116400000Y-248600000D03*
X116400000Y-247800000D03*
X116400000Y-247000000D03*
X116400000Y-246200000D03*
X116400000Y-245400000D03*
%TD*%
%TO.C,J17*%
X279600000Y-284600000D03*
X279600000Y-283800000D03*
X279600000Y-283000000D03*
X279600000Y-282200000D03*
X279600000Y-281400000D03*
X279600000Y-280600000D03*
X279600000Y-279800000D03*
X279600000Y-279000000D03*
X279600000Y-278200000D03*
X279600000Y-277400000D03*
X279600000Y-276600000D03*
X279600000Y-275800000D03*
X279600000Y-275000000D03*
X279600000Y-274200000D03*
X279600000Y-273400000D03*
X279600000Y-272600000D03*
X279600000Y-271800000D03*
X279600000Y-271000000D03*
X279600000Y-270200000D03*
X279600000Y-269400000D03*
X279600000Y-268600000D03*
X279600000Y-267800000D03*
X279600000Y-267000000D03*
X279600000Y-266200000D03*
X279600000Y-265400000D03*
X279600000Y-264600000D03*
X279600000Y-263800000D03*
X279600000Y-263000000D03*
X279600000Y-262200000D03*
X279600000Y-261400000D03*
X279600000Y-260600000D03*
X279600000Y-259800000D03*
X279600000Y-259000000D03*
X279600000Y-258200000D03*
X279600000Y-257400000D03*
X279600000Y-256600000D03*
X279600000Y-255800000D03*
X279600000Y-255000000D03*
X279600000Y-254200000D03*
X279600000Y-253400000D03*
X279600000Y-252600000D03*
X279600000Y-251800000D03*
X279600000Y-251000000D03*
X279600000Y-250200000D03*
X279600000Y-249400000D03*
X279600000Y-248600000D03*
X279600000Y-247800000D03*
X279600000Y-247000000D03*
X279600000Y-246200000D03*
X279600000Y-245400000D03*
X281200000Y-284600000D03*
X281200000Y-283800000D03*
X281200000Y-283000000D03*
X281200000Y-282200000D03*
X281200000Y-281400000D03*
X281200000Y-280600000D03*
X281200000Y-279800000D03*
X281200000Y-279000000D03*
X281200000Y-278200000D03*
X281200000Y-277400000D03*
X281200000Y-276600000D03*
X281200000Y-275800000D03*
X281200000Y-275000000D03*
X281200000Y-274200000D03*
X281200000Y-273400000D03*
X281200000Y-272600000D03*
X281200000Y-271800000D03*
X281200000Y-271000000D03*
X281200000Y-270200000D03*
X281200000Y-269400000D03*
X281200000Y-268600000D03*
X281200000Y-267800000D03*
X281200000Y-267000000D03*
X281200000Y-266200000D03*
X281200000Y-265400000D03*
X281200000Y-264600000D03*
X281200000Y-263800000D03*
X281200000Y-263000000D03*
X281200000Y-262200000D03*
X281200000Y-261400000D03*
X281200000Y-260600000D03*
X281200000Y-259800000D03*
X281200000Y-259000000D03*
X281200000Y-258200000D03*
X281200000Y-257400000D03*
X281200000Y-256600000D03*
X281200000Y-255800000D03*
X281200000Y-255000000D03*
X281200000Y-254200000D03*
X281200000Y-253400000D03*
X281200000Y-252600000D03*
X281200000Y-251800000D03*
X281200000Y-251000000D03*
X281200000Y-250200000D03*
X281200000Y-249400000D03*
X281200000Y-248600000D03*
X281200000Y-247800000D03*
X281200000Y-247000000D03*
X281200000Y-246200000D03*
X281200000Y-245400000D03*
X282800000Y-284600000D03*
X282800000Y-283800000D03*
X282800000Y-283000000D03*
X282800000Y-282200000D03*
X282800000Y-281400000D03*
X282800000Y-280600000D03*
X282800000Y-279800000D03*
X282800000Y-279000000D03*
X282800000Y-278200000D03*
X282800000Y-277400000D03*
X282800000Y-276600000D03*
X282800000Y-275800000D03*
X282800000Y-275000000D03*
X282800000Y-274200000D03*
X282800000Y-273400000D03*
X282800000Y-272600000D03*
X282800000Y-271800000D03*
X282800000Y-271000000D03*
X282800000Y-270200000D03*
X282800000Y-269400000D03*
X282800000Y-268600000D03*
X282800000Y-267800000D03*
X282800000Y-267000000D03*
X282800000Y-266200000D03*
X282800000Y-265400000D03*
X282800000Y-264600000D03*
X282800000Y-263800000D03*
X282800000Y-263000000D03*
X282800000Y-262200000D03*
X282800000Y-261400000D03*
X282800000Y-260600000D03*
X282800000Y-259800000D03*
X282800000Y-259000000D03*
X282800000Y-258200000D03*
X282800000Y-257400000D03*
X282800000Y-256600000D03*
X282800000Y-255800000D03*
X282800000Y-255000000D03*
X282800000Y-254200000D03*
X282800000Y-253400000D03*
X282800000Y-252600000D03*
X282800000Y-251800000D03*
X282800000Y-251000000D03*
X282800000Y-250200000D03*
X282800000Y-249400000D03*
X282800000Y-248600000D03*
X282800000Y-247800000D03*
X282800000Y-247000000D03*
X282800000Y-246200000D03*
X282800000Y-245400000D03*
X284400000Y-284600000D03*
X284400000Y-283800000D03*
X284400000Y-283000000D03*
X284400000Y-282200000D03*
X284400000Y-281400000D03*
X284400000Y-280600000D03*
X284400000Y-279800000D03*
X284400000Y-279000000D03*
X284400000Y-278200000D03*
X284400000Y-277400000D03*
X284400000Y-276600000D03*
X284400000Y-275800000D03*
X284400000Y-275000000D03*
X284400000Y-274200000D03*
X284400000Y-273400000D03*
X284400000Y-272600000D03*
X284400000Y-271800000D03*
X284400000Y-271000000D03*
X284400000Y-270200000D03*
X284400000Y-269400000D03*
X284400000Y-268600000D03*
X284400000Y-267800000D03*
X284400000Y-267000000D03*
X284400000Y-266200000D03*
X284400000Y-265400000D03*
X284400000Y-264600000D03*
X284400000Y-263800000D03*
X284400000Y-263000000D03*
X284400000Y-262200000D03*
X284400000Y-261400000D03*
X284400000Y-260600000D03*
X284400000Y-259800000D03*
X284400000Y-259000000D03*
X284400000Y-258200000D03*
X284400000Y-257400000D03*
X284400000Y-256600000D03*
X284400000Y-255800000D03*
X284400000Y-255000000D03*
X284400000Y-254200000D03*
X284400000Y-253400000D03*
X284400000Y-252600000D03*
X284400000Y-251800000D03*
X284400000Y-251000000D03*
X284400000Y-250200000D03*
X284400000Y-249400000D03*
X284400000Y-248600000D03*
X284400000Y-247800000D03*
X284400000Y-247000000D03*
X284400000Y-246200000D03*
X284400000Y-245400000D03*
%TD*%
%TO.C,J18*%
X321600000Y-284600000D03*
X321600000Y-283800000D03*
X321600000Y-283000000D03*
X321600000Y-282200000D03*
X321600000Y-281400000D03*
X321600000Y-280600000D03*
X321600000Y-279800000D03*
X321600000Y-279000000D03*
X321600000Y-278200000D03*
X321600000Y-277400000D03*
X321600000Y-276600000D03*
X321600000Y-275800000D03*
X321600000Y-275000000D03*
X321600000Y-274200000D03*
X321600000Y-273400000D03*
X321600000Y-272600000D03*
X321600000Y-271800000D03*
X321600000Y-271000000D03*
X321600000Y-270200000D03*
X321600000Y-269400000D03*
X321600000Y-268600000D03*
X321600000Y-267800000D03*
X321600000Y-267000000D03*
X321600000Y-266200000D03*
X321600000Y-265400000D03*
X321600000Y-264600000D03*
X321600000Y-263800000D03*
X321600000Y-263000000D03*
X321600000Y-262200000D03*
X321600000Y-261400000D03*
X321600000Y-260600000D03*
X321600000Y-259800000D03*
X321600000Y-259000000D03*
X321600000Y-258200000D03*
X321600000Y-257400000D03*
X321600000Y-256600000D03*
X321600000Y-255800000D03*
X321600000Y-255000000D03*
X321600000Y-254200000D03*
X321600000Y-253400000D03*
X321600000Y-252600000D03*
X321600000Y-251800000D03*
X321600000Y-251000000D03*
X321600000Y-250200000D03*
X321600000Y-249400000D03*
X321600000Y-248600000D03*
X321600000Y-247800000D03*
X321600000Y-247000000D03*
X321600000Y-246200000D03*
X321600000Y-245400000D03*
X323200000Y-284600000D03*
X323200000Y-283800000D03*
X323200000Y-283000000D03*
X323200000Y-282200000D03*
X323200000Y-281400000D03*
X323200000Y-280600000D03*
X323200000Y-279800000D03*
X323200000Y-279000000D03*
X323200000Y-278200000D03*
X323200000Y-277400000D03*
X323200000Y-276600000D03*
X323200000Y-275800000D03*
X323200000Y-275000000D03*
X323200000Y-274200000D03*
X323200000Y-273400000D03*
X323200000Y-272600000D03*
X323200000Y-271800000D03*
X323200000Y-271000000D03*
X323200000Y-270200000D03*
X323200000Y-269400000D03*
X323200000Y-268600000D03*
X323200000Y-267800000D03*
X323200000Y-267000000D03*
X323200000Y-266200000D03*
X323200000Y-265400000D03*
X323200000Y-264600000D03*
X323200000Y-263800000D03*
X323200000Y-263000000D03*
X323200000Y-262200000D03*
X323200000Y-261400000D03*
X323200000Y-260600000D03*
X323200000Y-259800000D03*
X323200000Y-259000000D03*
X323200000Y-258200000D03*
X323200000Y-257400000D03*
X323200000Y-256600000D03*
X323200000Y-255800000D03*
X323200000Y-255000000D03*
X323200000Y-254200000D03*
X323200000Y-253400000D03*
X323200000Y-252600000D03*
X323200000Y-251800000D03*
X323200000Y-251000000D03*
X323200000Y-250200000D03*
X323200000Y-249400000D03*
X323200000Y-248600000D03*
X323200000Y-247800000D03*
X323200000Y-247000000D03*
X323200000Y-246200000D03*
X323200000Y-245400000D03*
X324800000Y-284600000D03*
X324800000Y-283800000D03*
X324800000Y-283000000D03*
X324800000Y-282200000D03*
X324800000Y-281400000D03*
X324800000Y-280600000D03*
X324800000Y-279800000D03*
X324800000Y-279000000D03*
X324800000Y-278200000D03*
X324800000Y-277400000D03*
X324800000Y-276600000D03*
X324800000Y-275800000D03*
X324800000Y-275000000D03*
X324800000Y-274200000D03*
X324800000Y-273400000D03*
X324800000Y-272600000D03*
X324800000Y-271800000D03*
X324800000Y-271000000D03*
X324800000Y-270200000D03*
X324800000Y-269400000D03*
X324800000Y-268600000D03*
X324800000Y-267800000D03*
X324800000Y-267000000D03*
X324800000Y-266200000D03*
X324800000Y-265400000D03*
X324800000Y-264600000D03*
X324800000Y-263800000D03*
X324800000Y-263000000D03*
X324800000Y-262200000D03*
X324800000Y-261400000D03*
X324800000Y-260600000D03*
X324800000Y-259800000D03*
X324800000Y-259000000D03*
X324800000Y-258200000D03*
X324800000Y-257400000D03*
X324800000Y-256600000D03*
X324800000Y-255800000D03*
X324800000Y-255000000D03*
X324800000Y-254200000D03*
X324800000Y-253400000D03*
X324800000Y-252600000D03*
X324800000Y-251800000D03*
X324800000Y-251000000D03*
X324800000Y-250200000D03*
X324800000Y-249400000D03*
X324800000Y-248600000D03*
X324800000Y-247800000D03*
X324800000Y-247000000D03*
X324800000Y-246200000D03*
X324800000Y-245400000D03*
X326400000Y-284600000D03*
X326400000Y-283800000D03*
X326400000Y-283000000D03*
X326400000Y-282200000D03*
X326400000Y-281400000D03*
X326400000Y-280600000D03*
X326400000Y-279800000D03*
X326400000Y-279000000D03*
X326400000Y-278200000D03*
X326400000Y-277400000D03*
X326400000Y-276600000D03*
X326400000Y-275800000D03*
X326400000Y-275000000D03*
X326400000Y-274200000D03*
X326400000Y-273400000D03*
X326400000Y-272600000D03*
X326400000Y-271800000D03*
X326400000Y-271000000D03*
X326400000Y-270200000D03*
X326400000Y-269400000D03*
X326400000Y-268600000D03*
X326400000Y-267800000D03*
X326400000Y-267000000D03*
X326400000Y-266200000D03*
X326400000Y-265400000D03*
X326400000Y-264600000D03*
X326400000Y-263800000D03*
X326400000Y-263000000D03*
X326400000Y-262200000D03*
X326400000Y-261400000D03*
X326400000Y-260600000D03*
X326400000Y-259800000D03*
X326400000Y-259000000D03*
X326400000Y-258200000D03*
X326400000Y-257400000D03*
X326400000Y-256600000D03*
X326400000Y-255800000D03*
X326400000Y-255000000D03*
X326400000Y-254200000D03*
X326400000Y-253400000D03*
X326400000Y-252600000D03*
X326400000Y-251800000D03*
X326400000Y-251000000D03*
X326400000Y-250200000D03*
X326400000Y-249400000D03*
X326400000Y-248600000D03*
X326400000Y-247800000D03*
X326400000Y-247000000D03*
X326400000Y-246200000D03*
X326400000Y-245400000D03*
%TD*%
%TO.C,J12*%
X69600000Y-284600000D03*
X69600000Y-283800000D03*
X69600000Y-283000000D03*
X69600000Y-282200000D03*
X69600000Y-281400000D03*
X69600000Y-280600000D03*
X69600000Y-279800000D03*
X69600000Y-279000000D03*
X69600000Y-278200000D03*
X69600000Y-277400000D03*
X69600000Y-276600000D03*
X69600000Y-275800000D03*
X69600000Y-275000000D03*
X69600000Y-274200000D03*
X69600000Y-273400000D03*
X69600000Y-272600000D03*
X69600000Y-271800000D03*
X69600000Y-271000000D03*
X69600000Y-270200000D03*
X69600000Y-269400000D03*
X69600000Y-268600000D03*
X69600000Y-267800000D03*
X69600000Y-267000000D03*
X69600000Y-266200000D03*
X69600000Y-265400000D03*
X69600000Y-264600000D03*
X69600000Y-263800000D03*
X69600000Y-263000000D03*
X69600000Y-262200000D03*
X69600000Y-261400000D03*
X69600000Y-260600000D03*
X69600000Y-259800000D03*
X69600000Y-259000000D03*
X69600000Y-258200000D03*
X69600000Y-257400000D03*
X69600000Y-256600000D03*
X69600000Y-255800000D03*
X69600000Y-255000000D03*
X69600000Y-254200000D03*
X69600000Y-253400000D03*
X69600000Y-252600000D03*
X69600000Y-251800000D03*
X69600000Y-251000000D03*
X69600000Y-250200000D03*
X69600000Y-249400000D03*
X69600000Y-248600000D03*
X69600000Y-247800000D03*
X69600000Y-247000000D03*
X69600000Y-246200000D03*
X69600000Y-245400000D03*
X71200000Y-284600000D03*
X71200000Y-283800000D03*
X71200000Y-283000000D03*
X71200000Y-282200000D03*
X71200000Y-281400000D03*
X71200000Y-280600000D03*
X71200000Y-279800000D03*
X71200000Y-279000000D03*
X71200000Y-278200000D03*
X71200000Y-277400000D03*
X71200000Y-276600000D03*
X71200000Y-275800000D03*
X71200000Y-275000000D03*
X71200000Y-274200000D03*
X71200000Y-273400000D03*
X71200000Y-272600000D03*
X71200000Y-271800000D03*
X71200000Y-271000000D03*
X71200000Y-270200000D03*
X71200000Y-269400000D03*
X71200000Y-268600000D03*
X71200000Y-267800000D03*
X71200000Y-267000000D03*
X71200000Y-266200000D03*
X71200000Y-265400000D03*
X71200000Y-264600000D03*
X71200000Y-263800000D03*
X71200000Y-263000000D03*
X71200000Y-262200000D03*
X71200000Y-261400000D03*
X71200000Y-260600000D03*
X71200000Y-259800000D03*
X71200000Y-259000000D03*
X71200000Y-258200000D03*
X71200000Y-257400000D03*
X71200000Y-256600000D03*
X71200000Y-255800000D03*
X71200000Y-255000000D03*
X71200000Y-254200000D03*
X71200000Y-253400000D03*
X71200000Y-252600000D03*
X71200000Y-251800000D03*
X71200000Y-251000000D03*
X71200000Y-250200000D03*
X71200000Y-249400000D03*
X71200000Y-248600000D03*
X71200000Y-247800000D03*
X71200000Y-247000000D03*
X71200000Y-246200000D03*
X71200000Y-245400000D03*
X72800000Y-284600000D03*
X72800000Y-283800000D03*
X72800000Y-283000000D03*
X72800000Y-282200000D03*
X72800000Y-281400000D03*
X72800000Y-280600000D03*
X72800000Y-279800000D03*
X72800000Y-279000000D03*
X72800000Y-278200000D03*
X72800000Y-277400000D03*
X72800000Y-276600000D03*
X72800000Y-275800000D03*
X72800000Y-275000000D03*
X72800000Y-274200000D03*
X72800000Y-273400000D03*
X72800000Y-272600000D03*
X72800000Y-271800000D03*
X72800000Y-271000000D03*
X72800000Y-270200000D03*
X72800000Y-269400000D03*
X72800000Y-268600000D03*
X72800000Y-267800000D03*
X72800000Y-267000000D03*
X72800000Y-266200000D03*
X72800000Y-265400000D03*
X72800000Y-264600000D03*
X72800000Y-263800000D03*
X72800000Y-263000000D03*
X72800000Y-262200000D03*
X72800000Y-261400000D03*
X72800000Y-260600000D03*
X72800000Y-259800000D03*
X72800000Y-259000000D03*
X72800000Y-258200000D03*
X72800000Y-257400000D03*
X72800000Y-256600000D03*
X72800000Y-255800000D03*
X72800000Y-255000000D03*
X72800000Y-254200000D03*
X72800000Y-253400000D03*
X72800000Y-252600000D03*
X72800000Y-251800000D03*
X72800000Y-251000000D03*
X72800000Y-250200000D03*
X72800000Y-249400000D03*
X72800000Y-248600000D03*
X72800000Y-247800000D03*
X72800000Y-247000000D03*
X72800000Y-246200000D03*
X72800000Y-245400000D03*
X74400000Y-284600000D03*
X74400000Y-283800000D03*
X74400000Y-283000000D03*
X74400000Y-282200000D03*
X74400000Y-281400000D03*
X74400000Y-280600000D03*
X74400000Y-279800000D03*
X74400000Y-279000000D03*
X74400000Y-278200000D03*
X74400000Y-277400000D03*
X74400000Y-276600000D03*
X74400000Y-275800000D03*
X74400000Y-275000000D03*
X74400000Y-274200000D03*
X74400000Y-273400000D03*
X74400000Y-272600000D03*
X74400000Y-271800000D03*
X74400000Y-271000000D03*
X74400000Y-270200000D03*
X74400000Y-269400000D03*
X74400000Y-268600000D03*
X74400000Y-267800000D03*
X74400000Y-267000000D03*
X74400000Y-266200000D03*
X74400000Y-265400000D03*
X74400000Y-264600000D03*
X74400000Y-263800000D03*
X74400000Y-263000000D03*
X74400000Y-262200000D03*
X74400000Y-261400000D03*
X74400000Y-260600000D03*
X74400000Y-259800000D03*
X74400000Y-259000000D03*
X74400000Y-258200000D03*
X74400000Y-257400000D03*
X74400000Y-256600000D03*
X74400000Y-255800000D03*
X74400000Y-255000000D03*
X74400000Y-254200000D03*
X74400000Y-253400000D03*
X74400000Y-252600000D03*
X74400000Y-251800000D03*
X74400000Y-251000000D03*
X74400000Y-250200000D03*
X74400000Y-249400000D03*
X74400000Y-248600000D03*
X74400000Y-247800000D03*
X74400000Y-247000000D03*
X74400000Y-246200000D03*
X74400000Y-245400000D03*
%TD*%
D13*
%TO.C,C3*%
X71300000Y-210000000D03*
X78700000Y-210000000D03*
%TD*%
D24*
%TO.C,J5*%
X196500000Y-77250000D03*
X196500000Y-76750000D03*
X196500000Y-76250000D03*
X196500000Y-75750000D03*
X196500000Y-75250000D03*
X196500000Y-74750000D03*
X196500000Y-74250000D03*
X196500000Y-73750000D03*
X196500000Y-73250000D03*
X196500000Y-72750000D03*
X196500000Y-72250000D03*
X196500000Y-71750000D03*
X196500000Y-71250000D03*
X196500000Y-70750000D03*
X196500000Y-70250000D03*
X196500000Y-69750000D03*
X196500000Y-69250000D03*
X196500000Y-68750000D03*
X196500000Y-68250000D03*
X196500000Y-67750000D03*
X196500000Y-67250000D03*
X196500000Y-66750000D03*
X196500000Y-66250000D03*
X196500000Y-65750000D03*
X196500000Y-65250000D03*
X196500000Y-64750000D03*
X196500000Y-64250000D03*
X196500000Y-63750000D03*
X196500000Y-63250000D03*
X196500000Y-62750000D03*
X196500000Y-62250000D03*
X196500000Y-61750000D03*
X196500000Y-61250000D03*
X196500000Y-60750000D03*
X196500000Y-60250000D03*
X196500000Y-59750000D03*
X196500000Y-59250000D03*
X196500000Y-58750000D03*
X196500000Y-58250000D03*
X196500000Y-57750000D03*
X196500000Y-57250000D03*
X196500000Y-56750000D03*
X196500000Y-56250000D03*
X196500000Y-55750000D03*
X196500000Y-55250000D03*
X196500000Y-54750000D03*
X196500000Y-54250000D03*
X196500000Y-53750000D03*
X196500000Y-53250000D03*
X196500000Y-52750000D03*
X196500000Y-52250000D03*
X196500000Y-51750000D03*
X196500000Y-51250000D03*
X196500000Y-50750000D03*
X196500000Y-50250000D03*
X196500000Y-49750000D03*
X196500000Y-49250000D03*
X196500000Y-48750000D03*
X196500000Y-48250000D03*
X196500000Y-47750000D03*
X196500000Y-47250000D03*
X196500000Y-46750000D03*
X196500000Y-46250000D03*
X196500000Y-45750000D03*
X196500000Y-45250000D03*
X196500000Y-44750000D03*
X196500000Y-44250000D03*
X196500000Y-43750000D03*
X196500000Y-43250000D03*
X196500000Y-42750000D03*
X196500000Y-42250000D03*
X196500000Y-41750000D03*
X196500000Y-41250000D03*
X196500000Y-40750000D03*
X196500000Y-40250000D03*
X196500000Y-39750000D03*
X196500000Y-39250000D03*
X196500000Y-38750000D03*
X196500000Y-38250000D03*
X196500000Y-37750000D03*
X196500000Y-37250000D03*
X196500000Y-36750000D03*
X196500000Y-36250000D03*
X196500000Y-35750000D03*
X196500000Y-35250000D03*
X196500000Y-34750000D03*
X196500000Y-34250000D03*
X196500000Y-33750000D03*
X196500000Y-33250000D03*
X196500000Y-32750000D03*
X196500000Y-32250000D03*
X196500000Y-31750000D03*
X196500000Y-31250000D03*
X196500000Y-30750000D03*
X196500000Y-30250000D03*
X196500000Y-29750000D03*
X196500000Y-29250000D03*
X196500000Y-28750000D03*
X196500000Y-28250000D03*
X196500000Y-27750000D03*
X196500000Y-27250000D03*
X196500000Y-26750000D03*
X196500000Y-26250000D03*
X196500000Y-25750000D03*
X196500000Y-25250000D03*
X196500000Y-24750000D03*
X196500000Y-24250000D03*
X196500000Y-23750000D03*
X196500000Y-23250000D03*
X196500000Y-22750000D03*
X196500000Y-22250000D03*
X196500000Y-21750000D03*
X196500000Y-21250000D03*
X196500000Y-20750000D03*
X196500000Y-20250000D03*
X196500000Y-19750000D03*
X196500000Y-19250000D03*
X196500000Y-18750000D03*
X196500000Y-18250000D03*
X196500000Y-17750000D03*
X196500000Y-17250000D03*
X196500000Y-16750000D03*
X196500000Y-16250000D03*
X196500000Y-15750000D03*
X196500000Y-15250000D03*
X196500000Y-14750000D03*
X196500000Y-14250000D03*
X196500000Y-13750000D03*
X196500000Y-13250000D03*
X196500000Y-12750000D03*
X199500000Y-77250000D03*
X199500000Y-76750000D03*
X199500000Y-76250000D03*
X199500000Y-75750000D03*
X199500000Y-75250000D03*
X199500000Y-74750000D03*
X199500000Y-74250000D03*
X199500000Y-73750000D03*
X199500000Y-73250000D03*
X199500000Y-72750000D03*
X199500000Y-72250000D03*
X199500000Y-71750000D03*
X199500000Y-71250000D03*
X199500000Y-70750000D03*
X199500000Y-70250000D03*
X199500000Y-69750000D03*
X199500000Y-69250000D03*
X199500000Y-68750000D03*
X199500000Y-68250000D03*
X199500000Y-67750000D03*
X199500000Y-67250000D03*
X199500000Y-66750000D03*
X199500000Y-66250000D03*
X199500000Y-65750000D03*
X199500000Y-65250000D03*
X199500000Y-64750000D03*
X199500000Y-64250000D03*
X199500000Y-63750000D03*
X199500000Y-63250000D03*
X199500000Y-62750000D03*
X199500000Y-62250000D03*
X199500000Y-61750000D03*
X199500000Y-61250000D03*
X199500000Y-60750000D03*
X199500000Y-60250000D03*
X199500000Y-59750000D03*
X199500000Y-59250000D03*
X199500000Y-58750000D03*
X199500000Y-58250000D03*
X199500000Y-57750000D03*
X199500000Y-57250000D03*
X199500000Y-56750000D03*
X199500000Y-56250000D03*
X199500000Y-55750000D03*
X199500000Y-55250000D03*
X199500000Y-54750000D03*
X199500000Y-54250000D03*
X199500000Y-53750000D03*
X199500000Y-53250000D03*
X199500000Y-52750000D03*
X199500000Y-52250000D03*
X199500000Y-51750000D03*
X199500000Y-51250000D03*
X199500000Y-50750000D03*
X199500000Y-50250000D03*
X199500000Y-49750000D03*
X199500000Y-49250000D03*
X199500000Y-48750000D03*
X199500000Y-48250000D03*
X199500000Y-47750000D03*
X199500000Y-47250000D03*
X199500000Y-46750000D03*
X199500000Y-46250000D03*
X199500000Y-45750000D03*
X199500000Y-45250000D03*
X199500000Y-44750000D03*
X199500000Y-44250000D03*
X199500000Y-43750000D03*
X199500000Y-43250000D03*
X199500000Y-42750000D03*
X199500000Y-42250000D03*
X199500000Y-41750000D03*
X199500000Y-41250000D03*
X199500000Y-40750000D03*
X199500000Y-40250000D03*
X199500000Y-39750000D03*
X199500000Y-39250000D03*
X199500000Y-38750000D03*
X199500000Y-38250000D03*
X199500000Y-37750000D03*
X199500000Y-37250000D03*
X199500000Y-36750000D03*
X199500000Y-36250000D03*
X199500000Y-35750000D03*
X199500000Y-35250000D03*
X199500000Y-34750000D03*
X199500000Y-34250000D03*
X199500000Y-33750000D03*
X199500000Y-33250000D03*
X199500000Y-32750000D03*
X199500000Y-32250000D03*
X199500000Y-31750000D03*
X199500000Y-31250000D03*
X199500000Y-30750000D03*
X199500000Y-30250000D03*
X199500000Y-29750000D03*
X199500000Y-29250000D03*
X199500000Y-28750000D03*
X199500000Y-28250000D03*
X199500000Y-27750000D03*
X199500000Y-27250000D03*
X199500000Y-26750000D03*
X199500000Y-26250000D03*
X199500000Y-25750000D03*
X199500000Y-25250000D03*
X199500000Y-24750000D03*
X199500000Y-24250000D03*
X199500000Y-23750000D03*
X199500000Y-23250000D03*
X199500000Y-22750000D03*
X199500000Y-22250000D03*
X199500000Y-21750000D03*
X199500000Y-21250000D03*
X199500000Y-20750000D03*
X199500000Y-20250000D03*
X199500000Y-19750000D03*
X199500000Y-19250000D03*
X199500000Y-18750000D03*
X199500000Y-18250000D03*
X199500000Y-17750000D03*
X199500000Y-17250000D03*
X199500000Y-16750000D03*
X199500000Y-16250000D03*
X199500000Y-15750000D03*
X199500000Y-15250000D03*
X199500000Y-14750000D03*
X199500000Y-14250000D03*
X199500000Y-13750000D03*
X199500000Y-13250000D03*
X199500000Y-12750000D03*
%TD*%
%TO.C,J2*%
X70500000Y-77250000D03*
X70500000Y-76750000D03*
X70500000Y-76250000D03*
X70500000Y-75750000D03*
X70500000Y-75250000D03*
X70500000Y-74750000D03*
X70500000Y-74250000D03*
X70500000Y-73750000D03*
X70500000Y-73250000D03*
X70500000Y-72750000D03*
X70500000Y-72250000D03*
X70500000Y-71750000D03*
X70500000Y-71250000D03*
X70500000Y-70750000D03*
X70500000Y-70250000D03*
X70500000Y-69750000D03*
X70500000Y-69250000D03*
X70500000Y-68750000D03*
X70500000Y-68250000D03*
X70500000Y-67750000D03*
X70500000Y-67250000D03*
X70500000Y-66750000D03*
X70500000Y-66250000D03*
X70500000Y-65750000D03*
X70500000Y-65250000D03*
X70500000Y-64750000D03*
X70500000Y-64250000D03*
X70500000Y-63750000D03*
X70500000Y-63250000D03*
X70500000Y-62750000D03*
X70500000Y-62250000D03*
X70500000Y-61750000D03*
X70500000Y-61250000D03*
X70500000Y-60750000D03*
X70500000Y-60250000D03*
X70500000Y-59750000D03*
X70500000Y-59250000D03*
X70500000Y-58750000D03*
X70500000Y-58250000D03*
X70500000Y-57750000D03*
X70500000Y-57250000D03*
X70500000Y-56750000D03*
X70500000Y-56250000D03*
X70500000Y-55750000D03*
X70500000Y-55250000D03*
X70500000Y-54750000D03*
X70500000Y-54250000D03*
X70500000Y-53750000D03*
X70500000Y-53250000D03*
X70500000Y-52750000D03*
X70500000Y-52250000D03*
X70500000Y-51750000D03*
X70500000Y-51250000D03*
X70500000Y-50750000D03*
X70500000Y-50250000D03*
X70500000Y-49750000D03*
X70500000Y-49250000D03*
X70500000Y-48750000D03*
X70500000Y-48250000D03*
X70500000Y-47750000D03*
X70500000Y-47250000D03*
X70500000Y-46750000D03*
X70500000Y-46250000D03*
X70500000Y-45750000D03*
X70500000Y-45250000D03*
X70500000Y-44750000D03*
X70500000Y-44250000D03*
X70500000Y-43750000D03*
X70500000Y-43250000D03*
X70500000Y-42750000D03*
X70500000Y-42250000D03*
X70500000Y-41750000D03*
X70500000Y-41250000D03*
X70500000Y-40750000D03*
X70500000Y-40250000D03*
X70500000Y-39750000D03*
X70500000Y-39250000D03*
X70500000Y-38750000D03*
X70500000Y-38250000D03*
X70500000Y-37750000D03*
X70500000Y-37250000D03*
X70500000Y-36750000D03*
X70500000Y-36250000D03*
X70500000Y-35750000D03*
X70500000Y-35250000D03*
X70500000Y-34750000D03*
X70500000Y-34250000D03*
X70500000Y-33750000D03*
X70500000Y-33250000D03*
X70500000Y-32750000D03*
X70500000Y-32250000D03*
X70500000Y-31750000D03*
X70500000Y-31250000D03*
X70500000Y-30750000D03*
X70500000Y-30250000D03*
X70500000Y-29750000D03*
X70500000Y-29250000D03*
X70500000Y-28750000D03*
X70500000Y-28250000D03*
X70500000Y-27750000D03*
X70500000Y-27250000D03*
X70500000Y-26750000D03*
X70500000Y-26250000D03*
X70500000Y-25750000D03*
X70500000Y-25250000D03*
X70500000Y-24750000D03*
X70500000Y-24250000D03*
X70500000Y-23750000D03*
X70500000Y-23250000D03*
X70500000Y-22750000D03*
X70500000Y-22250000D03*
X70500000Y-21750000D03*
X70500000Y-21250000D03*
X70500000Y-20750000D03*
X70500000Y-20250000D03*
X70500000Y-19750000D03*
X70500000Y-19250000D03*
X70500000Y-18750000D03*
X70500000Y-18250000D03*
X70500000Y-17750000D03*
X70500000Y-17250000D03*
X70500000Y-16750000D03*
X70500000Y-16250000D03*
X70500000Y-15750000D03*
X70500000Y-15250000D03*
X70500000Y-14750000D03*
X70500000Y-14250000D03*
X70500000Y-13750000D03*
X70500000Y-13250000D03*
X70500000Y-12750000D03*
X73500000Y-77250000D03*
X73500000Y-76750000D03*
X73500000Y-76250000D03*
X73500000Y-75750000D03*
X73500000Y-75250000D03*
X73500000Y-74750000D03*
X73500000Y-74250000D03*
X73500000Y-73750000D03*
X73500000Y-73250000D03*
X73500000Y-72750000D03*
X73500000Y-72250000D03*
X73500000Y-71750000D03*
X73500000Y-71250000D03*
X73500000Y-70750000D03*
X73500000Y-70250000D03*
X73500000Y-69750000D03*
X73500000Y-69250000D03*
X73500000Y-68750000D03*
X73500000Y-68250000D03*
X73500000Y-67750000D03*
X73500000Y-67250000D03*
X73500000Y-66750000D03*
X73500000Y-66250000D03*
X73500000Y-65750000D03*
X73500000Y-65250000D03*
X73500000Y-64750000D03*
X73500000Y-64250000D03*
X73500000Y-63750000D03*
X73500000Y-63250000D03*
X73500000Y-62750000D03*
X73500000Y-62250000D03*
X73500000Y-61750000D03*
X73500000Y-61250000D03*
X73500000Y-60750000D03*
X73500000Y-60250000D03*
X73500000Y-59750000D03*
X73500000Y-59250000D03*
X73500000Y-58750000D03*
X73500000Y-58250000D03*
X73500000Y-57750000D03*
X73500000Y-57250000D03*
X73500000Y-56750000D03*
X73500000Y-56250000D03*
X73500000Y-55750000D03*
X73500000Y-55250000D03*
X73500000Y-54750000D03*
X73500000Y-54250000D03*
X73500000Y-53750000D03*
X73500000Y-53250000D03*
X73500000Y-52750000D03*
X73500000Y-52250000D03*
X73500000Y-51750000D03*
X73500000Y-51250000D03*
X73500000Y-50750000D03*
X73500000Y-50250000D03*
X73500000Y-49750000D03*
X73500000Y-49250000D03*
X73500000Y-48750000D03*
X73500000Y-48250000D03*
X73500000Y-47750000D03*
X73500000Y-47250000D03*
X73500000Y-46750000D03*
X73500000Y-46250000D03*
X73500000Y-45750000D03*
X73500000Y-45250000D03*
X73500000Y-44750000D03*
X73500000Y-44250000D03*
X73500000Y-43750000D03*
X73500000Y-43250000D03*
X73500000Y-42750000D03*
X73500000Y-42250000D03*
X73500000Y-41750000D03*
X73500000Y-41250000D03*
X73500000Y-40750000D03*
X73500000Y-40250000D03*
X73500000Y-39750000D03*
X73500000Y-39250000D03*
X73500000Y-38750000D03*
X73500000Y-38250000D03*
X73500000Y-37750000D03*
X73500000Y-37250000D03*
X73500000Y-36750000D03*
X73500000Y-36250000D03*
X73500000Y-35750000D03*
X73500000Y-35250000D03*
X73500000Y-34750000D03*
X73500000Y-34250000D03*
X73500000Y-33750000D03*
X73500000Y-33250000D03*
X73500000Y-32750000D03*
X73500000Y-32250000D03*
X73500000Y-31750000D03*
X73500000Y-31250000D03*
X73500000Y-30750000D03*
X73500000Y-30250000D03*
X73500000Y-29750000D03*
X73500000Y-29250000D03*
X73500000Y-28750000D03*
X73500000Y-28250000D03*
X73500000Y-27750000D03*
X73500000Y-27250000D03*
X73500000Y-26750000D03*
X73500000Y-26250000D03*
X73500000Y-25750000D03*
X73500000Y-25250000D03*
X73500000Y-24750000D03*
X73500000Y-24250000D03*
X73500000Y-23750000D03*
X73500000Y-23250000D03*
X73500000Y-22750000D03*
X73500000Y-22250000D03*
X73500000Y-21750000D03*
X73500000Y-21250000D03*
X73500000Y-20750000D03*
X73500000Y-20250000D03*
X73500000Y-19750000D03*
X73500000Y-19250000D03*
X73500000Y-18750000D03*
X73500000Y-18250000D03*
X73500000Y-17750000D03*
X73500000Y-17250000D03*
X73500000Y-16750000D03*
X73500000Y-16250000D03*
X73500000Y-15750000D03*
X73500000Y-15250000D03*
X73500000Y-14750000D03*
X73500000Y-14250000D03*
X73500000Y-13750000D03*
X73500000Y-13250000D03*
X73500000Y-12750000D03*
%TD*%
%TO.C,J7*%
X280500000Y-77250000D03*
X280500000Y-76750000D03*
X280500000Y-76250000D03*
X280500000Y-75750000D03*
X280500000Y-75250000D03*
X280500000Y-74750000D03*
X280500000Y-74250000D03*
X280500000Y-73750000D03*
X280500000Y-73250000D03*
X280500000Y-72750000D03*
X280500000Y-72250000D03*
X280500000Y-71750000D03*
X280500000Y-71250000D03*
X280500000Y-70750000D03*
X280500000Y-70250000D03*
X280500000Y-69750000D03*
X280500000Y-69250000D03*
X280500000Y-68750000D03*
X280500000Y-68250000D03*
X280500000Y-67750000D03*
X280500000Y-67250000D03*
X280500000Y-66750000D03*
X280500000Y-66250000D03*
X280500000Y-65750000D03*
X280500000Y-65250000D03*
X280500000Y-64750000D03*
X280500000Y-64250000D03*
X280500000Y-63750000D03*
X280500000Y-63250000D03*
X280500000Y-62750000D03*
X280500000Y-62250000D03*
X280500000Y-61750000D03*
X280500000Y-61250000D03*
X280500000Y-60750000D03*
X280500000Y-60250000D03*
X280500000Y-59750000D03*
X280500000Y-59250000D03*
X280500000Y-58750000D03*
X280500000Y-58250000D03*
X280500000Y-57750000D03*
X280500000Y-57250000D03*
X280500000Y-56750000D03*
X280500000Y-56250000D03*
X280500000Y-55750000D03*
X280500000Y-55250000D03*
X280500000Y-54750000D03*
X280500000Y-54250000D03*
X280500000Y-53750000D03*
X280500000Y-53250000D03*
X280500000Y-52750000D03*
X280500000Y-52250000D03*
X280500000Y-51750000D03*
X280500000Y-51250000D03*
X280500000Y-50750000D03*
X280500000Y-50250000D03*
X280500000Y-49750000D03*
X280500000Y-49250000D03*
X280500000Y-48750000D03*
X280500000Y-48250000D03*
X280500000Y-47750000D03*
X280500000Y-47250000D03*
X280500000Y-46750000D03*
X280500000Y-46250000D03*
X280500000Y-45750000D03*
X280500000Y-45250000D03*
X280500000Y-44750000D03*
X280500000Y-44250000D03*
X280500000Y-43750000D03*
X280500000Y-43250000D03*
X280500000Y-42750000D03*
X280500000Y-42250000D03*
X280500000Y-41750000D03*
X280500000Y-41250000D03*
X280500000Y-40750000D03*
X280500000Y-40250000D03*
X280500000Y-39750000D03*
X280500000Y-39250000D03*
X280500000Y-38750000D03*
X280500000Y-38250000D03*
X280500000Y-37750000D03*
X280500000Y-37250000D03*
X280500000Y-36750000D03*
X280500000Y-36250000D03*
X280500000Y-35750000D03*
X280500000Y-35250000D03*
X280500000Y-34750000D03*
X280500000Y-34250000D03*
X280500000Y-33750000D03*
X280500000Y-33250000D03*
X280500000Y-32750000D03*
X280500000Y-32250000D03*
X280500000Y-31750000D03*
X280500000Y-31250000D03*
X280500000Y-30750000D03*
X280500000Y-30250000D03*
X280500000Y-29750000D03*
X280500000Y-29250000D03*
X280500000Y-28750000D03*
X280500000Y-28250000D03*
X280500000Y-27750000D03*
X280500000Y-27250000D03*
X280500000Y-26750000D03*
X280500000Y-26250000D03*
X280500000Y-25750000D03*
X280500000Y-25250000D03*
X280500000Y-24750000D03*
X280500000Y-24250000D03*
X280500000Y-23750000D03*
X280500000Y-23250000D03*
X280500000Y-22750000D03*
X280500000Y-22250000D03*
X280500000Y-21750000D03*
X280500000Y-21250000D03*
X280500000Y-20750000D03*
X280500000Y-20250000D03*
X280500000Y-19750000D03*
X280500000Y-19250000D03*
X280500000Y-18750000D03*
X280500000Y-18250000D03*
X280500000Y-17750000D03*
X280500000Y-17250000D03*
X280500000Y-16750000D03*
X280500000Y-16250000D03*
X280500000Y-15750000D03*
X280500000Y-15250000D03*
X280500000Y-14750000D03*
X280500000Y-14250000D03*
X280500000Y-13750000D03*
X280500000Y-13250000D03*
X280500000Y-12750000D03*
X283500000Y-77250000D03*
X283500000Y-76750000D03*
X283500000Y-76250000D03*
X283500000Y-75750000D03*
X283500000Y-75250000D03*
X283500000Y-74750000D03*
X283500000Y-74250000D03*
X283500000Y-73750000D03*
X283500000Y-73250000D03*
X283500000Y-72750000D03*
X283500000Y-72250000D03*
X283500000Y-71750000D03*
X283500000Y-71250000D03*
X283500000Y-70750000D03*
X283500000Y-70250000D03*
X283500000Y-69750000D03*
X283500000Y-69250000D03*
X283500000Y-68750000D03*
X283500000Y-68250000D03*
X283500000Y-67750000D03*
X283500000Y-67250000D03*
X283500000Y-66750000D03*
X283500000Y-66250000D03*
X283500000Y-65750000D03*
X283500000Y-65250000D03*
X283500000Y-64750000D03*
X283500000Y-64250000D03*
X283500000Y-63750000D03*
X283500000Y-63250000D03*
X283500000Y-62750000D03*
X283500000Y-62250000D03*
X283500000Y-61750000D03*
X283500000Y-61250000D03*
X283500000Y-60750000D03*
X283500000Y-60250000D03*
X283500000Y-59750000D03*
X283500000Y-59250000D03*
X283500000Y-58750000D03*
X283500000Y-58250000D03*
X283500000Y-57750000D03*
X283500000Y-57250000D03*
X283500000Y-56750000D03*
X283500000Y-56250000D03*
X283500000Y-55750000D03*
X283500000Y-55250000D03*
X283500000Y-54750000D03*
X283500000Y-54250000D03*
X283500000Y-53750000D03*
X283500000Y-53250000D03*
X283500000Y-52750000D03*
X283500000Y-52250000D03*
X283500000Y-51750000D03*
X283500000Y-51250000D03*
X283500000Y-50750000D03*
X283500000Y-50250000D03*
X283500000Y-49750000D03*
X283500000Y-49250000D03*
X283500000Y-48750000D03*
X283500000Y-48250000D03*
X283500000Y-47750000D03*
X283500000Y-47250000D03*
X283500000Y-46750000D03*
X283500000Y-46250000D03*
X283500000Y-45750000D03*
X283500000Y-45250000D03*
X283500000Y-44750000D03*
X283500000Y-44250000D03*
X283500000Y-43750000D03*
X283500000Y-43250000D03*
X283500000Y-42750000D03*
X283500000Y-42250000D03*
X283500000Y-41750000D03*
X283500000Y-41250000D03*
X283500000Y-40750000D03*
X283500000Y-40250000D03*
X283500000Y-39750000D03*
X283500000Y-39250000D03*
X283500000Y-38750000D03*
X283500000Y-38250000D03*
X283500000Y-37750000D03*
X283500000Y-37250000D03*
X283500000Y-36750000D03*
X283500000Y-36250000D03*
X283500000Y-35750000D03*
X283500000Y-35250000D03*
X283500000Y-34750000D03*
X283500000Y-34250000D03*
X283500000Y-33750000D03*
X283500000Y-33250000D03*
X283500000Y-32750000D03*
X283500000Y-32250000D03*
X283500000Y-31750000D03*
X283500000Y-31250000D03*
X283500000Y-30750000D03*
X283500000Y-30250000D03*
X283500000Y-29750000D03*
X283500000Y-29250000D03*
X283500000Y-28750000D03*
X283500000Y-28250000D03*
X283500000Y-27750000D03*
X283500000Y-27250000D03*
X283500000Y-26750000D03*
X283500000Y-26250000D03*
X283500000Y-25750000D03*
X283500000Y-25250000D03*
X283500000Y-24750000D03*
X283500000Y-24250000D03*
X283500000Y-23750000D03*
X283500000Y-23250000D03*
X283500000Y-22750000D03*
X283500000Y-22250000D03*
X283500000Y-21750000D03*
X283500000Y-21250000D03*
X283500000Y-20750000D03*
X283500000Y-20250000D03*
X283500000Y-19750000D03*
X283500000Y-19250000D03*
X283500000Y-18750000D03*
X283500000Y-18250000D03*
X283500000Y-17750000D03*
X283500000Y-17250000D03*
X283500000Y-16750000D03*
X283500000Y-16250000D03*
X283500000Y-15750000D03*
X283500000Y-15250000D03*
X283500000Y-14750000D03*
X283500000Y-14250000D03*
X283500000Y-13750000D03*
X283500000Y-13250000D03*
X283500000Y-12750000D03*
%TD*%
%TO.C,J8*%
X322500000Y-77250000D03*
X322500000Y-76750000D03*
X322500000Y-76250000D03*
X322500000Y-75750000D03*
X322500000Y-75250000D03*
X322500000Y-74750000D03*
X322500000Y-74250000D03*
X322500000Y-73750000D03*
X322500000Y-73250000D03*
X322500000Y-72750000D03*
X322500000Y-72250000D03*
X322500000Y-71750000D03*
X322500000Y-71250000D03*
X322500000Y-70750000D03*
X322500000Y-70250000D03*
X322500000Y-69750000D03*
X322500000Y-69250000D03*
X322500000Y-68750000D03*
X322500000Y-68250000D03*
X322500000Y-67750000D03*
X322500000Y-67250000D03*
X322500000Y-66750000D03*
X322500000Y-66250000D03*
X322500000Y-65750000D03*
X322500000Y-65250000D03*
X322500000Y-64750000D03*
X322500000Y-64250000D03*
X322500000Y-63750000D03*
X322500000Y-63250000D03*
X322500000Y-62750000D03*
X322500000Y-62250000D03*
X322500000Y-61750000D03*
X322500000Y-61250000D03*
X322500000Y-60750000D03*
X322500000Y-60250000D03*
X322500000Y-59750000D03*
X322500000Y-59250000D03*
X322500000Y-58750000D03*
X322500000Y-58250000D03*
X322500000Y-57750000D03*
X322500000Y-57250000D03*
X322500000Y-56750000D03*
X322500000Y-56250000D03*
X322500000Y-55750000D03*
X322500000Y-55250000D03*
X322500000Y-54750000D03*
X322500000Y-54250000D03*
X322500000Y-53750000D03*
X322500000Y-53250000D03*
X322500000Y-52750000D03*
X322500000Y-52250000D03*
X322500000Y-51750000D03*
X322500000Y-51250000D03*
X322500000Y-50750000D03*
X322500000Y-50250000D03*
X322500000Y-49750000D03*
X322500000Y-49250000D03*
X322500000Y-48750000D03*
X322500000Y-48250000D03*
X322500000Y-47750000D03*
X322500000Y-47250000D03*
X322500000Y-46750000D03*
X322500000Y-46250000D03*
X322500000Y-45750000D03*
X322500000Y-45250000D03*
X322500000Y-44750000D03*
X322500000Y-44250000D03*
X322500000Y-43750000D03*
X322500000Y-43250000D03*
X322500000Y-42750000D03*
X322500000Y-42250000D03*
X322500000Y-41750000D03*
X322500000Y-41250000D03*
X322500000Y-40750000D03*
X322500000Y-40250000D03*
X322500000Y-39750000D03*
X322500000Y-39250000D03*
X322500000Y-38750000D03*
X322500000Y-38250000D03*
X322500000Y-37750000D03*
X322500000Y-37250000D03*
X322500000Y-36750000D03*
X322500000Y-36250000D03*
X322500000Y-35750000D03*
X322500000Y-35250000D03*
X322500000Y-34750000D03*
X322500000Y-34250000D03*
X322500000Y-33750000D03*
X322500000Y-33250000D03*
X322500000Y-32750000D03*
X322500000Y-32250000D03*
X322500000Y-31750000D03*
X322500000Y-31250000D03*
X322500000Y-30750000D03*
X322500000Y-30250000D03*
X322500000Y-29750000D03*
X322500000Y-29250000D03*
X322500000Y-28750000D03*
X322500000Y-28250000D03*
X322500000Y-27750000D03*
X322500000Y-27250000D03*
X322500000Y-26750000D03*
X322500000Y-26250000D03*
X322500000Y-25750000D03*
X322500000Y-25250000D03*
X322500000Y-24750000D03*
X322500000Y-24250000D03*
X322500000Y-23750000D03*
X322500000Y-23250000D03*
X322500000Y-22750000D03*
X322500000Y-22250000D03*
X322500000Y-21750000D03*
X322500000Y-21250000D03*
X322500000Y-20750000D03*
X322500000Y-20250000D03*
X322500000Y-19750000D03*
X322500000Y-19250000D03*
X322500000Y-18750000D03*
X322500000Y-18250000D03*
X322500000Y-17750000D03*
X322500000Y-17250000D03*
X322500000Y-16750000D03*
X322500000Y-16250000D03*
X322500000Y-15750000D03*
X322500000Y-15250000D03*
X322500000Y-14750000D03*
X322500000Y-14250000D03*
X322500000Y-13750000D03*
X322500000Y-13250000D03*
X322500000Y-12750000D03*
X325500000Y-77250000D03*
X325500000Y-76750000D03*
X325500000Y-76250000D03*
X325500000Y-75750000D03*
X325500000Y-75250000D03*
X325500000Y-74750000D03*
X325500000Y-74250000D03*
X325500000Y-73750000D03*
X325500000Y-73250000D03*
X325500000Y-72750000D03*
X325500000Y-72250000D03*
X325500000Y-71750000D03*
X325500000Y-71250000D03*
X325500000Y-70750000D03*
X325500000Y-70250000D03*
X325500000Y-69750000D03*
X325500000Y-69250000D03*
X325500000Y-68750000D03*
X325500000Y-68250000D03*
X325500000Y-67750000D03*
X325500000Y-67250000D03*
X325500000Y-66750000D03*
X325500000Y-66250000D03*
X325500000Y-65750000D03*
X325500000Y-65250000D03*
X325500000Y-64750000D03*
X325500000Y-64250000D03*
X325500000Y-63750000D03*
X325500000Y-63250000D03*
X325500000Y-62750000D03*
X325500000Y-62250000D03*
X325500000Y-61750000D03*
X325500000Y-61250000D03*
X325500000Y-60750000D03*
X325500000Y-60250000D03*
X325500000Y-59750000D03*
X325500000Y-59250000D03*
X325500000Y-58750000D03*
X325500000Y-58250000D03*
X325500000Y-57750000D03*
X325500000Y-57250000D03*
X325500000Y-56750000D03*
X325500000Y-56250000D03*
X325500000Y-55750000D03*
X325500000Y-55250000D03*
X325500000Y-54750000D03*
X325500000Y-54250000D03*
X325500000Y-53750000D03*
X325500000Y-53250000D03*
X325500000Y-52750000D03*
X325500000Y-52250000D03*
X325500000Y-51750000D03*
X325500000Y-51250000D03*
X325500000Y-50750000D03*
X325500000Y-50250000D03*
X325500000Y-49750000D03*
X325500000Y-49250000D03*
X325500000Y-48750000D03*
X325500000Y-48250000D03*
X325500000Y-47750000D03*
X325500000Y-47250000D03*
X325500000Y-46750000D03*
X325500000Y-46250000D03*
X325500000Y-45750000D03*
X325500000Y-45250000D03*
X325500000Y-44750000D03*
X325500000Y-44250000D03*
X325500000Y-43750000D03*
X325500000Y-43250000D03*
X325500000Y-42750000D03*
X325500000Y-42250000D03*
X325500000Y-41750000D03*
X325500000Y-41250000D03*
X325500000Y-40750000D03*
X325500000Y-40250000D03*
X325500000Y-39750000D03*
X325500000Y-39250000D03*
X325500000Y-38750000D03*
X325500000Y-38250000D03*
X325500000Y-37750000D03*
X325500000Y-37250000D03*
X325500000Y-36750000D03*
X325500000Y-36250000D03*
X325500000Y-35750000D03*
X325500000Y-35250000D03*
X325500000Y-34750000D03*
X325500000Y-34250000D03*
X325500000Y-33750000D03*
X325500000Y-33250000D03*
X325500000Y-32750000D03*
X325500000Y-32250000D03*
X325500000Y-31750000D03*
X325500000Y-31250000D03*
X325500000Y-30750000D03*
X325500000Y-30250000D03*
X325500000Y-29750000D03*
X325500000Y-29250000D03*
X325500000Y-28750000D03*
X325500000Y-28250000D03*
X325500000Y-27750000D03*
X325500000Y-27250000D03*
X325500000Y-26750000D03*
X325500000Y-26250000D03*
X325500000Y-25750000D03*
X325500000Y-25250000D03*
X325500000Y-24750000D03*
X325500000Y-24250000D03*
X325500000Y-23750000D03*
X325500000Y-23250000D03*
X325500000Y-22750000D03*
X325500000Y-22250000D03*
X325500000Y-21750000D03*
X325500000Y-21250000D03*
X325500000Y-20750000D03*
X325500000Y-20250000D03*
X325500000Y-19750000D03*
X325500000Y-19250000D03*
X325500000Y-18750000D03*
X325500000Y-18250000D03*
X325500000Y-17750000D03*
X325500000Y-17250000D03*
X325500000Y-16750000D03*
X325500000Y-16250000D03*
X325500000Y-15750000D03*
X325500000Y-15250000D03*
X325500000Y-14750000D03*
X325500000Y-14250000D03*
X325500000Y-13750000D03*
X325500000Y-13250000D03*
X325500000Y-12750000D03*
%TD*%
%TO.C,J9*%
X364500000Y-77250000D03*
X364500000Y-76750000D03*
X364500000Y-76250000D03*
X364500000Y-75750000D03*
X364500000Y-75250000D03*
X364500000Y-74750000D03*
X364500000Y-74250000D03*
X364500000Y-73750000D03*
X364500000Y-73250000D03*
X364500000Y-72750000D03*
X364500000Y-72250000D03*
X364500000Y-71750000D03*
X364500000Y-71250000D03*
X364500000Y-70750000D03*
X364500000Y-70250000D03*
X364500000Y-69750000D03*
X364500000Y-69250000D03*
X364500000Y-68750000D03*
X364500000Y-68250000D03*
X364500000Y-67750000D03*
X364500000Y-67250000D03*
X364500000Y-66750000D03*
X364500000Y-66250000D03*
X364500000Y-65750000D03*
X364500000Y-65250000D03*
X364500000Y-64750000D03*
X364500000Y-64250000D03*
X364500000Y-63750000D03*
X364500000Y-63250000D03*
X364500000Y-62750000D03*
X364500000Y-62250000D03*
X364500000Y-61750000D03*
X364500000Y-61250000D03*
X364500000Y-60750000D03*
X364500000Y-60250000D03*
X364500000Y-59750000D03*
X364500000Y-59250000D03*
X364500000Y-58750000D03*
X364500000Y-58250000D03*
X364500000Y-57750000D03*
X364500000Y-57250000D03*
X364500000Y-56750000D03*
X364500000Y-56250000D03*
X364500000Y-55750000D03*
X364500000Y-55250000D03*
X364500000Y-54750000D03*
X364500000Y-54250000D03*
X364500000Y-53750000D03*
X364500000Y-53250000D03*
X364500000Y-52750000D03*
X364500000Y-52250000D03*
X364500000Y-51750000D03*
X364500000Y-51250000D03*
X364500000Y-50750000D03*
X364500000Y-50250000D03*
X364500000Y-49750000D03*
X364500000Y-49250000D03*
X364500000Y-48750000D03*
X364500000Y-48250000D03*
X364500000Y-47750000D03*
X364500000Y-47250000D03*
X364500000Y-46750000D03*
X364500000Y-46250000D03*
X364500000Y-45750000D03*
X364500000Y-45250000D03*
X364500000Y-44750000D03*
X364500000Y-44250000D03*
X364500000Y-43750000D03*
X364500000Y-43250000D03*
X364500000Y-42750000D03*
X364500000Y-42250000D03*
X364500000Y-41750000D03*
X364500000Y-41250000D03*
X364500000Y-40750000D03*
X364500000Y-40250000D03*
X364500000Y-39750000D03*
X364500000Y-39250000D03*
X364500000Y-38750000D03*
X364500000Y-38250000D03*
X364500000Y-37750000D03*
X364500000Y-37250000D03*
X364500000Y-36750000D03*
X364500000Y-36250000D03*
X364500000Y-35750000D03*
X364500000Y-35250000D03*
X364500000Y-34750000D03*
X364500000Y-34250000D03*
X364500000Y-33750000D03*
X364500000Y-33250000D03*
X364500000Y-32750000D03*
X364500000Y-32250000D03*
X364500000Y-31750000D03*
X364500000Y-31250000D03*
X364500000Y-30750000D03*
X364500000Y-30250000D03*
X364500000Y-29750000D03*
X364500000Y-29250000D03*
X364500000Y-28750000D03*
X364500000Y-28250000D03*
X364500000Y-27750000D03*
X364500000Y-27250000D03*
X364500000Y-26750000D03*
X364500000Y-26250000D03*
X364500000Y-25750000D03*
X364500000Y-25250000D03*
X364500000Y-24750000D03*
X364500000Y-24250000D03*
X364500000Y-23750000D03*
X364500000Y-23250000D03*
X364500000Y-22750000D03*
X364500000Y-22250000D03*
X364500000Y-21750000D03*
X364500000Y-21250000D03*
X364500000Y-20750000D03*
X364500000Y-20250000D03*
X364500000Y-19750000D03*
X364500000Y-19250000D03*
X364500000Y-18750000D03*
X364500000Y-18250000D03*
X364500000Y-17750000D03*
X364500000Y-17250000D03*
X364500000Y-16750000D03*
X364500000Y-16250000D03*
X364500000Y-15750000D03*
X364500000Y-15250000D03*
X364500000Y-14750000D03*
X364500000Y-14250000D03*
X364500000Y-13750000D03*
X364500000Y-13250000D03*
X364500000Y-12750000D03*
X367500000Y-77250000D03*
X367500000Y-76750000D03*
X367500000Y-76250000D03*
X367500000Y-75750000D03*
X367500000Y-75250000D03*
X367500000Y-74750000D03*
X367500000Y-74250000D03*
X367500000Y-73750000D03*
X367500000Y-73250000D03*
X367500000Y-72750000D03*
X367500000Y-72250000D03*
X367500000Y-71750000D03*
X367500000Y-71250000D03*
X367500000Y-70750000D03*
X367500000Y-70250000D03*
X367500000Y-69750000D03*
X367500000Y-69250000D03*
X367500000Y-68750000D03*
X367500000Y-68250000D03*
X367500000Y-67750000D03*
X367500000Y-67250000D03*
X367500000Y-66750000D03*
X367500000Y-66250000D03*
X367500000Y-65750000D03*
X367500000Y-65250000D03*
X367500000Y-64750000D03*
X367500000Y-64250000D03*
X367500000Y-63750000D03*
X367500000Y-63250000D03*
X367500000Y-62750000D03*
X367500000Y-62250000D03*
X367500000Y-61750000D03*
X367500000Y-61250000D03*
X367500000Y-60750000D03*
X367500000Y-60250000D03*
X367500000Y-59750000D03*
X367500000Y-59250000D03*
X367500000Y-58750000D03*
X367500000Y-58250000D03*
X367500000Y-57750000D03*
X367500000Y-57250000D03*
X367500000Y-56750000D03*
X367500000Y-56250000D03*
X367500000Y-55750000D03*
X367500000Y-55250000D03*
X367500000Y-54750000D03*
X367500000Y-54250000D03*
X367500000Y-53750000D03*
X367500000Y-53250000D03*
X367500000Y-52750000D03*
X367500000Y-52250000D03*
X367500000Y-51750000D03*
X367500000Y-51250000D03*
X367500000Y-50750000D03*
X367500000Y-50250000D03*
X367500000Y-49750000D03*
X367500000Y-49250000D03*
X367500000Y-48750000D03*
X367500000Y-48250000D03*
X367500000Y-47750000D03*
X367500000Y-47250000D03*
X367500000Y-46750000D03*
X367500000Y-46250000D03*
X367500000Y-45750000D03*
X367500000Y-45250000D03*
X367500000Y-44750000D03*
X367500000Y-44250000D03*
X367500000Y-43750000D03*
X367500000Y-43250000D03*
X367500000Y-42750000D03*
X367500000Y-42250000D03*
X367500000Y-41750000D03*
X367500000Y-41250000D03*
X367500000Y-40750000D03*
X367500000Y-40250000D03*
X367500000Y-39750000D03*
X367500000Y-39250000D03*
X367500000Y-38750000D03*
X367500000Y-38250000D03*
X367500000Y-37750000D03*
X367500000Y-37250000D03*
X367500000Y-36750000D03*
X367500000Y-36250000D03*
X367500000Y-35750000D03*
X367500000Y-35250000D03*
X367500000Y-34750000D03*
X367500000Y-34250000D03*
X367500000Y-33750000D03*
X367500000Y-33250000D03*
X367500000Y-32750000D03*
X367500000Y-32250000D03*
X367500000Y-31750000D03*
X367500000Y-31250000D03*
X367500000Y-30750000D03*
X367500000Y-30250000D03*
X367500000Y-29750000D03*
X367500000Y-29250000D03*
X367500000Y-28750000D03*
X367500000Y-28250000D03*
X367500000Y-27750000D03*
X367500000Y-27250000D03*
X367500000Y-26750000D03*
X367500000Y-26250000D03*
X367500000Y-25750000D03*
X367500000Y-25250000D03*
X367500000Y-24750000D03*
X367500000Y-24250000D03*
X367500000Y-23750000D03*
X367500000Y-23250000D03*
X367500000Y-22750000D03*
X367500000Y-22250000D03*
X367500000Y-21750000D03*
X367500000Y-21250000D03*
X367500000Y-20750000D03*
X367500000Y-20250000D03*
X367500000Y-19750000D03*
X367500000Y-19250000D03*
X367500000Y-18750000D03*
X367500000Y-18250000D03*
X367500000Y-17750000D03*
X367500000Y-17250000D03*
X367500000Y-16750000D03*
X367500000Y-16250000D03*
X367500000Y-15750000D03*
X367500000Y-15250000D03*
X367500000Y-14750000D03*
X367500000Y-14250000D03*
X367500000Y-13750000D03*
X367500000Y-13250000D03*
X367500000Y-12750000D03*
%TD*%
%TO.C,J4*%
X154500000Y-77250000D03*
X154500000Y-76750000D03*
X154500000Y-76250000D03*
X154500000Y-75750000D03*
X154500000Y-75250000D03*
X154500000Y-74750000D03*
X154500000Y-74250000D03*
X154500000Y-73750000D03*
X154500000Y-73250000D03*
X154500000Y-72750000D03*
X154500000Y-72250000D03*
X154500000Y-71750000D03*
X154500000Y-71250000D03*
X154500000Y-70750000D03*
X154500000Y-70250000D03*
X154500000Y-69750000D03*
X154500000Y-69250000D03*
X154500000Y-68750000D03*
X154500000Y-68250000D03*
X154500000Y-67750000D03*
X154500000Y-67250000D03*
X154500000Y-66750000D03*
X154500000Y-66250000D03*
X154500000Y-65750000D03*
X154500000Y-65250000D03*
X154500000Y-64750000D03*
X154500000Y-64250000D03*
X154500000Y-63750000D03*
X154500000Y-63250000D03*
X154500000Y-62750000D03*
X154500000Y-62250000D03*
X154500000Y-61750000D03*
X154500000Y-61250000D03*
X154500000Y-60750000D03*
X154500000Y-60250000D03*
X154500000Y-59750000D03*
X154500000Y-59250000D03*
X154500000Y-58750000D03*
X154500000Y-58250000D03*
X154500000Y-57750000D03*
X154500000Y-57250000D03*
X154500000Y-56750000D03*
X154500000Y-56250000D03*
X154500000Y-55750000D03*
X154500000Y-55250000D03*
X154500000Y-54750000D03*
X154500000Y-54250000D03*
X154500000Y-53750000D03*
X154500000Y-53250000D03*
X154500000Y-52750000D03*
X154500000Y-52250000D03*
X154500000Y-51750000D03*
X154500000Y-51250000D03*
X154500000Y-50750000D03*
X154500000Y-50250000D03*
X154500000Y-49750000D03*
X154500000Y-49250000D03*
X154500000Y-48750000D03*
X154500000Y-48250000D03*
X154500000Y-47750000D03*
X154500000Y-47250000D03*
X154500000Y-46750000D03*
X154500000Y-46250000D03*
X154500000Y-45750000D03*
X154500000Y-45250000D03*
X154500000Y-44750000D03*
X154500000Y-44250000D03*
X154500000Y-43750000D03*
X154500000Y-43250000D03*
X154500000Y-42750000D03*
X154500000Y-42250000D03*
X154500000Y-41750000D03*
X154500000Y-41250000D03*
X154500000Y-40750000D03*
X154500000Y-40250000D03*
X154500000Y-39750000D03*
X154500000Y-39250000D03*
X154500000Y-38750000D03*
X154500000Y-38250000D03*
X154500000Y-37750000D03*
X154500000Y-37250000D03*
X154500000Y-36750000D03*
X154500000Y-36250000D03*
X154500000Y-35750000D03*
X154500000Y-35250000D03*
X154500000Y-34750000D03*
X154500000Y-34250000D03*
X154500000Y-33750000D03*
X154500000Y-33250000D03*
X154500000Y-32750000D03*
X154500000Y-32250000D03*
X154500000Y-31750000D03*
X154500000Y-31250000D03*
X154500000Y-30750000D03*
X154500000Y-30250000D03*
X154500000Y-29750000D03*
X154500000Y-29250000D03*
X154500000Y-28750000D03*
X154500000Y-28250000D03*
X154500000Y-27750000D03*
X154500000Y-27250000D03*
X154500000Y-26750000D03*
X154500000Y-26250000D03*
X154500000Y-25750000D03*
X154500000Y-25250000D03*
X154500000Y-24750000D03*
X154500000Y-24250000D03*
X154500000Y-23750000D03*
X154500000Y-23250000D03*
X154500000Y-22750000D03*
X154500000Y-22250000D03*
X154500000Y-21750000D03*
X154500000Y-21250000D03*
X154500000Y-20750000D03*
X154500000Y-20250000D03*
X154500000Y-19750000D03*
X154500000Y-19250000D03*
X154500000Y-18750000D03*
X154500000Y-18250000D03*
X154500000Y-17750000D03*
X154500000Y-17250000D03*
X154500000Y-16750000D03*
X154500000Y-16250000D03*
X154500000Y-15750000D03*
X154500000Y-15250000D03*
X154500000Y-14750000D03*
X154500000Y-14250000D03*
X154500000Y-13750000D03*
X154500000Y-13250000D03*
X154500000Y-12750000D03*
X157500000Y-77250000D03*
X157500000Y-76750000D03*
X157500000Y-76250000D03*
X157500000Y-75750000D03*
X157500000Y-75250000D03*
X157500000Y-74750000D03*
X157500000Y-74250000D03*
X157500000Y-73750000D03*
X157500000Y-73250000D03*
X157500000Y-72750000D03*
X157500000Y-72250000D03*
X157500000Y-71750000D03*
X157500000Y-71250000D03*
X157500000Y-70750000D03*
X157500000Y-70250000D03*
X157500000Y-69750000D03*
X157500000Y-69250000D03*
X157500000Y-68750000D03*
X157500000Y-68250000D03*
X157500000Y-67750000D03*
X157500000Y-67250000D03*
X157500000Y-66750000D03*
X157500000Y-66250000D03*
X157500000Y-65750000D03*
X157500000Y-65250000D03*
X157500000Y-64750000D03*
X157500000Y-64250000D03*
X157500000Y-63750000D03*
X157500000Y-63250000D03*
X157500000Y-62750000D03*
X157500000Y-62250000D03*
X157500000Y-61750000D03*
X157500000Y-61250000D03*
X157500000Y-60750000D03*
X157500000Y-60250000D03*
X157500000Y-59750000D03*
X157500000Y-59250000D03*
X157500000Y-58750000D03*
X157500000Y-58250000D03*
X157500000Y-57750000D03*
X157500000Y-57250000D03*
X157500000Y-56750000D03*
X157500000Y-56250000D03*
X157500000Y-55750000D03*
X157500000Y-55250000D03*
X157500000Y-54750000D03*
X157500000Y-54250000D03*
X157500000Y-53750000D03*
X157500000Y-53250000D03*
X157500000Y-52750000D03*
X157500000Y-52250000D03*
X157500000Y-51750000D03*
X157500000Y-51250000D03*
X157500000Y-50750000D03*
X157500000Y-50250000D03*
X157500000Y-49750000D03*
X157500000Y-49250000D03*
X157500000Y-48750000D03*
X157500000Y-48250000D03*
X157500000Y-47750000D03*
X157500000Y-47250000D03*
X157500000Y-46750000D03*
X157500000Y-46250000D03*
X157500000Y-45750000D03*
X157500000Y-45250000D03*
X157500000Y-44750000D03*
X157500000Y-44250000D03*
X157500000Y-43750000D03*
X157500000Y-43250000D03*
X157500000Y-42750000D03*
X157500000Y-42250000D03*
X157500000Y-41750000D03*
X157500000Y-41250000D03*
X157500000Y-40750000D03*
X157500000Y-40250000D03*
X157500000Y-39750000D03*
X157500000Y-39250000D03*
X157500000Y-38750000D03*
X157500000Y-38250000D03*
X157500000Y-37750000D03*
X157500000Y-37250000D03*
X157500000Y-36750000D03*
X157500000Y-36250000D03*
X157500000Y-35750000D03*
X157500000Y-35250000D03*
X157500000Y-34750000D03*
X157500000Y-34250000D03*
X157500000Y-33750000D03*
X157500000Y-33250000D03*
X157500000Y-32750000D03*
X157500000Y-32250000D03*
X157500000Y-31750000D03*
X157500000Y-31250000D03*
X157500000Y-30750000D03*
X157500000Y-30250000D03*
X157500000Y-29750000D03*
X157500000Y-29250000D03*
X157500000Y-28750000D03*
X157500000Y-28250000D03*
X157500000Y-27750000D03*
X157500000Y-27250000D03*
X157500000Y-26750000D03*
X157500000Y-26250000D03*
X157500000Y-25750000D03*
X157500000Y-25250000D03*
X157500000Y-24750000D03*
X157500000Y-24250000D03*
X157500000Y-23750000D03*
X157500000Y-23250000D03*
X157500000Y-22750000D03*
X157500000Y-22250000D03*
X157500000Y-21750000D03*
X157500000Y-21250000D03*
X157500000Y-20750000D03*
X157500000Y-20250000D03*
X157500000Y-19750000D03*
X157500000Y-19250000D03*
X157500000Y-18750000D03*
X157500000Y-18250000D03*
X157500000Y-17750000D03*
X157500000Y-17250000D03*
X157500000Y-16750000D03*
X157500000Y-16250000D03*
X157500000Y-15750000D03*
X157500000Y-15250000D03*
X157500000Y-14750000D03*
X157500000Y-14250000D03*
X157500000Y-13750000D03*
X157500000Y-13250000D03*
X157500000Y-12750000D03*
%TD*%
%TO.C,J6*%
X238500000Y-77250000D03*
X238500000Y-76750000D03*
X238500000Y-76250000D03*
X238500000Y-75750000D03*
X238500000Y-75250000D03*
X238500000Y-74750000D03*
X238500000Y-74250000D03*
X238500000Y-73750000D03*
X238500000Y-73250000D03*
X238500000Y-72750000D03*
X238500000Y-72250000D03*
X238500000Y-71750000D03*
X238500000Y-71250000D03*
X238500000Y-70750000D03*
X238500000Y-70250000D03*
X238500000Y-69750000D03*
X238500000Y-69250000D03*
X238500000Y-68750000D03*
X238500000Y-68250000D03*
X238500000Y-67750000D03*
X238500000Y-67250000D03*
X238500000Y-66750000D03*
X238500000Y-66250000D03*
X238500000Y-65750000D03*
X238500000Y-65250000D03*
X238500000Y-64750000D03*
X238500000Y-64250000D03*
X238500000Y-63750000D03*
X238500000Y-63250000D03*
X238500000Y-62750000D03*
X238500000Y-62250000D03*
X238500000Y-61750000D03*
X238500000Y-61250000D03*
X238500000Y-60750000D03*
X238500000Y-60250000D03*
X238500000Y-59750000D03*
X238500000Y-59250000D03*
X238500000Y-58750000D03*
X238500000Y-58250000D03*
X238500000Y-57750000D03*
X238500000Y-57250000D03*
X238500000Y-56750000D03*
X238500000Y-56250000D03*
X238500000Y-55750000D03*
X238500000Y-55250000D03*
X238500000Y-54750000D03*
X238500000Y-54250000D03*
X238500000Y-53750000D03*
X238500000Y-53250000D03*
X238500000Y-52750000D03*
X238500000Y-52250000D03*
X238500000Y-51750000D03*
X238500000Y-51250000D03*
X238500000Y-50750000D03*
X238500000Y-50250000D03*
X238500000Y-49750000D03*
X238500000Y-49250000D03*
X238500000Y-48750000D03*
X238500000Y-48250000D03*
X238500000Y-47750000D03*
X238500000Y-47250000D03*
X238500000Y-46750000D03*
X238500000Y-46250000D03*
X238500000Y-45750000D03*
X238500000Y-45250000D03*
X238500000Y-44750000D03*
X238500000Y-44250000D03*
X238500000Y-43750000D03*
X238500000Y-43250000D03*
X238500000Y-42750000D03*
X238500000Y-42250000D03*
X238500000Y-41750000D03*
X238500000Y-41250000D03*
X238500000Y-40750000D03*
X238500000Y-40250000D03*
X238500000Y-39750000D03*
X238500000Y-39250000D03*
X238500000Y-38750000D03*
X238500000Y-38250000D03*
X238500000Y-37750000D03*
X238500000Y-37250000D03*
X238500000Y-36750000D03*
X238500000Y-36250000D03*
X238500000Y-35750000D03*
X238500000Y-35250000D03*
X238500000Y-34750000D03*
X238500000Y-34250000D03*
X238500000Y-33750000D03*
X238500000Y-33250000D03*
X238500000Y-32750000D03*
X238500000Y-32250000D03*
X238500000Y-31750000D03*
X238500000Y-31250000D03*
X238500000Y-30750000D03*
X238500000Y-30250000D03*
X238500000Y-29750000D03*
X238500000Y-29250000D03*
X238500000Y-28750000D03*
X238500000Y-28250000D03*
X238500000Y-27750000D03*
X238500000Y-27250000D03*
X238500000Y-26750000D03*
X238500000Y-26250000D03*
X238500000Y-25750000D03*
X238500000Y-25250000D03*
X238500000Y-24750000D03*
X238500000Y-24250000D03*
X238500000Y-23750000D03*
X238500000Y-23250000D03*
X238500000Y-22750000D03*
X238500000Y-22250000D03*
X238500000Y-21750000D03*
X238500000Y-21250000D03*
X238500000Y-20750000D03*
X238500000Y-20250000D03*
X238500000Y-19750000D03*
X238500000Y-19250000D03*
X238500000Y-18750000D03*
X238500000Y-18250000D03*
X238500000Y-17750000D03*
X238500000Y-17250000D03*
X238500000Y-16750000D03*
X238500000Y-16250000D03*
X238500000Y-15750000D03*
X238500000Y-15250000D03*
X238500000Y-14750000D03*
X238500000Y-14250000D03*
X238500000Y-13750000D03*
X238500000Y-13250000D03*
X238500000Y-12750000D03*
X241500000Y-77250000D03*
X241500000Y-76750000D03*
X241500000Y-76250000D03*
X241500000Y-75750000D03*
X241500000Y-75250000D03*
X241500000Y-74750000D03*
X241500000Y-74250000D03*
X241500000Y-73750000D03*
X241500000Y-73250000D03*
X241500000Y-72750000D03*
X241500000Y-72250000D03*
X241500000Y-71750000D03*
X241500000Y-71250000D03*
X241500000Y-70750000D03*
X241500000Y-70250000D03*
X241500000Y-69750000D03*
X241500000Y-69250000D03*
X241500000Y-68750000D03*
X241500000Y-68250000D03*
X241500000Y-67750000D03*
X241500000Y-67250000D03*
X241500000Y-66750000D03*
X241500000Y-66250000D03*
X241500000Y-65750000D03*
X241500000Y-65250000D03*
X241500000Y-64750000D03*
X241500000Y-64250000D03*
X241500000Y-63750000D03*
X241500000Y-63250000D03*
X241500000Y-62750000D03*
X241500000Y-62250000D03*
X241500000Y-61750000D03*
X241500000Y-61250000D03*
X241500000Y-60750000D03*
X241500000Y-60250000D03*
X241500000Y-59750000D03*
X241500000Y-59250000D03*
X241500000Y-58750000D03*
X241500000Y-58250000D03*
X241500000Y-57750000D03*
X241500000Y-57250000D03*
X241500000Y-56750000D03*
X241500000Y-56250000D03*
X241500000Y-55750000D03*
X241500000Y-55250000D03*
X241500000Y-54750000D03*
X241500000Y-54250000D03*
X241500000Y-53750000D03*
X241500000Y-53250000D03*
X241500000Y-52750000D03*
X241500000Y-52250000D03*
X241500000Y-51750000D03*
X241500000Y-51250000D03*
X241500000Y-50750000D03*
X241500000Y-50250000D03*
X241500000Y-49750000D03*
X241500000Y-49250000D03*
X241500000Y-48750000D03*
X241500000Y-48250000D03*
X241500000Y-47750000D03*
X241500000Y-47250000D03*
X241500000Y-46750000D03*
X241500000Y-46250000D03*
X241500000Y-45750000D03*
X241500000Y-45250000D03*
X241500000Y-44750000D03*
X241500000Y-44250000D03*
X241500000Y-43750000D03*
X241500000Y-43250000D03*
X241500000Y-42750000D03*
X241500000Y-42250000D03*
X241500000Y-41750000D03*
X241500000Y-41250000D03*
X241500000Y-40750000D03*
X241500000Y-40250000D03*
X241500000Y-39750000D03*
X241500000Y-39250000D03*
X241500000Y-38750000D03*
X241500000Y-38250000D03*
X241500000Y-37750000D03*
X241500000Y-37250000D03*
X241500000Y-36750000D03*
X241500000Y-36250000D03*
X241500000Y-35750000D03*
X241500000Y-35250000D03*
X241500000Y-34750000D03*
X241500000Y-34250000D03*
X241500000Y-33750000D03*
X241500000Y-33250000D03*
X241500000Y-32750000D03*
X241500000Y-32250000D03*
X241500000Y-31750000D03*
X241500000Y-31250000D03*
X241500000Y-30750000D03*
X241500000Y-30250000D03*
X241500000Y-29750000D03*
X241500000Y-29250000D03*
X241500000Y-28750000D03*
X241500000Y-28250000D03*
X241500000Y-27750000D03*
X241500000Y-27250000D03*
X241500000Y-26750000D03*
X241500000Y-26250000D03*
X241500000Y-25750000D03*
X241500000Y-25250000D03*
X241500000Y-24750000D03*
X241500000Y-24250000D03*
X241500000Y-23750000D03*
X241500000Y-23250000D03*
X241500000Y-22750000D03*
X241500000Y-22250000D03*
X241500000Y-21750000D03*
X241500000Y-21250000D03*
X241500000Y-20750000D03*
X241500000Y-20250000D03*
X241500000Y-19750000D03*
X241500000Y-19250000D03*
X241500000Y-18750000D03*
X241500000Y-18250000D03*
X241500000Y-17750000D03*
X241500000Y-17250000D03*
X241500000Y-16750000D03*
X241500000Y-16250000D03*
X241500000Y-15750000D03*
X241500000Y-15250000D03*
X241500000Y-14750000D03*
X241500000Y-14250000D03*
X241500000Y-13750000D03*
X241500000Y-13250000D03*
X241500000Y-12750000D03*
%TD*%
%TO.C,J10*%
X406500000Y-77250000D03*
X406500000Y-76750000D03*
X406500000Y-76250000D03*
X406500000Y-75750000D03*
X406500000Y-75250000D03*
X406500000Y-74750000D03*
X406500000Y-74250000D03*
X406500000Y-73750000D03*
X406500000Y-73250000D03*
X406500000Y-72750000D03*
X406500000Y-72250000D03*
X406500000Y-71750000D03*
X406500000Y-71250000D03*
X406500000Y-70750000D03*
X406500000Y-70250000D03*
X406500000Y-69750000D03*
X406500000Y-69250000D03*
X406500000Y-68750000D03*
X406500000Y-68250000D03*
X406500000Y-67750000D03*
X406500000Y-67250000D03*
X406500000Y-66750000D03*
X406500000Y-66250000D03*
X406500000Y-65750000D03*
X406500000Y-65250000D03*
X406500000Y-64750000D03*
X406500000Y-64250000D03*
X406500000Y-63750000D03*
X406500000Y-63250000D03*
X406500000Y-62750000D03*
X406500000Y-62250000D03*
X406500000Y-61750000D03*
X406500000Y-61250000D03*
X406500000Y-60750000D03*
X406500000Y-60250000D03*
X406500000Y-59750000D03*
X406500000Y-59250000D03*
X406500000Y-58750000D03*
X406500000Y-58250000D03*
X406500000Y-57750000D03*
X406500000Y-57250000D03*
X406500000Y-56750000D03*
X406500000Y-56250000D03*
X406500000Y-55750000D03*
X406500000Y-55250000D03*
X406500000Y-54750000D03*
X406500000Y-54250000D03*
X406500000Y-53750000D03*
X406500000Y-53250000D03*
X406500000Y-52750000D03*
X406500000Y-52250000D03*
X406500000Y-51750000D03*
X406500000Y-51250000D03*
X406500000Y-50750000D03*
X406500000Y-50250000D03*
X406500000Y-49750000D03*
X406500000Y-49250000D03*
X406500000Y-48750000D03*
X406500000Y-48250000D03*
X406500000Y-47750000D03*
X406500000Y-47250000D03*
X406500000Y-46750000D03*
X406500000Y-46250000D03*
X406500000Y-45750000D03*
X406500000Y-45250000D03*
X406500000Y-44750000D03*
X406500000Y-44250000D03*
X406500000Y-43750000D03*
X406500000Y-43250000D03*
X406500000Y-42750000D03*
X406500000Y-42250000D03*
X406500000Y-41750000D03*
X406500000Y-41250000D03*
X406500000Y-40750000D03*
X406500000Y-40250000D03*
X406500000Y-39750000D03*
X406500000Y-39250000D03*
X406500000Y-38750000D03*
X406500000Y-38250000D03*
X406500000Y-37750000D03*
X406500000Y-37250000D03*
X406500000Y-36750000D03*
X406500000Y-36250000D03*
X406500000Y-35750000D03*
X406500000Y-35250000D03*
X406500000Y-34750000D03*
X406500000Y-34250000D03*
X406500000Y-33750000D03*
X406500000Y-33250000D03*
X406500000Y-32750000D03*
X406500000Y-32250000D03*
X406500000Y-31750000D03*
X406500000Y-31250000D03*
X406500000Y-30750000D03*
X406500000Y-30250000D03*
X406500000Y-29750000D03*
X406500000Y-29250000D03*
X406500000Y-28750000D03*
X406500000Y-28250000D03*
X406500000Y-27750000D03*
X406500000Y-27250000D03*
X406500000Y-26750000D03*
X406500000Y-26250000D03*
X406500000Y-25750000D03*
X406500000Y-25250000D03*
X406500000Y-24750000D03*
X406500000Y-24250000D03*
X406500000Y-23750000D03*
X406500000Y-23250000D03*
X406500000Y-22750000D03*
X406500000Y-22250000D03*
X406500000Y-21750000D03*
X406500000Y-21250000D03*
X406500000Y-20750000D03*
X406500000Y-20250000D03*
X406500000Y-19750000D03*
X406500000Y-19250000D03*
X406500000Y-18750000D03*
X406500000Y-18250000D03*
X406500000Y-17750000D03*
X406500000Y-17250000D03*
X406500000Y-16750000D03*
X406500000Y-16250000D03*
X406500000Y-15750000D03*
X406500000Y-15250000D03*
X406500000Y-14750000D03*
X406500000Y-14250000D03*
X406500000Y-13750000D03*
X406500000Y-13250000D03*
X406500000Y-12750000D03*
X409500000Y-77250000D03*
X409500000Y-76750000D03*
X409500000Y-76250000D03*
X409500000Y-75750000D03*
X409500000Y-75250000D03*
X409500000Y-74750000D03*
X409500000Y-74250000D03*
X409500000Y-73750000D03*
X409500000Y-73250000D03*
X409500000Y-72750000D03*
X409500000Y-72250000D03*
X409500000Y-71750000D03*
X409500000Y-71250000D03*
X409500000Y-70750000D03*
X409500000Y-70250000D03*
X409500000Y-69750000D03*
X409500000Y-69250000D03*
X409500000Y-68750000D03*
X409500000Y-68250000D03*
X409500000Y-67750000D03*
X409500000Y-67250000D03*
X409500000Y-66750000D03*
X409500000Y-66250000D03*
X409500000Y-65750000D03*
X409500000Y-65250000D03*
X409500000Y-64750000D03*
X409500000Y-64250000D03*
X409500000Y-63750000D03*
X409500000Y-63250000D03*
X409500000Y-62750000D03*
X409500000Y-62250000D03*
X409500000Y-61750000D03*
X409500000Y-61250000D03*
X409500000Y-60750000D03*
X409500000Y-60250000D03*
X409500000Y-59750000D03*
X409500000Y-59250000D03*
X409500000Y-58750000D03*
X409500000Y-58250000D03*
X409500000Y-57750000D03*
X409500000Y-57250000D03*
X409500000Y-56750000D03*
X409500000Y-56250000D03*
X409500000Y-55750000D03*
X409500000Y-55250000D03*
X409500000Y-54750000D03*
X409500000Y-54250000D03*
X409500000Y-53750000D03*
X409500000Y-53250000D03*
X409500000Y-52750000D03*
X409500000Y-52250000D03*
X409500000Y-51750000D03*
X409500000Y-51250000D03*
X409500000Y-50750000D03*
X409500000Y-50250000D03*
X409500000Y-49750000D03*
X409500000Y-49250000D03*
X409500000Y-48750000D03*
X409500000Y-48250000D03*
X409500000Y-47750000D03*
X409500000Y-47250000D03*
X409500000Y-46750000D03*
X409500000Y-46250000D03*
X409500000Y-45750000D03*
X409500000Y-45250000D03*
X409500000Y-44750000D03*
X409500000Y-44250000D03*
X409500000Y-43750000D03*
X409500000Y-43250000D03*
X409500000Y-42750000D03*
X409500000Y-42250000D03*
X409500000Y-41750000D03*
X409500000Y-41250000D03*
X409500000Y-40750000D03*
X409500000Y-40250000D03*
X409500000Y-39750000D03*
X409500000Y-39250000D03*
X409500000Y-38750000D03*
X409500000Y-38250000D03*
X409500000Y-37750000D03*
X409500000Y-37250000D03*
X409500000Y-36750000D03*
X409500000Y-36250000D03*
X409500000Y-35750000D03*
X409500000Y-35250000D03*
X409500000Y-34750000D03*
X409500000Y-34250000D03*
X409500000Y-33750000D03*
X409500000Y-33250000D03*
X409500000Y-32750000D03*
X409500000Y-32250000D03*
X409500000Y-31750000D03*
X409500000Y-31250000D03*
X409500000Y-30750000D03*
X409500000Y-30250000D03*
X409500000Y-29750000D03*
X409500000Y-29250000D03*
X409500000Y-28750000D03*
X409500000Y-28250000D03*
X409500000Y-27750000D03*
X409500000Y-27250000D03*
X409500000Y-26750000D03*
X409500000Y-26250000D03*
X409500000Y-25750000D03*
X409500000Y-25250000D03*
X409500000Y-24750000D03*
X409500000Y-24250000D03*
X409500000Y-23750000D03*
X409500000Y-23250000D03*
X409500000Y-22750000D03*
X409500000Y-22250000D03*
X409500000Y-21750000D03*
X409500000Y-21250000D03*
X409500000Y-20750000D03*
X409500000Y-20250000D03*
X409500000Y-19750000D03*
X409500000Y-19250000D03*
X409500000Y-18750000D03*
X409500000Y-18250000D03*
X409500000Y-17750000D03*
X409500000Y-17250000D03*
X409500000Y-16750000D03*
X409500000Y-16250000D03*
X409500000Y-15750000D03*
X409500000Y-15250000D03*
X409500000Y-14750000D03*
X409500000Y-14250000D03*
X409500000Y-13750000D03*
X409500000Y-13250000D03*
X409500000Y-12750000D03*
%TD*%
%TO.C,J1*%
X28500000Y-77250000D03*
X28500000Y-76750000D03*
X28500000Y-76250000D03*
X28500000Y-75750000D03*
X28500000Y-75250000D03*
X28500000Y-74750000D03*
X28500000Y-74250000D03*
X28500000Y-73750000D03*
X28500000Y-73250000D03*
X28500000Y-72750000D03*
X28500000Y-72250000D03*
X28500000Y-71750000D03*
X28500000Y-71250000D03*
X28500000Y-70750000D03*
X28500000Y-70250000D03*
X28500000Y-69750000D03*
X28500000Y-69250000D03*
X28500000Y-68750000D03*
X28500000Y-68250000D03*
X28500000Y-67750000D03*
X28500000Y-67250000D03*
X28500000Y-66750000D03*
X28500000Y-66250000D03*
X28500000Y-65750000D03*
X28500000Y-65250000D03*
X28500000Y-64750000D03*
X28500000Y-64250000D03*
X28500000Y-63750000D03*
X28500000Y-63250000D03*
X28500000Y-62750000D03*
X28500000Y-62250000D03*
X28500000Y-61750000D03*
X28500000Y-61250000D03*
X28500000Y-60750000D03*
X28500000Y-60250000D03*
X28500000Y-59750000D03*
X28500000Y-59250000D03*
X28500000Y-58750000D03*
X28500000Y-58250000D03*
X28500000Y-57750000D03*
X28500000Y-57250000D03*
X28500000Y-56750000D03*
X28500000Y-56250000D03*
X28500000Y-55750000D03*
X28500000Y-55250000D03*
X28500000Y-54750000D03*
X28500000Y-54250000D03*
X28500000Y-53750000D03*
X28500000Y-53250000D03*
X28500000Y-52750000D03*
X28500000Y-52250000D03*
X28500000Y-51750000D03*
X28500000Y-51250000D03*
X28500000Y-50750000D03*
X28500000Y-50250000D03*
X28500000Y-49750000D03*
X28500000Y-49250000D03*
X28500000Y-48750000D03*
X28500000Y-48250000D03*
X28500000Y-47750000D03*
X28500000Y-47250000D03*
X28500000Y-46750000D03*
X28500000Y-46250000D03*
X28500000Y-45750000D03*
X28500000Y-45250000D03*
X28500000Y-44750000D03*
X28500000Y-44250000D03*
X28500000Y-43750000D03*
X28500000Y-43250000D03*
X28500000Y-42750000D03*
X28500000Y-42250000D03*
X28500000Y-41750000D03*
X28500000Y-41250000D03*
X28500000Y-40750000D03*
X28500000Y-40250000D03*
X28500000Y-39750000D03*
X28500000Y-39250000D03*
X28500000Y-38750000D03*
X28500000Y-38250000D03*
X28500000Y-37750000D03*
X28500000Y-37250000D03*
X28500000Y-36750000D03*
X28500000Y-36250000D03*
X28500000Y-35750000D03*
X28500000Y-35250000D03*
X28500000Y-34750000D03*
X28500000Y-34250000D03*
X28500000Y-33750000D03*
X28500000Y-33250000D03*
X28500000Y-32750000D03*
X28500000Y-32250000D03*
X28500000Y-31750000D03*
X28500000Y-31250000D03*
X28500000Y-30750000D03*
X28500000Y-30250000D03*
X28500000Y-29750000D03*
X28500000Y-29250000D03*
X28500000Y-28750000D03*
X28500000Y-28250000D03*
X28500000Y-27750000D03*
X28500000Y-27250000D03*
X28500000Y-26750000D03*
X28500000Y-26250000D03*
X28500000Y-25750000D03*
X28500000Y-25250000D03*
X28500000Y-24750000D03*
X28500000Y-24250000D03*
X28500000Y-23750000D03*
X28500000Y-23250000D03*
X28500000Y-22750000D03*
X28500000Y-22250000D03*
X28500000Y-21750000D03*
X28500000Y-21250000D03*
X28500000Y-20750000D03*
X28500000Y-20250000D03*
X28500000Y-19750000D03*
X28500000Y-19250000D03*
X28500000Y-18750000D03*
X28500000Y-18250000D03*
X28500000Y-17750000D03*
X28500000Y-17250000D03*
X28500000Y-16750000D03*
X28500000Y-16250000D03*
X28500000Y-15750000D03*
X28500000Y-15250000D03*
X28500000Y-14750000D03*
X28500000Y-14250000D03*
X28500000Y-13750000D03*
X28500000Y-13250000D03*
X28500000Y-12750000D03*
X31500000Y-77250000D03*
X31500000Y-76750000D03*
X31500000Y-76250000D03*
X31500000Y-75750000D03*
X31500000Y-75250000D03*
X31500000Y-74750000D03*
X31500000Y-74250000D03*
X31500000Y-73750000D03*
X31500000Y-73250000D03*
X31500000Y-72750000D03*
X31500000Y-72250000D03*
X31500000Y-71750000D03*
X31500000Y-71250000D03*
X31500000Y-70750000D03*
X31500000Y-70250000D03*
X31500000Y-69750000D03*
X31500000Y-69250000D03*
X31500000Y-68750000D03*
X31500000Y-68250000D03*
X31500000Y-67750000D03*
X31500000Y-67250000D03*
X31500000Y-66750000D03*
X31500000Y-66250000D03*
X31500000Y-65750000D03*
X31500000Y-65250000D03*
X31500000Y-64750000D03*
X31500000Y-64250000D03*
X31500000Y-63750000D03*
X31500000Y-63250000D03*
X31500000Y-62750000D03*
X31500000Y-62250000D03*
X31500000Y-61750000D03*
X31500000Y-61250000D03*
X31500000Y-60750000D03*
X31500000Y-60250000D03*
X31500000Y-59750000D03*
X31500000Y-59250000D03*
X31500000Y-58750000D03*
X31500000Y-58250000D03*
X31500000Y-57750000D03*
X31500000Y-57250000D03*
X31500000Y-56750000D03*
X31500000Y-56250000D03*
X31500000Y-55750000D03*
X31500000Y-55250000D03*
X31500000Y-54750000D03*
X31500000Y-54250000D03*
X31500000Y-53750000D03*
X31500000Y-53250000D03*
X31500000Y-52750000D03*
X31500000Y-52250000D03*
X31500000Y-51750000D03*
X31500000Y-51250000D03*
X31500000Y-50750000D03*
X31500000Y-50250000D03*
X31500000Y-49750000D03*
X31500000Y-49250000D03*
X31500000Y-48750000D03*
X31500000Y-48250000D03*
X31500000Y-47750000D03*
X31500000Y-47250000D03*
X31500000Y-46750000D03*
X31500000Y-46250000D03*
X31500000Y-45750000D03*
X31500000Y-45250000D03*
X31500000Y-44750000D03*
X31500000Y-44250000D03*
X31500000Y-43750000D03*
X31500000Y-43250000D03*
X31500000Y-42750000D03*
X31500000Y-42250000D03*
X31500000Y-41750000D03*
X31500000Y-41250000D03*
X31500000Y-40750000D03*
X31500000Y-40250000D03*
X31500000Y-39750000D03*
X31500000Y-39250000D03*
X31500000Y-38750000D03*
X31500000Y-38250000D03*
X31500000Y-37750000D03*
X31500000Y-37250000D03*
X31500000Y-36750000D03*
X31500000Y-36250000D03*
X31500000Y-35750000D03*
X31500000Y-35250000D03*
X31500000Y-34750000D03*
X31500000Y-34250000D03*
X31500000Y-33750000D03*
X31500000Y-33250000D03*
X31500000Y-32750000D03*
X31500000Y-32250000D03*
X31500000Y-31750000D03*
X31500000Y-31250000D03*
X31500000Y-30750000D03*
X31500000Y-30250000D03*
X31500000Y-29750000D03*
X31500000Y-29250000D03*
X31500000Y-28750000D03*
X31500000Y-28250000D03*
X31500000Y-27750000D03*
X31500000Y-27250000D03*
X31500000Y-26750000D03*
X31500000Y-26250000D03*
X31500000Y-25750000D03*
X31500000Y-25250000D03*
X31500000Y-24750000D03*
X31500000Y-24250000D03*
X31500000Y-23750000D03*
X31500000Y-23250000D03*
X31500000Y-22750000D03*
X31500000Y-22250000D03*
X31500000Y-21750000D03*
X31500000Y-21250000D03*
X31500000Y-20750000D03*
X31500000Y-20250000D03*
X31500000Y-19750000D03*
X31500000Y-19250000D03*
X31500000Y-18750000D03*
X31500000Y-18250000D03*
X31500000Y-17750000D03*
X31500000Y-17250000D03*
X31500000Y-16750000D03*
X31500000Y-16250000D03*
X31500000Y-15750000D03*
X31500000Y-15250000D03*
X31500000Y-14750000D03*
X31500000Y-14250000D03*
X31500000Y-13750000D03*
X31500000Y-13250000D03*
X31500000Y-12750000D03*
%TD*%
%TO.C,J3*%
X112500000Y-77250000D03*
X112500000Y-76750000D03*
X112500000Y-76250000D03*
X112500000Y-75750000D03*
X112500000Y-75250000D03*
X112500000Y-74750000D03*
X112500000Y-74250000D03*
X112500000Y-73750000D03*
X112500000Y-73250000D03*
X112500000Y-72750000D03*
X112500000Y-72250000D03*
X112500000Y-71750000D03*
X112500000Y-71250000D03*
X112500000Y-70750000D03*
X112500000Y-70250000D03*
X112500000Y-69750000D03*
X112500000Y-69250000D03*
X112500000Y-68750000D03*
X112500000Y-68250000D03*
X112500000Y-67750000D03*
X112500000Y-67250000D03*
X112500000Y-66750000D03*
X112500000Y-66250000D03*
X112500000Y-65750000D03*
X112500000Y-65250000D03*
X112500000Y-64750000D03*
X112500000Y-64250000D03*
X112500000Y-63750000D03*
X112500000Y-63250000D03*
X112500000Y-62750000D03*
X112500000Y-62250000D03*
X112500000Y-61750000D03*
X112500000Y-61250000D03*
X112500000Y-60750000D03*
X112500000Y-60250000D03*
X112500000Y-59750000D03*
X112500000Y-59250000D03*
X112500000Y-58750000D03*
X112500000Y-58250000D03*
X112500000Y-57750000D03*
X112500000Y-57250000D03*
X112500000Y-56750000D03*
X112500000Y-56250000D03*
X112500000Y-55750000D03*
X112500000Y-55250000D03*
X112500000Y-54750000D03*
X112500000Y-54250000D03*
X112500000Y-53750000D03*
X112500000Y-53250000D03*
X112500000Y-52750000D03*
X112500000Y-52250000D03*
X112500000Y-51750000D03*
X112500000Y-51250000D03*
X112500000Y-50750000D03*
X112500000Y-50250000D03*
X112500000Y-49750000D03*
X112500000Y-49250000D03*
X112500000Y-48750000D03*
X112500000Y-48250000D03*
X112500000Y-47750000D03*
X112500000Y-47250000D03*
X112500000Y-46750000D03*
X112500000Y-46250000D03*
X112500000Y-45750000D03*
X112500000Y-45250000D03*
X112500000Y-44750000D03*
X112500000Y-44250000D03*
X112500000Y-43750000D03*
X112500000Y-43250000D03*
X112500000Y-42750000D03*
X112500000Y-42250000D03*
X112500000Y-41750000D03*
X112500000Y-41250000D03*
X112500000Y-40750000D03*
X112500000Y-40250000D03*
X112500000Y-39750000D03*
X112500000Y-39250000D03*
X112500000Y-38750000D03*
X112500000Y-38250000D03*
X112500000Y-37750000D03*
X112500000Y-37250000D03*
X112500000Y-36750000D03*
X112500000Y-36250000D03*
X112500000Y-35750000D03*
X112500000Y-35250000D03*
X112500000Y-34750000D03*
X112500000Y-34250000D03*
X112500000Y-33750000D03*
X112500000Y-33250000D03*
X112500000Y-32750000D03*
X112500000Y-32250000D03*
X112500000Y-31750000D03*
X112500000Y-31250000D03*
X112500000Y-30750000D03*
X112500000Y-30250000D03*
X112500000Y-29750000D03*
X112500000Y-29250000D03*
X112500000Y-28750000D03*
X112500000Y-28250000D03*
X112500000Y-27750000D03*
X112500000Y-27250000D03*
X112500000Y-26750000D03*
X112500000Y-26250000D03*
X112500000Y-25750000D03*
X112500000Y-25250000D03*
X112500000Y-24750000D03*
X112500000Y-24250000D03*
X112500000Y-23750000D03*
X112500000Y-23250000D03*
X112500000Y-22750000D03*
X112500000Y-22250000D03*
X112500000Y-21750000D03*
X112500000Y-21250000D03*
X112500000Y-20750000D03*
X112500000Y-20250000D03*
X112500000Y-19750000D03*
X112500000Y-19250000D03*
X112500000Y-18750000D03*
X112500000Y-18250000D03*
X112500000Y-17750000D03*
X112500000Y-17250000D03*
X112500000Y-16750000D03*
X112500000Y-16250000D03*
X112500000Y-15750000D03*
X112500000Y-15250000D03*
X112500000Y-14750000D03*
X112500000Y-14250000D03*
X112500000Y-13750000D03*
X112500000Y-13250000D03*
X112500000Y-12750000D03*
X115500000Y-77250000D03*
X115500000Y-76750000D03*
X115500000Y-76250000D03*
X115500000Y-75750000D03*
X115500000Y-75250000D03*
X115500000Y-74750000D03*
X115500000Y-74250000D03*
X115500000Y-73750000D03*
X115500000Y-73250000D03*
X115500000Y-72750000D03*
X115500000Y-72250000D03*
X115500000Y-71750000D03*
X115500000Y-71250000D03*
X115500000Y-70750000D03*
X115500000Y-70250000D03*
X115500000Y-69750000D03*
X115500000Y-69250000D03*
X115500000Y-68750000D03*
X115500000Y-68250000D03*
X115500000Y-67750000D03*
X115500000Y-67250000D03*
X115500000Y-66750000D03*
X115500000Y-66250000D03*
X115500000Y-65750000D03*
X115500000Y-65250000D03*
X115500000Y-64750000D03*
X115500000Y-64250000D03*
X115500000Y-63750000D03*
X115500000Y-63250000D03*
X115500000Y-62750000D03*
X115500000Y-62250000D03*
X115500000Y-61750000D03*
X115500000Y-61250000D03*
X115500000Y-60750000D03*
X115500000Y-60250000D03*
X115500000Y-59750000D03*
X115500000Y-59250000D03*
X115500000Y-58750000D03*
X115500000Y-58250000D03*
X115500000Y-57750000D03*
X115500000Y-57250000D03*
X115500000Y-56750000D03*
X115500000Y-56250000D03*
X115500000Y-55750000D03*
X115500000Y-55250000D03*
X115500000Y-54750000D03*
X115500000Y-54250000D03*
X115500000Y-53750000D03*
X115500000Y-53250000D03*
X115500000Y-52750000D03*
X115500000Y-52250000D03*
X115500000Y-51750000D03*
X115500000Y-51250000D03*
X115500000Y-50750000D03*
X115500000Y-50250000D03*
X115500000Y-49750000D03*
X115500000Y-49250000D03*
X115500000Y-48750000D03*
X115500000Y-48250000D03*
X115500000Y-47750000D03*
X115500000Y-47250000D03*
X115500000Y-46750000D03*
X115500000Y-46250000D03*
X115500000Y-45750000D03*
X115500000Y-45250000D03*
X115500000Y-44750000D03*
X115500000Y-44250000D03*
X115500000Y-43750000D03*
X115500000Y-43250000D03*
X115500000Y-42750000D03*
X115500000Y-42250000D03*
X115500000Y-41750000D03*
X115500000Y-41250000D03*
X115500000Y-40750000D03*
X115500000Y-40250000D03*
X115500000Y-39750000D03*
X115500000Y-39250000D03*
X115500000Y-38750000D03*
X115500000Y-38250000D03*
X115500000Y-37750000D03*
X115500000Y-37250000D03*
X115500000Y-36750000D03*
X115500000Y-36250000D03*
X115500000Y-35750000D03*
X115500000Y-35250000D03*
X115500000Y-34750000D03*
X115500000Y-34250000D03*
X115500000Y-33750000D03*
X115500000Y-33250000D03*
X115500000Y-32750000D03*
X115500000Y-32250000D03*
X115500000Y-31750000D03*
X115500000Y-31250000D03*
X115500000Y-30750000D03*
X115500000Y-30250000D03*
X115500000Y-29750000D03*
X115500000Y-29250000D03*
X115500000Y-28750000D03*
X115500000Y-28250000D03*
X115500000Y-27750000D03*
X115500000Y-27250000D03*
X115500000Y-26750000D03*
X115500000Y-26250000D03*
X115500000Y-25750000D03*
X115500000Y-25250000D03*
X115500000Y-24750000D03*
X115500000Y-24250000D03*
X115500000Y-23750000D03*
X115500000Y-23250000D03*
X115500000Y-22750000D03*
X115500000Y-22250000D03*
X115500000Y-21750000D03*
X115500000Y-21250000D03*
X115500000Y-20750000D03*
X115500000Y-20250000D03*
X115500000Y-19750000D03*
X115500000Y-19250000D03*
X115500000Y-18750000D03*
X115500000Y-18250000D03*
X115500000Y-17750000D03*
X115500000Y-17250000D03*
X115500000Y-16750000D03*
X115500000Y-16250000D03*
X115500000Y-15750000D03*
X115500000Y-15250000D03*
X115500000Y-14750000D03*
X115500000Y-14250000D03*
X115500000Y-13750000D03*
X115500000Y-13250000D03*
X115500000Y-12750000D03*
%TD*%
D10*
%TO.C,MK4*%
X440000000Y-290000000D03*
%TD*%
D25*
%TO.C,R1*%
X67490000Y-218000000D03*
X68510000Y-218000000D03*
%TD*%
%TO.C,R2*%
X67490000Y-222000000D03*
X68510000Y-222000000D03*
%TD*%
M02*
