%TF.GenerationSoftware,KiCad,Pcbnew,10.0.5*%
%TF.CreationDate,2026-08-04T17:32:04-07:00*%
%TF.ProjectId,palpod-compute-backplane-real,70616c70-6f64-42d6-936f-6d707574652d,A0*%
%TF.SameCoordinates,Original*%
%TF.FileFunction,Legend,Top*%
%TF.FilePolarity,Positive*%
%FSLAX46Y46*%
G04 Gerber Fmt 4.6, Leading zero omitted, Abs format (unit mm)*
G04 Created by KiCad (PCBNEW 10.0.5) date 2026-08-04 17:32:04*
%MOMM*%
%LPD*%
G01*
G04 APERTURE LIST*
%ADD10C,0.200000*%
%ADD11C,0.300000*%
%ADD12C,0.600000*%
%ADD13C,0.158750*%
%ADD14C,0.150000*%
%ADD15C,0.120000*%
G04 APERTURE END LIST*
D10*
X225417292Y-279734600D02*
X225631578Y-279806028D01*
X225631578Y-279806028D02*
X225988720Y-279806028D01*
X225988720Y-279806028D02*
X226131578Y-279734600D01*
X226131578Y-279734600D02*
X226203006Y-279663171D01*
X226203006Y-279663171D02*
X226274435Y-279520314D01*
X226274435Y-279520314D02*
X226274435Y-279377457D01*
X226274435Y-279377457D02*
X226203006Y-279234600D01*
X226203006Y-279234600D02*
X226131578Y-279163171D01*
X226131578Y-279163171D02*
X225988720Y-279091742D01*
X225988720Y-279091742D02*
X225703006Y-279020314D01*
X225703006Y-279020314D02*
X225560149Y-278948885D01*
X225560149Y-278948885D02*
X225488720Y-278877457D01*
X225488720Y-278877457D02*
X225417292Y-278734600D01*
X225417292Y-278734600D02*
X225417292Y-278591742D01*
X225417292Y-278591742D02*
X225488720Y-278448885D01*
X225488720Y-278448885D02*
X225560149Y-278377457D01*
X225560149Y-278377457D02*
X225703006Y-278306028D01*
X225703006Y-278306028D02*
X226060149Y-278306028D01*
X226060149Y-278306028D02*
X226274435Y-278377457D01*
X227488720Y-279734600D02*
X227345863Y-279806028D01*
X227345863Y-279806028D02*
X227060149Y-279806028D01*
X227060149Y-279806028D02*
X226917291Y-279734600D01*
X226917291Y-279734600D02*
X226845863Y-279591742D01*
X226845863Y-279591742D02*
X226845863Y-279020314D01*
X226845863Y-279020314D02*
X226917291Y-278877457D01*
X226917291Y-278877457D02*
X227060149Y-278806028D01*
X227060149Y-278806028D02*
X227345863Y-278806028D01*
X227345863Y-278806028D02*
X227488720Y-278877457D01*
X227488720Y-278877457D02*
X227560149Y-279020314D01*
X227560149Y-279020314D02*
X227560149Y-279163171D01*
X227560149Y-279163171D02*
X226845863Y-279306028D01*
X228774434Y-279734600D02*
X228631577Y-279806028D01*
X228631577Y-279806028D02*
X228345863Y-279806028D01*
X228345863Y-279806028D02*
X228203005Y-279734600D01*
X228203005Y-279734600D02*
X228131577Y-279591742D01*
X228131577Y-279591742D02*
X228131577Y-279020314D01*
X228131577Y-279020314D02*
X228203005Y-278877457D01*
X228203005Y-278877457D02*
X228345863Y-278806028D01*
X228345863Y-278806028D02*
X228631577Y-278806028D01*
X228631577Y-278806028D02*
X228774434Y-278877457D01*
X228774434Y-278877457D02*
X228845863Y-279020314D01*
X228845863Y-279020314D02*
X228845863Y-279163171D01*
X228845863Y-279163171D02*
X228131577Y-279306028D01*
X230631576Y-279806028D02*
X230631576Y-278306028D01*
X230631576Y-278877457D02*
X230774434Y-278806028D01*
X230774434Y-278806028D02*
X231060148Y-278806028D01*
X231060148Y-278806028D02*
X231203005Y-278877457D01*
X231203005Y-278877457D02*
X231274434Y-278948885D01*
X231274434Y-278948885D02*
X231345862Y-279091742D01*
X231345862Y-279091742D02*
X231345862Y-279520314D01*
X231345862Y-279520314D02*
X231274434Y-279663171D01*
X231274434Y-279663171D02*
X231203005Y-279734600D01*
X231203005Y-279734600D02*
X231060148Y-279806028D01*
X231060148Y-279806028D02*
X230774434Y-279806028D01*
X230774434Y-279806028D02*
X230631576Y-279734600D01*
X232203005Y-279806028D02*
X232060148Y-279734600D01*
X232060148Y-279734600D02*
X231988719Y-279591742D01*
X231988719Y-279591742D02*
X231988719Y-278306028D01*
X232988719Y-279806028D02*
X232845862Y-279734600D01*
X232845862Y-279734600D02*
X232774433Y-279663171D01*
X232774433Y-279663171D02*
X232703005Y-279520314D01*
X232703005Y-279520314D02*
X232703005Y-279091742D01*
X232703005Y-279091742D02*
X232774433Y-278948885D01*
X232774433Y-278948885D02*
X232845862Y-278877457D01*
X232845862Y-278877457D02*
X232988719Y-278806028D01*
X232988719Y-278806028D02*
X233203005Y-278806028D01*
X233203005Y-278806028D02*
X233345862Y-278877457D01*
X233345862Y-278877457D02*
X233417291Y-278948885D01*
X233417291Y-278948885D02*
X233488719Y-279091742D01*
X233488719Y-279091742D02*
X233488719Y-279520314D01*
X233488719Y-279520314D02*
X233417291Y-279663171D01*
X233417291Y-279663171D02*
X233345862Y-279734600D01*
X233345862Y-279734600D02*
X233203005Y-279806028D01*
X233203005Y-279806028D02*
X232988719Y-279806028D01*
X234774434Y-279734600D02*
X234631576Y-279806028D01*
X234631576Y-279806028D02*
X234345862Y-279806028D01*
X234345862Y-279806028D02*
X234203005Y-279734600D01*
X234203005Y-279734600D02*
X234131576Y-279663171D01*
X234131576Y-279663171D02*
X234060148Y-279520314D01*
X234060148Y-279520314D02*
X234060148Y-279091742D01*
X234060148Y-279091742D02*
X234131576Y-278948885D01*
X234131576Y-278948885D02*
X234203005Y-278877457D01*
X234203005Y-278877457D02*
X234345862Y-278806028D01*
X234345862Y-278806028D02*
X234631576Y-278806028D01*
X234631576Y-278806028D02*
X234774434Y-278877457D01*
X235417290Y-279806028D02*
X235417290Y-278306028D01*
X235560148Y-279234600D02*
X235988719Y-279806028D01*
X235988719Y-278806028D02*
X235417290Y-279377457D01*
X236631576Y-279234600D02*
X237774434Y-279234600D01*
X239131577Y-279806028D02*
X239131577Y-278306028D01*
X239131577Y-279734600D02*
X238988719Y-279806028D01*
X238988719Y-279806028D02*
X238703005Y-279806028D01*
X238703005Y-279806028D02*
X238560148Y-279734600D01*
X238560148Y-279734600D02*
X238488719Y-279663171D01*
X238488719Y-279663171D02*
X238417291Y-279520314D01*
X238417291Y-279520314D02*
X238417291Y-279091742D01*
X238417291Y-279091742D02*
X238488719Y-278948885D01*
X238488719Y-278948885D02*
X238560148Y-278877457D01*
X238560148Y-278877457D02*
X238703005Y-278806028D01*
X238703005Y-278806028D02*
X238988719Y-278806028D01*
X238988719Y-278806028D02*
X239131577Y-278877457D01*
X239845862Y-279806028D02*
X239845862Y-278806028D01*
X239845862Y-278306028D02*
X239774434Y-278377457D01*
X239774434Y-278377457D02*
X239845862Y-278448885D01*
X239845862Y-278448885D02*
X239917291Y-278377457D01*
X239917291Y-278377457D02*
X239845862Y-278306028D01*
X239845862Y-278306028D02*
X239845862Y-278448885D01*
X241203006Y-279806028D02*
X241203006Y-279020314D01*
X241203006Y-279020314D02*
X241131577Y-278877457D01*
X241131577Y-278877457D02*
X240988720Y-278806028D01*
X240988720Y-278806028D02*
X240703006Y-278806028D01*
X240703006Y-278806028D02*
X240560148Y-278877457D01*
X241203006Y-279734600D02*
X241060148Y-279806028D01*
X241060148Y-279806028D02*
X240703006Y-279806028D01*
X240703006Y-279806028D02*
X240560148Y-279734600D01*
X240560148Y-279734600D02*
X240488720Y-279591742D01*
X240488720Y-279591742D02*
X240488720Y-279448885D01*
X240488720Y-279448885D02*
X240560148Y-279306028D01*
X240560148Y-279306028D02*
X240703006Y-279234600D01*
X240703006Y-279234600D02*
X241060148Y-279234600D01*
X241060148Y-279234600D02*
X241203006Y-279163171D01*
X242560149Y-278806028D02*
X242560149Y-280020314D01*
X242560149Y-280020314D02*
X242488720Y-280163171D01*
X242488720Y-280163171D02*
X242417291Y-280234600D01*
X242417291Y-280234600D02*
X242274434Y-280306028D01*
X242274434Y-280306028D02*
X242060149Y-280306028D01*
X242060149Y-280306028D02*
X241917291Y-280234600D01*
X242560149Y-279734600D02*
X242417291Y-279806028D01*
X242417291Y-279806028D02*
X242131577Y-279806028D01*
X242131577Y-279806028D02*
X241988720Y-279734600D01*
X241988720Y-279734600D02*
X241917291Y-279663171D01*
X241917291Y-279663171D02*
X241845863Y-279520314D01*
X241845863Y-279520314D02*
X241845863Y-279091742D01*
X241845863Y-279091742D02*
X241917291Y-278948885D01*
X241917291Y-278948885D02*
X241988720Y-278877457D01*
X241988720Y-278877457D02*
X242131577Y-278806028D01*
X242131577Y-278806028D02*
X242417291Y-278806028D01*
X242417291Y-278806028D02*
X242560149Y-278877457D01*
X243274434Y-279806028D02*
X243274434Y-278806028D01*
X243274434Y-279091742D02*
X243345863Y-278948885D01*
X243345863Y-278948885D02*
X243417292Y-278877457D01*
X243417292Y-278877457D02*
X243560149Y-278806028D01*
X243560149Y-278806028D02*
X243703006Y-278806028D01*
X244845863Y-279806028D02*
X244845863Y-279020314D01*
X244845863Y-279020314D02*
X244774434Y-278877457D01*
X244774434Y-278877457D02*
X244631577Y-278806028D01*
X244631577Y-278806028D02*
X244345863Y-278806028D01*
X244345863Y-278806028D02*
X244203005Y-278877457D01*
X244845863Y-279734600D02*
X244703005Y-279806028D01*
X244703005Y-279806028D02*
X244345863Y-279806028D01*
X244345863Y-279806028D02*
X244203005Y-279734600D01*
X244203005Y-279734600D02*
X244131577Y-279591742D01*
X244131577Y-279591742D02*
X244131577Y-279448885D01*
X244131577Y-279448885D02*
X244203005Y-279306028D01*
X244203005Y-279306028D02*
X244345863Y-279234600D01*
X244345863Y-279234600D02*
X244703005Y-279234600D01*
X244703005Y-279234600D02*
X244845863Y-279163171D01*
X245560148Y-279806028D02*
X245560148Y-278806028D01*
X245560148Y-278948885D02*
X245631577Y-278877457D01*
X245631577Y-278877457D02*
X245774434Y-278806028D01*
X245774434Y-278806028D02*
X245988720Y-278806028D01*
X245988720Y-278806028D02*
X246131577Y-278877457D01*
X246131577Y-278877457D02*
X246203006Y-279020314D01*
X246203006Y-279020314D02*
X246203006Y-279806028D01*
X246203006Y-279020314D02*
X246274434Y-278877457D01*
X246274434Y-278877457D02*
X246417291Y-278806028D01*
X246417291Y-278806028D02*
X246631577Y-278806028D01*
X246631577Y-278806028D02*
X246774434Y-278877457D01*
X246774434Y-278877457D02*
X246845863Y-279020314D01*
X246845863Y-279020314D02*
X246845863Y-279806028D01*
X247488720Y-279734600D02*
X247631577Y-279806028D01*
X247631577Y-279806028D02*
X247917291Y-279806028D01*
X247917291Y-279806028D02*
X248060148Y-279734600D01*
X248060148Y-279734600D02*
X248131577Y-279591742D01*
X248131577Y-279591742D02*
X248131577Y-279520314D01*
X248131577Y-279520314D02*
X248060148Y-279377457D01*
X248060148Y-279377457D02*
X247917291Y-279306028D01*
X247917291Y-279306028D02*
X247703006Y-279306028D01*
X247703006Y-279306028D02*
X247560148Y-279234600D01*
X247560148Y-279234600D02*
X247488720Y-279091742D01*
X247488720Y-279091742D02*
X247488720Y-279020314D01*
X247488720Y-279020314D02*
X247560148Y-278877457D01*
X247560148Y-278877457D02*
X247703006Y-278806028D01*
X247703006Y-278806028D02*
X247917291Y-278806028D01*
X247917291Y-278806028D02*
X248060148Y-278877457D01*
X249845863Y-278234600D02*
X248560149Y-280163171D01*
X250988721Y-279734600D02*
X250845863Y-279806028D01*
X250845863Y-279806028D02*
X250560149Y-279806028D01*
X250560149Y-279806028D02*
X250417292Y-279734600D01*
X250417292Y-279734600D02*
X250345863Y-279663171D01*
X250345863Y-279663171D02*
X250274435Y-279520314D01*
X250274435Y-279520314D02*
X250274435Y-279091742D01*
X250274435Y-279091742D02*
X250345863Y-278948885D01*
X250345863Y-278948885D02*
X250417292Y-278877457D01*
X250417292Y-278877457D02*
X250560149Y-278806028D01*
X250560149Y-278806028D02*
X250845863Y-278806028D01*
X250845863Y-278806028D02*
X250988721Y-278877457D01*
X251845863Y-279806028D02*
X251703006Y-279734600D01*
X251703006Y-279734600D02*
X251631577Y-279663171D01*
X251631577Y-279663171D02*
X251560149Y-279520314D01*
X251560149Y-279520314D02*
X251560149Y-279091742D01*
X251560149Y-279091742D02*
X251631577Y-278948885D01*
X251631577Y-278948885D02*
X251703006Y-278877457D01*
X251703006Y-278877457D02*
X251845863Y-278806028D01*
X251845863Y-278806028D02*
X252060149Y-278806028D01*
X252060149Y-278806028D02*
X252203006Y-278877457D01*
X252203006Y-278877457D02*
X252274435Y-278948885D01*
X252274435Y-278948885D02*
X252345863Y-279091742D01*
X252345863Y-279091742D02*
X252345863Y-279520314D01*
X252345863Y-279520314D02*
X252274435Y-279663171D01*
X252274435Y-279663171D02*
X252203006Y-279734600D01*
X252203006Y-279734600D02*
X252060149Y-279806028D01*
X252060149Y-279806028D02*
X251845863Y-279806028D01*
X252988720Y-279806028D02*
X252988720Y-278806028D01*
X252988720Y-278948885D02*
X253060149Y-278877457D01*
X253060149Y-278877457D02*
X253203006Y-278806028D01*
X253203006Y-278806028D02*
X253417292Y-278806028D01*
X253417292Y-278806028D02*
X253560149Y-278877457D01*
X253560149Y-278877457D02*
X253631578Y-279020314D01*
X253631578Y-279020314D02*
X253631578Y-279806028D01*
X253631578Y-279020314D02*
X253703006Y-278877457D01*
X253703006Y-278877457D02*
X253845863Y-278806028D01*
X253845863Y-278806028D02*
X254060149Y-278806028D01*
X254060149Y-278806028D02*
X254203006Y-278877457D01*
X254203006Y-278877457D02*
X254274435Y-279020314D01*
X254274435Y-279020314D02*
X254274435Y-279806028D01*
X254988720Y-278806028D02*
X254988720Y-280306028D01*
X254988720Y-278877457D02*
X255131578Y-278806028D01*
X255131578Y-278806028D02*
X255417292Y-278806028D01*
X255417292Y-278806028D02*
X255560149Y-278877457D01*
X255560149Y-278877457D02*
X255631578Y-278948885D01*
X255631578Y-278948885D02*
X255703006Y-279091742D01*
X255703006Y-279091742D02*
X255703006Y-279520314D01*
X255703006Y-279520314D02*
X255631578Y-279663171D01*
X255631578Y-279663171D02*
X255560149Y-279734600D01*
X255560149Y-279734600D02*
X255417292Y-279806028D01*
X255417292Y-279806028D02*
X255131578Y-279806028D01*
X255131578Y-279806028D02*
X254988720Y-279734600D01*
X256988721Y-278806028D02*
X256988721Y-279806028D01*
X256345863Y-278806028D02*
X256345863Y-279591742D01*
X256345863Y-279591742D02*
X256417292Y-279734600D01*
X256417292Y-279734600D02*
X256560149Y-279806028D01*
X256560149Y-279806028D02*
X256774435Y-279806028D01*
X256774435Y-279806028D02*
X256917292Y-279734600D01*
X256917292Y-279734600D02*
X256988721Y-279663171D01*
X257488721Y-278806028D02*
X258060149Y-278806028D01*
X257703006Y-278306028D02*
X257703006Y-279591742D01*
X257703006Y-279591742D02*
X257774435Y-279734600D01*
X257774435Y-279734600D02*
X257917292Y-279806028D01*
X257917292Y-279806028D02*
X258060149Y-279806028D01*
X259131578Y-279734600D02*
X258988721Y-279806028D01*
X258988721Y-279806028D02*
X258703007Y-279806028D01*
X258703007Y-279806028D02*
X258560149Y-279734600D01*
X258560149Y-279734600D02*
X258488721Y-279591742D01*
X258488721Y-279591742D02*
X258488721Y-279020314D01*
X258488721Y-279020314D02*
X258560149Y-278877457D01*
X258560149Y-278877457D02*
X258703007Y-278806028D01*
X258703007Y-278806028D02*
X258988721Y-278806028D01*
X258988721Y-278806028D02*
X259131578Y-278877457D01*
X259131578Y-278877457D02*
X259203007Y-279020314D01*
X259203007Y-279020314D02*
X259203007Y-279163171D01*
X259203007Y-279163171D02*
X258488721Y-279306028D01*
X259845863Y-279234600D02*
X260988721Y-279234600D01*
X261703006Y-279806028D02*
X261703006Y-278306028D01*
X261703006Y-278877457D02*
X261845864Y-278806028D01*
X261845864Y-278806028D02*
X262131578Y-278806028D01*
X262131578Y-278806028D02*
X262274435Y-278877457D01*
X262274435Y-278877457D02*
X262345864Y-278948885D01*
X262345864Y-278948885D02*
X262417292Y-279091742D01*
X262417292Y-279091742D02*
X262417292Y-279520314D01*
X262417292Y-279520314D02*
X262345864Y-279663171D01*
X262345864Y-279663171D02*
X262274435Y-279734600D01*
X262274435Y-279734600D02*
X262131578Y-279806028D01*
X262131578Y-279806028D02*
X261845864Y-279806028D01*
X261845864Y-279806028D02*
X261703006Y-279734600D01*
X263703007Y-279806028D02*
X263703007Y-279020314D01*
X263703007Y-279020314D02*
X263631578Y-278877457D01*
X263631578Y-278877457D02*
X263488721Y-278806028D01*
X263488721Y-278806028D02*
X263203007Y-278806028D01*
X263203007Y-278806028D02*
X263060149Y-278877457D01*
X263703007Y-279734600D02*
X263560149Y-279806028D01*
X263560149Y-279806028D02*
X263203007Y-279806028D01*
X263203007Y-279806028D02*
X263060149Y-279734600D01*
X263060149Y-279734600D02*
X262988721Y-279591742D01*
X262988721Y-279591742D02*
X262988721Y-279448885D01*
X262988721Y-279448885D02*
X263060149Y-279306028D01*
X263060149Y-279306028D02*
X263203007Y-279234600D01*
X263203007Y-279234600D02*
X263560149Y-279234600D01*
X263560149Y-279234600D02*
X263703007Y-279163171D01*
X265060150Y-279734600D02*
X264917292Y-279806028D01*
X264917292Y-279806028D02*
X264631578Y-279806028D01*
X264631578Y-279806028D02*
X264488721Y-279734600D01*
X264488721Y-279734600D02*
X264417292Y-279663171D01*
X264417292Y-279663171D02*
X264345864Y-279520314D01*
X264345864Y-279520314D02*
X264345864Y-279091742D01*
X264345864Y-279091742D02*
X264417292Y-278948885D01*
X264417292Y-278948885D02*
X264488721Y-278877457D01*
X264488721Y-278877457D02*
X264631578Y-278806028D01*
X264631578Y-278806028D02*
X264917292Y-278806028D01*
X264917292Y-278806028D02*
X265060150Y-278877457D01*
X265703006Y-279806028D02*
X265703006Y-278306028D01*
X265845864Y-279234600D02*
X266274435Y-279806028D01*
X266274435Y-278806028D02*
X265703006Y-279377457D01*
X266917292Y-278806028D02*
X266917292Y-280306028D01*
X266917292Y-278877457D02*
X267060150Y-278806028D01*
X267060150Y-278806028D02*
X267345864Y-278806028D01*
X267345864Y-278806028D02*
X267488721Y-278877457D01*
X267488721Y-278877457D02*
X267560150Y-278948885D01*
X267560150Y-278948885D02*
X267631578Y-279091742D01*
X267631578Y-279091742D02*
X267631578Y-279520314D01*
X267631578Y-279520314D02*
X267560150Y-279663171D01*
X267560150Y-279663171D02*
X267488721Y-279734600D01*
X267488721Y-279734600D02*
X267345864Y-279806028D01*
X267345864Y-279806028D02*
X267060150Y-279806028D01*
X267060150Y-279806028D02*
X266917292Y-279734600D01*
X268488721Y-279806028D02*
X268345864Y-279734600D01*
X268345864Y-279734600D02*
X268274435Y-279591742D01*
X268274435Y-279591742D02*
X268274435Y-278306028D01*
X269703007Y-279806028D02*
X269703007Y-279020314D01*
X269703007Y-279020314D02*
X269631578Y-278877457D01*
X269631578Y-278877457D02*
X269488721Y-278806028D01*
X269488721Y-278806028D02*
X269203007Y-278806028D01*
X269203007Y-278806028D02*
X269060149Y-278877457D01*
X269703007Y-279734600D02*
X269560149Y-279806028D01*
X269560149Y-279806028D02*
X269203007Y-279806028D01*
X269203007Y-279806028D02*
X269060149Y-279734600D01*
X269060149Y-279734600D02*
X268988721Y-279591742D01*
X268988721Y-279591742D02*
X268988721Y-279448885D01*
X268988721Y-279448885D02*
X269060149Y-279306028D01*
X269060149Y-279306028D02*
X269203007Y-279234600D01*
X269203007Y-279234600D02*
X269560149Y-279234600D01*
X269560149Y-279234600D02*
X269703007Y-279163171D01*
X270417292Y-278806028D02*
X270417292Y-279806028D01*
X270417292Y-278948885D02*
X270488721Y-278877457D01*
X270488721Y-278877457D02*
X270631578Y-278806028D01*
X270631578Y-278806028D02*
X270845864Y-278806028D01*
X270845864Y-278806028D02*
X270988721Y-278877457D01*
X270988721Y-278877457D02*
X271060150Y-279020314D01*
X271060150Y-279020314D02*
X271060150Y-279806028D01*
X272345864Y-279734600D02*
X272203007Y-279806028D01*
X272203007Y-279806028D02*
X271917293Y-279806028D01*
X271917293Y-279806028D02*
X271774435Y-279734600D01*
X271774435Y-279734600D02*
X271703007Y-279591742D01*
X271703007Y-279591742D02*
X271703007Y-279020314D01*
X271703007Y-279020314D02*
X271774435Y-278877457D01*
X271774435Y-278877457D02*
X271917293Y-278806028D01*
X271917293Y-278806028D02*
X272203007Y-278806028D01*
X272203007Y-278806028D02*
X272345864Y-278877457D01*
X272345864Y-278877457D02*
X272417293Y-279020314D01*
X272417293Y-279020314D02*
X272417293Y-279163171D01*
X272417293Y-279163171D02*
X271703007Y-279306028D01*
X273060149Y-279663171D02*
X273131578Y-279734600D01*
X273131578Y-279734600D02*
X273060149Y-279806028D01*
X273060149Y-279806028D02*
X272988721Y-279734600D01*
X272988721Y-279734600D02*
X273060149Y-279663171D01*
X273060149Y-279663171D02*
X273060149Y-279806028D01*
X273774435Y-279806028D02*
X273774435Y-278806028D01*
X273774435Y-278948885D02*
X273845864Y-278877457D01*
X273845864Y-278877457D02*
X273988721Y-278806028D01*
X273988721Y-278806028D02*
X274203007Y-278806028D01*
X274203007Y-278806028D02*
X274345864Y-278877457D01*
X274345864Y-278877457D02*
X274417293Y-279020314D01*
X274417293Y-279020314D02*
X274417293Y-279806028D01*
X274417293Y-279020314D02*
X274488721Y-278877457D01*
X274488721Y-278877457D02*
X274631578Y-278806028D01*
X274631578Y-278806028D02*
X274845864Y-278806028D01*
X274845864Y-278806028D02*
X274988721Y-278877457D01*
X274988721Y-278877457D02*
X275060150Y-279020314D01*
X275060150Y-279020314D02*
X275060150Y-279806028D01*
X276417293Y-279806028D02*
X276417293Y-278306028D01*
X276417293Y-279734600D02*
X276274435Y-279806028D01*
X276274435Y-279806028D02*
X275988721Y-279806028D01*
X275988721Y-279806028D02*
X275845864Y-279734600D01*
X275845864Y-279734600D02*
X275774435Y-279663171D01*
X275774435Y-279663171D02*
X275703007Y-279520314D01*
X275703007Y-279520314D02*
X275703007Y-279091742D01*
X275703007Y-279091742D02*
X275774435Y-278948885D01*
X275774435Y-278948885D02*
X275845864Y-278877457D01*
X275845864Y-278877457D02*
X275988721Y-278806028D01*
X275988721Y-278806028D02*
X276274435Y-278806028D01*
X276274435Y-278806028D02*
X276417293Y-278877457D01*
X278060150Y-278806028D02*
X278631578Y-278806028D01*
X278274435Y-279806028D02*
X278274435Y-278520314D01*
X278274435Y-278520314D02*
X278345864Y-278377457D01*
X278345864Y-278377457D02*
X278488721Y-278306028D01*
X278488721Y-278306028D02*
X278631578Y-278306028D01*
X279345864Y-279806028D02*
X279203007Y-279734600D01*
X279203007Y-279734600D02*
X279131578Y-279663171D01*
X279131578Y-279663171D02*
X279060150Y-279520314D01*
X279060150Y-279520314D02*
X279060150Y-279091742D01*
X279060150Y-279091742D02*
X279131578Y-278948885D01*
X279131578Y-278948885D02*
X279203007Y-278877457D01*
X279203007Y-278877457D02*
X279345864Y-278806028D01*
X279345864Y-278806028D02*
X279560150Y-278806028D01*
X279560150Y-278806028D02*
X279703007Y-278877457D01*
X279703007Y-278877457D02*
X279774436Y-278948885D01*
X279774436Y-278948885D02*
X279845864Y-279091742D01*
X279845864Y-279091742D02*
X279845864Y-279520314D01*
X279845864Y-279520314D02*
X279774436Y-279663171D01*
X279774436Y-279663171D02*
X279703007Y-279734600D01*
X279703007Y-279734600D02*
X279560150Y-279806028D01*
X279560150Y-279806028D02*
X279345864Y-279806028D01*
X280488721Y-279806028D02*
X280488721Y-278806028D01*
X280488721Y-279091742D02*
X280560150Y-278948885D01*
X280560150Y-278948885D02*
X280631579Y-278877457D01*
X280631579Y-278877457D02*
X280774436Y-278806028D01*
X280774436Y-278806028D02*
X280917293Y-278806028D01*
X282345864Y-278806028D02*
X282917292Y-278806028D01*
X282560149Y-278306028D02*
X282560149Y-279591742D01*
X282560149Y-279591742D02*
X282631578Y-279734600D01*
X282631578Y-279734600D02*
X282774435Y-279806028D01*
X282774435Y-279806028D02*
X282917292Y-279806028D01*
X283631578Y-279806028D02*
X283488721Y-279734600D01*
X283488721Y-279734600D02*
X283417292Y-279663171D01*
X283417292Y-279663171D02*
X283345864Y-279520314D01*
X283345864Y-279520314D02*
X283345864Y-279091742D01*
X283345864Y-279091742D02*
X283417292Y-278948885D01*
X283417292Y-278948885D02*
X283488721Y-278877457D01*
X283488721Y-278877457D02*
X283631578Y-278806028D01*
X283631578Y-278806028D02*
X283845864Y-278806028D01*
X283845864Y-278806028D02*
X283988721Y-278877457D01*
X283988721Y-278877457D02*
X284060150Y-278948885D01*
X284060150Y-278948885D02*
X284131578Y-279091742D01*
X284131578Y-279091742D02*
X284131578Y-279520314D01*
X284131578Y-279520314D02*
X284060150Y-279663171D01*
X284060150Y-279663171D02*
X283988721Y-279734600D01*
X283988721Y-279734600D02*
X283845864Y-279806028D01*
X283845864Y-279806028D02*
X283631578Y-279806028D01*
X284774435Y-278806028D02*
X284774435Y-280306028D01*
X284774435Y-278877457D02*
X284917293Y-278806028D01*
X284917293Y-278806028D02*
X285203007Y-278806028D01*
X285203007Y-278806028D02*
X285345864Y-278877457D01*
X285345864Y-278877457D02*
X285417293Y-278948885D01*
X285417293Y-278948885D02*
X285488721Y-279091742D01*
X285488721Y-279091742D02*
X285488721Y-279520314D01*
X285488721Y-279520314D02*
X285417293Y-279663171D01*
X285417293Y-279663171D02*
X285345864Y-279734600D01*
X285345864Y-279734600D02*
X285203007Y-279806028D01*
X285203007Y-279806028D02*
X284917293Y-279806028D01*
X284917293Y-279806028D02*
X284774435Y-279734600D01*
X286345864Y-279806028D02*
X286203007Y-279734600D01*
X286203007Y-279734600D02*
X286131578Y-279663171D01*
X286131578Y-279663171D02*
X286060150Y-279520314D01*
X286060150Y-279520314D02*
X286060150Y-279091742D01*
X286060150Y-279091742D02*
X286131578Y-278948885D01*
X286131578Y-278948885D02*
X286203007Y-278877457D01*
X286203007Y-278877457D02*
X286345864Y-278806028D01*
X286345864Y-278806028D02*
X286560150Y-278806028D01*
X286560150Y-278806028D02*
X286703007Y-278877457D01*
X286703007Y-278877457D02*
X286774436Y-278948885D01*
X286774436Y-278948885D02*
X286845864Y-279091742D01*
X286845864Y-279091742D02*
X286845864Y-279520314D01*
X286845864Y-279520314D02*
X286774436Y-279663171D01*
X286774436Y-279663171D02*
X286703007Y-279734600D01*
X286703007Y-279734600D02*
X286560150Y-279806028D01*
X286560150Y-279806028D02*
X286345864Y-279806028D01*
X287703007Y-279806028D02*
X287560150Y-279734600D01*
X287560150Y-279734600D02*
X287488721Y-279591742D01*
X287488721Y-279591742D02*
X287488721Y-278306028D01*
X288488721Y-279806028D02*
X288345864Y-279734600D01*
X288345864Y-279734600D02*
X288274435Y-279663171D01*
X288274435Y-279663171D02*
X288203007Y-279520314D01*
X288203007Y-279520314D02*
X288203007Y-279091742D01*
X288203007Y-279091742D02*
X288274435Y-278948885D01*
X288274435Y-278948885D02*
X288345864Y-278877457D01*
X288345864Y-278877457D02*
X288488721Y-278806028D01*
X288488721Y-278806028D02*
X288703007Y-278806028D01*
X288703007Y-278806028D02*
X288845864Y-278877457D01*
X288845864Y-278877457D02*
X288917293Y-278948885D01*
X288917293Y-278948885D02*
X288988721Y-279091742D01*
X288988721Y-279091742D02*
X288988721Y-279520314D01*
X288988721Y-279520314D02*
X288917293Y-279663171D01*
X288917293Y-279663171D02*
X288845864Y-279734600D01*
X288845864Y-279734600D02*
X288703007Y-279806028D01*
X288703007Y-279806028D02*
X288488721Y-279806028D01*
X290274436Y-278806028D02*
X290274436Y-280020314D01*
X290274436Y-280020314D02*
X290203007Y-280163171D01*
X290203007Y-280163171D02*
X290131578Y-280234600D01*
X290131578Y-280234600D02*
X289988721Y-280306028D01*
X289988721Y-280306028D02*
X289774436Y-280306028D01*
X289774436Y-280306028D02*
X289631578Y-280234600D01*
X290274436Y-279734600D02*
X290131578Y-279806028D01*
X290131578Y-279806028D02*
X289845864Y-279806028D01*
X289845864Y-279806028D02*
X289703007Y-279734600D01*
X289703007Y-279734600D02*
X289631578Y-279663171D01*
X289631578Y-279663171D02*
X289560150Y-279520314D01*
X289560150Y-279520314D02*
X289560150Y-279091742D01*
X289560150Y-279091742D02*
X289631578Y-278948885D01*
X289631578Y-278948885D02*
X289703007Y-278877457D01*
X289703007Y-278877457D02*
X289845864Y-278806028D01*
X289845864Y-278806028D02*
X290131578Y-278806028D01*
X290131578Y-278806028D02*
X290274436Y-278877457D01*
X290845864Y-278806028D02*
X291203007Y-279806028D01*
X291560150Y-278806028D02*
X291203007Y-279806028D01*
X291203007Y-279806028D02*
X291060150Y-280163171D01*
X291060150Y-280163171D02*
X290988721Y-280234600D01*
X290988721Y-280234600D02*
X290845864Y-280306028D01*
D11*
X226721177Y-29739638D02*
X225578320Y-29739638D01*
X226149748Y-29739638D02*
X226149748Y-27739638D01*
X226149748Y-27739638D02*
X225959272Y-28025352D01*
X225959272Y-28025352D02*
X225768796Y-28215828D01*
X225768796Y-28215828D02*
X225578320Y-28311066D01*
X228435463Y-28406304D02*
X228435463Y-29739638D01*
X227959272Y-27644400D02*
X227483082Y-29072971D01*
X227483082Y-29072971D02*
X228721177Y-29072971D01*
X229483082Y-28977733D02*
X231006892Y-28977733D01*
X232244986Y-29739638D02*
X232054510Y-29644400D01*
X232054510Y-29644400D02*
X231959272Y-29453923D01*
X231959272Y-29453923D02*
X231959272Y-27739638D01*
X233864034Y-29739638D02*
X233864034Y-28692019D01*
X233864034Y-28692019D02*
X233768796Y-28501542D01*
X233768796Y-28501542D02*
X233578320Y-28406304D01*
X233578320Y-28406304D02*
X233197367Y-28406304D01*
X233197367Y-28406304D02*
X233006891Y-28501542D01*
X233864034Y-29644400D02*
X233673558Y-29739638D01*
X233673558Y-29739638D02*
X233197367Y-29739638D01*
X233197367Y-29739638D02*
X233006891Y-29644400D01*
X233006891Y-29644400D02*
X232911653Y-29453923D01*
X232911653Y-29453923D02*
X232911653Y-29263447D01*
X232911653Y-29263447D02*
X233006891Y-29072971D01*
X233006891Y-29072971D02*
X233197367Y-28977733D01*
X233197367Y-28977733D02*
X233673558Y-28977733D01*
X233673558Y-28977733D02*
X233864034Y-28882495D01*
X234625939Y-28406304D02*
X235102129Y-29739638D01*
X235578320Y-28406304D02*
X235102129Y-29739638D01*
X235102129Y-29739638D02*
X234911653Y-30215828D01*
X234911653Y-30215828D02*
X234816415Y-30311066D01*
X234816415Y-30311066D02*
X234625939Y-30406304D01*
X237102130Y-29644400D02*
X236911654Y-29739638D01*
X236911654Y-29739638D02*
X236530701Y-29739638D01*
X236530701Y-29739638D02*
X236340225Y-29644400D01*
X236340225Y-29644400D02*
X236244987Y-29453923D01*
X236244987Y-29453923D02*
X236244987Y-28692019D01*
X236244987Y-28692019D02*
X236340225Y-28501542D01*
X236340225Y-28501542D02*
X236530701Y-28406304D01*
X236530701Y-28406304D02*
X236911654Y-28406304D01*
X236911654Y-28406304D02*
X237102130Y-28501542D01*
X237102130Y-28501542D02*
X237197368Y-28692019D01*
X237197368Y-28692019D02*
X237197368Y-28882495D01*
X237197368Y-28882495D02*
X236244987Y-29072971D01*
X238054511Y-29739638D02*
X238054511Y-28406304D01*
X238054511Y-28787257D02*
X238149749Y-28596780D01*
X238149749Y-28596780D02*
X238244987Y-28501542D01*
X238244987Y-28501542D02*
X238435463Y-28406304D01*
X238435463Y-28406304D02*
X238625940Y-28406304D01*
X242244987Y-27644400D02*
X240530702Y-30215828D01*
X244435464Y-28692019D02*
X245102131Y-28692019D01*
X245387845Y-29739638D02*
X244435464Y-29739638D01*
X244435464Y-29739638D02*
X244435464Y-27739638D01*
X244435464Y-27739638D02*
X245387845Y-27739638D01*
X246244988Y-29739638D02*
X246244988Y-27739638D01*
X246244988Y-27739638D02*
X247387845Y-29739638D01*
X247387845Y-29739638D02*
X247387845Y-27739638D01*
X248340226Y-29739638D02*
X248340226Y-27739638D01*
X250340226Y-27834876D02*
X250149750Y-27739638D01*
X250149750Y-27739638D02*
X249864036Y-27739638D01*
X249864036Y-27739638D02*
X249578321Y-27834876D01*
X249578321Y-27834876D02*
X249387845Y-28025352D01*
X249387845Y-28025352D02*
X249292607Y-28215828D01*
X249292607Y-28215828D02*
X249197369Y-28596780D01*
X249197369Y-28596780D02*
X249197369Y-28882495D01*
X249197369Y-28882495D02*
X249292607Y-29263447D01*
X249292607Y-29263447D02*
X249387845Y-29453923D01*
X249387845Y-29453923D02*
X249578321Y-29644400D01*
X249578321Y-29644400D02*
X249864036Y-29739638D01*
X249864036Y-29739638D02*
X250054512Y-29739638D01*
X250054512Y-29739638D02*
X250340226Y-29644400D01*
X250340226Y-29644400D02*
X250435464Y-29549161D01*
X250435464Y-29549161D02*
X250435464Y-28882495D01*
X250435464Y-28882495D02*
X250054512Y-28882495D01*
X254244988Y-27644400D02*
X252530703Y-30215828D01*
X256435465Y-29739638D02*
X256435465Y-27739638D01*
X256435465Y-27739638D02*
X257102132Y-29168209D01*
X257102132Y-29168209D02*
X257768798Y-27739638D01*
X257768798Y-27739638D02*
X257768798Y-29739638D01*
X259483084Y-29644400D02*
X259292608Y-29739638D01*
X259292608Y-29739638D02*
X258911655Y-29739638D01*
X258911655Y-29739638D02*
X258721179Y-29644400D01*
X258721179Y-29644400D02*
X258625941Y-29453923D01*
X258625941Y-29453923D02*
X258625941Y-28692019D01*
X258625941Y-28692019D02*
X258721179Y-28501542D01*
X258721179Y-28501542D02*
X258911655Y-28406304D01*
X258911655Y-28406304D02*
X259292608Y-28406304D01*
X259292608Y-28406304D02*
X259483084Y-28501542D01*
X259483084Y-28501542D02*
X259578322Y-28692019D01*
X259578322Y-28692019D02*
X259578322Y-28882495D01*
X259578322Y-28882495D02*
X258625941Y-29072971D01*
X261292608Y-28406304D02*
X261292608Y-30025352D01*
X261292608Y-30025352D02*
X261197370Y-30215828D01*
X261197370Y-30215828D02*
X261102132Y-30311066D01*
X261102132Y-30311066D02*
X260911655Y-30406304D01*
X260911655Y-30406304D02*
X260625941Y-30406304D01*
X260625941Y-30406304D02*
X260435465Y-30311066D01*
X261292608Y-29644400D02*
X261102132Y-29739638D01*
X261102132Y-29739638D02*
X260721179Y-29739638D01*
X260721179Y-29739638D02*
X260530703Y-29644400D01*
X260530703Y-29644400D02*
X260435465Y-29549161D01*
X260435465Y-29549161D02*
X260340227Y-29358685D01*
X260340227Y-29358685D02*
X260340227Y-28787257D01*
X260340227Y-28787257D02*
X260435465Y-28596780D01*
X260435465Y-28596780D02*
X260530703Y-28501542D01*
X260530703Y-28501542D02*
X260721179Y-28406304D01*
X260721179Y-28406304D02*
X261102132Y-28406304D01*
X261102132Y-28406304D02*
X261292608Y-28501542D01*
X261959275Y-28406304D02*
X262721179Y-28406304D01*
X262244989Y-27739638D02*
X262244989Y-29453923D01*
X262244989Y-29453923D02*
X262340227Y-29644400D01*
X262340227Y-29644400D02*
X262530703Y-29739638D01*
X262530703Y-29739638D02*
X262721179Y-29739638D01*
X263387846Y-29739638D02*
X263387846Y-28406304D01*
X263387846Y-28787257D02*
X263483084Y-28596780D01*
X263483084Y-28596780D02*
X263578322Y-28501542D01*
X263578322Y-28501542D02*
X263768798Y-28406304D01*
X263768798Y-28406304D02*
X263959275Y-28406304D01*
X264911655Y-29739638D02*
X264721179Y-29644400D01*
X264721179Y-29644400D02*
X264625941Y-29549161D01*
X264625941Y-29549161D02*
X264530703Y-29358685D01*
X264530703Y-29358685D02*
X264530703Y-28787257D01*
X264530703Y-28787257D02*
X264625941Y-28596780D01*
X264625941Y-28596780D02*
X264721179Y-28501542D01*
X264721179Y-28501542D02*
X264911655Y-28406304D01*
X264911655Y-28406304D02*
X265197370Y-28406304D01*
X265197370Y-28406304D02*
X265387846Y-28501542D01*
X265387846Y-28501542D02*
X265483084Y-28596780D01*
X265483084Y-28596780D02*
X265578322Y-28787257D01*
X265578322Y-28787257D02*
X265578322Y-29358685D01*
X265578322Y-29358685D02*
X265483084Y-29549161D01*
X265483084Y-29549161D02*
X265387846Y-29644400D01*
X265387846Y-29644400D02*
X265197370Y-29739638D01*
X265197370Y-29739638D02*
X264911655Y-29739638D01*
X266435465Y-28406304D02*
X266435465Y-29739638D01*
X266435465Y-28596780D02*
X266530703Y-28501542D01*
X266530703Y-28501542D02*
X266721179Y-28406304D01*
X266721179Y-28406304D02*
X267006894Y-28406304D01*
X267006894Y-28406304D02*
X267197370Y-28501542D01*
X267197370Y-28501542D02*
X267292608Y-28692019D01*
X267292608Y-28692019D02*
X267292608Y-29739638D01*
X270625942Y-27739638D02*
X270244989Y-27739638D01*
X270244989Y-27739638D02*
X270054513Y-27834876D01*
X270054513Y-27834876D02*
X269959275Y-27930114D01*
X269959275Y-27930114D02*
X269768799Y-28215828D01*
X269768799Y-28215828D02*
X269673561Y-28596780D01*
X269673561Y-28596780D02*
X269673561Y-29358685D01*
X269673561Y-29358685D02*
X269768799Y-29549161D01*
X269768799Y-29549161D02*
X269864037Y-29644400D01*
X269864037Y-29644400D02*
X270054513Y-29739638D01*
X270054513Y-29739638D02*
X270435466Y-29739638D01*
X270435466Y-29739638D02*
X270625942Y-29644400D01*
X270625942Y-29644400D02*
X270721180Y-29549161D01*
X270721180Y-29549161D02*
X270816418Y-29358685D01*
X270816418Y-29358685D02*
X270816418Y-28882495D01*
X270816418Y-28882495D02*
X270721180Y-28692019D01*
X270721180Y-28692019D02*
X270625942Y-28596780D01*
X270625942Y-28596780D02*
X270435466Y-28501542D01*
X270435466Y-28501542D02*
X270054513Y-28501542D01*
X270054513Y-28501542D02*
X269864037Y-28596780D01*
X269864037Y-28596780D02*
X269768799Y-28692019D01*
X269768799Y-28692019D02*
X269673561Y-28882495D01*
X274625942Y-27644400D02*
X272911657Y-30215828D01*
X277673562Y-28406304D02*
X277673562Y-29739638D01*
X277197371Y-27644400D02*
X276721181Y-29072971D01*
X276721181Y-29072971D02*
X277959276Y-29072971D01*
X279673562Y-27739638D02*
X278721181Y-27739638D01*
X278721181Y-27739638D02*
X278625943Y-28692019D01*
X278625943Y-28692019D02*
X278721181Y-28596780D01*
X278721181Y-28596780D02*
X278911657Y-28501542D01*
X278911657Y-28501542D02*
X279387848Y-28501542D01*
X279387848Y-28501542D02*
X279578324Y-28596780D01*
X279578324Y-28596780D02*
X279673562Y-28692019D01*
X279673562Y-28692019D02*
X279768800Y-28882495D01*
X279768800Y-28882495D02*
X279768800Y-29358685D01*
X279768800Y-29358685D02*
X279673562Y-29549161D01*
X279673562Y-29549161D02*
X279578324Y-29644400D01*
X279578324Y-29644400D02*
X279387848Y-29739638D01*
X279387848Y-29739638D02*
X278911657Y-29739638D01*
X278911657Y-29739638D02*
X278721181Y-29644400D01*
X278721181Y-29644400D02*
X278625943Y-29549161D01*
X281006895Y-27739638D02*
X281197372Y-27739638D01*
X281197372Y-27739638D02*
X281387848Y-27834876D01*
X281387848Y-27834876D02*
X281483086Y-27930114D01*
X281483086Y-27930114D02*
X281578324Y-28120590D01*
X281578324Y-28120590D02*
X281673562Y-28501542D01*
X281673562Y-28501542D02*
X281673562Y-28977733D01*
X281673562Y-28977733D02*
X281578324Y-29358685D01*
X281578324Y-29358685D02*
X281483086Y-29549161D01*
X281483086Y-29549161D02*
X281387848Y-29644400D01*
X281387848Y-29644400D02*
X281197372Y-29739638D01*
X281197372Y-29739638D02*
X281006895Y-29739638D01*
X281006895Y-29739638D02*
X280816419Y-29644400D01*
X280816419Y-29644400D02*
X280721181Y-29549161D01*
X280721181Y-29549161D02*
X280625943Y-29358685D01*
X280625943Y-29358685D02*
X280530705Y-28977733D01*
X280530705Y-28977733D02*
X280530705Y-28501542D01*
X280530705Y-28501542D02*
X280625943Y-28120590D01*
X280625943Y-28120590D02*
X280721181Y-27930114D01*
X280721181Y-27930114D02*
X280816419Y-27834876D01*
X280816419Y-27834876D02*
X281006895Y-27739638D01*
X282340229Y-29739638D02*
X283387848Y-28406304D01*
X282340229Y-28406304D02*
X283387848Y-29739638D01*
X283959277Y-27739638D02*
X285197372Y-27739638D01*
X285197372Y-27739638D02*
X284530705Y-28501542D01*
X284530705Y-28501542D02*
X284816420Y-28501542D01*
X284816420Y-28501542D02*
X285006896Y-28596780D01*
X285006896Y-28596780D02*
X285102134Y-28692019D01*
X285102134Y-28692019D02*
X285197372Y-28882495D01*
X285197372Y-28882495D02*
X285197372Y-29358685D01*
X285197372Y-29358685D02*
X285102134Y-29549161D01*
X285102134Y-29549161D02*
X285006896Y-29644400D01*
X285006896Y-29644400D02*
X284816420Y-29739638D01*
X284816420Y-29739638D02*
X284244991Y-29739638D01*
X284244991Y-29739638D02*
X284054515Y-29644400D01*
X284054515Y-29644400D02*
X283959277Y-29549161D01*
X286435467Y-27739638D02*
X286625944Y-27739638D01*
X286625944Y-27739638D02*
X286816420Y-27834876D01*
X286816420Y-27834876D02*
X286911658Y-27930114D01*
X286911658Y-27930114D02*
X287006896Y-28120590D01*
X287006896Y-28120590D02*
X287102134Y-28501542D01*
X287102134Y-28501542D02*
X287102134Y-28977733D01*
X287102134Y-28977733D02*
X287006896Y-29358685D01*
X287006896Y-29358685D02*
X286911658Y-29549161D01*
X286911658Y-29549161D02*
X286816420Y-29644400D01*
X286816420Y-29644400D02*
X286625944Y-29739638D01*
X286625944Y-29739638D02*
X286435467Y-29739638D01*
X286435467Y-29739638D02*
X286244991Y-29644400D01*
X286244991Y-29644400D02*
X286149753Y-29549161D01*
X286149753Y-29549161D02*
X286054515Y-29358685D01*
X286054515Y-29358685D02*
X285959277Y-28977733D01*
X285959277Y-28977733D02*
X285959277Y-28501542D01*
X285959277Y-28501542D02*
X286054515Y-28120590D01*
X286054515Y-28120590D02*
X286149753Y-27930114D01*
X286149753Y-27930114D02*
X286244991Y-27834876D01*
X286244991Y-27834876D02*
X286435467Y-27739638D01*
X288340229Y-27739638D02*
X288530706Y-27739638D01*
X288530706Y-27739638D02*
X288721182Y-27834876D01*
X288721182Y-27834876D02*
X288816420Y-27930114D01*
X288816420Y-27930114D02*
X288911658Y-28120590D01*
X288911658Y-28120590D02*
X289006896Y-28501542D01*
X289006896Y-28501542D02*
X289006896Y-28977733D01*
X289006896Y-28977733D02*
X288911658Y-29358685D01*
X288911658Y-29358685D02*
X288816420Y-29549161D01*
X288816420Y-29549161D02*
X288721182Y-29644400D01*
X288721182Y-29644400D02*
X288530706Y-29739638D01*
X288530706Y-29739638D02*
X288340229Y-29739638D01*
X288340229Y-29739638D02*
X288149753Y-29644400D01*
X288149753Y-29644400D02*
X288054515Y-29549161D01*
X288054515Y-29549161D02*
X287959277Y-29358685D01*
X287959277Y-29358685D02*
X287864039Y-28977733D01*
X287864039Y-28977733D02*
X287864039Y-28501542D01*
X287864039Y-28501542D02*
X287959277Y-28120590D01*
X287959277Y-28120590D02*
X288054515Y-27930114D01*
X288054515Y-27930114D02*
X288149753Y-27834876D01*
X288149753Y-27834876D02*
X288340229Y-27739638D01*
X289864039Y-29739638D02*
X289864039Y-28406304D01*
X289864039Y-28596780D02*
X289959277Y-28501542D01*
X289959277Y-28501542D02*
X290149753Y-28406304D01*
X290149753Y-28406304D02*
X290435468Y-28406304D01*
X290435468Y-28406304D02*
X290625944Y-28501542D01*
X290625944Y-28501542D02*
X290721182Y-28692019D01*
X290721182Y-28692019D02*
X290721182Y-29739638D01*
X290721182Y-28692019D02*
X290816420Y-28501542D01*
X290816420Y-28501542D02*
X291006896Y-28406304D01*
X291006896Y-28406304D02*
X291292610Y-28406304D01*
X291292610Y-28406304D02*
X291483087Y-28501542D01*
X291483087Y-28501542D02*
X291578325Y-28692019D01*
X291578325Y-28692019D02*
X291578325Y-29739638D01*
X292530706Y-29739638D02*
X292530706Y-28406304D01*
X292530706Y-28596780D02*
X292625944Y-28501542D01*
X292625944Y-28501542D02*
X292816420Y-28406304D01*
X292816420Y-28406304D02*
X293102135Y-28406304D01*
X293102135Y-28406304D02*
X293292611Y-28501542D01*
X293292611Y-28501542D02*
X293387849Y-28692019D01*
X293387849Y-28692019D02*
X293387849Y-29739638D01*
X293387849Y-28692019D02*
X293483087Y-28501542D01*
X293483087Y-28501542D02*
X293673563Y-28406304D01*
X293673563Y-28406304D02*
X293959277Y-28406304D01*
X293959277Y-28406304D02*
X294149754Y-28501542D01*
X294149754Y-28501542D02*
X294244992Y-28692019D01*
X294244992Y-28692019D02*
X294244992Y-29739638D01*
D12*
X226347116Y-19479276D02*
X226347116Y-15479276D01*
X226347116Y-15479276D02*
X227870926Y-15479276D01*
X227870926Y-15479276D02*
X228251878Y-15669752D01*
X228251878Y-15669752D02*
X228442355Y-15860228D01*
X228442355Y-15860228D02*
X228632831Y-16241180D01*
X228632831Y-16241180D02*
X228632831Y-16812609D01*
X228632831Y-16812609D02*
X228442355Y-17193561D01*
X228442355Y-17193561D02*
X228251878Y-17384038D01*
X228251878Y-17384038D02*
X227870926Y-17574514D01*
X227870926Y-17574514D02*
X226347116Y-17574514D01*
X230156640Y-18336419D02*
X232061402Y-18336419D01*
X229775688Y-19479276D02*
X231109021Y-15479276D01*
X231109021Y-15479276D02*
X232442355Y-19479276D01*
X235680449Y-19479276D02*
X233775687Y-19479276D01*
X233775687Y-19479276D02*
X233775687Y-15479276D01*
X240061401Y-19479276D02*
X240061401Y-15479276D01*
X240061401Y-15479276D02*
X241585211Y-15479276D01*
X241585211Y-15479276D02*
X241966163Y-15669752D01*
X241966163Y-15669752D02*
X242156640Y-15860228D01*
X242156640Y-15860228D02*
X242347116Y-16241180D01*
X242347116Y-16241180D02*
X242347116Y-16812609D01*
X242347116Y-16812609D02*
X242156640Y-17193561D01*
X242156640Y-17193561D02*
X241966163Y-17384038D01*
X241966163Y-17384038D02*
X241585211Y-17574514D01*
X241585211Y-17574514D02*
X240061401Y-17574514D01*
X244632830Y-19479276D02*
X244251878Y-19288800D01*
X244251878Y-19288800D02*
X244061401Y-19098323D01*
X244061401Y-19098323D02*
X243870925Y-18717371D01*
X243870925Y-18717371D02*
X243870925Y-17574514D01*
X243870925Y-17574514D02*
X244061401Y-17193561D01*
X244061401Y-17193561D02*
X244251878Y-17003085D01*
X244251878Y-17003085D02*
X244632830Y-16812609D01*
X244632830Y-16812609D02*
X245204259Y-16812609D01*
X245204259Y-16812609D02*
X245585211Y-17003085D01*
X245585211Y-17003085D02*
X245775687Y-17193561D01*
X245775687Y-17193561D02*
X245966163Y-17574514D01*
X245966163Y-17574514D02*
X245966163Y-18717371D01*
X245966163Y-18717371D02*
X245775687Y-19098323D01*
X245775687Y-19098323D02*
X245585211Y-19288800D01*
X245585211Y-19288800D02*
X245204259Y-19479276D01*
X245204259Y-19479276D02*
X244632830Y-19479276D01*
X249394735Y-19479276D02*
X249394735Y-15479276D01*
X249394735Y-19288800D02*
X249013783Y-19479276D01*
X249013783Y-19479276D02*
X248251878Y-19479276D01*
X248251878Y-19479276D02*
X247870926Y-19288800D01*
X247870926Y-19288800D02*
X247680449Y-19098323D01*
X247680449Y-19098323D02*
X247489973Y-18717371D01*
X247489973Y-18717371D02*
X247489973Y-17574514D01*
X247489973Y-17574514D02*
X247680449Y-17193561D01*
X247680449Y-17193561D02*
X247870926Y-17003085D01*
X247870926Y-17003085D02*
X248251878Y-16812609D01*
X248251878Y-16812609D02*
X249013783Y-16812609D01*
X249013783Y-16812609D02*
X249394735Y-17003085D01*
X256632831Y-19098323D02*
X256442355Y-19288800D01*
X256442355Y-19288800D02*
X255870926Y-19479276D01*
X255870926Y-19479276D02*
X255489974Y-19479276D01*
X255489974Y-19479276D02*
X254918545Y-19288800D01*
X254918545Y-19288800D02*
X254537593Y-18907847D01*
X254537593Y-18907847D02*
X254347116Y-18526895D01*
X254347116Y-18526895D02*
X254156640Y-17764990D01*
X254156640Y-17764990D02*
X254156640Y-17193561D01*
X254156640Y-17193561D02*
X254347116Y-16431657D01*
X254347116Y-16431657D02*
X254537593Y-16050704D01*
X254537593Y-16050704D02*
X254918545Y-15669752D01*
X254918545Y-15669752D02*
X255489974Y-15479276D01*
X255489974Y-15479276D02*
X255870926Y-15479276D01*
X255870926Y-15479276D02*
X256442355Y-15669752D01*
X256442355Y-15669752D02*
X256632831Y-15860228D01*
X258918545Y-19479276D02*
X258537593Y-19288800D01*
X258537593Y-19288800D02*
X258347116Y-19098323D01*
X258347116Y-19098323D02*
X258156640Y-18717371D01*
X258156640Y-18717371D02*
X258156640Y-17574514D01*
X258156640Y-17574514D02*
X258347116Y-17193561D01*
X258347116Y-17193561D02*
X258537593Y-17003085D01*
X258537593Y-17003085D02*
X258918545Y-16812609D01*
X258918545Y-16812609D02*
X259489974Y-16812609D01*
X259489974Y-16812609D02*
X259870926Y-17003085D01*
X259870926Y-17003085D02*
X260061402Y-17193561D01*
X260061402Y-17193561D02*
X260251878Y-17574514D01*
X260251878Y-17574514D02*
X260251878Y-18717371D01*
X260251878Y-18717371D02*
X260061402Y-19098323D01*
X260061402Y-19098323D02*
X259870926Y-19288800D01*
X259870926Y-19288800D02*
X259489974Y-19479276D01*
X259489974Y-19479276D02*
X258918545Y-19479276D01*
X261966164Y-19479276D02*
X261966164Y-16812609D01*
X261966164Y-17193561D02*
X262156641Y-17003085D01*
X262156641Y-17003085D02*
X262537593Y-16812609D01*
X262537593Y-16812609D02*
X263109022Y-16812609D01*
X263109022Y-16812609D02*
X263489974Y-17003085D01*
X263489974Y-17003085D02*
X263680450Y-17384038D01*
X263680450Y-17384038D02*
X263680450Y-19479276D01*
X263680450Y-17384038D02*
X263870926Y-17003085D01*
X263870926Y-17003085D02*
X264251879Y-16812609D01*
X264251879Y-16812609D02*
X264823307Y-16812609D01*
X264823307Y-16812609D02*
X265204260Y-17003085D01*
X265204260Y-17003085D02*
X265394736Y-17384038D01*
X265394736Y-17384038D02*
X265394736Y-19479276D01*
X267299497Y-16812609D02*
X267299497Y-20812609D01*
X267299497Y-17003085D02*
X267680450Y-16812609D01*
X267680450Y-16812609D02*
X268442355Y-16812609D01*
X268442355Y-16812609D02*
X268823307Y-17003085D01*
X268823307Y-17003085D02*
X269013783Y-17193561D01*
X269013783Y-17193561D02*
X269204259Y-17574514D01*
X269204259Y-17574514D02*
X269204259Y-18717371D01*
X269204259Y-18717371D02*
X269013783Y-19098323D01*
X269013783Y-19098323D02*
X268823307Y-19288800D01*
X268823307Y-19288800D02*
X268442355Y-19479276D01*
X268442355Y-19479276D02*
X267680450Y-19479276D01*
X267680450Y-19479276D02*
X267299497Y-19288800D01*
X272632831Y-16812609D02*
X272632831Y-19479276D01*
X270918545Y-16812609D02*
X270918545Y-18907847D01*
X270918545Y-18907847D02*
X271109022Y-19288800D01*
X271109022Y-19288800D02*
X271489974Y-19479276D01*
X271489974Y-19479276D02*
X272061403Y-19479276D01*
X272061403Y-19479276D02*
X272442355Y-19288800D01*
X272442355Y-19288800D02*
X272632831Y-19098323D01*
X273966165Y-16812609D02*
X275489974Y-16812609D01*
X274537593Y-15479276D02*
X274537593Y-18907847D01*
X274537593Y-18907847D02*
X274728070Y-19288800D01*
X274728070Y-19288800D02*
X275109022Y-19479276D01*
X275109022Y-19479276D02*
X275489974Y-19479276D01*
X278347117Y-19288800D02*
X277966165Y-19479276D01*
X277966165Y-19479276D02*
X277204260Y-19479276D01*
X277204260Y-19479276D02*
X276823307Y-19288800D01*
X276823307Y-19288800D02*
X276632831Y-18907847D01*
X276632831Y-18907847D02*
X276632831Y-17384038D01*
X276632831Y-17384038D02*
X276823307Y-17003085D01*
X276823307Y-17003085D02*
X277204260Y-16812609D01*
X277204260Y-16812609D02*
X277966165Y-16812609D01*
X277966165Y-16812609D02*
X278347117Y-17003085D01*
X278347117Y-17003085D02*
X278537593Y-17384038D01*
X278537593Y-17384038D02*
X278537593Y-17764990D01*
X278537593Y-17764990D02*
X276632831Y-18145942D01*
X284632831Y-17384038D02*
X285204259Y-17574514D01*
X285204259Y-17574514D02*
X285394736Y-17764990D01*
X285394736Y-17764990D02*
X285585212Y-18145942D01*
X285585212Y-18145942D02*
X285585212Y-18717371D01*
X285585212Y-18717371D02*
X285394736Y-19098323D01*
X285394736Y-19098323D02*
X285204259Y-19288800D01*
X285204259Y-19288800D02*
X284823307Y-19479276D01*
X284823307Y-19479276D02*
X283299497Y-19479276D01*
X283299497Y-19479276D02*
X283299497Y-15479276D01*
X283299497Y-15479276D02*
X284632831Y-15479276D01*
X284632831Y-15479276D02*
X285013783Y-15669752D01*
X285013783Y-15669752D02*
X285204259Y-15860228D01*
X285204259Y-15860228D02*
X285394736Y-16241180D01*
X285394736Y-16241180D02*
X285394736Y-16622133D01*
X285394736Y-16622133D02*
X285204259Y-17003085D01*
X285204259Y-17003085D02*
X285013783Y-17193561D01*
X285013783Y-17193561D02*
X284632831Y-17384038D01*
X284632831Y-17384038D02*
X283299497Y-17384038D01*
X289013783Y-19479276D02*
X289013783Y-17384038D01*
X289013783Y-17384038D02*
X288823307Y-17003085D01*
X288823307Y-17003085D02*
X288442355Y-16812609D01*
X288442355Y-16812609D02*
X287680450Y-16812609D01*
X287680450Y-16812609D02*
X287299497Y-17003085D01*
X289013783Y-19288800D02*
X288632831Y-19479276D01*
X288632831Y-19479276D02*
X287680450Y-19479276D01*
X287680450Y-19479276D02*
X287299497Y-19288800D01*
X287299497Y-19288800D02*
X287109021Y-18907847D01*
X287109021Y-18907847D02*
X287109021Y-18526895D01*
X287109021Y-18526895D02*
X287299497Y-18145942D01*
X287299497Y-18145942D02*
X287680450Y-17955466D01*
X287680450Y-17955466D02*
X288632831Y-17955466D01*
X288632831Y-17955466D02*
X289013783Y-17764990D01*
X292632831Y-19288800D02*
X292251879Y-19479276D01*
X292251879Y-19479276D02*
X291489974Y-19479276D01*
X291489974Y-19479276D02*
X291109022Y-19288800D01*
X291109022Y-19288800D02*
X290918545Y-19098323D01*
X290918545Y-19098323D02*
X290728069Y-18717371D01*
X290728069Y-18717371D02*
X290728069Y-17574514D01*
X290728069Y-17574514D02*
X290918545Y-17193561D01*
X290918545Y-17193561D02*
X291109022Y-17003085D01*
X291109022Y-17003085D02*
X291489974Y-16812609D01*
X291489974Y-16812609D02*
X292251879Y-16812609D01*
X292251879Y-16812609D02*
X292632831Y-17003085D01*
X294347116Y-19479276D02*
X294347116Y-15479276D01*
X294728069Y-17955466D02*
X295870926Y-19479276D01*
X295870926Y-16812609D02*
X294347116Y-18336419D01*
X297585211Y-16812609D02*
X297585211Y-20812609D01*
X297585211Y-17003085D02*
X297966164Y-16812609D01*
X297966164Y-16812609D02*
X298728069Y-16812609D01*
X298728069Y-16812609D02*
X299109021Y-17003085D01*
X299109021Y-17003085D02*
X299299497Y-17193561D01*
X299299497Y-17193561D02*
X299489973Y-17574514D01*
X299489973Y-17574514D02*
X299489973Y-18717371D01*
X299489973Y-18717371D02*
X299299497Y-19098323D01*
X299299497Y-19098323D02*
X299109021Y-19288800D01*
X299109021Y-19288800D02*
X298728069Y-19479276D01*
X298728069Y-19479276D02*
X297966164Y-19479276D01*
X297966164Y-19479276D02*
X297585211Y-19288800D01*
X301775688Y-19479276D02*
X301394736Y-19288800D01*
X301394736Y-19288800D02*
X301204259Y-18907847D01*
X301204259Y-18907847D02*
X301204259Y-15479276D01*
X305013783Y-19479276D02*
X305013783Y-17384038D01*
X305013783Y-17384038D02*
X304823307Y-17003085D01*
X304823307Y-17003085D02*
X304442355Y-16812609D01*
X304442355Y-16812609D02*
X303680450Y-16812609D01*
X303680450Y-16812609D02*
X303299497Y-17003085D01*
X305013783Y-19288800D02*
X304632831Y-19479276D01*
X304632831Y-19479276D02*
X303680450Y-19479276D01*
X303680450Y-19479276D02*
X303299497Y-19288800D01*
X303299497Y-19288800D02*
X303109021Y-18907847D01*
X303109021Y-18907847D02*
X303109021Y-18526895D01*
X303109021Y-18526895D02*
X303299497Y-18145942D01*
X303299497Y-18145942D02*
X303680450Y-17955466D01*
X303680450Y-17955466D02*
X304632831Y-17955466D01*
X304632831Y-17955466D02*
X305013783Y-17764990D01*
X306918545Y-16812609D02*
X306918545Y-19479276D01*
X306918545Y-17193561D02*
X307109022Y-17003085D01*
X307109022Y-17003085D02*
X307489974Y-16812609D01*
X307489974Y-16812609D02*
X308061403Y-16812609D01*
X308061403Y-16812609D02*
X308442355Y-17003085D01*
X308442355Y-17003085D02*
X308632831Y-17384038D01*
X308632831Y-17384038D02*
X308632831Y-19479276D01*
X312061403Y-19288800D02*
X311680451Y-19479276D01*
X311680451Y-19479276D02*
X310918546Y-19479276D01*
X310918546Y-19479276D02*
X310537593Y-19288800D01*
X310537593Y-19288800D02*
X310347117Y-18907847D01*
X310347117Y-18907847D02*
X310347117Y-17384038D01*
X310347117Y-17384038D02*
X310537593Y-17003085D01*
X310537593Y-17003085D02*
X310918546Y-16812609D01*
X310918546Y-16812609D02*
X311680451Y-16812609D01*
X311680451Y-16812609D02*
X312061403Y-17003085D01*
X312061403Y-17003085D02*
X312251879Y-17384038D01*
X312251879Y-17384038D02*
X312251879Y-17764990D01*
X312251879Y-17764990D02*
X310347117Y-18145942D01*
X317013783Y-17955466D02*
X320061403Y-17955466D01*
X327299498Y-19479276D02*
X325966164Y-17574514D01*
X325013783Y-19479276D02*
X325013783Y-15479276D01*
X325013783Y-15479276D02*
X326537593Y-15479276D01*
X326537593Y-15479276D02*
X326918545Y-15669752D01*
X326918545Y-15669752D02*
X327109022Y-15860228D01*
X327109022Y-15860228D02*
X327299498Y-16241180D01*
X327299498Y-16241180D02*
X327299498Y-16812609D01*
X327299498Y-16812609D02*
X327109022Y-17193561D01*
X327109022Y-17193561D02*
X326918545Y-17384038D01*
X326918545Y-17384038D02*
X326537593Y-17574514D01*
X326537593Y-17574514D02*
X325013783Y-17574514D01*
X330537593Y-19288800D02*
X330156641Y-19479276D01*
X330156641Y-19479276D02*
X329394736Y-19479276D01*
X329394736Y-19479276D02*
X329013783Y-19288800D01*
X329013783Y-19288800D02*
X328823307Y-18907847D01*
X328823307Y-18907847D02*
X328823307Y-17384038D01*
X328823307Y-17384038D02*
X329013783Y-17003085D01*
X329013783Y-17003085D02*
X329394736Y-16812609D01*
X329394736Y-16812609D02*
X330156641Y-16812609D01*
X330156641Y-16812609D02*
X330537593Y-17003085D01*
X330537593Y-17003085D02*
X330728069Y-17384038D01*
X330728069Y-17384038D02*
X330728069Y-17764990D01*
X330728069Y-17764990D02*
X328823307Y-18145942D01*
X332061402Y-16812609D02*
X333013783Y-19479276D01*
X333013783Y-19479276D02*
X333966164Y-16812609D01*
X338347116Y-18336419D02*
X340251878Y-18336419D01*
X337966164Y-19479276D02*
X339299497Y-15479276D01*
X339299497Y-15479276D02*
X340632831Y-19479276D01*
X342728068Y-15479276D02*
X343109021Y-15479276D01*
X343109021Y-15479276D02*
X343489973Y-15669752D01*
X343489973Y-15669752D02*
X343680449Y-15860228D01*
X343680449Y-15860228D02*
X343870925Y-16241180D01*
X343870925Y-16241180D02*
X344061402Y-17003085D01*
X344061402Y-17003085D02*
X344061402Y-17955466D01*
X344061402Y-17955466D02*
X343870925Y-18717371D01*
X343870925Y-18717371D02*
X343680449Y-19098323D01*
X343680449Y-19098323D02*
X343489973Y-19288800D01*
X343489973Y-19288800D02*
X343109021Y-19479276D01*
X343109021Y-19479276D02*
X342728068Y-19479276D01*
X342728068Y-19479276D02*
X342347116Y-19288800D01*
X342347116Y-19288800D02*
X342156640Y-19098323D01*
X342156640Y-19098323D02*
X341966163Y-18717371D01*
X341966163Y-18717371D02*
X341775687Y-17955466D01*
X341775687Y-17955466D02*
X341775687Y-17003085D01*
X341775687Y-17003085D02*
X341966163Y-16241180D01*
X341966163Y-16241180D02*
X342156640Y-15860228D01*
X342156640Y-15860228D02*
X342347116Y-15669752D01*
X342347116Y-15669752D02*
X342728068Y-15479276D01*
X348823306Y-17955466D02*
X351870926Y-17955466D01*
X356823306Y-19479276D02*
X356823306Y-15479276D01*
X356823306Y-15479276D02*
X358347116Y-15479276D01*
X358347116Y-15479276D02*
X358728068Y-15669752D01*
X358728068Y-15669752D02*
X358918545Y-15860228D01*
X358918545Y-15860228D02*
X359109021Y-16241180D01*
X359109021Y-16241180D02*
X359109021Y-16812609D01*
X359109021Y-16812609D02*
X358918545Y-17193561D01*
X358918545Y-17193561D02*
X358728068Y-17384038D01*
X358728068Y-17384038D02*
X358347116Y-17574514D01*
X358347116Y-17574514D02*
X356823306Y-17574514D01*
X362728068Y-19479276D02*
X360823306Y-19479276D01*
X360823306Y-19479276D02*
X360823306Y-15479276D01*
X363870925Y-18336419D02*
X365775687Y-18336419D01*
X363489973Y-19479276D02*
X364823306Y-15479276D01*
X364823306Y-15479276D02*
X366156640Y-19479276D01*
X369775687Y-19098323D02*
X369585211Y-19288800D01*
X369585211Y-19288800D02*
X369013782Y-19479276D01*
X369013782Y-19479276D02*
X368632830Y-19479276D01*
X368632830Y-19479276D02*
X368061401Y-19288800D01*
X368061401Y-19288800D02*
X367680449Y-18907847D01*
X367680449Y-18907847D02*
X367489972Y-18526895D01*
X367489972Y-18526895D02*
X367299496Y-17764990D01*
X367299496Y-17764990D02*
X367299496Y-17193561D01*
X367299496Y-17193561D02*
X367489972Y-16431657D01*
X367489972Y-16431657D02*
X367680449Y-16050704D01*
X367680449Y-16050704D02*
X368061401Y-15669752D01*
X368061401Y-15669752D02*
X368632830Y-15479276D01*
X368632830Y-15479276D02*
X369013782Y-15479276D01*
X369013782Y-15479276D02*
X369585211Y-15669752D01*
X369585211Y-15669752D02*
X369775687Y-15860228D01*
X371489972Y-17384038D02*
X372823306Y-17384038D01*
X373394734Y-19479276D02*
X371489972Y-19479276D01*
X371489972Y-19479276D02*
X371489972Y-15479276D01*
X371489972Y-15479276D02*
X373394734Y-15479276D01*
X375109020Y-19479276D02*
X375109020Y-15479276D01*
X375109020Y-17384038D02*
X377394735Y-17384038D01*
X377394735Y-19479276D02*
X377394735Y-15479276D01*
X380061401Y-15479276D02*
X380823306Y-15479276D01*
X380823306Y-15479276D02*
X381204258Y-15669752D01*
X381204258Y-15669752D02*
X381585211Y-16050704D01*
X381585211Y-16050704D02*
X381775687Y-16812609D01*
X381775687Y-16812609D02*
X381775687Y-18145942D01*
X381775687Y-18145942D02*
X381585211Y-18907847D01*
X381585211Y-18907847D02*
X381204258Y-19288800D01*
X381204258Y-19288800D02*
X380823306Y-19479276D01*
X380823306Y-19479276D02*
X380061401Y-19479276D01*
X380061401Y-19479276D02*
X379680449Y-19288800D01*
X379680449Y-19288800D02*
X379299496Y-18907847D01*
X379299496Y-18907847D02*
X379109020Y-18145942D01*
X379109020Y-18145942D02*
X379109020Y-16812609D01*
X379109020Y-16812609D02*
X379299496Y-16050704D01*
X379299496Y-16050704D02*
X379680449Y-15669752D01*
X379680449Y-15669752D02*
X380061401Y-15479276D01*
X385394734Y-19479276D02*
X383489972Y-19479276D01*
X383489972Y-19479276D02*
X383489972Y-15479276D01*
X386728067Y-19479276D02*
X386728067Y-15479276D01*
X386728067Y-15479276D02*
X387680448Y-15479276D01*
X387680448Y-15479276D02*
X388251877Y-15669752D01*
X388251877Y-15669752D02*
X388632829Y-16050704D01*
X388632829Y-16050704D02*
X388823306Y-16431657D01*
X388823306Y-16431657D02*
X389013782Y-17193561D01*
X389013782Y-17193561D02*
X389013782Y-17764990D01*
X389013782Y-17764990D02*
X388823306Y-18526895D01*
X388823306Y-18526895D02*
X388632829Y-18907847D01*
X388632829Y-18907847D02*
X388251877Y-19288800D01*
X388251877Y-19288800D02*
X387680448Y-19479276D01*
X387680448Y-19479276D02*
X386728067Y-19479276D01*
X390728067Y-17384038D02*
X392061401Y-17384038D01*
X392632829Y-19479276D02*
X390728067Y-19479276D01*
X390728067Y-19479276D02*
X390728067Y-15479276D01*
X390728067Y-15479276D02*
X392632829Y-15479276D01*
X396632830Y-19479276D02*
X395299496Y-17574514D01*
X394347115Y-19479276D02*
X394347115Y-15479276D01*
X394347115Y-15479276D02*
X395870925Y-15479276D01*
X395870925Y-15479276D02*
X396251877Y-15669752D01*
X396251877Y-15669752D02*
X396442354Y-15860228D01*
X396442354Y-15860228D02*
X396632830Y-16241180D01*
X396632830Y-16241180D02*
X396632830Y-16812609D01*
X396632830Y-16812609D02*
X396442354Y-17193561D01*
X396442354Y-17193561D02*
X396251877Y-17384038D01*
X396251877Y-17384038D02*
X395870925Y-17574514D01*
X395870925Y-17574514D02*
X394347115Y-17574514D01*
D13*
X438336904Y-10579271D02*
X438336904Y-9309271D01*
X438336904Y-9309271D02*
X438760238Y-10216414D01*
X438760238Y-10216414D02*
X439183571Y-9309271D01*
X439183571Y-9309271D02*
X439183571Y-10579271D01*
X439788333Y-10579271D02*
X439788333Y-9309271D01*
X440514048Y-10579271D02*
X439969762Y-9853556D01*
X440514048Y-9309271D02*
X439788333Y-10034985D01*
X440997857Y-9430223D02*
X441058333Y-9369747D01*
X441058333Y-9369747D02*
X441179286Y-9309271D01*
X441179286Y-9309271D02*
X441481667Y-9309271D01*
X441481667Y-9309271D02*
X441602619Y-9369747D01*
X441602619Y-9369747D02*
X441663095Y-9430223D01*
X441663095Y-9430223D02*
X441723572Y-9551175D01*
X441723572Y-9551175D02*
X441723572Y-9672128D01*
X441723572Y-9672128D02*
X441663095Y-9853556D01*
X441663095Y-9853556D02*
X440937381Y-10579271D01*
X440937381Y-10579271D02*
X441723572Y-10579271D01*
D14*
X389238095Y-142604819D02*
X389238095Y-143414342D01*
X389238095Y-143414342D02*
X389285714Y-143509580D01*
X389285714Y-143509580D02*
X389333333Y-143557200D01*
X389333333Y-143557200D02*
X389428571Y-143604819D01*
X389428571Y-143604819D02*
X389619047Y-143604819D01*
X389619047Y-143604819D02*
X389714285Y-143557200D01*
X389714285Y-143557200D02*
X389761904Y-143509580D01*
X389761904Y-143509580D02*
X389809523Y-143414342D01*
X389809523Y-143414342D02*
X389809523Y-142604819D01*
X390761904Y-142604819D02*
X390285714Y-142604819D01*
X390285714Y-142604819D02*
X390238095Y-143081009D01*
X390238095Y-143081009D02*
X390285714Y-143033390D01*
X390285714Y-143033390D02*
X390380952Y-142985771D01*
X390380952Y-142985771D02*
X390619047Y-142985771D01*
X390619047Y-142985771D02*
X390714285Y-143033390D01*
X390714285Y-143033390D02*
X390761904Y-143081009D01*
X390761904Y-143081009D02*
X390809523Y-143176247D01*
X390809523Y-143176247D02*
X390809523Y-143414342D01*
X390809523Y-143414342D02*
X390761904Y-143509580D01*
X390761904Y-143509580D02*
X390714285Y-143557200D01*
X390714285Y-143557200D02*
X390619047Y-143604819D01*
X390619047Y-143604819D02*
X390380952Y-143604819D01*
X390380952Y-143604819D02*
X390285714Y-143557200D01*
X390285714Y-143557200D02*
X390238095Y-143509580D01*
D13*
X8336904Y-10579271D02*
X8336904Y-9309271D01*
X8336904Y-9309271D02*
X8760238Y-10216414D01*
X8760238Y-10216414D02*
X9183571Y-9309271D01*
X9183571Y-9309271D02*
X9183571Y-10579271D01*
X9788333Y-10579271D02*
X9788333Y-9309271D01*
X10514048Y-10579271D02*
X9969762Y-9853556D01*
X10514048Y-9309271D02*
X9788333Y-10034985D01*
X11723572Y-10579271D02*
X10997857Y-10579271D01*
X11360714Y-10579271D02*
X11360714Y-9309271D01*
X11360714Y-9309271D02*
X11239762Y-9490699D01*
X11239762Y-9490699D02*
X11118810Y-9611652D01*
X11118810Y-9611652D02*
X10997857Y-9672128D01*
D14*
X74833333Y-218929580D02*
X74785714Y-218977200D01*
X74785714Y-218977200D02*
X74642857Y-219024819D01*
X74642857Y-219024819D02*
X74547619Y-219024819D01*
X74547619Y-219024819D02*
X74404762Y-218977200D01*
X74404762Y-218977200D02*
X74309524Y-218881961D01*
X74309524Y-218881961D02*
X74261905Y-218786723D01*
X74261905Y-218786723D02*
X74214286Y-218596247D01*
X74214286Y-218596247D02*
X74214286Y-218453390D01*
X74214286Y-218453390D02*
X74261905Y-218262914D01*
X74261905Y-218262914D02*
X74309524Y-218167676D01*
X74309524Y-218167676D02*
X74404762Y-218072438D01*
X74404762Y-218072438D02*
X74547619Y-218024819D01*
X74547619Y-218024819D02*
X74642857Y-218024819D01*
X74642857Y-218024819D02*
X74785714Y-218072438D01*
X74785714Y-218072438D02*
X74833333Y-218120057D01*
X75690476Y-218358152D02*
X75690476Y-219024819D01*
X75452381Y-217977200D02*
X75214286Y-218691485D01*
X75214286Y-218691485D02*
X75833333Y-218691485D01*
X44833333Y-204059580D02*
X44785714Y-204107200D01*
X44785714Y-204107200D02*
X44642857Y-204154819D01*
X44642857Y-204154819D02*
X44547619Y-204154819D01*
X44547619Y-204154819D02*
X44404762Y-204107200D01*
X44404762Y-204107200D02*
X44309524Y-204011961D01*
X44309524Y-204011961D02*
X44261905Y-203916723D01*
X44261905Y-203916723D02*
X44214286Y-203726247D01*
X44214286Y-203726247D02*
X44214286Y-203583390D01*
X44214286Y-203583390D02*
X44261905Y-203392914D01*
X44261905Y-203392914D02*
X44309524Y-203297676D01*
X44309524Y-203297676D02*
X44404762Y-203202438D01*
X44404762Y-203202438D02*
X44547619Y-203154819D01*
X44547619Y-203154819D02*
X44642857Y-203154819D01*
X44642857Y-203154819D02*
X44785714Y-203202438D01*
X44785714Y-203202438D02*
X44833333Y-203250057D01*
X45785714Y-204154819D02*
X45214286Y-204154819D01*
X45500000Y-204154819D02*
X45500000Y-203154819D01*
X45500000Y-203154819D02*
X45404762Y-203297676D01*
X45404762Y-203297676D02*
X45309524Y-203392914D01*
X45309524Y-203392914D02*
X45214286Y-203440533D01*
D13*
X8336904Y-290579271D02*
X8336904Y-289309271D01*
X8336904Y-289309271D02*
X8760238Y-290216414D01*
X8760238Y-290216414D02*
X9183571Y-289309271D01*
X9183571Y-289309271D02*
X9183571Y-290579271D01*
X9788333Y-290579271D02*
X9788333Y-289309271D01*
X10514048Y-290579271D02*
X9969762Y-289853556D01*
X10514048Y-289309271D02*
X9788333Y-290034985D01*
X10937381Y-289309271D02*
X11723572Y-289309271D01*
X11723572Y-289309271D02*
X11300238Y-289793080D01*
X11300238Y-289793080D02*
X11481667Y-289793080D01*
X11481667Y-289793080D02*
X11602619Y-289853556D01*
X11602619Y-289853556D02*
X11663095Y-289914033D01*
X11663095Y-289914033D02*
X11723572Y-290034985D01*
X11723572Y-290034985D02*
X11723572Y-290337366D01*
X11723572Y-290337366D02*
X11663095Y-290458318D01*
X11663095Y-290458318D02*
X11602619Y-290518795D01*
X11602619Y-290518795D02*
X11481667Y-290579271D01*
X11481667Y-290579271D02*
X11118810Y-290579271D01*
X11118810Y-290579271D02*
X10997857Y-290518795D01*
X10997857Y-290518795D02*
X10937381Y-290458318D01*
D14*
X18454819Y-100809523D02*
X19169104Y-100809523D01*
X19169104Y-100809523D02*
X19311961Y-100857142D01*
X19311961Y-100857142D02*
X19407200Y-100952380D01*
X19407200Y-100952380D02*
X19454819Y-101095237D01*
X19454819Y-101095237D02*
X19454819Y-101190475D01*
X18550057Y-100380951D02*
X18502438Y-100333332D01*
X18502438Y-100333332D02*
X18454819Y-100238094D01*
X18454819Y-100238094D02*
X18454819Y-99999999D01*
X18454819Y-99999999D02*
X18502438Y-99904761D01*
X18502438Y-99904761D02*
X18550057Y-99857142D01*
X18550057Y-99857142D02*
X18645295Y-99809523D01*
X18645295Y-99809523D02*
X18740533Y-99809523D01*
X18740533Y-99809523D02*
X18883390Y-99857142D01*
X18883390Y-99857142D02*
X19454819Y-100428570D01*
X19454819Y-100428570D02*
X19454819Y-99809523D01*
X19454819Y-98857142D02*
X19454819Y-99428570D01*
X19454819Y-99142856D02*
X18454819Y-99142856D01*
X18454819Y-99142856D02*
X18597676Y-99238094D01*
X18597676Y-99238094D02*
X18692914Y-99333332D01*
X18692914Y-99333332D02*
X18740533Y-99428570D01*
X18454819Y-190809523D02*
X19169104Y-190809523D01*
X19169104Y-190809523D02*
X19311961Y-190857142D01*
X19311961Y-190857142D02*
X19407200Y-190952380D01*
X19407200Y-190952380D02*
X19454819Y-191095237D01*
X19454819Y-191095237D02*
X19454819Y-191190475D01*
X18550057Y-190380951D02*
X18502438Y-190333332D01*
X18502438Y-190333332D02*
X18454819Y-190238094D01*
X18454819Y-190238094D02*
X18454819Y-189999999D01*
X18454819Y-189999999D02*
X18502438Y-189904761D01*
X18502438Y-189904761D02*
X18550057Y-189857142D01*
X18550057Y-189857142D02*
X18645295Y-189809523D01*
X18645295Y-189809523D02*
X18740533Y-189809523D01*
X18740533Y-189809523D02*
X18883390Y-189857142D01*
X18883390Y-189857142D02*
X19454819Y-190428570D01*
X19454819Y-190428570D02*
X19454819Y-189809523D01*
X18550057Y-189428570D02*
X18502438Y-189380951D01*
X18502438Y-189380951D02*
X18454819Y-189285713D01*
X18454819Y-189285713D02*
X18454819Y-189047618D01*
X18454819Y-189047618D02*
X18502438Y-188952380D01*
X18502438Y-188952380D02*
X18550057Y-188904761D01*
X18550057Y-188904761D02*
X18645295Y-188857142D01*
X18645295Y-188857142D02*
X18740533Y-188857142D01*
X18740533Y-188857142D02*
X18883390Y-188904761D01*
X18883390Y-188904761D02*
X19454819Y-189476189D01*
X19454819Y-189476189D02*
X19454819Y-188857142D01*
X224238095Y-127454819D02*
X224238095Y-128264342D01*
X224238095Y-128264342D02*
X224285714Y-128359580D01*
X224285714Y-128359580D02*
X224333333Y-128407200D01*
X224333333Y-128407200D02*
X224428571Y-128454819D01*
X224428571Y-128454819D02*
X224619047Y-128454819D01*
X224619047Y-128454819D02*
X224714285Y-128407200D01*
X224714285Y-128407200D02*
X224761904Y-128359580D01*
X224761904Y-128359580D02*
X224809523Y-128264342D01*
X224809523Y-128264342D02*
X224809523Y-127454819D01*
X225809523Y-128454819D02*
X225238095Y-128454819D01*
X225523809Y-128454819D02*
X225523809Y-127454819D01*
X225523809Y-127454819D02*
X225428571Y-127597676D01*
X225428571Y-127597676D02*
X225333333Y-127692914D01*
X225333333Y-127692914D02*
X225238095Y-127740533D01*
X59238095Y-204954819D02*
X59238095Y-205764342D01*
X59238095Y-205764342D02*
X59285714Y-205859580D01*
X59285714Y-205859580D02*
X59333333Y-205907200D01*
X59333333Y-205907200D02*
X59428571Y-205954819D01*
X59428571Y-205954819D02*
X59619047Y-205954819D01*
X59619047Y-205954819D02*
X59714285Y-205907200D01*
X59714285Y-205907200D02*
X59761904Y-205859580D01*
X59761904Y-205859580D02*
X59809523Y-205764342D01*
X59809523Y-205764342D02*
X59809523Y-204954819D01*
X60714285Y-204954819D02*
X60523809Y-204954819D01*
X60523809Y-204954819D02*
X60428571Y-205002438D01*
X60428571Y-205002438D02*
X60380952Y-205050057D01*
X60380952Y-205050057D02*
X60285714Y-205192914D01*
X60285714Y-205192914D02*
X60238095Y-205383390D01*
X60238095Y-205383390D02*
X60238095Y-205764342D01*
X60238095Y-205764342D02*
X60285714Y-205859580D01*
X60285714Y-205859580D02*
X60333333Y-205907200D01*
X60333333Y-205907200D02*
X60428571Y-205954819D01*
X60428571Y-205954819D02*
X60619047Y-205954819D01*
X60619047Y-205954819D02*
X60714285Y-205907200D01*
X60714285Y-205907200D02*
X60761904Y-205859580D01*
X60761904Y-205859580D02*
X60809523Y-205764342D01*
X60809523Y-205764342D02*
X60809523Y-205526247D01*
X60809523Y-205526247D02*
X60761904Y-205431009D01*
X60761904Y-205431009D02*
X60714285Y-205383390D01*
X60714285Y-205383390D02*
X60619047Y-205335771D01*
X60619047Y-205335771D02*
X60428571Y-205335771D01*
X60428571Y-205335771D02*
X60333333Y-205383390D01*
X60333333Y-205383390D02*
X60285714Y-205431009D01*
X60285714Y-205431009D02*
X60238095Y-205526247D01*
X289238095Y-141454819D02*
X289238095Y-142264342D01*
X289238095Y-142264342D02*
X289285714Y-142359580D01*
X289285714Y-142359580D02*
X289333333Y-142407200D01*
X289333333Y-142407200D02*
X289428571Y-142454819D01*
X289428571Y-142454819D02*
X289619047Y-142454819D01*
X289619047Y-142454819D02*
X289714285Y-142407200D01*
X289714285Y-142407200D02*
X289761904Y-142359580D01*
X289761904Y-142359580D02*
X289809523Y-142264342D01*
X289809523Y-142264342D02*
X289809523Y-141454819D01*
X290190476Y-141454819D02*
X290809523Y-141454819D01*
X290809523Y-141454819D02*
X290476190Y-141835771D01*
X290476190Y-141835771D02*
X290619047Y-141835771D01*
X290619047Y-141835771D02*
X290714285Y-141883390D01*
X290714285Y-141883390D02*
X290761904Y-141931009D01*
X290761904Y-141931009D02*
X290809523Y-142026247D01*
X290809523Y-142026247D02*
X290809523Y-142264342D01*
X290809523Y-142264342D02*
X290761904Y-142359580D01*
X290761904Y-142359580D02*
X290714285Y-142407200D01*
X290714285Y-142407200D02*
X290619047Y-142454819D01*
X290619047Y-142454819D02*
X290333333Y-142454819D01*
X290333333Y-142454819D02*
X290238095Y-142407200D01*
X290238095Y-142407200D02*
X290190476Y-142359580D01*
X349238095Y-137454819D02*
X349238095Y-138264342D01*
X349238095Y-138264342D02*
X349285714Y-138359580D01*
X349285714Y-138359580D02*
X349333333Y-138407200D01*
X349333333Y-138407200D02*
X349428571Y-138454819D01*
X349428571Y-138454819D02*
X349619047Y-138454819D01*
X349619047Y-138454819D02*
X349714285Y-138407200D01*
X349714285Y-138407200D02*
X349761904Y-138359580D01*
X349761904Y-138359580D02*
X349809523Y-138264342D01*
X349809523Y-138264342D02*
X349809523Y-137454819D01*
X350714285Y-137788152D02*
X350714285Y-138454819D01*
X350476190Y-137407200D02*
X350238095Y-138121485D01*
X350238095Y-138121485D02*
X350857142Y-138121485D01*
D13*
X223336904Y-290579271D02*
X223336904Y-289309271D01*
X223336904Y-289309271D02*
X223760238Y-290216414D01*
X223760238Y-290216414D02*
X224183571Y-289309271D01*
X224183571Y-289309271D02*
X224183571Y-290579271D01*
X224788333Y-290579271D02*
X224788333Y-289309271D01*
X225514048Y-290579271D02*
X224969762Y-289853556D01*
X225514048Y-289309271D02*
X224788333Y-290034985D01*
X226602619Y-289309271D02*
X226360714Y-289309271D01*
X226360714Y-289309271D02*
X226239762Y-289369747D01*
X226239762Y-289369747D02*
X226179286Y-289430223D01*
X226179286Y-289430223D02*
X226058333Y-289611652D01*
X226058333Y-289611652D02*
X225997857Y-289853556D01*
X225997857Y-289853556D02*
X225997857Y-290337366D01*
X225997857Y-290337366D02*
X226058333Y-290458318D01*
X226058333Y-290458318D02*
X226118810Y-290518795D01*
X226118810Y-290518795D02*
X226239762Y-290579271D01*
X226239762Y-290579271D02*
X226481667Y-290579271D01*
X226481667Y-290579271D02*
X226602619Y-290518795D01*
X226602619Y-290518795D02*
X226663095Y-290458318D01*
X226663095Y-290458318D02*
X226723572Y-290337366D01*
X226723572Y-290337366D02*
X226723572Y-290034985D01*
X226723572Y-290034985D02*
X226663095Y-289914033D01*
X226663095Y-289914033D02*
X226602619Y-289853556D01*
X226602619Y-289853556D02*
X226481667Y-289793080D01*
X226481667Y-289793080D02*
X226239762Y-289793080D01*
X226239762Y-289793080D02*
X226118810Y-289853556D01*
X226118810Y-289853556D02*
X226058333Y-289914033D01*
X226058333Y-289914033D02*
X225997857Y-290034985D01*
X223336904Y-10579271D02*
X223336904Y-9309271D01*
X223336904Y-9309271D02*
X223760238Y-10216414D01*
X223760238Y-10216414D02*
X224183571Y-9309271D01*
X224183571Y-9309271D02*
X224183571Y-10579271D01*
X224788333Y-10579271D02*
X224788333Y-9309271D01*
X225514048Y-10579271D02*
X224969762Y-9853556D01*
X225514048Y-9309271D02*
X224788333Y-10034985D01*
X226663095Y-9309271D02*
X226058333Y-9309271D01*
X226058333Y-9309271D02*
X225997857Y-9914033D01*
X225997857Y-9914033D02*
X226058333Y-9853556D01*
X226058333Y-9853556D02*
X226179286Y-9793080D01*
X226179286Y-9793080D02*
X226481667Y-9793080D01*
X226481667Y-9793080D02*
X226602619Y-9853556D01*
X226602619Y-9853556D02*
X226663095Y-9914033D01*
X226663095Y-9914033D02*
X226723572Y-10034985D01*
X226723572Y-10034985D02*
X226723572Y-10337366D01*
X226723572Y-10337366D02*
X226663095Y-10458318D01*
X226663095Y-10458318D02*
X226602619Y-10518795D01*
X226602619Y-10518795D02*
X226481667Y-10579271D01*
X226481667Y-10579271D02*
X226179286Y-10579271D01*
X226179286Y-10579271D02*
X226058333Y-10518795D01*
X226058333Y-10518795D02*
X225997857Y-10458318D01*
D14*
X149238095Y-135454819D02*
X149238095Y-136264342D01*
X149238095Y-136264342D02*
X149285714Y-136359580D01*
X149285714Y-136359580D02*
X149333333Y-136407200D01*
X149333333Y-136407200D02*
X149428571Y-136454819D01*
X149428571Y-136454819D02*
X149619047Y-136454819D01*
X149619047Y-136454819D02*
X149714285Y-136407200D01*
X149714285Y-136407200D02*
X149761904Y-136359580D01*
X149761904Y-136359580D02*
X149809523Y-136264342D01*
X149809523Y-136264342D02*
X149809523Y-135454819D01*
X150238095Y-135550057D02*
X150285714Y-135502438D01*
X150285714Y-135502438D02*
X150380952Y-135454819D01*
X150380952Y-135454819D02*
X150619047Y-135454819D01*
X150619047Y-135454819D02*
X150714285Y-135502438D01*
X150714285Y-135502438D02*
X150761904Y-135550057D01*
X150761904Y-135550057D02*
X150809523Y-135645295D01*
X150809523Y-135645295D02*
X150809523Y-135740533D01*
X150809523Y-135740533D02*
X150761904Y-135883390D01*
X150761904Y-135883390D02*
X150190476Y-136454819D01*
X150190476Y-136454819D02*
X150809523Y-136454819D01*
X44833333Y-218679580D02*
X44785714Y-218727200D01*
X44785714Y-218727200D02*
X44642857Y-218774819D01*
X44642857Y-218774819D02*
X44547619Y-218774819D01*
X44547619Y-218774819D02*
X44404762Y-218727200D01*
X44404762Y-218727200D02*
X44309524Y-218631961D01*
X44309524Y-218631961D02*
X44261905Y-218536723D01*
X44261905Y-218536723D02*
X44214286Y-218346247D01*
X44214286Y-218346247D02*
X44214286Y-218203390D01*
X44214286Y-218203390D02*
X44261905Y-218012914D01*
X44261905Y-218012914D02*
X44309524Y-217917676D01*
X44309524Y-217917676D02*
X44404762Y-217822438D01*
X44404762Y-217822438D02*
X44547619Y-217774819D01*
X44547619Y-217774819D02*
X44642857Y-217774819D01*
X44642857Y-217774819D02*
X44785714Y-217822438D01*
X44785714Y-217822438D02*
X44833333Y-217870057D01*
X45214286Y-217870057D02*
X45261905Y-217822438D01*
X45261905Y-217822438D02*
X45357143Y-217774819D01*
X45357143Y-217774819D02*
X45595238Y-217774819D01*
X45595238Y-217774819D02*
X45690476Y-217822438D01*
X45690476Y-217822438D02*
X45738095Y-217870057D01*
X45738095Y-217870057D02*
X45785714Y-217965295D01*
X45785714Y-217965295D02*
X45785714Y-218060533D01*
X45785714Y-218060533D02*
X45738095Y-218203390D01*
X45738095Y-218203390D02*
X45166667Y-218774819D01*
X45166667Y-218774819D02*
X45785714Y-218774819D01*
X191454819Y-265809523D02*
X192169104Y-265809523D01*
X192169104Y-265809523D02*
X192311961Y-265857142D01*
X192311961Y-265857142D02*
X192407200Y-265952380D01*
X192407200Y-265952380D02*
X192454819Y-266095237D01*
X192454819Y-266095237D02*
X192454819Y-266190475D01*
X192454819Y-264809523D02*
X192454819Y-265380951D01*
X192454819Y-265095237D02*
X191454819Y-265095237D01*
X191454819Y-265095237D02*
X191597676Y-265190475D01*
X191597676Y-265190475D02*
X191692914Y-265285713D01*
X191692914Y-265285713D02*
X191740533Y-265380951D01*
X191454819Y-263904761D02*
X191454819Y-264380951D01*
X191454819Y-264380951D02*
X191931009Y-264428570D01*
X191931009Y-264428570D02*
X191883390Y-264380951D01*
X191883390Y-264380951D02*
X191835771Y-264285713D01*
X191835771Y-264285713D02*
X191835771Y-264047618D01*
X191835771Y-264047618D02*
X191883390Y-263952380D01*
X191883390Y-263952380D02*
X191931009Y-263904761D01*
X191931009Y-263904761D02*
X192026247Y-263857142D01*
X192026247Y-263857142D02*
X192264342Y-263857142D01*
X192264342Y-263857142D02*
X192359580Y-263904761D01*
X192359580Y-263904761D02*
X192407200Y-263952380D01*
X192407200Y-263952380D02*
X192454819Y-264047618D01*
X192454819Y-264047618D02*
X192454819Y-264285713D01*
X192454819Y-264285713D02*
X192407200Y-264380951D01*
X192407200Y-264380951D02*
X192359580Y-264428570D01*
X23454819Y-265809523D02*
X24169104Y-265809523D01*
X24169104Y-265809523D02*
X24311961Y-265857142D01*
X24311961Y-265857142D02*
X24407200Y-265952380D01*
X24407200Y-265952380D02*
X24454819Y-266095237D01*
X24454819Y-266095237D02*
X24454819Y-266190475D01*
X24454819Y-264809523D02*
X24454819Y-265380951D01*
X24454819Y-265095237D02*
X23454819Y-265095237D01*
X23454819Y-265095237D02*
X23597676Y-265190475D01*
X23597676Y-265190475D02*
X23692914Y-265285713D01*
X23692914Y-265285713D02*
X23740533Y-265380951D01*
X24454819Y-263857142D02*
X24454819Y-264428570D01*
X24454819Y-264142856D02*
X23454819Y-264142856D01*
X23454819Y-264142856D02*
X23597676Y-264238094D01*
X23597676Y-264238094D02*
X23692914Y-264333332D01*
X23692914Y-264333332D02*
X23740533Y-264428570D01*
X401454819Y-265809523D02*
X402169104Y-265809523D01*
X402169104Y-265809523D02*
X402311961Y-265857142D01*
X402311961Y-265857142D02*
X402407200Y-265952380D01*
X402407200Y-265952380D02*
X402454819Y-266095237D01*
X402454819Y-266095237D02*
X402454819Y-266190475D01*
X401550057Y-265380951D02*
X401502438Y-265333332D01*
X401502438Y-265333332D02*
X401454819Y-265238094D01*
X401454819Y-265238094D02*
X401454819Y-264999999D01*
X401454819Y-264999999D02*
X401502438Y-264904761D01*
X401502438Y-264904761D02*
X401550057Y-264857142D01*
X401550057Y-264857142D02*
X401645295Y-264809523D01*
X401645295Y-264809523D02*
X401740533Y-264809523D01*
X401740533Y-264809523D02*
X401883390Y-264857142D01*
X401883390Y-264857142D02*
X402454819Y-265428570D01*
X402454819Y-265428570D02*
X402454819Y-264809523D01*
X401454819Y-264190475D02*
X401454819Y-264095237D01*
X401454819Y-264095237D02*
X401502438Y-263999999D01*
X401502438Y-263999999D02*
X401550057Y-263952380D01*
X401550057Y-263952380D02*
X401645295Y-263904761D01*
X401645295Y-263904761D02*
X401835771Y-263857142D01*
X401835771Y-263857142D02*
X402073866Y-263857142D01*
X402073866Y-263857142D02*
X402264342Y-263904761D01*
X402264342Y-263904761D02*
X402359580Y-263952380D01*
X402359580Y-263952380D02*
X402407200Y-263999999D01*
X402407200Y-263999999D02*
X402454819Y-264095237D01*
X402454819Y-264095237D02*
X402454819Y-264190475D01*
X402454819Y-264190475D02*
X402407200Y-264285713D01*
X402407200Y-264285713D02*
X402359580Y-264333332D01*
X402359580Y-264333332D02*
X402264342Y-264380951D01*
X402264342Y-264380951D02*
X402073866Y-264428570D01*
X402073866Y-264428570D02*
X401835771Y-264428570D01*
X401835771Y-264428570D02*
X401645295Y-264380951D01*
X401645295Y-264380951D02*
X401550057Y-264333332D01*
X401550057Y-264333332D02*
X401502438Y-264285713D01*
X401502438Y-264285713D02*
X401454819Y-264190475D01*
X359454819Y-265809523D02*
X360169104Y-265809523D01*
X360169104Y-265809523D02*
X360311961Y-265857142D01*
X360311961Y-265857142D02*
X360407200Y-265952380D01*
X360407200Y-265952380D02*
X360454819Y-266095237D01*
X360454819Y-266095237D02*
X360454819Y-266190475D01*
X360454819Y-264809523D02*
X360454819Y-265380951D01*
X360454819Y-265095237D02*
X359454819Y-265095237D01*
X359454819Y-265095237D02*
X359597676Y-265190475D01*
X359597676Y-265190475D02*
X359692914Y-265285713D01*
X359692914Y-265285713D02*
X359740533Y-265380951D01*
X360454819Y-264333332D02*
X360454819Y-264142856D01*
X360454819Y-264142856D02*
X360407200Y-264047618D01*
X360407200Y-264047618D02*
X360359580Y-263999999D01*
X360359580Y-263999999D02*
X360216723Y-263904761D01*
X360216723Y-263904761D02*
X360026247Y-263857142D01*
X360026247Y-263857142D02*
X359645295Y-263857142D01*
X359645295Y-263857142D02*
X359550057Y-263904761D01*
X359550057Y-263904761D02*
X359502438Y-263952380D01*
X359502438Y-263952380D02*
X359454819Y-264047618D01*
X359454819Y-264047618D02*
X359454819Y-264238094D01*
X359454819Y-264238094D02*
X359502438Y-264333332D01*
X359502438Y-264333332D02*
X359550057Y-264380951D01*
X359550057Y-264380951D02*
X359645295Y-264428570D01*
X359645295Y-264428570D02*
X359883390Y-264428570D01*
X359883390Y-264428570D02*
X359978628Y-264380951D01*
X359978628Y-264380951D02*
X360026247Y-264333332D01*
X360026247Y-264333332D02*
X360073866Y-264238094D01*
X360073866Y-264238094D02*
X360073866Y-264047618D01*
X360073866Y-264047618D02*
X360026247Y-263952380D01*
X360026247Y-263952380D02*
X359978628Y-263904761D01*
X359978628Y-263904761D02*
X359883390Y-263857142D01*
X149454819Y-265809523D02*
X150169104Y-265809523D01*
X150169104Y-265809523D02*
X150311961Y-265857142D01*
X150311961Y-265857142D02*
X150407200Y-265952380D01*
X150407200Y-265952380D02*
X150454819Y-266095237D01*
X150454819Y-266095237D02*
X150454819Y-266190475D01*
X150454819Y-264809523D02*
X150454819Y-265380951D01*
X150454819Y-265095237D02*
X149454819Y-265095237D01*
X149454819Y-265095237D02*
X149597676Y-265190475D01*
X149597676Y-265190475D02*
X149692914Y-265285713D01*
X149692914Y-265285713D02*
X149740533Y-265380951D01*
X149788152Y-263952380D02*
X150454819Y-263952380D01*
X149407200Y-264190475D02*
X150121485Y-264428570D01*
X150121485Y-264428570D02*
X150121485Y-263809523D01*
X233454819Y-265809523D02*
X234169104Y-265809523D01*
X234169104Y-265809523D02*
X234311961Y-265857142D01*
X234311961Y-265857142D02*
X234407200Y-265952380D01*
X234407200Y-265952380D02*
X234454819Y-266095237D01*
X234454819Y-266095237D02*
X234454819Y-266190475D01*
X234454819Y-264809523D02*
X234454819Y-265380951D01*
X234454819Y-265095237D02*
X233454819Y-265095237D01*
X233454819Y-265095237D02*
X233597676Y-265190475D01*
X233597676Y-265190475D02*
X233692914Y-265285713D01*
X233692914Y-265285713D02*
X233740533Y-265380951D01*
X233454819Y-263952380D02*
X233454819Y-264142856D01*
X233454819Y-264142856D02*
X233502438Y-264238094D01*
X233502438Y-264238094D02*
X233550057Y-264285713D01*
X233550057Y-264285713D02*
X233692914Y-264380951D01*
X233692914Y-264380951D02*
X233883390Y-264428570D01*
X233883390Y-264428570D02*
X234264342Y-264428570D01*
X234264342Y-264428570D02*
X234359580Y-264380951D01*
X234359580Y-264380951D02*
X234407200Y-264333332D01*
X234407200Y-264333332D02*
X234454819Y-264238094D01*
X234454819Y-264238094D02*
X234454819Y-264047618D01*
X234454819Y-264047618D02*
X234407200Y-263952380D01*
X234407200Y-263952380D02*
X234359580Y-263904761D01*
X234359580Y-263904761D02*
X234264342Y-263857142D01*
X234264342Y-263857142D02*
X234026247Y-263857142D01*
X234026247Y-263857142D02*
X233931009Y-263904761D01*
X233931009Y-263904761D02*
X233883390Y-263952380D01*
X233883390Y-263952380D02*
X233835771Y-264047618D01*
X233835771Y-264047618D02*
X233835771Y-264238094D01*
X233835771Y-264238094D02*
X233883390Y-264333332D01*
X233883390Y-264333332D02*
X233931009Y-264380951D01*
X233931009Y-264380951D02*
X234026247Y-264428570D01*
X107454819Y-265809523D02*
X108169104Y-265809523D01*
X108169104Y-265809523D02*
X108311961Y-265857142D01*
X108311961Y-265857142D02*
X108407200Y-265952380D01*
X108407200Y-265952380D02*
X108454819Y-266095237D01*
X108454819Y-266095237D02*
X108454819Y-266190475D01*
X108454819Y-264809523D02*
X108454819Y-265380951D01*
X108454819Y-265095237D02*
X107454819Y-265095237D01*
X107454819Y-265095237D02*
X107597676Y-265190475D01*
X107597676Y-265190475D02*
X107692914Y-265285713D01*
X107692914Y-265285713D02*
X107740533Y-265380951D01*
X107454819Y-264476189D02*
X107454819Y-263857142D01*
X107454819Y-263857142D02*
X107835771Y-264190475D01*
X107835771Y-264190475D02*
X107835771Y-264047618D01*
X107835771Y-264047618D02*
X107883390Y-263952380D01*
X107883390Y-263952380D02*
X107931009Y-263904761D01*
X107931009Y-263904761D02*
X108026247Y-263857142D01*
X108026247Y-263857142D02*
X108264342Y-263857142D01*
X108264342Y-263857142D02*
X108359580Y-263904761D01*
X108359580Y-263904761D02*
X108407200Y-263952380D01*
X108407200Y-263952380D02*
X108454819Y-264047618D01*
X108454819Y-264047618D02*
X108454819Y-264333332D01*
X108454819Y-264333332D02*
X108407200Y-264428570D01*
X108407200Y-264428570D02*
X108359580Y-264476189D01*
X275454819Y-265809523D02*
X276169104Y-265809523D01*
X276169104Y-265809523D02*
X276311961Y-265857142D01*
X276311961Y-265857142D02*
X276407200Y-265952380D01*
X276407200Y-265952380D02*
X276454819Y-266095237D01*
X276454819Y-266095237D02*
X276454819Y-266190475D01*
X276454819Y-264809523D02*
X276454819Y-265380951D01*
X276454819Y-265095237D02*
X275454819Y-265095237D01*
X275454819Y-265095237D02*
X275597676Y-265190475D01*
X275597676Y-265190475D02*
X275692914Y-265285713D01*
X275692914Y-265285713D02*
X275740533Y-265380951D01*
X275454819Y-264476189D02*
X275454819Y-263809523D01*
X275454819Y-263809523D02*
X276454819Y-264238094D01*
X317454819Y-265809523D02*
X318169104Y-265809523D01*
X318169104Y-265809523D02*
X318311961Y-265857142D01*
X318311961Y-265857142D02*
X318407200Y-265952380D01*
X318407200Y-265952380D02*
X318454819Y-266095237D01*
X318454819Y-266095237D02*
X318454819Y-266190475D01*
X318454819Y-264809523D02*
X318454819Y-265380951D01*
X318454819Y-265095237D02*
X317454819Y-265095237D01*
X317454819Y-265095237D02*
X317597676Y-265190475D01*
X317597676Y-265190475D02*
X317692914Y-265285713D01*
X317692914Y-265285713D02*
X317740533Y-265380951D01*
X317883390Y-264238094D02*
X317835771Y-264333332D01*
X317835771Y-264333332D02*
X317788152Y-264380951D01*
X317788152Y-264380951D02*
X317692914Y-264428570D01*
X317692914Y-264428570D02*
X317645295Y-264428570D01*
X317645295Y-264428570D02*
X317550057Y-264380951D01*
X317550057Y-264380951D02*
X317502438Y-264333332D01*
X317502438Y-264333332D02*
X317454819Y-264238094D01*
X317454819Y-264238094D02*
X317454819Y-264047618D01*
X317454819Y-264047618D02*
X317502438Y-263952380D01*
X317502438Y-263952380D02*
X317550057Y-263904761D01*
X317550057Y-263904761D02*
X317645295Y-263857142D01*
X317645295Y-263857142D02*
X317692914Y-263857142D01*
X317692914Y-263857142D02*
X317788152Y-263904761D01*
X317788152Y-263904761D02*
X317835771Y-263952380D01*
X317835771Y-263952380D02*
X317883390Y-264047618D01*
X317883390Y-264047618D02*
X317883390Y-264238094D01*
X317883390Y-264238094D02*
X317931009Y-264333332D01*
X317931009Y-264333332D02*
X317978628Y-264380951D01*
X317978628Y-264380951D02*
X318073866Y-264428570D01*
X318073866Y-264428570D02*
X318264342Y-264428570D01*
X318264342Y-264428570D02*
X318359580Y-264380951D01*
X318359580Y-264380951D02*
X318407200Y-264333332D01*
X318407200Y-264333332D02*
X318454819Y-264238094D01*
X318454819Y-264238094D02*
X318454819Y-264047618D01*
X318454819Y-264047618D02*
X318407200Y-263952380D01*
X318407200Y-263952380D02*
X318359580Y-263904761D01*
X318359580Y-263904761D02*
X318264342Y-263857142D01*
X318264342Y-263857142D02*
X318073866Y-263857142D01*
X318073866Y-263857142D02*
X317978628Y-263904761D01*
X317978628Y-263904761D02*
X317931009Y-263952380D01*
X317931009Y-263952380D02*
X317883390Y-264047618D01*
X65454819Y-265809523D02*
X66169104Y-265809523D01*
X66169104Y-265809523D02*
X66311961Y-265857142D01*
X66311961Y-265857142D02*
X66407200Y-265952380D01*
X66407200Y-265952380D02*
X66454819Y-266095237D01*
X66454819Y-266095237D02*
X66454819Y-266190475D01*
X66454819Y-264809523D02*
X66454819Y-265380951D01*
X66454819Y-265095237D02*
X65454819Y-265095237D01*
X65454819Y-265095237D02*
X65597676Y-265190475D01*
X65597676Y-265190475D02*
X65692914Y-265285713D01*
X65692914Y-265285713D02*
X65740533Y-265380951D01*
X65550057Y-264428570D02*
X65502438Y-264380951D01*
X65502438Y-264380951D02*
X65454819Y-264285713D01*
X65454819Y-264285713D02*
X65454819Y-264047618D01*
X65454819Y-264047618D02*
X65502438Y-263952380D01*
X65502438Y-263952380D02*
X65550057Y-263904761D01*
X65550057Y-263904761D02*
X65645295Y-263857142D01*
X65645295Y-263857142D02*
X65740533Y-263857142D01*
X65740533Y-263857142D02*
X65883390Y-263904761D01*
X65883390Y-263904761D02*
X66454819Y-264476189D01*
X66454819Y-264476189D02*
X66454819Y-263857142D01*
X74833333Y-205059580D02*
X74785714Y-205107200D01*
X74785714Y-205107200D02*
X74642857Y-205154819D01*
X74642857Y-205154819D02*
X74547619Y-205154819D01*
X74547619Y-205154819D02*
X74404762Y-205107200D01*
X74404762Y-205107200D02*
X74309524Y-205011961D01*
X74309524Y-205011961D02*
X74261905Y-204916723D01*
X74261905Y-204916723D02*
X74214286Y-204726247D01*
X74214286Y-204726247D02*
X74214286Y-204583390D01*
X74214286Y-204583390D02*
X74261905Y-204392914D01*
X74261905Y-204392914D02*
X74309524Y-204297676D01*
X74309524Y-204297676D02*
X74404762Y-204202438D01*
X74404762Y-204202438D02*
X74547619Y-204154819D01*
X74547619Y-204154819D02*
X74642857Y-204154819D01*
X74642857Y-204154819D02*
X74785714Y-204202438D01*
X74785714Y-204202438D02*
X74833333Y-204250057D01*
X75166667Y-204154819D02*
X75785714Y-204154819D01*
X75785714Y-204154819D02*
X75452381Y-204535771D01*
X75452381Y-204535771D02*
X75595238Y-204535771D01*
X75595238Y-204535771D02*
X75690476Y-204583390D01*
X75690476Y-204583390D02*
X75738095Y-204631009D01*
X75738095Y-204631009D02*
X75785714Y-204726247D01*
X75785714Y-204726247D02*
X75785714Y-204964342D01*
X75785714Y-204964342D02*
X75738095Y-205059580D01*
X75738095Y-205059580D02*
X75690476Y-205107200D01*
X75690476Y-205107200D02*
X75595238Y-205154819D01*
X75595238Y-205154819D02*
X75309524Y-205154819D01*
X75309524Y-205154819D02*
X75214286Y-205107200D01*
X75214286Y-205107200D02*
X75166667Y-205059580D01*
X192954819Y-45333333D02*
X193669104Y-45333333D01*
X193669104Y-45333333D02*
X193811961Y-45380952D01*
X193811961Y-45380952D02*
X193907200Y-45476190D01*
X193907200Y-45476190D02*
X193954819Y-45619047D01*
X193954819Y-45619047D02*
X193954819Y-45714285D01*
X192954819Y-44380952D02*
X192954819Y-44857142D01*
X192954819Y-44857142D02*
X193431009Y-44904761D01*
X193431009Y-44904761D02*
X193383390Y-44857142D01*
X193383390Y-44857142D02*
X193335771Y-44761904D01*
X193335771Y-44761904D02*
X193335771Y-44523809D01*
X193335771Y-44523809D02*
X193383390Y-44428571D01*
X193383390Y-44428571D02*
X193431009Y-44380952D01*
X193431009Y-44380952D02*
X193526247Y-44333333D01*
X193526247Y-44333333D02*
X193764342Y-44333333D01*
X193764342Y-44333333D02*
X193859580Y-44380952D01*
X193859580Y-44380952D02*
X193907200Y-44428571D01*
X193907200Y-44428571D02*
X193954819Y-44523809D01*
X193954819Y-44523809D02*
X193954819Y-44761904D01*
X193954819Y-44761904D02*
X193907200Y-44857142D01*
X193907200Y-44857142D02*
X193859580Y-44904761D01*
X66954819Y-45333333D02*
X67669104Y-45333333D01*
X67669104Y-45333333D02*
X67811961Y-45380952D01*
X67811961Y-45380952D02*
X67907200Y-45476190D01*
X67907200Y-45476190D02*
X67954819Y-45619047D01*
X67954819Y-45619047D02*
X67954819Y-45714285D01*
X67050057Y-44904761D02*
X67002438Y-44857142D01*
X67002438Y-44857142D02*
X66954819Y-44761904D01*
X66954819Y-44761904D02*
X66954819Y-44523809D01*
X66954819Y-44523809D02*
X67002438Y-44428571D01*
X67002438Y-44428571D02*
X67050057Y-44380952D01*
X67050057Y-44380952D02*
X67145295Y-44333333D01*
X67145295Y-44333333D02*
X67240533Y-44333333D01*
X67240533Y-44333333D02*
X67383390Y-44380952D01*
X67383390Y-44380952D02*
X67954819Y-44952380D01*
X67954819Y-44952380D02*
X67954819Y-44333333D01*
X276954819Y-45333333D02*
X277669104Y-45333333D01*
X277669104Y-45333333D02*
X277811961Y-45380952D01*
X277811961Y-45380952D02*
X277907200Y-45476190D01*
X277907200Y-45476190D02*
X277954819Y-45619047D01*
X277954819Y-45619047D02*
X277954819Y-45714285D01*
X276954819Y-44952380D02*
X276954819Y-44285714D01*
X276954819Y-44285714D02*
X277954819Y-44714285D01*
X318954819Y-45333333D02*
X319669104Y-45333333D01*
X319669104Y-45333333D02*
X319811961Y-45380952D01*
X319811961Y-45380952D02*
X319907200Y-45476190D01*
X319907200Y-45476190D02*
X319954819Y-45619047D01*
X319954819Y-45619047D02*
X319954819Y-45714285D01*
X319383390Y-44714285D02*
X319335771Y-44809523D01*
X319335771Y-44809523D02*
X319288152Y-44857142D01*
X319288152Y-44857142D02*
X319192914Y-44904761D01*
X319192914Y-44904761D02*
X319145295Y-44904761D01*
X319145295Y-44904761D02*
X319050057Y-44857142D01*
X319050057Y-44857142D02*
X319002438Y-44809523D01*
X319002438Y-44809523D02*
X318954819Y-44714285D01*
X318954819Y-44714285D02*
X318954819Y-44523809D01*
X318954819Y-44523809D02*
X319002438Y-44428571D01*
X319002438Y-44428571D02*
X319050057Y-44380952D01*
X319050057Y-44380952D02*
X319145295Y-44333333D01*
X319145295Y-44333333D02*
X319192914Y-44333333D01*
X319192914Y-44333333D02*
X319288152Y-44380952D01*
X319288152Y-44380952D02*
X319335771Y-44428571D01*
X319335771Y-44428571D02*
X319383390Y-44523809D01*
X319383390Y-44523809D02*
X319383390Y-44714285D01*
X319383390Y-44714285D02*
X319431009Y-44809523D01*
X319431009Y-44809523D02*
X319478628Y-44857142D01*
X319478628Y-44857142D02*
X319573866Y-44904761D01*
X319573866Y-44904761D02*
X319764342Y-44904761D01*
X319764342Y-44904761D02*
X319859580Y-44857142D01*
X319859580Y-44857142D02*
X319907200Y-44809523D01*
X319907200Y-44809523D02*
X319954819Y-44714285D01*
X319954819Y-44714285D02*
X319954819Y-44523809D01*
X319954819Y-44523809D02*
X319907200Y-44428571D01*
X319907200Y-44428571D02*
X319859580Y-44380952D01*
X319859580Y-44380952D02*
X319764342Y-44333333D01*
X319764342Y-44333333D02*
X319573866Y-44333333D01*
X319573866Y-44333333D02*
X319478628Y-44380952D01*
X319478628Y-44380952D02*
X319431009Y-44428571D01*
X319431009Y-44428571D02*
X319383390Y-44523809D01*
X360954819Y-45333333D02*
X361669104Y-45333333D01*
X361669104Y-45333333D02*
X361811961Y-45380952D01*
X361811961Y-45380952D02*
X361907200Y-45476190D01*
X361907200Y-45476190D02*
X361954819Y-45619047D01*
X361954819Y-45619047D02*
X361954819Y-45714285D01*
X361954819Y-44809523D02*
X361954819Y-44619047D01*
X361954819Y-44619047D02*
X361907200Y-44523809D01*
X361907200Y-44523809D02*
X361859580Y-44476190D01*
X361859580Y-44476190D02*
X361716723Y-44380952D01*
X361716723Y-44380952D02*
X361526247Y-44333333D01*
X361526247Y-44333333D02*
X361145295Y-44333333D01*
X361145295Y-44333333D02*
X361050057Y-44380952D01*
X361050057Y-44380952D02*
X361002438Y-44428571D01*
X361002438Y-44428571D02*
X360954819Y-44523809D01*
X360954819Y-44523809D02*
X360954819Y-44714285D01*
X360954819Y-44714285D02*
X361002438Y-44809523D01*
X361002438Y-44809523D02*
X361050057Y-44857142D01*
X361050057Y-44857142D02*
X361145295Y-44904761D01*
X361145295Y-44904761D02*
X361383390Y-44904761D01*
X361383390Y-44904761D02*
X361478628Y-44857142D01*
X361478628Y-44857142D02*
X361526247Y-44809523D01*
X361526247Y-44809523D02*
X361573866Y-44714285D01*
X361573866Y-44714285D02*
X361573866Y-44523809D01*
X361573866Y-44523809D02*
X361526247Y-44428571D01*
X361526247Y-44428571D02*
X361478628Y-44380952D01*
X361478628Y-44380952D02*
X361383390Y-44333333D01*
X150954819Y-45333333D02*
X151669104Y-45333333D01*
X151669104Y-45333333D02*
X151811961Y-45380952D01*
X151811961Y-45380952D02*
X151907200Y-45476190D01*
X151907200Y-45476190D02*
X151954819Y-45619047D01*
X151954819Y-45619047D02*
X151954819Y-45714285D01*
X151288152Y-44428571D02*
X151954819Y-44428571D01*
X150907200Y-44666666D02*
X151621485Y-44904761D01*
X151621485Y-44904761D02*
X151621485Y-44285714D01*
X234954819Y-45333333D02*
X235669104Y-45333333D01*
X235669104Y-45333333D02*
X235811961Y-45380952D01*
X235811961Y-45380952D02*
X235907200Y-45476190D01*
X235907200Y-45476190D02*
X235954819Y-45619047D01*
X235954819Y-45619047D02*
X235954819Y-45714285D01*
X234954819Y-44428571D02*
X234954819Y-44619047D01*
X234954819Y-44619047D02*
X235002438Y-44714285D01*
X235002438Y-44714285D02*
X235050057Y-44761904D01*
X235050057Y-44761904D02*
X235192914Y-44857142D01*
X235192914Y-44857142D02*
X235383390Y-44904761D01*
X235383390Y-44904761D02*
X235764342Y-44904761D01*
X235764342Y-44904761D02*
X235859580Y-44857142D01*
X235859580Y-44857142D02*
X235907200Y-44809523D01*
X235907200Y-44809523D02*
X235954819Y-44714285D01*
X235954819Y-44714285D02*
X235954819Y-44523809D01*
X235954819Y-44523809D02*
X235907200Y-44428571D01*
X235907200Y-44428571D02*
X235859580Y-44380952D01*
X235859580Y-44380952D02*
X235764342Y-44333333D01*
X235764342Y-44333333D02*
X235526247Y-44333333D01*
X235526247Y-44333333D02*
X235431009Y-44380952D01*
X235431009Y-44380952D02*
X235383390Y-44428571D01*
X235383390Y-44428571D02*
X235335771Y-44523809D01*
X235335771Y-44523809D02*
X235335771Y-44714285D01*
X235335771Y-44714285D02*
X235383390Y-44809523D01*
X235383390Y-44809523D02*
X235431009Y-44857142D01*
X235431009Y-44857142D02*
X235526247Y-44904761D01*
X402954819Y-45809523D02*
X403669104Y-45809523D01*
X403669104Y-45809523D02*
X403811961Y-45857142D01*
X403811961Y-45857142D02*
X403907200Y-45952380D01*
X403907200Y-45952380D02*
X403954819Y-46095237D01*
X403954819Y-46095237D02*
X403954819Y-46190475D01*
X403954819Y-44809523D02*
X403954819Y-45380951D01*
X403954819Y-45095237D02*
X402954819Y-45095237D01*
X402954819Y-45095237D02*
X403097676Y-45190475D01*
X403097676Y-45190475D02*
X403192914Y-45285713D01*
X403192914Y-45285713D02*
X403240533Y-45380951D01*
X402954819Y-44190475D02*
X402954819Y-44095237D01*
X402954819Y-44095237D02*
X403002438Y-43999999D01*
X403002438Y-43999999D02*
X403050057Y-43952380D01*
X403050057Y-43952380D02*
X403145295Y-43904761D01*
X403145295Y-43904761D02*
X403335771Y-43857142D01*
X403335771Y-43857142D02*
X403573866Y-43857142D01*
X403573866Y-43857142D02*
X403764342Y-43904761D01*
X403764342Y-43904761D02*
X403859580Y-43952380D01*
X403859580Y-43952380D02*
X403907200Y-43999999D01*
X403907200Y-43999999D02*
X403954819Y-44095237D01*
X403954819Y-44095237D02*
X403954819Y-44190475D01*
X403954819Y-44190475D02*
X403907200Y-44285713D01*
X403907200Y-44285713D02*
X403859580Y-44333332D01*
X403859580Y-44333332D02*
X403764342Y-44380951D01*
X403764342Y-44380951D02*
X403573866Y-44428570D01*
X403573866Y-44428570D02*
X403335771Y-44428570D01*
X403335771Y-44428570D02*
X403145295Y-44380951D01*
X403145295Y-44380951D02*
X403050057Y-44333332D01*
X403050057Y-44333332D02*
X403002438Y-44285713D01*
X403002438Y-44285713D02*
X402954819Y-44190475D01*
X24954819Y-45333333D02*
X25669104Y-45333333D01*
X25669104Y-45333333D02*
X25811961Y-45380952D01*
X25811961Y-45380952D02*
X25907200Y-45476190D01*
X25907200Y-45476190D02*
X25954819Y-45619047D01*
X25954819Y-45619047D02*
X25954819Y-45714285D01*
X25954819Y-44333333D02*
X25954819Y-44904761D01*
X25954819Y-44619047D02*
X24954819Y-44619047D01*
X24954819Y-44619047D02*
X25097676Y-44714285D01*
X25097676Y-44714285D02*
X25192914Y-44809523D01*
X25192914Y-44809523D02*
X25240533Y-44904761D01*
X108954819Y-45333333D02*
X109669104Y-45333333D01*
X109669104Y-45333333D02*
X109811961Y-45380952D01*
X109811961Y-45380952D02*
X109907200Y-45476190D01*
X109907200Y-45476190D02*
X109954819Y-45619047D01*
X109954819Y-45619047D02*
X109954819Y-45714285D01*
X108954819Y-44952380D02*
X108954819Y-44333333D01*
X108954819Y-44333333D02*
X109335771Y-44666666D01*
X109335771Y-44666666D02*
X109335771Y-44523809D01*
X109335771Y-44523809D02*
X109383390Y-44428571D01*
X109383390Y-44428571D02*
X109431009Y-44380952D01*
X109431009Y-44380952D02*
X109526247Y-44333333D01*
X109526247Y-44333333D02*
X109764342Y-44333333D01*
X109764342Y-44333333D02*
X109859580Y-44380952D01*
X109859580Y-44380952D02*
X109907200Y-44428571D01*
X109907200Y-44428571D02*
X109954819Y-44523809D01*
X109954819Y-44523809D02*
X109954819Y-44809523D01*
X109954819Y-44809523D02*
X109907200Y-44904761D01*
X109907200Y-44904761D02*
X109859580Y-44952380D01*
D13*
X438336904Y-290579271D02*
X438336904Y-289309271D01*
X438336904Y-289309271D02*
X438760238Y-290216414D01*
X438760238Y-290216414D02*
X439183571Y-289309271D01*
X439183571Y-289309271D02*
X439183571Y-290579271D01*
X439788333Y-290579271D02*
X439788333Y-289309271D01*
X440514048Y-290579271D02*
X439969762Y-289853556D01*
X440514048Y-289309271D02*
X439788333Y-290034985D01*
X441602619Y-289732604D02*
X441602619Y-290579271D01*
X441300238Y-289248795D02*
X440997857Y-290155937D01*
X440997857Y-290155937D02*
X441784048Y-290155937D01*
D14*
X67833333Y-217284819D02*
X67500000Y-216808628D01*
X67261905Y-217284819D02*
X67261905Y-216284819D01*
X67261905Y-216284819D02*
X67642857Y-216284819D01*
X67642857Y-216284819D02*
X67738095Y-216332438D01*
X67738095Y-216332438D02*
X67785714Y-216380057D01*
X67785714Y-216380057D02*
X67833333Y-216475295D01*
X67833333Y-216475295D02*
X67833333Y-216618152D01*
X67833333Y-216618152D02*
X67785714Y-216713390D01*
X67785714Y-216713390D02*
X67738095Y-216761009D01*
X67738095Y-216761009D02*
X67642857Y-216808628D01*
X67642857Y-216808628D02*
X67261905Y-216808628D01*
X68785714Y-217284819D02*
X68214286Y-217284819D01*
X68500000Y-217284819D02*
X68500000Y-216284819D01*
X68500000Y-216284819D02*
X68404762Y-216427676D01*
X68404762Y-216427676D02*
X68309524Y-216522914D01*
X68309524Y-216522914D02*
X68214286Y-216570533D01*
X67833333Y-221284819D02*
X67500000Y-220808628D01*
X67261905Y-221284819D02*
X67261905Y-220284819D01*
X67261905Y-220284819D02*
X67642857Y-220284819D01*
X67642857Y-220284819D02*
X67738095Y-220332438D01*
X67738095Y-220332438D02*
X67785714Y-220380057D01*
X67785714Y-220380057D02*
X67833333Y-220475295D01*
X67833333Y-220475295D02*
X67833333Y-220618152D01*
X67833333Y-220618152D02*
X67785714Y-220713390D01*
X67785714Y-220713390D02*
X67738095Y-220761009D01*
X67738095Y-220761009D02*
X67642857Y-220808628D01*
X67642857Y-220808628D02*
X67261905Y-220808628D01*
X68214286Y-220380057D02*
X68261905Y-220332438D01*
X68261905Y-220332438D02*
X68357143Y-220284819D01*
X68357143Y-220284819D02*
X68595238Y-220284819D01*
X68595238Y-220284819D02*
X68690476Y-220332438D01*
X68690476Y-220332438D02*
X68738095Y-220380057D01*
X68738095Y-220380057D02*
X68785714Y-220475295D01*
X68785714Y-220475295D02*
X68785714Y-220570533D01*
X68785714Y-220570533D02*
X68738095Y-220713390D01*
X68738095Y-220713390D02*
X68166667Y-221284819D01*
X68166667Y-221284819D02*
X68785714Y-221284819D01*
%TO.C,U5*%
D15*
X387650000Y-145000000D02*
X392350000Y-145000000D01*
X387650000Y-155000000D02*
X387650000Y-145000000D01*
X392350000Y-145000000D02*
X392350000Y-155000000D01*
X392350000Y-155000000D02*
X387650000Y-155000000D01*
%TO.C,C4*%
X74859420Y-219490000D02*
X75140580Y-219490000D01*
X74859420Y-220510000D02*
X75140580Y-220510000D01*
%TO.C,C1*%
X38150000Y-207240000D02*
X39400000Y-207240000D01*
X38775000Y-206615000D02*
X38775000Y-207865000D01*
X39640000Y-205704437D02*
X39640000Y-208490000D01*
X39640000Y-205704437D02*
X40704437Y-204640000D01*
X39640000Y-214295563D02*
X39640000Y-211510000D01*
X39640000Y-214295563D02*
X40704437Y-215360000D01*
X40704437Y-204640000D02*
X50360000Y-204640000D01*
X40704437Y-215360000D02*
X50360000Y-215360000D01*
X50360000Y-204640000D02*
X50360000Y-208490000D01*
X50360000Y-215360000D02*
X50360000Y-211510000D01*
%TO.C,J21*%
X20850000Y-73850000D02*
X29150000Y-73850000D01*
X20850000Y-126150000D02*
X20850000Y-73850000D01*
X29150000Y-73850000D02*
X29150000Y-126150000D01*
X29150000Y-126150000D02*
X20850000Y-126150000D01*
%TO.C,J22*%
X20850000Y-163850000D02*
X29150000Y-163850000D01*
X20850000Y-216150000D02*
X20850000Y-163850000D01*
X29150000Y-163850000D02*
X29150000Y-216150000D01*
X29150000Y-216150000D02*
X20850000Y-216150000D01*
%TO.C,U1*%
X204850000Y-129850000D02*
X245150000Y-129850000D01*
X204850000Y-170150000D02*
X204850000Y-129850000D01*
X245150000Y-129850000D02*
X245150000Y-170150000D01*
X245150000Y-170150000D02*
X204850000Y-170150000D01*
%TO.C,U6*%
X57350000Y-207350000D02*
X62650000Y-207350000D01*
X57350000Y-212650000D02*
X57350000Y-207350000D01*
X62650000Y-207350000D02*
X62650000Y-212650000D01*
X62650000Y-212650000D02*
X57350000Y-212650000D01*
%TO.C,U3*%
X282350000Y-143850000D02*
X297650000Y-143850000D01*
X282350000Y-156150000D02*
X282350000Y-143850000D01*
X297650000Y-143850000D02*
X297650000Y-156150000D01*
X297650000Y-156150000D02*
X282350000Y-156150000D01*
%TO.C,U4*%
X339850000Y-139850000D02*
X360150000Y-139850000D01*
X339850000Y-160150000D02*
X339850000Y-139850000D01*
X360150000Y-139850000D02*
X360150000Y-160150000D01*
X360150000Y-160150000D02*
X339850000Y-160150000D01*
%TO.C,U2*%
X137850000Y-137850000D02*
X162150000Y-137850000D01*
X137850000Y-162150000D02*
X137850000Y-137850000D01*
X162150000Y-137850000D02*
X162150000Y-162150000D01*
X162150000Y-162150000D02*
X137850000Y-162150000D01*
%TO.C,C2*%
X44738748Y-219265000D02*
X45261252Y-219265000D01*
X44738748Y-220735000D02*
X45261252Y-220735000D01*
%TO.C,J15*%
X193850000Y-242850000D02*
X202150000Y-242850000D01*
X193850000Y-287150000D02*
X193850000Y-242850000D01*
X202150000Y-242850000D02*
X202150000Y-287150000D01*
X202150000Y-287150000D02*
X193850000Y-287150000D01*
%TO.C,J11*%
X25850000Y-242850000D02*
X34150000Y-242850000D01*
X25850000Y-287150000D02*
X25850000Y-242850000D01*
X34150000Y-242850000D02*
X34150000Y-287150000D01*
X34150000Y-287150000D02*
X25850000Y-287150000D01*
%TO.C,J20*%
X403850000Y-242850000D02*
X412150000Y-242850000D01*
X403850000Y-287150000D02*
X403850000Y-242850000D01*
X412150000Y-242850000D02*
X412150000Y-287150000D01*
X412150000Y-287150000D02*
X403850000Y-287150000D01*
%TO.C,J19*%
X361850000Y-242850000D02*
X370150000Y-242850000D01*
X361850000Y-287150000D02*
X361850000Y-242850000D01*
X370150000Y-242850000D02*
X370150000Y-287150000D01*
X370150000Y-287150000D02*
X361850000Y-287150000D01*
%TO.C,J14*%
X151850000Y-242850000D02*
X160150000Y-242850000D01*
X151850000Y-287150000D02*
X151850000Y-242850000D01*
X160150000Y-242850000D02*
X160150000Y-287150000D01*
X160150000Y-287150000D02*
X151850000Y-287150000D01*
%TO.C,J16*%
X235850000Y-242850000D02*
X244150000Y-242850000D01*
X235850000Y-287150000D02*
X235850000Y-242850000D01*
X244150000Y-242850000D02*
X244150000Y-287150000D01*
X244150000Y-287150000D02*
X235850000Y-287150000D01*
%TO.C,J13*%
X109850000Y-242850000D02*
X118150000Y-242850000D01*
X109850000Y-287150000D02*
X109850000Y-242850000D01*
X118150000Y-242850000D02*
X118150000Y-287150000D01*
X118150000Y-287150000D02*
X109850000Y-287150000D01*
%TO.C,J17*%
X277850000Y-242850000D02*
X286150000Y-242850000D01*
X277850000Y-287150000D02*
X277850000Y-242850000D01*
X286150000Y-242850000D02*
X286150000Y-287150000D01*
X286150000Y-287150000D02*
X277850000Y-287150000D01*
%TO.C,J18*%
X319850000Y-242850000D02*
X328150000Y-242850000D01*
X319850000Y-287150000D02*
X319850000Y-242850000D01*
X328150000Y-242850000D02*
X328150000Y-287150000D01*
X328150000Y-287150000D02*
X319850000Y-287150000D01*
%TO.C,J12*%
X67850000Y-242850000D02*
X76150000Y-242850000D01*
X67850000Y-287150000D02*
X67850000Y-242850000D01*
X76150000Y-242850000D02*
X76150000Y-287150000D01*
X76150000Y-287150000D02*
X67850000Y-287150000D01*
%TO.C,C3*%
X69400000Y-207490000D02*
X70400000Y-207490000D01*
X69900000Y-206990000D02*
X69900000Y-207990000D01*
X70640000Y-206704437D02*
X70640000Y-208490000D01*
X70640000Y-206704437D02*
X71704437Y-205640000D01*
X70640000Y-213295563D02*
X70640000Y-211510000D01*
X70640000Y-213295563D02*
X71704437Y-214360000D01*
X71704437Y-205640000D02*
X79360000Y-205640000D01*
X71704437Y-214360000D02*
X79360000Y-214360000D01*
X79360000Y-205640000D02*
X79360000Y-208490000D01*
X79360000Y-214360000D02*
X79360000Y-211510000D01*
%TO.C,J5*%
X195350000Y-10850000D02*
X200650000Y-10850000D01*
X195350000Y-79150000D02*
X195350000Y-10850000D01*
X200650000Y-10850000D02*
X200650000Y-79150000D01*
X200650000Y-79150000D02*
X195350000Y-79150000D01*
%TO.C,J2*%
X69350000Y-10850000D02*
X74650000Y-10850000D01*
X69350000Y-79150000D02*
X69350000Y-10850000D01*
X74650000Y-10850000D02*
X74650000Y-79150000D01*
X74650000Y-79150000D02*
X69350000Y-79150000D01*
%TO.C,J7*%
X279350000Y-10850000D02*
X284650000Y-10850000D01*
X279350000Y-79150000D02*
X279350000Y-10850000D01*
X284650000Y-10850000D02*
X284650000Y-79150000D01*
X284650000Y-79150000D02*
X279350000Y-79150000D01*
%TO.C,J8*%
X321350000Y-10850000D02*
X326650000Y-10850000D01*
X321350000Y-79150000D02*
X321350000Y-10850000D01*
X326650000Y-10850000D02*
X326650000Y-79150000D01*
X326650000Y-79150000D02*
X321350000Y-79150000D01*
%TO.C,J9*%
X363350000Y-10850000D02*
X368650000Y-10850000D01*
X363350000Y-79150000D02*
X363350000Y-10850000D01*
X368650000Y-10850000D02*
X368650000Y-79150000D01*
X368650000Y-79150000D02*
X363350000Y-79150000D01*
%TO.C,J4*%
X153350000Y-10850000D02*
X158650000Y-10850000D01*
X153350000Y-79150000D02*
X153350000Y-10850000D01*
X158650000Y-10850000D02*
X158650000Y-79150000D01*
X158650000Y-79150000D02*
X153350000Y-79150000D01*
%TO.C,J6*%
X237350000Y-10850000D02*
X242650000Y-10850000D01*
X237350000Y-79150000D02*
X237350000Y-10850000D01*
X242650000Y-10850000D02*
X242650000Y-79150000D01*
X242650000Y-79150000D02*
X237350000Y-79150000D01*
%TO.C,J10*%
X405350000Y-10850000D02*
X410650000Y-10850000D01*
X405350000Y-79150000D02*
X405350000Y-10850000D01*
X410650000Y-10850000D02*
X410650000Y-79150000D01*
X410650000Y-79150000D02*
X405350000Y-79150000D01*
%TO.C,J1*%
X27350000Y-10850000D02*
X32650000Y-10850000D01*
X27350000Y-79150000D02*
X27350000Y-10850000D01*
X32650000Y-10850000D02*
X32650000Y-79150000D01*
X32650000Y-79150000D02*
X27350000Y-79150000D01*
%TO.C,J3*%
X111350000Y-10850000D02*
X116650000Y-10850000D01*
X111350000Y-79150000D02*
X111350000Y-10850000D01*
X116650000Y-10850000D02*
X116650000Y-79150000D01*
X116650000Y-79150000D02*
X111350000Y-79150000D01*
%TO.C,R1*%
X67846359Y-217620000D02*
X68153641Y-217620000D01*
X67846359Y-218380000D02*
X68153641Y-218380000D01*
%TO.C,R2*%
X67846359Y-221620000D02*
X68153641Y-221620000D01*
X67846359Y-222380000D02*
X68153641Y-222380000D01*
%TD*%
M02*
