%TF.GenerationSoftware,KiCad,Pcbnew,10.0.5*%
%TF.CreationDate,2026-08-04T17:32:04-07:00*%
%TF.ProjectId,palpod-compute-backplane-real,70616c70-6f64-42d6-936f-6d707574652d,A0*%
%TF.SameCoordinates,Original*%
%TF.FileFunction,Other,User*%
%FSLAX46Y46*%
G04 Gerber Fmt 4.6, Leading zero omitted, Abs format (unit mm)*
G04 Created by KiCad (PCBNEW 10.0.5) date 2026-08-04 17:32:04*
%MOMM*%
%LPD*%
G01*
G04 APERTURE LIST*
%ADD10C,0.050000*%
G04 APERTURE END LIST*
%TO.C,U5*%
D10*
X387300000Y-144650000D02*
X392700000Y-144650000D01*
X387300000Y-155350000D02*
X387300000Y-144650000D01*
X392700000Y-144650000D02*
X392700000Y-155350000D01*
X392700000Y-155350000D02*
X387300000Y-155350000D01*
%TO.C,C4*%
X73520000Y-219270000D02*
X76480000Y-219270000D01*
X76480000Y-220730000D01*
X73520000Y-220730000D01*
X73520000Y-219270000D01*
%TO.C,C1*%
X38350000Y-208500000D02*
X38350000Y-211500000D01*
X38350000Y-211500000D02*
X39500000Y-211500000D01*
X39500000Y-205650000D02*
X39500000Y-208500000D01*
X39500000Y-205650000D02*
X40650000Y-204500000D01*
X39500000Y-208500000D02*
X38350000Y-208500000D01*
X39500000Y-211500000D02*
X39500000Y-214350000D01*
X39500000Y-214350000D02*
X40650000Y-215500000D01*
X40650000Y-204500000D02*
X50500000Y-204500000D01*
X40650000Y-215500000D02*
X50500000Y-215500000D01*
X50500000Y-204500000D02*
X50500000Y-208500000D01*
X50500000Y-208500000D02*
X51650000Y-208500000D01*
X50500000Y-211500000D02*
X50500000Y-215500000D01*
X51650000Y-208500000D02*
X51650000Y-211500000D01*
X51650000Y-211500000D02*
X50500000Y-211500000D01*
%TO.C,J21*%
X20500000Y-73500000D02*
X29500000Y-73500000D01*
X20500000Y-126500000D02*
X20500000Y-73500000D01*
X29500000Y-73500000D02*
X29500000Y-126500000D01*
X29500000Y-126500000D02*
X20500000Y-126500000D01*
%TO.C,J22*%
X20500000Y-163500000D02*
X29500000Y-163500000D01*
X20500000Y-216500000D02*
X20500000Y-163500000D01*
X29500000Y-163500000D02*
X29500000Y-216500000D01*
X29500000Y-216500000D02*
X20500000Y-216500000D01*
%TO.C,U1*%
X204500000Y-129500000D02*
X245500000Y-129500000D01*
X204500000Y-170500000D02*
X204500000Y-129500000D01*
X245500000Y-129500000D02*
X245500000Y-170500000D01*
X245500000Y-170500000D02*
X204500000Y-170500000D01*
%TO.C,U6*%
X57000000Y-207000000D02*
X63000000Y-207000000D01*
X57000000Y-213000000D02*
X57000000Y-207000000D01*
X63000000Y-207000000D02*
X63000000Y-213000000D01*
X63000000Y-213000000D02*
X57000000Y-213000000D01*
%TO.C,U3*%
X282000000Y-143500000D02*
X298000000Y-143500000D01*
X282000000Y-156500000D02*
X282000000Y-143500000D01*
X298000000Y-143500000D02*
X298000000Y-156500000D01*
X298000000Y-156500000D02*
X282000000Y-156500000D01*
%TO.C,U4*%
X339500000Y-139500000D02*
X360500000Y-139500000D01*
X339500000Y-160500000D02*
X339500000Y-139500000D01*
X360500000Y-139500000D02*
X360500000Y-160500000D01*
X360500000Y-160500000D02*
X339500000Y-160500000D01*
%TO.C,U2*%
X137500000Y-137500000D02*
X162500000Y-137500000D01*
X137500000Y-162500000D02*
X137500000Y-137500000D01*
X162500000Y-137500000D02*
X162500000Y-162500000D01*
X162500000Y-162500000D02*
X137500000Y-162500000D01*
%TO.C,C2*%
X43300000Y-219020000D02*
X46700000Y-219020000D01*
X46700000Y-220980000D01*
X43300000Y-220980000D01*
X43300000Y-219020000D01*
%TO.C,J15*%
X193500000Y-242500000D02*
X202500000Y-242500000D01*
X193500000Y-287500000D02*
X193500000Y-242500000D01*
X202500000Y-242500000D02*
X202500000Y-287500000D01*
X202500000Y-287500000D02*
X193500000Y-287500000D01*
%TO.C,J11*%
X25500000Y-242500000D02*
X34500000Y-242500000D01*
X25500000Y-287500000D02*
X25500000Y-242500000D01*
X34500000Y-242500000D02*
X34500000Y-287500000D01*
X34500000Y-287500000D02*
X25500000Y-287500000D01*
%TO.C,J20*%
X403500000Y-242500000D02*
X412500000Y-242500000D01*
X403500000Y-287500000D02*
X403500000Y-242500000D01*
X412500000Y-242500000D02*
X412500000Y-287500000D01*
X412500000Y-287500000D02*
X403500000Y-287500000D01*
%TO.C,J19*%
X361500000Y-242500000D02*
X370500000Y-242500000D01*
X361500000Y-287500000D02*
X361500000Y-242500000D01*
X370500000Y-242500000D02*
X370500000Y-287500000D01*
X370500000Y-287500000D02*
X361500000Y-287500000D01*
%TO.C,J14*%
X151500000Y-242500000D02*
X160500000Y-242500000D01*
X151500000Y-287500000D02*
X151500000Y-242500000D01*
X160500000Y-242500000D02*
X160500000Y-287500000D01*
X160500000Y-287500000D02*
X151500000Y-287500000D01*
%TO.C,J16*%
X235500000Y-242500000D02*
X244500000Y-242500000D01*
X235500000Y-287500000D02*
X235500000Y-242500000D01*
X244500000Y-242500000D02*
X244500000Y-287500000D01*
X244500000Y-287500000D02*
X235500000Y-287500000D01*
%TO.C,J13*%
X109500000Y-242500000D02*
X118500000Y-242500000D01*
X109500000Y-287500000D02*
X109500000Y-242500000D01*
X118500000Y-242500000D02*
X118500000Y-287500000D01*
X118500000Y-287500000D02*
X109500000Y-287500000D01*
%TO.C,J17*%
X277500000Y-242500000D02*
X286500000Y-242500000D01*
X277500000Y-287500000D02*
X277500000Y-242500000D01*
X286500000Y-242500000D02*
X286500000Y-287500000D01*
X286500000Y-287500000D02*
X277500000Y-287500000D01*
%TO.C,J18*%
X319500000Y-242500000D02*
X328500000Y-242500000D01*
X319500000Y-287500000D02*
X319500000Y-242500000D01*
X328500000Y-242500000D02*
X328500000Y-287500000D01*
X328500000Y-287500000D02*
X319500000Y-287500000D01*
%TO.C,J12*%
X67500000Y-242500000D02*
X76500000Y-242500000D01*
X67500000Y-287500000D02*
X67500000Y-242500000D01*
X76500000Y-242500000D02*
X76500000Y-287500000D01*
X76500000Y-287500000D02*
X67500000Y-287500000D01*
%TO.C,C3*%
X68850000Y-208500000D02*
X68850000Y-211500000D01*
X68850000Y-211500000D02*
X70500000Y-211500000D01*
X70500000Y-206650000D02*
X70500000Y-208500000D01*
X70500000Y-206650000D02*
X71650000Y-205500000D01*
X70500000Y-208500000D02*
X68850000Y-208500000D01*
X70500000Y-211500000D02*
X70500000Y-213350000D01*
X70500000Y-213350000D02*
X71650000Y-214500000D01*
X71650000Y-205500000D02*
X79500000Y-205500000D01*
X71650000Y-214500000D02*
X79500000Y-214500000D01*
X79500000Y-205500000D02*
X79500000Y-208500000D01*
X79500000Y-208500000D02*
X81150000Y-208500000D01*
X79500000Y-211500000D02*
X79500000Y-214500000D01*
X81150000Y-208500000D02*
X81150000Y-211500000D01*
X81150000Y-211500000D02*
X79500000Y-211500000D01*
%TO.C,J5*%
X195000000Y-10500000D02*
X201000000Y-10500000D01*
X195000000Y-79500000D02*
X195000000Y-10500000D01*
X201000000Y-10500000D02*
X201000000Y-79500000D01*
X201000000Y-79500000D02*
X195000000Y-79500000D01*
%TO.C,J2*%
X69000000Y-10500000D02*
X75000000Y-10500000D01*
X69000000Y-79500000D02*
X69000000Y-10500000D01*
X75000000Y-10500000D02*
X75000000Y-79500000D01*
X75000000Y-79500000D02*
X69000000Y-79500000D01*
%TO.C,J7*%
X279000000Y-10500000D02*
X285000000Y-10500000D01*
X279000000Y-79500000D02*
X279000000Y-10500000D01*
X285000000Y-10500000D02*
X285000000Y-79500000D01*
X285000000Y-79500000D02*
X279000000Y-79500000D01*
%TO.C,J8*%
X321000000Y-10500000D02*
X327000000Y-10500000D01*
X321000000Y-79500000D02*
X321000000Y-10500000D01*
X327000000Y-10500000D02*
X327000000Y-79500000D01*
X327000000Y-79500000D02*
X321000000Y-79500000D01*
%TO.C,J9*%
X363000000Y-10500000D02*
X369000000Y-10500000D01*
X363000000Y-79500000D02*
X363000000Y-10500000D01*
X369000000Y-10500000D02*
X369000000Y-79500000D01*
X369000000Y-79500000D02*
X363000000Y-79500000D01*
%TO.C,J4*%
X153000000Y-10500000D02*
X159000000Y-10500000D01*
X153000000Y-79500000D02*
X153000000Y-10500000D01*
X159000000Y-10500000D02*
X159000000Y-79500000D01*
X159000000Y-79500000D02*
X153000000Y-79500000D01*
%TO.C,J6*%
X237000000Y-10500000D02*
X243000000Y-10500000D01*
X237000000Y-79500000D02*
X237000000Y-10500000D01*
X243000000Y-10500000D02*
X243000000Y-79500000D01*
X243000000Y-79500000D02*
X237000000Y-79500000D01*
%TO.C,J10*%
X405000000Y-10500000D02*
X411000000Y-10500000D01*
X405000000Y-79500000D02*
X405000000Y-10500000D01*
X411000000Y-10500000D02*
X411000000Y-79500000D01*
X411000000Y-79500000D02*
X405000000Y-79500000D01*
%TO.C,J1*%
X27000000Y-10500000D02*
X33000000Y-10500000D01*
X27000000Y-79500000D02*
X27000000Y-10500000D01*
X33000000Y-10500000D02*
X33000000Y-79500000D01*
X33000000Y-79500000D02*
X27000000Y-79500000D01*
%TO.C,J3*%
X111000000Y-10500000D02*
X117000000Y-10500000D01*
X111000000Y-79500000D02*
X111000000Y-10500000D01*
X117000000Y-10500000D02*
X117000000Y-79500000D01*
X117000000Y-79500000D02*
X111000000Y-79500000D01*
%TO.C,R1*%
X67070000Y-217530000D02*
X68930000Y-217530000D01*
X68930000Y-218470000D01*
X67070000Y-218470000D01*
X67070000Y-217530000D01*
%TO.C,R2*%
X67070000Y-221530000D02*
X68930000Y-221530000D01*
X68930000Y-222470000D01*
X67070000Y-222470000D01*
X67070000Y-221530000D01*
%TD*%
M02*
