%TF.GenerationSoftware,KiCad,Pcbnew,10.0.5*%
%TF.CreationDate,2026-08-04T17:32:04-07:00*%
%TF.ProjectId,palpod-compute-backplane-real,70616c70-6f64-42d6-936f-6d707574652d,A0*%
%TF.SameCoordinates,Original*%
%TF.FileFunction,Soldermask,Bot*%
%TF.FilePolarity,Negative*%
%FSLAX46Y46*%
G04 Gerber Fmt 4.6, Leading zero omitted, Abs format (unit mm)*
G04 Created by KiCad (PCBNEW 10.0.5) date 2026-08-04 17:32:04*
%MOMM*%
%LPD*%
G01*
G04 APERTURE LIST*
%ADD10C,3.200000*%
%ADD11C,3.000000*%
G04 APERTURE END LIST*
D10*
%TO.C,MK2*%
X440000000Y-10000000D03*
%TD*%
%TO.C,MK1*%
X10000000Y-10000000D03*
%TD*%
%TO.C,MK3*%
X10000000Y-290000000D03*
%TD*%
D11*
%TO.C,J21*%
X22900000Y-123100000D03*
X22900000Y-118900000D03*
X22900000Y-114700000D03*
X22900000Y-110500000D03*
X22900000Y-106300000D03*
X22900000Y-102100000D03*
X22900000Y-97900000D03*
X22900000Y-93700000D03*
X22900000Y-89500000D03*
X22900000Y-85300000D03*
X22900000Y-81100000D03*
X22900000Y-76900000D03*
X27100000Y-123100000D03*
X27100000Y-118900000D03*
X27100000Y-114700000D03*
X27100000Y-110500000D03*
X27100000Y-106300000D03*
X27100000Y-102100000D03*
X27100000Y-97900000D03*
X27100000Y-93700000D03*
X27100000Y-89500000D03*
X27100000Y-85300000D03*
X27100000Y-81100000D03*
X27100000Y-76900000D03*
%TD*%
%TO.C,J22*%
X22900000Y-213100000D03*
X22900000Y-208900000D03*
X22900000Y-204700000D03*
X22900000Y-200500000D03*
X22900000Y-196300000D03*
X22900000Y-192100000D03*
X22900000Y-187900000D03*
X22900000Y-183700000D03*
X22900000Y-179500000D03*
X22900000Y-175300000D03*
X22900000Y-171100000D03*
X22900000Y-166900000D03*
X27100000Y-213100000D03*
X27100000Y-208900000D03*
X27100000Y-204700000D03*
X27100000Y-200500000D03*
X27100000Y-196300000D03*
X27100000Y-192100000D03*
X27100000Y-187900000D03*
X27100000Y-183700000D03*
X27100000Y-179500000D03*
X27100000Y-175300000D03*
X27100000Y-171100000D03*
X27100000Y-166900000D03*
%TD*%
D10*
%TO.C,MK6*%
X225000000Y-290000000D03*
%TD*%
%TO.C,MK5*%
X225000000Y-10000000D03*
%TD*%
%TO.C,MK4*%
X440000000Y-290000000D03*
%TD*%
M02*
