M48
; DRILL file KiCad 10.0.5 date 2026-08-04T17:32:05
; FORMAT={-:-/ absolute / metric / decimal}
; #@! TF.CreationDate,2026-08-04T17:32:05-07:00
; #@! TF.GenerationSoftware,Kicad,Pcbnew,10.0.5
; #@! TF.FileFunction,MixedPlating,1,4
FMAT,2
METRIC
; #@! TA.AperFunction,Plated,PTH,ComponentDrill
T1C1.700
; #@! TA.AperFunction,NonPlated,NPTH,ComponentDrill
T2C3.200
%
G90
G05
T1
X22.9Y-76.9
X22.9Y-81.1
X22.9Y-85.3
X22.9Y-89.5
X22.9Y-93.7
X22.9Y-97.9
X22.9Y-102.1
X22.9Y-106.3
X22.9Y-110.5
X22.9Y-114.7
X22.9Y-118.9
X22.9Y-123.1
X22.9Y-166.9
X22.9Y-171.1
X22.9Y-175.3
X22.9Y-179.5
X22.9Y-183.7
X22.9Y-187.9
X22.9Y-192.1
X22.9Y-196.3
X22.9Y-200.5
X22.9Y-204.7
X22.9Y-208.9
X22.9Y-213.1
X27.1Y-76.9
X27.1Y-81.1
X27.1Y-85.3
X27.1Y-89.5
X27.1Y-93.7
X27.1Y-97.9
X27.1Y-102.1
X27.1Y-106.3
X27.1Y-110.5
X27.1Y-114.7
X27.1Y-118.9
X27.1Y-123.1
X27.1Y-166.9
X27.1Y-171.1
X27.1Y-175.3
X27.1Y-179.5
X27.1Y-183.7
X27.1Y-187.9
X27.1Y-192.1
X27.1Y-196.3
X27.1Y-200.5
X27.1Y-204.7
X27.1Y-208.9
X27.1Y-213.1
T2
X10.0Y-10.0
X10.0Y-290.0
X225.0Y-10.0
X225.0Y-290.0
X440.0Y-10.0
X440.0Y-290.0
M30
