%TF.GenerationSoftware,KiCad,Pcbnew,10.0.5*%
%TF.CreationDate,2026-08-03T20:31:47-07:00*%
%TF.ProjectId,palpod-compute-backplane-routed,70616c70-6f64-42d6-936f-6d707574652d,A0*%
%TF.SameCoordinates,Original*%
%TF.FileFunction,Other,User*%
%FSLAX46Y46*%
G04 Gerber Fmt 4.6, Leading zero omitted, Abs format (unit mm)*
G04 Created by KiCad (PCBNEW 10.0.5) date 2026-08-03 20:31:47*
%MOMM*%
%LPD*%
G01*
G04 APERTURE LIST*
%ADD10C,0.050000*%
G04 APERTURE END LIST*
%TO.C,U2*%
D10*
X102462500Y-16604166D02*
X127462500Y-16604166D01*
X102462500Y-41604166D02*
X102462500Y-16604166D01*
X127462500Y-16604166D02*
X127462500Y-41604166D01*
X127462500Y-41604166D02*
X102462500Y-41604166D01*
%TO.C,U5*%
X332337500Y-23754166D02*
X337737500Y-23754166D01*
X332337500Y-34454166D02*
X332337500Y-23754166D01*
X337737500Y-23754166D02*
X337737500Y-34454166D01*
X337737500Y-34454166D02*
X332337500Y-34454166D01*
%TO.C,R1*%
X187390833Y-270425833D02*
X189250833Y-270425833D01*
X189250833Y-271365833D01*
X187390833Y-271365833D01*
X187390833Y-270425833D01*
%TO.C,R2*%
X260749166Y-270425833D02*
X262609166Y-270425833D01*
X262609166Y-271365833D01*
X260749166Y-271365833D01*
X260749166Y-270425833D01*
%TO.C,J14*%
X385895833Y-72962500D02*
X430895833Y-72962500D01*
X385895833Y-81962500D02*
X385895833Y-72962500D01*
X430895833Y-72962500D02*
X430895833Y-81962500D01*
X430895833Y-81962500D02*
X385895833Y-81962500D01*
%TO.C,J11*%
X165820833Y-72962500D02*
X210820833Y-72962500D01*
X165820833Y-81962500D02*
X165820833Y-72962500D01*
X210820833Y-72962500D02*
X210820833Y-81962500D01*
X210820833Y-81962500D02*
X165820833Y-81962500D01*
%TO.C,J12*%
X239179166Y-72962500D02*
X284179166Y-72962500D01*
X239179166Y-81962500D02*
X239179166Y-72962500D01*
X284179166Y-72962500D02*
X284179166Y-81962500D01*
X284179166Y-81962500D02*
X239179166Y-81962500D01*
%TO.C,J18*%
X239179166Y-121320833D02*
X284179166Y-121320833D01*
X239179166Y-130320833D02*
X239179166Y-121320833D01*
X284179166Y-121320833D02*
X284179166Y-130320833D01*
X284179166Y-130320833D02*
X239179166Y-130320833D01*
%TO.C,J19*%
X312537500Y-121320833D02*
X357537500Y-121320833D01*
X312537500Y-130320833D02*
X312537500Y-121320833D01*
X357537500Y-121320833D02*
X357537500Y-130320833D01*
X357537500Y-130320833D02*
X312537500Y-130320833D01*
%TO.C,J13*%
X312537500Y-72962500D02*
X357537500Y-72962500D01*
X312537500Y-81962500D02*
X312537500Y-72962500D01*
X357537500Y-72962500D02*
X357537500Y-81962500D01*
X357537500Y-81962500D02*
X312537500Y-81962500D01*
%TO.C,J15*%
X19104166Y-121320833D02*
X64104166Y-121320833D01*
X19104166Y-130320833D02*
X19104166Y-121320833D01*
X64104166Y-121320833D02*
X64104166Y-130320833D01*
X64104166Y-130320833D02*
X19104166Y-130320833D01*
%TO.C,J16*%
X92462500Y-121320833D02*
X137462500Y-121320833D01*
X92462500Y-130320833D02*
X92462500Y-121320833D01*
X137462500Y-121320833D02*
X137462500Y-130320833D01*
X137462500Y-130320833D02*
X92462500Y-130320833D01*
%TO.C,J17*%
X165820833Y-121320833D02*
X210820833Y-121320833D01*
X165820833Y-130320833D02*
X165820833Y-121320833D01*
X210820833Y-121320833D02*
X210820833Y-130320833D01*
X210820833Y-130320833D02*
X165820833Y-130320833D01*
%TO.C,J20*%
X19104166Y-169679166D02*
X64104166Y-169679166D01*
X19104166Y-178679166D02*
X19104166Y-169679166D01*
X64104166Y-169679166D02*
X64104166Y-178679166D01*
X64104166Y-178679166D02*
X19104166Y-178679166D01*
%TO.C,U1*%
X21104166Y-8604166D02*
X62104166Y-8604166D01*
X21104166Y-49604166D02*
X21104166Y-8604166D01*
X62104166Y-8604166D02*
X62104166Y-49604166D01*
X62104166Y-49604166D02*
X21104166Y-49604166D01*
%TO.C,J22*%
X161820833Y-169679166D02*
X214820833Y-169679166D01*
X161820833Y-178679166D02*
X161820833Y-169679166D01*
X214820833Y-169679166D02*
X214820833Y-178679166D01*
X214820833Y-178679166D02*
X161820833Y-178679166D01*
%TO.C,J21*%
X88462500Y-169679166D02*
X141462500Y-169679166D01*
X88462500Y-178679166D02*
X88462500Y-169679166D01*
X141462500Y-169679166D02*
X141462500Y-178679166D01*
X141462500Y-178679166D02*
X88462500Y-178679166D01*
%TO.C,J10*%
X80462500Y-74462500D02*
X149462500Y-74462500D01*
X80462500Y-80462500D02*
X80462500Y-74462500D01*
X149462500Y-74462500D02*
X149462500Y-80462500D01*
X149462500Y-80462500D02*
X80462500Y-80462500D01*
%TO.C,J2*%
X373895833Y-122820833D02*
X442895833Y-122820833D01*
X373895833Y-128820833D02*
X373895833Y-122820833D01*
X442895833Y-122820833D02*
X442895833Y-128820833D01*
X442895833Y-128820833D02*
X373895833Y-128820833D01*
%TO.C,J1*%
X7104166Y-74462500D02*
X76104166Y-74462500D01*
X7104166Y-80462500D02*
X7104166Y-74462500D01*
X76104166Y-74462500D02*
X76104166Y-80462500D01*
X76104166Y-80462500D02*
X7104166Y-80462500D01*
%TO.C,J3*%
X227179166Y-171179166D02*
X296179166Y-171179166D01*
X227179166Y-177179166D02*
X227179166Y-171179166D01*
X296179166Y-171179166D02*
X296179166Y-177179166D01*
X296179166Y-177179166D02*
X227179166Y-177179166D01*
%TO.C,J6*%
X7104166Y-219537500D02*
X76104166Y-219537500D01*
X7104166Y-225537500D02*
X7104166Y-219537500D01*
X76104166Y-219537500D02*
X76104166Y-225537500D01*
X76104166Y-225537500D02*
X7104166Y-225537500D01*
%TO.C,J7*%
X80462500Y-219537500D02*
X149462500Y-219537500D01*
X80462500Y-225537500D02*
X80462500Y-219537500D01*
X149462500Y-219537500D02*
X149462500Y-225537500D01*
X149462500Y-225537500D02*
X80462500Y-225537500D01*
%TO.C,J4*%
X300537500Y-171179166D02*
X369537500Y-171179166D01*
X300537500Y-177179166D02*
X300537500Y-171179166D01*
X369537500Y-171179166D02*
X369537500Y-177179166D01*
X369537500Y-177179166D02*
X300537500Y-177179166D01*
%TO.C,J5*%
X373895833Y-171179166D02*
X442895833Y-171179166D01*
X373895833Y-177179166D02*
X373895833Y-171179166D01*
X442895833Y-171179166D02*
X442895833Y-177179166D01*
X442895833Y-177179166D02*
X373895833Y-177179166D01*
%TO.C,J8*%
X153820833Y-219537500D02*
X222820833Y-219537500D01*
X153820833Y-225537500D02*
X153820833Y-219537500D01*
X222820833Y-219537500D02*
X222820833Y-225537500D01*
X222820833Y-225537500D02*
X153820833Y-225537500D01*
%TO.C,J9*%
X227179166Y-219537500D02*
X296179166Y-219537500D01*
X227179166Y-225537500D02*
X227179166Y-219537500D01*
X296179166Y-219537500D02*
X296179166Y-225537500D01*
X296179166Y-225537500D02*
X227179166Y-225537500D01*
%TO.C,C3*%
X35454166Y-269395833D02*
X35454166Y-272395833D01*
X35454166Y-272395833D02*
X37104166Y-272395833D01*
X37104166Y-267545833D02*
X37104166Y-269395833D01*
X37104166Y-267545833D02*
X38254166Y-266395833D01*
X37104166Y-269395833D02*
X35454166Y-269395833D01*
X37104166Y-272395833D02*
X37104166Y-274245833D01*
X37104166Y-274245833D02*
X38254166Y-275395833D01*
X38254166Y-266395833D02*
X46104166Y-266395833D01*
X38254166Y-275395833D02*
X46104166Y-275395833D01*
X46104166Y-266395833D02*
X46104166Y-269395833D01*
X46104166Y-269395833D02*
X47754166Y-269395833D01*
X46104166Y-272395833D02*
X46104166Y-275395833D01*
X47754166Y-269395833D02*
X47754166Y-272395833D01*
X47754166Y-272395833D02*
X46104166Y-272395833D01*
%TO.C,U3*%
X180320833Y-22604166D02*
X196320833Y-22604166D01*
X180320833Y-35604166D02*
X180320833Y-22604166D01*
X196320833Y-22604166D02*
X196320833Y-35604166D01*
X196320833Y-35604166D02*
X180320833Y-35604166D01*
%TO.C,U6*%
X405395833Y-26104166D02*
X411395833Y-26104166D01*
X405395833Y-32104166D02*
X405395833Y-26104166D01*
X411395833Y-26104166D02*
X411395833Y-32104166D01*
X411395833Y-32104166D02*
X405395833Y-32104166D01*
%TO.C,C4*%
X113482500Y-270165833D02*
X116442500Y-270165833D01*
X116442500Y-271625833D01*
X113482500Y-271625833D01*
X113482500Y-270165833D01*
%TO.C,U4*%
X251179166Y-18604166D02*
X272179166Y-18604166D01*
X251179166Y-39604166D02*
X251179166Y-18604166D01*
X272179166Y-18604166D02*
X272179166Y-39604166D01*
X272179166Y-39604166D02*
X251179166Y-39604166D01*
%TO.C,C1*%
X328387500Y-221037500D02*
X328387500Y-224037500D01*
X328387500Y-224037500D02*
X329537500Y-224037500D01*
X329537500Y-218187500D02*
X329537500Y-221037500D01*
X329537500Y-218187500D02*
X330687500Y-217037500D01*
X329537500Y-221037500D02*
X328387500Y-221037500D01*
X329537500Y-224037500D02*
X329537500Y-226887500D01*
X329537500Y-226887500D02*
X330687500Y-228037500D01*
X330687500Y-217037500D02*
X340537500Y-217037500D01*
X330687500Y-228037500D02*
X340537500Y-228037500D01*
X340537500Y-217037500D02*
X340537500Y-221037500D01*
X340537500Y-221037500D02*
X341687500Y-221037500D01*
X340537500Y-224037500D02*
X340537500Y-228037500D01*
X341687500Y-221037500D02*
X341687500Y-224037500D01*
X341687500Y-224037500D02*
X340537500Y-224037500D01*
%TO.C,C2*%
X406695833Y-221557500D02*
X410095833Y-221557500D01*
X410095833Y-223517500D01*
X406695833Y-223517500D01*
X406695833Y-221557500D01*
%TD*%
M02*
