%TF.GenerationSoftware,KiCad,Pcbnew,10.0.5*%
%TF.CreationDate,2026-08-03T20:31:47-07:00*%
%TF.ProjectId,palpod-compute-backplane-routed,70616c70-6f64-42d6-936f-6d707574652d,A0*%
%TF.SameCoordinates,Original*%
%TF.FileFunction,Legend,Top*%
%TF.FilePolarity,Positive*%
%FSLAX46Y46*%
G04 Gerber Fmt 4.6, Leading zero omitted, Abs format (unit mm)*
G04 Created by KiCad (PCBNEW 10.0.5) date 2026-08-03 20:31:47*
%MOMM*%
%LPD*%
G01*
G04 APERTURE LIST*
%ADD10C,0.200000*%
%ADD11C,0.300000*%
%ADD12C,0.600000*%
%ADD13C,0.150000*%
%ADD14C,0.120000*%
G04 APERTURE END LIST*
D10*
X225417292Y-279734600D02*
X225631578Y-279806028D01*
X225631578Y-279806028D02*
X225988720Y-279806028D01*
X225988720Y-279806028D02*
X226131578Y-279734600D01*
X226131578Y-279734600D02*
X226203006Y-279663171D01*
X226203006Y-279663171D02*
X226274435Y-279520314D01*
X226274435Y-279520314D02*
X226274435Y-279377457D01*
X226274435Y-279377457D02*
X226203006Y-279234600D01*
X226203006Y-279234600D02*
X226131578Y-279163171D01*
X226131578Y-279163171D02*
X225988720Y-279091742D01*
X225988720Y-279091742D02*
X225703006Y-279020314D01*
X225703006Y-279020314D02*
X225560149Y-278948885D01*
X225560149Y-278948885D02*
X225488720Y-278877457D01*
X225488720Y-278877457D02*
X225417292Y-278734600D01*
X225417292Y-278734600D02*
X225417292Y-278591742D01*
X225417292Y-278591742D02*
X225488720Y-278448885D01*
X225488720Y-278448885D02*
X225560149Y-278377457D01*
X225560149Y-278377457D02*
X225703006Y-278306028D01*
X225703006Y-278306028D02*
X226060149Y-278306028D01*
X226060149Y-278306028D02*
X226274435Y-278377457D01*
X227488720Y-279734600D02*
X227345863Y-279806028D01*
X227345863Y-279806028D02*
X227060149Y-279806028D01*
X227060149Y-279806028D02*
X226917291Y-279734600D01*
X226917291Y-279734600D02*
X226845863Y-279591742D01*
X226845863Y-279591742D02*
X226845863Y-279020314D01*
X226845863Y-279020314D02*
X226917291Y-278877457D01*
X226917291Y-278877457D02*
X227060149Y-278806028D01*
X227060149Y-278806028D02*
X227345863Y-278806028D01*
X227345863Y-278806028D02*
X227488720Y-278877457D01*
X227488720Y-278877457D02*
X227560149Y-279020314D01*
X227560149Y-279020314D02*
X227560149Y-279163171D01*
X227560149Y-279163171D02*
X226845863Y-279306028D01*
X228774434Y-279734600D02*
X228631577Y-279806028D01*
X228631577Y-279806028D02*
X228345863Y-279806028D01*
X228345863Y-279806028D02*
X228203005Y-279734600D01*
X228203005Y-279734600D02*
X228131577Y-279591742D01*
X228131577Y-279591742D02*
X228131577Y-279020314D01*
X228131577Y-279020314D02*
X228203005Y-278877457D01*
X228203005Y-278877457D02*
X228345863Y-278806028D01*
X228345863Y-278806028D02*
X228631577Y-278806028D01*
X228631577Y-278806028D02*
X228774434Y-278877457D01*
X228774434Y-278877457D02*
X228845863Y-279020314D01*
X228845863Y-279020314D02*
X228845863Y-279163171D01*
X228845863Y-279163171D02*
X228131577Y-279306028D01*
X230631576Y-279806028D02*
X230631576Y-278306028D01*
X230631576Y-278877457D02*
X230774434Y-278806028D01*
X230774434Y-278806028D02*
X231060148Y-278806028D01*
X231060148Y-278806028D02*
X231203005Y-278877457D01*
X231203005Y-278877457D02*
X231274434Y-278948885D01*
X231274434Y-278948885D02*
X231345862Y-279091742D01*
X231345862Y-279091742D02*
X231345862Y-279520314D01*
X231345862Y-279520314D02*
X231274434Y-279663171D01*
X231274434Y-279663171D02*
X231203005Y-279734600D01*
X231203005Y-279734600D02*
X231060148Y-279806028D01*
X231060148Y-279806028D02*
X230774434Y-279806028D01*
X230774434Y-279806028D02*
X230631576Y-279734600D01*
X232203005Y-279806028D02*
X232060148Y-279734600D01*
X232060148Y-279734600D02*
X231988719Y-279591742D01*
X231988719Y-279591742D02*
X231988719Y-278306028D01*
X232988719Y-279806028D02*
X232845862Y-279734600D01*
X232845862Y-279734600D02*
X232774433Y-279663171D01*
X232774433Y-279663171D02*
X232703005Y-279520314D01*
X232703005Y-279520314D02*
X232703005Y-279091742D01*
X232703005Y-279091742D02*
X232774433Y-278948885D01*
X232774433Y-278948885D02*
X232845862Y-278877457D01*
X232845862Y-278877457D02*
X232988719Y-278806028D01*
X232988719Y-278806028D02*
X233203005Y-278806028D01*
X233203005Y-278806028D02*
X233345862Y-278877457D01*
X233345862Y-278877457D02*
X233417291Y-278948885D01*
X233417291Y-278948885D02*
X233488719Y-279091742D01*
X233488719Y-279091742D02*
X233488719Y-279520314D01*
X233488719Y-279520314D02*
X233417291Y-279663171D01*
X233417291Y-279663171D02*
X233345862Y-279734600D01*
X233345862Y-279734600D02*
X233203005Y-279806028D01*
X233203005Y-279806028D02*
X232988719Y-279806028D01*
X234774434Y-279734600D02*
X234631576Y-279806028D01*
X234631576Y-279806028D02*
X234345862Y-279806028D01*
X234345862Y-279806028D02*
X234203005Y-279734600D01*
X234203005Y-279734600D02*
X234131576Y-279663171D01*
X234131576Y-279663171D02*
X234060148Y-279520314D01*
X234060148Y-279520314D02*
X234060148Y-279091742D01*
X234060148Y-279091742D02*
X234131576Y-278948885D01*
X234131576Y-278948885D02*
X234203005Y-278877457D01*
X234203005Y-278877457D02*
X234345862Y-278806028D01*
X234345862Y-278806028D02*
X234631576Y-278806028D01*
X234631576Y-278806028D02*
X234774434Y-278877457D01*
X235417290Y-279806028D02*
X235417290Y-278306028D01*
X235560148Y-279234600D02*
X235988719Y-279806028D01*
X235988719Y-278806028D02*
X235417290Y-279377457D01*
X236631576Y-279234600D02*
X237774434Y-279234600D01*
X239131577Y-279806028D02*
X239131577Y-278306028D01*
X239131577Y-279734600D02*
X238988719Y-279806028D01*
X238988719Y-279806028D02*
X238703005Y-279806028D01*
X238703005Y-279806028D02*
X238560148Y-279734600D01*
X238560148Y-279734600D02*
X238488719Y-279663171D01*
X238488719Y-279663171D02*
X238417291Y-279520314D01*
X238417291Y-279520314D02*
X238417291Y-279091742D01*
X238417291Y-279091742D02*
X238488719Y-278948885D01*
X238488719Y-278948885D02*
X238560148Y-278877457D01*
X238560148Y-278877457D02*
X238703005Y-278806028D01*
X238703005Y-278806028D02*
X238988719Y-278806028D01*
X238988719Y-278806028D02*
X239131577Y-278877457D01*
X239845862Y-279806028D02*
X239845862Y-278806028D01*
X239845862Y-278306028D02*
X239774434Y-278377457D01*
X239774434Y-278377457D02*
X239845862Y-278448885D01*
X239845862Y-278448885D02*
X239917291Y-278377457D01*
X239917291Y-278377457D02*
X239845862Y-278306028D01*
X239845862Y-278306028D02*
X239845862Y-278448885D01*
X241203006Y-279806028D02*
X241203006Y-279020314D01*
X241203006Y-279020314D02*
X241131577Y-278877457D01*
X241131577Y-278877457D02*
X240988720Y-278806028D01*
X240988720Y-278806028D02*
X240703006Y-278806028D01*
X240703006Y-278806028D02*
X240560148Y-278877457D01*
X241203006Y-279734600D02*
X241060148Y-279806028D01*
X241060148Y-279806028D02*
X240703006Y-279806028D01*
X240703006Y-279806028D02*
X240560148Y-279734600D01*
X240560148Y-279734600D02*
X240488720Y-279591742D01*
X240488720Y-279591742D02*
X240488720Y-279448885D01*
X240488720Y-279448885D02*
X240560148Y-279306028D01*
X240560148Y-279306028D02*
X240703006Y-279234600D01*
X240703006Y-279234600D02*
X241060148Y-279234600D01*
X241060148Y-279234600D02*
X241203006Y-279163171D01*
X242560149Y-278806028D02*
X242560149Y-280020314D01*
X242560149Y-280020314D02*
X242488720Y-280163171D01*
X242488720Y-280163171D02*
X242417291Y-280234600D01*
X242417291Y-280234600D02*
X242274434Y-280306028D01*
X242274434Y-280306028D02*
X242060149Y-280306028D01*
X242060149Y-280306028D02*
X241917291Y-280234600D01*
X242560149Y-279734600D02*
X242417291Y-279806028D01*
X242417291Y-279806028D02*
X242131577Y-279806028D01*
X242131577Y-279806028D02*
X241988720Y-279734600D01*
X241988720Y-279734600D02*
X241917291Y-279663171D01*
X241917291Y-279663171D02*
X241845863Y-279520314D01*
X241845863Y-279520314D02*
X241845863Y-279091742D01*
X241845863Y-279091742D02*
X241917291Y-278948885D01*
X241917291Y-278948885D02*
X241988720Y-278877457D01*
X241988720Y-278877457D02*
X242131577Y-278806028D01*
X242131577Y-278806028D02*
X242417291Y-278806028D01*
X242417291Y-278806028D02*
X242560149Y-278877457D01*
X243274434Y-279806028D02*
X243274434Y-278806028D01*
X243274434Y-279091742D02*
X243345863Y-278948885D01*
X243345863Y-278948885D02*
X243417292Y-278877457D01*
X243417292Y-278877457D02*
X243560149Y-278806028D01*
X243560149Y-278806028D02*
X243703006Y-278806028D01*
X244845863Y-279806028D02*
X244845863Y-279020314D01*
X244845863Y-279020314D02*
X244774434Y-278877457D01*
X244774434Y-278877457D02*
X244631577Y-278806028D01*
X244631577Y-278806028D02*
X244345863Y-278806028D01*
X244345863Y-278806028D02*
X244203005Y-278877457D01*
X244845863Y-279734600D02*
X244703005Y-279806028D01*
X244703005Y-279806028D02*
X244345863Y-279806028D01*
X244345863Y-279806028D02*
X244203005Y-279734600D01*
X244203005Y-279734600D02*
X244131577Y-279591742D01*
X244131577Y-279591742D02*
X244131577Y-279448885D01*
X244131577Y-279448885D02*
X244203005Y-279306028D01*
X244203005Y-279306028D02*
X244345863Y-279234600D01*
X244345863Y-279234600D02*
X244703005Y-279234600D01*
X244703005Y-279234600D02*
X244845863Y-279163171D01*
X245560148Y-279806028D02*
X245560148Y-278806028D01*
X245560148Y-278948885D02*
X245631577Y-278877457D01*
X245631577Y-278877457D02*
X245774434Y-278806028D01*
X245774434Y-278806028D02*
X245988720Y-278806028D01*
X245988720Y-278806028D02*
X246131577Y-278877457D01*
X246131577Y-278877457D02*
X246203006Y-279020314D01*
X246203006Y-279020314D02*
X246203006Y-279806028D01*
X246203006Y-279020314D02*
X246274434Y-278877457D01*
X246274434Y-278877457D02*
X246417291Y-278806028D01*
X246417291Y-278806028D02*
X246631577Y-278806028D01*
X246631577Y-278806028D02*
X246774434Y-278877457D01*
X246774434Y-278877457D02*
X246845863Y-279020314D01*
X246845863Y-279020314D02*
X246845863Y-279806028D01*
X247488720Y-279734600D02*
X247631577Y-279806028D01*
X247631577Y-279806028D02*
X247917291Y-279806028D01*
X247917291Y-279806028D02*
X248060148Y-279734600D01*
X248060148Y-279734600D02*
X248131577Y-279591742D01*
X248131577Y-279591742D02*
X248131577Y-279520314D01*
X248131577Y-279520314D02*
X248060148Y-279377457D01*
X248060148Y-279377457D02*
X247917291Y-279306028D01*
X247917291Y-279306028D02*
X247703006Y-279306028D01*
X247703006Y-279306028D02*
X247560148Y-279234600D01*
X247560148Y-279234600D02*
X247488720Y-279091742D01*
X247488720Y-279091742D02*
X247488720Y-279020314D01*
X247488720Y-279020314D02*
X247560148Y-278877457D01*
X247560148Y-278877457D02*
X247703006Y-278806028D01*
X247703006Y-278806028D02*
X247917291Y-278806028D01*
X247917291Y-278806028D02*
X248060148Y-278877457D01*
X249845863Y-278234600D02*
X248560149Y-280163171D01*
X250988721Y-279734600D02*
X250845863Y-279806028D01*
X250845863Y-279806028D02*
X250560149Y-279806028D01*
X250560149Y-279806028D02*
X250417292Y-279734600D01*
X250417292Y-279734600D02*
X250345863Y-279663171D01*
X250345863Y-279663171D02*
X250274435Y-279520314D01*
X250274435Y-279520314D02*
X250274435Y-279091742D01*
X250274435Y-279091742D02*
X250345863Y-278948885D01*
X250345863Y-278948885D02*
X250417292Y-278877457D01*
X250417292Y-278877457D02*
X250560149Y-278806028D01*
X250560149Y-278806028D02*
X250845863Y-278806028D01*
X250845863Y-278806028D02*
X250988721Y-278877457D01*
X251845863Y-279806028D02*
X251703006Y-279734600D01*
X251703006Y-279734600D02*
X251631577Y-279663171D01*
X251631577Y-279663171D02*
X251560149Y-279520314D01*
X251560149Y-279520314D02*
X251560149Y-279091742D01*
X251560149Y-279091742D02*
X251631577Y-278948885D01*
X251631577Y-278948885D02*
X251703006Y-278877457D01*
X251703006Y-278877457D02*
X251845863Y-278806028D01*
X251845863Y-278806028D02*
X252060149Y-278806028D01*
X252060149Y-278806028D02*
X252203006Y-278877457D01*
X252203006Y-278877457D02*
X252274435Y-278948885D01*
X252274435Y-278948885D02*
X252345863Y-279091742D01*
X252345863Y-279091742D02*
X252345863Y-279520314D01*
X252345863Y-279520314D02*
X252274435Y-279663171D01*
X252274435Y-279663171D02*
X252203006Y-279734600D01*
X252203006Y-279734600D02*
X252060149Y-279806028D01*
X252060149Y-279806028D02*
X251845863Y-279806028D01*
X252988720Y-279806028D02*
X252988720Y-278806028D01*
X252988720Y-278948885D02*
X253060149Y-278877457D01*
X253060149Y-278877457D02*
X253203006Y-278806028D01*
X253203006Y-278806028D02*
X253417292Y-278806028D01*
X253417292Y-278806028D02*
X253560149Y-278877457D01*
X253560149Y-278877457D02*
X253631578Y-279020314D01*
X253631578Y-279020314D02*
X253631578Y-279806028D01*
X253631578Y-279020314D02*
X253703006Y-278877457D01*
X253703006Y-278877457D02*
X253845863Y-278806028D01*
X253845863Y-278806028D02*
X254060149Y-278806028D01*
X254060149Y-278806028D02*
X254203006Y-278877457D01*
X254203006Y-278877457D02*
X254274435Y-279020314D01*
X254274435Y-279020314D02*
X254274435Y-279806028D01*
X254988720Y-278806028D02*
X254988720Y-280306028D01*
X254988720Y-278877457D02*
X255131578Y-278806028D01*
X255131578Y-278806028D02*
X255417292Y-278806028D01*
X255417292Y-278806028D02*
X255560149Y-278877457D01*
X255560149Y-278877457D02*
X255631578Y-278948885D01*
X255631578Y-278948885D02*
X255703006Y-279091742D01*
X255703006Y-279091742D02*
X255703006Y-279520314D01*
X255703006Y-279520314D02*
X255631578Y-279663171D01*
X255631578Y-279663171D02*
X255560149Y-279734600D01*
X255560149Y-279734600D02*
X255417292Y-279806028D01*
X255417292Y-279806028D02*
X255131578Y-279806028D01*
X255131578Y-279806028D02*
X254988720Y-279734600D01*
X256988721Y-278806028D02*
X256988721Y-279806028D01*
X256345863Y-278806028D02*
X256345863Y-279591742D01*
X256345863Y-279591742D02*
X256417292Y-279734600D01*
X256417292Y-279734600D02*
X256560149Y-279806028D01*
X256560149Y-279806028D02*
X256774435Y-279806028D01*
X256774435Y-279806028D02*
X256917292Y-279734600D01*
X256917292Y-279734600D02*
X256988721Y-279663171D01*
X257488721Y-278806028D02*
X258060149Y-278806028D01*
X257703006Y-278306028D02*
X257703006Y-279591742D01*
X257703006Y-279591742D02*
X257774435Y-279734600D01*
X257774435Y-279734600D02*
X257917292Y-279806028D01*
X257917292Y-279806028D02*
X258060149Y-279806028D01*
X259131578Y-279734600D02*
X258988721Y-279806028D01*
X258988721Y-279806028D02*
X258703007Y-279806028D01*
X258703007Y-279806028D02*
X258560149Y-279734600D01*
X258560149Y-279734600D02*
X258488721Y-279591742D01*
X258488721Y-279591742D02*
X258488721Y-279020314D01*
X258488721Y-279020314D02*
X258560149Y-278877457D01*
X258560149Y-278877457D02*
X258703007Y-278806028D01*
X258703007Y-278806028D02*
X258988721Y-278806028D01*
X258988721Y-278806028D02*
X259131578Y-278877457D01*
X259131578Y-278877457D02*
X259203007Y-279020314D01*
X259203007Y-279020314D02*
X259203007Y-279163171D01*
X259203007Y-279163171D02*
X258488721Y-279306028D01*
X259845863Y-279234600D02*
X260988721Y-279234600D01*
X261703006Y-279806028D02*
X261703006Y-278306028D01*
X261703006Y-278877457D02*
X261845864Y-278806028D01*
X261845864Y-278806028D02*
X262131578Y-278806028D01*
X262131578Y-278806028D02*
X262274435Y-278877457D01*
X262274435Y-278877457D02*
X262345864Y-278948885D01*
X262345864Y-278948885D02*
X262417292Y-279091742D01*
X262417292Y-279091742D02*
X262417292Y-279520314D01*
X262417292Y-279520314D02*
X262345864Y-279663171D01*
X262345864Y-279663171D02*
X262274435Y-279734600D01*
X262274435Y-279734600D02*
X262131578Y-279806028D01*
X262131578Y-279806028D02*
X261845864Y-279806028D01*
X261845864Y-279806028D02*
X261703006Y-279734600D01*
X263703007Y-279806028D02*
X263703007Y-279020314D01*
X263703007Y-279020314D02*
X263631578Y-278877457D01*
X263631578Y-278877457D02*
X263488721Y-278806028D01*
X263488721Y-278806028D02*
X263203007Y-278806028D01*
X263203007Y-278806028D02*
X263060149Y-278877457D01*
X263703007Y-279734600D02*
X263560149Y-279806028D01*
X263560149Y-279806028D02*
X263203007Y-279806028D01*
X263203007Y-279806028D02*
X263060149Y-279734600D01*
X263060149Y-279734600D02*
X262988721Y-279591742D01*
X262988721Y-279591742D02*
X262988721Y-279448885D01*
X262988721Y-279448885D02*
X263060149Y-279306028D01*
X263060149Y-279306028D02*
X263203007Y-279234600D01*
X263203007Y-279234600D02*
X263560149Y-279234600D01*
X263560149Y-279234600D02*
X263703007Y-279163171D01*
X265060150Y-279734600D02*
X264917292Y-279806028D01*
X264917292Y-279806028D02*
X264631578Y-279806028D01*
X264631578Y-279806028D02*
X264488721Y-279734600D01*
X264488721Y-279734600D02*
X264417292Y-279663171D01*
X264417292Y-279663171D02*
X264345864Y-279520314D01*
X264345864Y-279520314D02*
X264345864Y-279091742D01*
X264345864Y-279091742D02*
X264417292Y-278948885D01*
X264417292Y-278948885D02*
X264488721Y-278877457D01*
X264488721Y-278877457D02*
X264631578Y-278806028D01*
X264631578Y-278806028D02*
X264917292Y-278806028D01*
X264917292Y-278806028D02*
X265060150Y-278877457D01*
X265703006Y-279806028D02*
X265703006Y-278306028D01*
X265845864Y-279234600D02*
X266274435Y-279806028D01*
X266274435Y-278806028D02*
X265703006Y-279377457D01*
X266917292Y-278806028D02*
X266917292Y-280306028D01*
X266917292Y-278877457D02*
X267060150Y-278806028D01*
X267060150Y-278806028D02*
X267345864Y-278806028D01*
X267345864Y-278806028D02*
X267488721Y-278877457D01*
X267488721Y-278877457D02*
X267560150Y-278948885D01*
X267560150Y-278948885D02*
X267631578Y-279091742D01*
X267631578Y-279091742D02*
X267631578Y-279520314D01*
X267631578Y-279520314D02*
X267560150Y-279663171D01*
X267560150Y-279663171D02*
X267488721Y-279734600D01*
X267488721Y-279734600D02*
X267345864Y-279806028D01*
X267345864Y-279806028D02*
X267060150Y-279806028D01*
X267060150Y-279806028D02*
X266917292Y-279734600D01*
X268488721Y-279806028D02*
X268345864Y-279734600D01*
X268345864Y-279734600D02*
X268274435Y-279591742D01*
X268274435Y-279591742D02*
X268274435Y-278306028D01*
X269703007Y-279806028D02*
X269703007Y-279020314D01*
X269703007Y-279020314D02*
X269631578Y-278877457D01*
X269631578Y-278877457D02*
X269488721Y-278806028D01*
X269488721Y-278806028D02*
X269203007Y-278806028D01*
X269203007Y-278806028D02*
X269060149Y-278877457D01*
X269703007Y-279734600D02*
X269560149Y-279806028D01*
X269560149Y-279806028D02*
X269203007Y-279806028D01*
X269203007Y-279806028D02*
X269060149Y-279734600D01*
X269060149Y-279734600D02*
X268988721Y-279591742D01*
X268988721Y-279591742D02*
X268988721Y-279448885D01*
X268988721Y-279448885D02*
X269060149Y-279306028D01*
X269060149Y-279306028D02*
X269203007Y-279234600D01*
X269203007Y-279234600D02*
X269560149Y-279234600D01*
X269560149Y-279234600D02*
X269703007Y-279163171D01*
X270417292Y-278806028D02*
X270417292Y-279806028D01*
X270417292Y-278948885D02*
X270488721Y-278877457D01*
X270488721Y-278877457D02*
X270631578Y-278806028D01*
X270631578Y-278806028D02*
X270845864Y-278806028D01*
X270845864Y-278806028D02*
X270988721Y-278877457D01*
X270988721Y-278877457D02*
X271060150Y-279020314D01*
X271060150Y-279020314D02*
X271060150Y-279806028D01*
X272345864Y-279734600D02*
X272203007Y-279806028D01*
X272203007Y-279806028D02*
X271917293Y-279806028D01*
X271917293Y-279806028D02*
X271774435Y-279734600D01*
X271774435Y-279734600D02*
X271703007Y-279591742D01*
X271703007Y-279591742D02*
X271703007Y-279020314D01*
X271703007Y-279020314D02*
X271774435Y-278877457D01*
X271774435Y-278877457D02*
X271917293Y-278806028D01*
X271917293Y-278806028D02*
X272203007Y-278806028D01*
X272203007Y-278806028D02*
X272345864Y-278877457D01*
X272345864Y-278877457D02*
X272417293Y-279020314D01*
X272417293Y-279020314D02*
X272417293Y-279163171D01*
X272417293Y-279163171D02*
X271703007Y-279306028D01*
X273060149Y-279663171D02*
X273131578Y-279734600D01*
X273131578Y-279734600D02*
X273060149Y-279806028D01*
X273060149Y-279806028D02*
X272988721Y-279734600D01*
X272988721Y-279734600D02*
X273060149Y-279663171D01*
X273060149Y-279663171D02*
X273060149Y-279806028D01*
X273774435Y-279806028D02*
X273774435Y-278806028D01*
X273774435Y-278948885D02*
X273845864Y-278877457D01*
X273845864Y-278877457D02*
X273988721Y-278806028D01*
X273988721Y-278806028D02*
X274203007Y-278806028D01*
X274203007Y-278806028D02*
X274345864Y-278877457D01*
X274345864Y-278877457D02*
X274417293Y-279020314D01*
X274417293Y-279020314D02*
X274417293Y-279806028D01*
X274417293Y-279020314D02*
X274488721Y-278877457D01*
X274488721Y-278877457D02*
X274631578Y-278806028D01*
X274631578Y-278806028D02*
X274845864Y-278806028D01*
X274845864Y-278806028D02*
X274988721Y-278877457D01*
X274988721Y-278877457D02*
X275060150Y-279020314D01*
X275060150Y-279020314D02*
X275060150Y-279806028D01*
X276417293Y-279806028D02*
X276417293Y-278306028D01*
X276417293Y-279734600D02*
X276274435Y-279806028D01*
X276274435Y-279806028D02*
X275988721Y-279806028D01*
X275988721Y-279806028D02*
X275845864Y-279734600D01*
X275845864Y-279734600D02*
X275774435Y-279663171D01*
X275774435Y-279663171D02*
X275703007Y-279520314D01*
X275703007Y-279520314D02*
X275703007Y-279091742D01*
X275703007Y-279091742D02*
X275774435Y-278948885D01*
X275774435Y-278948885D02*
X275845864Y-278877457D01*
X275845864Y-278877457D02*
X275988721Y-278806028D01*
X275988721Y-278806028D02*
X276274435Y-278806028D01*
X276274435Y-278806028D02*
X276417293Y-278877457D01*
X278060150Y-278806028D02*
X278631578Y-278806028D01*
X278274435Y-279806028D02*
X278274435Y-278520314D01*
X278274435Y-278520314D02*
X278345864Y-278377457D01*
X278345864Y-278377457D02*
X278488721Y-278306028D01*
X278488721Y-278306028D02*
X278631578Y-278306028D01*
X279345864Y-279806028D02*
X279203007Y-279734600D01*
X279203007Y-279734600D02*
X279131578Y-279663171D01*
X279131578Y-279663171D02*
X279060150Y-279520314D01*
X279060150Y-279520314D02*
X279060150Y-279091742D01*
X279060150Y-279091742D02*
X279131578Y-278948885D01*
X279131578Y-278948885D02*
X279203007Y-278877457D01*
X279203007Y-278877457D02*
X279345864Y-278806028D01*
X279345864Y-278806028D02*
X279560150Y-278806028D01*
X279560150Y-278806028D02*
X279703007Y-278877457D01*
X279703007Y-278877457D02*
X279774436Y-278948885D01*
X279774436Y-278948885D02*
X279845864Y-279091742D01*
X279845864Y-279091742D02*
X279845864Y-279520314D01*
X279845864Y-279520314D02*
X279774436Y-279663171D01*
X279774436Y-279663171D02*
X279703007Y-279734600D01*
X279703007Y-279734600D02*
X279560150Y-279806028D01*
X279560150Y-279806028D02*
X279345864Y-279806028D01*
X280488721Y-279806028D02*
X280488721Y-278806028D01*
X280488721Y-279091742D02*
X280560150Y-278948885D01*
X280560150Y-278948885D02*
X280631579Y-278877457D01*
X280631579Y-278877457D02*
X280774436Y-278806028D01*
X280774436Y-278806028D02*
X280917293Y-278806028D01*
X282345864Y-278806028D02*
X282917292Y-278806028D01*
X282560149Y-278306028D02*
X282560149Y-279591742D01*
X282560149Y-279591742D02*
X282631578Y-279734600D01*
X282631578Y-279734600D02*
X282774435Y-279806028D01*
X282774435Y-279806028D02*
X282917292Y-279806028D01*
X283631578Y-279806028D02*
X283488721Y-279734600D01*
X283488721Y-279734600D02*
X283417292Y-279663171D01*
X283417292Y-279663171D02*
X283345864Y-279520314D01*
X283345864Y-279520314D02*
X283345864Y-279091742D01*
X283345864Y-279091742D02*
X283417292Y-278948885D01*
X283417292Y-278948885D02*
X283488721Y-278877457D01*
X283488721Y-278877457D02*
X283631578Y-278806028D01*
X283631578Y-278806028D02*
X283845864Y-278806028D01*
X283845864Y-278806028D02*
X283988721Y-278877457D01*
X283988721Y-278877457D02*
X284060150Y-278948885D01*
X284060150Y-278948885D02*
X284131578Y-279091742D01*
X284131578Y-279091742D02*
X284131578Y-279520314D01*
X284131578Y-279520314D02*
X284060150Y-279663171D01*
X284060150Y-279663171D02*
X283988721Y-279734600D01*
X283988721Y-279734600D02*
X283845864Y-279806028D01*
X283845864Y-279806028D02*
X283631578Y-279806028D01*
X284774435Y-278806028D02*
X284774435Y-280306028D01*
X284774435Y-278877457D02*
X284917293Y-278806028D01*
X284917293Y-278806028D02*
X285203007Y-278806028D01*
X285203007Y-278806028D02*
X285345864Y-278877457D01*
X285345864Y-278877457D02*
X285417293Y-278948885D01*
X285417293Y-278948885D02*
X285488721Y-279091742D01*
X285488721Y-279091742D02*
X285488721Y-279520314D01*
X285488721Y-279520314D02*
X285417293Y-279663171D01*
X285417293Y-279663171D02*
X285345864Y-279734600D01*
X285345864Y-279734600D02*
X285203007Y-279806028D01*
X285203007Y-279806028D02*
X284917293Y-279806028D01*
X284917293Y-279806028D02*
X284774435Y-279734600D01*
X286345864Y-279806028D02*
X286203007Y-279734600D01*
X286203007Y-279734600D02*
X286131578Y-279663171D01*
X286131578Y-279663171D02*
X286060150Y-279520314D01*
X286060150Y-279520314D02*
X286060150Y-279091742D01*
X286060150Y-279091742D02*
X286131578Y-278948885D01*
X286131578Y-278948885D02*
X286203007Y-278877457D01*
X286203007Y-278877457D02*
X286345864Y-278806028D01*
X286345864Y-278806028D02*
X286560150Y-278806028D01*
X286560150Y-278806028D02*
X286703007Y-278877457D01*
X286703007Y-278877457D02*
X286774436Y-278948885D01*
X286774436Y-278948885D02*
X286845864Y-279091742D01*
X286845864Y-279091742D02*
X286845864Y-279520314D01*
X286845864Y-279520314D02*
X286774436Y-279663171D01*
X286774436Y-279663171D02*
X286703007Y-279734600D01*
X286703007Y-279734600D02*
X286560150Y-279806028D01*
X286560150Y-279806028D02*
X286345864Y-279806028D01*
X287703007Y-279806028D02*
X287560150Y-279734600D01*
X287560150Y-279734600D02*
X287488721Y-279591742D01*
X287488721Y-279591742D02*
X287488721Y-278306028D01*
X288488721Y-279806028D02*
X288345864Y-279734600D01*
X288345864Y-279734600D02*
X288274435Y-279663171D01*
X288274435Y-279663171D02*
X288203007Y-279520314D01*
X288203007Y-279520314D02*
X288203007Y-279091742D01*
X288203007Y-279091742D02*
X288274435Y-278948885D01*
X288274435Y-278948885D02*
X288345864Y-278877457D01*
X288345864Y-278877457D02*
X288488721Y-278806028D01*
X288488721Y-278806028D02*
X288703007Y-278806028D01*
X288703007Y-278806028D02*
X288845864Y-278877457D01*
X288845864Y-278877457D02*
X288917293Y-278948885D01*
X288917293Y-278948885D02*
X288988721Y-279091742D01*
X288988721Y-279091742D02*
X288988721Y-279520314D01*
X288988721Y-279520314D02*
X288917293Y-279663171D01*
X288917293Y-279663171D02*
X288845864Y-279734600D01*
X288845864Y-279734600D02*
X288703007Y-279806028D01*
X288703007Y-279806028D02*
X288488721Y-279806028D01*
X290274436Y-278806028D02*
X290274436Y-280020314D01*
X290274436Y-280020314D02*
X290203007Y-280163171D01*
X290203007Y-280163171D02*
X290131578Y-280234600D01*
X290131578Y-280234600D02*
X289988721Y-280306028D01*
X289988721Y-280306028D02*
X289774436Y-280306028D01*
X289774436Y-280306028D02*
X289631578Y-280234600D01*
X290274436Y-279734600D02*
X290131578Y-279806028D01*
X290131578Y-279806028D02*
X289845864Y-279806028D01*
X289845864Y-279806028D02*
X289703007Y-279734600D01*
X289703007Y-279734600D02*
X289631578Y-279663171D01*
X289631578Y-279663171D02*
X289560150Y-279520314D01*
X289560150Y-279520314D02*
X289560150Y-279091742D01*
X289560150Y-279091742D02*
X289631578Y-278948885D01*
X289631578Y-278948885D02*
X289703007Y-278877457D01*
X289703007Y-278877457D02*
X289845864Y-278806028D01*
X289845864Y-278806028D02*
X290131578Y-278806028D01*
X290131578Y-278806028D02*
X290274436Y-278877457D01*
X290845864Y-278806028D02*
X291203007Y-279806028D01*
X291560150Y-278806028D02*
X291203007Y-279806028D01*
X291203007Y-279806028D02*
X291060150Y-280163171D01*
X291060150Y-280163171D02*
X290988721Y-280234600D01*
X290988721Y-280234600D02*
X290845864Y-280306028D01*
D11*
X226721177Y-29739638D02*
X225578320Y-29739638D01*
X226149748Y-29739638D02*
X226149748Y-27739638D01*
X226149748Y-27739638D02*
X225959272Y-28025352D01*
X225959272Y-28025352D02*
X225768796Y-28215828D01*
X225768796Y-28215828D02*
X225578320Y-28311066D01*
X228435463Y-28406304D02*
X228435463Y-29739638D01*
X227959272Y-27644400D02*
X227483082Y-29072971D01*
X227483082Y-29072971D02*
X228721177Y-29072971D01*
X229483082Y-28977733D02*
X231006892Y-28977733D01*
X232244986Y-29739638D02*
X232054510Y-29644400D01*
X232054510Y-29644400D02*
X231959272Y-29453923D01*
X231959272Y-29453923D02*
X231959272Y-27739638D01*
X233864034Y-29739638D02*
X233864034Y-28692019D01*
X233864034Y-28692019D02*
X233768796Y-28501542D01*
X233768796Y-28501542D02*
X233578320Y-28406304D01*
X233578320Y-28406304D02*
X233197367Y-28406304D01*
X233197367Y-28406304D02*
X233006891Y-28501542D01*
X233864034Y-29644400D02*
X233673558Y-29739638D01*
X233673558Y-29739638D02*
X233197367Y-29739638D01*
X233197367Y-29739638D02*
X233006891Y-29644400D01*
X233006891Y-29644400D02*
X232911653Y-29453923D01*
X232911653Y-29453923D02*
X232911653Y-29263447D01*
X232911653Y-29263447D02*
X233006891Y-29072971D01*
X233006891Y-29072971D02*
X233197367Y-28977733D01*
X233197367Y-28977733D02*
X233673558Y-28977733D01*
X233673558Y-28977733D02*
X233864034Y-28882495D01*
X234625939Y-28406304D02*
X235102129Y-29739638D01*
X235578320Y-28406304D02*
X235102129Y-29739638D01*
X235102129Y-29739638D02*
X234911653Y-30215828D01*
X234911653Y-30215828D02*
X234816415Y-30311066D01*
X234816415Y-30311066D02*
X234625939Y-30406304D01*
X237102130Y-29644400D02*
X236911654Y-29739638D01*
X236911654Y-29739638D02*
X236530701Y-29739638D01*
X236530701Y-29739638D02*
X236340225Y-29644400D01*
X236340225Y-29644400D02*
X236244987Y-29453923D01*
X236244987Y-29453923D02*
X236244987Y-28692019D01*
X236244987Y-28692019D02*
X236340225Y-28501542D01*
X236340225Y-28501542D02*
X236530701Y-28406304D01*
X236530701Y-28406304D02*
X236911654Y-28406304D01*
X236911654Y-28406304D02*
X237102130Y-28501542D01*
X237102130Y-28501542D02*
X237197368Y-28692019D01*
X237197368Y-28692019D02*
X237197368Y-28882495D01*
X237197368Y-28882495D02*
X236244987Y-29072971D01*
X238054511Y-29739638D02*
X238054511Y-28406304D01*
X238054511Y-28787257D02*
X238149749Y-28596780D01*
X238149749Y-28596780D02*
X238244987Y-28501542D01*
X238244987Y-28501542D02*
X238435463Y-28406304D01*
X238435463Y-28406304D02*
X238625940Y-28406304D01*
X242244987Y-27644400D02*
X240530702Y-30215828D01*
X244435464Y-28692019D02*
X245102131Y-28692019D01*
X245387845Y-29739638D02*
X244435464Y-29739638D01*
X244435464Y-29739638D02*
X244435464Y-27739638D01*
X244435464Y-27739638D02*
X245387845Y-27739638D01*
X246244988Y-29739638D02*
X246244988Y-27739638D01*
X246244988Y-27739638D02*
X247387845Y-29739638D01*
X247387845Y-29739638D02*
X247387845Y-27739638D01*
X248340226Y-29739638D02*
X248340226Y-27739638D01*
X250340226Y-27834876D02*
X250149750Y-27739638D01*
X250149750Y-27739638D02*
X249864036Y-27739638D01*
X249864036Y-27739638D02*
X249578321Y-27834876D01*
X249578321Y-27834876D02*
X249387845Y-28025352D01*
X249387845Y-28025352D02*
X249292607Y-28215828D01*
X249292607Y-28215828D02*
X249197369Y-28596780D01*
X249197369Y-28596780D02*
X249197369Y-28882495D01*
X249197369Y-28882495D02*
X249292607Y-29263447D01*
X249292607Y-29263447D02*
X249387845Y-29453923D01*
X249387845Y-29453923D02*
X249578321Y-29644400D01*
X249578321Y-29644400D02*
X249864036Y-29739638D01*
X249864036Y-29739638D02*
X250054512Y-29739638D01*
X250054512Y-29739638D02*
X250340226Y-29644400D01*
X250340226Y-29644400D02*
X250435464Y-29549161D01*
X250435464Y-29549161D02*
X250435464Y-28882495D01*
X250435464Y-28882495D02*
X250054512Y-28882495D01*
X254244988Y-27644400D02*
X252530703Y-30215828D01*
X256435465Y-29739638D02*
X256435465Y-27739638D01*
X256435465Y-27739638D02*
X257102132Y-29168209D01*
X257102132Y-29168209D02*
X257768798Y-27739638D01*
X257768798Y-27739638D02*
X257768798Y-29739638D01*
X259483084Y-29644400D02*
X259292608Y-29739638D01*
X259292608Y-29739638D02*
X258911655Y-29739638D01*
X258911655Y-29739638D02*
X258721179Y-29644400D01*
X258721179Y-29644400D02*
X258625941Y-29453923D01*
X258625941Y-29453923D02*
X258625941Y-28692019D01*
X258625941Y-28692019D02*
X258721179Y-28501542D01*
X258721179Y-28501542D02*
X258911655Y-28406304D01*
X258911655Y-28406304D02*
X259292608Y-28406304D01*
X259292608Y-28406304D02*
X259483084Y-28501542D01*
X259483084Y-28501542D02*
X259578322Y-28692019D01*
X259578322Y-28692019D02*
X259578322Y-28882495D01*
X259578322Y-28882495D02*
X258625941Y-29072971D01*
X261292608Y-28406304D02*
X261292608Y-30025352D01*
X261292608Y-30025352D02*
X261197370Y-30215828D01*
X261197370Y-30215828D02*
X261102132Y-30311066D01*
X261102132Y-30311066D02*
X260911655Y-30406304D01*
X260911655Y-30406304D02*
X260625941Y-30406304D01*
X260625941Y-30406304D02*
X260435465Y-30311066D01*
X261292608Y-29644400D02*
X261102132Y-29739638D01*
X261102132Y-29739638D02*
X260721179Y-29739638D01*
X260721179Y-29739638D02*
X260530703Y-29644400D01*
X260530703Y-29644400D02*
X260435465Y-29549161D01*
X260435465Y-29549161D02*
X260340227Y-29358685D01*
X260340227Y-29358685D02*
X260340227Y-28787257D01*
X260340227Y-28787257D02*
X260435465Y-28596780D01*
X260435465Y-28596780D02*
X260530703Y-28501542D01*
X260530703Y-28501542D02*
X260721179Y-28406304D01*
X260721179Y-28406304D02*
X261102132Y-28406304D01*
X261102132Y-28406304D02*
X261292608Y-28501542D01*
X261959275Y-28406304D02*
X262721179Y-28406304D01*
X262244989Y-27739638D02*
X262244989Y-29453923D01*
X262244989Y-29453923D02*
X262340227Y-29644400D01*
X262340227Y-29644400D02*
X262530703Y-29739638D01*
X262530703Y-29739638D02*
X262721179Y-29739638D01*
X263387846Y-29739638D02*
X263387846Y-28406304D01*
X263387846Y-28787257D02*
X263483084Y-28596780D01*
X263483084Y-28596780D02*
X263578322Y-28501542D01*
X263578322Y-28501542D02*
X263768798Y-28406304D01*
X263768798Y-28406304D02*
X263959275Y-28406304D01*
X264911655Y-29739638D02*
X264721179Y-29644400D01*
X264721179Y-29644400D02*
X264625941Y-29549161D01*
X264625941Y-29549161D02*
X264530703Y-29358685D01*
X264530703Y-29358685D02*
X264530703Y-28787257D01*
X264530703Y-28787257D02*
X264625941Y-28596780D01*
X264625941Y-28596780D02*
X264721179Y-28501542D01*
X264721179Y-28501542D02*
X264911655Y-28406304D01*
X264911655Y-28406304D02*
X265197370Y-28406304D01*
X265197370Y-28406304D02*
X265387846Y-28501542D01*
X265387846Y-28501542D02*
X265483084Y-28596780D01*
X265483084Y-28596780D02*
X265578322Y-28787257D01*
X265578322Y-28787257D02*
X265578322Y-29358685D01*
X265578322Y-29358685D02*
X265483084Y-29549161D01*
X265483084Y-29549161D02*
X265387846Y-29644400D01*
X265387846Y-29644400D02*
X265197370Y-29739638D01*
X265197370Y-29739638D02*
X264911655Y-29739638D01*
X266435465Y-28406304D02*
X266435465Y-29739638D01*
X266435465Y-28596780D02*
X266530703Y-28501542D01*
X266530703Y-28501542D02*
X266721179Y-28406304D01*
X266721179Y-28406304D02*
X267006894Y-28406304D01*
X267006894Y-28406304D02*
X267197370Y-28501542D01*
X267197370Y-28501542D02*
X267292608Y-28692019D01*
X267292608Y-28692019D02*
X267292608Y-29739638D01*
X270625942Y-27739638D02*
X270244989Y-27739638D01*
X270244989Y-27739638D02*
X270054513Y-27834876D01*
X270054513Y-27834876D02*
X269959275Y-27930114D01*
X269959275Y-27930114D02*
X269768799Y-28215828D01*
X269768799Y-28215828D02*
X269673561Y-28596780D01*
X269673561Y-28596780D02*
X269673561Y-29358685D01*
X269673561Y-29358685D02*
X269768799Y-29549161D01*
X269768799Y-29549161D02*
X269864037Y-29644400D01*
X269864037Y-29644400D02*
X270054513Y-29739638D01*
X270054513Y-29739638D02*
X270435466Y-29739638D01*
X270435466Y-29739638D02*
X270625942Y-29644400D01*
X270625942Y-29644400D02*
X270721180Y-29549161D01*
X270721180Y-29549161D02*
X270816418Y-29358685D01*
X270816418Y-29358685D02*
X270816418Y-28882495D01*
X270816418Y-28882495D02*
X270721180Y-28692019D01*
X270721180Y-28692019D02*
X270625942Y-28596780D01*
X270625942Y-28596780D02*
X270435466Y-28501542D01*
X270435466Y-28501542D02*
X270054513Y-28501542D01*
X270054513Y-28501542D02*
X269864037Y-28596780D01*
X269864037Y-28596780D02*
X269768799Y-28692019D01*
X269768799Y-28692019D02*
X269673561Y-28882495D01*
X274625942Y-27644400D02*
X272911657Y-30215828D01*
X277673562Y-28406304D02*
X277673562Y-29739638D01*
X277197371Y-27644400D02*
X276721181Y-29072971D01*
X276721181Y-29072971D02*
X277959276Y-29072971D01*
X279673562Y-27739638D02*
X278721181Y-27739638D01*
X278721181Y-27739638D02*
X278625943Y-28692019D01*
X278625943Y-28692019D02*
X278721181Y-28596780D01*
X278721181Y-28596780D02*
X278911657Y-28501542D01*
X278911657Y-28501542D02*
X279387848Y-28501542D01*
X279387848Y-28501542D02*
X279578324Y-28596780D01*
X279578324Y-28596780D02*
X279673562Y-28692019D01*
X279673562Y-28692019D02*
X279768800Y-28882495D01*
X279768800Y-28882495D02*
X279768800Y-29358685D01*
X279768800Y-29358685D02*
X279673562Y-29549161D01*
X279673562Y-29549161D02*
X279578324Y-29644400D01*
X279578324Y-29644400D02*
X279387848Y-29739638D01*
X279387848Y-29739638D02*
X278911657Y-29739638D01*
X278911657Y-29739638D02*
X278721181Y-29644400D01*
X278721181Y-29644400D02*
X278625943Y-29549161D01*
X281006895Y-27739638D02*
X281197372Y-27739638D01*
X281197372Y-27739638D02*
X281387848Y-27834876D01*
X281387848Y-27834876D02*
X281483086Y-27930114D01*
X281483086Y-27930114D02*
X281578324Y-28120590D01*
X281578324Y-28120590D02*
X281673562Y-28501542D01*
X281673562Y-28501542D02*
X281673562Y-28977733D01*
X281673562Y-28977733D02*
X281578324Y-29358685D01*
X281578324Y-29358685D02*
X281483086Y-29549161D01*
X281483086Y-29549161D02*
X281387848Y-29644400D01*
X281387848Y-29644400D02*
X281197372Y-29739638D01*
X281197372Y-29739638D02*
X281006895Y-29739638D01*
X281006895Y-29739638D02*
X280816419Y-29644400D01*
X280816419Y-29644400D02*
X280721181Y-29549161D01*
X280721181Y-29549161D02*
X280625943Y-29358685D01*
X280625943Y-29358685D02*
X280530705Y-28977733D01*
X280530705Y-28977733D02*
X280530705Y-28501542D01*
X280530705Y-28501542D02*
X280625943Y-28120590D01*
X280625943Y-28120590D02*
X280721181Y-27930114D01*
X280721181Y-27930114D02*
X280816419Y-27834876D01*
X280816419Y-27834876D02*
X281006895Y-27739638D01*
X282340229Y-29739638D02*
X283387848Y-28406304D01*
X282340229Y-28406304D02*
X283387848Y-29739638D01*
X283959277Y-27739638D02*
X285197372Y-27739638D01*
X285197372Y-27739638D02*
X284530705Y-28501542D01*
X284530705Y-28501542D02*
X284816420Y-28501542D01*
X284816420Y-28501542D02*
X285006896Y-28596780D01*
X285006896Y-28596780D02*
X285102134Y-28692019D01*
X285102134Y-28692019D02*
X285197372Y-28882495D01*
X285197372Y-28882495D02*
X285197372Y-29358685D01*
X285197372Y-29358685D02*
X285102134Y-29549161D01*
X285102134Y-29549161D02*
X285006896Y-29644400D01*
X285006896Y-29644400D02*
X284816420Y-29739638D01*
X284816420Y-29739638D02*
X284244991Y-29739638D01*
X284244991Y-29739638D02*
X284054515Y-29644400D01*
X284054515Y-29644400D02*
X283959277Y-29549161D01*
X286435467Y-27739638D02*
X286625944Y-27739638D01*
X286625944Y-27739638D02*
X286816420Y-27834876D01*
X286816420Y-27834876D02*
X286911658Y-27930114D01*
X286911658Y-27930114D02*
X287006896Y-28120590D01*
X287006896Y-28120590D02*
X287102134Y-28501542D01*
X287102134Y-28501542D02*
X287102134Y-28977733D01*
X287102134Y-28977733D02*
X287006896Y-29358685D01*
X287006896Y-29358685D02*
X286911658Y-29549161D01*
X286911658Y-29549161D02*
X286816420Y-29644400D01*
X286816420Y-29644400D02*
X286625944Y-29739638D01*
X286625944Y-29739638D02*
X286435467Y-29739638D01*
X286435467Y-29739638D02*
X286244991Y-29644400D01*
X286244991Y-29644400D02*
X286149753Y-29549161D01*
X286149753Y-29549161D02*
X286054515Y-29358685D01*
X286054515Y-29358685D02*
X285959277Y-28977733D01*
X285959277Y-28977733D02*
X285959277Y-28501542D01*
X285959277Y-28501542D02*
X286054515Y-28120590D01*
X286054515Y-28120590D02*
X286149753Y-27930114D01*
X286149753Y-27930114D02*
X286244991Y-27834876D01*
X286244991Y-27834876D02*
X286435467Y-27739638D01*
X288340229Y-27739638D02*
X288530706Y-27739638D01*
X288530706Y-27739638D02*
X288721182Y-27834876D01*
X288721182Y-27834876D02*
X288816420Y-27930114D01*
X288816420Y-27930114D02*
X288911658Y-28120590D01*
X288911658Y-28120590D02*
X289006896Y-28501542D01*
X289006896Y-28501542D02*
X289006896Y-28977733D01*
X289006896Y-28977733D02*
X288911658Y-29358685D01*
X288911658Y-29358685D02*
X288816420Y-29549161D01*
X288816420Y-29549161D02*
X288721182Y-29644400D01*
X288721182Y-29644400D02*
X288530706Y-29739638D01*
X288530706Y-29739638D02*
X288340229Y-29739638D01*
X288340229Y-29739638D02*
X288149753Y-29644400D01*
X288149753Y-29644400D02*
X288054515Y-29549161D01*
X288054515Y-29549161D02*
X287959277Y-29358685D01*
X287959277Y-29358685D02*
X287864039Y-28977733D01*
X287864039Y-28977733D02*
X287864039Y-28501542D01*
X287864039Y-28501542D02*
X287959277Y-28120590D01*
X287959277Y-28120590D02*
X288054515Y-27930114D01*
X288054515Y-27930114D02*
X288149753Y-27834876D01*
X288149753Y-27834876D02*
X288340229Y-27739638D01*
X289864039Y-29739638D02*
X289864039Y-28406304D01*
X289864039Y-28596780D02*
X289959277Y-28501542D01*
X289959277Y-28501542D02*
X290149753Y-28406304D01*
X290149753Y-28406304D02*
X290435468Y-28406304D01*
X290435468Y-28406304D02*
X290625944Y-28501542D01*
X290625944Y-28501542D02*
X290721182Y-28692019D01*
X290721182Y-28692019D02*
X290721182Y-29739638D01*
X290721182Y-28692019D02*
X290816420Y-28501542D01*
X290816420Y-28501542D02*
X291006896Y-28406304D01*
X291006896Y-28406304D02*
X291292610Y-28406304D01*
X291292610Y-28406304D02*
X291483087Y-28501542D01*
X291483087Y-28501542D02*
X291578325Y-28692019D01*
X291578325Y-28692019D02*
X291578325Y-29739638D01*
X292530706Y-29739638D02*
X292530706Y-28406304D01*
X292530706Y-28596780D02*
X292625944Y-28501542D01*
X292625944Y-28501542D02*
X292816420Y-28406304D01*
X292816420Y-28406304D02*
X293102135Y-28406304D01*
X293102135Y-28406304D02*
X293292611Y-28501542D01*
X293292611Y-28501542D02*
X293387849Y-28692019D01*
X293387849Y-28692019D02*
X293387849Y-29739638D01*
X293387849Y-28692019D02*
X293483087Y-28501542D01*
X293483087Y-28501542D02*
X293673563Y-28406304D01*
X293673563Y-28406304D02*
X293959277Y-28406304D01*
X293959277Y-28406304D02*
X294149754Y-28501542D01*
X294149754Y-28501542D02*
X294244992Y-28692019D01*
X294244992Y-28692019D02*
X294244992Y-29739638D01*
D12*
X226347116Y-19479276D02*
X226347116Y-15479276D01*
X226347116Y-15479276D02*
X227870926Y-15479276D01*
X227870926Y-15479276D02*
X228251878Y-15669752D01*
X228251878Y-15669752D02*
X228442355Y-15860228D01*
X228442355Y-15860228D02*
X228632831Y-16241180D01*
X228632831Y-16241180D02*
X228632831Y-16812609D01*
X228632831Y-16812609D02*
X228442355Y-17193561D01*
X228442355Y-17193561D02*
X228251878Y-17384038D01*
X228251878Y-17384038D02*
X227870926Y-17574514D01*
X227870926Y-17574514D02*
X226347116Y-17574514D01*
X230156640Y-18336419D02*
X232061402Y-18336419D01*
X229775688Y-19479276D02*
X231109021Y-15479276D01*
X231109021Y-15479276D02*
X232442355Y-19479276D01*
X235680449Y-19479276D02*
X233775687Y-19479276D01*
X233775687Y-19479276D02*
X233775687Y-15479276D01*
X240061401Y-19479276D02*
X240061401Y-15479276D01*
X240061401Y-15479276D02*
X241585211Y-15479276D01*
X241585211Y-15479276D02*
X241966163Y-15669752D01*
X241966163Y-15669752D02*
X242156640Y-15860228D01*
X242156640Y-15860228D02*
X242347116Y-16241180D01*
X242347116Y-16241180D02*
X242347116Y-16812609D01*
X242347116Y-16812609D02*
X242156640Y-17193561D01*
X242156640Y-17193561D02*
X241966163Y-17384038D01*
X241966163Y-17384038D02*
X241585211Y-17574514D01*
X241585211Y-17574514D02*
X240061401Y-17574514D01*
X244632830Y-19479276D02*
X244251878Y-19288800D01*
X244251878Y-19288800D02*
X244061401Y-19098323D01*
X244061401Y-19098323D02*
X243870925Y-18717371D01*
X243870925Y-18717371D02*
X243870925Y-17574514D01*
X243870925Y-17574514D02*
X244061401Y-17193561D01*
X244061401Y-17193561D02*
X244251878Y-17003085D01*
X244251878Y-17003085D02*
X244632830Y-16812609D01*
X244632830Y-16812609D02*
X245204259Y-16812609D01*
X245204259Y-16812609D02*
X245585211Y-17003085D01*
X245585211Y-17003085D02*
X245775687Y-17193561D01*
X245775687Y-17193561D02*
X245966163Y-17574514D01*
X245966163Y-17574514D02*
X245966163Y-18717371D01*
X245966163Y-18717371D02*
X245775687Y-19098323D01*
X245775687Y-19098323D02*
X245585211Y-19288800D01*
X245585211Y-19288800D02*
X245204259Y-19479276D01*
X245204259Y-19479276D02*
X244632830Y-19479276D01*
X249394735Y-19479276D02*
X249394735Y-15479276D01*
X249394735Y-19288800D02*
X249013783Y-19479276D01*
X249013783Y-19479276D02*
X248251878Y-19479276D01*
X248251878Y-19479276D02*
X247870926Y-19288800D01*
X247870926Y-19288800D02*
X247680449Y-19098323D01*
X247680449Y-19098323D02*
X247489973Y-18717371D01*
X247489973Y-18717371D02*
X247489973Y-17574514D01*
X247489973Y-17574514D02*
X247680449Y-17193561D01*
X247680449Y-17193561D02*
X247870926Y-17003085D01*
X247870926Y-17003085D02*
X248251878Y-16812609D01*
X248251878Y-16812609D02*
X249013783Y-16812609D01*
X249013783Y-16812609D02*
X249394735Y-17003085D01*
X256632831Y-19098323D02*
X256442355Y-19288800D01*
X256442355Y-19288800D02*
X255870926Y-19479276D01*
X255870926Y-19479276D02*
X255489974Y-19479276D01*
X255489974Y-19479276D02*
X254918545Y-19288800D01*
X254918545Y-19288800D02*
X254537593Y-18907847D01*
X254537593Y-18907847D02*
X254347116Y-18526895D01*
X254347116Y-18526895D02*
X254156640Y-17764990D01*
X254156640Y-17764990D02*
X254156640Y-17193561D01*
X254156640Y-17193561D02*
X254347116Y-16431657D01*
X254347116Y-16431657D02*
X254537593Y-16050704D01*
X254537593Y-16050704D02*
X254918545Y-15669752D01*
X254918545Y-15669752D02*
X255489974Y-15479276D01*
X255489974Y-15479276D02*
X255870926Y-15479276D01*
X255870926Y-15479276D02*
X256442355Y-15669752D01*
X256442355Y-15669752D02*
X256632831Y-15860228D01*
X258918545Y-19479276D02*
X258537593Y-19288800D01*
X258537593Y-19288800D02*
X258347116Y-19098323D01*
X258347116Y-19098323D02*
X258156640Y-18717371D01*
X258156640Y-18717371D02*
X258156640Y-17574514D01*
X258156640Y-17574514D02*
X258347116Y-17193561D01*
X258347116Y-17193561D02*
X258537593Y-17003085D01*
X258537593Y-17003085D02*
X258918545Y-16812609D01*
X258918545Y-16812609D02*
X259489974Y-16812609D01*
X259489974Y-16812609D02*
X259870926Y-17003085D01*
X259870926Y-17003085D02*
X260061402Y-17193561D01*
X260061402Y-17193561D02*
X260251878Y-17574514D01*
X260251878Y-17574514D02*
X260251878Y-18717371D01*
X260251878Y-18717371D02*
X260061402Y-19098323D01*
X260061402Y-19098323D02*
X259870926Y-19288800D01*
X259870926Y-19288800D02*
X259489974Y-19479276D01*
X259489974Y-19479276D02*
X258918545Y-19479276D01*
X261966164Y-19479276D02*
X261966164Y-16812609D01*
X261966164Y-17193561D02*
X262156641Y-17003085D01*
X262156641Y-17003085D02*
X262537593Y-16812609D01*
X262537593Y-16812609D02*
X263109022Y-16812609D01*
X263109022Y-16812609D02*
X263489974Y-17003085D01*
X263489974Y-17003085D02*
X263680450Y-17384038D01*
X263680450Y-17384038D02*
X263680450Y-19479276D01*
X263680450Y-17384038D02*
X263870926Y-17003085D01*
X263870926Y-17003085D02*
X264251879Y-16812609D01*
X264251879Y-16812609D02*
X264823307Y-16812609D01*
X264823307Y-16812609D02*
X265204260Y-17003085D01*
X265204260Y-17003085D02*
X265394736Y-17384038D01*
X265394736Y-17384038D02*
X265394736Y-19479276D01*
X267299497Y-16812609D02*
X267299497Y-20812609D01*
X267299497Y-17003085D02*
X267680450Y-16812609D01*
X267680450Y-16812609D02*
X268442355Y-16812609D01*
X268442355Y-16812609D02*
X268823307Y-17003085D01*
X268823307Y-17003085D02*
X269013783Y-17193561D01*
X269013783Y-17193561D02*
X269204259Y-17574514D01*
X269204259Y-17574514D02*
X269204259Y-18717371D01*
X269204259Y-18717371D02*
X269013783Y-19098323D01*
X269013783Y-19098323D02*
X268823307Y-19288800D01*
X268823307Y-19288800D02*
X268442355Y-19479276D01*
X268442355Y-19479276D02*
X267680450Y-19479276D01*
X267680450Y-19479276D02*
X267299497Y-19288800D01*
X272632831Y-16812609D02*
X272632831Y-19479276D01*
X270918545Y-16812609D02*
X270918545Y-18907847D01*
X270918545Y-18907847D02*
X271109022Y-19288800D01*
X271109022Y-19288800D02*
X271489974Y-19479276D01*
X271489974Y-19479276D02*
X272061403Y-19479276D01*
X272061403Y-19479276D02*
X272442355Y-19288800D01*
X272442355Y-19288800D02*
X272632831Y-19098323D01*
X273966165Y-16812609D02*
X275489974Y-16812609D01*
X274537593Y-15479276D02*
X274537593Y-18907847D01*
X274537593Y-18907847D02*
X274728070Y-19288800D01*
X274728070Y-19288800D02*
X275109022Y-19479276D01*
X275109022Y-19479276D02*
X275489974Y-19479276D01*
X278347117Y-19288800D02*
X277966165Y-19479276D01*
X277966165Y-19479276D02*
X277204260Y-19479276D01*
X277204260Y-19479276D02*
X276823307Y-19288800D01*
X276823307Y-19288800D02*
X276632831Y-18907847D01*
X276632831Y-18907847D02*
X276632831Y-17384038D01*
X276632831Y-17384038D02*
X276823307Y-17003085D01*
X276823307Y-17003085D02*
X277204260Y-16812609D01*
X277204260Y-16812609D02*
X277966165Y-16812609D01*
X277966165Y-16812609D02*
X278347117Y-17003085D01*
X278347117Y-17003085D02*
X278537593Y-17384038D01*
X278537593Y-17384038D02*
X278537593Y-17764990D01*
X278537593Y-17764990D02*
X276632831Y-18145942D01*
X284632831Y-17384038D02*
X285204259Y-17574514D01*
X285204259Y-17574514D02*
X285394736Y-17764990D01*
X285394736Y-17764990D02*
X285585212Y-18145942D01*
X285585212Y-18145942D02*
X285585212Y-18717371D01*
X285585212Y-18717371D02*
X285394736Y-19098323D01*
X285394736Y-19098323D02*
X285204259Y-19288800D01*
X285204259Y-19288800D02*
X284823307Y-19479276D01*
X284823307Y-19479276D02*
X283299497Y-19479276D01*
X283299497Y-19479276D02*
X283299497Y-15479276D01*
X283299497Y-15479276D02*
X284632831Y-15479276D01*
X284632831Y-15479276D02*
X285013783Y-15669752D01*
X285013783Y-15669752D02*
X285204259Y-15860228D01*
X285204259Y-15860228D02*
X285394736Y-16241180D01*
X285394736Y-16241180D02*
X285394736Y-16622133D01*
X285394736Y-16622133D02*
X285204259Y-17003085D01*
X285204259Y-17003085D02*
X285013783Y-17193561D01*
X285013783Y-17193561D02*
X284632831Y-17384038D01*
X284632831Y-17384038D02*
X283299497Y-17384038D01*
X289013783Y-19479276D02*
X289013783Y-17384038D01*
X289013783Y-17384038D02*
X288823307Y-17003085D01*
X288823307Y-17003085D02*
X288442355Y-16812609D01*
X288442355Y-16812609D02*
X287680450Y-16812609D01*
X287680450Y-16812609D02*
X287299497Y-17003085D01*
X289013783Y-19288800D02*
X288632831Y-19479276D01*
X288632831Y-19479276D02*
X287680450Y-19479276D01*
X287680450Y-19479276D02*
X287299497Y-19288800D01*
X287299497Y-19288800D02*
X287109021Y-18907847D01*
X287109021Y-18907847D02*
X287109021Y-18526895D01*
X287109021Y-18526895D02*
X287299497Y-18145942D01*
X287299497Y-18145942D02*
X287680450Y-17955466D01*
X287680450Y-17955466D02*
X288632831Y-17955466D01*
X288632831Y-17955466D02*
X289013783Y-17764990D01*
X292632831Y-19288800D02*
X292251879Y-19479276D01*
X292251879Y-19479276D02*
X291489974Y-19479276D01*
X291489974Y-19479276D02*
X291109022Y-19288800D01*
X291109022Y-19288800D02*
X290918545Y-19098323D01*
X290918545Y-19098323D02*
X290728069Y-18717371D01*
X290728069Y-18717371D02*
X290728069Y-17574514D01*
X290728069Y-17574514D02*
X290918545Y-17193561D01*
X290918545Y-17193561D02*
X291109022Y-17003085D01*
X291109022Y-17003085D02*
X291489974Y-16812609D01*
X291489974Y-16812609D02*
X292251879Y-16812609D01*
X292251879Y-16812609D02*
X292632831Y-17003085D01*
X294347116Y-19479276D02*
X294347116Y-15479276D01*
X294728069Y-17955466D02*
X295870926Y-19479276D01*
X295870926Y-16812609D02*
X294347116Y-18336419D01*
X297585211Y-16812609D02*
X297585211Y-20812609D01*
X297585211Y-17003085D02*
X297966164Y-16812609D01*
X297966164Y-16812609D02*
X298728069Y-16812609D01*
X298728069Y-16812609D02*
X299109021Y-17003085D01*
X299109021Y-17003085D02*
X299299497Y-17193561D01*
X299299497Y-17193561D02*
X299489973Y-17574514D01*
X299489973Y-17574514D02*
X299489973Y-18717371D01*
X299489973Y-18717371D02*
X299299497Y-19098323D01*
X299299497Y-19098323D02*
X299109021Y-19288800D01*
X299109021Y-19288800D02*
X298728069Y-19479276D01*
X298728069Y-19479276D02*
X297966164Y-19479276D01*
X297966164Y-19479276D02*
X297585211Y-19288800D01*
X301775688Y-19479276D02*
X301394736Y-19288800D01*
X301394736Y-19288800D02*
X301204259Y-18907847D01*
X301204259Y-18907847D02*
X301204259Y-15479276D01*
X305013783Y-19479276D02*
X305013783Y-17384038D01*
X305013783Y-17384038D02*
X304823307Y-17003085D01*
X304823307Y-17003085D02*
X304442355Y-16812609D01*
X304442355Y-16812609D02*
X303680450Y-16812609D01*
X303680450Y-16812609D02*
X303299497Y-17003085D01*
X305013783Y-19288800D02*
X304632831Y-19479276D01*
X304632831Y-19479276D02*
X303680450Y-19479276D01*
X303680450Y-19479276D02*
X303299497Y-19288800D01*
X303299497Y-19288800D02*
X303109021Y-18907847D01*
X303109021Y-18907847D02*
X303109021Y-18526895D01*
X303109021Y-18526895D02*
X303299497Y-18145942D01*
X303299497Y-18145942D02*
X303680450Y-17955466D01*
X303680450Y-17955466D02*
X304632831Y-17955466D01*
X304632831Y-17955466D02*
X305013783Y-17764990D01*
X306918545Y-16812609D02*
X306918545Y-19479276D01*
X306918545Y-17193561D02*
X307109022Y-17003085D01*
X307109022Y-17003085D02*
X307489974Y-16812609D01*
X307489974Y-16812609D02*
X308061403Y-16812609D01*
X308061403Y-16812609D02*
X308442355Y-17003085D01*
X308442355Y-17003085D02*
X308632831Y-17384038D01*
X308632831Y-17384038D02*
X308632831Y-19479276D01*
X312061403Y-19288800D02*
X311680451Y-19479276D01*
X311680451Y-19479276D02*
X310918546Y-19479276D01*
X310918546Y-19479276D02*
X310537593Y-19288800D01*
X310537593Y-19288800D02*
X310347117Y-18907847D01*
X310347117Y-18907847D02*
X310347117Y-17384038D01*
X310347117Y-17384038D02*
X310537593Y-17003085D01*
X310537593Y-17003085D02*
X310918546Y-16812609D01*
X310918546Y-16812609D02*
X311680451Y-16812609D01*
X311680451Y-16812609D02*
X312061403Y-17003085D01*
X312061403Y-17003085D02*
X312251879Y-17384038D01*
X312251879Y-17384038D02*
X312251879Y-17764990D01*
X312251879Y-17764990D02*
X310347117Y-18145942D01*
X317013783Y-17955466D02*
X320061403Y-17955466D01*
X327299498Y-19479276D02*
X325966164Y-17574514D01*
X325013783Y-19479276D02*
X325013783Y-15479276D01*
X325013783Y-15479276D02*
X326537593Y-15479276D01*
X326537593Y-15479276D02*
X326918545Y-15669752D01*
X326918545Y-15669752D02*
X327109022Y-15860228D01*
X327109022Y-15860228D02*
X327299498Y-16241180D01*
X327299498Y-16241180D02*
X327299498Y-16812609D01*
X327299498Y-16812609D02*
X327109022Y-17193561D01*
X327109022Y-17193561D02*
X326918545Y-17384038D01*
X326918545Y-17384038D02*
X326537593Y-17574514D01*
X326537593Y-17574514D02*
X325013783Y-17574514D01*
X330537593Y-19288800D02*
X330156641Y-19479276D01*
X330156641Y-19479276D02*
X329394736Y-19479276D01*
X329394736Y-19479276D02*
X329013783Y-19288800D01*
X329013783Y-19288800D02*
X328823307Y-18907847D01*
X328823307Y-18907847D02*
X328823307Y-17384038D01*
X328823307Y-17384038D02*
X329013783Y-17003085D01*
X329013783Y-17003085D02*
X329394736Y-16812609D01*
X329394736Y-16812609D02*
X330156641Y-16812609D01*
X330156641Y-16812609D02*
X330537593Y-17003085D01*
X330537593Y-17003085D02*
X330728069Y-17384038D01*
X330728069Y-17384038D02*
X330728069Y-17764990D01*
X330728069Y-17764990D02*
X328823307Y-18145942D01*
X332061402Y-16812609D02*
X333013783Y-19479276D01*
X333013783Y-19479276D02*
X333966164Y-16812609D01*
X338347116Y-18336419D02*
X340251878Y-18336419D01*
X337966164Y-19479276D02*
X339299497Y-15479276D01*
X339299497Y-15479276D02*
X340632831Y-19479276D01*
X342728068Y-15479276D02*
X343109021Y-15479276D01*
X343109021Y-15479276D02*
X343489973Y-15669752D01*
X343489973Y-15669752D02*
X343680449Y-15860228D01*
X343680449Y-15860228D02*
X343870925Y-16241180D01*
X343870925Y-16241180D02*
X344061402Y-17003085D01*
X344061402Y-17003085D02*
X344061402Y-17955466D01*
X344061402Y-17955466D02*
X343870925Y-18717371D01*
X343870925Y-18717371D02*
X343680449Y-19098323D01*
X343680449Y-19098323D02*
X343489973Y-19288800D01*
X343489973Y-19288800D02*
X343109021Y-19479276D01*
X343109021Y-19479276D02*
X342728068Y-19479276D01*
X342728068Y-19479276D02*
X342347116Y-19288800D01*
X342347116Y-19288800D02*
X342156640Y-19098323D01*
X342156640Y-19098323D02*
X341966163Y-18717371D01*
X341966163Y-18717371D02*
X341775687Y-17955466D01*
X341775687Y-17955466D02*
X341775687Y-17003085D01*
X341775687Y-17003085D02*
X341966163Y-16241180D01*
X341966163Y-16241180D02*
X342156640Y-15860228D01*
X342156640Y-15860228D02*
X342347116Y-15669752D01*
X342347116Y-15669752D02*
X342728068Y-15479276D01*
X348823306Y-17955466D02*
X351870926Y-17955466D01*
X356823306Y-19479276D02*
X356823306Y-15479276D01*
X356823306Y-15479276D02*
X358347116Y-15479276D01*
X358347116Y-15479276D02*
X358728068Y-15669752D01*
X358728068Y-15669752D02*
X358918545Y-15860228D01*
X358918545Y-15860228D02*
X359109021Y-16241180D01*
X359109021Y-16241180D02*
X359109021Y-16812609D01*
X359109021Y-16812609D02*
X358918545Y-17193561D01*
X358918545Y-17193561D02*
X358728068Y-17384038D01*
X358728068Y-17384038D02*
X358347116Y-17574514D01*
X358347116Y-17574514D02*
X356823306Y-17574514D01*
X362728068Y-19479276D02*
X360823306Y-19479276D01*
X360823306Y-19479276D02*
X360823306Y-15479276D01*
X363870925Y-18336419D02*
X365775687Y-18336419D01*
X363489973Y-19479276D02*
X364823306Y-15479276D01*
X364823306Y-15479276D02*
X366156640Y-19479276D01*
X369775687Y-19098323D02*
X369585211Y-19288800D01*
X369585211Y-19288800D02*
X369013782Y-19479276D01*
X369013782Y-19479276D02*
X368632830Y-19479276D01*
X368632830Y-19479276D02*
X368061401Y-19288800D01*
X368061401Y-19288800D02*
X367680449Y-18907847D01*
X367680449Y-18907847D02*
X367489972Y-18526895D01*
X367489972Y-18526895D02*
X367299496Y-17764990D01*
X367299496Y-17764990D02*
X367299496Y-17193561D01*
X367299496Y-17193561D02*
X367489972Y-16431657D01*
X367489972Y-16431657D02*
X367680449Y-16050704D01*
X367680449Y-16050704D02*
X368061401Y-15669752D01*
X368061401Y-15669752D02*
X368632830Y-15479276D01*
X368632830Y-15479276D02*
X369013782Y-15479276D01*
X369013782Y-15479276D02*
X369585211Y-15669752D01*
X369585211Y-15669752D02*
X369775687Y-15860228D01*
X371489972Y-17384038D02*
X372823306Y-17384038D01*
X373394734Y-19479276D02*
X371489972Y-19479276D01*
X371489972Y-19479276D02*
X371489972Y-15479276D01*
X371489972Y-15479276D02*
X373394734Y-15479276D01*
X375109020Y-19479276D02*
X375109020Y-15479276D01*
X375109020Y-17384038D02*
X377394735Y-17384038D01*
X377394735Y-19479276D02*
X377394735Y-15479276D01*
X380061401Y-15479276D02*
X380823306Y-15479276D01*
X380823306Y-15479276D02*
X381204258Y-15669752D01*
X381204258Y-15669752D02*
X381585211Y-16050704D01*
X381585211Y-16050704D02*
X381775687Y-16812609D01*
X381775687Y-16812609D02*
X381775687Y-18145942D01*
X381775687Y-18145942D02*
X381585211Y-18907847D01*
X381585211Y-18907847D02*
X381204258Y-19288800D01*
X381204258Y-19288800D02*
X380823306Y-19479276D01*
X380823306Y-19479276D02*
X380061401Y-19479276D01*
X380061401Y-19479276D02*
X379680449Y-19288800D01*
X379680449Y-19288800D02*
X379299496Y-18907847D01*
X379299496Y-18907847D02*
X379109020Y-18145942D01*
X379109020Y-18145942D02*
X379109020Y-16812609D01*
X379109020Y-16812609D02*
X379299496Y-16050704D01*
X379299496Y-16050704D02*
X379680449Y-15669752D01*
X379680449Y-15669752D02*
X380061401Y-15479276D01*
X385394734Y-19479276D02*
X383489972Y-19479276D01*
X383489972Y-19479276D02*
X383489972Y-15479276D01*
X386728067Y-19479276D02*
X386728067Y-15479276D01*
X386728067Y-15479276D02*
X387680448Y-15479276D01*
X387680448Y-15479276D02*
X388251877Y-15669752D01*
X388251877Y-15669752D02*
X388632829Y-16050704D01*
X388632829Y-16050704D02*
X388823306Y-16431657D01*
X388823306Y-16431657D02*
X389013782Y-17193561D01*
X389013782Y-17193561D02*
X389013782Y-17764990D01*
X389013782Y-17764990D02*
X388823306Y-18526895D01*
X388823306Y-18526895D02*
X388632829Y-18907847D01*
X388632829Y-18907847D02*
X388251877Y-19288800D01*
X388251877Y-19288800D02*
X387680448Y-19479276D01*
X387680448Y-19479276D02*
X386728067Y-19479276D01*
X390728067Y-17384038D02*
X392061401Y-17384038D01*
X392632829Y-19479276D02*
X390728067Y-19479276D01*
X390728067Y-19479276D02*
X390728067Y-15479276D01*
X390728067Y-15479276D02*
X392632829Y-15479276D01*
X396632830Y-19479276D02*
X395299496Y-17574514D01*
X394347115Y-19479276D02*
X394347115Y-15479276D01*
X394347115Y-15479276D02*
X395870925Y-15479276D01*
X395870925Y-15479276D02*
X396251877Y-15669752D01*
X396251877Y-15669752D02*
X396442354Y-15860228D01*
X396442354Y-15860228D02*
X396632830Y-16241180D01*
X396632830Y-16241180D02*
X396632830Y-16812609D01*
X396632830Y-16812609D02*
X396442354Y-17193561D01*
X396442354Y-17193561D02*
X396251877Y-17384038D01*
X396251877Y-17384038D02*
X395870925Y-17574514D01*
X395870925Y-17574514D02*
X394347115Y-17574514D01*
D13*
X114200595Y-14558985D02*
X114200595Y-15368508D01*
X114200595Y-15368508D02*
X114248214Y-15463746D01*
X114248214Y-15463746D02*
X114295833Y-15511366D01*
X114295833Y-15511366D02*
X114391071Y-15558985D01*
X114391071Y-15558985D02*
X114581547Y-15558985D01*
X114581547Y-15558985D02*
X114676785Y-15511366D01*
X114676785Y-15511366D02*
X114724404Y-15463746D01*
X114724404Y-15463746D02*
X114772023Y-15368508D01*
X114772023Y-15368508D02*
X114772023Y-14558985D01*
X115200595Y-14654223D02*
X115248214Y-14606604D01*
X115248214Y-14606604D02*
X115343452Y-14558985D01*
X115343452Y-14558985D02*
X115581547Y-14558985D01*
X115581547Y-14558985D02*
X115676785Y-14606604D01*
X115676785Y-14606604D02*
X115724404Y-14654223D01*
X115724404Y-14654223D02*
X115772023Y-14749461D01*
X115772023Y-14749461D02*
X115772023Y-14844699D01*
X115772023Y-14844699D02*
X115724404Y-14987556D01*
X115724404Y-14987556D02*
X115152976Y-15558985D01*
X115152976Y-15558985D02*
X115772023Y-15558985D01*
X334275595Y-21708985D02*
X334275595Y-22518508D01*
X334275595Y-22518508D02*
X334323214Y-22613746D01*
X334323214Y-22613746D02*
X334370833Y-22661366D01*
X334370833Y-22661366D02*
X334466071Y-22708985D01*
X334466071Y-22708985D02*
X334656547Y-22708985D01*
X334656547Y-22708985D02*
X334751785Y-22661366D01*
X334751785Y-22661366D02*
X334799404Y-22613746D01*
X334799404Y-22613746D02*
X334847023Y-22518508D01*
X334847023Y-22518508D02*
X334847023Y-21708985D01*
X335799404Y-21708985D02*
X335323214Y-21708985D01*
X335323214Y-21708985D02*
X335275595Y-22185175D01*
X335275595Y-22185175D02*
X335323214Y-22137556D01*
X335323214Y-22137556D02*
X335418452Y-22089937D01*
X335418452Y-22089937D02*
X335656547Y-22089937D01*
X335656547Y-22089937D02*
X335751785Y-22137556D01*
X335751785Y-22137556D02*
X335799404Y-22185175D01*
X335799404Y-22185175D02*
X335847023Y-22280413D01*
X335847023Y-22280413D02*
X335847023Y-22518508D01*
X335847023Y-22518508D02*
X335799404Y-22613746D01*
X335799404Y-22613746D02*
X335751785Y-22661366D01*
X335751785Y-22661366D02*
X335656547Y-22708985D01*
X335656547Y-22708985D02*
X335418452Y-22708985D01*
X335418452Y-22708985D02*
X335323214Y-22661366D01*
X335323214Y-22661366D02*
X335275595Y-22613746D01*
X188154166Y-270180652D02*
X187820833Y-269704461D01*
X187582738Y-270180652D02*
X187582738Y-269180652D01*
X187582738Y-269180652D02*
X187963690Y-269180652D01*
X187963690Y-269180652D02*
X188058928Y-269228271D01*
X188058928Y-269228271D02*
X188106547Y-269275890D01*
X188106547Y-269275890D02*
X188154166Y-269371128D01*
X188154166Y-269371128D02*
X188154166Y-269513985D01*
X188154166Y-269513985D02*
X188106547Y-269609223D01*
X188106547Y-269609223D02*
X188058928Y-269656842D01*
X188058928Y-269656842D02*
X187963690Y-269704461D01*
X187963690Y-269704461D02*
X187582738Y-269704461D01*
X189106547Y-270180652D02*
X188535119Y-270180652D01*
X188820833Y-270180652D02*
X188820833Y-269180652D01*
X188820833Y-269180652D02*
X188725595Y-269323509D01*
X188725595Y-269323509D02*
X188630357Y-269418747D01*
X188630357Y-269418747D02*
X188535119Y-269466366D01*
X261512499Y-270180652D02*
X261179166Y-269704461D01*
X260941071Y-270180652D02*
X260941071Y-269180652D01*
X260941071Y-269180652D02*
X261322023Y-269180652D01*
X261322023Y-269180652D02*
X261417261Y-269228271D01*
X261417261Y-269228271D02*
X261464880Y-269275890D01*
X261464880Y-269275890D02*
X261512499Y-269371128D01*
X261512499Y-269371128D02*
X261512499Y-269513985D01*
X261512499Y-269513985D02*
X261464880Y-269609223D01*
X261464880Y-269609223D02*
X261417261Y-269656842D01*
X261417261Y-269656842D02*
X261322023Y-269704461D01*
X261322023Y-269704461D02*
X260941071Y-269704461D01*
X261893452Y-269275890D02*
X261941071Y-269228271D01*
X261941071Y-269228271D02*
X262036309Y-269180652D01*
X262036309Y-269180652D02*
X262274404Y-269180652D01*
X262274404Y-269180652D02*
X262369642Y-269228271D01*
X262369642Y-269228271D02*
X262417261Y-269275890D01*
X262417261Y-269275890D02*
X262464880Y-269371128D01*
X262464880Y-269371128D02*
X262464880Y-269466366D01*
X262464880Y-269466366D02*
X262417261Y-269609223D01*
X262417261Y-269609223D02*
X261845833Y-270180652D01*
X261845833Y-270180652D02*
X262464880Y-270180652D01*
X407586309Y-70917319D02*
X407586309Y-71631604D01*
X407586309Y-71631604D02*
X407538690Y-71774461D01*
X407538690Y-71774461D02*
X407443452Y-71869700D01*
X407443452Y-71869700D02*
X407300595Y-71917319D01*
X407300595Y-71917319D02*
X407205357Y-71917319D01*
X408586309Y-71917319D02*
X408014881Y-71917319D01*
X408300595Y-71917319D02*
X408300595Y-70917319D01*
X408300595Y-70917319D02*
X408205357Y-71060176D01*
X408205357Y-71060176D02*
X408110119Y-71155414D01*
X408110119Y-71155414D02*
X408014881Y-71203033D01*
X409443452Y-71250652D02*
X409443452Y-71917319D01*
X409205357Y-70869700D02*
X408967262Y-71583985D01*
X408967262Y-71583985D02*
X409586309Y-71583985D01*
X187511309Y-70917319D02*
X187511309Y-71631604D01*
X187511309Y-71631604D02*
X187463690Y-71774461D01*
X187463690Y-71774461D02*
X187368452Y-71869700D01*
X187368452Y-71869700D02*
X187225595Y-71917319D01*
X187225595Y-71917319D02*
X187130357Y-71917319D01*
X188511309Y-71917319D02*
X187939881Y-71917319D01*
X188225595Y-71917319D02*
X188225595Y-70917319D01*
X188225595Y-70917319D02*
X188130357Y-71060176D01*
X188130357Y-71060176D02*
X188035119Y-71155414D01*
X188035119Y-71155414D02*
X187939881Y-71203033D01*
X189463690Y-71917319D02*
X188892262Y-71917319D01*
X189177976Y-71917319D02*
X189177976Y-70917319D01*
X189177976Y-70917319D02*
X189082738Y-71060176D01*
X189082738Y-71060176D02*
X188987500Y-71155414D01*
X188987500Y-71155414D02*
X188892262Y-71203033D01*
X260869642Y-70917319D02*
X260869642Y-71631604D01*
X260869642Y-71631604D02*
X260822023Y-71774461D01*
X260822023Y-71774461D02*
X260726785Y-71869700D01*
X260726785Y-71869700D02*
X260583928Y-71917319D01*
X260583928Y-71917319D02*
X260488690Y-71917319D01*
X261869642Y-71917319D02*
X261298214Y-71917319D01*
X261583928Y-71917319D02*
X261583928Y-70917319D01*
X261583928Y-70917319D02*
X261488690Y-71060176D01*
X261488690Y-71060176D02*
X261393452Y-71155414D01*
X261393452Y-71155414D02*
X261298214Y-71203033D01*
X262250595Y-71012557D02*
X262298214Y-70964938D01*
X262298214Y-70964938D02*
X262393452Y-70917319D01*
X262393452Y-70917319D02*
X262631547Y-70917319D01*
X262631547Y-70917319D02*
X262726785Y-70964938D01*
X262726785Y-70964938D02*
X262774404Y-71012557D01*
X262774404Y-71012557D02*
X262822023Y-71107795D01*
X262822023Y-71107795D02*
X262822023Y-71203033D01*
X262822023Y-71203033D02*
X262774404Y-71345890D01*
X262774404Y-71345890D02*
X262202976Y-71917319D01*
X262202976Y-71917319D02*
X262822023Y-71917319D01*
X260869642Y-119275652D02*
X260869642Y-119989937D01*
X260869642Y-119989937D02*
X260822023Y-120132794D01*
X260822023Y-120132794D02*
X260726785Y-120228033D01*
X260726785Y-120228033D02*
X260583928Y-120275652D01*
X260583928Y-120275652D02*
X260488690Y-120275652D01*
X261869642Y-120275652D02*
X261298214Y-120275652D01*
X261583928Y-120275652D02*
X261583928Y-119275652D01*
X261583928Y-119275652D02*
X261488690Y-119418509D01*
X261488690Y-119418509D02*
X261393452Y-119513747D01*
X261393452Y-119513747D02*
X261298214Y-119561366D01*
X262441071Y-119704223D02*
X262345833Y-119656604D01*
X262345833Y-119656604D02*
X262298214Y-119608985D01*
X262298214Y-119608985D02*
X262250595Y-119513747D01*
X262250595Y-119513747D02*
X262250595Y-119466128D01*
X262250595Y-119466128D02*
X262298214Y-119370890D01*
X262298214Y-119370890D02*
X262345833Y-119323271D01*
X262345833Y-119323271D02*
X262441071Y-119275652D01*
X262441071Y-119275652D02*
X262631547Y-119275652D01*
X262631547Y-119275652D02*
X262726785Y-119323271D01*
X262726785Y-119323271D02*
X262774404Y-119370890D01*
X262774404Y-119370890D02*
X262822023Y-119466128D01*
X262822023Y-119466128D02*
X262822023Y-119513747D01*
X262822023Y-119513747D02*
X262774404Y-119608985D01*
X262774404Y-119608985D02*
X262726785Y-119656604D01*
X262726785Y-119656604D02*
X262631547Y-119704223D01*
X262631547Y-119704223D02*
X262441071Y-119704223D01*
X262441071Y-119704223D02*
X262345833Y-119751842D01*
X262345833Y-119751842D02*
X262298214Y-119799461D01*
X262298214Y-119799461D02*
X262250595Y-119894699D01*
X262250595Y-119894699D02*
X262250595Y-120085175D01*
X262250595Y-120085175D02*
X262298214Y-120180413D01*
X262298214Y-120180413D02*
X262345833Y-120228033D01*
X262345833Y-120228033D02*
X262441071Y-120275652D01*
X262441071Y-120275652D02*
X262631547Y-120275652D01*
X262631547Y-120275652D02*
X262726785Y-120228033D01*
X262726785Y-120228033D02*
X262774404Y-120180413D01*
X262774404Y-120180413D02*
X262822023Y-120085175D01*
X262822023Y-120085175D02*
X262822023Y-119894699D01*
X262822023Y-119894699D02*
X262774404Y-119799461D01*
X262774404Y-119799461D02*
X262726785Y-119751842D01*
X262726785Y-119751842D02*
X262631547Y-119704223D01*
X334227976Y-119275652D02*
X334227976Y-119989937D01*
X334227976Y-119989937D02*
X334180357Y-120132794D01*
X334180357Y-120132794D02*
X334085119Y-120228033D01*
X334085119Y-120228033D02*
X333942262Y-120275652D01*
X333942262Y-120275652D02*
X333847024Y-120275652D01*
X335227976Y-120275652D02*
X334656548Y-120275652D01*
X334942262Y-120275652D02*
X334942262Y-119275652D01*
X334942262Y-119275652D02*
X334847024Y-119418509D01*
X334847024Y-119418509D02*
X334751786Y-119513747D01*
X334751786Y-119513747D02*
X334656548Y-119561366D01*
X335704167Y-120275652D02*
X335894643Y-120275652D01*
X335894643Y-120275652D02*
X335989881Y-120228033D01*
X335989881Y-120228033D02*
X336037500Y-120180413D01*
X336037500Y-120180413D02*
X336132738Y-120037556D01*
X336132738Y-120037556D02*
X336180357Y-119847080D01*
X336180357Y-119847080D02*
X336180357Y-119466128D01*
X336180357Y-119466128D02*
X336132738Y-119370890D01*
X336132738Y-119370890D02*
X336085119Y-119323271D01*
X336085119Y-119323271D02*
X335989881Y-119275652D01*
X335989881Y-119275652D02*
X335799405Y-119275652D01*
X335799405Y-119275652D02*
X335704167Y-119323271D01*
X335704167Y-119323271D02*
X335656548Y-119370890D01*
X335656548Y-119370890D02*
X335608929Y-119466128D01*
X335608929Y-119466128D02*
X335608929Y-119704223D01*
X335608929Y-119704223D02*
X335656548Y-119799461D01*
X335656548Y-119799461D02*
X335704167Y-119847080D01*
X335704167Y-119847080D02*
X335799405Y-119894699D01*
X335799405Y-119894699D02*
X335989881Y-119894699D01*
X335989881Y-119894699D02*
X336085119Y-119847080D01*
X336085119Y-119847080D02*
X336132738Y-119799461D01*
X336132738Y-119799461D02*
X336180357Y-119704223D01*
X334227976Y-70917319D02*
X334227976Y-71631604D01*
X334227976Y-71631604D02*
X334180357Y-71774461D01*
X334180357Y-71774461D02*
X334085119Y-71869700D01*
X334085119Y-71869700D02*
X333942262Y-71917319D01*
X333942262Y-71917319D02*
X333847024Y-71917319D01*
X335227976Y-71917319D02*
X334656548Y-71917319D01*
X334942262Y-71917319D02*
X334942262Y-70917319D01*
X334942262Y-70917319D02*
X334847024Y-71060176D01*
X334847024Y-71060176D02*
X334751786Y-71155414D01*
X334751786Y-71155414D02*
X334656548Y-71203033D01*
X335561310Y-70917319D02*
X336180357Y-70917319D01*
X336180357Y-70917319D02*
X335847024Y-71298271D01*
X335847024Y-71298271D02*
X335989881Y-71298271D01*
X335989881Y-71298271D02*
X336085119Y-71345890D01*
X336085119Y-71345890D02*
X336132738Y-71393509D01*
X336132738Y-71393509D02*
X336180357Y-71488747D01*
X336180357Y-71488747D02*
X336180357Y-71726842D01*
X336180357Y-71726842D02*
X336132738Y-71822080D01*
X336132738Y-71822080D02*
X336085119Y-71869700D01*
X336085119Y-71869700D02*
X335989881Y-71917319D01*
X335989881Y-71917319D02*
X335704167Y-71917319D01*
X335704167Y-71917319D02*
X335608929Y-71869700D01*
X335608929Y-71869700D02*
X335561310Y-71822080D01*
X40794642Y-119275652D02*
X40794642Y-119989937D01*
X40794642Y-119989937D02*
X40747023Y-120132794D01*
X40747023Y-120132794D02*
X40651785Y-120228033D01*
X40651785Y-120228033D02*
X40508928Y-120275652D01*
X40508928Y-120275652D02*
X40413690Y-120275652D01*
X41794642Y-120275652D02*
X41223214Y-120275652D01*
X41508928Y-120275652D02*
X41508928Y-119275652D01*
X41508928Y-119275652D02*
X41413690Y-119418509D01*
X41413690Y-119418509D02*
X41318452Y-119513747D01*
X41318452Y-119513747D02*
X41223214Y-119561366D01*
X42699404Y-119275652D02*
X42223214Y-119275652D01*
X42223214Y-119275652D02*
X42175595Y-119751842D01*
X42175595Y-119751842D02*
X42223214Y-119704223D01*
X42223214Y-119704223D02*
X42318452Y-119656604D01*
X42318452Y-119656604D02*
X42556547Y-119656604D01*
X42556547Y-119656604D02*
X42651785Y-119704223D01*
X42651785Y-119704223D02*
X42699404Y-119751842D01*
X42699404Y-119751842D02*
X42747023Y-119847080D01*
X42747023Y-119847080D02*
X42747023Y-120085175D01*
X42747023Y-120085175D02*
X42699404Y-120180413D01*
X42699404Y-120180413D02*
X42651785Y-120228033D01*
X42651785Y-120228033D02*
X42556547Y-120275652D01*
X42556547Y-120275652D02*
X42318452Y-120275652D01*
X42318452Y-120275652D02*
X42223214Y-120228033D01*
X42223214Y-120228033D02*
X42175595Y-120180413D01*
X114152976Y-119275652D02*
X114152976Y-119989937D01*
X114152976Y-119989937D02*
X114105357Y-120132794D01*
X114105357Y-120132794D02*
X114010119Y-120228033D01*
X114010119Y-120228033D02*
X113867262Y-120275652D01*
X113867262Y-120275652D02*
X113772024Y-120275652D01*
X115152976Y-120275652D02*
X114581548Y-120275652D01*
X114867262Y-120275652D02*
X114867262Y-119275652D01*
X114867262Y-119275652D02*
X114772024Y-119418509D01*
X114772024Y-119418509D02*
X114676786Y-119513747D01*
X114676786Y-119513747D02*
X114581548Y-119561366D01*
X116010119Y-119275652D02*
X115819643Y-119275652D01*
X115819643Y-119275652D02*
X115724405Y-119323271D01*
X115724405Y-119323271D02*
X115676786Y-119370890D01*
X115676786Y-119370890D02*
X115581548Y-119513747D01*
X115581548Y-119513747D02*
X115533929Y-119704223D01*
X115533929Y-119704223D02*
X115533929Y-120085175D01*
X115533929Y-120085175D02*
X115581548Y-120180413D01*
X115581548Y-120180413D02*
X115629167Y-120228033D01*
X115629167Y-120228033D02*
X115724405Y-120275652D01*
X115724405Y-120275652D02*
X115914881Y-120275652D01*
X115914881Y-120275652D02*
X116010119Y-120228033D01*
X116010119Y-120228033D02*
X116057738Y-120180413D01*
X116057738Y-120180413D02*
X116105357Y-120085175D01*
X116105357Y-120085175D02*
X116105357Y-119847080D01*
X116105357Y-119847080D02*
X116057738Y-119751842D01*
X116057738Y-119751842D02*
X116010119Y-119704223D01*
X116010119Y-119704223D02*
X115914881Y-119656604D01*
X115914881Y-119656604D02*
X115724405Y-119656604D01*
X115724405Y-119656604D02*
X115629167Y-119704223D01*
X115629167Y-119704223D02*
X115581548Y-119751842D01*
X115581548Y-119751842D02*
X115533929Y-119847080D01*
X187511309Y-119275652D02*
X187511309Y-119989937D01*
X187511309Y-119989937D02*
X187463690Y-120132794D01*
X187463690Y-120132794D02*
X187368452Y-120228033D01*
X187368452Y-120228033D02*
X187225595Y-120275652D01*
X187225595Y-120275652D02*
X187130357Y-120275652D01*
X188511309Y-120275652D02*
X187939881Y-120275652D01*
X188225595Y-120275652D02*
X188225595Y-119275652D01*
X188225595Y-119275652D02*
X188130357Y-119418509D01*
X188130357Y-119418509D02*
X188035119Y-119513747D01*
X188035119Y-119513747D02*
X187939881Y-119561366D01*
X188844643Y-119275652D02*
X189511309Y-119275652D01*
X189511309Y-119275652D02*
X189082738Y-120275652D01*
X40794642Y-167633985D02*
X40794642Y-168348270D01*
X40794642Y-168348270D02*
X40747023Y-168491127D01*
X40747023Y-168491127D02*
X40651785Y-168586366D01*
X40651785Y-168586366D02*
X40508928Y-168633985D01*
X40508928Y-168633985D02*
X40413690Y-168633985D01*
X41223214Y-167729223D02*
X41270833Y-167681604D01*
X41270833Y-167681604D02*
X41366071Y-167633985D01*
X41366071Y-167633985D02*
X41604166Y-167633985D01*
X41604166Y-167633985D02*
X41699404Y-167681604D01*
X41699404Y-167681604D02*
X41747023Y-167729223D01*
X41747023Y-167729223D02*
X41794642Y-167824461D01*
X41794642Y-167824461D02*
X41794642Y-167919699D01*
X41794642Y-167919699D02*
X41747023Y-168062556D01*
X41747023Y-168062556D02*
X41175595Y-168633985D01*
X41175595Y-168633985D02*
X41794642Y-168633985D01*
X42413690Y-167633985D02*
X42508928Y-167633985D01*
X42508928Y-167633985D02*
X42604166Y-167681604D01*
X42604166Y-167681604D02*
X42651785Y-167729223D01*
X42651785Y-167729223D02*
X42699404Y-167824461D01*
X42699404Y-167824461D02*
X42747023Y-168014937D01*
X42747023Y-168014937D02*
X42747023Y-168253032D01*
X42747023Y-168253032D02*
X42699404Y-168443508D01*
X42699404Y-168443508D02*
X42651785Y-168538746D01*
X42651785Y-168538746D02*
X42604166Y-168586366D01*
X42604166Y-168586366D02*
X42508928Y-168633985D01*
X42508928Y-168633985D02*
X42413690Y-168633985D01*
X42413690Y-168633985D02*
X42318452Y-168586366D01*
X42318452Y-168586366D02*
X42270833Y-168538746D01*
X42270833Y-168538746D02*
X42223214Y-168443508D01*
X42223214Y-168443508D02*
X42175595Y-168253032D01*
X42175595Y-168253032D02*
X42175595Y-168014937D01*
X42175595Y-168014937D02*
X42223214Y-167824461D01*
X42223214Y-167824461D02*
X42270833Y-167729223D01*
X42270833Y-167729223D02*
X42318452Y-167681604D01*
X42318452Y-167681604D02*
X42413690Y-167633985D01*
X40842261Y-6558985D02*
X40842261Y-7368508D01*
X40842261Y-7368508D02*
X40889880Y-7463746D01*
X40889880Y-7463746D02*
X40937499Y-7511366D01*
X40937499Y-7511366D02*
X41032737Y-7558985D01*
X41032737Y-7558985D02*
X41223213Y-7558985D01*
X41223213Y-7558985D02*
X41318451Y-7511366D01*
X41318451Y-7511366D02*
X41366070Y-7463746D01*
X41366070Y-7463746D02*
X41413689Y-7368508D01*
X41413689Y-7368508D02*
X41413689Y-6558985D01*
X42413689Y-7558985D02*
X41842261Y-7558985D01*
X42127975Y-7558985D02*
X42127975Y-6558985D01*
X42127975Y-6558985D02*
X42032737Y-6701842D01*
X42032737Y-6701842D02*
X41937499Y-6797080D01*
X41937499Y-6797080D02*
X41842261Y-6844699D01*
X187511309Y-167633985D02*
X187511309Y-168348270D01*
X187511309Y-168348270D02*
X187463690Y-168491127D01*
X187463690Y-168491127D02*
X187368452Y-168586366D01*
X187368452Y-168586366D02*
X187225595Y-168633985D01*
X187225595Y-168633985D02*
X187130357Y-168633985D01*
X187939881Y-167729223D02*
X187987500Y-167681604D01*
X187987500Y-167681604D02*
X188082738Y-167633985D01*
X188082738Y-167633985D02*
X188320833Y-167633985D01*
X188320833Y-167633985D02*
X188416071Y-167681604D01*
X188416071Y-167681604D02*
X188463690Y-167729223D01*
X188463690Y-167729223D02*
X188511309Y-167824461D01*
X188511309Y-167824461D02*
X188511309Y-167919699D01*
X188511309Y-167919699D02*
X188463690Y-168062556D01*
X188463690Y-168062556D02*
X187892262Y-168633985D01*
X187892262Y-168633985D02*
X188511309Y-168633985D01*
X188892262Y-167729223D02*
X188939881Y-167681604D01*
X188939881Y-167681604D02*
X189035119Y-167633985D01*
X189035119Y-167633985D02*
X189273214Y-167633985D01*
X189273214Y-167633985D02*
X189368452Y-167681604D01*
X189368452Y-167681604D02*
X189416071Y-167729223D01*
X189416071Y-167729223D02*
X189463690Y-167824461D01*
X189463690Y-167824461D02*
X189463690Y-167919699D01*
X189463690Y-167919699D02*
X189416071Y-168062556D01*
X189416071Y-168062556D02*
X188844643Y-168633985D01*
X188844643Y-168633985D02*
X189463690Y-168633985D01*
X114152976Y-167633985D02*
X114152976Y-168348270D01*
X114152976Y-168348270D02*
X114105357Y-168491127D01*
X114105357Y-168491127D02*
X114010119Y-168586366D01*
X114010119Y-168586366D02*
X113867262Y-168633985D01*
X113867262Y-168633985D02*
X113772024Y-168633985D01*
X114581548Y-167729223D02*
X114629167Y-167681604D01*
X114629167Y-167681604D02*
X114724405Y-167633985D01*
X114724405Y-167633985D02*
X114962500Y-167633985D01*
X114962500Y-167633985D02*
X115057738Y-167681604D01*
X115057738Y-167681604D02*
X115105357Y-167729223D01*
X115105357Y-167729223D02*
X115152976Y-167824461D01*
X115152976Y-167824461D02*
X115152976Y-167919699D01*
X115152976Y-167919699D02*
X115105357Y-168062556D01*
X115105357Y-168062556D02*
X114533929Y-168633985D01*
X114533929Y-168633985D02*
X115152976Y-168633985D01*
X116105357Y-168633985D02*
X115533929Y-168633985D01*
X115819643Y-168633985D02*
X115819643Y-167633985D01*
X115819643Y-167633985D02*
X115724405Y-167776842D01*
X115724405Y-167776842D02*
X115629167Y-167872080D01*
X115629167Y-167872080D02*
X115533929Y-167919699D01*
X114152976Y-72417319D02*
X114152976Y-73131604D01*
X114152976Y-73131604D02*
X114105357Y-73274461D01*
X114105357Y-73274461D02*
X114010119Y-73369700D01*
X114010119Y-73369700D02*
X113867262Y-73417319D01*
X113867262Y-73417319D02*
X113772024Y-73417319D01*
X115152976Y-73417319D02*
X114581548Y-73417319D01*
X114867262Y-73417319D02*
X114867262Y-72417319D01*
X114867262Y-72417319D02*
X114772024Y-72560176D01*
X114772024Y-72560176D02*
X114676786Y-72655414D01*
X114676786Y-72655414D02*
X114581548Y-72703033D01*
X115772024Y-72417319D02*
X115867262Y-72417319D01*
X115867262Y-72417319D02*
X115962500Y-72464938D01*
X115962500Y-72464938D02*
X116010119Y-72512557D01*
X116010119Y-72512557D02*
X116057738Y-72607795D01*
X116057738Y-72607795D02*
X116105357Y-72798271D01*
X116105357Y-72798271D02*
X116105357Y-73036366D01*
X116105357Y-73036366D02*
X116057738Y-73226842D01*
X116057738Y-73226842D02*
X116010119Y-73322080D01*
X116010119Y-73322080D02*
X115962500Y-73369700D01*
X115962500Y-73369700D02*
X115867262Y-73417319D01*
X115867262Y-73417319D02*
X115772024Y-73417319D01*
X115772024Y-73417319D02*
X115676786Y-73369700D01*
X115676786Y-73369700D02*
X115629167Y-73322080D01*
X115629167Y-73322080D02*
X115581548Y-73226842D01*
X115581548Y-73226842D02*
X115533929Y-73036366D01*
X115533929Y-73036366D02*
X115533929Y-72798271D01*
X115533929Y-72798271D02*
X115581548Y-72607795D01*
X115581548Y-72607795D02*
X115629167Y-72512557D01*
X115629167Y-72512557D02*
X115676786Y-72464938D01*
X115676786Y-72464938D02*
X115772024Y-72417319D01*
X408062499Y-120775652D02*
X408062499Y-121489937D01*
X408062499Y-121489937D02*
X408014880Y-121632794D01*
X408014880Y-121632794D02*
X407919642Y-121728033D01*
X407919642Y-121728033D02*
X407776785Y-121775652D01*
X407776785Y-121775652D02*
X407681547Y-121775652D01*
X408491071Y-120870890D02*
X408538690Y-120823271D01*
X408538690Y-120823271D02*
X408633928Y-120775652D01*
X408633928Y-120775652D02*
X408872023Y-120775652D01*
X408872023Y-120775652D02*
X408967261Y-120823271D01*
X408967261Y-120823271D02*
X409014880Y-120870890D01*
X409014880Y-120870890D02*
X409062499Y-120966128D01*
X409062499Y-120966128D02*
X409062499Y-121061366D01*
X409062499Y-121061366D02*
X409014880Y-121204223D01*
X409014880Y-121204223D02*
X408443452Y-121775652D01*
X408443452Y-121775652D02*
X409062499Y-121775652D01*
X41270832Y-72417319D02*
X41270832Y-73131604D01*
X41270832Y-73131604D02*
X41223213Y-73274461D01*
X41223213Y-73274461D02*
X41127975Y-73369700D01*
X41127975Y-73369700D02*
X40985118Y-73417319D01*
X40985118Y-73417319D02*
X40889880Y-73417319D01*
X42270832Y-73417319D02*
X41699404Y-73417319D01*
X41985118Y-73417319D02*
X41985118Y-72417319D01*
X41985118Y-72417319D02*
X41889880Y-72560176D01*
X41889880Y-72560176D02*
X41794642Y-72655414D01*
X41794642Y-72655414D02*
X41699404Y-72703033D01*
X261345832Y-169133985D02*
X261345832Y-169848270D01*
X261345832Y-169848270D02*
X261298213Y-169991127D01*
X261298213Y-169991127D02*
X261202975Y-170086366D01*
X261202975Y-170086366D02*
X261060118Y-170133985D01*
X261060118Y-170133985D02*
X260964880Y-170133985D01*
X261726785Y-169133985D02*
X262345832Y-169133985D01*
X262345832Y-169133985D02*
X262012499Y-169514937D01*
X262012499Y-169514937D02*
X262155356Y-169514937D01*
X262155356Y-169514937D02*
X262250594Y-169562556D01*
X262250594Y-169562556D02*
X262298213Y-169610175D01*
X262298213Y-169610175D02*
X262345832Y-169705413D01*
X262345832Y-169705413D02*
X262345832Y-169943508D01*
X262345832Y-169943508D02*
X262298213Y-170038746D01*
X262298213Y-170038746D02*
X262250594Y-170086366D01*
X262250594Y-170086366D02*
X262155356Y-170133985D01*
X262155356Y-170133985D02*
X261869642Y-170133985D01*
X261869642Y-170133985D02*
X261774404Y-170086366D01*
X261774404Y-170086366D02*
X261726785Y-170038746D01*
X41270832Y-217492319D02*
X41270832Y-218206604D01*
X41270832Y-218206604D02*
X41223213Y-218349461D01*
X41223213Y-218349461D02*
X41127975Y-218444700D01*
X41127975Y-218444700D02*
X40985118Y-218492319D01*
X40985118Y-218492319D02*
X40889880Y-218492319D01*
X42175594Y-217492319D02*
X41985118Y-217492319D01*
X41985118Y-217492319D02*
X41889880Y-217539938D01*
X41889880Y-217539938D02*
X41842261Y-217587557D01*
X41842261Y-217587557D02*
X41747023Y-217730414D01*
X41747023Y-217730414D02*
X41699404Y-217920890D01*
X41699404Y-217920890D02*
X41699404Y-218301842D01*
X41699404Y-218301842D02*
X41747023Y-218397080D01*
X41747023Y-218397080D02*
X41794642Y-218444700D01*
X41794642Y-218444700D02*
X41889880Y-218492319D01*
X41889880Y-218492319D02*
X42080356Y-218492319D01*
X42080356Y-218492319D02*
X42175594Y-218444700D01*
X42175594Y-218444700D02*
X42223213Y-218397080D01*
X42223213Y-218397080D02*
X42270832Y-218301842D01*
X42270832Y-218301842D02*
X42270832Y-218063747D01*
X42270832Y-218063747D02*
X42223213Y-217968509D01*
X42223213Y-217968509D02*
X42175594Y-217920890D01*
X42175594Y-217920890D02*
X42080356Y-217873271D01*
X42080356Y-217873271D02*
X41889880Y-217873271D01*
X41889880Y-217873271D02*
X41794642Y-217920890D01*
X41794642Y-217920890D02*
X41747023Y-217968509D01*
X41747023Y-217968509D02*
X41699404Y-218063747D01*
X114629166Y-217492319D02*
X114629166Y-218206604D01*
X114629166Y-218206604D02*
X114581547Y-218349461D01*
X114581547Y-218349461D02*
X114486309Y-218444700D01*
X114486309Y-218444700D02*
X114343452Y-218492319D01*
X114343452Y-218492319D02*
X114248214Y-218492319D01*
X115010119Y-217492319D02*
X115676785Y-217492319D01*
X115676785Y-217492319D02*
X115248214Y-218492319D01*
X334704166Y-169133985D02*
X334704166Y-169848270D01*
X334704166Y-169848270D02*
X334656547Y-169991127D01*
X334656547Y-169991127D02*
X334561309Y-170086366D01*
X334561309Y-170086366D02*
X334418452Y-170133985D01*
X334418452Y-170133985D02*
X334323214Y-170133985D01*
X335608928Y-169467318D02*
X335608928Y-170133985D01*
X335370833Y-169086366D02*
X335132738Y-169800651D01*
X335132738Y-169800651D02*
X335751785Y-169800651D01*
X408062499Y-169133985D02*
X408062499Y-169848270D01*
X408062499Y-169848270D02*
X408014880Y-169991127D01*
X408014880Y-169991127D02*
X407919642Y-170086366D01*
X407919642Y-170086366D02*
X407776785Y-170133985D01*
X407776785Y-170133985D02*
X407681547Y-170133985D01*
X409014880Y-169133985D02*
X408538690Y-169133985D01*
X408538690Y-169133985D02*
X408491071Y-169610175D01*
X408491071Y-169610175D02*
X408538690Y-169562556D01*
X408538690Y-169562556D02*
X408633928Y-169514937D01*
X408633928Y-169514937D02*
X408872023Y-169514937D01*
X408872023Y-169514937D02*
X408967261Y-169562556D01*
X408967261Y-169562556D02*
X409014880Y-169610175D01*
X409014880Y-169610175D02*
X409062499Y-169705413D01*
X409062499Y-169705413D02*
X409062499Y-169943508D01*
X409062499Y-169943508D02*
X409014880Y-170038746D01*
X409014880Y-170038746D02*
X408967261Y-170086366D01*
X408967261Y-170086366D02*
X408872023Y-170133985D01*
X408872023Y-170133985D02*
X408633928Y-170133985D01*
X408633928Y-170133985D02*
X408538690Y-170086366D01*
X408538690Y-170086366D02*
X408491071Y-170038746D01*
X187987499Y-217492319D02*
X187987499Y-218206604D01*
X187987499Y-218206604D02*
X187939880Y-218349461D01*
X187939880Y-218349461D02*
X187844642Y-218444700D01*
X187844642Y-218444700D02*
X187701785Y-218492319D01*
X187701785Y-218492319D02*
X187606547Y-218492319D01*
X188606547Y-217920890D02*
X188511309Y-217873271D01*
X188511309Y-217873271D02*
X188463690Y-217825652D01*
X188463690Y-217825652D02*
X188416071Y-217730414D01*
X188416071Y-217730414D02*
X188416071Y-217682795D01*
X188416071Y-217682795D02*
X188463690Y-217587557D01*
X188463690Y-217587557D02*
X188511309Y-217539938D01*
X188511309Y-217539938D02*
X188606547Y-217492319D01*
X188606547Y-217492319D02*
X188797023Y-217492319D01*
X188797023Y-217492319D02*
X188892261Y-217539938D01*
X188892261Y-217539938D02*
X188939880Y-217587557D01*
X188939880Y-217587557D02*
X188987499Y-217682795D01*
X188987499Y-217682795D02*
X188987499Y-217730414D01*
X188987499Y-217730414D02*
X188939880Y-217825652D01*
X188939880Y-217825652D02*
X188892261Y-217873271D01*
X188892261Y-217873271D02*
X188797023Y-217920890D01*
X188797023Y-217920890D02*
X188606547Y-217920890D01*
X188606547Y-217920890D02*
X188511309Y-217968509D01*
X188511309Y-217968509D02*
X188463690Y-218016128D01*
X188463690Y-218016128D02*
X188416071Y-218111366D01*
X188416071Y-218111366D02*
X188416071Y-218301842D01*
X188416071Y-218301842D02*
X188463690Y-218397080D01*
X188463690Y-218397080D02*
X188511309Y-218444700D01*
X188511309Y-218444700D02*
X188606547Y-218492319D01*
X188606547Y-218492319D02*
X188797023Y-218492319D01*
X188797023Y-218492319D02*
X188892261Y-218444700D01*
X188892261Y-218444700D02*
X188939880Y-218397080D01*
X188939880Y-218397080D02*
X188987499Y-218301842D01*
X188987499Y-218301842D02*
X188987499Y-218111366D01*
X188987499Y-218111366D02*
X188939880Y-218016128D01*
X188939880Y-218016128D02*
X188892261Y-217968509D01*
X188892261Y-217968509D02*
X188797023Y-217920890D01*
X261345832Y-217492319D02*
X261345832Y-218206604D01*
X261345832Y-218206604D02*
X261298213Y-218349461D01*
X261298213Y-218349461D02*
X261202975Y-218444700D01*
X261202975Y-218444700D02*
X261060118Y-218492319D01*
X261060118Y-218492319D02*
X260964880Y-218492319D01*
X261869642Y-218492319D02*
X262060118Y-218492319D01*
X262060118Y-218492319D02*
X262155356Y-218444700D01*
X262155356Y-218444700D02*
X262202975Y-218397080D01*
X262202975Y-218397080D02*
X262298213Y-218254223D01*
X262298213Y-218254223D02*
X262345832Y-218063747D01*
X262345832Y-218063747D02*
X262345832Y-217682795D01*
X262345832Y-217682795D02*
X262298213Y-217587557D01*
X262298213Y-217587557D02*
X262250594Y-217539938D01*
X262250594Y-217539938D02*
X262155356Y-217492319D01*
X262155356Y-217492319D02*
X261964880Y-217492319D01*
X261964880Y-217492319D02*
X261869642Y-217539938D01*
X261869642Y-217539938D02*
X261822023Y-217587557D01*
X261822023Y-217587557D02*
X261774404Y-217682795D01*
X261774404Y-217682795D02*
X261774404Y-217920890D01*
X261774404Y-217920890D02*
X261822023Y-218016128D01*
X261822023Y-218016128D02*
X261869642Y-218063747D01*
X261869642Y-218063747D02*
X261964880Y-218111366D01*
X261964880Y-218111366D02*
X262155356Y-218111366D01*
X262155356Y-218111366D02*
X262250594Y-218063747D01*
X262250594Y-218063747D02*
X262298213Y-218016128D01*
X262298213Y-218016128D02*
X262345832Y-217920890D01*
X41437499Y-265955413D02*
X41389880Y-266003033D01*
X41389880Y-266003033D02*
X41247023Y-266050652D01*
X41247023Y-266050652D02*
X41151785Y-266050652D01*
X41151785Y-266050652D02*
X41008928Y-266003033D01*
X41008928Y-266003033D02*
X40913690Y-265907794D01*
X40913690Y-265907794D02*
X40866071Y-265812556D01*
X40866071Y-265812556D02*
X40818452Y-265622080D01*
X40818452Y-265622080D02*
X40818452Y-265479223D01*
X40818452Y-265479223D02*
X40866071Y-265288747D01*
X40866071Y-265288747D02*
X40913690Y-265193509D01*
X40913690Y-265193509D02*
X41008928Y-265098271D01*
X41008928Y-265098271D02*
X41151785Y-265050652D01*
X41151785Y-265050652D02*
X41247023Y-265050652D01*
X41247023Y-265050652D02*
X41389880Y-265098271D01*
X41389880Y-265098271D02*
X41437499Y-265145890D01*
X41770833Y-265050652D02*
X42389880Y-265050652D01*
X42389880Y-265050652D02*
X42056547Y-265431604D01*
X42056547Y-265431604D02*
X42199404Y-265431604D01*
X42199404Y-265431604D02*
X42294642Y-265479223D01*
X42294642Y-265479223D02*
X42342261Y-265526842D01*
X42342261Y-265526842D02*
X42389880Y-265622080D01*
X42389880Y-265622080D02*
X42389880Y-265860175D01*
X42389880Y-265860175D02*
X42342261Y-265955413D01*
X42342261Y-265955413D02*
X42294642Y-266003033D01*
X42294642Y-266003033D02*
X42199404Y-266050652D01*
X42199404Y-266050652D02*
X41913690Y-266050652D01*
X41913690Y-266050652D02*
X41818452Y-266003033D01*
X41818452Y-266003033D02*
X41770833Y-265955413D01*
X187558928Y-20558985D02*
X187558928Y-21368508D01*
X187558928Y-21368508D02*
X187606547Y-21463746D01*
X187606547Y-21463746D02*
X187654166Y-21511366D01*
X187654166Y-21511366D02*
X187749404Y-21558985D01*
X187749404Y-21558985D02*
X187939880Y-21558985D01*
X187939880Y-21558985D02*
X188035118Y-21511366D01*
X188035118Y-21511366D02*
X188082737Y-21463746D01*
X188082737Y-21463746D02*
X188130356Y-21368508D01*
X188130356Y-21368508D02*
X188130356Y-20558985D01*
X188511309Y-20558985D02*
X189130356Y-20558985D01*
X189130356Y-20558985D02*
X188797023Y-20939937D01*
X188797023Y-20939937D02*
X188939880Y-20939937D01*
X188939880Y-20939937D02*
X189035118Y-20987556D01*
X189035118Y-20987556D02*
X189082737Y-21035175D01*
X189082737Y-21035175D02*
X189130356Y-21130413D01*
X189130356Y-21130413D02*
X189130356Y-21368508D01*
X189130356Y-21368508D02*
X189082737Y-21463746D01*
X189082737Y-21463746D02*
X189035118Y-21511366D01*
X189035118Y-21511366D02*
X188939880Y-21558985D01*
X188939880Y-21558985D02*
X188654166Y-21558985D01*
X188654166Y-21558985D02*
X188558928Y-21511366D01*
X188558928Y-21511366D02*
X188511309Y-21463746D01*
X407633928Y-24058985D02*
X407633928Y-24868508D01*
X407633928Y-24868508D02*
X407681547Y-24963746D01*
X407681547Y-24963746D02*
X407729166Y-25011366D01*
X407729166Y-25011366D02*
X407824404Y-25058985D01*
X407824404Y-25058985D02*
X408014880Y-25058985D01*
X408014880Y-25058985D02*
X408110118Y-25011366D01*
X408110118Y-25011366D02*
X408157737Y-24963746D01*
X408157737Y-24963746D02*
X408205356Y-24868508D01*
X408205356Y-24868508D02*
X408205356Y-24058985D01*
X409110118Y-24058985D02*
X408919642Y-24058985D01*
X408919642Y-24058985D02*
X408824404Y-24106604D01*
X408824404Y-24106604D02*
X408776785Y-24154223D01*
X408776785Y-24154223D02*
X408681547Y-24297080D01*
X408681547Y-24297080D02*
X408633928Y-24487556D01*
X408633928Y-24487556D02*
X408633928Y-24868508D01*
X408633928Y-24868508D02*
X408681547Y-24963746D01*
X408681547Y-24963746D02*
X408729166Y-25011366D01*
X408729166Y-25011366D02*
X408824404Y-25058985D01*
X408824404Y-25058985D02*
X409014880Y-25058985D01*
X409014880Y-25058985D02*
X409110118Y-25011366D01*
X409110118Y-25011366D02*
X409157737Y-24963746D01*
X409157737Y-24963746D02*
X409205356Y-24868508D01*
X409205356Y-24868508D02*
X409205356Y-24630413D01*
X409205356Y-24630413D02*
X409157737Y-24535175D01*
X409157737Y-24535175D02*
X409110118Y-24487556D01*
X409110118Y-24487556D02*
X409014880Y-24439937D01*
X409014880Y-24439937D02*
X408824404Y-24439937D01*
X408824404Y-24439937D02*
X408729166Y-24487556D01*
X408729166Y-24487556D02*
X408681547Y-24535175D01*
X408681547Y-24535175D02*
X408633928Y-24630413D01*
X114795833Y-269825413D02*
X114748214Y-269873033D01*
X114748214Y-269873033D02*
X114605357Y-269920652D01*
X114605357Y-269920652D02*
X114510119Y-269920652D01*
X114510119Y-269920652D02*
X114367262Y-269873033D01*
X114367262Y-269873033D02*
X114272024Y-269777794D01*
X114272024Y-269777794D02*
X114224405Y-269682556D01*
X114224405Y-269682556D02*
X114176786Y-269492080D01*
X114176786Y-269492080D02*
X114176786Y-269349223D01*
X114176786Y-269349223D02*
X114224405Y-269158747D01*
X114224405Y-269158747D02*
X114272024Y-269063509D01*
X114272024Y-269063509D02*
X114367262Y-268968271D01*
X114367262Y-268968271D02*
X114510119Y-268920652D01*
X114510119Y-268920652D02*
X114605357Y-268920652D01*
X114605357Y-268920652D02*
X114748214Y-268968271D01*
X114748214Y-268968271D02*
X114795833Y-269015890D01*
X115652976Y-269253985D02*
X115652976Y-269920652D01*
X115414881Y-268873033D02*
X115176786Y-269587318D01*
X115176786Y-269587318D02*
X115795833Y-269587318D01*
X260917261Y-16558985D02*
X260917261Y-17368508D01*
X260917261Y-17368508D02*
X260964880Y-17463746D01*
X260964880Y-17463746D02*
X261012499Y-17511366D01*
X261012499Y-17511366D02*
X261107737Y-17558985D01*
X261107737Y-17558985D02*
X261298213Y-17558985D01*
X261298213Y-17558985D02*
X261393451Y-17511366D01*
X261393451Y-17511366D02*
X261441070Y-17463746D01*
X261441070Y-17463746D02*
X261488689Y-17368508D01*
X261488689Y-17368508D02*
X261488689Y-16558985D01*
X262393451Y-16892318D02*
X262393451Y-17558985D01*
X262155356Y-16511366D02*
X261917261Y-17225651D01*
X261917261Y-17225651D02*
X262536308Y-17225651D01*
X334870833Y-216597080D02*
X334823214Y-216644700D01*
X334823214Y-216644700D02*
X334680357Y-216692319D01*
X334680357Y-216692319D02*
X334585119Y-216692319D01*
X334585119Y-216692319D02*
X334442262Y-216644700D01*
X334442262Y-216644700D02*
X334347024Y-216549461D01*
X334347024Y-216549461D02*
X334299405Y-216454223D01*
X334299405Y-216454223D02*
X334251786Y-216263747D01*
X334251786Y-216263747D02*
X334251786Y-216120890D01*
X334251786Y-216120890D02*
X334299405Y-215930414D01*
X334299405Y-215930414D02*
X334347024Y-215835176D01*
X334347024Y-215835176D02*
X334442262Y-215739938D01*
X334442262Y-215739938D02*
X334585119Y-215692319D01*
X334585119Y-215692319D02*
X334680357Y-215692319D01*
X334680357Y-215692319D02*
X334823214Y-215739938D01*
X334823214Y-215739938D02*
X334870833Y-215787557D01*
X335823214Y-216692319D02*
X335251786Y-216692319D01*
X335537500Y-216692319D02*
X335537500Y-215692319D01*
X335537500Y-215692319D02*
X335442262Y-215835176D01*
X335442262Y-215835176D02*
X335347024Y-215930414D01*
X335347024Y-215930414D02*
X335251786Y-215978033D01*
X408229166Y-221217080D02*
X408181547Y-221264700D01*
X408181547Y-221264700D02*
X408038690Y-221312319D01*
X408038690Y-221312319D02*
X407943452Y-221312319D01*
X407943452Y-221312319D02*
X407800595Y-221264700D01*
X407800595Y-221264700D02*
X407705357Y-221169461D01*
X407705357Y-221169461D02*
X407657738Y-221074223D01*
X407657738Y-221074223D02*
X407610119Y-220883747D01*
X407610119Y-220883747D02*
X407610119Y-220740890D01*
X407610119Y-220740890D02*
X407657738Y-220550414D01*
X407657738Y-220550414D02*
X407705357Y-220455176D01*
X407705357Y-220455176D02*
X407800595Y-220359938D01*
X407800595Y-220359938D02*
X407943452Y-220312319D01*
X407943452Y-220312319D02*
X408038690Y-220312319D01*
X408038690Y-220312319D02*
X408181547Y-220359938D01*
X408181547Y-220359938D02*
X408229166Y-220407557D01*
X408610119Y-220407557D02*
X408657738Y-220359938D01*
X408657738Y-220359938D02*
X408752976Y-220312319D01*
X408752976Y-220312319D02*
X408991071Y-220312319D01*
X408991071Y-220312319D02*
X409086309Y-220359938D01*
X409086309Y-220359938D02*
X409133928Y-220407557D01*
X409133928Y-220407557D02*
X409181547Y-220502795D01*
X409181547Y-220502795D02*
X409181547Y-220598033D01*
X409181547Y-220598033D02*
X409133928Y-220740890D01*
X409133928Y-220740890D02*
X408562500Y-221312319D01*
X408562500Y-221312319D02*
X409181547Y-221312319D01*
%TO.C,U2*%
D14*
X102812500Y-16954166D02*
X127112500Y-16954166D01*
X102812500Y-41254166D02*
X102812500Y-16954166D01*
X127112500Y-16954166D02*
X127112500Y-41254166D01*
X127112500Y-41254166D02*
X102812500Y-41254166D01*
%TO.C,U5*%
X332687500Y-24104166D02*
X337387500Y-24104166D01*
X332687500Y-34104166D02*
X332687500Y-24104166D01*
X337387500Y-24104166D02*
X337387500Y-34104166D01*
X337387500Y-34104166D02*
X332687500Y-34104166D01*
%TO.C,R1*%
X188167192Y-270515833D02*
X188474474Y-270515833D01*
X188167192Y-271275833D02*
X188474474Y-271275833D01*
%TO.C,R2*%
X261525525Y-270515833D02*
X261832807Y-270515833D01*
X261525525Y-271275833D02*
X261832807Y-271275833D01*
%TO.C,J14*%
X386245833Y-73312500D02*
X430545833Y-73312500D01*
X386245833Y-81612500D02*
X386245833Y-73312500D01*
X430545833Y-73312500D02*
X430545833Y-81612500D01*
X430545833Y-81612500D02*
X386245833Y-81612500D01*
%TO.C,J11*%
X166170833Y-73312500D02*
X210470833Y-73312500D01*
X166170833Y-81612500D02*
X166170833Y-73312500D01*
X210470833Y-73312500D02*
X210470833Y-81612500D01*
X210470833Y-81612500D02*
X166170833Y-81612500D01*
%TO.C,J12*%
X239529166Y-73312500D02*
X283829166Y-73312500D01*
X239529166Y-81612500D02*
X239529166Y-73312500D01*
X283829166Y-73312500D02*
X283829166Y-81612500D01*
X283829166Y-81612500D02*
X239529166Y-81612500D01*
%TO.C,J18*%
X239529166Y-121670833D02*
X283829166Y-121670833D01*
X239529166Y-129970833D02*
X239529166Y-121670833D01*
X283829166Y-121670833D02*
X283829166Y-129970833D01*
X283829166Y-129970833D02*
X239529166Y-129970833D01*
%TO.C,J19*%
X312887500Y-121670833D02*
X357187500Y-121670833D01*
X312887500Y-129970833D02*
X312887500Y-121670833D01*
X357187500Y-121670833D02*
X357187500Y-129970833D01*
X357187500Y-129970833D02*
X312887500Y-129970833D01*
%TO.C,J13*%
X312887500Y-73312500D02*
X357187500Y-73312500D01*
X312887500Y-81612500D02*
X312887500Y-73312500D01*
X357187500Y-73312500D02*
X357187500Y-81612500D01*
X357187500Y-81612500D02*
X312887500Y-81612500D01*
%TO.C,J15*%
X19454166Y-121670833D02*
X63754166Y-121670833D01*
X19454166Y-129970833D02*
X19454166Y-121670833D01*
X63754166Y-121670833D02*
X63754166Y-129970833D01*
X63754166Y-129970833D02*
X19454166Y-129970833D01*
%TO.C,J16*%
X92812500Y-121670833D02*
X137112500Y-121670833D01*
X92812500Y-129970833D02*
X92812500Y-121670833D01*
X137112500Y-121670833D02*
X137112500Y-129970833D01*
X137112500Y-129970833D02*
X92812500Y-129970833D01*
%TO.C,J17*%
X166170833Y-121670833D02*
X210470833Y-121670833D01*
X166170833Y-129970833D02*
X166170833Y-121670833D01*
X210470833Y-121670833D02*
X210470833Y-129970833D01*
X210470833Y-129970833D02*
X166170833Y-129970833D01*
%TO.C,J20*%
X19454166Y-170029166D02*
X63754166Y-170029166D01*
X19454166Y-178329166D02*
X19454166Y-170029166D01*
X63754166Y-170029166D02*
X63754166Y-178329166D01*
X63754166Y-178329166D02*
X19454166Y-178329166D01*
%TO.C,U1*%
X21454166Y-8954166D02*
X61754166Y-8954166D01*
X21454166Y-49254166D02*
X21454166Y-8954166D01*
X61754166Y-8954166D02*
X61754166Y-49254166D01*
X61754166Y-49254166D02*
X21454166Y-49254166D01*
%TO.C,J22*%
X162170833Y-170029166D02*
X214470833Y-170029166D01*
X162170833Y-178329166D02*
X162170833Y-170029166D01*
X214470833Y-170029166D02*
X214470833Y-178329166D01*
X214470833Y-178329166D02*
X162170833Y-178329166D01*
%TO.C,J21*%
X88812500Y-170029166D02*
X141112500Y-170029166D01*
X88812500Y-178329166D02*
X88812500Y-170029166D01*
X141112500Y-170029166D02*
X141112500Y-178329166D01*
X141112500Y-178329166D02*
X88812500Y-178329166D01*
%TO.C,J10*%
X80812500Y-74812500D02*
X149112500Y-74812500D01*
X80812500Y-80112500D02*
X80812500Y-74812500D01*
X149112500Y-74812500D02*
X149112500Y-80112500D01*
X149112500Y-80112500D02*
X80812500Y-80112500D01*
%TO.C,J2*%
X374245833Y-123170833D02*
X442545833Y-123170833D01*
X374245833Y-128470833D02*
X374245833Y-123170833D01*
X442545833Y-123170833D02*
X442545833Y-128470833D01*
X442545833Y-128470833D02*
X374245833Y-128470833D01*
%TO.C,J1*%
X7454166Y-74812500D02*
X75754166Y-74812500D01*
X7454166Y-80112500D02*
X7454166Y-74812500D01*
X75754166Y-74812500D02*
X75754166Y-80112500D01*
X75754166Y-80112500D02*
X7454166Y-80112500D01*
%TO.C,J3*%
X227529166Y-171529166D02*
X295829166Y-171529166D01*
X227529166Y-176829166D02*
X227529166Y-171529166D01*
X295829166Y-171529166D02*
X295829166Y-176829166D01*
X295829166Y-176829166D02*
X227529166Y-176829166D01*
%TO.C,J6*%
X7454166Y-219887500D02*
X75754166Y-219887500D01*
X7454166Y-225187500D02*
X7454166Y-219887500D01*
X75754166Y-219887500D02*
X75754166Y-225187500D01*
X75754166Y-225187500D02*
X7454166Y-225187500D01*
%TO.C,J7*%
X80812500Y-219887500D02*
X149112500Y-219887500D01*
X80812500Y-225187500D02*
X80812500Y-219887500D01*
X149112500Y-219887500D02*
X149112500Y-225187500D01*
X149112500Y-225187500D02*
X80812500Y-225187500D01*
%TO.C,J4*%
X300887500Y-171529166D02*
X369187500Y-171529166D01*
X300887500Y-176829166D02*
X300887500Y-171529166D01*
X369187500Y-171529166D02*
X369187500Y-176829166D01*
X369187500Y-176829166D02*
X300887500Y-176829166D01*
%TO.C,J5*%
X374245833Y-171529166D02*
X442545833Y-171529166D01*
X374245833Y-176829166D02*
X374245833Y-171529166D01*
X442545833Y-171529166D02*
X442545833Y-176829166D01*
X442545833Y-176829166D02*
X374245833Y-176829166D01*
%TO.C,J8*%
X154170833Y-219887500D02*
X222470833Y-219887500D01*
X154170833Y-225187500D02*
X154170833Y-219887500D01*
X222470833Y-219887500D02*
X222470833Y-225187500D01*
X222470833Y-225187500D02*
X154170833Y-225187500D01*
%TO.C,J9*%
X227529166Y-219887500D02*
X295829166Y-219887500D01*
X227529166Y-225187500D02*
X227529166Y-219887500D01*
X295829166Y-219887500D02*
X295829166Y-225187500D01*
X295829166Y-225187500D02*
X227529166Y-225187500D01*
%TO.C,C3*%
X36004166Y-268385833D02*
X37004166Y-268385833D01*
X36504166Y-267885833D02*
X36504166Y-268885833D01*
X37244166Y-267600270D02*
X37244166Y-269385833D01*
X37244166Y-267600270D02*
X38308603Y-266535833D01*
X37244166Y-274191396D02*
X37244166Y-272405833D01*
X37244166Y-274191396D02*
X38308603Y-275255833D01*
X38308603Y-266535833D02*
X45964166Y-266535833D01*
X38308603Y-275255833D02*
X45964166Y-275255833D01*
X45964166Y-266535833D02*
X45964166Y-269385833D01*
X45964166Y-275255833D02*
X45964166Y-272405833D01*
%TO.C,U3*%
X180670833Y-22954166D02*
X195970833Y-22954166D01*
X180670833Y-35254166D02*
X180670833Y-22954166D01*
X195970833Y-22954166D02*
X195970833Y-35254166D01*
X195970833Y-35254166D02*
X180670833Y-35254166D01*
%TO.C,U6*%
X405745833Y-26454166D02*
X411045833Y-26454166D01*
X405745833Y-31754166D02*
X405745833Y-26454166D01*
X411045833Y-26454166D02*
X411045833Y-31754166D01*
X411045833Y-31754166D02*
X405745833Y-31754166D01*
%TO.C,C4*%
X114821920Y-270385833D02*
X115103080Y-270385833D01*
X114821920Y-271405833D02*
X115103080Y-271405833D01*
%TO.C,U4*%
X251529166Y-18954166D02*
X271829166Y-18954166D01*
X251529166Y-39254166D02*
X251529166Y-18954166D01*
X271829166Y-18954166D02*
X271829166Y-39254166D01*
X271829166Y-39254166D02*
X251529166Y-39254166D01*
%TO.C,C1*%
X328187500Y-219777500D02*
X329437500Y-219777500D01*
X328812500Y-219152500D02*
X328812500Y-220402500D01*
X329677500Y-218241937D02*
X329677500Y-221027500D01*
X329677500Y-218241937D02*
X330741937Y-217177500D01*
X329677500Y-226833063D02*
X329677500Y-224047500D01*
X329677500Y-226833063D02*
X330741937Y-227897500D01*
X330741937Y-217177500D02*
X340397500Y-217177500D01*
X330741937Y-227897500D02*
X340397500Y-227897500D01*
X340397500Y-217177500D02*
X340397500Y-221027500D01*
X340397500Y-227897500D02*
X340397500Y-224047500D01*
%TO.C,C2*%
X408134581Y-221802500D02*
X408657085Y-221802500D01*
X408134581Y-223272500D02*
X408657085Y-223272500D01*
%TD*%
M02*
