%TF.GenerationSoftware,KiCad,Pcbnew,10.0.5*%
%TF.CreationDate,2026-08-03T20:31:47-07:00*%
%TF.ProjectId,palpod-compute-backplane-routed,70616c70-6f64-42d6-936f-6d707574652d,A0*%
%TF.SameCoordinates,Original*%
%TF.FileFunction,Copper,L7,Inr*%
%TF.FilePolarity,Positive*%
%FSLAX46Y46*%
G04 Gerber Fmt 4.6, Leading zero omitted, Abs format (unit mm)*
G04 Created by KiCad (PCBNEW 10.0.5) date 2026-08-03 20:31:47*
%MOMM*%
%LPD*%
G01*
G04 APERTURE LIST*
%TA.AperFunction,ComponentPad*%
%ADD10C,3.000000*%
%TD*%
G04 APERTURE END LIST*
D10*
%TO.N,N/C*%
%TO.C,J22*%
X165220833Y-172079166D03*
X169420833Y-172079166D03*
X173620833Y-172079166D03*
X177820833Y-172079166D03*
X182020833Y-172079166D03*
X186220833Y-172079166D03*
X190420833Y-172079166D03*
X194620833Y-172079166D03*
X198820833Y-172079166D03*
X203020833Y-172079166D03*
X207220833Y-172079166D03*
X211420833Y-172079166D03*
X165220833Y-176279166D03*
X169420833Y-176279166D03*
X173620833Y-176279166D03*
X177820833Y-176279166D03*
X182020833Y-176279166D03*
X186220833Y-176279166D03*
X190420833Y-176279166D03*
X194620833Y-176279166D03*
X198820833Y-176279166D03*
X203020833Y-176279166D03*
X207220833Y-176279166D03*
X211420833Y-176279166D03*
%TD*%
%TO.N,N/C*%
%TO.C,J21*%
X91862500Y-172079166D03*
X96062500Y-172079166D03*
X100262500Y-172079166D03*
X104462500Y-172079166D03*
X108662500Y-172079166D03*
X112862500Y-172079166D03*
X117062500Y-172079166D03*
X121262500Y-172079166D03*
X125462500Y-172079166D03*
X129662500Y-172079166D03*
X133862500Y-172079166D03*
X138062500Y-172079166D03*
X91862500Y-176279166D03*
X96062500Y-176279166D03*
X100262500Y-176279166D03*
X104462500Y-176279166D03*
X108662500Y-176279166D03*
X112862500Y-176279166D03*
X117062500Y-176279166D03*
X121262500Y-176279166D03*
X125462500Y-176279166D03*
X129662500Y-176279166D03*
X133862500Y-176279166D03*
X138062500Y-176279166D03*
%TD*%
M02*
