%TF.GenerationSoftware,KiCad,Pcbnew,10.0.5*%
%TF.CreationDate,2026-08-03T20:31:47-07:00*%
%TF.ProjectId,palpod-compute-backplane-routed,70616c70-6f64-42d6-936f-6d707574652d,A0*%
%TF.SameCoordinates,Original*%
%TF.FileFunction,Copper,L14,Bot*%
%TF.FilePolarity,Positive*%
%FSLAX46Y46*%
G04 Gerber Fmt 4.6, Leading zero omitted, Abs format (unit mm)*
G04 Created by KiCad (PCBNEW 10.0.5) date 2026-08-03 20:31:47*
%MOMM*%
%LPD*%
G01*
G04 APERTURE LIST*
%TA.AperFunction,ComponentPad*%
%ADD10C,3.000000*%
%TD*%
G04 APERTURE END LIST*
D10*
%TO.P,J22,1*%
%TO.N,N/C*%
X165220833Y-172079166D03*
%TO.P,J22,2*%
X169420833Y-172079166D03*
%TO.P,J22,3*%
X173620833Y-172079166D03*
%TO.P,J22,4*%
X177820833Y-172079166D03*
%TO.P,J22,5*%
X182020833Y-172079166D03*
%TO.P,J22,6*%
X186220833Y-172079166D03*
%TO.P,J22,7*%
X190420833Y-172079166D03*
%TO.P,J22,8*%
X194620833Y-172079166D03*
%TO.P,J22,9*%
X198820833Y-172079166D03*
%TO.P,J22,10*%
X203020833Y-172079166D03*
%TO.P,J22,11*%
X207220833Y-172079166D03*
%TO.P,J22,12*%
X211420833Y-172079166D03*
%TO.P,J22,13*%
X165220833Y-176279166D03*
%TO.P,J22,14*%
X169420833Y-176279166D03*
%TO.P,J22,15*%
X173620833Y-176279166D03*
%TO.P,J22,16*%
X177820833Y-176279166D03*
%TO.P,J22,17*%
X182020833Y-176279166D03*
%TO.P,J22,18*%
X186220833Y-176279166D03*
%TO.P,J22,19*%
X190420833Y-176279166D03*
%TO.P,J22,20*%
X194620833Y-176279166D03*
%TO.P,J22,21*%
X198820833Y-176279166D03*
%TO.P,J22,22*%
X203020833Y-176279166D03*
%TO.P,J22,23*%
X207220833Y-176279166D03*
%TO.P,J22,24*%
X211420833Y-176279166D03*
%TD*%
%TO.P,J21,1*%
%TO.N,N/C*%
X91862500Y-172079166D03*
%TO.P,J21,2*%
X96062500Y-172079166D03*
%TO.P,J21,3*%
X100262500Y-172079166D03*
%TO.P,J21,4*%
X104462500Y-172079166D03*
%TO.P,J21,5*%
X108662500Y-172079166D03*
%TO.P,J21,6*%
X112862500Y-172079166D03*
%TO.P,J21,7*%
X117062500Y-172079166D03*
%TO.P,J21,8*%
X121262500Y-172079166D03*
%TO.P,J21,9*%
X125462500Y-172079166D03*
%TO.P,J21,10*%
X129662500Y-172079166D03*
%TO.P,J21,11*%
X133862500Y-172079166D03*
%TO.P,J21,12*%
X138062500Y-172079166D03*
%TO.P,J21,13*%
X91862500Y-176279166D03*
%TO.P,J21,14*%
X96062500Y-176279166D03*
%TO.P,J21,15*%
X100262500Y-176279166D03*
%TO.P,J21,16*%
X104462500Y-176279166D03*
%TO.P,J21,17*%
X108662500Y-176279166D03*
%TO.P,J21,18*%
X112862500Y-176279166D03*
%TO.P,J21,19*%
X117062500Y-176279166D03*
%TO.P,J21,20*%
X121262500Y-176279166D03*
%TO.P,J21,21*%
X125462500Y-176279166D03*
%TO.P,J21,22*%
X129662500Y-176279166D03*
%TO.P,J21,23*%
X133862500Y-176279166D03*
%TO.P,J21,24*%
X138062500Y-176279166D03*
%TD*%
M02*
