M48
; DRILL file KiCad 10.0.5 date 2026-08-03T20:31:48
; FORMAT={-:-/ absolute / metric / decimal}
; #@! TF.CreationDate,2026-08-03T20:31:48-07:00
; #@! TF.GenerationSoftware,Kicad,Pcbnew,10.0.5
; #@! TF.FileFunction,MixedPlating,1,14
FMAT,2
METRIC
; #@! TA.AperFunction,Plated,PTH,ComponentDrill
T1C1.700
; #@! TA.AperFunction,NonPlated,NPTH,ComponentDrill
T2C3.200
%
G90
G05
T1
X91.862Y-172.079
X91.862Y-176.279
X96.062Y-172.079
X96.062Y-176.279
X100.262Y-172.079
X100.262Y-176.279
X104.462Y-172.079
X104.462Y-176.279
X108.662Y-172.079
X108.662Y-176.279
X112.862Y-172.079
X112.862Y-176.279
X117.062Y-172.079
X117.062Y-176.279
X121.262Y-172.079
X121.262Y-176.279
X125.462Y-172.079
X125.462Y-176.279
X129.662Y-172.079
X129.662Y-176.279
X133.862Y-172.079
X133.862Y-176.279
X138.062Y-172.079
X138.062Y-176.279
X165.221Y-172.079
X165.221Y-176.279
X169.421Y-172.079
X169.421Y-176.279
X173.621Y-172.079
X173.621Y-176.279
X177.821Y-172.079
X177.821Y-176.279
X182.021Y-172.079
X182.021Y-176.279
X186.221Y-172.079
X186.221Y-176.279
X190.421Y-172.079
X190.421Y-176.279
X194.621Y-172.079
X194.621Y-176.279
X198.821Y-172.079
X198.821Y-176.279
X203.021Y-172.079
X203.021Y-176.279
X207.221Y-172.079
X207.221Y-176.279
X211.421Y-172.079
X211.421Y-176.279
T2
X10.0Y-10.0
X10.0Y-290.0
X225.0Y-10.0
X225.0Y-290.0
X440.0Y-10.0
X440.0Y-290.0
M30
