%TF.GenerationSoftware,KiCad,Pcbnew,10.0.5*%
%TF.CreationDate,2026-08-03T20:23:24-07:00*%
%TF.ProjectId,palpod-mic-array-routed,70616c70-6f64-42d6-9d69-632d61727261,A0*%
%TF.SameCoordinates,Original*%
%TF.FileFunction,Soldermask,Top*%
%TF.FilePolarity,Negative*%
%FSLAX46Y46*%
G04 Gerber Fmt 4.6, Leading zero omitted, Abs format (unit mm)*
G04 Created by KiCad (PCBNEW 10.0.5) date 2026-08-03 20:23:24*
%MOMM*%
%LPD*%
G01*
G04 APERTURE LIST*
G04 Aperture macros list*
%AMRoundRect*
0 Rectangle with rounded corners*
0 $1 Rounding radius*
0 $2 $3 $4 $5 $6 $7 $8 $9 X,Y pos of 4 corners*
0 Add a 4 corners polygon primitive as box body*
4,1,4,$2,$3,$4,$5,$6,$7,$8,$9,$2,$3,0*
0 Add four circle primitives for the rounded corners*
1,1,$1+$1,$2,$3*
1,1,$1+$1,$4,$5*
1,1,$1+$1,$6,$7*
1,1,$1+$1,$8,$9*
0 Add four rect primitives between the rounded corners*
20,1,$1+$1,$2,$3,$4,$5,0*
20,1,$1+$1,$4,$5,$6,$7,0*
20,1,$1+$1,$6,$7,$8,$9,0*
20,1,$1+$1,$8,$9,$2,$3,0*%
G04 Aperture macros list end*
%ADD10RoundRect,0.075000X-0.700000X-0.075000X0.700000X-0.075000X0.700000X0.075000X-0.700000X0.075000X0*%
%ADD11RoundRect,0.075000X-0.075000X-0.700000X0.075000X-0.700000X0.075000X0.700000X-0.075000X0.700000X0*%
%ADD12C,0.350000*%
%ADD13RoundRect,0.375000X-0.625000X-0.375000X0.625000X-0.375000X0.625000X0.375000X-0.625000X0.375000X0*%
%ADD14RoundRect,0.500000X-0.500000X-1.400000X0.500000X-1.400000X0.500000X1.400000X-0.500000X1.400000X0*%
%ADD15RoundRect,0.140000X-0.140000X-0.170000X0.140000X-0.170000X0.140000X0.170000X-0.140000X0.170000X0*%
%ADD16RoundRect,0.225000X-0.225000X-0.250000X0.225000X-0.250000X0.225000X0.250000X-0.225000X0.250000X0*%
%ADD17R,0.600000X0.600000*%
%ADD18R,0.300000X0.500000*%
%ADD19R,0.500000X0.300000*%
%ADD20R,3.000000X3.000000*%
G04 APERTURE END LIST*
D10*
%TO.C,U4*%
X-14854166Y49645833D03*
X-14854166Y49145833D03*
X-14854166Y48645833D03*
X-14854166Y48145833D03*
X-14854166Y47645833D03*
X-14854166Y47145833D03*
X-14854166Y46645833D03*
X-14854166Y46145833D03*
X-14854166Y45645833D03*
X-14854166Y45145833D03*
X-14854166Y44645833D03*
X-14854166Y44145833D03*
X-14854166Y43645833D03*
X-14854166Y43145833D03*
X-14854166Y42645833D03*
X-14854166Y42145833D03*
D11*
X-12929166Y40220833D03*
X-12429166Y40220833D03*
X-11929166Y40220833D03*
X-11429166Y40220833D03*
X-10929166Y40220833D03*
X-10429166Y40220833D03*
X-9929166Y40220833D03*
X-9429166Y40220833D03*
X-8929166Y40220833D03*
X-8429166Y40220833D03*
X-7929166Y40220833D03*
X-7429166Y40220833D03*
X-6929166Y40220833D03*
X-6429166Y40220833D03*
X-5929166Y40220833D03*
X-5429166Y40220833D03*
D10*
X-3504166Y42145833D03*
X-3504166Y42645833D03*
X-3504166Y43145833D03*
X-3504166Y43645833D03*
X-3504166Y44145833D03*
X-3504166Y44645833D03*
X-3504166Y45145833D03*
X-3504166Y45645833D03*
X-3504166Y46145833D03*
X-3504166Y46645833D03*
X-3504166Y47145833D03*
X-3504166Y47645833D03*
X-3504166Y48145833D03*
X-3504166Y48645833D03*
X-3504166Y49145833D03*
X-3504166Y49645833D03*
D11*
X-5429166Y51570833D03*
X-5929166Y51570833D03*
X-6429166Y51570833D03*
X-6929166Y51570833D03*
X-7429166Y51570833D03*
X-7929166Y51570833D03*
X-8429166Y51570833D03*
X-8929166Y51570833D03*
X-9429166Y51570833D03*
X-9929166Y51570833D03*
X-10429166Y51570833D03*
X-10929166Y51570833D03*
X-11429166Y51570833D03*
X-11929166Y51570833D03*
X-12429166Y51570833D03*
X-12929166Y51570833D03*
%TD*%
D12*
%TO.C,U1*%
X-48170833Y48170833D03*
X-47520833Y48170833D03*
X-46870833Y48170833D03*
X-46220833Y48170833D03*
X-45570833Y48170833D03*
X-44920833Y48170833D03*
X-44270833Y48170833D03*
X-48170833Y47520833D03*
X-47520833Y47520833D03*
X-46870833Y47520833D03*
X-46220833Y47520833D03*
X-45570833Y47520833D03*
X-44920833Y47520833D03*
X-44270833Y47520833D03*
X-43620833Y47520833D03*
X-48170833Y46870833D03*
X-47520833Y46870833D03*
X-46870833Y46870833D03*
X-46220833Y46870833D03*
X-45570833Y46870833D03*
X-44920833Y46870833D03*
X-44270833Y46870833D03*
X-43620833Y46870833D03*
X-48170833Y46220833D03*
X-47520833Y46220833D03*
X-46870833Y46220833D03*
X-46220833Y46220833D03*
X-45570833Y46220833D03*
X-44920833Y46220833D03*
X-44270833Y46220833D03*
X-43620833Y46220833D03*
X-48170833Y45570833D03*
X-47520833Y45570833D03*
X-46870833Y45570833D03*
X-46220833Y45570833D03*
X-45570833Y45570833D03*
X-44920833Y45570833D03*
X-44270833Y45570833D03*
X-43620833Y45570833D03*
X-48170833Y44920833D03*
X-47520833Y44920833D03*
X-46870833Y44920833D03*
X-46220833Y44920833D03*
X-45570833Y44920833D03*
X-44920833Y44920833D03*
X-44270833Y44920833D03*
X-43620833Y44920833D03*
X-48170833Y44270833D03*
X-47520833Y44270833D03*
X-46870833Y44270833D03*
X-46220833Y44270833D03*
X-45570833Y44270833D03*
X-44920833Y44270833D03*
X-44270833Y44270833D03*
X-43620833Y44270833D03*
X-47520833Y43620833D03*
X-46870833Y43620833D03*
X-46220833Y43620833D03*
X-45570833Y43620833D03*
X-44920833Y43620833D03*
X-44270833Y43620833D03*
%TD*%
D13*
%TO.C,U5*%
X6029166Y48195833D03*
X6029166Y45895833D03*
D14*
X12329166Y45895833D03*
D13*
X6029166Y43595833D03*
%TD*%
%TO.C,U6*%
X24387499Y48195833D03*
X24387499Y45895833D03*
D14*
X30687499Y45895833D03*
D13*
X24387499Y43595833D03*
%TD*%
%TO.C,U7*%
X42745833Y48195833D03*
X42745833Y45895833D03*
D14*
X49045833Y45895833D03*
D13*
X42745833Y43595833D03*
%TD*%
D15*
%TO.C,C10*%
X-28017500Y27537500D03*
X-27057500Y27537500D03*
%TD*%
%TO.C,C11*%
X-9659166Y27537500D03*
X-8699166Y27537500D03*
%TD*%
%TO.C,C12*%
X8699166Y27537500D03*
X9659166Y27537500D03*
%TD*%
%TO.C,C13*%
X27057499Y27537500D03*
X28017499Y27537500D03*
%TD*%
%TO.C,C14*%
X45415833Y27537500D03*
X46375833Y27537500D03*
%TD*%
%TO.C,C15*%
X-46375833Y9179166D03*
X-45415833Y9179166D03*
%TD*%
D16*
%TO.C,C1*%
X-46670833Y27537500D03*
X-45120833Y27537500D03*
%TD*%
%TO.C,C2*%
X-28312500Y9179166D03*
X-26762500Y9179166D03*
%TD*%
%TO.C,C3*%
X-9954166Y9179166D03*
X-8404166Y9179166D03*
%TD*%
%TO.C,C4*%
X8404166Y9179166D03*
X9954166Y9179166D03*
%TD*%
%TO.C,C5*%
X26762499Y9179166D03*
X28312499Y9179166D03*
%TD*%
%TO.C,C6*%
X45120833Y9179166D03*
X46670833Y9179166D03*
%TD*%
D17*
%TO.C,M3*%
X-47095833Y-28287499D03*
X-44695833Y-28287499D03*
X-44695833Y-26787499D03*
X-45895833Y-26787499D03*
X-47095833Y-26787499D03*
%TD*%
%TO.C,M4*%
X-28737500Y-28287499D03*
X-26337500Y-28287499D03*
X-26337500Y-26787499D03*
X-27537500Y-26787499D03*
X-28737500Y-26787499D03*
%TD*%
%TO.C,M1*%
X-47095833Y-9929166D03*
X-44695833Y-9929166D03*
X-44695833Y-8429166D03*
X-45895833Y-8429166D03*
X-47095833Y-8429166D03*
%TD*%
%TO.C,M10*%
X-28737500Y-9929166D03*
X-26337500Y-9929166D03*
X-26337500Y-8429166D03*
X-27537500Y-8429166D03*
X-28737500Y-8429166D03*
%TD*%
%TO.C,M11*%
X-10379166Y-9929166D03*
X-7979166Y-9929166D03*
X-7979166Y-8429166D03*
X-9179166Y-8429166D03*
X-10379166Y-8429166D03*
%TD*%
%TO.C,M12*%
X7979166Y-9929166D03*
X10379166Y-9929166D03*
X10379166Y-8429166D03*
X9179166Y-8429166D03*
X7979166Y-8429166D03*
%TD*%
%TO.C,M13*%
X26337499Y-9929166D03*
X28737499Y-9929166D03*
X28737499Y-8429166D03*
X27537499Y-8429166D03*
X26337499Y-8429166D03*
%TD*%
%TO.C,M2*%
X44695833Y-9929166D03*
X47095833Y-9929166D03*
X47095833Y-8429166D03*
X45895833Y-8429166D03*
X44695833Y-8429166D03*
%TD*%
%TO.C,M5*%
X-10379166Y-28287499D03*
X-7979166Y-28287499D03*
X-7979166Y-26787499D03*
X-9179166Y-26787499D03*
X-10379166Y-26787499D03*
%TD*%
%TO.C,M6*%
X7979166Y-28287499D03*
X10379166Y-28287499D03*
X10379166Y-26787499D03*
X9179166Y-26787499D03*
X7979166Y-26787499D03*
%TD*%
%TO.C,M7*%
X26337499Y-28287499D03*
X28737499Y-28287499D03*
X28737499Y-26787499D03*
X27537499Y-26787499D03*
X26337499Y-26787499D03*
%TD*%
%TO.C,M8*%
X44695833Y-28287499D03*
X47095833Y-28287499D03*
X47095833Y-26787499D03*
X45895833Y-26787499D03*
X44695833Y-26787499D03*
%TD*%
%TO.C,M9*%
X-47095833Y-46645833D03*
X-44695833Y-46645833D03*
X-44695833Y-45145833D03*
X-45895833Y-45145833D03*
X-47095833Y-45145833D03*
%TD*%
D18*
%TO.C,U2*%
X-31537500Y43545833D03*
X-31037500Y43545833D03*
X-30537500Y43545833D03*
X-30037500Y43545833D03*
X-29537500Y43545833D03*
X-29037500Y43545833D03*
X-28537500Y43545833D03*
X-28037500Y43545833D03*
X-27537500Y43545833D03*
X-27037500Y43545833D03*
X-26537500Y43545833D03*
X-26037500Y43545833D03*
X-25537500Y43545833D03*
X-25037500Y43545833D03*
X-24537500Y43545833D03*
X-24037500Y43545833D03*
X-23537500Y43545833D03*
D19*
X-25187500Y41895833D03*
X-25187500Y42395833D03*
X-25187500Y42895833D03*
X-25187500Y43395833D03*
X-25187500Y43895833D03*
X-25187500Y44395833D03*
X-25187500Y44895833D03*
X-25187500Y45395833D03*
X-25187500Y45895833D03*
X-25187500Y46395833D03*
X-25187500Y46895833D03*
X-25187500Y47395833D03*
X-25187500Y47895833D03*
X-25187500Y48395833D03*
X-25187500Y48895833D03*
X-25187500Y49395833D03*
X-25187500Y49895833D03*
D18*
X-23537500Y48245833D03*
X-24037500Y48245833D03*
X-24537500Y48245833D03*
X-25037500Y48245833D03*
X-25537500Y48245833D03*
X-26037500Y48245833D03*
X-26537500Y48245833D03*
X-27037500Y48245833D03*
X-27537500Y48245833D03*
X-28037500Y48245833D03*
X-28537500Y48245833D03*
X-29037500Y48245833D03*
X-29537500Y48245833D03*
X-30037500Y48245833D03*
X-30537500Y48245833D03*
X-31037500Y48245833D03*
X-31537500Y48245833D03*
D19*
X-29887500Y49895833D03*
X-29887500Y49395833D03*
X-29887500Y48895833D03*
X-29887500Y48395833D03*
X-29887500Y47895833D03*
X-29887500Y47395833D03*
X-29887500Y46895833D03*
X-29887500Y46395833D03*
X-29887500Y45895833D03*
X-29887500Y45395833D03*
X-29887500Y44895833D03*
X-29887500Y44395833D03*
X-29887500Y43895833D03*
X-29887500Y43395833D03*
X-29887500Y42895833D03*
X-29887500Y42395833D03*
X-29887500Y41895833D03*
D20*
X-27537500Y45895833D03*
%TD*%
M02*
