%TF.GenerationSoftware,KiCad,Pcbnew,10.0.5*%
%TF.CreationDate,2026-08-03T20:23:24-07:00*%
%TF.ProjectId,palpod-mic-array-routed,70616c70-6f64-42d6-9d69-632d61727261,A0*%
%TF.SameCoordinates,Original*%
%TF.FileFunction,Copper,L1,Top*%
%TF.FilePolarity,Positive*%
%FSLAX46Y46*%
G04 Gerber Fmt 4.6, Leading zero omitted, Abs format (unit mm)*
G04 Created by KiCad (PCBNEW 10.0.5) date 2026-08-03 20:23:24*
%MOMM*%
%LPD*%
G01*
G04 APERTURE LIST*
G04 Aperture macros list*
%AMRoundRect*
0 Rectangle with rounded corners*
0 $1 Rounding radius*
0 $2 $3 $4 $5 $6 $7 $8 $9 X,Y pos of 4 corners*
0 Add a 4 corners polygon primitive as box body*
4,1,4,$2,$3,$4,$5,$6,$7,$8,$9,$2,$3,0*
0 Add four circle primitives for the rounded corners*
1,1,$1+$1,$2,$3*
1,1,$1+$1,$4,$5*
1,1,$1+$1,$6,$7*
1,1,$1+$1,$8,$9*
0 Add four rect primitives between the rounded corners*
20,1,$1+$1,$2,$3,$4,$5,0*
20,1,$1+$1,$4,$5,$6,$7,0*
20,1,$1+$1,$6,$7,$8,$9,0*
20,1,$1+$1,$8,$9,$2,$3,0*%
G04 Aperture macros list end*
%TA.AperFunction,SMDPad,CuDef*%
%ADD10RoundRect,0.075000X-0.700000X-0.075000X0.700000X-0.075000X0.700000X0.075000X-0.700000X0.075000X0*%
%TD*%
%TA.AperFunction,SMDPad,CuDef*%
%ADD11RoundRect,0.075000X-0.075000X-0.700000X0.075000X-0.700000X0.075000X0.700000X-0.075000X0.700000X0*%
%TD*%
%TA.AperFunction,SMDPad,CuDef*%
%ADD12C,0.350000*%
%TD*%
%TA.AperFunction,SMDPad,CuDef*%
%ADD13RoundRect,0.375000X-0.625000X-0.375000X0.625000X-0.375000X0.625000X0.375000X-0.625000X0.375000X0*%
%TD*%
%TA.AperFunction,SMDPad,CuDef*%
%ADD14RoundRect,0.500000X-0.500000X-1.400000X0.500000X-1.400000X0.500000X1.400000X-0.500000X1.400000X0*%
%TD*%
%TA.AperFunction,SMDPad,CuDef*%
%ADD15RoundRect,0.140000X-0.140000X-0.170000X0.140000X-0.170000X0.140000X0.170000X-0.140000X0.170000X0*%
%TD*%
%TA.AperFunction,SMDPad,CuDef*%
%ADD16RoundRect,0.225000X-0.225000X-0.250000X0.225000X-0.250000X0.225000X0.250000X-0.225000X0.250000X0*%
%TD*%
%TA.AperFunction,SMDPad,CuDef*%
%ADD17R,0.600000X0.600000*%
%TD*%
%TA.AperFunction,SMDPad,CuDef*%
%ADD18R,0.300000X0.500000*%
%TD*%
%TA.AperFunction,SMDPad,CuDef*%
%ADD19R,0.500000X0.300000*%
%TD*%
%TA.AperFunction,SMDPad,CuDef*%
%ADD20R,3.000000X3.000000*%
%TD*%
G04 APERTURE END LIST*
D10*
%TO.P,U4,1*%
%TO.N,N/C*%
X-14854166Y49645833D03*
%TO.P,U4,2*%
X-14854166Y49145833D03*
%TO.P,U4,3*%
X-14854166Y48645833D03*
%TO.P,U4,4*%
X-14854166Y48145833D03*
%TO.P,U4,5*%
X-14854166Y47645833D03*
%TO.P,U4,6*%
X-14854166Y47145833D03*
%TO.P,U4,7*%
X-14854166Y46645833D03*
%TO.P,U4,8*%
X-14854166Y46145833D03*
%TO.P,U4,9*%
X-14854166Y45645833D03*
%TO.P,U4,10*%
X-14854166Y45145833D03*
%TO.P,U4,11*%
X-14854166Y44645833D03*
%TO.P,U4,12*%
X-14854166Y44145833D03*
%TO.P,U4,13*%
X-14854166Y43645833D03*
%TO.P,U4,14*%
X-14854166Y43145833D03*
%TO.P,U4,15*%
X-14854166Y42645833D03*
%TO.P,U4,16*%
X-14854166Y42145833D03*
D11*
%TO.P,U4,17*%
X-12929166Y40220833D03*
%TO.P,U4,18*%
X-12429166Y40220833D03*
%TO.P,U4,19*%
X-11929166Y40220833D03*
%TO.P,U4,20*%
X-11429166Y40220833D03*
%TO.P,U4,21*%
X-10929166Y40220833D03*
%TO.P,U4,22*%
X-10429166Y40220833D03*
%TO.P,U4,23*%
X-9929166Y40220833D03*
%TO.P,U4,24*%
X-9429166Y40220833D03*
%TO.P,U4,25*%
X-8929166Y40220833D03*
%TO.P,U4,26*%
X-8429166Y40220833D03*
%TO.P,U4,27*%
X-7929166Y40220833D03*
%TO.P,U4,28*%
X-7429166Y40220833D03*
%TO.P,U4,29*%
X-6929166Y40220833D03*
%TO.P,U4,30*%
X-6429166Y40220833D03*
%TO.P,U4,31*%
X-5929166Y40220833D03*
%TO.P,U4,32*%
X-5429166Y40220833D03*
D10*
%TO.P,U4,33*%
X-3504166Y42145833D03*
%TO.P,U4,34*%
X-3504166Y42645833D03*
%TO.P,U4,35*%
X-3504166Y43145833D03*
%TO.P,U4,36*%
X-3504166Y43645833D03*
%TO.P,U4,37*%
X-3504166Y44145833D03*
%TO.P,U4,38*%
X-3504166Y44645833D03*
%TO.P,U4,39*%
X-3504166Y45145833D03*
%TO.P,U4,40*%
X-3504166Y45645833D03*
%TO.P,U4,41*%
X-3504166Y46145833D03*
%TO.P,U4,42*%
X-3504166Y46645833D03*
%TO.P,U4,43*%
X-3504166Y47145833D03*
%TO.P,U4,44*%
X-3504166Y47645833D03*
%TO.P,U4,45*%
X-3504166Y48145833D03*
%TO.P,U4,46*%
X-3504166Y48645833D03*
%TO.P,U4,47*%
X-3504166Y49145833D03*
%TO.P,U4,48*%
X-3504166Y49645833D03*
D11*
%TO.P,U4,49*%
X-5429166Y51570833D03*
%TO.P,U4,50*%
X-5929166Y51570833D03*
%TO.P,U4,51*%
X-6429166Y51570833D03*
%TO.P,U4,52*%
X-6929166Y51570833D03*
%TO.P,U4,53*%
X-7429166Y51570833D03*
%TO.P,U4,54*%
X-7929166Y51570833D03*
%TO.P,U4,55*%
X-8429166Y51570833D03*
%TO.P,U4,56*%
X-8929166Y51570833D03*
%TO.P,U4,57*%
X-9429166Y51570833D03*
%TO.P,U4,58*%
X-9929166Y51570833D03*
%TO.P,U4,59*%
X-10429166Y51570833D03*
%TO.P,U4,60*%
X-10929166Y51570833D03*
%TO.P,U4,61*%
X-11429166Y51570833D03*
%TO.P,U4,62*%
X-11929166Y51570833D03*
%TO.P,U4,63*%
X-12429166Y51570833D03*
%TO.P,U4,64*%
X-12929166Y51570833D03*
%TD*%
D12*
%TO.P,U1,A1*%
%TO.N,N/C*%
X-48170833Y48170833D03*
%TO.P,U1,A2*%
X-47520833Y48170833D03*
%TO.P,U1,A3*%
X-46870833Y48170833D03*
%TO.P,U1,A4*%
X-46220833Y48170833D03*
%TO.P,U1,A5*%
X-45570833Y48170833D03*
%TO.P,U1,A6*%
X-44920833Y48170833D03*
%TO.P,U1,A7*%
X-44270833Y48170833D03*
%TO.P,U1,B1*%
X-48170833Y47520833D03*
%TO.P,U1,B2*%
X-47520833Y47520833D03*
%TO.P,U1,B3*%
X-46870833Y47520833D03*
%TO.P,U1,B4*%
X-46220833Y47520833D03*
%TO.P,U1,B5*%
X-45570833Y47520833D03*
%TO.P,U1,B6*%
X-44920833Y47520833D03*
%TO.P,U1,B7*%
X-44270833Y47520833D03*
%TO.P,U1,B8*%
X-43620833Y47520833D03*
%TO.P,U1,C1*%
X-48170833Y46870833D03*
%TO.P,U1,C2*%
X-47520833Y46870833D03*
%TO.P,U1,C3*%
X-46870833Y46870833D03*
%TO.P,U1,C4*%
X-46220833Y46870833D03*
%TO.P,U1,C5*%
X-45570833Y46870833D03*
%TO.P,U1,C6*%
X-44920833Y46870833D03*
%TO.P,U1,C7*%
X-44270833Y46870833D03*
%TO.P,U1,C8*%
X-43620833Y46870833D03*
%TO.P,U1,D1*%
X-48170833Y46220833D03*
%TO.P,U1,D2*%
X-47520833Y46220833D03*
%TO.P,U1,D3*%
X-46870833Y46220833D03*
%TO.P,U1,D4*%
X-46220833Y46220833D03*
%TO.P,U1,D5*%
X-45570833Y46220833D03*
%TO.P,U1,D6*%
X-44920833Y46220833D03*
%TO.P,U1,D7*%
X-44270833Y46220833D03*
%TO.P,U1,D8*%
X-43620833Y46220833D03*
%TO.P,U1,E1*%
X-48170833Y45570833D03*
%TO.P,U1,E2*%
X-47520833Y45570833D03*
%TO.P,U1,E3*%
X-46870833Y45570833D03*
%TO.P,U1,E4*%
X-46220833Y45570833D03*
%TO.P,U1,E5*%
X-45570833Y45570833D03*
%TO.P,U1,E6*%
X-44920833Y45570833D03*
%TO.P,U1,E7*%
X-44270833Y45570833D03*
%TO.P,U1,E8*%
X-43620833Y45570833D03*
%TO.P,U1,F1*%
X-48170833Y44920833D03*
%TO.P,U1,F2*%
X-47520833Y44920833D03*
%TO.P,U1,F3*%
X-46870833Y44920833D03*
%TO.P,U1,F4*%
X-46220833Y44920833D03*
%TO.P,U1,F5*%
X-45570833Y44920833D03*
%TO.P,U1,F6*%
X-44920833Y44920833D03*
%TO.P,U1,F7*%
X-44270833Y44920833D03*
%TO.P,U1,F8*%
X-43620833Y44920833D03*
%TO.P,U1,G1*%
X-48170833Y44270833D03*
%TO.P,U1,G2*%
X-47520833Y44270833D03*
%TO.P,U1,G3*%
X-46870833Y44270833D03*
%TO.P,U1,G4*%
X-46220833Y44270833D03*
%TO.P,U1,G5*%
X-45570833Y44270833D03*
%TO.P,U1,G6*%
X-44920833Y44270833D03*
%TO.P,U1,G7*%
X-44270833Y44270833D03*
%TO.P,U1,G8*%
X-43620833Y44270833D03*
%TO.P,U1,H2*%
X-47520833Y43620833D03*
%TO.P,U1,H3*%
X-46870833Y43620833D03*
%TO.P,U1,H4*%
X-46220833Y43620833D03*
%TO.P,U1,H5*%
X-45570833Y43620833D03*
%TO.P,U1,H6*%
X-44920833Y43620833D03*
%TO.P,U1,H7*%
X-44270833Y43620833D03*
%TD*%
D13*
%TO.P,U5,1*%
%TO.N,N/C*%
X6029166Y48195833D03*
%TO.P,U5,2*%
X6029166Y45895833D03*
D14*
X12329166Y45895833D03*
D13*
%TO.P,U5,3*%
X6029166Y43595833D03*
%TD*%
%TO.P,U6,1*%
%TO.N,N/C*%
X24387499Y48195833D03*
%TO.P,U6,2*%
X24387499Y45895833D03*
D14*
X30687499Y45895833D03*
D13*
%TO.P,U6,3*%
X24387499Y43595833D03*
%TD*%
%TO.P,U7,1*%
%TO.N,N/C*%
X42745833Y48195833D03*
%TO.P,U7,2*%
X42745833Y45895833D03*
D14*
X49045833Y45895833D03*
D13*
%TO.P,U7,3*%
X42745833Y43595833D03*
%TD*%
D15*
%TO.P,C10,1*%
%TO.N,N/C*%
X-28017500Y27537500D03*
%TO.P,C10,2*%
X-27057500Y27537500D03*
%TD*%
%TO.P,C11,1*%
%TO.N,N/C*%
X-9659166Y27537500D03*
%TO.P,C11,2*%
X-8699166Y27537500D03*
%TD*%
%TO.P,C12,1*%
%TO.N,N/C*%
X8699166Y27537500D03*
%TO.P,C12,2*%
X9659166Y27537500D03*
%TD*%
%TO.P,C13,1*%
%TO.N,N/C*%
X27057499Y27537500D03*
%TO.P,C13,2*%
X28017499Y27537500D03*
%TD*%
%TO.P,C14,1*%
%TO.N,N/C*%
X45415833Y27537500D03*
%TO.P,C14,2*%
X46375833Y27537500D03*
%TD*%
%TO.P,C15,1*%
%TO.N,N/C*%
X-46375833Y9179166D03*
%TO.P,C15,2*%
X-45415833Y9179166D03*
%TD*%
D16*
%TO.P,C1,1*%
%TO.N,N/C*%
X-46670833Y27537500D03*
%TO.P,C1,2*%
X-45120833Y27537500D03*
%TD*%
%TO.P,C2,1*%
%TO.N,N/C*%
X-28312500Y9179166D03*
%TO.P,C2,2*%
X-26762500Y9179166D03*
%TD*%
%TO.P,C3,1*%
%TO.N,N/C*%
X-9954166Y9179166D03*
%TO.P,C3,2*%
X-8404166Y9179166D03*
%TD*%
%TO.P,C4,1*%
%TO.N,N/C*%
X8404166Y9179166D03*
%TO.P,C4,2*%
X9954166Y9179166D03*
%TD*%
%TO.P,C5,1*%
%TO.N,N/C*%
X26762499Y9179166D03*
%TO.P,C5,2*%
X28312499Y9179166D03*
%TD*%
%TO.P,C6,1*%
%TO.N,N/C*%
X45120833Y9179166D03*
%TO.P,C6,2*%
X46670833Y9179166D03*
%TD*%
D17*
%TO.P,M3,1*%
%TO.N,VDD*%
X-47095833Y-28287499D03*
%TO.P,M3,2*%
%TO.N,GND*%
X-44695833Y-28287499D03*
%TO.P,M3,3*%
%TO.N,N/C*%
X-44695833Y-26787499D03*
%TO.P,M3,4*%
X-45895833Y-26787499D03*
%TO.P,M3,5*%
X-47095833Y-26787499D03*
%TD*%
%TO.P,M4,1*%
%TO.N,VDD*%
X-28737500Y-28287499D03*
%TO.P,M4,2*%
%TO.N,GND*%
X-26337500Y-28287499D03*
%TO.P,M4,3*%
%TO.N,N/C*%
X-26337500Y-26787499D03*
%TO.P,M4,4*%
X-27537500Y-26787499D03*
%TO.P,M4,5*%
X-28737500Y-26787499D03*
%TD*%
%TO.P,M1,1*%
%TO.N,VDD*%
X-47095833Y-9929166D03*
%TO.P,M1,2*%
%TO.N,GND*%
X-44695833Y-9929166D03*
%TO.P,M1,3*%
%TO.N,N/C*%
X-44695833Y-8429166D03*
%TO.P,M1,4*%
X-45895833Y-8429166D03*
%TO.P,M1,5*%
X-47095833Y-8429166D03*
%TD*%
%TO.P,M10,1*%
%TO.N,N/C*%
X-28737500Y-9929166D03*
%TO.P,M10,2*%
X-26337500Y-9929166D03*
%TO.P,M10,3*%
X-26337500Y-8429166D03*
%TO.P,M10,4*%
X-27537500Y-8429166D03*
%TO.P,M10,5*%
X-28737500Y-8429166D03*
%TD*%
%TO.P,M11,1*%
%TO.N,N/C*%
X-10379166Y-9929166D03*
%TO.P,M11,2*%
X-7979166Y-9929166D03*
%TO.P,M11,3*%
X-7979166Y-8429166D03*
%TO.P,M11,4*%
X-9179166Y-8429166D03*
%TO.P,M11,5*%
X-10379166Y-8429166D03*
%TD*%
%TO.P,M12,1*%
%TO.N,N/C*%
X7979166Y-9929166D03*
%TO.P,M12,2*%
X10379166Y-9929166D03*
%TO.P,M12,3*%
X10379166Y-8429166D03*
%TO.P,M12,4*%
X9179166Y-8429166D03*
%TO.P,M12,5*%
X7979166Y-8429166D03*
%TD*%
%TO.P,M13,1*%
%TO.N,N/C*%
X26337499Y-9929166D03*
%TO.P,M13,2*%
X28737499Y-9929166D03*
%TO.P,M13,3*%
X28737499Y-8429166D03*
%TO.P,M13,4*%
X27537499Y-8429166D03*
%TO.P,M13,5*%
X26337499Y-8429166D03*
%TD*%
%TO.P,M2,1*%
%TO.N,VDD*%
X44695833Y-9929166D03*
%TO.P,M2,2*%
%TO.N,GND*%
X47095833Y-9929166D03*
%TO.P,M2,3*%
%TO.N,N/C*%
X47095833Y-8429166D03*
%TO.P,M2,4*%
X45895833Y-8429166D03*
%TO.P,M2,5*%
X44695833Y-8429166D03*
%TD*%
%TO.P,M5,1*%
%TO.N,VDD*%
X-10379166Y-28287499D03*
%TO.P,M5,2*%
%TO.N,N/C*%
X-7979166Y-28287499D03*
%TO.P,M5,3*%
X-7979166Y-26787499D03*
%TO.P,M5,4*%
X-9179166Y-26787499D03*
%TO.P,M5,5*%
X-10379166Y-26787499D03*
%TD*%
%TO.P,M6,1*%
%TO.N,VDD*%
X7979166Y-28287499D03*
%TO.P,M6,2*%
%TO.N,N/C*%
X10379166Y-28287499D03*
%TO.P,M6,3*%
X10379166Y-26787499D03*
%TO.P,M6,4*%
X9179166Y-26787499D03*
%TO.P,M6,5*%
X7979166Y-26787499D03*
%TD*%
%TO.P,M7,1*%
%TO.N,VDD*%
X26337499Y-28287499D03*
%TO.P,M7,2*%
%TO.N,N/C*%
X28737499Y-28287499D03*
%TO.P,M7,3*%
X28737499Y-26787499D03*
%TO.P,M7,4*%
X27537499Y-26787499D03*
%TO.P,M7,5*%
X26337499Y-26787499D03*
%TD*%
%TO.P,M8,1*%
%TO.N,VDD*%
X44695833Y-28287499D03*
%TO.P,M8,2*%
%TO.N,N/C*%
X47095833Y-28287499D03*
%TO.P,M8,3*%
X47095833Y-26787499D03*
%TO.P,M8,4*%
X45895833Y-26787499D03*
%TO.P,M8,5*%
X44695833Y-26787499D03*
%TD*%
%TO.P,M9,1*%
%TO.N,N/C*%
X-47095833Y-46645833D03*
%TO.P,M9,2*%
X-44695833Y-46645833D03*
%TO.P,M9,3*%
X-44695833Y-45145833D03*
%TO.P,M9,4*%
X-45895833Y-45145833D03*
%TO.P,M9,5*%
X-47095833Y-45145833D03*
%TD*%
D18*
%TO.P,U2,1*%
%TO.N,N/C*%
X-31537500Y43545833D03*
%TO.P,U2,2*%
X-31037500Y43545833D03*
%TO.P,U2,3*%
X-30537500Y43545833D03*
%TO.P,U2,4*%
X-30037500Y43545833D03*
%TO.P,U2,5*%
X-29537500Y43545833D03*
%TO.P,U2,6*%
X-29037500Y43545833D03*
%TO.P,U2,7*%
X-28537500Y43545833D03*
%TO.P,U2,8*%
X-28037500Y43545833D03*
%TO.P,U2,9*%
X-27537500Y43545833D03*
%TO.P,U2,10*%
X-27037500Y43545833D03*
%TO.P,U2,11*%
X-26537500Y43545833D03*
%TO.P,U2,12*%
X-26037500Y43545833D03*
%TO.P,U2,13*%
X-25537500Y43545833D03*
%TO.P,U2,14*%
X-25037500Y43545833D03*
%TO.P,U2,15*%
X-24537500Y43545833D03*
%TO.P,U2,16*%
X-24037500Y43545833D03*
%TO.P,U2,17*%
X-23537500Y43545833D03*
D19*
%TO.P,U2,18*%
X-25187500Y41895833D03*
%TO.P,U2,19*%
X-25187500Y42395833D03*
%TO.P,U2,20*%
X-25187500Y42895833D03*
%TO.P,U2,21*%
X-25187500Y43395833D03*
%TO.P,U2,22*%
X-25187500Y43895833D03*
%TO.P,U2,23*%
X-25187500Y44395833D03*
%TO.P,U2,24*%
X-25187500Y44895833D03*
%TO.P,U2,25*%
X-25187500Y45395833D03*
%TO.P,U2,26*%
X-25187500Y45895833D03*
%TO.P,U2,27*%
X-25187500Y46395833D03*
%TO.P,U2,28*%
X-25187500Y46895833D03*
%TO.P,U2,29*%
X-25187500Y47395833D03*
%TO.P,U2,30*%
X-25187500Y47895833D03*
%TO.P,U2,31*%
X-25187500Y48395833D03*
%TO.P,U2,32*%
X-25187500Y48895833D03*
%TO.P,U2,33*%
X-25187500Y49395833D03*
%TO.P,U2,34*%
X-25187500Y49895833D03*
D18*
%TO.P,U2,35*%
X-23537500Y48245833D03*
%TO.P,U2,36*%
X-24037500Y48245833D03*
%TO.P,U2,37*%
X-24537500Y48245833D03*
%TO.P,U2,38*%
X-25037500Y48245833D03*
%TO.P,U2,39*%
X-25537500Y48245833D03*
%TO.P,U2,40*%
X-26037500Y48245833D03*
%TO.P,U2,41*%
X-26537500Y48245833D03*
%TO.P,U2,42*%
X-27037500Y48245833D03*
%TO.P,U2,43*%
X-27537500Y48245833D03*
%TO.P,U2,44*%
X-28037500Y48245833D03*
%TO.P,U2,45*%
X-28537500Y48245833D03*
%TO.P,U2,46*%
X-29037500Y48245833D03*
%TO.P,U2,47*%
X-29537500Y48245833D03*
%TO.P,U2,48*%
X-30037500Y48245833D03*
%TO.P,U2,49*%
X-30537500Y48245833D03*
%TO.P,U2,50*%
X-31037500Y48245833D03*
%TO.P,U2,51*%
X-31537500Y48245833D03*
D19*
%TO.P,U2,52*%
X-29887500Y49895833D03*
%TO.P,U2,53*%
X-29887500Y49395833D03*
%TO.P,U2,54*%
X-29887500Y48895833D03*
%TO.P,U2,55*%
X-29887500Y48395833D03*
%TO.P,U2,56*%
X-29887500Y47895833D03*
%TO.P,U2,57*%
X-29887500Y47395833D03*
%TO.P,U2,58*%
X-29887500Y46895833D03*
%TO.P,U2,59*%
X-29887500Y46395833D03*
%TO.P,U2,60*%
X-29887500Y45895833D03*
%TO.P,U2,61*%
X-29887500Y45395833D03*
%TO.P,U2,62*%
X-29887500Y44895833D03*
%TO.P,U2,63*%
X-29887500Y44395833D03*
%TO.P,U2,64*%
X-29887500Y43895833D03*
%TO.P,U2,65*%
X-29887500Y43395833D03*
%TO.P,U2,66*%
X-29887500Y42895833D03*
%TO.P,U2,67*%
X-29887500Y42395833D03*
%TO.P,U2,68*%
X-29887500Y41895833D03*
D20*
%TO.P,U2,69*%
X-27537500Y45895833D03*
%TD*%
M02*
