%TF.GenerationSoftware,KiCad,Pcbnew,10.0.5*%
%TF.CreationDate,2026-08-03T20:23:24-07:00*%
%TF.ProjectId,palpod-mic-array-routed,70616c70-6f64-42d6-9d69-632d61727261,A0*%
%TF.SameCoordinates,Original*%
%TF.FileFunction,Other,User*%
%FSLAX46Y46*%
G04 Gerber Fmt 4.6, Leading zero omitted, Abs format (unit mm)*
G04 Created by KiCad (PCBNEW 10.0.5) date 2026-08-03 20:23:24*
%MOMM*%
%LPD*%
G01*
G04 APERTURE LIST*
%ADD10C,0.050000*%
G04 APERTURE END LIST*
%TO.C,U4*%
D10*
X-15879166Y50045833D02*
X-14429166Y50045833D01*
X-15879166Y41745833D02*
X-15879166Y50045833D01*
X-14429166Y51145833D02*
X-13329166Y51145833D01*
X-14429166Y50045833D02*
X-14429166Y51145833D01*
X-14429166Y41745833D02*
X-15879166Y41745833D01*
X-14429166Y40645833D02*
X-14429166Y41745833D01*
X-13329166Y52595833D02*
X-5029166Y52595833D01*
X-13329166Y51145833D02*
X-13329166Y52595833D01*
X-13329166Y40645833D02*
X-14429166Y40645833D01*
X-13329166Y39195833D02*
X-13329166Y40645833D01*
X-5029166Y52595833D02*
X-5029166Y51145833D01*
X-5029166Y51145833D02*
X-3929166Y51145833D01*
X-5029166Y40645833D02*
X-5029166Y39195833D01*
X-5029166Y39195833D02*
X-13329166Y39195833D01*
X-3929166Y51145833D02*
X-3929166Y50045833D01*
X-3929166Y50045833D02*
X-2479166Y50045833D01*
X-3929166Y41745833D02*
X-3929166Y40645833D01*
X-3929166Y40645833D02*
X-5029166Y40645833D01*
X-2479166Y50045833D02*
X-2479166Y41745833D01*
X-2479166Y41745833D02*
X-3929166Y41745833D01*
%TO.C,U1*%
X-49645833Y49645833D02*
X-42145833Y49645833D01*
X-49645833Y42145833D02*
X-49645833Y49645833D01*
X-42145833Y49645833D02*
X-42145833Y42145833D01*
X-42145833Y42145833D02*
X-49645833Y42145833D01*
%TO.C,U5*%
X4779166Y49495833D02*
X4779166Y42295833D01*
X4779166Y42295833D02*
X13579166Y42295833D01*
X13579166Y49495833D02*
X4779166Y49495833D01*
X13579166Y42295833D02*
X13579166Y49495833D01*
%TO.C,U6*%
X23137499Y49495833D02*
X23137499Y42295833D01*
X23137499Y42295833D02*
X31937499Y42295833D01*
X31937499Y49495833D02*
X23137499Y49495833D01*
X31937499Y42295833D02*
X31937499Y49495833D01*
%TO.C,U7*%
X41495833Y49495833D02*
X41495833Y42295833D01*
X41495833Y42295833D02*
X50295833Y42295833D01*
X50295833Y49495833D02*
X41495833Y49495833D01*
X50295833Y42295833D02*
X50295833Y49495833D01*
%TO.C,C10*%
X-28447500Y27997500D02*
X-26627500Y27997500D01*
X-26627500Y27077500D01*
X-28447500Y27077500D01*
X-28447500Y27997500D01*
%TO.C,C11*%
X-10089166Y27997500D02*
X-8269166Y27997500D01*
X-8269166Y27077500D01*
X-10089166Y27077500D01*
X-10089166Y27997500D01*
%TO.C,C12*%
X8269166Y27997500D02*
X10089166Y27997500D01*
X10089166Y27077500D01*
X8269166Y27077500D01*
X8269166Y27997500D01*
%TO.C,C13*%
X26627499Y27997500D02*
X28447499Y27997500D01*
X28447499Y27077500D01*
X26627499Y27077500D01*
X26627499Y27997500D01*
%TO.C,C14*%
X44985833Y27997500D02*
X46805833Y27997500D01*
X46805833Y27077500D01*
X44985833Y27077500D01*
X44985833Y27997500D01*
%TO.C,C15*%
X-46805833Y9639166D02*
X-44985833Y9639166D01*
X-44985833Y8719166D01*
X-46805833Y8719166D01*
X-46805833Y9639166D01*
%TO.C,C1*%
X-47375833Y28267500D02*
X-44415833Y28267500D01*
X-44415833Y26807500D01*
X-47375833Y26807500D01*
X-47375833Y28267500D01*
%TO.C,C2*%
X-29017500Y9909166D02*
X-26057500Y9909166D01*
X-26057500Y8449166D01*
X-29017500Y8449166D01*
X-29017500Y9909166D01*
%TO.C,C3*%
X-10659166Y9909166D02*
X-7699166Y9909166D01*
X-7699166Y8449166D01*
X-10659166Y8449166D01*
X-10659166Y9909166D01*
%TO.C,C4*%
X7699166Y9909166D02*
X10659166Y9909166D01*
X10659166Y8449166D01*
X7699166Y8449166D01*
X7699166Y9909166D01*
%TO.C,C5*%
X26057499Y9909166D02*
X29017499Y9909166D01*
X29017499Y8449166D01*
X26057499Y8449166D01*
X26057499Y9909166D01*
%TO.C,C6*%
X44415833Y9909166D02*
X47375833Y9909166D01*
X47375833Y8449166D01*
X44415833Y8449166D01*
X44415833Y9909166D01*
%TO.C,M3*%
X-47895833Y-25962499D02*
X-43895833Y-25962499D01*
X-47895833Y-29112499D02*
X-47895833Y-25962499D01*
X-43895833Y-25962499D02*
X-43895833Y-29112499D01*
X-43895833Y-29112499D02*
X-47895833Y-29112499D01*
%TO.C,M4*%
X-29537500Y-25962499D02*
X-25537500Y-25962499D01*
X-29537500Y-29112499D02*
X-29537500Y-25962499D01*
X-25537500Y-25962499D02*
X-25537500Y-29112499D01*
X-25537500Y-29112499D02*
X-29537500Y-29112499D01*
%TO.C,M1*%
X-47895833Y-7604166D02*
X-43895833Y-7604166D01*
X-47895833Y-10754166D02*
X-47895833Y-7604166D01*
X-43895833Y-7604166D02*
X-43895833Y-10754166D01*
X-43895833Y-10754166D02*
X-47895833Y-10754166D01*
%TO.C,M10*%
X-29537500Y-7604166D02*
X-25537500Y-7604166D01*
X-29537500Y-10754166D02*
X-29537500Y-7604166D01*
X-25537500Y-7604166D02*
X-25537500Y-10754166D01*
X-25537500Y-10754166D02*
X-29537500Y-10754166D01*
%TO.C,M11*%
X-11179166Y-7604166D02*
X-7179166Y-7604166D01*
X-11179166Y-10754166D02*
X-11179166Y-7604166D01*
X-7179166Y-7604166D02*
X-7179166Y-10754166D01*
X-7179166Y-10754166D02*
X-11179166Y-10754166D01*
%TO.C,M12*%
X7179166Y-7604166D02*
X11179166Y-7604166D01*
X7179166Y-10754166D02*
X7179166Y-7604166D01*
X11179166Y-7604166D02*
X11179166Y-10754166D01*
X11179166Y-10754166D02*
X7179166Y-10754166D01*
%TO.C,M13*%
X25537499Y-7604166D02*
X29537499Y-7604166D01*
X25537499Y-10754166D02*
X25537499Y-7604166D01*
X29537499Y-7604166D02*
X29537499Y-10754166D01*
X29537499Y-10754166D02*
X25537499Y-10754166D01*
%TO.C,M2*%
X43895833Y-7604166D02*
X47895833Y-7604166D01*
X43895833Y-10754166D02*
X43895833Y-7604166D01*
X47895833Y-7604166D02*
X47895833Y-10754166D01*
X47895833Y-10754166D02*
X43895833Y-10754166D01*
%TO.C,M5*%
X-11179166Y-25962499D02*
X-7179166Y-25962499D01*
X-11179166Y-29112499D02*
X-11179166Y-25962499D01*
X-7179166Y-25962499D02*
X-7179166Y-29112499D01*
X-7179166Y-29112499D02*
X-11179166Y-29112499D01*
%TO.C,M6*%
X7179166Y-25962499D02*
X11179166Y-25962499D01*
X7179166Y-29112499D02*
X7179166Y-25962499D01*
X11179166Y-25962499D02*
X11179166Y-29112499D01*
X11179166Y-29112499D02*
X7179166Y-29112499D01*
%TO.C,M7*%
X25537499Y-25962499D02*
X29537499Y-25962499D01*
X25537499Y-29112499D02*
X25537499Y-25962499D01*
X29537499Y-25962499D02*
X29537499Y-29112499D01*
X29537499Y-29112499D02*
X25537499Y-29112499D01*
%TO.C,M8*%
X43895833Y-25962499D02*
X47895833Y-25962499D01*
X43895833Y-29112499D02*
X43895833Y-25962499D01*
X47895833Y-25962499D02*
X47895833Y-29112499D01*
X47895833Y-29112499D02*
X43895833Y-29112499D01*
%TO.C,M9*%
X-47895833Y-44320833D02*
X-43895833Y-44320833D01*
X-47895833Y-47470833D02*
X-47895833Y-44320833D01*
X-43895833Y-44320833D02*
X-43895833Y-47470833D01*
X-43895833Y-47470833D02*
X-47895833Y-47470833D01*
%TO.C,U2*%
X-30287500Y48645833D02*
X-24787500Y48645833D01*
X-30287500Y43145833D02*
X-30287500Y48645833D01*
X-24787500Y48645833D02*
X-24787500Y43145833D01*
X-24787500Y43145833D02*
X-30287500Y43145833D01*
%TD*%
M02*
