%TF.GenerationSoftware,KiCad,Pcbnew,10.0.5*%
%TF.CreationDate,2026-08-03T20:23:24-07:00*%
%TF.ProjectId,palpod-mic-array-routed,70616c70-6f64-42d6-9d69-632d61727261,A0*%
%TF.SameCoordinates,Original*%
%TF.FileFunction,Legend,Top*%
%TF.FilePolarity,Positive*%
%FSLAX46Y46*%
G04 Gerber Fmt 4.6, Leading zero omitted, Abs format (unit mm)*
G04 Created by KiCad (PCBNEW 10.0.5) date 2026-08-03 20:23:24*
%MOMM*%
%LPD*%
G01*
G04 APERTURE LIST*
%ADD10C,0.200000*%
%ADD11C,0.300000*%
%ADD12C,0.150000*%
%ADD13C,0.120000*%
%ADD14C,0.275000*%
G04 APERTURE END LIST*
D10*
X360149Y58214400D02*
X531578Y58157257D01*
X531578Y58157257D02*
X817292Y58157257D01*
X817292Y58157257D02*
X931578Y58214400D01*
X931578Y58214400D02*
X988720Y58271542D01*
X988720Y58271542D02*
X1045863Y58385828D01*
X1045863Y58385828D02*
X1045863Y58500114D01*
X1045863Y58500114D02*
X988720Y58614400D01*
X988720Y58614400D02*
X931578Y58671542D01*
X931578Y58671542D02*
X817292Y58728685D01*
X817292Y58728685D02*
X588720Y58785828D01*
X588720Y58785828D02*
X474435Y58842971D01*
X474435Y58842971D02*
X417292Y58900114D01*
X417292Y58900114D02*
X360149Y59014400D01*
X360149Y59014400D02*
X360149Y59128685D01*
X360149Y59128685D02*
X417292Y59242971D01*
X417292Y59242971D02*
X474435Y59300114D01*
X474435Y59300114D02*
X588720Y59357257D01*
X588720Y59357257D02*
X874435Y59357257D01*
X874435Y59357257D02*
X1045863Y59300114D01*
X2017292Y58214400D02*
X1903006Y58157257D01*
X1903006Y58157257D02*
X1674435Y58157257D01*
X1674435Y58157257D02*
X1560149Y58214400D01*
X1560149Y58214400D02*
X1503006Y58328685D01*
X1503006Y58328685D02*
X1503006Y58785828D01*
X1503006Y58785828D02*
X1560149Y58900114D01*
X1560149Y58900114D02*
X1674435Y58957257D01*
X1674435Y58957257D02*
X1903006Y58957257D01*
X1903006Y58957257D02*
X2017292Y58900114D01*
X2017292Y58900114D02*
X2074435Y58785828D01*
X2074435Y58785828D02*
X2074435Y58671542D01*
X2074435Y58671542D02*
X1503006Y58557257D01*
X3045863Y58214400D02*
X2931577Y58157257D01*
X2931577Y58157257D02*
X2703006Y58157257D01*
X2703006Y58157257D02*
X2588720Y58214400D01*
X2588720Y58214400D02*
X2531577Y58328685D01*
X2531577Y58328685D02*
X2531577Y58785828D01*
X2531577Y58785828D02*
X2588720Y58900114D01*
X2588720Y58900114D02*
X2703006Y58957257D01*
X2703006Y58957257D02*
X2931577Y58957257D01*
X2931577Y58957257D02*
X3045863Y58900114D01*
X3045863Y58900114D02*
X3103006Y58785828D01*
X3103006Y58785828D02*
X3103006Y58671542D01*
X3103006Y58671542D02*
X2531577Y58557257D01*
X4531577Y58157257D02*
X4531577Y58957257D01*
X4531577Y58842971D02*
X4588720Y58900114D01*
X4588720Y58900114D02*
X4703005Y58957257D01*
X4703005Y58957257D02*
X4874434Y58957257D01*
X4874434Y58957257D02*
X4988720Y58900114D01*
X4988720Y58900114D02*
X5045863Y58785828D01*
X5045863Y58785828D02*
X5045863Y58157257D01*
X5045863Y58785828D02*
X5103005Y58900114D01*
X5103005Y58900114D02*
X5217291Y58957257D01*
X5217291Y58957257D02*
X5388720Y58957257D01*
X5388720Y58957257D02*
X5503005Y58900114D01*
X5503005Y58900114D02*
X5560148Y58785828D01*
X5560148Y58785828D02*
X5560148Y58157257D01*
X6131577Y58157257D02*
X6131577Y58957257D01*
X6131577Y59357257D02*
X6074434Y59300114D01*
X6074434Y59300114D02*
X6131577Y59242971D01*
X6131577Y59242971D02*
X6188720Y59300114D01*
X6188720Y59300114D02*
X6131577Y59357257D01*
X6131577Y59357257D02*
X6131577Y59242971D01*
X7217292Y58214400D02*
X7103006Y58157257D01*
X7103006Y58157257D02*
X6874434Y58157257D01*
X6874434Y58157257D02*
X6760149Y58214400D01*
X6760149Y58214400D02*
X6703006Y58271542D01*
X6703006Y58271542D02*
X6645863Y58385828D01*
X6645863Y58385828D02*
X6645863Y58728685D01*
X6645863Y58728685D02*
X6703006Y58842971D01*
X6703006Y58842971D02*
X6760149Y58900114D01*
X6760149Y58900114D02*
X6874434Y58957257D01*
X6874434Y58957257D02*
X7103006Y58957257D01*
X7103006Y58957257D02*
X7217292Y58900114D01*
X7731577Y58614400D02*
X8645863Y58614400D01*
X9731577Y58157257D02*
X9731577Y58785828D01*
X9731577Y58785828D02*
X9674434Y58900114D01*
X9674434Y58900114D02*
X9560148Y58957257D01*
X9560148Y58957257D02*
X9331577Y58957257D01*
X9331577Y58957257D02*
X9217291Y58900114D01*
X9731577Y58214400D02*
X9617291Y58157257D01*
X9617291Y58157257D02*
X9331577Y58157257D01*
X9331577Y58157257D02*
X9217291Y58214400D01*
X9217291Y58214400D02*
X9160148Y58328685D01*
X9160148Y58328685D02*
X9160148Y58442971D01*
X9160148Y58442971D02*
X9217291Y58557257D01*
X9217291Y58557257D02*
X9331577Y58614400D01*
X9331577Y58614400D02*
X9617291Y58614400D01*
X9617291Y58614400D02*
X9731577Y58671542D01*
X10303005Y58157257D02*
X10303005Y58957257D01*
X10303005Y58728685D02*
X10360148Y58842971D01*
X10360148Y58842971D02*
X10417291Y58900114D01*
X10417291Y58900114D02*
X10531576Y58957257D01*
X10531576Y58957257D02*
X10645862Y58957257D01*
X11045862Y58157257D02*
X11045862Y58957257D01*
X11045862Y58728685D02*
X11103005Y58842971D01*
X11103005Y58842971D02*
X11160148Y58900114D01*
X11160148Y58900114D02*
X11274433Y58957257D01*
X11274433Y58957257D02*
X11388719Y58957257D01*
X12303005Y58157257D02*
X12303005Y58785828D01*
X12303005Y58785828D02*
X12245862Y58900114D01*
X12245862Y58900114D02*
X12131576Y58957257D01*
X12131576Y58957257D02*
X11903005Y58957257D01*
X11903005Y58957257D02*
X11788719Y58900114D01*
X12303005Y58214400D02*
X12188719Y58157257D01*
X12188719Y58157257D02*
X11903005Y58157257D01*
X11903005Y58157257D02*
X11788719Y58214400D01*
X11788719Y58214400D02*
X11731576Y58328685D01*
X11731576Y58328685D02*
X11731576Y58442971D01*
X11731576Y58442971D02*
X11788719Y58557257D01*
X11788719Y58557257D02*
X11903005Y58614400D01*
X11903005Y58614400D02*
X12188719Y58614400D01*
X12188719Y58614400D02*
X12303005Y58671542D01*
X12760147Y58957257D02*
X13045861Y58157257D01*
X13331576Y58957257D02*
X13045861Y58157257D01*
X13045861Y58157257D02*
X12931576Y57871542D01*
X12931576Y57871542D02*
X12874433Y57814400D01*
X12874433Y57814400D02*
X12760147Y57757257D01*
X13788719Y58614400D02*
X14703005Y58614400D01*
X15274433Y58157257D02*
X15274433Y58957257D01*
X15274433Y58728685D02*
X15331576Y58842971D01*
X15331576Y58842971D02*
X15388719Y58900114D01*
X15388719Y58900114D02*
X15503004Y58957257D01*
X15503004Y58957257D02*
X15617290Y58957257D01*
X16474433Y58214400D02*
X16360147Y58157257D01*
X16360147Y58157257D02*
X16131576Y58157257D01*
X16131576Y58157257D02*
X16017290Y58214400D01*
X16017290Y58214400D02*
X15960147Y58328685D01*
X15960147Y58328685D02*
X15960147Y58785828D01*
X15960147Y58785828D02*
X16017290Y58900114D01*
X16017290Y58900114D02*
X16131576Y58957257D01*
X16131576Y58957257D02*
X16360147Y58957257D01*
X16360147Y58957257D02*
X16474433Y58900114D01*
X16474433Y58900114D02*
X16531576Y58785828D01*
X16531576Y58785828D02*
X16531576Y58671542D01*
X16531576Y58671542D02*
X15960147Y58557257D01*
X16874432Y58957257D02*
X17331575Y58957257D01*
X17045861Y58157257D02*
X17045861Y59185828D01*
X17045861Y59185828D02*
X17103004Y59300114D01*
X17103004Y59300114D02*
X17217289Y59357257D01*
X17217289Y59357257D02*
X17331575Y59357257D01*
X18188718Y58214400D02*
X18074432Y58157257D01*
X18074432Y58157257D02*
X17845861Y58157257D01*
X17845861Y58157257D02*
X17731575Y58214400D01*
X17731575Y58214400D02*
X17674432Y58328685D01*
X17674432Y58328685D02*
X17674432Y58785828D01*
X17674432Y58785828D02*
X17731575Y58900114D01*
X17731575Y58900114D02*
X17845861Y58957257D01*
X17845861Y58957257D02*
X18074432Y58957257D01*
X18074432Y58957257D02*
X18188718Y58900114D01*
X18188718Y58900114D02*
X18245861Y58785828D01*
X18245861Y58785828D02*
X18245861Y58671542D01*
X18245861Y58671542D02*
X17674432Y58557257D01*
X18760146Y58157257D02*
X18760146Y58957257D01*
X18760146Y58728685D02*
X18817289Y58842971D01*
X18817289Y58842971D02*
X18874432Y58900114D01*
X18874432Y58900114D02*
X18988717Y58957257D01*
X18988717Y58957257D02*
X19103003Y58957257D01*
X19960146Y58214400D02*
X19845860Y58157257D01*
X19845860Y58157257D02*
X19617289Y58157257D01*
X19617289Y58157257D02*
X19503003Y58214400D01*
X19503003Y58214400D02*
X19445860Y58328685D01*
X19445860Y58328685D02*
X19445860Y58785828D01*
X19445860Y58785828D02*
X19503003Y58900114D01*
X19503003Y58900114D02*
X19617289Y58957257D01*
X19617289Y58957257D02*
X19845860Y58957257D01*
X19845860Y58957257D02*
X19960146Y58900114D01*
X19960146Y58900114D02*
X20017289Y58785828D01*
X20017289Y58785828D02*
X20017289Y58671542D01*
X20017289Y58671542D02*
X19445860Y58557257D01*
X20531574Y58957257D02*
X20531574Y58157257D01*
X20531574Y58842971D02*
X20588717Y58900114D01*
X20588717Y58900114D02*
X20703002Y58957257D01*
X20703002Y58957257D02*
X20874431Y58957257D01*
X20874431Y58957257D02*
X20988717Y58900114D01*
X20988717Y58900114D02*
X21045860Y58785828D01*
X21045860Y58785828D02*
X21045860Y58157257D01*
X22131574Y58214400D02*
X22017288Y58157257D01*
X22017288Y58157257D02*
X21788716Y58157257D01*
X21788716Y58157257D02*
X21674431Y58214400D01*
X21674431Y58214400D02*
X21617288Y58271542D01*
X21617288Y58271542D02*
X21560145Y58385828D01*
X21560145Y58385828D02*
X21560145Y58728685D01*
X21560145Y58728685D02*
X21617288Y58842971D01*
X21617288Y58842971D02*
X21674431Y58900114D01*
X21674431Y58900114D02*
X21788716Y58957257D01*
X21788716Y58957257D02*
X22017288Y58957257D01*
X22017288Y58957257D02*
X22131574Y58900114D01*
X23103002Y58214400D02*
X22988716Y58157257D01*
X22988716Y58157257D02*
X22760145Y58157257D01*
X22760145Y58157257D02*
X22645859Y58214400D01*
X22645859Y58214400D02*
X22588716Y58328685D01*
X22588716Y58328685D02*
X22588716Y58785828D01*
X22588716Y58785828D02*
X22645859Y58900114D01*
X22645859Y58900114D02*
X22760145Y58957257D01*
X22760145Y58957257D02*
X22988716Y58957257D01*
X22988716Y58957257D02*
X23103002Y58900114D01*
X23103002Y58900114D02*
X23160145Y58785828D01*
X23160145Y58785828D02*
X23160145Y58671542D01*
X23160145Y58671542D02*
X22588716Y58557257D01*
X23674430Y58614400D02*
X24588716Y58614400D01*
X25674430Y58157257D02*
X25674430Y59357257D01*
X25674430Y58214400D02*
X25560144Y58157257D01*
X25560144Y58157257D02*
X25331572Y58157257D01*
X25331572Y58157257D02*
X25217287Y58214400D01*
X25217287Y58214400D02*
X25160144Y58271542D01*
X25160144Y58271542D02*
X25103001Y58385828D01*
X25103001Y58385828D02*
X25103001Y58728685D01*
X25103001Y58728685D02*
X25160144Y58842971D01*
X25160144Y58842971D02*
X25217287Y58900114D01*
X25217287Y58900114D02*
X25331572Y58957257D01*
X25331572Y58957257D02*
X25560144Y58957257D01*
X25560144Y58957257D02*
X25674430Y58900114D01*
X26703001Y58214400D02*
X26588715Y58157257D01*
X26588715Y58157257D02*
X26360144Y58157257D01*
X26360144Y58157257D02*
X26245858Y58214400D01*
X26245858Y58214400D02*
X26188715Y58328685D01*
X26188715Y58328685D02*
X26188715Y58785828D01*
X26188715Y58785828D02*
X26245858Y58900114D01*
X26245858Y58900114D02*
X26360144Y58957257D01*
X26360144Y58957257D02*
X26588715Y58957257D01*
X26588715Y58957257D02*
X26703001Y58900114D01*
X26703001Y58900114D02*
X26760144Y58785828D01*
X26760144Y58785828D02*
X26760144Y58671542D01*
X26760144Y58671542D02*
X26188715Y58557257D01*
X27217286Y58214400D02*
X27331572Y58157257D01*
X27331572Y58157257D02*
X27560143Y58157257D01*
X27560143Y58157257D02*
X27674429Y58214400D01*
X27674429Y58214400D02*
X27731572Y58328685D01*
X27731572Y58328685D02*
X27731572Y58385828D01*
X27731572Y58385828D02*
X27674429Y58500114D01*
X27674429Y58500114D02*
X27560143Y58557257D01*
X27560143Y58557257D02*
X27388715Y58557257D01*
X27388715Y58557257D02*
X27274429Y58614400D01*
X27274429Y58614400D02*
X27217286Y58728685D01*
X27217286Y58728685D02*
X27217286Y58785828D01*
X27217286Y58785828D02*
X27274429Y58900114D01*
X27274429Y58900114D02*
X27388715Y58957257D01*
X27388715Y58957257D02*
X27560143Y58957257D01*
X27560143Y58957257D02*
X27674429Y58900114D01*
X28245858Y58157257D02*
X28245858Y58957257D01*
X28245858Y59357257D02*
X28188715Y59300114D01*
X28188715Y59300114D02*
X28245858Y59242971D01*
X28245858Y59242971D02*
X28303001Y59300114D01*
X28303001Y59300114D02*
X28245858Y59357257D01*
X28245858Y59357257D02*
X28245858Y59242971D01*
X29331573Y58957257D02*
X29331573Y57985828D01*
X29331573Y57985828D02*
X29274430Y57871542D01*
X29274430Y57871542D02*
X29217287Y57814400D01*
X29217287Y57814400D02*
X29103001Y57757257D01*
X29103001Y57757257D02*
X28931573Y57757257D01*
X28931573Y57757257D02*
X28817287Y57814400D01*
X29331573Y58214400D02*
X29217287Y58157257D01*
X29217287Y58157257D02*
X28988715Y58157257D01*
X28988715Y58157257D02*
X28874430Y58214400D01*
X28874430Y58214400D02*
X28817287Y58271542D01*
X28817287Y58271542D02*
X28760144Y58385828D01*
X28760144Y58385828D02*
X28760144Y58728685D01*
X28760144Y58728685D02*
X28817287Y58842971D01*
X28817287Y58842971D02*
X28874430Y58900114D01*
X28874430Y58900114D02*
X28988715Y58957257D01*
X28988715Y58957257D02*
X29217287Y58957257D01*
X29217287Y58957257D02*
X29331573Y58900114D01*
X29903001Y58957257D02*
X29903001Y58157257D01*
X29903001Y58842971D02*
X29960144Y58900114D01*
X29960144Y58900114D02*
X30074429Y58957257D01*
X30074429Y58957257D02*
X30245858Y58957257D01*
X30245858Y58957257D02*
X30360144Y58900114D01*
X30360144Y58900114D02*
X30417287Y58785828D01*
X30417287Y58785828D02*
X30417287Y58157257D01*
X30988715Y58271542D02*
X31045858Y58214400D01*
X31045858Y58214400D02*
X30988715Y58157257D01*
X30988715Y58157257D02*
X30931572Y58214400D01*
X30931572Y58214400D02*
X30988715Y58271542D01*
X30988715Y58271542D02*
X30988715Y58157257D01*
X31560144Y58157257D02*
X31560144Y58957257D01*
X31560144Y58842971D02*
X31617287Y58900114D01*
X31617287Y58900114D02*
X31731572Y58957257D01*
X31731572Y58957257D02*
X31903001Y58957257D01*
X31903001Y58957257D02*
X32017287Y58900114D01*
X32017287Y58900114D02*
X32074430Y58785828D01*
X32074430Y58785828D02*
X32074430Y58157257D01*
X32074430Y58785828D02*
X32131572Y58900114D01*
X32131572Y58900114D02*
X32245858Y58957257D01*
X32245858Y58957257D02*
X32417287Y58957257D01*
X32417287Y58957257D02*
X32531572Y58900114D01*
X32531572Y58900114D02*
X32588715Y58785828D01*
X32588715Y58785828D02*
X32588715Y58157257D01*
X33674430Y58157257D02*
X33674430Y59357257D01*
X33674430Y58214400D02*
X33560144Y58157257D01*
X33560144Y58157257D02*
X33331572Y58157257D01*
X33331572Y58157257D02*
X33217287Y58214400D01*
X33217287Y58214400D02*
X33160144Y58271542D01*
X33160144Y58271542D02*
X33103001Y58385828D01*
X33103001Y58385828D02*
X33103001Y58728685D01*
X33103001Y58728685D02*
X33160144Y58842971D01*
X33160144Y58842971D02*
X33217287Y58900114D01*
X33217287Y58900114D02*
X33331572Y58957257D01*
X33331572Y58957257D02*
X33560144Y58957257D01*
X33560144Y58957257D02*
X33674430Y58900114D01*
X34988715Y58957257D02*
X35445858Y58957257D01*
X35160144Y58157257D02*
X35160144Y59185828D01*
X35160144Y59185828D02*
X35217287Y59300114D01*
X35217287Y59300114D02*
X35331572Y59357257D01*
X35331572Y59357257D02*
X35445858Y59357257D01*
X36017286Y58157257D02*
X35903001Y58214400D01*
X35903001Y58214400D02*
X35845858Y58271542D01*
X35845858Y58271542D02*
X35788715Y58385828D01*
X35788715Y58385828D02*
X35788715Y58728685D01*
X35788715Y58728685D02*
X35845858Y58842971D01*
X35845858Y58842971D02*
X35903001Y58900114D01*
X35903001Y58900114D02*
X36017286Y58957257D01*
X36017286Y58957257D02*
X36188715Y58957257D01*
X36188715Y58957257D02*
X36303001Y58900114D01*
X36303001Y58900114D02*
X36360144Y58842971D01*
X36360144Y58842971D02*
X36417286Y58728685D01*
X36417286Y58728685D02*
X36417286Y58385828D01*
X36417286Y58385828D02*
X36360144Y58271542D01*
X36360144Y58271542D02*
X36303001Y58214400D01*
X36303001Y58214400D02*
X36188715Y58157257D01*
X36188715Y58157257D02*
X36017286Y58157257D01*
X36931572Y58157257D02*
X36931572Y58957257D01*
X36931572Y58728685D02*
X36988715Y58842971D01*
X36988715Y58842971D02*
X37045858Y58900114D01*
X37045858Y58900114D02*
X37160143Y58957257D01*
X37160143Y58957257D02*
X37274429Y58957257D01*
X38988715Y58785828D02*
X39160143Y58728685D01*
X39160143Y58728685D02*
X39217286Y58671542D01*
X39217286Y58671542D02*
X39274429Y58557257D01*
X39274429Y58557257D02*
X39274429Y58385828D01*
X39274429Y58385828D02*
X39217286Y58271542D01*
X39217286Y58271542D02*
X39160143Y58214400D01*
X39160143Y58214400D02*
X39045858Y58157257D01*
X39045858Y58157257D02*
X38588715Y58157257D01*
X38588715Y58157257D02*
X38588715Y59357257D01*
X38588715Y59357257D02*
X38988715Y59357257D01*
X38988715Y59357257D02*
X39103001Y59300114D01*
X39103001Y59300114D02*
X39160143Y59242971D01*
X39160143Y59242971D02*
X39217286Y59128685D01*
X39217286Y59128685D02*
X39217286Y59014400D01*
X39217286Y59014400D02*
X39160143Y58900114D01*
X39160143Y58900114D02*
X39103001Y58842971D01*
X39103001Y58842971D02*
X38988715Y58785828D01*
X38988715Y58785828D02*
X38588715Y58785828D01*
X40017286Y59357257D02*
X40245858Y59357257D01*
X40245858Y59357257D02*
X40360143Y59300114D01*
X40360143Y59300114D02*
X40474429Y59185828D01*
X40474429Y59185828D02*
X40531572Y58957257D01*
X40531572Y58957257D02*
X40531572Y58557257D01*
X40531572Y58557257D02*
X40474429Y58328685D01*
X40474429Y58328685D02*
X40360143Y58214400D01*
X40360143Y58214400D02*
X40245858Y58157257D01*
X40245858Y58157257D02*
X40017286Y58157257D01*
X40017286Y58157257D02*
X39903001Y58214400D01*
X39903001Y58214400D02*
X39788715Y58328685D01*
X39788715Y58328685D02*
X39731572Y58557257D01*
X39731572Y58557257D02*
X39731572Y58957257D01*
X39731572Y58957257D02*
X39788715Y59185828D01*
X39788715Y59185828D02*
X39903001Y59300114D01*
X39903001Y59300114D02*
X40017286Y59357257D01*
X41045858Y58157257D02*
X41045858Y59357257D01*
X41045858Y59357257D02*
X41445858Y58500114D01*
X41445858Y58500114D02*
X41845858Y59357257D01*
X41845858Y59357257D02*
X41845858Y58157257D01*
X43845859Y58157257D02*
X43845859Y58785828D01*
X43845859Y58785828D02*
X43788716Y58900114D01*
X43788716Y58900114D02*
X43674430Y58957257D01*
X43674430Y58957257D02*
X43445859Y58957257D01*
X43445859Y58957257D02*
X43331573Y58900114D01*
X43845859Y58214400D02*
X43731573Y58157257D01*
X43731573Y58157257D02*
X43445859Y58157257D01*
X43445859Y58157257D02*
X43331573Y58214400D01*
X43331573Y58214400D02*
X43274430Y58328685D01*
X43274430Y58328685D02*
X43274430Y58442971D01*
X43274430Y58442971D02*
X43331573Y58557257D01*
X43331573Y58557257D02*
X43445859Y58614400D01*
X43445859Y58614400D02*
X43731573Y58614400D01*
X43731573Y58614400D02*
X43845859Y58671542D01*
X44417287Y58957257D02*
X44417287Y58157257D01*
X44417287Y58842971D02*
X44474430Y58900114D01*
X44474430Y58900114D02*
X44588715Y58957257D01*
X44588715Y58957257D02*
X44760144Y58957257D01*
X44760144Y58957257D02*
X44874430Y58900114D01*
X44874430Y58900114D02*
X44931573Y58785828D01*
X44931573Y58785828D02*
X44931573Y58157257D01*
X46017287Y58157257D02*
X46017287Y59357257D01*
X46017287Y58214400D02*
X45903001Y58157257D01*
X45903001Y58157257D02*
X45674429Y58157257D01*
X45674429Y58157257D02*
X45560144Y58214400D01*
X45560144Y58214400D02*
X45503001Y58271542D01*
X45503001Y58271542D02*
X45445858Y58385828D01*
X45445858Y58385828D02*
X45445858Y58728685D01*
X45445858Y58728685D02*
X45503001Y58842971D01*
X45503001Y58842971D02*
X45560144Y58900114D01*
X45560144Y58900114D02*
X45674429Y58957257D01*
X45674429Y58957257D02*
X45903001Y58957257D01*
X45903001Y58957257D02*
X46017287Y58900114D01*
X47503001Y58957257D02*
X47503001Y57757257D01*
X47503001Y58900114D02*
X47617287Y58957257D01*
X47617287Y58957257D02*
X47845858Y58957257D01*
X47845858Y58957257D02*
X47960144Y58900114D01*
X47960144Y58900114D02*
X48017287Y58842971D01*
X48017287Y58842971D02*
X48074429Y58728685D01*
X48074429Y58728685D02*
X48074429Y58385828D01*
X48074429Y58385828D02*
X48017287Y58271542D01*
X48017287Y58271542D02*
X47960144Y58214400D01*
X47960144Y58214400D02*
X47845858Y58157257D01*
X47845858Y58157257D02*
X47617287Y58157257D01*
X47617287Y58157257D02*
X47503001Y58214400D01*
X48760143Y58157257D02*
X48645858Y58214400D01*
X48645858Y58214400D02*
X48588715Y58328685D01*
X48588715Y58328685D02*
X48588715Y59357257D01*
X49731572Y58157257D02*
X49731572Y58785828D01*
X49731572Y58785828D02*
X49674429Y58900114D01*
X49674429Y58900114D02*
X49560143Y58957257D01*
X49560143Y58957257D02*
X49331572Y58957257D01*
X49331572Y58957257D02*
X49217286Y58900114D01*
X49731572Y58214400D02*
X49617286Y58157257D01*
X49617286Y58157257D02*
X49331572Y58157257D01*
X49331572Y58157257D02*
X49217286Y58214400D01*
X49217286Y58214400D02*
X49160143Y58328685D01*
X49160143Y58328685D02*
X49160143Y58442971D01*
X49160143Y58442971D02*
X49217286Y58557257D01*
X49217286Y58557257D02*
X49331572Y58614400D01*
X49331572Y58614400D02*
X49617286Y58614400D01*
X49617286Y58614400D02*
X49731572Y58671542D01*
X50817286Y58214400D02*
X50703000Y58157257D01*
X50703000Y58157257D02*
X50474428Y58157257D01*
X50474428Y58157257D02*
X50360143Y58214400D01*
X50360143Y58214400D02*
X50303000Y58271542D01*
X50303000Y58271542D02*
X50245857Y58385828D01*
X50245857Y58385828D02*
X50245857Y58728685D01*
X50245857Y58728685D02*
X50303000Y58842971D01*
X50303000Y58842971D02*
X50360143Y58900114D01*
X50360143Y58900114D02*
X50474428Y58957257D01*
X50474428Y58957257D02*
X50703000Y58957257D01*
X50703000Y58957257D02*
X50817286Y58900114D01*
X51788714Y58214400D02*
X51674428Y58157257D01*
X51674428Y58157257D02*
X51445857Y58157257D01*
X51445857Y58157257D02*
X51331571Y58214400D01*
X51331571Y58214400D02*
X51274428Y58328685D01*
X51274428Y58328685D02*
X51274428Y58785828D01*
X51274428Y58785828D02*
X51331571Y58900114D01*
X51331571Y58900114D02*
X51445857Y58957257D01*
X51445857Y58957257D02*
X51674428Y58957257D01*
X51674428Y58957257D02*
X51788714Y58900114D01*
X51788714Y58900114D02*
X51845857Y58785828D01*
X51845857Y58785828D02*
X51845857Y58671542D01*
X51845857Y58671542D02*
X51274428Y58557257D01*
X52360142Y58157257D02*
X52360142Y58957257D01*
X52360142Y58842971D02*
X52417285Y58900114D01*
X52417285Y58900114D02*
X52531570Y58957257D01*
X52531570Y58957257D02*
X52702999Y58957257D01*
X52702999Y58957257D02*
X52817285Y58900114D01*
X52817285Y58900114D02*
X52874428Y58785828D01*
X52874428Y58785828D02*
X52874428Y58157257D01*
X52874428Y58785828D02*
X52931570Y58900114D01*
X52931570Y58900114D02*
X53045856Y58957257D01*
X53045856Y58957257D02*
X53217285Y58957257D01*
X53217285Y58957257D02*
X53331570Y58900114D01*
X53331570Y58900114D02*
X53388713Y58785828D01*
X53388713Y58785828D02*
X53388713Y58157257D01*
X54417285Y58214400D02*
X54302999Y58157257D01*
X54302999Y58157257D02*
X54074428Y58157257D01*
X54074428Y58157257D02*
X53960142Y58214400D01*
X53960142Y58214400D02*
X53902999Y58328685D01*
X53902999Y58328685D02*
X53902999Y58785828D01*
X53902999Y58785828D02*
X53960142Y58900114D01*
X53960142Y58900114D02*
X54074428Y58957257D01*
X54074428Y58957257D02*
X54302999Y58957257D01*
X54302999Y58957257D02*
X54417285Y58900114D01*
X54417285Y58900114D02*
X54474428Y58785828D01*
X54474428Y58785828D02*
X54474428Y58671542D01*
X54474428Y58671542D02*
X53902999Y58557257D01*
X54988713Y58957257D02*
X54988713Y58157257D01*
X54988713Y58842971D02*
X55045856Y58900114D01*
X55045856Y58900114D02*
X55160141Y58957257D01*
X55160141Y58957257D02*
X55331570Y58957257D01*
X55331570Y58957257D02*
X55445856Y58900114D01*
X55445856Y58900114D02*
X55502999Y58785828D01*
X55502999Y58785828D02*
X55502999Y58157257D01*
X55902998Y58957257D02*
X56360141Y58957257D01*
X56074427Y59357257D02*
X56074427Y58328685D01*
X56074427Y58328685D02*
X56131570Y58214400D01*
X56131570Y58214400D02*
X56245855Y58157257D01*
X56245855Y58157257D02*
X56360141Y58157257D01*
X57674427Y58957257D02*
X57674427Y57757257D01*
X57674427Y58900114D02*
X57788713Y58957257D01*
X57788713Y58957257D02*
X58017284Y58957257D01*
X58017284Y58957257D02*
X58131570Y58900114D01*
X58131570Y58900114D02*
X58188713Y58842971D01*
X58188713Y58842971D02*
X58245855Y58728685D01*
X58245855Y58728685D02*
X58245855Y58385828D01*
X58245855Y58385828D02*
X58188713Y58271542D01*
X58188713Y58271542D02*
X58131570Y58214400D01*
X58131570Y58214400D02*
X58017284Y58157257D01*
X58017284Y58157257D02*
X57788713Y58157257D01*
X57788713Y58157257D02*
X57674427Y58214400D01*
X58931569Y58157257D02*
X58817284Y58214400D01*
X58817284Y58214400D02*
X58760141Y58328685D01*
X58760141Y58328685D02*
X58760141Y59357257D01*
X59902998Y58157257D02*
X59902998Y58785828D01*
X59902998Y58785828D02*
X59845855Y58900114D01*
X59845855Y58900114D02*
X59731569Y58957257D01*
X59731569Y58957257D02*
X59502998Y58957257D01*
X59502998Y58957257D02*
X59388712Y58900114D01*
X59902998Y58214400D02*
X59788712Y58157257D01*
X59788712Y58157257D02*
X59502998Y58157257D01*
X59502998Y58157257D02*
X59388712Y58214400D01*
X59388712Y58214400D02*
X59331569Y58328685D01*
X59331569Y58328685D02*
X59331569Y58442971D01*
X59331569Y58442971D02*
X59388712Y58557257D01*
X59388712Y58557257D02*
X59502998Y58614400D01*
X59502998Y58614400D02*
X59788712Y58614400D01*
X59788712Y58614400D02*
X59902998Y58671542D01*
X60474426Y58957257D02*
X60474426Y58157257D01*
X60474426Y58842971D02*
X60531569Y58900114D01*
X60531569Y58900114D02*
X60645854Y58957257D01*
X60645854Y58957257D02*
X60817283Y58957257D01*
X60817283Y58957257D02*
X60931569Y58900114D01*
X60931569Y58900114D02*
X60988712Y58785828D01*
X60988712Y58785828D02*
X60988712Y58157257D01*
D11*
X673558Y55260361D02*
X673558Y57260361D01*
X673558Y57260361D02*
X1435463Y57260361D01*
X1435463Y57260361D02*
X1625939Y57165123D01*
X1625939Y57165123D02*
X1721177Y57069885D01*
X1721177Y57069885D02*
X1816415Y56879409D01*
X1816415Y56879409D02*
X1816415Y56593695D01*
X1816415Y56593695D02*
X1721177Y56403219D01*
X1721177Y56403219D02*
X1625939Y56307980D01*
X1625939Y56307980D02*
X1435463Y56212742D01*
X1435463Y56212742D02*
X673558Y56212742D01*
X2578320Y55831790D02*
X3530701Y55831790D01*
X2387844Y55260361D02*
X3054510Y57260361D01*
X3054510Y57260361D02*
X3721177Y55260361D01*
X5340225Y55260361D02*
X4387844Y55260361D01*
X4387844Y55260361D02*
X4387844Y57260361D01*
X7530702Y55260361D02*
X7530702Y57260361D01*
X7530702Y57260361D02*
X8292607Y57260361D01*
X8292607Y57260361D02*
X8483083Y57165123D01*
X8483083Y57165123D02*
X8578321Y57069885D01*
X8578321Y57069885D02*
X8673559Y56879409D01*
X8673559Y56879409D02*
X8673559Y56593695D01*
X8673559Y56593695D02*
X8578321Y56403219D01*
X8578321Y56403219D02*
X8483083Y56307980D01*
X8483083Y56307980D02*
X8292607Y56212742D01*
X8292607Y56212742D02*
X7530702Y56212742D01*
X9816416Y55260361D02*
X9625940Y55355600D01*
X9625940Y55355600D02*
X9530702Y55450838D01*
X9530702Y55450838D02*
X9435464Y55641314D01*
X9435464Y55641314D02*
X9435464Y56212742D01*
X9435464Y56212742D02*
X9530702Y56403219D01*
X9530702Y56403219D02*
X9625940Y56498457D01*
X9625940Y56498457D02*
X9816416Y56593695D01*
X9816416Y56593695D02*
X10102131Y56593695D01*
X10102131Y56593695D02*
X10292607Y56498457D01*
X10292607Y56498457D02*
X10387845Y56403219D01*
X10387845Y56403219D02*
X10483083Y56212742D01*
X10483083Y56212742D02*
X10483083Y55641314D01*
X10483083Y55641314D02*
X10387845Y55450838D01*
X10387845Y55450838D02*
X10292607Y55355600D01*
X10292607Y55355600D02*
X10102131Y55260361D01*
X10102131Y55260361D02*
X9816416Y55260361D01*
X12197369Y55260361D02*
X12197369Y57260361D01*
X12197369Y55355600D02*
X12006893Y55260361D01*
X12006893Y55260361D02*
X11625940Y55260361D01*
X11625940Y55260361D02*
X11435464Y55355600D01*
X11435464Y55355600D02*
X11340226Y55450838D01*
X11340226Y55450838D02*
X11244988Y55641314D01*
X11244988Y55641314D02*
X11244988Y56212742D01*
X11244988Y56212742D02*
X11340226Y56403219D01*
X11340226Y56403219D02*
X11435464Y56498457D01*
X11435464Y56498457D02*
X11625940Y56593695D01*
X11625940Y56593695D02*
X12006893Y56593695D01*
X12006893Y56593695D02*
X12197369Y56498457D01*
X14673560Y55260361D02*
X14673560Y57260361D01*
X14673560Y57260361D02*
X15340227Y55831790D01*
X15340227Y55831790D02*
X16006893Y57260361D01*
X16006893Y57260361D02*
X16006893Y55260361D01*
X16959274Y55260361D02*
X16959274Y56593695D01*
X16959274Y57260361D02*
X16864036Y57165123D01*
X16864036Y57165123D02*
X16959274Y57069885D01*
X16959274Y57069885D02*
X17054512Y57165123D01*
X17054512Y57165123D02*
X16959274Y57260361D01*
X16959274Y57260361D02*
X16959274Y57069885D01*
X18768798Y55355600D02*
X18578322Y55260361D01*
X18578322Y55260361D02*
X18197369Y55260361D01*
X18197369Y55260361D02*
X18006893Y55355600D01*
X18006893Y55355600D02*
X17911655Y55450838D01*
X17911655Y55450838D02*
X17816417Y55641314D01*
X17816417Y55641314D02*
X17816417Y56212742D01*
X17816417Y56212742D02*
X17911655Y56403219D01*
X17911655Y56403219D02*
X18006893Y56498457D01*
X18006893Y56498457D02*
X18197369Y56593695D01*
X18197369Y56593695D02*
X18578322Y56593695D01*
X18578322Y56593695D02*
X18768798Y56498457D01*
X21054513Y55831790D02*
X22006894Y55831790D01*
X20864037Y55260361D02*
X21530703Y57260361D01*
X21530703Y57260361D02*
X22197370Y55260361D01*
X22864037Y55260361D02*
X22864037Y56593695D01*
X22864037Y56212742D02*
X22959275Y56403219D01*
X22959275Y56403219D02*
X23054513Y56498457D01*
X23054513Y56498457D02*
X23244989Y56593695D01*
X23244989Y56593695D02*
X23435466Y56593695D01*
X24102132Y55260361D02*
X24102132Y56593695D01*
X24102132Y56212742D02*
X24197370Y56403219D01*
X24197370Y56403219D02*
X24292608Y56498457D01*
X24292608Y56498457D02*
X24483084Y56593695D01*
X24483084Y56593695D02*
X24673561Y56593695D01*
X26197370Y55260361D02*
X26197370Y56307980D01*
X26197370Y56307980D02*
X26102132Y56498457D01*
X26102132Y56498457D02*
X25911656Y56593695D01*
X25911656Y56593695D02*
X25530703Y56593695D01*
X25530703Y56593695D02*
X25340227Y56498457D01*
X26197370Y55355600D02*
X26006894Y55260361D01*
X26006894Y55260361D02*
X25530703Y55260361D01*
X25530703Y55260361D02*
X25340227Y55355600D01*
X25340227Y55355600D02*
X25244989Y55546076D01*
X25244989Y55546076D02*
X25244989Y55736552D01*
X25244989Y55736552D02*
X25340227Y55927028D01*
X25340227Y55927028D02*
X25530703Y56022266D01*
X25530703Y56022266D02*
X26006894Y56022266D01*
X26006894Y56022266D02*
X26197370Y56117504D01*
X26959275Y56593695D02*
X27435465Y55260361D01*
X27911656Y56593695D02*
X27435465Y55260361D01*
X27435465Y55260361D02*
X27244989Y54784171D01*
X27244989Y54784171D02*
X27149751Y54688933D01*
X27149751Y54688933D02*
X26959275Y54593695D01*
X30197371Y56022266D02*
X31721181Y56022266D01*
X35340228Y55260361D02*
X34673561Y56212742D01*
X34197371Y55260361D02*
X34197371Y57260361D01*
X34197371Y57260361D02*
X34959276Y57260361D01*
X34959276Y57260361D02*
X35149752Y57165123D01*
X35149752Y57165123D02*
X35244990Y57069885D01*
X35244990Y57069885D02*
X35340228Y56879409D01*
X35340228Y56879409D02*
X35340228Y56593695D01*
X35340228Y56593695D02*
X35244990Y56403219D01*
X35244990Y56403219D02*
X35149752Y56307980D01*
X35149752Y56307980D02*
X34959276Y56212742D01*
X34959276Y56212742D02*
X34197371Y56212742D01*
X36959276Y55355600D02*
X36768800Y55260361D01*
X36768800Y55260361D02*
X36387847Y55260361D01*
X36387847Y55260361D02*
X36197371Y55355600D01*
X36197371Y55355600D02*
X36102133Y55546076D01*
X36102133Y55546076D02*
X36102133Y56307980D01*
X36102133Y56307980D02*
X36197371Y56498457D01*
X36197371Y56498457D02*
X36387847Y56593695D01*
X36387847Y56593695D02*
X36768800Y56593695D01*
X36768800Y56593695D02*
X36959276Y56498457D01*
X36959276Y56498457D02*
X37054514Y56307980D01*
X37054514Y56307980D02*
X37054514Y56117504D01*
X37054514Y56117504D02*
X36102133Y55927028D01*
X37721181Y56593695D02*
X38197371Y55260361D01*
X38197371Y55260361D02*
X38673562Y56593695D01*
X40864039Y55831790D02*
X41816420Y55831790D01*
X40673563Y55260361D02*
X41340229Y57260361D01*
X41340229Y57260361D02*
X42006896Y55260361D01*
X43054515Y57260361D02*
X43244992Y57260361D01*
X43244992Y57260361D02*
X43435468Y57165123D01*
X43435468Y57165123D02*
X43530706Y57069885D01*
X43530706Y57069885D02*
X43625944Y56879409D01*
X43625944Y56879409D02*
X43721182Y56498457D01*
X43721182Y56498457D02*
X43721182Y56022266D01*
X43721182Y56022266D02*
X43625944Y55641314D01*
X43625944Y55641314D02*
X43530706Y55450838D01*
X43530706Y55450838D02*
X43435468Y55355600D01*
X43435468Y55355600D02*
X43244992Y55260361D01*
X43244992Y55260361D02*
X43054515Y55260361D01*
X43054515Y55260361D02*
X42864039Y55355600D01*
X42864039Y55355600D02*
X42768801Y55450838D01*
X42768801Y55450838D02*
X42673563Y55641314D01*
X42673563Y55641314D02*
X42578325Y56022266D01*
X42578325Y56022266D02*
X42578325Y56498457D01*
X42578325Y56498457D02*
X42673563Y56879409D01*
X42673563Y56879409D02*
X42768801Y57069885D01*
X42768801Y57069885D02*
X42864039Y57165123D01*
X42864039Y57165123D02*
X43054515Y57260361D01*
X46102135Y56022266D02*
X47625945Y56022266D01*
X50102135Y55260361D02*
X50102135Y57260361D01*
X50102135Y57260361D02*
X50864040Y57260361D01*
X50864040Y57260361D02*
X51054516Y57165123D01*
X51054516Y57165123D02*
X51149754Y57069885D01*
X51149754Y57069885D02*
X51244992Y56879409D01*
X51244992Y56879409D02*
X51244992Y56593695D01*
X51244992Y56593695D02*
X51149754Y56403219D01*
X51149754Y56403219D02*
X51054516Y56307980D01*
X51054516Y56307980D02*
X50864040Y56212742D01*
X50864040Y56212742D02*
X50102135Y56212742D01*
X53054516Y55260361D02*
X52102135Y55260361D01*
X52102135Y55260361D02*
X52102135Y57260361D01*
X53625945Y55831790D02*
X54578326Y55831790D01*
X53435469Y55260361D02*
X54102135Y57260361D01*
X54102135Y57260361D02*
X54768802Y55260361D01*
X56578326Y55450838D02*
X56483088Y55355600D01*
X56483088Y55355600D02*
X56197374Y55260361D01*
X56197374Y55260361D02*
X56006898Y55260361D01*
X56006898Y55260361D02*
X55721183Y55355600D01*
X55721183Y55355600D02*
X55530707Y55546076D01*
X55530707Y55546076D02*
X55435469Y55736552D01*
X55435469Y55736552D02*
X55340231Y56117504D01*
X55340231Y56117504D02*
X55340231Y56403219D01*
X55340231Y56403219D02*
X55435469Y56784171D01*
X55435469Y56784171D02*
X55530707Y56974647D01*
X55530707Y56974647D02*
X55721183Y57165123D01*
X55721183Y57165123D02*
X56006898Y57260361D01*
X56006898Y57260361D02*
X56197374Y57260361D01*
X56197374Y57260361D02*
X56483088Y57165123D01*
X56483088Y57165123D02*
X56578326Y57069885D01*
X57435469Y56307980D02*
X58102136Y56307980D01*
X58387850Y55260361D02*
X57435469Y55260361D01*
X57435469Y55260361D02*
X57435469Y57260361D01*
X57435469Y57260361D02*
X58387850Y57260361D01*
X59244993Y55260361D02*
X59244993Y57260361D01*
X59244993Y56307980D02*
X60387850Y56307980D01*
X60387850Y55260361D02*
X60387850Y57260361D01*
X61721183Y57260361D02*
X62102136Y57260361D01*
X62102136Y57260361D02*
X62292612Y57165123D01*
X62292612Y57165123D02*
X62483088Y56974647D01*
X62483088Y56974647D02*
X62578326Y56593695D01*
X62578326Y56593695D02*
X62578326Y55927028D01*
X62578326Y55927028D02*
X62483088Y55546076D01*
X62483088Y55546076D02*
X62292612Y55355600D01*
X62292612Y55355600D02*
X62102136Y55260361D01*
X62102136Y55260361D02*
X61721183Y55260361D01*
X61721183Y55260361D02*
X61530707Y55355600D01*
X61530707Y55355600D02*
X61340231Y55546076D01*
X61340231Y55546076D02*
X61244993Y55927028D01*
X61244993Y55927028D02*
X61244993Y56593695D01*
X61244993Y56593695D02*
X61340231Y56974647D01*
X61340231Y56974647D02*
X61530707Y57165123D01*
X61530707Y57165123D02*
X61721183Y57260361D01*
X64387850Y55260361D02*
X63435469Y55260361D01*
X63435469Y55260361D02*
X63435469Y57260361D01*
X65054517Y55260361D02*
X65054517Y57260361D01*
X65054517Y57260361D02*
X65530707Y57260361D01*
X65530707Y57260361D02*
X65816422Y57165123D01*
X65816422Y57165123D02*
X66006898Y56974647D01*
X66006898Y56974647D02*
X66102136Y56784171D01*
X66102136Y56784171D02*
X66197374Y56403219D01*
X66197374Y56403219D02*
X66197374Y56117504D01*
X66197374Y56117504D02*
X66102136Y55736552D01*
X66102136Y55736552D02*
X66006898Y55546076D01*
X66006898Y55546076D02*
X65816422Y55355600D01*
X65816422Y55355600D02*
X65530707Y55260361D01*
X65530707Y55260361D02*
X65054517Y55260361D01*
X67054517Y56307980D02*
X67721184Y56307980D01*
X68006898Y55260361D02*
X67054517Y55260361D01*
X67054517Y55260361D02*
X67054517Y57260361D01*
X67054517Y57260361D02*
X68006898Y57260361D01*
X70006898Y55260361D02*
X69340231Y56212742D01*
X68864041Y55260361D02*
X68864041Y57260361D01*
X68864041Y57260361D02*
X69625946Y57260361D01*
X69625946Y57260361D02*
X69816422Y57165123D01*
X69816422Y57165123D02*
X69911660Y57069885D01*
X69911660Y57069885D02*
X70006898Y56879409D01*
X70006898Y56879409D02*
X70006898Y56593695D01*
X70006898Y56593695D02*
X69911660Y56403219D01*
X69911660Y56403219D02*
X69816422Y56307980D01*
X69816422Y56307980D02*
X69625946Y56212742D01*
X69625946Y56212742D02*
X68864041Y56212742D01*
X72387851Y55260361D02*
X72387851Y57260361D01*
X72387851Y57260361D02*
X73149756Y57260361D01*
X73149756Y57260361D02*
X73340232Y57165123D01*
X73340232Y57165123D02*
X73435470Y57069885D01*
X73435470Y57069885D02*
X73530708Y56879409D01*
X73530708Y56879409D02*
X73530708Y56593695D01*
X73530708Y56593695D02*
X73435470Y56403219D01*
X73435470Y56403219D02*
X73340232Y56307980D01*
X73340232Y56307980D02*
X73149756Y56212742D01*
X73149756Y56212742D02*
X72387851Y56212742D01*
X75530708Y55450838D02*
X75435470Y55355600D01*
X75435470Y55355600D02*
X75149756Y55260361D01*
X75149756Y55260361D02*
X74959280Y55260361D01*
X74959280Y55260361D02*
X74673565Y55355600D01*
X74673565Y55355600D02*
X74483089Y55546076D01*
X74483089Y55546076D02*
X74387851Y55736552D01*
X74387851Y55736552D02*
X74292613Y56117504D01*
X74292613Y56117504D02*
X74292613Y56403219D01*
X74292613Y56403219D02*
X74387851Y56784171D01*
X74387851Y56784171D02*
X74483089Y56974647D01*
X74483089Y56974647D02*
X74673565Y57165123D01*
X74673565Y57165123D02*
X74959280Y57260361D01*
X74959280Y57260361D02*
X75149756Y57260361D01*
X75149756Y57260361D02*
X75435470Y57165123D01*
X75435470Y57165123D02*
X75530708Y57069885D01*
X77054518Y56307980D02*
X77340232Y56212742D01*
X77340232Y56212742D02*
X77435470Y56117504D01*
X77435470Y56117504D02*
X77530708Y55927028D01*
X77530708Y55927028D02*
X77530708Y55641314D01*
X77530708Y55641314D02*
X77435470Y55450838D01*
X77435470Y55450838D02*
X77340232Y55355600D01*
X77340232Y55355600D02*
X77149756Y55260361D01*
X77149756Y55260361D02*
X76387851Y55260361D01*
X76387851Y55260361D02*
X76387851Y57260361D01*
X76387851Y57260361D02*
X77054518Y57260361D01*
X77054518Y57260361D02*
X77244994Y57165123D01*
X77244994Y57165123D02*
X77340232Y57069885D01*
X77340232Y57069885D02*
X77435470Y56879409D01*
X77435470Y56879409D02*
X77435470Y56688933D01*
X77435470Y56688933D02*
X77340232Y56498457D01*
X77340232Y56498457D02*
X77244994Y56403219D01*
X77244994Y56403219D02*
X77054518Y56307980D01*
X77054518Y56307980D02*
X76387851Y56307980D01*
D12*
X-9941070Y53841013D02*
X-9941070Y53031490D01*
X-9941070Y53031490D02*
X-9893451Y52936252D01*
X-9893451Y52936252D02*
X-9845832Y52888633D01*
X-9845832Y52888633D02*
X-9750594Y52841013D01*
X-9750594Y52841013D02*
X-9560118Y52841013D01*
X-9560118Y52841013D02*
X-9464880Y52888633D01*
X-9464880Y52888633D02*
X-9417261Y52936252D01*
X-9417261Y52936252D02*
X-9369642Y53031490D01*
X-9369642Y53031490D02*
X-9369642Y53841013D01*
X-8464880Y53507680D02*
X-8464880Y52841013D01*
X-8702975Y53888633D02*
X-8941070Y53174347D01*
X-8941070Y53174347D02*
X-8322023Y53174347D01*
X-46657737Y51441013D02*
X-46657737Y50631490D01*
X-46657737Y50631490D02*
X-46610118Y50536252D01*
X-46610118Y50536252D02*
X-46562499Y50488633D01*
X-46562499Y50488633D02*
X-46467261Y50441013D01*
X-46467261Y50441013D02*
X-46276785Y50441013D01*
X-46276785Y50441013D02*
X-46181547Y50488633D01*
X-46181547Y50488633D02*
X-46133928Y50536252D01*
X-46133928Y50536252D02*
X-46086309Y50631490D01*
X-46086309Y50631490D02*
X-46086309Y51441013D01*
X-45086309Y50441013D02*
X-45657737Y50441013D01*
X-45372023Y50441013D02*
X-45372023Y51441013D01*
X-45372023Y51441013D02*
X-45467261Y51298156D01*
X-45467261Y51298156D02*
X-45562499Y51202918D01*
X-45562499Y51202918D02*
X-45657737Y51155299D01*
X8417261Y50941013D02*
X8417261Y50131490D01*
X8417261Y50131490D02*
X8464880Y50036252D01*
X8464880Y50036252D02*
X8512499Y49988633D01*
X8512499Y49988633D02*
X8607737Y49941013D01*
X8607737Y49941013D02*
X8798213Y49941013D01*
X8798213Y49941013D02*
X8893451Y49988633D01*
X8893451Y49988633D02*
X8941070Y50036252D01*
X8941070Y50036252D02*
X8988689Y50131490D01*
X8988689Y50131490D02*
X8988689Y50941013D01*
X9941070Y50941013D02*
X9464880Y50941013D01*
X9464880Y50941013D02*
X9417261Y50464823D01*
X9417261Y50464823D02*
X9464880Y50512442D01*
X9464880Y50512442D02*
X9560118Y50560061D01*
X9560118Y50560061D02*
X9798213Y50560061D01*
X9798213Y50560061D02*
X9893451Y50512442D01*
X9893451Y50512442D02*
X9941070Y50464823D01*
X9941070Y50464823D02*
X9988689Y50369585D01*
X9988689Y50369585D02*
X9988689Y50131490D01*
X9988689Y50131490D02*
X9941070Y50036252D01*
X9941070Y50036252D02*
X9893451Y49988633D01*
X9893451Y49988633D02*
X9798213Y49941013D01*
X9798213Y49941013D02*
X9560118Y49941013D01*
X9560118Y49941013D02*
X9464880Y49988633D01*
X9464880Y49988633D02*
X9417261Y50036252D01*
X26775594Y50941013D02*
X26775594Y50131490D01*
X26775594Y50131490D02*
X26823213Y50036252D01*
X26823213Y50036252D02*
X26870832Y49988633D01*
X26870832Y49988633D02*
X26966070Y49941013D01*
X26966070Y49941013D02*
X27156546Y49941013D01*
X27156546Y49941013D02*
X27251784Y49988633D01*
X27251784Y49988633D02*
X27299403Y50036252D01*
X27299403Y50036252D02*
X27347022Y50131490D01*
X27347022Y50131490D02*
X27347022Y50941013D01*
X28251784Y50941013D02*
X28061308Y50941013D01*
X28061308Y50941013D02*
X27966070Y50893394D01*
X27966070Y50893394D02*
X27918451Y50845775D01*
X27918451Y50845775D02*
X27823213Y50702918D01*
X27823213Y50702918D02*
X27775594Y50512442D01*
X27775594Y50512442D02*
X27775594Y50131490D01*
X27775594Y50131490D02*
X27823213Y50036252D01*
X27823213Y50036252D02*
X27870832Y49988633D01*
X27870832Y49988633D02*
X27966070Y49941013D01*
X27966070Y49941013D02*
X28156546Y49941013D01*
X28156546Y49941013D02*
X28251784Y49988633D01*
X28251784Y49988633D02*
X28299403Y50036252D01*
X28299403Y50036252D02*
X28347022Y50131490D01*
X28347022Y50131490D02*
X28347022Y50369585D01*
X28347022Y50369585D02*
X28299403Y50464823D01*
X28299403Y50464823D02*
X28251784Y50512442D01*
X28251784Y50512442D02*
X28156546Y50560061D01*
X28156546Y50560061D02*
X27966070Y50560061D01*
X27966070Y50560061D02*
X27870832Y50512442D01*
X27870832Y50512442D02*
X27823213Y50464823D01*
X27823213Y50464823D02*
X27775594Y50369585D01*
X45133928Y50941013D02*
X45133928Y50131490D01*
X45133928Y50131490D02*
X45181547Y50036252D01*
X45181547Y50036252D02*
X45229166Y49988633D01*
X45229166Y49988633D02*
X45324404Y49941013D01*
X45324404Y49941013D02*
X45514880Y49941013D01*
X45514880Y49941013D02*
X45610118Y49988633D01*
X45610118Y49988633D02*
X45657737Y50036252D01*
X45657737Y50036252D02*
X45705356Y50131490D01*
X45705356Y50131490D02*
X45705356Y50941013D01*
X46086309Y50941013D02*
X46752975Y50941013D01*
X46752975Y50941013D02*
X46324404Y49941013D01*
X-28180357Y28337919D02*
X-28227976Y28290300D01*
X-28227976Y28290300D02*
X-28370833Y28242680D01*
X-28370833Y28242680D02*
X-28466071Y28242680D01*
X-28466071Y28242680D02*
X-28608928Y28290300D01*
X-28608928Y28290300D02*
X-28704166Y28385538D01*
X-28704166Y28385538D02*
X-28751785Y28480776D01*
X-28751785Y28480776D02*
X-28799404Y28671252D01*
X-28799404Y28671252D02*
X-28799404Y28814109D01*
X-28799404Y28814109D02*
X-28751785Y29004585D01*
X-28751785Y29004585D02*
X-28704166Y29099823D01*
X-28704166Y29099823D02*
X-28608928Y29195061D01*
X-28608928Y29195061D02*
X-28466071Y29242680D01*
X-28466071Y29242680D02*
X-28370833Y29242680D01*
X-28370833Y29242680D02*
X-28227976Y29195061D01*
X-28227976Y29195061D02*
X-28180357Y29147442D01*
X-27227976Y28242680D02*
X-27799404Y28242680D01*
X-27513690Y28242680D02*
X-27513690Y29242680D01*
X-27513690Y29242680D02*
X-27608928Y29099823D01*
X-27608928Y29099823D02*
X-27704166Y29004585D01*
X-27704166Y29004585D02*
X-27799404Y28956966D01*
X-26608928Y29242680D02*
X-26513690Y29242680D01*
X-26513690Y29242680D02*
X-26418452Y29195061D01*
X-26418452Y29195061D02*
X-26370833Y29147442D01*
X-26370833Y29147442D02*
X-26323214Y29052204D01*
X-26323214Y29052204D02*
X-26275595Y28861728D01*
X-26275595Y28861728D02*
X-26275595Y28623633D01*
X-26275595Y28623633D02*
X-26323214Y28433157D01*
X-26323214Y28433157D02*
X-26370833Y28337919D01*
X-26370833Y28337919D02*
X-26418452Y28290300D01*
X-26418452Y28290300D02*
X-26513690Y28242680D01*
X-26513690Y28242680D02*
X-26608928Y28242680D01*
X-26608928Y28242680D02*
X-26704166Y28290300D01*
X-26704166Y28290300D02*
X-26751785Y28337919D01*
X-26751785Y28337919D02*
X-26799404Y28433157D01*
X-26799404Y28433157D02*
X-26847023Y28623633D01*
X-26847023Y28623633D02*
X-26847023Y28861728D01*
X-26847023Y28861728D02*
X-26799404Y29052204D01*
X-26799404Y29052204D02*
X-26751785Y29147442D01*
X-26751785Y29147442D02*
X-26704166Y29195061D01*
X-26704166Y29195061D02*
X-26608928Y29242680D01*
X-9822023Y28337919D02*
X-9869642Y28290300D01*
X-9869642Y28290300D02*
X-10012499Y28242680D01*
X-10012499Y28242680D02*
X-10107737Y28242680D01*
X-10107737Y28242680D02*
X-10250594Y28290300D01*
X-10250594Y28290300D02*
X-10345832Y28385538D01*
X-10345832Y28385538D02*
X-10393451Y28480776D01*
X-10393451Y28480776D02*
X-10441070Y28671252D01*
X-10441070Y28671252D02*
X-10441070Y28814109D01*
X-10441070Y28814109D02*
X-10393451Y29004585D01*
X-10393451Y29004585D02*
X-10345832Y29099823D01*
X-10345832Y29099823D02*
X-10250594Y29195061D01*
X-10250594Y29195061D02*
X-10107737Y29242680D01*
X-10107737Y29242680D02*
X-10012499Y29242680D01*
X-10012499Y29242680D02*
X-9869642Y29195061D01*
X-9869642Y29195061D02*
X-9822023Y29147442D01*
X-8869642Y28242680D02*
X-9441070Y28242680D01*
X-9155356Y28242680D02*
X-9155356Y29242680D01*
X-9155356Y29242680D02*
X-9250594Y29099823D01*
X-9250594Y29099823D02*
X-9345832Y29004585D01*
X-9345832Y29004585D02*
X-9441070Y28956966D01*
X-7917261Y28242680D02*
X-8488689Y28242680D01*
X-8202975Y28242680D02*
X-8202975Y29242680D01*
X-8202975Y29242680D02*
X-8298213Y29099823D01*
X-8298213Y29099823D02*
X-8393451Y29004585D01*
X-8393451Y29004585D02*
X-8488689Y28956966D01*
X8536308Y28337919D02*
X8488689Y28290300D01*
X8488689Y28290300D02*
X8345832Y28242680D01*
X8345832Y28242680D02*
X8250594Y28242680D01*
X8250594Y28242680D02*
X8107737Y28290300D01*
X8107737Y28290300D02*
X8012499Y28385538D01*
X8012499Y28385538D02*
X7964880Y28480776D01*
X7964880Y28480776D02*
X7917261Y28671252D01*
X7917261Y28671252D02*
X7917261Y28814109D01*
X7917261Y28814109D02*
X7964880Y29004585D01*
X7964880Y29004585D02*
X8012499Y29099823D01*
X8012499Y29099823D02*
X8107737Y29195061D01*
X8107737Y29195061D02*
X8250594Y29242680D01*
X8250594Y29242680D02*
X8345832Y29242680D01*
X8345832Y29242680D02*
X8488689Y29195061D01*
X8488689Y29195061D02*
X8536308Y29147442D01*
X9488689Y28242680D02*
X8917261Y28242680D01*
X9202975Y28242680D02*
X9202975Y29242680D01*
X9202975Y29242680D02*
X9107737Y29099823D01*
X9107737Y29099823D02*
X9012499Y29004585D01*
X9012499Y29004585D02*
X8917261Y28956966D01*
X9869642Y29147442D02*
X9917261Y29195061D01*
X9917261Y29195061D02*
X10012499Y29242680D01*
X10012499Y29242680D02*
X10250594Y29242680D01*
X10250594Y29242680D02*
X10345832Y29195061D01*
X10345832Y29195061D02*
X10393451Y29147442D01*
X10393451Y29147442D02*
X10441070Y29052204D01*
X10441070Y29052204D02*
X10441070Y28956966D01*
X10441070Y28956966D02*
X10393451Y28814109D01*
X10393451Y28814109D02*
X9822023Y28242680D01*
X9822023Y28242680D02*
X10441070Y28242680D01*
X26894641Y28337919D02*
X26847022Y28290300D01*
X26847022Y28290300D02*
X26704165Y28242680D01*
X26704165Y28242680D02*
X26608927Y28242680D01*
X26608927Y28242680D02*
X26466070Y28290300D01*
X26466070Y28290300D02*
X26370832Y28385538D01*
X26370832Y28385538D02*
X26323213Y28480776D01*
X26323213Y28480776D02*
X26275594Y28671252D01*
X26275594Y28671252D02*
X26275594Y28814109D01*
X26275594Y28814109D02*
X26323213Y29004585D01*
X26323213Y29004585D02*
X26370832Y29099823D01*
X26370832Y29099823D02*
X26466070Y29195061D01*
X26466070Y29195061D02*
X26608927Y29242680D01*
X26608927Y29242680D02*
X26704165Y29242680D01*
X26704165Y29242680D02*
X26847022Y29195061D01*
X26847022Y29195061D02*
X26894641Y29147442D01*
X27847022Y28242680D02*
X27275594Y28242680D01*
X27561308Y28242680D02*
X27561308Y29242680D01*
X27561308Y29242680D02*
X27466070Y29099823D01*
X27466070Y29099823D02*
X27370832Y29004585D01*
X27370832Y29004585D02*
X27275594Y28956966D01*
X28180356Y29242680D02*
X28799403Y29242680D01*
X28799403Y29242680D02*
X28466070Y28861728D01*
X28466070Y28861728D02*
X28608927Y28861728D01*
X28608927Y28861728D02*
X28704165Y28814109D01*
X28704165Y28814109D02*
X28751784Y28766490D01*
X28751784Y28766490D02*
X28799403Y28671252D01*
X28799403Y28671252D02*
X28799403Y28433157D01*
X28799403Y28433157D02*
X28751784Y28337919D01*
X28751784Y28337919D02*
X28704165Y28290300D01*
X28704165Y28290300D02*
X28608927Y28242680D01*
X28608927Y28242680D02*
X28323213Y28242680D01*
X28323213Y28242680D02*
X28227975Y28290300D01*
X28227975Y28290300D02*
X28180356Y28337919D01*
X45252975Y28337919D02*
X45205356Y28290300D01*
X45205356Y28290300D02*
X45062499Y28242680D01*
X45062499Y28242680D02*
X44967261Y28242680D01*
X44967261Y28242680D02*
X44824404Y28290300D01*
X44824404Y28290300D02*
X44729166Y28385538D01*
X44729166Y28385538D02*
X44681547Y28480776D01*
X44681547Y28480776D02*
X44633928Y28671252D01*
X44633928Y28671252D02*
X44633928Y28814109D01*
X44633928Y28814109D02*
X44681547Y29004585D01*
X44681547Y29004585D02*
X44729166Y29099823D01*
X44729166Y29099823D02*
X44824404Y29195061D01*
X44824404Y29195061D02*
X44967261Y29242680D01*
X44967261Y29242680D02*
X45062499Y29242680D01*
X45062499Y29242680D02*
X45205356Y29195061D01*
X45205356Y29195061D02*
X45252975Y29147442D01*
X46205356Y28242680D02*
X45633928Y28242680D01*
X45919642Y28242680D02*
X45919642Y29242680D01*
X45919642Y29242680D02*
X45824404Y29099823D01*
X45824404Y29099823D02*
X45729166Y29004585D01*
X45729166Y29004585D02*
X45633928Y28956966D01*
X47062499Y28909347D02*
X47062499Y28242680D01*
X46824404Y29290300D02*
X46586309Y28576014D01*
X46586309Y28576014D02*
X47205356Y28576014D01*
X-46538690Y9979585D02*
X-46586309Y9931966D01*
X-46586309Y9931966D02*
X-46729166Y9884346D01*
X-46729166Y9884346D02*
X-46824404Y9884346D01*
X-46824404Y9884346D02*
X-46967261Y9931966D01*
X-46967261Y9931966D02*
X-47062499Y10027204D01*
X-47062499Y10027204D02*
X-47110118Y10122442D01*
X-47110118Y10122442D02*
X-47157737Y10312918D01*
X-47157737Y10312918D02*
X-47157737Y10455775D01*
X-47157737Y10455775D02*
X-47110118Y10646251D01*
X-47110118Y10646251D02*
X-47062499Y10741489D01*
X-47062499Y10741489D02*
X-46967261Y10836727D01*
X-46967261Y10836727D02*
X-46824404Y10884346D01*
X-46824404Y10884346D02*
X-46729166Y10884346D01*
X-46729166Y10884346D02*
X-46586309Y10836727D01*
X-46586309Y10836727D02*
X-46538690Y10789108D01*
X-45586309Y9884346D02*
X-46157737Y9884346D01*
X-45872023Y9884346D02*
X-45872023Y10884346D01*
X-45872023Y10884346D02*
X-45967261Y10741489D01*
X-45967261Y10741489D02*
X-46062499Y10646251D01*
X-46062499Y10646251D02*
X-46157737Y10598632D01*
X-44681547Y10884346D02*
X-45157737Y10884346D01*
X-45157737Y10884346D02*
X-45205356Y10408156D01*
X-45205356Y10408156D02*
X-45157737Y10455775D01*
X-45157737Y10455775D02*
X-45062499Y10503394D01*
X-45062499Y10503394D02*
X-44824404Y10503394D01*
X-44824404Y10503394D02*
X-44729166Y10455775D01*
X-44729166Y10455775D02*
X-44681547Y10408156D01*
X-44681547Y10408156D02*
X-44633928Y10312918D01*
X-44633928Y10312918D02*
X-44633928Y10074823D01*
X-44633928Y10074823D02*
X-44681547Y9979585D01*
X-44681547Y9979585D02*
X-44729166Y9931966D01*
X-44729166Y9931966D02*
X-44824404Y9884346D01*
X-44824404Y9884346D02*
X-45062499Y9884346D01*
X-45062499Y9884346D02*
X-45157737Y9931966D01*
X-45157737Y9931966D02*
X-45205356Y9979585D01*
X-46062499Y28607919D02*
X-46110118Y28560300D01*
X-46110118Y28560300D02*
X-46252975Y28512680D01*
X-46252975Y28512680D02*
X-46348213Y28512680D01*
X-46348213Y28512680D02*
X-46491070Y28560300D01*
X-46491070Y28560300D02*
X-46586308Y28655538D01*
X-46586308Y28655538D02*
X-46633927Y28750776D01*
X-46633927Y28750776D02*
X-46681546Y28941252D01*
X-46681546Y28941252D02*
X-46681546Y29084109D01*
X-46681546Y29084109D02*
X-46633927Y29274585D01*
X-46633927Y29274585D02*
X-46586308Y29369823D01*
X-46586308Y29369823D02*
X-46491070Y29465061D01*
X-46491070Y29465061D02*
X-46348213Y29512680D01*
X-46348213Y29512680D02*
X-46252975Y29512680D01*
X-46252975Y29512680D02*
X-46110118Y29465061D01*
X-46110118Y29465061D02*
X-46062499Y29417442D01*
X-45110118Y28512680D02*
X-45681546Y28512680D01*
X-45395832Y28512680D02*
X-45395832Y29512680D01*
X-45395832Y29512680D02*
X-45491070Y29369823D01*
X-45491070Y29369823D02*
X-45586308Y29274585D01*
X-45586308Y29274585D02*
X-45681546Y29226966D01*
X-27704166Y10249585D02*
X-27751785Y10201966D01*
X-27751785Y10201966D02*
X-27894642Y10154346D01*
X-27894642Y10154346D02*
X-27989880Y10154346D01*
X-27989880Y10154346D02*
X-28132737Y10201966D01*
X-28132737Y10201966D02*
X-28227975Y10297204D01*
X-28227975Y10297204D02*
X-28275594Y10392442D01*
X-28275594Y10392442D02*
X-28323213Y10582918D01*
X-28323213Y10582918D02*
X-28323213Y10725775D01*
X-28323213Y10725775D02*
X-28275594Y10916251D01*
X-28275594Y10916251D02*
X-28227975Y11011489D01*
X-28227975Y11011489D02*
X-28132737Y11106727D01*
X-28132737Y11106727D02*
X-27989880Y11154346D01*
X-27989880Y11154346D02*
X-27894642Y11154346D01*
X-27894642Y11154346D02*
X-27751785Y11106727D01*
X-27751785Y11106727D02*
X-27704166Y11059108D01*
X-27323213Y11059108D02*
X-27275594Y11106727D01*
X-27275594Y11106727D02*
X-27180356Y11154346D01*
X-27180356Y11154346D02*
X-26942261Y11154346D01*
X-26942261Y11154346D02*
X-26847023Y11106727D01*
X-26847023Y11106727D02*
X-26799404Y11059108D01*
X-26799404Y11059108D02*
X-26751785Y10963870D01*
X-26751785Y10963870D02*
X-26751785Y10868632D01*
X-26751785Y10868632D02*
X-26799404Y10725775D01*
X-26799404Y10725775D02*
X-27370832Y10154346D01*
X-27370832Y10154346D02*
X-26751785Y10154346D01*
X-9345832Y10249585D02*
X-9393451Y10201966D01*
X-9393451Y10201966D02*
X-9536308Y10154346D01*
X-9536308Y10154346D02*
X-9631546Y10154346D01*
X-9631546Y10154346D02*
X-9774403Y10201966D01*
X-9774403Y10201966D02*
X-9869641Y10297204D01*
X-9869641Y10297204D02*
X-9917260Y10392442D01*
X-9917260Y10392442D02*
X-9964879Y10582918D01*
X-9964879Y10582918D02*
X-9964879Y10725775D01*
X-9964879Y10725775D02*
X-9917260Y10916251D01*
X-9917260Y10916251D02*
X-9869641Y11011489D01*
X-9869641Y11011489D02*
X-9774403Y11106727D01*
X-9774403Y11106727D02*
X-9631546Y11154346D01*
X-9631546Y11154346D02*
X-9536308Y11154346D01*
X-9536308Y11154346D02*
X-9393451Y11106727D01*
X-9393451Y11106727D02*
X-9345832Y11059108D01*
X-9012498Y11154346D02*
X-8393451Y11154346D01*
X-8393451Y11154346D02*
X-8726784Y10773394D01*
X-8726784Y10773394D02*
X-8583927Y10773394D01*
X-8583927Y10773394D02*
X-8488689Y10725775D01*
X-8488689Y10725775D02*
X-8441070Y10678156D01*
X-8441070Y10678156D02*
X-8393451Y10582918D01*
X-8393451Y10582918D02*
X-8393451Y10344823D01*
X-8393451Y10344823D02*
X-8441070Y10249585D01*
X-8441070Y10249585D02*
X-8488689Y10201966D01*
X-8488689Y10201966D02*
X-8583927Y10154346D01*
X-8583927Y10154346D02*
X-8869641Y10154346D01*
X-8869641Y10154346D02*
X-8964879Y10201966D01*
X-8964879Y10201966D02*
X-9012498Y10249585D01*
X9012499Y10249585D02*
X8964880Y10201966D01*
X8964880Y10201966D02*
X8822023Y10154346D01*
X8822023Y10154346D02*
X8726785Y10154346D01*
X8726785Y10154346D02*
X8583928Y10201966D01*
X8583928Y10201966D02*
X8488690Y10297204D01*
X8488690Y10297204D02*
X8441071Y10392442D01*
X8441071Y10392442D02*
X8393452Y10582918D01*
X8393452Y10582918D02*
X8393452Y10725775D01*
X8393452Y10725775D02*
X8441071Y10916251D01*
X8441071Y10916251D02*
X8488690Y11011489D01*
X8488690Y11011489D02*
X8583928Y11106727D01*
X8583928Y11106727D02*
X8726785Y11154346D01*
X8726785Y11154346D02*
X8822023Y11154346D01*
X8822023Y11154346D02*
X8964880Y11106727D01*
X8964880Y11106727D02*
X9012499Y11059108D01*
X9869642Y10821013D02*
X9869642Y10154346D01*
X9631547Y11201966D02*
X9393452Y10487680D01*
X9393452Y10487680D02*
X10012499Y10487680D01*
X27370832Y10249585D02*
X27323213Y10201966D01*
X27323213Y10201966D02*
X27180356Y10154346D01*
X27180356Y10154346D02*
X27085118Y10154346D01*
X27085118Y10154346D02*
X26942261Y10201966D01*
X26942261Y10201966D02*
X26847023Y10297204D01*
X26847023Y10297204D02*
X26799404Y10392442D01*
X26799404Y10392442D02*
X26751785Y10582918D01*
X26751785Y10582918D02*
X26751785Y10725775D01*
X26751785Y10725775D02*
X26799404Y10916251D01*
X26799404Y10916251D02*
X26847023Y11011489D01*
X26847023Y11011489D02*
X26942261Y11106727D01*
X26942261Y11106727D02*
X27085118Y11154346D01*
X27085118Y11154346D02*
X27180356Y11154346D01*
X27180356Y11154346D02*
X27323213Y11106727D01*
X27323213Y11106727D02*
X27370832Y11059108D01*
X28275594Y11154346D02*
X27799404Y11154346D01*
X27799404Y11154346D02*
X27751785Y10678156D01*
X27751785Y10678156D02*
X27799404Y10725775D01*
X27799404Y10725775D02*
X27894642Y10773394D01*
X27894642Y10773394D02*
X28132737Y10773394D01*
X28132737Y10773394D02*
X28227975Y10725775D01*
X28227975Y10725775D02*
X28275594Y10678156D01*
X28275594Y10678156D02*
X28323213Y10582918D01*
X28323213Y10582918D02*
X28323213Y10344823D01*
X28323213Y10344823D02*
X28275594Y10249585D01*
X28275594Y10249585D02*
X28227975Y10201966D01*
X28227975Y10201966D02*
X28132737Y10154346D01*
X28132737Y10154346D02*
X27894642Y10154346D01*
X27894642Y10154346D02*
X27799404Y10201966D01*
X27799404Y10201966D02*
X27751785Y10249585D01*
X45729166Y10249585D02*
X45681547Y10201966D01*
X45681547Y10201966D02*
X45538690Y10154346D01*
X45538690Y10154346D02*
X45443452Y10154346D01*
X45443452Y10154346D02*
X45300595Y10201966D01*
X45300595Y10201966D02*
X45205357Y10297204D01*
X45205357Y10297204D02*
X45157738Y10392442D01*
X45157738Y10392442D02*
X45110119Y10582918D01*
X45110119Y10582918D02*
X45110119Y10725775D01*
X45110119Y10725775D02*
X45157738Y10916251D01*
X45157738Y10916251D02*
X45205357Y11011489D01*
X45205357Y11011489D02*
X45300595Y11106727D01*
X45300595Y11106727D02*
X45443452Y11154346D01*
X45443452Y11154346D02*
X45538690Y11154346D01*
X45538690Y11154346D02*
X45681547Y11106727D01*
X45681547Y11106727D02*
X45729166Y11059108D01*
X46586309Y11154346D02*
X46395833Y11154346D01*
X46395833Y11154346D02*
X46300595Y11106727D01*
X46300595Y11106727D02*
X46252976Y11059108D01*
X46252976Y11059108D02*
X46157738Y10916251D01*
X46157738Y10916251D02*
X46110119Y10725775D01*
X46110119Y10725775D02*
X46110119Y10344823D01*
X46110119Y10344823D02*
X46157738Y10249585D01*
X46157738Y10249585D02*
X46205357Y10201966D01*
X46205357Y10201966D02*
X46300595Y10154346D01*
X46300595Y10154346D02*
X46491071Y10154346D01*
X46491071Y10154346D02*
X46586309Y10201966D01*
X46586309Y10201966D02*
X46633928Y10249585D01*
X46633928Y10249585D02*
X46681547Y10344823D01*
X46681547Y10344823D02*
X46681547Y10582918D01*
X46681547Y10582918D02*
X46633928Y10678156D01*
X46633928Y10678156D02*
X46586309Y10725775D01*
X46586309Y10725775D02*
X46491071Y10773394D01*
X46491071Y10773394D02*
X46300595Y10773394D01*
X46300595Y10773394D02*
X46205357Y10725775D01*
X46205357Y10725775D02*
X46157738Y10678156D01*
X46157738Y10678156D02*
X46110119Y10582918D01*
X-46705356Y-25167318D02*
X-46705356Y-24167318D01*
X-46705356Y-24167318D02*
X-46372023Y-24881603D01*
X-46372023Y-24881603D02*
X-46038690Y-24167318D01*
X-46038690Y-24167318D02*
X-46038690Y-25167318D01*
X-45657737Y-24167318D02*
X-45038690Y-24167318D01*
X-45038690Y-24167318D02*
X-45372023Y-24548270D01*
X-45372023Y-24548270D02*
X-45229166Y-24548270D01*
X-45229166Y-24548270D02*
X-45133928Y-24595889D01*
X-45133928Y-24595889D02*
X-45086309Y-24643508D01*
X-45086309Y-24643508D02*
X-45038690Y-24738746D01*
X-45038690Y-24738746D02*
X-45038690Y-24976841D01*
X-45038690Y-24976841D02*
X-45086309Y-25072079D01*
X-45086309Y-25072079D02*
X-45133928Y-25119699D01*
X-45133928Y-25119699D02*
X-45229166Y-25167318D01*
X-45229166Y-25167318D02*
X-45514880Y-25167318D01*
X-45514880Y-25167318D02*
X-45610118Y-25119699D01*
X-45610118Y-25119699D02*
X-45657737Y-25072079D01*
X-28347023Y-25167318D02*
X-28347023Y-24167318D01*
X-28347023Y-24167318D02*
X-28013690Y-24881603D01*
X-28013690Y-24881603D02*
X-27680357Y-24167318D01*
X-27680357Y-24167318D02*
X-27680357Y-25167318D01*
X-26775595Y-24500651D02*
X-26775595Y-25167318D01*
X-27013690Y-24119699D02*
X-27251785Y-24833984D01*
X-27251785Y-24833984D02*
X-26632738Y-24833984D01*
X-46705356Y-6808985D02*
X-46705356Y-5808985D01*
X-46705356Y-5808985D02*
X-46372023Y-6523270D01*
X-46372023Y-6523270D02*
X-46038690Y-5808985D01*
X-46038690Y-5808985D02*
X-46038690Y-6808985D01*
X-45038690Y-6808985D02*
X-45610118Y-6808985D01*
X-45324404Y-6808985D02*
X-45324404Y-5808985D01*
X-45324404Y-5808985D02*
X-45419642Y-5951842D01*
X-45419642Y-5951842D02*
X-45514880Y-6047080D01*
X-45514880Y-6047080D02*
X-45610118Y-6094699D01*
X-28823213Y-6808985D02*
X-28823213Y-5808985D01*
X-28823213Y-5808985D02*
X-28489880Y-6523270D01*
X-28489880Y-6523270D02*
X-28156547Y-5808985D01*
X-28156547Y-5808985D02*
X-28156547Y-6808985D01*
X-27156547Y-6808985D02*
X-27727975Y-6808985D01*
X-27442261Y-6808985D02*
X-27442261Y-5808985D01*
X-27442261Y-5808985D02*
X-27537499Y-5951842D01*
X-27537499Y-5951842D02*
X-27632737Y-6047080D01*
X-27632737Y-6047080D02*
X-27727975Y-6094699D01*
X-26537499Y-5808985D02*
X-26442261Y-5808985D01*
X-26442261Y-5808985D02*
X-26347023Y-5856604D01*
X-26347023Y-5856604D02*
X-26299404Y-5904223D01*
X-26299404Y-5904223D02*
X-26251785Y-5999461D01*
X-26251785Y-5999461D02*
X-26204166Y-6189937D01*
X-26204166Y-6189937D02*
X-26204166Y-6428032D01*
X-26204166Y-6428032D02*
X-26251785Y-6618508D01*
X-26251785Y-6618508D02*
X-26299404Y-6713746D01*
X-26299404Y-6713746D02*
X-26347023Y-6761366D01*
X-26347023Y-6761366D02*
X-26442261Y-6808985D01*
X-26442261Y-6808985D02*
X-26537499Y-6808985D01*
X-26537499Y-6808985D02*
X-26632737Y-6761366D01*
X-26632737Y-6761366D02*
X-26680356Y-6713746D01*
X-26680356Y-6713746D02*
X-26727975Y-6618508D01*
X-26727975Y-6618508D02*
X-26775594Y-6428032D01*
X-26775594Y-6428032D02*
X-26775594Y-6189937D01*
X-26775594Y-6189937D02*
X-26727975Y-5999461D01*
X-26727975Y-5999461D02*
X-26680356Y-5904223D01*
X-26680356Y-5904223D02*
X-26632737Y-5856604D01*
X-26632737Y-5856604D02*
X-26537499Y-5808985D01*
X-10464879Y-6808985D02*
X-10464879Y-5808985D01*
X-10464879Y-5808985D02*
X-10131546Y-6523270D01*
X-10131546Y-6523270D02*
X-9798213Y-5808985D01*
X-9798213Y-5808985D02*
X-9798213Y-6808985D01*
X-8798213Y-6808985D02*
X-9369641Y-6808985D01*
X-9083927Y-6808985D02*
X-9083927Y-5808985D01*
X-9083927Y-5808985D02*
X-9179165Y-5951842D01*
X-9179165Y-5951842D02*
X-9274403Y-6047080D01*
X-9274403Y-6047080D02*
X-9369641Y-6094699D01*
X-7845832Y-6808985D02*
X-8417260Y-6808985D01*
X-8131546Y-6808985D02*
X-8131546Y-5808985D01*
X-8131546Y-5808985D02*
X-8226784Y-5951842D01*
X-8226784Y-5951842D02*
X-8322022Y-6047080D01*
X-8322022Y-6047080D02*
X-8417260Y-6094699D01*
X7893452Y-6808985D02*
X7893452Y-5808985D01*
X7893452Y-5808985D02*
X8226785Y-6523270D01*
X8226785Y-6523270D02*
X8560118Y-5808985D01*
X8560118Y-5808985D02*
X8560118Y-6808985D01*
X9560118Y-6808985D02*
X8988690Y-6808985D01*
X9274404Y-6808985D02*
X9274404Y-5808985D01*
X9274404Y-5808985D02*
X9179166Y-5951842D01*
X9179166Y-5951842D02*
X9083928Y-6047080D01*
X9083928Y-6047080D02*
X8988690Y-6094699D01*
X9941071Y-5904223D02*
X9988690Y-5856604D01*
X9988690Y-5856604D02*
X10083928Y-5808985D01*
X10083928Y-5808985D02*
X10322023Y-5808985D01*
X10322023Y-5808985D02*
X10417261Y-5856604D01*
X10417261Y-5856604D02*
X10464880Y-5904223D01*
X10464880Y-5904223D02*
X10512499Y-5999461D01*
X10512499Y-5999461D02*
X10512499Y-6094699D01*
X10512499Y-6094699D02*
X10464880Y-6237556D01*
X10464880Y-6237556D02*
X9893452Y-6808985D01*
X9893452Y-6808985D02*
X10512499Y-6808985D01*
X26251785Y-6808985D02*
X26251785Y-5808985D01*
X26251785Y-5808985D02*
X26585118Y-6523270D01*
X26585118Y-6523270D02*
X26918451Y-5808985D01*
X26918451Y-5808985D02*
X26918451Y-6808985D01*
X27918451Y-6808985D02*
X27347023Y-6808985D01*
X27632737Y-6808985D02*
X27632737Y-5808985D01*
X27632737Y-5808985D02*
X27537499Y-5951842D01*
X27537499Y-5951842D02*
X27442261Y-6047080D01*
X27442261Y-6047080D02*
X27347023Y-6094699D01*
X28251785Y-5808985D02*
X28870832Y-5808985D01*
X28870832Y-5808985D02*
X28537499Y-6189937D01*
X28537499Y-6189937D02*
X28680356Y-6189937D01*
X28680356Y-6189937D02*
X28775594Y-6237556D01*
X28775594Y-6237556D02*
X28823213Y-6285175D01*
X28823213Y-6285175D02*
X28870832Y-6380413D01*
X28870832Y-6380413D02*
X28870832Y-6618508D01*
X28870832Y-6618508D02*
X28823213Y-6713746D01*
X28823213Y-6713746D02*
X28775594Y-6761366D01*
X28775594Y-6761366D02*
X28680356Y-6808985D01*
X28680356Y-6808985D02*
X28394642Y-6808985D01*
X28394642Y-6808985D02*
X28299404Y-6761366D01*
X28299404Y-6761366D02*
X28251785Y-6713746D01*
X45086309Y-6808985D02*
X45086309Y-5808985D01*
X45086309Y-5808985D02*
X45419642Y-6523270D01*
X45419642Y-6523270D02*
X45752975Y-5808985D01*
X45752975Y-5808985D02*
X45752975Y-6808985D01*
X46181547Y-5904223D02*
X46229166Y-5856604D01*
X46229166Y-5856604D02*
X46324404Y-5808985D01*
X46324404Y-5808985D02*
X46562499Y-5808985D01*
X46562499Y-5808985D02*
X46657737Y-5856604D01*
X46657737Y-5856604D02*
X46705356Y-5904223D01*
X46705356Y-5904223D02*
X46752975Y-5999461D01*
X46752975Y-5999461D02*
X46752975Y-6094699D01*
X46752975Y-6094699D02*
X46705356Y-6237556D01*
X46705356Y-6237556D02*
X46133928Y-6808985D01*
X46133928Y-6808985D02*
X46752975Y-6808985D01*
X-9988689Y-25167318D02*
X-9988689Y-24167318D01*
X-9988689Y-24167318D02*
X-9655356Y-24881603D01*
X-9655356Y-24881603D02*
X-9322023Y-24167318D01*
X-9322023Y-24167318D02*
X-9322023Y-25167318D01*
X-8369642Y-24167318D02*
X-8845832Y-24167318D01*
X-8845832Y-24167318D02*
X-8893451Y-24643508D01*
X-8893451Y-24643508D02*
X-8845832Y-24595889D01*
X-8845832Y-24595889D02*
X-8750594Y-24548270D01*
X-8750594Y-24548270D02*
X-8512499Y-24548270D01*
X-8512499Y-24548270D02*
X-8417261Y-24595889D01*
X-8417261Y-24595889D02*
X-8369642Y-24643508D01*
X-8369642Y-24643508D02*
X-8322023Y-24738746D01*
X-8322023Y-24738746D02*
X-8322023Y-24976841D01*
X-8322023Y-24976841D02*
X-8369642Y-25072079D01*
X-8369642Y-25072079D02*
X-8417261Y-25119699D01*
X-8417261Y-25119699D02*
X-8512499Y-25167318D01*
X-8512499Y-25167318D02*
X-8750594Y-25167318D01*
X-8750594Y-25167318D02*
X-8845832Y-25119699D01*
X-8845832Y-25119699D02*
X-8893451Y-25072079D01*
X8369642Y-25167318D02*
X8369642Y-24167318D01*
X8369642Y-24167318D02*
X8702975Y-24881603D01*
X8702975Y-24881603D02*
X9036308Y-24167318D01*
X9036308Y-24167318D02*
X9036308Y-25167318D01*
X9941070Y-24167318D02*
X9750594Y-24167318D01*
X9750594Y-24167318D02*
X9655356Y-24214937D01*
X9655356Y-24214937D02*
X9607737Y-24262556D01*
X9607737Y-24262556D02*
X9512499Y-24405413D01*
X9512499Y-24405413D02*
X9464880Y-24595889D01*
X9464880Y-24595889D02*
X9464880Y-24976841D01*
X9464880Y-24976841D02*
X9512499Y-25072079D01*
X9512499Y-25072079D02*
X9560118Y-25119699D01*
X9560118Y-25119699D02*
X9655356Y-25167318D01*
X9655356Y-25167318D02*
X9845832Y-25167318D01*
X9845832Y-25167318D02*
X9941070Y-25119699D01*
X9941070Y-25119699D02*
X9988689Y-25072079D01*
X9988689Y-25072079D02*
X10036308Y-24976841D01*
X10036308Y-24976841D02*
X10036308Y-24738746D01*
X10036308Y-24738746D02*
X9988689Y-24643508D01*
X9988689Y-24643508D02*
X9941070Y-24595889D01*
X9941070Y-24595889D02*
X9845832Y-24548270D01*
X9845832Y-24548270D02*
X9655356Y-24548270D01*
X9655356Y-24548270D02*
X9560118Y-24595889D01*
X9560118Y-24595889D02*
X9512499Y-24643508D01*
X9512499Y-24643508D02*
X9464880Y-24738746D01*
X26727975Y-25167318D02*
X26727975Y-24167318D01*
X26727975Y-24167318D02*
X27061308Y-24881603D01*
X27061308Y-24881603D02*
X27394641Y-24167318D01*
X27394641Y-24167318D02*
X27394641Y-25167318D01*
X27775594Y-24167318D02*
X28442260Y-24167318D01*
X28442260Y-24167318D02*
X28013689Y-25167318D01*
X45086309Y-25167318D02*
X45086309Y-24167318D01*
X45086309Y-24167318D02*
X45419642Y-24881603D01*
X45419642Y-24881603D02*
X45752975Y-24167318D01*
X45752975Y-24167318D02*
X45752975Y-25167318D01*
X46372023Y-24595889D02*
X46276785Y-24548270D01*
X46276785Y-24548270D02*
X46229166Y-24500651D01*
X46229166Y-24500651D02*
X46181547Y-24405413D01*
X46181547Y-24405413D02*
X46181547Y-24357794D01*
X46181547Y-24357794D02*
X46229166Y-24262556D01*
X46229166Y-24262556D02*
X46276785Y-24214937D01*
X46276785Y-24214937D02*
X46372023Y-24167318D01*
X46372023Y-24167318D02*
X46562499Y-24167318D01*
X46562499Y-24167318D02*
X46657737Y-24214937D01*
X46657737Y-24214937D02*
X46705356Y-24262556D01*
X46705356Y-24262556D02*
X46752975Y-24357794D01*
X46752975Y-24357794D02*
X46752975Y-24405413D01*
X46752975Y-24405413D02*
X46705356Y-24500651D01*
X46705356Y-24500651D02*
X46657737Y-24548270D01*
X46657737Y-24548270D02*
X46562499Y-24595889D01*
X46562499Y-24595889D02*
X46372023Y-24595889D01*
X46372023Y-24595889D02*
X46276785Y-24643508D01*
X46276785Y-24643508D02*
X46229166Y-24691127D01*
X46229166Y-24691127D02*
X46181547Y-24786365D01*
X46181547Y-24786365D02*
X46181547Y-24976841D01*
X46181547Y-24976841D02*
X46229166Y-25072079D01*
X46229166Y-25072079D02*
X46276785Y-25119699D01*
X46276785Y-25119699D02*
X46372023Y-25167318D01*
X46372023Y-25167318D02*
X46562499Y-25167318D01*
X46562499Y-25167318D02*
X46657737Y-25119699D01*
X46657737Y-25119699D02*
X46705356Y-25072079D01*
X46705356Y-25072079D02*
X46752975Y-24976841D01*
X46752975Y-24976841D02*
X46752975Y-24786365D01*
X46752975Y-24786365D02*
X46705356Y-24691127D01*
X46705356Y-24691127D02*
X46657737Y-24643508D01*
X46657737Y-24643508D02*
X46562499Y-24595889D01*
X-46705356Y-43525652D02*
X-46705356Y-42525652D01*
X-46705356Y-42525652D02*
X-46372023Y-43239937D01*
X-46372023Y-43239937D02*
X-46038690Y-42525652D01*
X-46038690Y-42525652D02*
X-46038690Y-43525652D01*
X-45514880Y-43525652D02*
X-45324404Y-43525652D01*
X-45324404Y-43525652D02*
X-45229166Y-43478033D01*
X-45229166Y-43478033D02*
X-45181547Y-43430413D01*
X-45181547Y-43430413D02*
X-45086309Y-43287556D01*
X-45086309Y-43287556D02*
X-45038690Y-43097080D01*
X-45038690Y-43097080D02*
X-45038690Y-42716128D01*
X-45038690Y-42716128D02*
X-45086309Y-42620890D01*
X-45086309Y-42620890D02*
X-45133928Y-42573271D01*
X-45133928Y-42573271D02*
X-45229166Y-42525652D01*
X-45229166Y-42525652D02*
X-45419642Y-42525652D01*
X-45419642Y-42525652D02*
X-45514880Y-42573271D01*
X-45514880Y-42573271D02*
X-45562499Y-42620890D01*
X-45562499Y-42620890D02*
X-45610118Y-42716128D01*
X-45610118Y-42716128D02*
X-45610118Y-42954223D01*
X-45610118Y-42954223D02*
X-45562499Y-43049461D01*
X-45562499Y-43049461D02*
X-45514880Y-43097080D01*
X-45514880Y-43097080D02*
X-45419642Y-43144699D01*
X-45419642Y-43144699D02*
X-45229166Y-43144699D01*
X-45229166Y-43144699D02*
X-45133928Y-43097080D01*
X-45133928Y-43097080D02*
X-45086309Y-43049461D01*
X-45086309Y-43049461D02*
X-45038690Y-42954223D01*
X-28299404Y50441013D02*
X-28299404Y49631490D01*
X-28299404Y49631490D02*
X-28251785Y49536252D01*
X-28251785Y49536252D02*
X-28204166Y49488633D01*
X-28204166Y49488633D02*
X-28108928Y49441013D01*
X-28108928Y49441013D02*
X-27918452Y49441013D01*
X-27918452Y49441013D02*
X-27823214Y49488633D01*
X-27823214Y49488633D02*
X-27775595Y49536252D01*
X-27775595Y49536252D02*
X-27727976Y49631490D01*
X-27727976Y49631490D02*
X-27727976Y50441013D01*
X-27299404Y50345775D02*
X-27251785Y50393394D01*
X-27251785Y50393394D02*
X-27156547Y50441013D01*
X-27156547Y50441013D02*
X-26918452Y50441013D01*
X-26918452Y50441013D02*
X-26823214Y50393394D01*
X-26823214Y50393394D02*
X-26775595Y50345775D01*
X-26775595Y50345775D02*
X-26727976Y50250537D01*
X-26727976Y50250537D02*
X-26727976Y50155299D01*
X-26727976Y50155299D02*
X-26775595Y50012442D01*
X-26775595Y50012442D02*
X-27347023Y49441013D01*
X-27347023Y49441013D02*
X-26727976Y49441013D01*
%TO.C,U4*%
D13*
X-14289166Y51005833D02*
X-13339166Y51005833D01*
X-14289166Y50055833D02*
X-14289166Y51005833D01*
X-14289166Y40785833D02*
X-14289166Y41735833D01*
X-13339166Y40785833D02*
X-14289166Y40785833D01*
X-5019166Y51005833D02*
X-4069166Y51005833D01*
X-4069166Y51005833D02*
X-4069166Y50055833D01*
X-4069166Y41735833D02*
X-4069166Y40785833D01*
X-4069166Y40785833D02*
X-5019166Y40785833D01*
X-14929166Y50055833D02*
X-15269166Y50525833D01*
X-14589166Y50525833D01*
X-14929166Y50055833D01*
G36*
X-14929166Y50055833D02*
G01*
X-15269166Y50525833D01*
X-14589166Y50525833D01*
X-14929166Y50055833D01*
G37*
%TO.C,U1*%
X-49495833Y49495833D02*
X-42295833Y49495833D01*
X-49495833Y42295833D02*
X-49495833Y49495833D01*
X-42295833Y49495833D02*
X-42295833Y42295833D01*
X-42295833Y42295833D02*
X-49495833Y42295833D01*
D14*
X-49758333Y49895833D02*
G75*
G02*
X-50033333Y49895833I-137500J0D01*
G01*
X-50033333Y49895833D02*
G75*
G02*
X-49758333Y49895833I137500J0D01*
G01*
%TO.C,U5*%
D13*
X7329166Y49305833D02*
X11089166Y49305833D01*
X7329166Y42485833D02*
X11089166Y42485833D01*
X11089166Y49305833D02*
X11089166Y48045833D01*
X11089166Y42485833D02*
X11089166Y43745833D01*
X6049166Y49205833D02*
X5809166Y49535833D01*
X6289166Y49535833D01*
X6049166Y49205833D01*
G36*
X6049166Y49205833D02*
G01*
X5809166Y49535833D01*
X6289166Y49535833D01*
X6049166Y49205833D01*
G37*
%TO.C,U6*%
X25687499Y49305833D02*
X29447499Y49305833D01*
X25687499Y42485833D02*
X29447499Y42485833D01*
X29447499Y49305833D02*
X29447499Y48045833D01*
X29447499Y42485833D02*
X29447499Y43745833D01*
X24407499Y49205833D02*
X24167499Y49535833D01*
X24647499Y49535833D01*
X24407499Y49205833D01*
G36*
X24407499Y49205833D02*
G01*
X24167499Y49535833D01*
X24647499Y49535833D01*
X24407499Y49205833D01*
G37*
%TO.C,U7*%
X44045833Y49305833D02*
X47805833Y49305833D01*
X44045833Y42485833D02*
X47805833Y42485833D01*
X47805833Y49305833D02*
X47805833Y48045833D01*
X47805833Y42485833D02*
X47805833Y43745833D01*
X42765833Y49205833D02*
X42525833Y49535833D01*
X43005833Y49535833D01*
X42765833Y49205833D01*
G36*
X42765833Y49205833D02*
G01*
X42525833Y49535833D01*
X43005833Y49535833D01*
X42765833Y49205833D01*
G37*
%TO.C,C10*%
X-27645336Y27897500D02*
X-27429664Y27897500D01*
X-27645336Y27177500D02*
X-27429664Y27177500D01*
%TO.C,C11*%
X-9287002Y27897500D02*
X-9071330Y27897500D01*
X-9287002Y27177500D02*
X-9071330Y27177500D01*
%TO.C,C12*%
X9071330Y27897500D02*
X9287002Y27897500D01*
X9071330Y27177500D02*
X9287002Y27177500D01*
%TO.C,C13*%
X27429663Y27897500D02*
X27645335Y27897500D01*
X27429663Y27177500D02*
X27645335Y27177500D01*
%TO.C,C14*%
X45787997Y27897500D02*
X46003669Y27897500D01*
X45787997Y27177500D02*
X46003669Y27177500D01*
%TO.C,C15*%
X-46003669Y9539166D02*
X-45787997Y9539166D01*
X-46003669Y8819166D02*
X-45787997Y8819166D01*
%TO.C,C1*%
X-46036413Y28047500D02*
X-45755253Y28047500D01*
X-46036413Y27027500D02*
X-45755253Y27027500D01*
%TO.C,C2*%
X-27678080Y9689166D02*
X-27396920Y9689166D01*
X-27678080Y8669166D02*
X-27396920Y8669166D01*
%TO.C,C3*%
X-9319746Y9689166D02*
X-9038586Y9689166D01*
X-9319746Y8669166D02*
X-9038586Y8669166D01*
%TO.C,C4*%
X9038586Y9689166D02*
X9319746Y9689166D01*
X9038586Y8669166D02*
X9319746Y8669166D01*
%TO.C,C5*%
X27396919Y9689166D02*
X27678079Y9689166D01*
X27396919Y8669166D02*
X27678079Y8669166D01*
%TO.C,C6*%
X45755253Y9689166D02*
X46036413Y9689166D01*
X45755253Y8669166D02*
X46036413Y8669166D01*
%TO.C,M3*%
X-47745833Y-26112499D02*
X-44045833Y-26112499D01*
X-47745833Y-28962499D02*
X-47745833Y-26112499D01*
X-44045833Y-26112499D02*
X-44045833Y-28962499D01*
X-44045833Y-28962499D02*
X-47745833Y-28962499D01*
D14*
X-48008333Y-25712499D02*
G75*
G02*
X-48283333Y-25712499I-137500J0D01*
G01*
X-48283333Y-25712499D02*
G75*
G02*
X-48008333Y-25712499I137500J0D01*
G01*
%TO.C,M4*%
D13*
X-29387500Y-26112499D02*
X-25687500Y-26112499D01*
X-29387500Y-28962499D02*
X-29387500Y-26112499D01*
X-25687500Y-26112499D02*
X-25687500Y-28962499D01*
X-25687500Y-28962499D02*
X-29387500Y-28962499D01*
D14*
X-29650000Y-25712499D02*
G75*
G02*
X-29925000Y-25712499I-137500J0D01*
G01*
X-29925000Y-25712499D02*
G75*
G02*
X-29650000Y-25712499I137500J0D01*
G01*
%TO.C,M1*%
D13*
X-47745833Y-7754166D02*
X-44045833Y-7754166D01*
X-47745833Y-10604166D02*
X-47745833Y-7754166D01*
X-44045833Y-7754166D02*
X-44045833Y-10604166D01*
X-44045833Y-10604166D02*
X-47745833Y-10604166D01*
D14*
X-48008333Y-7354166D02*
G75*
G02*
X-48283333Y-7354166I-137500J0D01*
G01*
X-48283333Y-7354166D02*
G75*
G02*
X-48008333Y-7354166I137500J0D01*
G01*
%TO.C,M10*%
D13*
X-29387500Y-7754166D02*
X-25687500Y-7754166D01*
X-29387500Y-10604166D02*
X-29387500Y-7754166D01*
X-25687500Y-7754166D02*
X-25687500Y-10604166D01*
X-25687500Y-10604166D02*
X-29387500Y-10604166D01*
D14*
X-29650000Y-7354166D02*
G75*
G02*
X-29925000Y-7354166I-137500J0D01*
G01*
X-29925000Y-7354166D02*
G75*
G02*
X-29650000Y-7354166I137500J0D01*
G01*
%TO.C,M11*%
D13*
X-11029166Y-7754166D02*
X-7329166Y-7754166D01*
X-11029166Y-10604166D02*
X-11029166Y-7754166D01*
X-7329166Y-7754166D02*
X-7329166Y-10604166D01*
X-7329166Y-10604166D02*
X-11029166Y-10604166D01*
D14*
X-11291666Y-7354166D02*
G75*
G02*
X-11566666Y-7354166I-137500J0D01*
G01*
X-11566666Y-7354166D02*
G75*
G02*
X-11291666Y-7354166I137500J0D01*
G01*
%TO.C,M12*%
D13*
X7329166Y-7754166D02*
X11029166Y-7754166D01*
X7329166Y-10604166D02*
X7329166Y-7754166D01*
X11029166Y-7754166D02*
X11029166Y-10604166D01*
X11029166Y-10604166D02*
X7329166Y-10604166D01*
D14*
X7066666Y-7354166D02*
G75*
G02*
X6791666Y-7354166I-137500J0D01*
G01*
X6791666Y-7354166D02*
G75*
G02*
X7066666Y-7354166I137500J0D01*
G01*
%TO.C,M13*%
D13*
X25687499Y-7754166D02*
X29387499Y-7754166D01*
X25687499Y-10604166D02*
X25687499Y-7754166D01*
X29387499Y-7754166D02*
X29387499Y-10604166D01*
X29387499Y-10604166D02*
X25687499Y-10604166D01*
D14*
X25424999Y-7354166D02*
G75*
G02*
X25149999Y-7354166I-137500J0D01*
G01*
X25149999Y-7354166D02*
G75*
G02*
X25424999Y-7354166I137500J0D01*
G01*
%TO.C,M2*%
D13*
X44045833Y-7754166D02*
X47745833Y-7754166D01*
X44045833Y-10604166D02*
X44045833Y-7754166D01*
X47745833Y-7754166D02*
X47745833Y-10604166D01*
X47745833Y-10604166D02*
X44045833Y-10604166D01*
D14*
X43783333Y-7354166D02*
G75*
G02*
X43508333Y-7354166I-137500J0D01*
G01*
X43508333Y-7354166D02*
G75*
G02*
X43783333Y-7354166I137500J0D01*
G01*
%TO.C,M5*%
D13*
X-11029166Y-26112499D02*
X-7329166Y-26112499D01*
X-11029166Y-28962499D02*
X-11029166Y-26112499D01*
X-7329166Y-26112499D02*
X-7329166Y-28962499D01*
X-7329166Y-28962499D02*
X-11029166Y-28962499D01*
D14*
X-11291666Y-25712499D02*
G75*
G02*
X-11566666Y-25712499I-137500J0D01*
G01*
X-11566666Y-25712499D02*
G75*
G02*
X-11291666Y-25712499I137500J0D01*
G01*
%TO.C,M6*%
D13*
X7329166Y-26112499D02*
X11029166Y-26112499D01*
X7329166Y-28962499D02*
X7329166Y-26112499D01*
X11029166Y-26112499D02*
X11029166Y-28962499D01*
X11029166Y-28962499D02*
X7329166Y-28962499D01*
D14*
X7066666Y-25712499D02*
G75*
G02*
X6791666Y-25712499I-137500J0D01*
G01*
X6791666Y-25712499D02*
G75*
G02*
X7066666Y-25712499I137500J0D01*
G01*
%TO.C,M7*%
D13*
X25687499Y-26112499D02*
X29387499Y-26112499D01*
X25687499Y-28962499D02*
X25687499Y-26112499D01*
X29387499Y-26112499D02*
X29387499Y-28962499D01*
X29387499Y-28962499D02*
X25687499Y-28962499D01*
D14*
X25424999Y-25712499D02*
G75*
G02*
X25149999Y-25712499I-137500J0D01*
G01*
X25149999Y-25712499D02*
G75*
G02*
X25424999Y-25712499I137500J0D01*
G01*
%TO.C,M8*%
D13*
X44045833Y-26112499D02*
X47745833Y-26112499D01*
X44045833Y-28962499D02*
X44045833Y-26112499D01*
X47745833Y-26112499D02*
X47745833Y-28962499D01*
X47745833Y-28962499D02*
X44045833Y-28962499D01*
D14*
X43783333Y-25712499D02*
G75*
G02*
X43508333Y-25712499I-137500J0D01*
G01*
X43508333Y-25712499D02*
G75*
G02*
X43783333Y-25712499I137500J0D01*
G01*
%TO.C,M9*%
D13*
X-47745833Y-44470833D02*
X-44045833Y-44470833D01*
X-47745833Y-47320833D02*
X-47745833Y-44470833D01*
X-44045833Y-44470833D02*
X-44045833Y-47320833D01*
X-44045833Y-47320833D02*
X-47745833Y-47320833D01*
D14*
X-48008333Y-44070833D02*
G75*
G02*
X-48283333Y-44070833I-137500J0D01*
G01*
X-48283333Y-44070833D02*
G75*
G02*
X-48008333Y-44070833I137500J0D01*
G01*
%TO.C,U2*%
D13*
X-30137500Y48495833D02*
X-24937500Y48495833D01*
X-30137500Y43295833D02*
X-30137500Y48495833D01*
X-24937500Y48495833D02*
X-24937500Y43295833D01*
X-24937500Y43295833D02*
X-30137500Y43295833D01*
D14*
X-30400000Y48895833D02*
G75*
G02*
X-30675000Y48895833I-137500J0D01*
G01*
X-30675000Y48895833D02*
G75*
G02*
X-30400000Y48895833I137500J0D01*
G01*
%TD*%
M02*
