%TF.GenerationSoftware,KiCad,Pcbnew,10.0.5*%
%TF.CreationDate,2026-08-04T17:47:35-07:00*%
%TF.ProjectId,palpod-halbach-controller-real,70616c70-6f64-42d6-9861-6c626163682d,A0*%
%TF.SameCoordinates,Original*%
%TF.FileFunction,Copper,L1,Top*%
%TF.FilePolarity,Positive*%
%FSLAX46Y46*%
G04 Gerber Fmt 4.6, Leading zero omitted, Abs format (unit mm)*
G04 Created by KiCad (PCBNEW 10.0.5) date 2026-08-04 17:47:35*
%MOMM*%
%LPD*%
G01*
G04 APERTURE LIST*
G04 Aperture macros list*
%AMRoundRect*
0 Rectangle with rounded corners*
0 $1 Rounding radius*
0 $2 $3 $4 $5 $6 $7 $8 $9 X,Y pos of 4 corners*
0 Add a 4 corners polygon primitive as box body*
4,1,4,$2,$3,$4,$5,$6,$7,$8,$9,$2,$3,0*
0 Add four circle primitives for the rounded corners*
1,1,$1+$1,$2,$3*
1,1,$1+$1,$4,$5*
1,1,$1+$1,$6,$7*
1,1,$1+$1,$8,$9*
0 Add four rect primitives between the rounded corners*
20,1,$1+$1,$2,$3,$4,$5,0*
20,1,$1+$1,$4,$5,$6,$7,0*
20,1,$1+$1,$6,$7,$8,$9,0*
20,1,$1+$1,$8,$9,$2,$3,0*%
G04 Aperture macros list end*
%TA.AperFunction,SMDPad,CuDef*%
%ADD10RoundRect,0.250000X-1.950000X-1.000000X1.950000X-1.000000X1.950000X1.000000X-1.950000X1.000000X0*%
%TD*%
%TA.AperFunction,SMDPad,CuDef*%
%ADD11RoundRect,0.075000X-0.075000X-0.225000X0.075000X-0.225000X0.075000X0.225000X-0.075000X0.225000X0*%
%TD*%
%TA.AperFunction,SMDPad,CuDef*%
%ADD12RoundRect,0.135000X-0.135000X-0.185000X0.135000X-0.185000X0.135000X0.185000X-0.135000X0.185000X0*%
%TD*%
%TA.AperFunction,SMDPad,CuDef*%
%ADD13RoundRect,0.500000X-0.500000X-0.750000X0.500000X-0.750000X0.500000X0.750000X-0.500000X0.750000X0*%
%TD*%
%TA.AperFunction,SMDPad,CuDef*%
%ADD14RoundRect,0.075000X-0.075000X-0.625000X0.075000X-0.625000X0.075000X0.625000X-0.075000X0.625000X0*%
%TD*%
%TA.AperFunction,SMDPad,CuDef*%
%ADD15RoundRect,0.250000X-0.362500X-1.425000X0.362500X-1.425000X0.362500X1.425000X-0.362500X1.425000X0*%
%TD*%
%TA.AperFunction,SMDPad,CuDef*%
%ADD16RoundRect,0.100000X-0.100000X-0.600000X0.100000X-0.600000X0.100000X0.600000X-0.100000X0.600000X0*%
%TD*%
%TA.AperFunction,SMDPad,CuDef*%
%ADD17RoundRect,0.375000X-0.375000X-0.375000X0.375000X-0.375000X0.375000X0.375000X-0.375000X0.375000X0*%
%TD*%
%TA.AperFunction,SMDPad,CuDef*%
%ADD18RoundRect,0.150000X-0.150000X-0.700000X0.150000X-0.700000X0.150000X0.700000X-0.150000X0.700000X0*%
%TD*%
%TA.AperFunction,SMDPad,CuDef*%
%ADD19RoundRect,0.140000X-0.140000X-0.170000X0.140000X-0.170000X0.140000X0.170000X-0.140000X0.170000X0*%
%TD*%
%TA.AperFunction,SMDPad,CuDef*%
%ADD20RoundRect,0.150000X-0.150000X-0.350000X0.150000X-0.350000X0.150000X0.350000X-0.150000X0.350000X0*%
%TD*%
%TA.AperFunction,ViaPad*%
%ADD21C,0.600000*%
%TD*%
%TA.AperFunction,ViaPad*%
%ADD22C,2.000000*%
%TD*%
%TA.AperFunction,Conductor*%
%ADD23C,0.500000*%
%TD*%
%TA.AperFunction,Conductor*%
%ADD24C,0.200000*%
%TD*%
%TA.AperFunction,Conductor*%
%ADD25C,5.000000*%
%TD*%
%TA.AperFunction,Conductor*%
%ADD26C,0.400600*%
%TD*%
G04 APERTURE END LIST*
D10*
%TO.P,C12,1*%
%TO.N,N/C*%
X120800000Y-96503500D03*
%TO.P,C12,2*%
X129200000Y-96503500D03*
%TD*%
%TO.P,C13,1*%
%TO.N,N/C*%
X190800000Y-100000000D03*
%TO.P,C13,2*%
X199200000Y-100000000D03*
%TD*%
%TO.P,C11,1*%
%TO.N,N/C*%
X44595200Y-100000000D03*
%TO.P,C11,2*%
X52995200Y-100000000D03*
%TD*%
D11*
%TO.P,U10,1*%
%TO.N,N/C*%
X112710000Y-106875000D03*
%TO.P,U10,2*%
%TO.N,+3V3*%
X112710000Y-107625000D03*
%TO.P,U10,3*%
%TO.N,N/C*%
X112710000Y-108375000D03*
%TO.P,U10,4*%
%TO.N,SPI_SCLK*%
X112710000Y-109125000D03*
%TO.P,U10,5*%
%TO.N,SPI_MOSI*%
X112875000Y-109080000D03*
%TO.P,U10,6*%
%TO.N,SPI_MISO*%
X113625000Y-109080000D03*
%TO.P,U10,7*%
%TO.N,N/C*%
X114375000Y-109080000D03*
%TO.P,U10,8*%
X115125000Y-109080000D03*
%TO.P,U10,9*%
%TO.N,CS_3*%
X115290000Y-109125000D03*
%TO.P,U10,10*%
%TO.N,N/C*%
X115290000Y-108375000D03*
%TO.P,U10,11*%
X115290000Y-107625000D03*
%TO.P,U10,12*%
X115290000Y-106875000D03*
%TO.P,U10,13*%
%TO.N,GND*%
X115125000Y-106920000D03*
%TO.P,U10,14*%
%TO.N,N/C*%
X114375000Y-106920000D03*
%TO.P,U10,15*%
X113625000Y-106920000D03*
%TO.P,U10,16*%
X112875000Y-106920000D03*
%TD*%
%TO.P,U12,1*%
%TO.N,N/C*%
X144710000Y-106875000D03*
%TO.P,U12,2*%
%TO.N,+3V3*%
X144710000Y-107625000D03*
%TO.P,U12,3*%
%TO.N,N/C*%
X144710000Y-108375000D03*
%TO.P,U12,4*%
%TO.N,SPI_SCLK*%
X144710000Y-109125000D03*
%TO.P,U12,5*%
%TO.N,SPI_MOSI*%
X144875000Y-109080000D03*
%TO.P,U12,6*%
%TO.N,SPI_MISO*%
X145625000Y-109080000D03*
%TO.P,U12,7*%
%TO.N,N/C*%
X146375000Y-109080000D03*
%TO.P,U12,8*%
X147125000Y-109080000D03*
%TO.P,U12,9*%
%TO.N,CS_5*%
X147290000Y-109125000D03*
%TO.P,U12,10*%
%TO.N,N/C*%
X147290000Y-108375000D03*
%TO.P,U12,11*%
X147290000Y-107625000D03*
%TO.P,U12,12*%
X147290000Y-106875000D03*
%TO.P,U12,13*%
%TO.N,GND*%
X147125000Y-106920000D03*
%TO.P,U12,14*%
%TO.N,N/C*%
X146375000Y-106920000D03*
%TO.P,U12,15*%
X145625000Y-106920000D03*
%TO.P,U12,16*%
X144875000Y-106920000D03*
%TD*%
%TO.P,U7,1*%
%TO.N,N/C*%
X64710000Y-106875000D03*
%TO.P,U7,2*%
%TO.N,+3V3*%
X64710000Y-107625000D03*
%TO.P,U7,3*%
%TO.N,N/C*%
X64710000Y-108375000D03*
%TO.P,U7,4*%
%TO.N,SPI_SCLK*%
X64710000Y-109125000D03*
%TO.P,U7,5*%
%TO.N,SPI_MOSI*%
X64875000Y-109080000D03*
%TO.P,U7,6*%
%TO.N,SPI_MISO*%
X65625000Y-109080000D03*
%TO.P,U7,7*%
%TO.N,N/C*%
X66375000Y-109080000D03*
%TO.P,U7,8*%
X67125000Y-109080000D03*
%TO.P,U7,9*%
%TO.N,CS_0*%
X67290000Y-109125000D03*
%TO.P,U7,10*%
%TO.N,N/C*%
X67290000Y-108375000D03*
%TO.P,U7,11*%
X67290000Y-107625000D03*
%TO.P,U7,12*%
X67290000Y-106875000D03*
%TO.P,U7,13*%
%TO.N,GND*%
X67125000Y-106920000D03*
%TO.P,U7,14*%
%TO.N,N/C*%
X66375000Y-106920000D03*
%TO.P,U7,15*%
X65625000Y-106920000D03*
%TO.P,U7,16*%
X64875000Y-106920000D03*
%TD*%
%TO.P,U11,1*%
%TO.N,N/C*%
X128710000Y-106875000D03*
%TO.P,U11,2*%
%TO.N,+3V3*%
X128710000Y-107625000D03*
%TO.P,U11,3*%
%TO.N,N/C*%
X128710000Y-108375000D03*
%TO.P,U11,4*%
%TO.N,SPI_SCLK*%
X128710000Y-109125000D03*
%TO.P,U11,5*%
%TO.N,SPI_MOSI*%
X128875000Y-109080000D03*
%TO.P,U11,6*%
%TO.N,SPI_MISO*%
X129625000Y-109080000D03*
%TO.P,U11,7*%
%TO.N,N/C*%
X130375000Y-109080000D03*
%TO.P,U11,8*%
X131125000Y-109080000D03*
%TO.P,U11,9*%
%TO.N,CS_4*%
X131290000Y-109125000D03*
%TO.P,U11,10*%
%TO.N,N/C*%
X131290000Y-108375000D03*
%TO.P,U11,11*%
X131290000Y-107625000D03*
%TO.P,U11,12*%
X131290000Y-106875000D03*
%TO.P,U11,13*%
%TO.N,GND*%
X131125000Y-106920000D03*
%TO.P,U11,14*%
%TO.N,N/C*%
X130375000Y-106920000D03*
%TO.P,U11,15*%
X129625000Y-106920000D03*
%TO.P,U11,16*%
X128875000Y-106920000D03*
%TD*%
%TO.P,U8,1*%
%TO.N,N/C*%
X80710000Y-106875000D03*
%TO.P,U8,2*%
%TO.N,+3V3*%
X80710000Y-107625000D03*
%TO.P,U8,3*%
%TO.N,N/C*%
X80710000Y-108375000D03*
%TO.P,U8,4*%
%TO.N,SPI_SCLK*%
X80710000Y-109125000D03*
%TO.P,U8,5*%
%TO.N,SPI_MOSI*%
X80875000Y-109080000D03*
%TO.P,U8,6*%
%TO.N,SPI_MISO*%
X81625000Y-109080000D03*
%TO.P,U8,7*%
%TO.N,N/C*%
X82375000Y-109080000D03*
%TO.P,U8,8*%
X83125000Y-109080000D03*
%TO.P,U8,9*%
%TO.N,CS_1*%
X83290000Y-109125000D03*
%TO.P,U8,10*%
%TO.N,N/C*%
X83290000Y-108375000D03*
%TO.P,U8,11*%
X83290000Y-107625000D03*
%TO.P,U8,12*%
X83290000Y-106875000D03*
%TO.P,U8,13*%
%TO.N,GND*%
X83125000Y-106920000D03*
%TO.P,U8,14*%
%TO.N,N/C*%
X82375000Y-106920000D03*
%TO.P,U8,15*%
X81625000Y-106920000D03*
%TO.P,U8,16*%
X80875000Y-106920000D03*
%TD*%
%TO.P,U9,1*%
%TO.N,N/C*%
X96710000Y-106875000D03*
%TO.P,U9,2*%
%TO.N,+3V3*%
X96710000Y-107625000D03*
%TO.P,U9,3*%
%TO.N,N/C*%
X96710000Y-108375000D03*
%TO.P,U9,4*%
%TO.N,SPI_SCLK*%
X96710000Y-109125000D03*
%TO.P,U9,5*%
%TO.N,SPI_MOSI*%
X96875000Y-109080000D03*
%TO.P,U9,6*%
%TO.N,SPI_MISO*%
X97625000Y-109080000D03*
%TO.P,U9,7*%
%TO.N,N/C*%
X98375000Y-109080000D03*
%TO.P,U9,8*%
X99125000Y-109080000D03*
%TO.P,U9,9*%
%TO.N,CS_2*%
X99290000Y-109125000D03*
%TO.P,U9,10*%
%TO.N,N/C*%
X99290000Y-108375000D03*
%TO.P,U9,11*%
X99290000Y-107625000D03*
%TO.P,U9,12*%
X99290000Y-106875000D03*
%TO.P,U9,13*%
%TO.N,GND*%
X99125000Y-106920000D03*
%TO.P,U9,14*%
%TO.N,N/C*%
X98375000Y-106920000D03*
%TO.P,U9,15*%
X97625000Y-106920000D03*
%TO.P,U9,16*%
X96875000Y-106920000D03*
%TD*%
D12*
%TO.P,R3,1*%
%TO.N,N/C*%
X67490000Y-101633500D03*
%TO.P,R3,2*%
X68510000Y-101633500D03*
%TD*%
%TO.P,R4,1*%
%TO.N,N/C*%
X72787600Y-105000000D03*
%TO.P,R4,2*%
X73807600Y-105000000D03*
%TD*%
%TO.P,R2,1*%
%TO.N,N/C*%
X63490000Y-101633500D03*
%TO.P,R2,2*%
X64510000Y-101633500D03*
%TD*%
%TO.P,R1,1*%
%TO.N,N/C*%
X58192400Y-105000000D03*
%TO.P,R1,2*%
X59212400Y-105000000D03*
%TD*%
%TO.P,R5,1*%
%TO.N,N/C*%
X74192400Y-105000000D03*
%TO.P,R5,2*%
X75212400Y-105000000D03*
%TD*%
D13*
%TO.P,Q4,1*%
%TO.N,COIL_1_LOW_A*%
X90400000Y-130000000D03*
%TO.P,Q4,2*%
%TO.N,PHASE_1*%
X90667000Y-132250000D03*
%TO.P,Q4,3*%
%TO.N,SHUNT_HI_1*%
X94000000Y-132250000D03*
%TD*%
%TO.P,Q5,1*%
%TO.N,COIL_2_HIGH_A*%
X112400000Y-118000000D03*
%TO.P,Q5,2*%
%TO.N,+48V*%
X112667000Y-120250000D03*
%TO.P,Q5,3*%
%TO.N,PHASE_2*%
X116000000Y-120250000D03*
%TD*%
%TO.P,Q6,1*%
%TO.N,COIL_2_LOW_A*%
X112400000Y-130000000D03*
%TO.P,Q6,2*%
%TO.N,PHASE_2*%
X112667000Y-132250000D03*
%TO.P,Q6,3*%
%TO.N,SHUNT_HI_2*%
X116000000Y-132250000D03*
%TD*%
%TO.P,Q2,1*%
%TO.N,COIL_0_LOW_A*%
X68400000Y-130000000D03*
%TO.P,Q2,2*%
%TO.N,PHASE_0*%
X68667000Y-132250000D03*
%TO.P,Q2,3*%
%TO.N,SHUNT_HI_0*%
X72000000Y-132250000D03*
%TD*%
%TO.P,Q3,1*%
%TO.N,COIL_1_HIGH_A*%
X90400000Y-118000000D03*
%TO.P,Q3,2*%
%TO.N,+48V*%
X90667000Y-120250000D03*
%TO.P,Q3,3*%
%TO.N,PHASE_1*%
X94000000Y-120250000D03*
%TD*%
%TO.P,Q7,1*%
%TO.N,COIL_3_HIGH_A*%
X134400000Y-118000000D03*
%TO.P,Q7,2*%
%TO.N,+48V*%
X134667000Y-120250000D03*
%TO.P,Q7,3*%
%TO.N,PHASE_3*%
X138000000Y-120250000D03*
%TD*%
%TO.P,Q8,1*%
%TO.N,COIL_3_LOW_A*%
X134400000Y-130000000D03*
%TO.P,Q8,2*%
%TO.N,PHASE_3*%
X134667000Y-132250000D03*
%TO.P,Q8,3*%
%TO.N,SHUNT_HI_3*%
X138000000Y-132250000D03*
%TD*%
%TO.P,Q10,1*%
%TO.N,COIL_4_LOW_A*%
X156400000Y-130000000D03*
%TO.P,Q10,2*%
%TO.N,PHASE_4*%
X156667000Y-132250000D03*
%TO.P,Q10,3*%
%TO.N,SHUNT_HI_4*%
X160000000Y-132250000D03*
%TD*%
%TO.P,Q1,1*%
%TO.N,COIL_0_HIGH_A*%
X68400000Y-118000000D03*
%TO.P,Q1,2*%
%TO.N,+48V*%
X68667000Y-120250000D03*
%TO.P,Q1,3*%
%TO.N,PHASE_0*%
X72000000Y-120250000D03*
%TD*%
%TO.P,Q11,1*%
%TO.N,COIL_5_HIGH_A*%
X178400000Y-118000000D03*
%TO.P,Q11,2*%
%TO.N,+48V*%
X178667000Y-120250000D03*
%TO.P,Q11,3*%
%TO.N,PHASE_5*%
X182000000Y-120250000D03*
%TD*%
%TO.P,Q12,1*%
%TO.N,COIL_5_LOW_A*%
X178400000Y-130000000D03*
%TO.P,Q12,2*%
%TO.N,PHASE_5*%
X178667000Y-132250000D03*
%TO.P,Q12,3*%
%TO.N,SHUNT_HI_5*%
X182000000Y-132250000D03*
%TD*%
%TO.P,Q9,1*%
%TO.N,COIL_4_HIGH_A*%
X156400000Y-118000000D03*
%TO.P,Q9,2*%
%TO.N,+48V*%
X156667000Y-120250000D03*
%TO.P,Q9,3*%
%TO.N,PHASE_4*%
X160000000Y-120250000D03*
%TD*%
D14*
%TO.P,U17,1*%
%TO.N,COIL_4_HIGH_A*%
X144160000Y-116271000D03*
%TO.P,U17,2*%
%TO.N,COIL_4_LOW_A*%
X144160000Y-117312000D03*
%TO.P,U17,3*%
%TO.N,COIL_4_HIGH_B*%
X144160000Y-118354000D03*
%TO.P,U17,4*%
%TO.N,COIL_4_LOW_B*%
X144160000Y-119396000D03*
%TO.P,U17,5*%
%TO.N,N/C*%
X144160000Y-120438000D03*
%TO.P,U17,6*%
X144160000Y-121479000D03*
%TO.P,U17,7*%
X144160000Y-122521000D03*
%TO.P,U17,8*%
%TO.N,OC_LATCH*%
X144160000Y-123563000D03*
%TO.P,U17,9*%
%TO.N,N/C*%
X144160000Y-124604000D03*
%TO.P,U17,10*%
X144160000Y-125646000D03*
%TO.P,U17,11*%
X144160000Y-126688000D03*
%TO.P,U17,12*%
X144160000Y-127729000D03*
%TO.P,U17,13*%
%TO.N,+3V3*%
X144204000Y-127270000D03*
%TO.P,U17,14*%
%TO.N,GND*%
X144713000Y-127270000D03*
%TO.P,U17,15*%
%TO.N,+3V3*%
X145221000Y-127270000D03*
%TO.P,U17,16*%
%TO.N,N/C*%
X145729000Y-127270000D03*
%TO.P,U17,17*%
X146237000Y-127270000D03*
%TO.P,U17,18*%
X146746000Y-127270000D03*
%TO.P,U17,19*%
X147254000Y-127270000D03*
%TO.P,U17,20*%
X147763000Y-127270000D03*
%TO.P,U17,21*%
X148271000Y-127270000D03*
%TO.P,U17,22*%
X148779000Y-127270000D03*
%TO.P,U17,23*%
X149287000Y-127270000D03*
%TO.P,U17,24*%
X149796000Y-127270000D03*
%TO.P,U17,25*%
%TO.N,COIL_4_HIGH_A*%
X149840000Y-127729000D03*
%TO.P,U17,26*%
%TO.N,PHASE_4*%
X149840000Y-126688000D03*
%TO.P,U17,27*%
%TO.N,COIL_4_LOW_A*%
X149840000Y-125646000D03*
%TO.P,U17,28*%
%TO.N,COIL_4_HIGH_B*%
X149840000Y-124604000D03*
%TO.P,U17,29*%
%TO.N,N/C*%
X149840000Y-123562000D03*
%TO.P,U17,30*%
%TO.N,COIL_4_LOW_B*%
X149840000Y-122521000D03*
%TO.P,U17,31*%
%TO.N,N/C*%
X149840000Y-121479000D03*
%TO.P,U17,32*%
X149840000Y-120437000D03*
%TO.P,U17,33*%
X149840000Y-119396000D03*
%TO.P,U17,34*%
X149840000Y-118354000D03*
%TO.P,U17,35*%
X149840000Y-117312000D03*
%TO.P,U17,36*%
X149840000Y-116271000D03*
%TO.P,U17,37*%
%TO.N,+48V*%
X149796000Y-116730000D03*
%TO.P,U17,38*%
%TO.N,+12V*%
X149287000Y-116730000D03*
%TO.P,U17,39*%
%TO.N,PGND*%
X148779000Y-116730000D03*
%TO.P,U17,40*%
%TO.N,N/C*%
X148271000Y-116730000D03*
%TO.P,U17,41*%
X147763000Y-116730000D03*
%TO.P,U17,42*%
X147254000Y-116730000D03*
%TO.P,U17,43*%
X146746000Y-116730000D03*
%TO.P,U17,44*%
X146237000Y-116730000D03*
%TO.P,U17,45*%
X145729000Y-116730000D03*
%TO.P,U17,46*%
X145221000Y-116730000D03*
%TO.P,U17,47*%
X144713000Y-116730000D03*
%TO.P,U17,48*%
X144204000Y-116730000D03*
%TD*%
%TO.P,U18,1*%
%TO.N,COIL_5_HIGH_A*%
X166160000Y-116271000D03*
%TO.P,U18,2*%
%TO.N,COIL_5_LOW_A*%
X166160000Y-117312000D03*
%TO.P,U18,3*%
%TO.N,COIL_5_HIGH_B*%
X166160000Y-118354000D03*
%TO.P,U18,4*%
%TO.N,COIL_5_LOW_B*%
X166160000Y-119396000D03*
%TO.P,U18,5*%
%TO.N,N/C*%
X166160000Y-120438000D03*
%TO.P,U18,6*%
X166160000Y-121479000D03*
%TO.P,U18,7*%
X166160000Y-122521000D03*
%TO.P,U18,8*%
%TO.N,OC_LATCH*%
X166160000Y-123563000D03*
%TO.P,U18,9*%
%TO.N,N/C*%
X166160000Y-124604000D03*
%TO.P,U18,10*%
X166160000Y-125646000D03*
%TO.P,U18,11*%
X166160000Y-126688000D03*
%TO.P,U18,12*%
X166160000Y-127729000D03*
%TO.P,U18,13*%
%TO.N,+3V3*%
X166204000Y-127270000D03*
%TO.P,U18,14*%
%TO.N,GND*%
X166713000Y-127270000D03*
%TO.P,U18,15*%
%TO.N,+3V3*%
X167221000Y-127270000D03*
%TO.P,U18,16*%
%TO.N,N/C*%
X167729000Y-127270000D03*
%TO.P,U18,17*%
X168237000Y-127270000D03*
%TO.P,U18,18*%
X168746000Y-127270000D03*
%TO.P,U18,19*%
X169254000Y-127270000D03*
%TO.P,U18,20*%
X169763000Y-127270000D03*
%TO.P,U18,21*%
X170271000Y-127270000D03*
%TO.P,U18,22*%
X170779000Y-127270000D03*
%TO.P,U18,23*%
X171287000Y-127270000D03*
%TO.P,U18,24*%
X171796000Y-127270000D03*
%TO.P,U18,25*%
%TO.N,COIL_5_HIGH_A*%
X171840000Y-127729000D03*
%TO.P,U18,26*%
%TO.N,PHASE_5*%
X171840000Y-126688000D03*
%TO.P,U18,27*%
%TO.N,COIL_5_LOW_A*%
X171840000Y-125646000D03*
%TO.P,U18,28*%
%TO.N,COIL_5_HIGH_B*%
X171840000Y-124604000D03*
%TO.P,U18,29*%
%TO.N,N/C*%
X171840000Y-123562000D03*
%TO.P,U18,30*%
%TO.N,COIL_5_LOW_B*%
X171840000Y-122521000D03*
%TO.P,U18,31*%
%TO.N,N/C*%
X171840000Y-121479000D03*
%TO.P,U18,32*%
X171840000Y-120437000D03*
%TO.P,U18,33*%
X171840000Y-119396000D03*
%TO.P,U18,34*%
X171840000Y-118354000D03*
%TO.P,U18,35*%
X171840000Y-117312000D03*
%TO.P,U18,36*%
X171840000Y-116271000D03*
%TO.P,U18,37*%
%TO.N,+48V*%
X171796000Y-116730000D03*
%TO.P,U18,38*%
%TO.N,+12V*%
X171287000Y-116730000D03*
%TO.P,U18,39*%
%TO.N,PGND*%
X170779000Y-116730000D03*
%TO.P,U18,40*%
%TO.N,N/C*%
X170271000Y-116730000D03*
%TO.P,U18,41*%
X169763000Y-116730000D03*
%TO.P,U18,42*%
X169254000Y-116730000D03*
%TO.P,U18,43*%
X168746000Y-116730000D03*
%TO.P,U18,44*%
X168237000Y-116730000D03*
%TO.P,U18,45*%
X167729000Y-116730000D03*
%TO.P,U18,46*%
X167221000Y-116730000D03*
%TO.P,U18,47*%
X166713000Y-116730000D03*
%TO.P,U18,48*%
X166204000Y-116730000D03*
%TD*%
%TO.P,U13,1*%
%TO.N,COIL_0_HIGH_A*%
X56160000Y-116271000D03*
%TO.P,U13,2*%
%TO.N,COIL_0_LOW_A*%
X56160000Y-117312000D03*
%TO.P,U13,3*%
%TO.N,COIL_0_HIGH_B*%
X56160000Y-118354000D03*
%TO.P,U13,4*%
%TO.N,COIL_0_LOW_B*%
X56160000Y-119396000D03*
%TO.P,U13,5*%
%TO.N,N/C*%
X56160000Y-120438000D03*
%TO.P,U13,6*%
X56160000Y-121479000D03*
%TO.P,U13,7*%
X56160000Y-122521000D03*
%TO.P,U13,8*%
%TO.N,OC_LATCH*%
X56160000Y-123563000D03*
%TO.P,U13,9*%
%TO.N,N/C*%
X56160000Y-124604000D03*
%TO.P,U13,10*%
X56160000Y-125646000D03*
%TO.P,U13,11*%
X56160000Y-126688000D03*
%TO.P,U13,12*%
X56160000Y-127729000D03*
%TO.P,U13,13*%
%TO.N,+3V3*%
X56204000Y-127270000D03*
%TO.P,U13,14*%
%TO.N,GND*%
X56713000Y-127270000D03*
%TO.P,U13,15*%
%TO.N,+3V3*%
X57221000Y-127270000D03*
%TO.P,U13,16*%
%TO.N,N/C*%
X57729000Y-127270000D03*
%TO.P,U13,17*%
X58237000Y-127270000D03*
%TO.P,U13,18*%
X58746000Y-127270000D03*
%TO.P,U13,19*%
X59254000Y-127270000D03*
%TO.P,U13,20*%
X59763000Y-127270000D03*
%TO.P,U13,21*%
X60271000Y-127270000D03*
%TO.P,U13,22*%
X60779000Y-127270000D03*
%TO.P,U13,23*%
X61287000Y-127270000D03*
%TO.P,U13,24*%
X61796000Y-127270000D03*
%TO.P,U13,25*%
%TO.N,COIL_0_HIGH_A*%
X61840000Y-127729000D03*
%TO.P,U13,26*%
%TO.N,PHASE_0*%
X61840000Y-126688000D03*
%TO.P,U13,27*%
%TO.N,COIL_0_LOW_A*%
X61840000Y-125646000D03*
%TO.P,U13,28*%
%TO.N,COIL_0_HIGH_B*%
X61840000Y-124604000D03*
%TO.P,U13,29*%
%TO.N,N/C*%
X61840000Y-123562000D03*
%TO.P,U13,30*%
%TO.N,COIL_0_LOW_B*%
X61840000Y-122521000D03*
%TO.P,U13,31*%
%TO.N,N/C*%
X61840000Y-121479000D03*
%TO.P,U13,32*%
X61840000Y-120437000D03*
%TO.P,U13,33*%
X61840000Y-119396000D03*
%TO.P,U13,34*%
X61840000Y-118354000D03*
%TO.P,U13,35*%
X61840000Y-117312000D03*
%TO.P,U13,36*%
X61840000Y-116271000D03*
%TO.P,U13,37*%
%TO.N,+48V*%
X61796000Y-116730000D03*
%TO.P,U13,38*%
%TO.N,+12V*%
X61287000Y-116730000D03*
%TO.P,U13,39*%
%TO.N,PGND*%
X60779000Y-116730000D03*
%TO.P,U13,40*%
%TO.N,N/C*%
X60271000Y-116730000D03*
%TO.P,U13,41*%
X59763000Y-116730000D03*
%TO.P,U13,42*%
X59254000Y-116730000D03*
%TO.P,U13,43*%
X58746000Y-116730000D03*
%TO.P,U13,44*%
X58237000Y-116730000D03*
%TO.P,U13,45*%
X57729000Y-116730000D03*
%TO.P,U13,46*%
X57221000Y-116730000D03*
%TO.P,U13,47*%
X56713000Y-116730000D03*
%TO.P,U13,48*%
X56204000Y-116730000D03*
%TD*%
%TO.P,U16,1*%
%TO.N,COIL_3_HIGH_A*%
X122160000Y-116271000D03*
%TO.P,U16,2*%
%TO.N,COIL_3_LOW_A*%
X122160000Y-117312000D03*
%TO.P,U16,3*%
%TO.N,COIL_3_HIGH_B*%
X122160000Y-118354000D03*
%TO.P,U16,4*%
%TO.N,COIL_3_LOW_B*%
X122160000Y-119396000D03*
%TO.P,U16,5*%
%TO.N,N/C*%
X122160000Y-120438000D03*
%TO.P,U16,6*%
X122160000Y-121479000D03*
%TO.P,U16,7*%
X122160000Y-122521000D03*
%TO.P,U16,8*%
%TO.N,OC_LATCH*%
X122160000Y-123563000D03*
%TO.P,U16,9*%
%TO.N,N/C*%
X122160000Y-124604000D03*
%TO.P,U16,10*%
X122160000Y-125646000D03*
%TO.P,U16,11*%
X122160000Y-126688000D03*
%TO.P,U16,12*%
X122160000Y-127729000D03*
%TO.P,U16,13*%
%TO.N,+3V3*%
X122204000Y-127270000D03*
%TO.P,U16,14*%
%TO.N,GND*%
X122713000Y-127270000D03*
%TO.P,U16,15*%
%TO.N,+3V3*%
X123221000Y-127270000D03*
%TO.P,U16,16*%
%TO.N,N/C*%
X123729000Y-127270000D03*
%TO.P,U16,17*%
X124237000Y-127270000D03*
%TO.P,U16,18*%
X124746000Y-127270000D03*
%TO.P,U16,19*%
X125254000Y-127270000D03*
%TO.P,U16,20*%
X125763000Y-127270000D03*
%TO.P,U16,21*%
X126271000Y-127270000D03*
%TO.P,U16,22*%
X126779000Y-127270000D03*
%TO.P,U16,23*%
X127287000Y-127270000D03*
%TO.P,U16,24*%
X127796000Y-127270000D03*
%TO.P,U16,25*%
%TO.N,COIL_3_HIGH_A*%
X127840000Y-127729000D03*
%TO.P,U16,26*%
%TO.N,PHASE_3*%
X127840000Y-126688000D03*
%TO.P,U16,27*%
%TO.N,COIL_3_LOW_A*%
X127840000Y-125646000D03*
%TO.P,U16,28*%
%TO.N,COIL_3_HIGH_B*%
X127840000Y-124604000D03*
%TO.P,U16,29*%
%TO.N,N/C*%
X127840000Y-123562000D03*
%TO.P,U16,30*%
%TO.N,COIL_3_LOW_B*%
X127840000Y-122521000D03*
%TO.P,U16,31*%
%TO.N,N/C*%
X127840000Y-121479000D03*
%TO.P,U16,32*%
X127840000Y-120437000D03*
%TO.P,U16,33*%
X127840000Y-119396000D03*
%TO.P,U16,34*%
X127840000Y-118354000D03*
%TO.P,U16,35*%
X127840000Y-117312000D03*
%TO.P,U16,36*%
X127840000Y-116271000D03*
%TO.P,U16,37*%
%TO.N,+48V*%
X127796000Y-116730000D03*
%TO.P,U16,38*%
%TO.N,+12V*%
X127287000Y-116730000D03*
%TO.P,U16,39*%
%TO.N,PGND*%
X126779000Y-116730000D03*
%TO.P,U16,40*%
%TO.N,N/C*%
X126271000Y-116730000D03*
%TO.P,U16,41*%
X125763000Y-116730000D03*
%TO.P,U16,42*%
X125254000Y-116730000D03*
%TO.P,U16,43*%
X124746000Y-116730000D03*
%TO.P,U16,44*%
X124237000Y-116730000D03*
%TO.P,U16,45*%
X123729000Y-116730000D03*
%TO.P,U16,46*%
X123221000Y-116730000D03*
%TO.P,U16,47*%
X122713000Y-116730000D03*
%TO.P,U16,48*%
X122204000Y-116730000D03*
%TD*%
%TO.P,U15,1*%
%TO.N,COIL_2_HIGH_A*%
X100160000Y-116271000D03*
%TO.P,U15,2*%
%TO.N,COIL_2_LOW_A*%
X100160000Y-117312000D03*
%TO.P,U15,3*%
%TO.N,COIL_2_HIGH_B*%
X100160000Y-118354000D03*
%TO.P,U15,4*%
%TO.N,COIL_2_LOW_B*%
X100160000Y-119396000D03*
%TO.P,U15,5*%
%TO.N,N/C*%
X100160000Y-120438000D03*
%TO.P,U15,6*%
X100160000Y-121479000D03*
%TO.P,U15,7*%
X100160000Y-122521000D03*
%TO.P,U15,8*%
%TO.N,OC_LATCH*%
X100160000Y-123563000D03*
%TO.P,U15,9*%
%TO.N,N/C*%
X100160000Y-124604000D03*
%TO.P,U15,10*%
X100160000Y-125646000D03*
%TO.P,U15,11*%
X100160000Y-126688000D03*
%TO.P,U15,12*%
X100160000Y-127729000D03*
%TO.P,U15,13*%
%TO.N,+3V3*%
X100204000Y-127270000D03*
%TO.P,U15,14*%
%TO.N,GND*%
X100713000Y-127270000D03*
%TO.P,U15,15*%
%TO.N,+3V3*%
X101221000Y-127270000D03*
%TO.P,U15,16*%
%TO.N,N/C*%
X101729000Y-127270000D03*
%TO.P,U15,17*%
X102237000Y-127270000D03*
%TO.P,U15,18*%
X102746000Y-127270000D03*
%TO.P,U15,19*%
X103254000Y-127270000D03*
%TO.P,U15,20*%
X103763000Y-127270000D03*
%TO.P,U15,21*%
X104271000Y-127270000D03*
%TO.P,U15,22*%
X104779000Y-127270000D03*
%TO.P,U15,23*%
X105287000Y-127270000D03*
%TO.P,U15,24*%
X105796000Y-127270000D03*
%TO.P,U15,25*%
%TO.N,COIL_2_HIGH_A*%
X105840000Y-127729000D03*
%TO.P,U15,26*%
%TO.N,PHASE_2*%
X105840000Y-126688000D03*
%TO.P,U15,27*%
%TO.N,COIL_2_LOW_A*%
X105840000Y-125646000D03*
%TO.P,U15,28*%
%TO.N,COIL_2_HIGH_B*%
X105840000Y-124604000D03*
%TO.P,U15,29*%
%TO.N,N/C*%
X105840000Y-123562000D03*
%TO.P,U15,30*%
%TO.N,COIL_2_LOW_B*%
X105840000Y-122521000D03*
%TO.P,U15,31*%
%TO.N,N/C*%
X105840000Y-121479000D03*
%TO.P,U15,32*%
X105840000Y-120437000D03*
%TO.P,U15,33*%
X105840000Y-119396000D03*
%TO.P,U15,34*%
X105840000Y-118354000D03*
%TO.P,U15,35*%
X105840000Y-117312000D03*
%TO.P,U15,36*%
X105840000Y-116271000D03*
%TO.P,U15,37*%
%TO.N,+48V*%
X105796000Y-116730000D03*
%TO.P,U15,38*%
%TO.N,+12V*%
X105287000Y-116730000D03*
%TO.P,U15,39*%
%TO.N,PGND*%
X104779000Y-116730000D03*
%TO.P,U15,40*%
%TO.N,N/C*%
X104271000Y-116730000D03*
%TO.P,U15,41*%
X103763000Y-116730000D03*
%TO.P,U15,42*%
X103254000Y-116730000D03*
%TO.P,U15,43*%
X102746000Y-116730000D03*
%TO.P,U15,44*%
X102237000Y-116730000D03*
%TO.P,U15,45*%
X101729000Y-116730000D03*
%TO.P,U15,46*%
X101221000Y-116730000D03*
%TO.P,U15,47*%
X100713000Y-116730000D03*
%TO.P,U15,48*%
X100204000Y-116730000D03*
%TD*%
%TO.P,U14,1*%
%TO.N,COIL_1_HIGH_A*%
X78160000Y-116271000D03*
%TO.P,U14,2*%
%TO.N,COIL_1_LOW_A*%
X78160000Y-117312000D03*
%TO.P,U14,3*%
%TO.N,COIL_1_HIGH_B*%
X78160000Y-118354000D03*
%TO.P,U14,4*%
%TO.N,COIL_1_LOW_B*%
X78160000Y-119396000D03*
%TO.P,U14,5*%
%TO.N,N/C*%
X78160000Y-120438000D03*
%TO.P,U14,6*%
X78160000Y-121479000D03*
%TO.P,U14,7*%
X78160000Y-122521000D03*
%TO.P,U14,8*%
%TO.N,OC_LATCH*%
X78160000Y-123563000D03*
%TO.P,U14,9*%
%TO.N,N/C*%
X78160000Y-124604000D03*
%TO.P,U14,10*%
X78160000Y-125646000D03*
%TO.P,U14,11*%
X78160000Y-126688000D03*
%TO.P,U14,12*%
X78160000Y-127729000D03*
%TO.P,U14,13*%
%TO.N,+3V3*%
X78204000Y-127270000D03*
%TO.P,U14,14*%
%TO.N,GND*%
X78713000Y-127270000D03*
%TO.P,U14,15*%
%TO.N,+3V3*%
X79221000Y-127270000D03*
%TO.P,U14,16*%
%TO.N,N/C*%
X79729000Y-127270000D03*
%TO.P,U14,17*%
X80237000Y-127270000D03*
%TO.P,U14,18*%
X80746000Y-127270000D03*
%TO.P,U14,19*%
X81254000Y-127270000D03*
%TO.P,U14,20*%
X81763000Y-127270000D03*
%TO.P,U14,21*%
X82271000Y-127270000D03*
%TO.P,U14,22*%
X82779000Y-127270000D03*
%TO.P,U14,23*%
X83287000Y-127270000D03*
%TO.P,U14,24*%
X83796000Y-127270000D03*
%TO.P,U14,25*%
%TO.N,COIL_1_HIGH_A*%
X83840000Y-127729000D03*
%TO.P,U14,26*%
%TO.N,PHASE_1*%
X83840000Y-126688000D03*
%TO.P,U14,27*%
%TO.N,COIL_1_LOW_A*%
X83840000Y-125646000D03*
%TO.P,U14,28*%
%TO.N,COIL_1_HIGH_B*%
X83840000Y-124604000D03*
%TO.P,U14,29*%
%TO.N,N/C*%
X83840000Y-123562000D03*
%TO.P,U14,30*%
%TO.N,COIL_1_LOW_B*%
X83840000Y-122521000D03*
%TO.P,U14,31*%
%TO.N,N/C*%
X83840000Y-121479000D03*
%TO.P,U14,32*%
X83840000Y-120437000D03*
%TO.P,U14,33*%
X83840000Y-119396000D03*
%TO.P,U14,34*%
X83840000Y-118354000D03*
%TO.P,U14,35*%
X83840000Y-117312000D03*
%TO.P,U14,36*%
X83840000Y-116271000D03*
%TO.P,U14,37*%
%TO.N,+48V*%
X83796000Y-116730000D03*
%TO.P,U14,38*%
%TO.N,+12V*%
X83287000Y-116730000D03*
%TO.P,U14,39*%
%TO.N,PGND*%
X82779000Y-116730000D03*
%TO.P,U14,40*%
%TO.N,N/C*%
X82271000Y-116730000D03*
%TO.P,U14,41*%
X81763000Y-116730000D03*
%TO.P,U14,42*%
X81254000Y-116730000D03*
%TO.P,U14,43*%
X80746000Y-116730000D03*
%TO.P,U14,44*%
X80237000Y-116730000D03*
%TO.P,U14,45*%
X79729000Y-116730000D03*
%TO.P,U14,46*%
X79221000Y-116730000D03*
%TO.P,U14,47*%
X78713000Y-116730000D03*
%TO.P,U14,48*%
X78204000Y-116730000D03*
%TD*%
D15*
%TO.P,R11,1*%
%TO.N,SHUNT_HI_5*%
X179037500Y-140326500D03*
%TO.P,R11,2*%
%TO.N,PGND*%
X184962500Y-140326500D03*
%TD*%
%TO.P,R10,1*%
%TO.N,SHUNT_HI_4*%
X157037500Y-140326500D03*
%TO.P,R10,2*%
%TO.N,PGND*%
X162962500Y-140326500D03*
%TD*%
%TO.P,R8,1*%
%TO.N,SHUNT_HI_2*%
X113037500Y-140326500D03*
%TO.P,R8,2*%
%TO.N,PGND*%
X118962500Y-140326500D03*
%TD*%
%TO.P,R9,1*%
%TO.N,SHUNT_HI_3*%
X135037500Y-140326500D03*
%TO.P,R9,2*%
%TO.N,PGND*%
X140962500Y-140326500D03*
%TD*%
%TO.P,R6,1*%
%TO.N,SHUNT_HI_0*%
X69037500Y-140326500D03*
%TO.P,R6,2*%
%TO.N,PGND*%
X74962500Y-140326500D03*
%TD*%
%TO.P,R7,1*%
%TO.N,SHUNT_HI_1*%
X91037500Y-140326500D03*
%TO.P,R7,2*%
%TO.N,PGND*%
X96962500Y-140326500D03*
%TD*%
D16*
%TO.P,U6,1*%
%TO.N,N/C*%
X121780000Y-68938000D03*
%TO.P,U6,2*%
X121780000Y-69812000D03*
%TO.P,U6,3*%
X121780000Y-70688000D03*
%TO.P,U6,4*%
X121780000Y-71562000D03*
%TO.P,U6,5*%
X121780000Y-72438000D03*
%TO.P,U6,6*%
X121780000Y-73312000D03*
%TO.P,U6,7*%
X121780000Y-74188000D03*
%TO.P,U6,8*%
X121780000Y-75062000D03*
%TO.P,U6,9*%
X121938000Y-74520000D03*
%TO.P,U6,10*%
X122812000Y-74520000D03*
%TO.P,U6,11*%
X123688000Y-74520000D03*
%TO.P,U6,12*%
X124562000Y-74520000D03*
%TO.P,U6,13*%
X125438000Y-74520000D03*
%TO.P,U6,14*%
X126312000Y-74520000D03*
%TO.P,U6,15*%
X127188000Y-74520000D03*
%TO.P,U6,16*%
X128062000Y-74520000D03*
%TO.P,U6,17*%
X128220000Y-75062000D03*
%TO.P,U6,18*%
X128220000Y-74188000D03*
%TO.P,U6,19*%
X128220000Y-73312000D03*
%TO.P,U6,20*%
X128220000Y-72438000D03*
%TO.P,U6,21*%
X128220000Y-71562000D03*
%TO.P,U6,22*%
X128220000Y-70688000D03*
%TO.P,U6,23*%
X128220000Y-69812000D03*
%TO.P,U6,24*%
X128220000Y-68938000D03*
%TO.P,U6,25*%
X128062000Y-69480000D03*
%TO.P,U6,26*%
%TO.N,+3V3*%
X127188000Y-69480000D03*
%TO.P,U6,27*%
%TO.N,GND*%
X126312000Y-69480000D03*
%TO.P,U6,28*%
%TO.N,+3V3*%
X125438000Y-69480000D03*
%TO.P,U6,29*%
%TO.N,N/C*%
X124562000Y-69480000D03*
%TO.P,U6,30*%
X123688000Y-69480000D03*
%TO.P,U6,31*%
X122812000Y-69480000D03*
%TO.P,U6,32*%
X121938000Y-69480000D03*
%TD*%
D17*
%TO.P,U31,1*%
%TO.N,+48V*%
X58050000Y-85500000D03*
%TO.P,U31,2*%
%TO.N,N/C*%
X58050000Y-88500000D03*
%TO.P,U31,3*%
X58050000Y-91500000D03*
%TO.P,U31,4*%
X58050000Y-94500000D03*
%TD*%
D18*
%TO.P,U3,1*%
%TO.N,ESTOP_LATCH*%
X58470000Y-60775000D03*
%TO.P,U3,2*%
%TO.N,MCU_RESET*%
X58470000Y-63225000D03*
%TO.P,U3,3*%
%TO.N,WDT_OUT*%
X58538000Y-63260000D03*
%TO.P,U3,4*%
%TO.N,WDOG_KICK*%
X59512000Y-63260000D03*
%TO.P,U3,5*%
%TO.N,N/C*%
X60488000Y-63260000D03*
%TO.P,U3,6*%
X61463000Y-63260000D03*
%TO.P,U3,7*%
%TO.N,+5V*%
X61530000Y-63225000D03*
%TO.P,U3,8*%
%TO.N,GND*%
X61530000Y-60775000D03*
%TD*%
%TO.P,U5,1*%
%TO.N,CAN_TX*%
X123470000Y-58775000D03*
%TO.P,U5,2*%
%TO.N,GND*%
X123470000Y-61225000D03*
%TO.P,U5,3*%
%TO.N,+5V*%
X123538000Y-61260000D03*
%TO.P,U5,4*%
%TO.N,CAN_RX*%
X124512000Y-61260000D03*
%TO.P,U5,5*%
%TO.N,+3V3*%
X125488000Y-61260000D03*
%TO.P,U5,6*%
%TO.N,CANL*%
X126463000Y-61260000D03*
%TO.P,U5,7*%
%TO.N,CANH*%
X126530000Y-61225000D03*
%TO.P,U5,8*%
%TO.N,N/C*%
X126530000Y-58775000D03*
%TD*%
D19*
%TO.P,C10,1*%
%TO.N,N/C*%
X189520000Y-68000000D03*
%TO.P,C10,2*%
X190480000Y-68000000D03*
%TD*%
%TO.P,C1,1*%
%TO.N,N/C*%
X77520000Y-78000000D03*
%TO.P,C1,2*%
X78480000Y-78000000D03*
%TD*%
%TO.P,C3,1*%
%TO.N,N/C*%
X91520000Y-78000000D03*
%TO.P,C3,2*%
X92480000Y-78000000D03*
%TD*%
%TO.P,C2,1*%
%TO.N,N/C*%
X84520000Y-78000000D03*
%TO.P,C2,2*%
X85480000Y-78000000D03*
%TD*%
%TO.P,C7,1*%
%TO.N,N/C*%
X124520000Y-80356500D03*
%TO.P,C7,2*%
X125480000Y-80356500D03*
%TD*%
%TO.P,C8,1*%
%TO.N,N/C*%
X124520000Y-67306500D03*
%TO.P,C8,2*%
X125480000Y-67306500D03*
%TD*%
%TO.P,C9,1*%
%TO.N,N/C*%
X59520000Y-69306500D03*
%TO.P,C9,2*%
X60480000Y-69306500D03*
%TD*%
%TO.P,C5,1*%
%TO.N,N/C*%
X164520000Y-78000000D03*
%TO.P,C5,2*%
X165480000Y-78000000D03*
%TD*%
%TO.P,C6,1*%
%TO.N,N/C*%
X171520000Y-78000000D03*
%TO.P,C6,2*%
X172480000Y-78000000D03*
%TD*%
%TO.P,C4,1*%
%TO.N,N/C*%
X157520000Y-78000000D03*
%TO.P,C4,2*%
X158480000Y-78000000D03*
%TD*%
D20*
%TO.P,U4,1*%
%TO.N,OC_LATCH*%
X189020000Y-59275000D03*
%TO.P,U4,2*%
%TO.N,GND*%
X189020000Y-60725000D03*
%TO.P,U4,3*%
%TO.N,OCP_REF*%
X189067000Y-60750000D03*
%TO.P,U4,4*%
%TO.N,OCP_SUM*%
X190000000Y-60750000D03*
%TO.P,U4,5*%
%TO.N,+12V*%
X190933000Y-60750000D03*
%TD*%
D14*
%TO.P,U1,1*%
%TO.N,ISENSE_0*%
X75710000Y-86875000D03*
%TO.P,U1,2*%
%TO.N,ISENSE_1*%
X75710000Y-87625000D03*
%TO.P,U1,3*%
%TO.N,ISENSE_2*%
X75710000Y-88375000D03*
%TO.P,U1,4*%
%TO.N,ISENSE_3*%
X75710000Y-89125000D03*
%TO.P,U1,5*%
%TO.N,ISENSE_4*%
X75764000Y-88520000D03*
%TO.P,U1,6*%
%TO.N,ISENSE_5*%
X76292000Y-88520000D03*
%TO.P,U1,7*%
%TO.N,N/C*%
X76819000Y-88520000D03*
%TO.P,U1,8*%
X77347000Y-88520000D03*
%TO.P,U1,9*%
X77875000Y-88520000D03*
%TO.P,U1,10*%
X78403000Y-88520000D03*
%TO.P,U1,11*%
X78931000Y-88520000D03*
%TO.P,U1,12*%
X79458000Y-88520000D03*
%TO.P,U1,13*%
X79986000Y-88520000D03*
%TO.P,U1,14*%
X80514000Y-88520000D03*
%TO.P,U1,15*%
X81042000Y-88520000D03*
%TO.P,U1,16*%
X81569000Y-88520000D03*
%TO.P,U1,17*%
X82097000Y-88520000D03*
%TO.P,U1,18*%
X82625000Y-88520000D03*
%TO.P,U1,19*%
X83153000Y-88520000D03*
%TO.P,U1,20*%
X83681000Y-88520000D03*
%TO.P,U1,21*%
X84208000Y-88520000D03*
%TO.P,U1,22*%
X84736000Y-88520000D03*
%TO.P,U1,23*%
X85264000Y-88520000D03*
%TO.P,U1,24*%
X85792000Y-88520000D03*
%TO.P,U1,25*%
X86319000Y-88520000D03*
%TO.P,U1,26*%
X86847000Y-88520000D03*
%TO.P,U1,27*%
X87375000Y-88520000D03*
%TO.P,U1,28*%
X87903000Y-88520000D03*
%TO.P,U1,29*%
X88431000Y-88520000D03*
%TO.P,U1,30*%
X88958000Y-88520000D03*
%TO.P,U1,31*%
X89486000Y-88520000D03*
%TO.P,U1,32*%
X90014000Y-88520000D03*
%TO.P,U1,33*%
%TO.N,CAN_RX*%
X90542000Y-88520000D03*
%TO.P,U1,34*%
%TO.N,N/C*%
X91069000Y-88520000D03*
%TO.P,U1,35*%
X91597000Y-88520000D03*
%TO.P,U1,36*%
X92125000Y-88520000D03*
%TO.P,U1,37*%
X92653000Y-88520000D03*
%TO.P,U1,38*%
X93181000Y-88520000D03*
%TO.P,U1,39*%
X93708000Y-88520000D03*
%TO.P,U1,40*%
X94236000Y-88520000D03*
%TO.P,U1,41*%
X94290000Y-89125000D03*
%TO.P,U1,42*%
X94290000Y-88375000D03*
%TO.P,U1,43*%
X94290000Y-87625000D03*
%TO.P,U1,44*%
X94290000Y-86875000D03*
%TO.P,U1,45*%
X94236000Y-87480000D03*
%TO.P,U1,46*%
X93708000Y-87480000D03*
%TO.P,U1,47*%
X93181000Y-87480000D03*
%TO.P,U1,48*%
X92653000Y-87480000D03*
%TO.P,U1,49*%
%TO.N,CS_0*%
X92125000Y-87480000D03*
%TO.P,U1,50*%
%TO.N,CS_1*%
X91597000Y-87480000D03*
%TO.P,U1,51*%
%TO.N,CS_2*%
X91069000Y-87480000D03*
%TO.P,U1,52*%
%TO.N,CS_3*%
X90542000Y-87480000D03*
%TO.P,U1,53*%
%TO.N,CS_4*%
X90014000Y-87480000D03*
%TO.P,U1,54*%
%TO.N,CS_5*%
X89486000Y-87480000D03*
%TO.P,U1,55*%
%TO.N,SPI_SCLK*%
X88958000Y-87480000D03*
%TO.P,U1,56*%
%TO.N,SPI_MOSI*%
X88431000Y-87480000D03*
%TO.P,U1,57*%
%TO.N,SPI_MISO*%
X87903000Y-87480000D03*
%TO.P,U1,58*%
%TO.N,OC_LATCH*%
X87375000Y-87480000D03*
%TO.P,U1,59*%
%TO.N,WDOG_KICK*%
X86847000Y-87480000D03*
%TO.P,U1,60*%
%TO.N,LOCKSTEP_A*%
X86319000Y-87480000D03*
%TO.P,U1,61*%
%TO.N,LOCKSTEP_B*%
X85792000Y-87480000D03*
%TO.P,U1,62*%
%TO.N,ESTOP_LATCH*%
X85264000Y-87480000D03*
%TO.P,U1,63*%
%TO.N,WDT_OUT*%
X84736000Y-87480000D03*
%TO.P,U1,64*%
%TO.N,CAN_TX*%
X84208000Y-87480000D03*
%TO.P,U1,65*%
%TO.N,COIL_0_HIGH_A*%
X83681000Y-87480000D03*
%TO.P,U1,66*%
%TO.N,COIL_1_HIGH_A*%
X83153000Y-87480000D03*
%TO.P,U1,67*%
%TO.N,COIL_2_HIGH_A*%
X82625000Y-87480000D03*
%TO.P,U1,68*%
%TO.N,COIL_3_HIGH_A*%
X82097000Y-87480000D03*
%TO.P,U1,69*%
%TO.N,COIL_4_HIGH_A*%
X81569000Y-87480000D03*
%TO.P,U1,70*%
%TO.N,COIL_5_HIGH_A*%
X81042000Y-87480000D03*
%TO.P,U1,71*%
%TO.N,COIL_0_LOW_A*%
X80514000Y-87480000D03*
%TO.P,U1,72*%
%TO.N,COIL_1_LOW_A*%
X79986000Y-87480000D03*
%TO.P,U1,73*%
%TO.N,COIL_2_LOW_A*%
X79458000Y-87480000D03*
%TO.P,U1,74*%
%TO.N,COIL_3_LOW_A*%
X78931000Y-87480000D03*
%TO.P,U1,75*%
%TO.N,COIL_4_LOW_A*%
X78403000Y-87480000D03*
%TO.P,U1,76*%
%TO.N,COIL_5_LOW_A*%
X77875000Y-87480000D03*
%TO.P,U1,77*%
%TO.N,N/C*%
X77347000Y-87480000D03*
%TO.P,U1,78*%
X76819000Y-87480000D03*
%TO.P,U1,79*%
X76292000Y-87480000D03*
%TO.P,U1,80*%
X75764000Y-87480000D03*
%TD*%
%TO.P,U2,1*%
%TO.N,N/C*%
X155710000Y-86875000D03*
%TO.P,U2,2*%
X155710000Y-87625000D03*
%TO.P,U2,3*%
X155710000Y-88375000D03*
%TO.P,U2,4*%
X155710000Y-89125000D03*
%TO.P,U2,5*%
X155764000Y-88520000D03*
%TO.P,U2,6*%
X156292000Y-88520000D03*
%TO.P,U2,7*%
X156819000Y-88520000D03*
%TO.P,U2,8*%
X157347000Y-88520000D03*
%TO.P,U2,9*%
X157875000Y-88520000D03*
%TO.P,U2,10*%
X158403000Y-88520000D03*
%TO.P,U2,11*%
X158931000Y-88520000D03*
%TO.P,U2,12*%
X159458000Y-88520000D03*
%TO.P,U2,13*%
X159986000Y-88520000D03*
%TO.P,U2,14*%
X160514000Y-88520000D03*
%TO.P,U2,15*%
X161042000Y-88520000D03*
%TO.P,U2,16*%
X161569000Y-88520000D03*
%TO.P,U2,17*%
X162097000Y-88520000D03*
%TO.P,U2,18*%
X162625000Y-88520000D03*
%TO.P,U2,19*%
X163153000Y-88520000D03*
%TO.P,U2,20*%
X163681000Y-88520000D03*
%TO.P,U2,21*%
X164208000Y-88520000D03*
%TO.P,U2,22*%
X164736000Y-88520000D03*
%TO.P,U2,23*%
X165264000Y-88520000D03*
%TO.P,U2,24*%
X165792000Y-88520000D03*
%TO.P,U2,25*%
X166319000Y-88520000D03*
%TO.P,U2,26*%
X166847000Y-88520000D03*
%TO.P,U2,27*%
X167375000Y-88520000D03*
%TO.P,U2,28*%
X167903000Y-88520000D03*
%TO.P,U2,29*%
X168431000Y-88520000D03*
%TO.P,U2,30*%
X168958000Y-88520000D03*
%TO.P,U2,31*%
X169486000Y-88520000D03*
%TO.P,U2,32*%
X170014000Y-88520000D03*
%TO.P,U2,33*%
X170542000Y-88520000D03*
%TO.P,U2,34*%
X171069000Y-88520000D03*
%TO.P,U2,35*%
X171597000Y-88520000D03*
%TO.P,U2,36*%
X172125000Y-88520000D03*
%TO.P,U2,37*%
X172653000Y-88520000D03*
%TO.P,U2,38*%
X173181000Y-88520000D03*
%TO.P,U2,39*%
X173708000Y-88520000D03*
%TO.P,U2,40*%
X174236000Y-88520000D03*
%TO.P,U2,41*%
X174290000Y-89125000D03*
%TO.P,U2,42*%
X174290000Y-88375000D03*
%TO.P,U2,43*%
X174290000Y-87625000D03*
%TO.P,U2,44*%
X174290000Y-86875000D03*
%TO.P,U2,45*%
X174236000Y-87480000D03*
%TO.P,U2,46*%
X173708000Y-87480000D03*
%TO.P,U2,47*%
X173181000Y-87480000D03*
%TO.P,U2,48*%
X172653000Y-87480000D03*
%TO.P,U2,49*%
X172125000Y-87480000D03*
%TO.P,U2,50*%
X171597000Y-87480000D03*
%TO.P,U2,51*%
X171069000Y-87480000D03*
%TO.P,U2,52*%
X170542000Y-87480000D03*
%TO.P,U2,53*%
X170014000Y-87480000D03*
%TO.P,U2,54*%
X169486000Y-87480000D03*
%TO.P,U2,55*%
X168958000Y-87480000D03*
%TO.P,U2,56*%
X168431000Y-87480000D03*
%TO.P,U2,57*%
X167903000Y-87480000D03*
%TO.P,U2,58*%
%TO.N,OC_LATCH*%
X167375000Y-87480000D03*
%TO.P,U2,59*%
%TO.N,WDOG_KICK*%
X166847000Y-87480000D03*
%TO.P,U2,60*%
%TO.N,LOCKSTEP_A*%
X166319000Y-87480000D03*
%TO.P,U2,61*%
%TO.N,LOCKSTEP_B*%
X165792000Y-87480000D03*
%TO.P,U2,62*%
%TO.N,ESTOP_LATCH*%
X165264000Y-87480000D03*
%TO.P,U2,63*%
%TO.N,WDT_OUT*%
X164736000Y-87480000D03*
%TO.P,U2,64*%
%TO.N,N/C*%
X164208000Y-87480000D03*
%TO.P,U2,65*%
%TO.N,COIL_0_HIGH_B*%
X163681000Y-87480000D03*
%TO.P,U2,66*%
%TO.N,COIL_1_HIGH_B*%
X163153000Y-87480000D03*
%TO.P,U2,67*%
%TO.N,COIL_2_HIGH_B*%
X162625000Y-87480000D03*
%TO.P,U2,68*%
%TO.N,COIL_3_HIGH_B*%
X162097000Y-87480000D03*
%TO.P,U2,69*%
%TO.N,COIL_4_HIGH_B*%
X161569000Y-87480000D03*
%TO.P,U2,70*%
%TO.N,COIL_5_HIGH_B*%
X161042000Y-87480000D03*
%TO.P,U2,71*%
%TO.N,COIL_0_LOW_B*%
X160514000Y-87480000D03*
%TO.P,U2,72*%
%TO.N,COIL_1_LOW_B*%
X159986000Y-87480000D03*
%TO.P,U2,73*%
%TO.N,COIL_2_LOW_B*%
X159458000Y-87480000D03*
%TO.P,U2,74*%
%TO.N,COIL_3_LOW_B*%
X158931000Y-87480000D03*
%TO.P,U2,75*%
%TO.N,COIL_4_LOW_B*%
X158403000Y-87480000D03*
%TO.P,U2,76*%
%TO.N,COIL_5_LOW_B*%
X157875000Y-87480000D03*
%TO.P,U2,77*%
%TO.N,N/C*%
X157347000Y-87480000D03*
%TO.P,U2,78*%
X156819000Y-87480000D03*
%TO.P,U2,79*%
X156292000Y-87480000D03*
%TO.P,U2,80*%
X155764000Y-87480000D03*
%TD*%
D16*
%TO.P,U26,1*%
%TO.N,GNDA*%
X79080000Y-137250000D03*
%TO.P,U26,2*%
%TO.N,PGND*%
X79080000Y-138750000D03*
%TO.P,U26,3*%
%TO.N,SHUNT_HI_1*%
X79350000Y-138520000D03*
%TO.P,U26,4*%
%TO.N,GND*%
X80450000Y-138520000D03*
%TO.P,U26,5*%
%TO.N,GNDA*%
X81550000Y-138520000D03*
%TO.P,U26,6*%
%TO.N,ISENSE_1*%
X82650000Y-138520000D03*
%TO.P,U26,7*%
%TO.N,OCP_SUM*%
X82920000Y-138750000D03*
%TO.P,U26,8*%
%TO.N,+5V*%
X82920000Y-137250000D03*
%TD*%
%TO.P,U27,1*%
%TO.N,GNDA*%
X101080000Y-137250000D03*
%TO.P,U27,2*%
%TO.N,PGND*%
X101080000Y-138750000D03*
%TO.P,U27,3*%
%TO.N,SHUNT_HI_2*%
X101350000Y-138520000D03*
%TO.P,U27,4*%
%TO.N,GND*%
X102450000Y-138520000D03*
%TO.P,U27,5*%
%TO.N,GNDA*%
X103550000Y-138520000D03*
%TO.P,U27,6*%
%TO.N,ISENSE_2*%
X104650000Y-138520000D03*
%TO.P,U27,7*%
%TO.N,OCP_SUM*%
X104920000Y-138750000D03*
%TO.P,U27,8*%
%TO.N,+5V*%
X104920000Y-137250000D03*
%TD*%
%TO.P,U28,1*%
%TO.N,GNDA*%
X123080000Y-137250000D03*
%TO.P,U28,2*%
%TO.N,PGND*%
X123080000Y-138750000D03*
%TO.P,U28,3*%
%TO.N,SHUNT_HI_3*%
X123350000Y-138520000D03*
%TO.P,U28,4*%
%TO.N,GND*%
X124450000Y-138520000D03*
%TO.P,U28,5*%
%TO.N,GNDA*%
X125550000Y-138520000D03*
%TO.P,U28,6*%
%TO.N,ISENSE_3*%
X126650000Y-138520000D03*
%TO.P,U28,7*%
%TO.N,OCP_SUM*%
X126920000Y-138750000D03*
%TO.P,U28,8*%
%TO.N,+5V*%
X126920000Y-137250000D03*
%TD*%
%TO.P,U25,1*%
%TO.N,GNDA*%
X57080000Y-137250000D03*
%TO.P,U25,2*%
%TO.N,PGND*%
X57080000Y-138750000D03*
%TO.P,U25,3*%
%TO.N,SHUNT_HI_0*%
X57350000Y-138520000D03*
%TO.P,U25,4*%
%TO.N,GND*%
X58450000Y-138520000D03*
%TO.P,U25,5*%
%TO.N,GNDA*%
X59550000Y-138520000D03*
%TO.P,U25,6*%
%TO.N,ISENSE_0*%
X60650000Y-138520000D03*
%TO.P,U25,7*%
%TO.N,OCP_SUM*%
X60920000Y-138750000D03*
%TO.P,U25,8*%
%TO.N,+5V*%
X60920000Y-137250000D03*
%TD*%
%TO.P,U29,1*%
%TO.N,GNDA*%
X145080000Y-137250000D03*
%TO.P,U29,2*%
%TO.N,PGND*%
X145080000Y-138750000D03*
%TO.P,U29,3*%
%TO.N,SHUNT_HI_4*%
X145350000Y-138520000D03*
%TO.P,U29,4*%
%TO.N,GND*%
X146450000Y-138520000D03*
%TO.P,U29,5*%
%TO.N,GNDA*%
X147550000Y-138520000D03*
%TO.P,U29,6*%
%TO.N,ISENSE_4*%
X148650000Y-138520000D03*
%TO.P,U29,7*%
%TO.N,OCP_SUM*%
X148920000Y-138750000D03*
%TO.P,U29,8*%
%TO.N,+5V*%
X148920000Y-137250000D03*
%TD*%
%TO.P,U30,1*%
%TO.N,GNDA*%
X167080000Y-137250000D03*
%TO.P,U30,2*%
%TO.N,PGND*%
X167080000Y-138750000D03*
%TO.P,U30,3*%
%TO.N,SHUNT_HI_5*%
X167350000Y-138520000D03*
%TO.P,U30,4*%
%TO.N,GND*%
X168450000Y-138520000D03*
%TO.P,U30,5*%
%TO.N,GNDA*%
X169550000Y-138520000D03*
%TO.P,U30,6*%
%TO.N,ISENSE_5*%
X170650000Y-138520000D03*
%TO.P,U30,7*%
%TO.N,OCP_SUM*%
X170920000Y-138750000D03*
%TO.P,U30,8*%
%TO.N,+5V*%
X170920000Y-137250000D03*
%TD*%
D21*
%TO.N,GND*%
X120075600Y-65712200D03*
X121870500Y-137424900D03*
X125797500Y-139815400D03*
X159470800Y-138047300D03*
%TO.N,SHUNT_HI_2*%
X114156100Y-140326500D03*
X117923200Y-131770000D03*
%TO.N,SHUNT_HI_4*%
X162083900Y-131770000D03*
X158169800Y-140326500D03*
D22*
%TO.N,PGND*%
X158946600Y-145465400D03*
X177330500Y-145039400D03*
%TD*%
%TO.N,+3V3*%
D23*
X126759900Y-70734600D02*
X125874600Y-70734600D01*
X125874600Y-70734600D02*
X125438000Y-70298000D01*
X125488000Y-64544300D02*
X125488000Y-61260000D01*
X127188000Y-66244300D02*
X125488000Y-64544300D01*
X125438000Y-70298000D02*
X125438000Y-69480000D01*
X127188000Y-70306500D02*
X126759900Y-70734600D01*
X127188000Y-69480000D02*
X127188000Y-70306500D01*
X127188000Y-69480000D02*
X127188000Y-66244300D01*
%TO.N,SPI_MISO*%
D24*
X97625000Y-109734800D02*
X82144600Y-109734800D01*
X66168300Y-109784700D02*
X65625000Y-109241400D01*
X114139500Y-109727000D02*
X129123800Y-109727000D01*
X65625000Y-109241400D02*
X65625000Y-109080000D01*
X129625000Y-109225800D02*
X129625000Y-109080000D01*
X145625000Y-109241400D02*
X145139400Y-109727000D01*
X145625000Y-109080000D02*
X145625000Y-109241400D01*
X113102700Y-109734800D02*
X113625000Y-109212500D01*
X129123800Y-109727000D02*
X129625000Y-109225800D01*
X97625000Y-109734800D02*
X113102700Y-109734800D01*
X145139400Y-109727000D02*
X130126200Y-109727000D01*
X81625000Y-109215200D02*
X81055500Y-109784700D01*
X97625000Y-109734800D02*
X97625000Y-109080000D01*
X81055500Y-109784700D02*
X66168300Y-109784700D01*
X113625000Y-109212500D02*
X113625000Y-109080000D01*
X81625000Y-109080000D02*
X81625000Y-109215200D01*
X82144600Y-109734800D02*
X81625000Y-109215200D01*
X113625000Y-109212500D02*
X114139500Y-109727000D01*
X130126200Y-109727000D02*
X129625000Y-109225800D01*
%TO.N,GND*%
X125544400Y-139815400D02*
X125797500Y-139815400D01*
X102450000Y-139649700D02*
X103058400Y-140258100D01*
X159470900Y-138047300D02*
X159470800Y-138047300D01*
X168450000Y-139115400D02*
X164919400Y-142646000D01*
X159470900Y-139845000D02*
X159470900Y-138047300D01*
X61530000Y-60775000D02*
X115138400Y-60775000D01*
X162271900Y-142646000D02*
X159470900Y-139845000D01*
X103058400Y-140258100D02*
X110536800Y-140258100D01*
X125556900Y-68176900D02*
X126312000Y-68932000D01*
X102450000Y-139649700D02*
X102450000Y-138520000D01*
X121670400Y-137224800D02*
X121870500Y-137424900D01*
X80450000Y-138776000D02*
X80450000Y-138520000D01*
X151863200Y-138047300D02*
X149681500Y-140229000D01*
X149681500Y-140229000D02*
X147937600Y-140229000D01*
X124450000Y-138520000D02*
X124450000Y-138721000D01*
X164919400Y-142646000D02*
X162271900Y-142646000D01*
X85323500Y-143649500D02*
X80450000Y-138776000D01*
X98450200Y-143649500D02*
X85323500Y-143649500D01*
X146450000Y-138741400D02*
X146450000Y-138520000D01*
X122540300Y-68176900D02*
X125556900Y-68176900D01*
X147937600Y-140229000D02*
X146450000Y-138741400D01*
X113570100Y-137224800D02*
X121670400Y-137224800D01*
X115138400Y-60775000D02*
X120075600Y-65712200D01*
X102450000Y-139649700D02*
X98450200Y-143649500D01*
X168450000Y-138520000D02*
X168450000Y-139115400D01*
X110536800Y-140258100D02*
X113570100Y-137224800D01*
X126312000Y-68932000D02*
X126312000Y-69480000D01*
X159470800Y-138047300D02*
X151863200Y-138047300D01*
X120075600Y-65712200D02*
X122540300Y-68176900D01*
X124450000Y-138721000D02*
X125544400Y-139815400D01*
%TO.N,SHUNT_HI_1*%
X94000000Y-137364000D02*
X94000000Y-132250000D01*
X91037500Y-140326500D02*
X94000000Y-137364000D01*
%TO.N,+48V*%
D23*
X171947500Y-114785800D02*
X154646400Y-114785800D01*
X70670600Y-122253600D02*
X73019300Y-122253600D01*
X73019300Y-122253600D02*
X73753600Y-121519300D01*
X117019300Y-122253600D02*
X114670600Y-122253600D01*
X87373000Y-118003500D02*
X89619400Y-120250000D01*
X73753600Y-121519300D02*
X73753600Y-118795700D01*
X84035000Y-114815300D02*
X87187700Y-117968000D01*
X69200600Y-114815200D02*
X77734000Y-114815200D01*
X61897500Y-107512100D02*
X69200600Y-114815200D01*
X139753600Y-118765400D02*
X135807200Y-114819000D01*
X178667000Y-120250000D02*
X177411700Y-120250000D01*
X87187700Y-117968000D02*
X87337400Y-117968000D01*
X89619400Y-120250000D02*
X90667000Y-120250000D01*
X143733200Y-114785800D02*
X154646400Y-114785800D01*
X77734000Y-114815300D02*
X84035000Y-114815300D01*
X139019300Y-122253600D02*
X136670600Y-122253600D01*
X117753600Y-118750100D02*
X113822500Y-114819000D01*
X121684700Y-114819000D02*
X117753600Y-118750100D01*
X61897500Y-89347500D02*
X61897500Y-107512100D01*
X177411700Y-120250000D02*
X171947500Y-114785800D01*
X135807200Y-114819000D02*
X121684700Y-114819000D01*
X73753600Y-118795700D02*
X77734000Y-114815300D01*
X117753600Y-118750100D02*
X117753600Y-121519300D01*
X113822500Y-114819000D02*
X90557500Y-114819000D01*
X117753600Y-121519300D02*
X117019300Y-122253600D01*
X68667000Y-120250000D02*
X70670600Y-122253600D01*
X90557500Y-114819000D02*
X87373000Y-118003500D01*
X155627100Y-120250000D02*
X156667000Y-120250000D01*
X136670600Y-122253600D02*
X134667000Y-120250000D01*
X154646400Y-119269300D02*
X155627100Y-120250000D01*
X139753600Y-121519300D02*
X139019300Y-122253600D01*
X114670600Y-122253600D02*
X112667000Y-120250000D01*
X87337400Y-117968000D02*
X87373000Y-118003500D01*
X77734000Y-114815200D02*
X77734000Y-114815300D01*
X154646400Y-114785800D02*
X154646400Y-119269300D01*
X58050000Y-85500000D02*
X61897500Y-89347500D01*
X139753600Y-118765400D02*
X139753600Y-121519300D01*
X139753600Y-118765400D02*
X143733200Y-114785800D01*
%TO.N,SHUNT_HI_2*%
D24*
X113037500Y-140326500D02*
X114156100Y-140326500D01*
X116480000Y-131770000D02*
X116000000Y-132250000D01*
X117923200Y-131770000D02*
X116480000Y-131770000D01*
%TO.N,SHUNT_HI_0*%
X58571200Y-134460700D02*
X69789300Y-134460700D01*
X56908700Y-140326500D02*
X56242900Y-139660700D01*
X56242900Y-136789000D02*
X58571200Y-134460700D01*
X69789300Y-134460700D02*
X72000000Y-132250000D01*
X69037500Y-140326500D02*
X56908700Y-140326500D01*
X56242900Y-139660700D02*
X56242900Y-136789000D01*
%TO.N,SHUNT_HI_3*%
X138000000Y-137364000D02*
X138000000Y-132250000D01*
X135037500Y-140326500D02*
X138000000Y-137364000D01*
%TO.N,SHUNT_HI_4*%
X162083900Y-131770000D02*
X160480000Y-131770000D01*
X160480000Y-131770000D02*
X160000000Y-132250000D01*
X157037500Y-140326500D02*
X158169800Y-140326500D01*
%TO.N,SHUNT_HI_5*%
X179037500Y-140326500D02*
X179037500Y-135212500D01*
X179037500Y-135212500D02*
X182000000Y-132250000D01*
%TO.N,PGND*%
D25*
X184962500Y-140873700D02*
X180796800Y-145039400D01*
X180796800Y-145039400D02*
X177330500Y-145039400D01*
X118962500Y-140326500D02*
X124101400Y-145465400D01*
X124101400Y-145465400D02*
X140962500Y-145465400D01*
X140962500Y-145465400D02*
X140962500Y-140326500D01*
X140962500Y-145465400D02*
X158946600Y-145465400D01*
X184962500Y-140326500D02*
X184962500Y-140873700D01*
%TO.N,+5V*%
D23*
X149090400Y-137269400D02*
X149090400Y-137250000D01*
X150675900Y-135938400D02*
X169608400Y-135938400D01*
X89909100Y-142557300D02*
X91777900Y-142557300D01*
X126920000Y-137250000D02*
X125667900Y-135997900D01*
X98047600Y-135997900D02*
X103667900Y-135997900D01*
X125667900Y-135997900D02*
X106172100Y-135997900D01*
X94650200Y-139685000D02*
X94650200Y-139395300D01*
X81667900Y-135997900D02*
X62172100Y-135997900D01*
X106172100Y-135997900D02*
X104920000Y-137250000D01*
X84601800Y-137250000D02*
X89909100Y-142557300D01*
X149344900Y-137269400D02*
X150675900Y-135938400D01*
X169608400Y-135938400D02*
X170920000Y-137250000D01*
X82920000Y-137250000D02*
X81667900Y-135997900D01*
X94650200Y-139395300D02*
X98047600Y-135997900D01*
X82920000Y-137250000D02*
X84601800Y-137250000D01*
X91777900Y-142557300D02*
X94650200Y-139685000D01*
X103667900Y-135997900D02*
X104920000Y-137250000D01*
D26*
X149344900Y-137269400D02*
X149090400Y-137269400D01*
X149090400Y-137250000D02*
X148920000Y-137250000D01*
D23*
X62172100Y-135997900D02*
X60920000Y-137250000D01*
%TO.N,CAN_RX*%
D24*
X125145900Y-59937400D02*
X124512000Y-60571300D01*
X128747900Y-78031000D02*
X128747900Y-61899700D01*
X124512000Y-60571300D02*
X124512000Y-61260000D01*
X90542000Y-89269200D02*
X91453900Y-90181100D01*
X90542000Y-88520000D02*
X90542000Y-89269200D01*
X126785600Y-59937400D02*
X125145900Y-59937400D01*
X91453900Y-90181100D02*
X116597800Y-90181100D01*
X128747900Y-61899700D02*
X126785600Y-59937400D01*
X116597800Y-90181100D02*
X128747900Y-78031000D01*
%TO.N,GNDA*%
X123080000Y-137250000D02*
X122653100Y-136823100D01*
X135630800Y-142320500D02*
X129153500Y-142320500D01*
X66034700Y-137250000D02*
X63481500Y-139803200D01*
X59550000Y-138690000D02*
X59550000Y-138520000D01*
X97057300Y-143224900D02*
X86007600Y-143224900D01*
X125550000Y-138717100D02*
X125550000Y-138520000D01*
X63481500Y-139803200D02*
X60663200Y-139803200D01*
X86007600Y-143224900D02*
X81550000Y-138767300D01*
X103550000Y-138283000D02*
X102775200Y-137508200D01*
X59550000Y-138282100D02*
X59550000Y-138520000D01*
X147550000Y-138520000D02*
X147550000Y-138690400D01*
X102020700Y-139428400D02*
X102020700Y-139511000D01*
X80517000Y-137250000D02*
X79080000Y-137250000D01*
X105258700Y-139812300D02*
X104621200Y-139812300D01*
X122653100Y-136823100D02*
X108247900Y-136823100D01*
X102775200Y-137508200D02*
X101915000Y-137508200D01*
X79080000Y-137250000D02*
X66034700Y-137250000D01*
X146517000Y-137250000D02*
X145080000Y-137250000D01*
X147550000Y-138283000D02*
X146517000Y-137250000D01*
X57080000Y-137250000D02*
X58517900Y-137250000D01*
X103550000Y-138520000D02*
X103550000Y-138283000D01*
X123080000Y-137250000D02*
X124517000Y-137250000D01*
X104621200Y-139812300D02*
X103550000Y-138741100D01*
X149453100Y-139806500D02*
X152009600Y-137250000D01*
X103550000Y-138741100D02*
X103550000Y-138520000D01*
X145080000Y-137250000D02*
X145054800Y-137224800D01*
X147550000Y-138690400D02*
X148666100Y-139806500D01*
X81550000Y-138520000D02*
X81550000Y-138283000D01*
X129153500Y-142320500D02*
X125550100Y-138717100D01*
X99723000Y-140559200D02*
X97057300Y-143224900D01*
X100972500Y-140559200D02*
X99723000Y-140559200D01*
X81550000Y-138283000D02*
X80517000Y-137250000D01*
X60663200Y-139803200D02*
X59550000Y-138690000D01*
X124517000Y-137250000D02*
X125550000Y-138283000D01*
X102020700Y-139511000D02*
X100972500Y-140559200D01*
X148666100Y-139806500D02*
X149453100Y-139806500D01*
X136046900Y-141904400D02*
X135630800Y-142320500D01*
X169550000Y-138283000D02*
X168517000Y-137250000D01*
X58517900Y-137250000D02*
X59550000Y-138282100D01*
X139677800Y-137224800D02*
X136046900Y-140855700D01*
X101656800Y-137250000D02*
X101915000Y-137508200D01*
X136046900Y-140855700D02*
X136046900Y-141904400D01*
X108247900Y-136823100D02*
X105258700Y-139812300D01*
X152009600Y-137250000D02*
X167080000Y-137250000D01*
X147550000Y-138520000D02*
X147550000Y-138283000D01*
X125550100Y-138717100D02*
X125550000Y-138717100D01*
X125550000Y-138283000D02*
X125550000Y-138520000D01*
X81550000Y-138767300D02*
X81550000Y-138520000D01*
X145054800Y-137224800D02*
X139677800Y-137224800D01*
X101080000Y-137250000D02*
X101656800Y-137250000D01*
X101915000Y-137508200D02*
X101915000Y-139322700D01*
X169550000Y-138520000D02*
X169550000Y-138283000D01*
X101915000Y-139322700D02*
X102020700Y-139428400D01*
X168517000Y-137250000D02*
X167080000Y-137250000D01*
%TD*%
M02*
