%TF.GenerationSoftware,KiCad,Pcbnew,10.0.5*%
%TF.CreationDate,2026-08-03T20:24:10-07:00*%
%TF.ProjectId,palpod-halbach-controller-routed,70616c70-6f64-42d6-9861-6c626163682d,A0*%
%TF.SameCoordinates,Original*%
%TF.FileFunction,Soldermask,Top*%
%TF.FilePolarity,Negative*%
%FSLAX46Y46*%
G04 Gerber Fmt 4.6, Leading zero omitted, Abs format (unit mm)*
G04 Created by KiCad (PCBNEW 10.0.5) date 2026-08-03 20:24:10*
%MOMM*%
%LPD*%
G01*
G04 APERTURE LIST*
G04 Aperture macros list*
%AMRoundRect*
0 Rectangle with rounded corners*
0 $1 Rounding radius*
0 $2 $3 $4 $5 $6 $7 $8 $9 X,Y pos of 4 corners*
0 Add a 4 corners polygon primitive as box body*
4,1,4,$2,$3,$4,$5,$6,$7,$8,$9,$2,$3,0*
0 Add four circle primitives for the rounded corners*
1,1,$1+$1,$2,$3*
1,1,$1+$1,$4,$5*
1,1,$1+$1,$6,$7*
1,1,$1+$1,$8,$9*
0 Add four rect primitives between the rounded corners*
20,1,$1+$1,$2,$3,$4,$5,0*
20,1,$1+$1,$4,$5,$6,$7,0*
20,1,$1+$1,$6,$7,$8,$9,0*
20,1,$1+$1,$8,$9,$2,$3,0*%
G04 Aperture macros list end*
%ADD10RoundRect,0.100000X-0.100000X-0.600000X0.100000X-0.600000X0.100000X0.600000X-0.100000X0.600000X0*%
%ADD11RoundRect,0.150000X-0.150000X-0.350000X0.150000X-0.350000X0.150000X0.350000X-0.150000X0.350000X0*%
%ADD12RoundRect,0.140000X-0.140000X-0.170000X0.140000X-0.170000X0.140000X0.170000X-0.140000X0.170000X0*%
%ADD13RoundRect,0.075000X-0.075000X-0.625000X0.075000X-0.625000X0.075000X0.625000X-0.075000X0.625000X0*%
%ADD14RoundRect,0.135000X-0.135000X-0.185000X0.135000X-0.185000X0.135000X0.185000X-0.135000X0.185000X0*%
%ADD15RoundRect,0.250000X-0.362500X-1.425000X0.362500X-1.425000X0.362500X1.425000X-0.362500X1.425000X0*%
%ADD16RoundRect,0.150000X-0.150000X-0.700000X0.150000X-0.700000X0.150000X0.700000X-0.150000X0.700000X0*%
%ADD17RoundRect,0.500000X-0.500000X-0.750000X0.500000X-0.750000X0.500000X0.750000X-0.500000X0.750000X0*%
%ADD18RoundRect,0.250000X-1.950000X-1.000000X1.950000X-1.000000X1.950000X1.000000X-1.950000X1.000000X0*%
%ADD19RoundRect,0.075000X-0.075000X-0.225000X0.075000X-0.225000X0.075000X0.225000X-0.075000X0.225000X0*%
G04 APERTURE END LIST*
D10*
%TO.C,U30*%
X79283125Y-82346875D03*
X79283125Y-83846875D03*
X79553125Y-83616875D03*
X80653125Y-83616875D03*
X81753125Y-83616875D03*
X82853125Y-83616875D03*
X83123125Y-83846875D03*
X83123125Y-82346875D03*
%TD*%
%TO.C,U28*%
X166876875Y-71078125D03*
X166876875Y-72578125D03*
X167146875Y-72348125D03*
X168246875Y-72348125D03*
X169346875Y-72348125D03*
X170446875Y-72348125D03*
X170716875Y-72578125D03*
X170716875Y-71078125D03*
%TD*%
%TO.C,U29*%
X184395625Y-71078125D03*
X184395625Y-72578125D03*
X184665625Y-72348125D03*
X185765625Y-72348125D03*
X186865625Y-72348125D03*
X187965625Y-72348125D03*
X188235625Y-72578125D03*
X188235625Y-71078125D03*
%TD*%
%TO.C,U25*%
X114320625Y-71078125D03*
X114320625Y-72578125D03*
X114590625Y-72348125D03*
X115690625Y-72348125D03*
X116790625Y-72348125D03*
X117890625Y-72348125D03*
X118160625Y-72578125D03*
X118160625Y-71078125D03*
%TD*%
%TO.C,U26*%
X131839375Y-71078125D03*
X131839375Y-72578125D03*
X132109375Y-72348125D03*
X133209375Y-72348125D03*
X134309375Y-72348125D03*
X135409375Y-72348125D03*
X135679375Y-72578125D03*
X135679375Y-71078125D03*
%TD*%
%TO.C,U27*%
X149358125Y-71078125D03*
X149358125Y-72578125D03*
X149628125Y-72348125D03*
X150728125Y-72348125D03*
X151828125Y-72348125D03*
X152928125Y-72348125D03*
X153198125Y-72578125D03*
X153198125Y-71078125D03*
%TD*%
D11*
%TO.C,U4*%
X97741875Y-82371875D03*
X97741875Y-83821875D03*
X97788875Y-83846875D03*
X98721875Y-83846875D03*
X99654875Y-83846875D03*
%TD*%
D12*
%TO.C,C1*%
X63204375Y-94365625D03*
X64164375Y-94365625D03*
%TD*%
%TO.C,C10*%
X80723125Y-94365625D03*
X81683125Y-94365625D03*
%TD*%
%TO.C,C2*%
X150798125Y-94365625D03*
X151758125Y-94365625D03*
%TD*%
%TO.C,C3*%
X168316875Y-94365625D03*
X169276875Y-94365625D03*
%TD*%
%TO.C,C4*%
X185835625Y-94365625D03*
X186795625Y-94365625D03*
%TD*%
%TO.C,C5*%
X63204375Y-105634375D03*
X64164375Y-105634375D03*
%TD*%
%TO.C,C6*%
X80723125Y-105634375D03*
X81683125Y-105634375D03*
%TD*%
%TO.C,C7*%
X98241875Y-105634375D03*
X99201875Y-105634375D03*
%TD*%
%TO.C,C8*%
X115760625Y-105634375D03*
X116720625Y-105634375D03*
%TD*%
%TO.C,C9*%
X133279375Y-105634375D03*
X134239375Y-105634375D03*
%TD*%
D13*
%TO.C,U1*%
X54394375Y-59434375D03*
X54394375Y-60184375D03*
X54394375Y-60934375D03*
X54394375Y-61684375D03*
X54448375Y-61079375D03*
X54976375Y-61079375D03*
X55503375Y-61079375D03*
X56031375Y-61079375D03*
X56559375Y-61079375D03*
X57087375Y-61079375D03*
X57615375Y-61079375D03*
X58142375Y-61079375D03*
X58670375Y-61079375D03*
X59198375Y-61079375D03*
X59726375Y-61079375D03*
X60253375Y-61079375D03*
X60781375Y-61079375D03*
X61309375Y-61079375D03*
X61837375Y-61079375D03*
X62365375Y-61079375D03*
X62892375Y-61079375D03*
X63420375Y-61079375D03*
X63948375Y-61079375D03*
X64476375Y-61079375D03*
X65003375Y-61079375D03*
X65531375Y-61079375D03*
X66059375Y-61079375D03*
X66587375Y-61079375D03*
X67115375Y-61079375D03*
X67642375Y-61079375D03*
X68170375Y-61079375D03*
X68698375Y-61079375D03*
X69226375Y-61079375D03*
X69753375Y-61079375D03*
X70281375Y-61079375D03*
X70809375Y-61079375D03*
X71337375Y-61079375D03*
X71865375Y-61079375D03*
X72392375Y-61079375D03*
X72920375Y-61079375D03*
X72974375Y-61684375D03*
X72974375Y-60934375D03*
X72974375Y-60184375D03*
X72974375Y-59434375D03*
X72920375Y-60039375D03*
X72392375Y-60039375D03*
X71865375Y-60039375D03*
X71337375Y-60039375D03*
X70809375Y-60039375D03*
X70281375Y-60039375D03*
X69753375Y-60039375D03*
X69226375Y-60039375D03*
X68698375Y-60039375D03*
X68170375Y-60039375D03*
X67642375Y-60039375D03*
X67115375Y-60039375D03*
X66587375Y-60039375D03*
X66059375Y-60039375D03*
X65531375Y-60039375D03*
X65003375Y-60039375D03*
X64476375Y-60039375D03*
X63948375Y-60039375D03*
X63420375Y-60039375D03*
X62892375Y-60039375D03*
X62365375Y-60039375D03*
X61837375Y-60039375D03*
X61309375Y-60039375D03*
X60781375Y-60039375D03*
X60253375Y-60039375D03*
X59726375Y-60039375D03*
X59198375Y-60039375D03*
X58670375Y-60039375D03*
X58142375Y-60039375D03*
X57615375Y-60039375D03*
X57087375Y-60039375D03*
X56559375Y-60039375D03*
X56031375Y-60039375D03*
X55503375Y-60039375D03*
X54976375Y-60039375D03*
X54448375Y-60039375D03*
%TD*%
%TO.C,U2*%
X89431875Y-70703125D03*
X89431875Y-71453125D03*
X89431875Y-72203125D03*
X89431875Y-72953125D03*
X89485875Y-72348125D03*
X90013875Y-72348125D03*
X90540875Y-72348125D03*
X91068875Y-72348125D03*
X91596875Y-72348125D03*
X92124875Y-72348125D03*
X92652875Y-72348125D03*
X93179875Y-72348125D03*
X93707875Y-72348125D03*
X94235875Y-72348125D03*
X94763875Y-72348125D03*
X95290875Y-72348125D03*
X95818875Y-72348125D03*
X96346875Y-72348125D03*
X96874875Y-72348125D03*
X97402875Y-72348125D03*
X97929875Y-72348125D03*
X98457875Y-72348125D03*
X98985875Y-72348125D03*
X99513875Y-72348125D03*
X100040875Y-72348125D03*
X100568875Y-72348125D03*
X101096875Y-72348125D03*
X101624875Y-72348125D03*
X102152875Y-72348125D03*
X102679875Y-72348125D03*
X103207875Y-72348125D03*
X103735875Y-72348125D03*
X104263875Y-72348125D03*
X104790875Y-72348125D03*
X105318875Y-72348125D03*
X105846875Y-72348125D03*
X106374875Y-72348125D03*
X106902875Y-72348125D03*
X107429875Y-72348125D03*
X107957875Y-72348125D03*
X108011875Y-72953125D03*
X108011875Y-72203125D03*
X108011875Y-71453125D03*
X108011875Y-70703125D03*
X107957875Y-71308125D03*
X107429875Y-71308125D03*
X106902875Y-71308125D03*
X106374875Y-71308125D03*
X105846875Y-71308125D03*
X105318875Y-71308125D03*
X104790875Y-71308125D03*
X104263875Y-71308125D03*
X103735875Y-71308125D03*
X103207875Y-71308125D03*
X102679875Y-71308125D03*
X102152875Y-71308125D03*
X101624875Y-71308125D03*
X101096875Y-71308125D03*
X100568875Y-71308125D03*
X100040875Y-71308125D03*
X99513875Y-71308125D03*
X98985875Y-71308125D03*
X98457875Y-71308125D03*
X97929875Y-71308125D03*
X97402875Y-71308125D03*
X96874875Y-71308125D03*
X96346875Y-71308125D03*
X95818875Y-71308125D03*
X95290875Y-71308125D03*
X94763875Y-71308125D03*
X94235875Y-71308125D03*
X93707875Y-71308125D03*
X93179875Y-71308125D03*
X92652875Y-71308125D03*
X92124875Y-71308125D03*
X91596875Y-71308125D03*
X91068875Y-71308125D03*
X90540875Y-71308125D03*
X90013875Y-71308125D03*
X89485875Y-71308125D03*
%TD*%
%TO.C,U16*%
X183475625Y-54830375D03*
X183475625Y-55871375D03*
X183475625Y-56913375D03*
X183475625Y-57955375D03*
X183475625Y-58997375D03*
X183475625Y-60038375D03*
X183475625Y-61080375D03*
X183475625Y-62122375D03*
X183475625Y-63163375D03*
X183475625Y-64205375D03*
X183475625Y-65247375D03*
X183475625Y-66288375D03*
X183519625Y-65829375D03*
X184028625Y-65829375D03*
X184536625Y-65829375D03*
X185044625Y-65829375D03*
X185552625Y-65829375D03*
X186061625Y-65829375D03*
X186569625Y-65829375D03*
X187078625Y-65829375D03*
X187586625Y-65829375D03*
X188094625Y-65829375D03*
X188602625Y-65829375D03*
X189111625Y-65829375D03*
X189155625Y-66288375D03*
X189155625Y-65247375D03*
X189155625Y-64205375D03*
X189155625Y-63163375D03*
X189155625Y-62121375D03*
X189155625Y-61080375D03*
X189155625Y-60038375D03*
X189155625Y-58996375D03*
X189155625Y-57955375D03*
X189155625Y-56913375D03*
X189155625Y-55871375D03*
X189155625Y-54830375D03*
X189111625Y-55289375D03*
X188602625Y-55289375D03*
X188094625Y-55289375D03*
X187586625Y-55289375D03*
X187078625Y-55289375D03*
X186569625Y-55289375D03*
X186061625Y-55289375D03*
X185552625Y-55289375D03*
X185044625Y-55289375D03*
X184536625Y-55289375D03*
X184028625Y-55289375D03*
X183519625Y-55289375D03*
%TD*%
%TO.C,U17*%
X60844375Y-66099125D03*
X60844375Y-67140125D03*
X60844375Y-68182125D03*
X60844375Y-69224125D03*
X60844375Y-70266125D03*
X60844375Y-71307125D03*
X60844375Y-72349125D03*
X60844375Y-73391125D03*
X60844375Y-74432125D03*
X60844375Y-75474125D03*
X60844375Y-76516125D03*
X60844375Y-77557125D03*
X60888375Y-77098125D03*
X61397375Y-77098125D03*
X61905375Y-77098125D03*
X62413375Y-77098125D03*
X62921375Y-77098125D03*
X63430375Y-77098125D03*
X63938375Y-77098125D03*
X64447375Y-77098125D03*
X64955375Y-77098125D03*
X65463375Y-77098125D03*
X65971375Y-77098125D03*
X66480375Y-77098125D03*
X66524375Y-77557125D03*
X66524375Y-76516125D03*
X66524375Y-75474125D03*
X66524375Y-74432125D03*
X66524375Y-73390125D03*
X66524375Y-72349125D03*
X66524375Y-71307125D03*
X66524375Y-70265125D03*
X66524375Y-69224125D03*
X66524375Y-68182125D03*
X66524375Y-67140125D03*
X66524375Y-66099125D03*
X66480375Y-66558125D03*
X65971375Y-66558125D03*
X65463375Y-66558125D03*
X64955375Y-66558125D03*
X64447375Y-66558125D03*
X63938375Y-66558125D03*
X63430375Y-66558125D03*
X62921375Y-66558125D03*
X62413375Y-66558125D03*
X61905375Y-66558125D03*
X61397375Y-66558125D03*
X60888375Y-66558125D03*
%TD*%
%TO.C,U13*%
X130919375Y-54830375D03*
X130919375Y-55871375D03*
X130919375Y-56913375D03*
X130919375Y-57955375D03*
X130919375Y-58997375D03*
X130919375Y-60038375D03*
X130919375Y-61080375D03*
X130919375Y-62122375D03*
X130919375Y-63163375D03*
X130919375Y-64205375D03*
X130919375Y-65247375D03*
X130919375Y-66288375D03*
X130963375Y-65829375D03*
X131472375Y-65829375D03*
X131980375Y-65829375D03*
X132488375Y-65829375D03*
X132996375Y-65829375D03*
X133505375Y-65829375D03*
X134013375Y-65829375D03*
X134522375Y-65829375D03*
X135030375Y-65829375D03*
X135538375Y-65829375D03*
X136046375Y-65829375D03*
X136555375Y-65829375D03*
X136599375Y-66288375D03*
X136599375Y-65247375D03*
X136599375Y-64205375D03*
X136599375Y-63163375D03*
X136599375Y-62121375D03*
X136599375Y-61080375D03*
X136599375Y-60038375D03*
X136599375Y-58996375D03*
X136599375Y-57955375D03*
X136599375Y-56913375D03*
X136599375Y-55871375D03*
X136599375Y-54830375D03*
X136555375Y-55289375D03*
X136046375Y-55289375D03*
X135538375Y-55289375D03*
X135030375Y-55289375D03*
X134522375Y-55289375D03*
X134013375Y-55289375D03*
X133505375Y-55289375D03*
X132996375Y-55289375D03*
X132488375Y-55289375D03*
X131980375Y-55289375D03*
X131472375Y-55289375D03*
X130963375Y-55289375D03*
%TD*%
%TO.C,U18*%
X78363125Y-66099125D03*
X78363125Y-67140125D03*
X78363125Y-68182125D03*
X78363125Y-69224125D03*
X78363125Y-70266125D03*
X78363125Y-71307125D03*
X78363125Y-72349125D03*
X78363125Y-73391125D03*
X78363125Y-74432125D03*
X78363125Y-75474125D03*
X78363125Y-76516125D03*
X78363125Y-77557125D03*
X78407125Y-77098125D03*
X78916125Y-77098125D03*
X79424125Y-77098125D03*
X79932125Y-77098125D03*
X80440125Y-77098125D03*
X80949125Y-77098125D03*
X81457125Y-77098125D03*
X81966125Y-77098125D03*
X82474125Y-77098125D03*
X82982125Y-77098125D03*
X83490125Y-77098125D03*
X83999125Y-77098125D03*
X84043125Y-77557125D03*
X84043125Y-76516125D03*
X84043125Y-75474125D03*
X84043125Y-74432125D03*
X84043125Y-73390125D03*
X84043125Y-72349125D03*
X84043125Y-71307125D03*
X84043125Y-70265125D03*
X84043125Y-69224125D03*
X84043125Y-68182125D03*
X84043125Y-67140125D03*
X84043125Y-66099125D03*
X83999125Y-66558125D03*
X83490125Y-66558125D03*
X82982125Y-66558125D03*
X82474125Y-66558125D03*
X81966125Y-66558125D03*
X81457125Y-66558125D03*
X80949125Y-66558125D03*
X80440125Y-66558125D03*
X79932125Y-66558125D03*
X79424125Y-66558125D03*
X78916125Y-66558125D03*
X78407125Y-66558125D03*
%TD*%
%TO.C,U14*%
X148438125Y-54830375D03*
X148438125Y-55871375D03*
X148438125Y-56913375D03*
X148438125Y-57955375D03*
X148438125Y-58997375D03*
X148438125Y-60038375D03*
X148438125Y-61080375D03*
X148438125Y-62122375D03*
X148438125Y-63163375D03*
X148438125Y-64205375D03*
X148438125Y-65247375D03*
X148438125Y-66288375D03*
X148482125Y-65829375D03*
X148991125Y-65829375D03*
X149499125Y-65829375D03*
X150007125Y-65829375D03*
X150515125Y-65829375D03*
X151024125Y-65829375D03*
X151532125Y-65829375D03*
X152041125Y-65829375D03*
X152549125Y-65829375D03*
X153057125Y-65829375D03*
X153565125Y-65829375D03*
X154074125Y-65829375D03*
X154118125Y-66288375D03*
X154118125Y-65247375D03*
X154118125Y-64205375D03*
X154118125Y-63163375D03*
X154118125Y-62121375D03*
X154118125Y-61080375D03*
X154118125Y-60038375D03*
X154118125Y-58996375D03*
X154118125Y-57955375D03*
X154118125Y-56913375D03*
X154118125Y-55871375D03*
X154118125Y-54830375D03*
X154074125Y-55289375D03*
X153565125Y-55289375D03*
X153057125Y-55289375D03*
X152549125Y-55289375D03*
X152041125Y-55289375D03*
X151532125Y-55289375D03*
X151024125Y-55289375D03*
X150515125Y-55289375D03*
X150007125Y-55289375D03*
X149499125Y-55289375D03*
X148991125Y-55289375D03*
X148482125Y-55289375D03*
%TD*%
%TO.C,U15*%
X165956875Y-54830375D03*
X165956875Y-55871375D03*
X165956875Y-56913375D03*
X165956875Y-57955375D03*
X165956875Y-58997375D03*
X165956875Y-60038375D03*
X165956875Y-61080375D03*
X165956875Y-62122375D03*
X165956875Y-63163375D03*
X165956875Y-64205375D03*
X165956875Y-65247375D03*
X165956875Y-66288375D03*
X166000875Y-65829375D03*
X166509875Y-65829375D03*
X167017875Y-65829375D03*
X167525875Y-65829375D03*
X168033875Y-65829375D03*
X168542875Y-65829375D03*
X169050875Y-65829375D03*
X169559875Y-65829375D03*
X170067875Y-65829375D03*
X170575875Y-65829375D03*
X171083875Y-65829375D03*
X171592875Y-65829375D03*
X171636875Y-66288375D03*
X171636875Y-65247375D03*
X171636875Y-64205375D03*
X171636875Y-63163375D03*
X171636875Y-62121375D03*
X171636875Y-61080375D03*
X171636875Y-60038375D03*
X171636875Y-58996375D03*
X171636875Y-57955375D03*
X171636875Y-56913375D03*
X171636875Y-55871375D03*
X171636875Y-54830375D03*
X171592875Y-55289375D03*
X171083875Y-55289375D03*
X170575875Y-55289375D03*
X170067875Y-55289375D03*
X169559875Y-55289375D03*
X169050875Y-55289375D03*
X168542875Y-55289375D03*
X168033875Y-55289375D03*
X167525875Y-55289375D03*
X167017875Y-55289375D03*
X166509875Y-55289375D03*
X166000875Y-55289375D03*
%TD*%
D14*
%TO.C,R1*%
X80693125Y-128171875D03*
X81713125Y-128171875D03*
%TD*%
%TO.C,R2*%
X133249375Y-128171875D03*
X134269375Y-128171875D03*
%TD*%
%TO.C,R3*%
X150768125Y-128171875D03*
X151788125Y-128171875D03*
%TD*%
%TO.C,R4*%
X168286875Y-128171875D03*
X169306875Y-128171875D03*
%TD*%
%TO.C,R5*%
X185805625Y-128171875D03*
X186825625Y-128171875D03*
%TD*%
D15*
%TO.C,R10*%
X95759375Y-128171875D03*
X101684375Y-128171875D03*
%TD*%
%TO.C,R11*%
X113278125Y-128171875D03*
X119203125Y-128171875D03*
%TD*%
%TO.C,R6*%
X60721875Y-139440625D03*
X66646875Y-139440625D03*
%TD*%
%TO.C,R7*%
X78240625Y-139440625D03*
X84165625Y-139440625D03*
%TD*%
%TO.C,R8*%
X95759375Y-139440625D03*
X101684375Y-139440625D03*
%TD*%
%TO.C,R9*%
X113278125Y-139440625D03*
X119203125Y-139440625D03*
%TD*%
D10*
%TO.C,U6*%
X130539375Y-80034875D03*
X130539375Y-80908875D03*
X130539375Y-81784875D03*
X130539375Y-82658875D03*
X130539375Y-83534875D03*
X130539375Y-84408875D03*
X130539375Y-85284875D03*
X130539375Y-86158875D03*
X130697375Y-85616875D03*
X131571375Y-85616875D03*
X132447375Y-85616875D03*
X133321375Y-85616875D03*
X134197375Y-85616875D03*
X135071375Y-85616875D03*
X135947375Y-85616875D03*
X136821375Y-85616875D03*
X136979375Y-86158875D03*
X136979375Y-85284875D03*
X136979375Y-84408875D03*
X136979375Y-83534875D03*
X136979375Y-82658875D03*
X136979375Y-81784875D03*
X136979375Y-80908875D03*
X136979375Y-80034875D03*
X136821375Y-80576875D03*
X135947375Y-80576875D03*
X135071375Y-80576875D03*
X134197375Y-80576875D03*
X133321375Y-80576875D03*
X132447375Y-80576875D03*
X131571375Y-80576875D03*
X130697375Y-80576875D03*
%TD*%
D16*
%TO.C,U3*%
X62154375Y-81871875D03*
X62154375Y-84321875D03*
X62222375Y-84356875D03*
X63196375Y-84356875D03*
X64172375Y-84356875D03*
X65147375Y-84356875D03*
X65214375Y-84321875D03*
X65214375Y-81871875D03*
%TD*%
%TO.C,U5*%
X114710625Y-81871875D03*
X114710625Y-84321875D03*
X114778625Y-84356875D03*
X115752625Y-84356875D03*
X116728625Y-84356875D03*
X117703625Y-84356875D03*
X117770625Y-84321875D03*
X117770625Y-81871875D03*
%TD*%
D17*
%TO.C,Q1*%
X147678125Y-105634375D03*
X147945125Y-107884375D03*
X151278125Y-107884375D03*
%TD*%
%TO.C,Q10*%
X165196875Y-105634375D03*
X165463875Y-107884375D03*
X168796875Y-107884375D03*
%TD*%
%TO.C,Q11*%
X182715625Y-105634375D03*
X182982625Y-107884375D03*
X186315625Y-107884375D03*
%TD*%
%TO.C,Q12*%
X60084375Y-116903125D03*
X60351375Y-119153125D03*
X63684375Y-119153125D03*
%TD*%
%TO.C,Q2*%
X77603125Y-116903125D03*
X77870125Y-119153125D03*
X81203125Y-119153125D03*
%TD*%
%TO.C,Q3*%
X95121875Y-116903125D03*
X95388875Y-119153125D03*
X98721875Y-119153125D03*
%TD*%
%TO.C,Q4*%
X112640625Y-116903125D03*
X112907625Y-119153125D03*
X116240625Y-119153125D03*
%TD*%
%TO.C,Q5*%
X130159375Y-116903125D03*
X130426375Y-119153125D03*
X133759375Y-119153125D03*
%TD*%
%TO.C,Q6*%
X147678125Y-116903125D03*
X147945125Y-119153125D03*
X151278125Y-119153125D03*
%TD*%
%TO.C,Q7*%
X165196875Y-116903125D03*
X165463875Y-119153125D03*
X168796875Y-119153125D03*
%TD*%
%TO.C,Q8*%
X182715625Y-116903125D03*
X182982625Y-119153125D03*
X186315625Y-119153125D03*
%TD*%
%TO.C,Q9*%
X60084375Y-128171875D03*
X60351375Y-130421875D03*
X63684375Y-130421875D03*
%TD*%
D18*
%TO.C,C11*%
X94521875Y-94365625D03*
X102921875Y-94365625D03*
%TD*%
%TO.C,C12*%
X112040625Y-94365625D03*
X120440625Y-94365625D03*
%TD*%
%TO.C,C13*%
X129559375Y-94365625D03*
X137959375Y-94365625D03*
%TD*%
D19*
%TO.C,U10*%
X79913125Y-59434375D03*
X79913125Y-60184375D03*
X79913125Y-60934375D03*
X79913125Y-61684375D03*
X80078125Y-61639375D03*
X80828125Y-61639375D03*
X81578125Y-61639375D03*
X82328125Y-61639375D03*
X82493125Y-61684375D03*
X82493125Y-60934375D03*
X82493125Y-60184375D03*
X82493125Y-59434375D03*
X82328125Y-59479375D03*
X81578125Y-59479375D03*
X80828125Y-59479375D03*
X80078125Y-59479375D03*
%TD*%
%TO.C,U7*%
X149988125Y-81971875D03*
X149988125Y-82721875D03*
X149988125Y-83471875D03*
X149988125Y-84221875D03*
X150153125Y-84176875D03*
X150903125Y-84176875D03*
X151653125Y-84176875D03*
X152403125Y-84176875D03*
X152568125Y-84221875D03*
X152568125Y-83471875D03*
X152568125Y-82721875D03*
X152568125Y-81971875D03*
X152403125Y-82016875D03*
X151653125Y-82016875D03*
X150903125Y-82016875D03*
X150153125Y-82016875D03*
%TD*%
%TO.C,U8*%
X167506875Y-81971875D03*
X167506875Y-82721875D03*
X167506875Y-83471875D03*
X167506875Y-84221875D03*
X167671875Y-84176875D03*
X168421875Y-84176875D03*
X169171875Y-84176875D03*
X169921875Y-84176875D03*
X170086875Y-84221875D03*
X170086875Y-83471875D03*
X170086875Y-82721875D03*
X170086875Y-81971875D03*
X169921875Y-82016875D03*
X169171875Y-82016875D03*
X168421875Y-82016875D03*
X167671875Y-82016875D03*
%TD*%
%TO.C,U9*%
X185025625Y-81971875D03*
X185025625Y-82721875D03*
X185025625Y-83471875D03*
X185025625Y-84221875D03*
X185190625Y-84176875D03*
X185940625Y-84176875D03*
X186690625Y-84176875D03*
X187440625Y-84176875D03*
X187605625Y-84221875D03*
X187605625Y-83471875D03*
X187605625Y-82721875D03*
X187605625Y-81971875D03*
X187440625Y-82016875D03*
X186690625Y-82016875D03*
X185940625Y-82016875D03*
X185190625Y-82016875D03*
%TD*%
%TO.C,U11*%
X97431875Y-59434375D03*
X97431875Y-60184375D03*
X97431875Y-60934375D03*
X97431875Y-61684375D03*
X97596875Y-61639375D03*
X98346875Y-61639375D03*
X99096875Y-61639375D03*
X99846875Y-61639375D03*
X100011875Y-61684375D03*
X100011875Y-60934375D03*
X100011875Y-60184375D03*
X100011875Y-59434375D03*
X99846875Y-59479375D03*
X99096875Y-59479375D03*
X98346875Y-59479375D03*
X97596875Y-59479375D03*
%TD*%
%TO.C,U12*%
X114950625Y-59434375D03*
X114950625Y-60184375D03*
X114950625Y-60934375D03*
X114950625Y-61684375D03*
X115115625Y-61639375D03*
X115865625Y-61639375D03*
X116615625Y-61639375D03*
X117365625Y-61639375D03*
X117530625Y-61684375D03*
X117530625Y-60934375D03*
X117530625Y-60184375D03*
X117530625Y-59434375D03*
X117365625Y-59479375D03*
X116615625Y-59479375D03*
X115865625Y-59479375D03*
X115115625Y-59479375D03*
%TD*%
M02*
