%TF.GenerationSoftware,KiCad,Pcbnew,10.0.5*%
%TF.CreationDate,2026-08-03T20:24:10-07:00*%
%TF.ProjectId,palpod-halbach-controller-routed,70616c70-6f64-42d6-9861-6c626163682d,A0*%
%TF.SameCoordinates,Original*%
%TF.FileFunction,Other,User*%
%FSLAX46Y46*%
G04 Gerber Fmt 4.6, Leading zero omitted, Abs format (unit mm)*
G04 Created by KiCad (PCBNEW 10.0.5) date 2026-08-03 20:24:10*
%MOMM*%
%LPD*%
G01*
G04 APERTURE LIST*
%ADD10C,0.050000*%
G04 APERTURE END LIST*
%TO.C,U30*%
D10*
X78753125Y-81346875D02*
X83653125Y-81346875D01*
X83653125Y-84846875D01*
X78753125Y-84846875D01*
X78753125Y-81346875D01*
%TO.C,U28*%
X166346875Y-70078125D02*
X171246875Y-70078125D01*
X171246875Y-73578125D01*
X166346875Y-73578125D01*
X166346875Y-70078125D01*
%TO.C,U29*%
X183865625Y-70078125D02*
X188765625Y-70078125D01*
X188765625Y-73578125D01*
X183865625Y-73578125D01*
X183865625Y-70078125D01*
%TO.C,U25*%
X113790625Y-70078125D02*
X118690625Y-70078125D01*
X118690625Y-73578125D01*
X113790625Y-73578125D01*
X113790625Y-70078125D01*
%TO.C,U26*%
X131309375Y-70078125D02*
X136209375Y-70078125D01*
X136209375Y-73578125D01*
X131309375Y-73578125D01*
X131309375Y-70078125D01*
%TO.C,U27*%
X148828125Y-70078125D02*
X153728125Y-70078125D01*
X153728125Y-73578125D01*
X148828125Y-73578125D01*
X148828125Y-70078125D01*
%TO.C,U4*%
X97071875Y-81396875D02*
X100371875Y-81396875D01*
X100371875Y-84796875D01*
X97071875Y-84796875D01*
X97071875Y-81396875D01*
%TO.C,C1*%
X62774375Y-93905625D02*
X64594375Y-93905625D01*
X64594375Y-94825625D01*
X62774375Y-94825625D01*
X62774375Y-93905625D01*
%TO.C,C10*%
X80293125Y-93905625D02*
X82113125Y-93905625D01*
X82113125Y-94825625D01*
X80293125Y-94825625D01*
X80293125Y-93905625D01*
%TO.C,C2*%
X150368125Y-93905625D02*
X152188125Y-93905625D01*
X152188125Y-94825625D01*
X150368125Y-94825625D01*
X150368125Y-93905625D01*
%TO.C,C3*%
X167886875Y-93905625D02*
X169706875Y-93905625D01*
X169706875Y-94825625D01*
X167886875Y-94825625D01*
X167886875Y-93905625D01*
%TO.C,C4*%
X185405625Y-93905625D02*
X187225625Y-93905625D01*
X187225625Y-94825625D01*
X185405625Y-94825625D01*
X185405625Y-93905625D01*
%TO.C,C5*%
X62774375Y-105174375D02*
X64594375Y-105174375D01*
X64594375Y-106094375D01*
X62774375Y-106094375D01*
X62774375Y-105174375D01*
%TO.C,C6*%
X80293125Y-105174375D02*
X82113125Y-105174375D01*
X82113125Y-106094375D01*
X80293125Y-106094375D01*
X80293125Y-105174375D01*
%TO.C,C7*%
X97811875Y-105174375D02*
X99631875Y-105174375D01*
X99631875Y-106094375D01*
X97811875Y-106094375D01*
X97811875Y-105174375D01*
%TO.C,C8*%
X115330625Y-105174375D02*
X117150625Y-105174375D01*
X117150625Y-106094375D01*
X115330625Y-106094375D01*
X115330625Y-105174375D01*
%TO.C,C9*%
X132849375Y-105174375D02*
X134669375Y-105174375D01*
X134669375Y-106094375D01*
X132849375Y-106094375D01*
X132849375Y-105174375D01*
%TO.C,U1*%
X53934375Y-58809375D02*
X73434375Y-58809375D01*
X73434375Y-62309375D01*
X53934375Y-62309375D01*
X53934375Y-58809375D01*
%TO.C,U2*%
X88971875Y-70078125D02*
X108471875Y-70078125D01*
X108471875Y-73578125D01*
X88971875Y-73578125D01*
X88971875Y-70078125D01*
%TO.C,U16*%
X183015625Y-54059375D02*
X189615625Y-54059375D01*
X189615625Y-67059375D01*
X183015625Y-67059375D01*
X183015625Y-54059375D01*
%TO.C,U17*%
X60384375Y-65328125D02*
X66984375Y-65328125D01*
X66984375Y-78328125D01*
X60384375Y-78328125D01*
X60384375Y-65328125D01*
%TO.C,U13*%
X130459375Y-54059375D02*
X137059375Y-54059375D01*
X137059375Y-67059375D01*
X130459375Y-67059375D01*
X130459375Y-54059375D01*
%TO.C,U18*%
X77903125Y-65328125D02*
X84503125Y-65328125D01*
X84503125Y-78328125D01*
X77903125Y-78328125D01*
X77903125Y-65328125D01*
%TO.C,U14*%
X147978125Y-54059375D02*
X154578125Y-54059375D01*
X154578125Y-67059375D01*
X147978125Y-67059375D01*
X147978125Y-54059375D01*
%TO.C,U15*%
X165496875Y-54059375D02*
X172096875Y-54059375D01*
X172096875Y-67059375D01*
X165496875Y-67059375D01*
X165496875Y-54059375D01*
%TO.C,R1*%
X80273125Y-127701875D02*
X82133125Y-127701875D01*
X82133125Y-128641875D01*
X80273125Y-128641875D01*
X80273125Y-127701875D01*
%TO.C,R2*%
X132829375Y-127701875D02*
X134689375Y-127701875D01*
X134689375Y-128641875D01*
X132829375Y-128641875D01*
X132829375Y-127701875D01*
%TO.C,R3*%
X150348125Y-127701875D02*
X152208125Y-127701875D01*
X152208125Y-128641875D01*
X150348125Y-128641875D01*
X150348125Y-127701875D01*
%TO.C,R4*%
X167866875Y-127701875D02*
X169726875Y-127701875D01*
X169726875Y-128641875D01*
X167866875Y-128641875D01*
X167866875Y-127701875D01*
%TO.C,R5*%
X185385625Y-127701875D02*
X187245625Y-127701875D01*
X187245625Y-128641875D01*
X185385625Y-128641875D01*
X185385625Y-127701875D01*
%TO.C,R10*%
X94891875Y-126241875D02*
X102551875Y-126241875D01*
X102551875Y-130101875D01*
X94891875Y-130101875D01*
X94891875Y-126241875D01*
%TO.C,R11*%
X112410625Y-126241875D02*
X120070625Y-126241875D01*
X120070625Y-130101875D01*
X112410625Y-130101875D01*
X112410625Y-126241875D01*
%TO.C,R6*%
X59854375Y-137510625D02*
X67514375Y-137510625D01*
X67514375Y-141370625D01*
X59854375Y-141370625D01*
X59854375Y-137510625D01*
%TO.C,R7*%
X77373125Y-137510625D02*
X85033125Y-137510625D01*
X85033125Y-141370625D01*
X77373125Y-141370625D01*
X77373125Y-137510625D01*
%TO.C,R8*%
X94891875Y-137510625D02*
X102551875Y-137510625D01*
X102551875Y-141370625D01*
X94891875Y-141370625D01*
X94891875Y-137510625D01*
%TO.C,R9*%
X112410625Y-137510625D02*
X120070625Y-137510625D01*
X120070625Y-141370625D01*
X112410625Y-141370625D01*
X112410625Y-137510625D01*
%TO.C,U6*%
X130009375Y-79346875D02*
X137509375Y-79346875D01*
X137509375Y-86846875D01*
X130009375Y-86846875D01*
X130009375Y-79346875D01*
%TO.C,U3*%
X61484375Y-80396875D02*
X65884375Y-80396875D01*
X65884375Y-85796875D01*
X61484375Y-85796875D01*
X61484375Y-80396875D01*
%TO.C,U5*%
X114040625Y-80396875D02*
X118440625Y-80396875D01*
X118440625Y-85796875D01*
X114040625Y-85796875D01*
X114040625Y-80396875D01*
%TO.C,Q1*%
X146028125Y-101384375D02*
X156528125Y-101384375D01*
X156528125Y-109884375D01*
X146028125Y-109884375D01*
X146028125Y-101384375D01*
%TO.C,Q10*%
X163546875Y-101384375D02*
X174046875Y-101384375D01*
X174046875Y-109884375D01*
X163546875Y-109884375D01*
X163546875Y-101384375D01*
%TO.C,Q11*%
X181065625Y-101384375D02*
X191565625Y-101384375D01*
X191565625Y-109884375D01*
X181065625Y-109884375D01*
X181065625Y-101384375D01*
%TO.C,Q12*%
X58434375Y-112653125D02*
X68934375Y-112653125D01*
X68934375Y-121153125D01*
X58434375Y-121153125D01*
X58434375Y-112653125D01*
%TO.C,Q2*%
X75953125Y-112653125D02*
X86453125Y-112653125D01*
X86453125Y-121153125D01*
X75953125Y-121153125D01*
X75953125Y-112653125D01*
%TO.C,Q3*%
X93471875Y-112653125D02*
X103971875Y-112653125D01*
X103971875Y-121153125D01*
X93471875Y-121153125D01*
X93471875Y-112653125D01*
%TO.C,Q4*%
X110990625Y-112653125D02*
X121490625Y-112653125D01*
X121490625Y-121153125D01*
X110990625Y-121153125D01*
X110990625Y-112653125D01*
%TO.C,Q5*%
X128509375Y-112653125D02*
X139009375Y-112653125D01*
X139009375Y-121153125D01*
X128509375Y-121153125D01*
X128509375Y-112653125D01*
%TO.C,Q6*%
X146028125Y-112653125D02*
X156528125Y-112653125D01*
X156528125Y-121153125D01*
X146028125Y-121153125D01*
X146028125Y-112653125D01*
%TO.C,Q7*%
X163546875Y-112653125D02*
X174046875Y-112653125D01*
X174046875Y-121153125D01*
X163546875Y-121153125D01*
X163546875Y-112653125D01*
%TO.C,Q8*%
X181065625Y-112653125D02*
X191565625Y-112653125D01*
X191565625Y-121153125D01*
X181065625Y-121153125D01*
X181065625Y-112653125D01*
%TO.C,Q9*%
X58434375Y-123921875D02*
X68934375Y-123921875D01*
X68934375Y-132421875D01*
X58434375Y-132421875D01*
X58434375Y-123921875D01*
%TO.C,C11*%
X92071875Y-92865625D02*
X92071875Y-95865625D01*
X92071875Y-95865625D02*
X93221875Y-95865625D01*
X93221875Y-90015625D02*
X93221875Y-92865625D01*
X93221875Y-90015625D02*
X94371875Y-88865625D01*
X93221875Y-92865625D02*
X92071875Y-92865625D01*
X93221875Y-95865625D02*
X93221875Y-98715625D01*
X93221875Y-98715625D02*
X94371875Y-99865625D01*
X94371875Y-88865625D02*
X104221875Y-88865625D01*
X94371875Y-99865625D02*
X104221875Y-99865625D01*
X104221875Y-88865625D02*
X104221875Y-92865625D01*
X104221875Y-92865625D02*
X105371875Y-92865625D01*
X104221875Y-95865625D02*
X104221875Y-99865625D01*
X105371875Y-92865625D02*
X105371875Y-95865625D01*
X105371875Y-95865625D02*
X104221875Y-95865625D01*
%TO.C,C12*%
X109590625Y-92865625D02*
X109590625Y-95865625D01*
X109590625Y-95865625D02*
X110740625Y-95865625D01*
X110740625Y-90015625D02*
X110740625Y-92865625D01*
X110740625Y-90015625D02*
X111890625Y-88865625D01*
X110740625Y-92865625D02*
X109590625Y-92865625D01*
X110740625Y-95865625D02*
X110740625Y-98715625D01*
X110740625Y-98715625D02*
X111890625Y-99865625D01*
X111890625Y-88865625D02*
X121740625Y-88865625D01*
X111890625Y-99865625D02*
X121740625Y-99865625D01*
X121740625Y-88865625D02*
X121740625Y-92865625D01*
X121740625Y-92865625D02*
X122890625Y-92865625D01*
X121740625Y-95865625D02*
X121740625Y-99865625D01*
X122890625Y-92865625D02*
X122890625Y-95865625D01*
X122890625Y-95865625D02*
X121740625Y-95865625D01*
%TO.C,C13*%
X127109375Y-92865625D02*
X127109375Y-95865625D01*
X127109375Y-95865625D02*
X128259375Y-95865625D01*
X128259375Y-90015625D02*
X128259375Y-92865625D01*
X128259375Y-90015625D02*
X129409375Y-88865625D01*
X128259375Y-92865625D02*
X127109375Y-92865625D01*
X128259375Y-95865625D02*
X128259375Y-98715625D01*
X128259375Y-98715625D02*
X129409375Y-99865625D01*
X129409375Y-88865625D02*
X139259375Y-88865625D01*
X129409375Y-99865625D02*
X139259375Y-99865625D01*
X139259375Y-88865625D02*
X139259375Y-92865625D01*
X139259375Y-92865625D02*
X140409375Y-92865625D01*
X139259375Y-95865625D02*
X139259375Y-99865625D01*
X140409375Y-92865625D02*
X140409375Y-95865625D01*
X140409375Y-95865625D02*
X139259375Y-95865625D01*
%TO.C,U10*%
X79453125Y-58809375D02*
X82953125Y-58809375D01*
X82953125Y-62309375D01*
X79453125Y-62309375D01*
X79453125Y-58809375D01*
%TO.C,U7*%
X149528125Y-81346875D02*
X153028125Y-81346875D01*
X153028125Y-84846875D01*
X149528125Y-84846875D01*
X149528125Y-81346875D01*
%TO.C,U8*%
X167046875Y-81346875D02*
X170546875Y-81346875D01*
X170546875Y-84846875D01*
X167046875Y-84846875D01*
X167046875Y-81346875D01*
%TO.C,U9*%
X184565625Y-81346875D02*
X188065625Y-81346875D01*
X188065625Y-84846875D01*
X184565625Y-84846875D01*
X184565625Y-81346875D01*
%TO.C,U11*%
X96971875Y-58809375D02*
X100471875Y-58809375D01*
X100471875Y-62309375D01*
X96971875Y-62309375D01*
X96971875Y-58809375D01*
%TO.C,U12*%
X114490625Y-58809375D02*
X117990625Y-58809375D01*
X117990625Y-62309375D01*
X114490625Y-62309375D01*
X114490625Y-58809375D01*
%TD*%
M02*
