%TF.GenerationSoftware,KiCad,Pcbnew,10.0.5*%
%TF.CreationDate,2026-08-03T20:24:10-07:00*%
%TF.ProjectId,palpod-halbach-controller-routed,70616c70-6f64-42d6-9861-6c626163682d,A0*%
%TF.SameCoordinates,Original*%
%TF.FileFunction,Copper,L1,Top*%
%TF.FilePolarity,Positive*%
%FSLAX46Y46*%
G04 Gerber Fmt 4.6, Leading zero omitted, Abs format (unit mm)*
G04 Created by KiCad (PCBNEW 10.0.5) date 2026-08-03 20:24:10*
%MOMM*%
%LPD*%
G01*
G04 APERTURE LIST*
G04 Aperture macros list*
%AMRoundRect*
0 Rectangle with rounded corners*
0 $1 Rounding radius*
0 $2 $3 $4 $5 $6 $7 $8 $9 X,Y pos of 4 corners*
0 Add a 4 corners polygon primitive as box body*
4,1,4,$2,$3,$4,$5,$6,$7,$8,$9,$2,$3,0*
0 Add four circle primitives for the rounded corners*
1,1,$1+$1,$2,$3*
1,1,$1+$1,$4,$5*
1,1,$1+$1,$6,$7*
1,1,$1+$1,$8,$9*
0 Add four rect primitives between the rounded corners*
20,1,$1+$1,$2,$3,$4,$5,0*
20,1,$1+$1,$4,$5,$6,$7,0*
20,1,$1+$1,$6,$7,$8,$9,0*
20,1,$1+$1,$8,$9,$2,$3,0*%
G04 Aperture macros list end*
%TA.AperFunction,SMDPad,CuDef*%
%ADD10RoundRect,0.100000X-0.100000X-0.600000X0.100000X-0.600000X0.100000X0.600000X-0.100000X0.600000X0*%
%TD*%
%TA.AperFunction,SMDPad,CuDef*%
%ADD11RoundRect,0.150000X-0.150000X-0.350000X0.150000X-0.350000X0.150000X0.350000X-0.150000X0.350000X0*%
%TD*%
%TA.AperFunction,SMDPad,CuDef*%
%ADD12RoundRect,0.140000X-0.140000X-0.170000X0.140000X-0.170000X0.140000X0.170000X-0.140000X0.170000X0*%
%TD*%
%TA.AperFunction,SMDPad,CuDef*%
%ADD13RoundRect,0.075000X-0.075000X-0.625000X0.075000X-0.625000X0.075000X0.625000X-0.075000X0.625000X0*%
%TD*%
%TA.AperFunction,SMDPad,CuDef*%
%ADD14RoundRect,0.135000X-0.135000X-0.185000X0.135000X-0.185000X0.135000X0.185000X-0.135000X0.185000X0*%
%TD*%
%TA.AperFunction,SMDPad,CuDef*%
%ADD15RoundRect,0.250000X-0.362500X-1.425000X0.362500X-1.425000X0.362500X1.425000X-0.362500X1.425000X0*%
%TD*%
%TA.AperFunction,SMDPad,CuDef*%
%ADD16RoundRect,0.150000X-0.150000X-0.700000X0.150000X-0.700000X0.150000X0.700000X-0.150000X0.700000X0*%
%TD*%
%TA.AperFunction,SMDPad,CuDef*%
%ADD17RoundRect,0.500000X-0.500000X-0.750000X0.500000X-0.750000X0.500000X0.750000X-0.500000X0.750000X0*%
%TD*%
%TA.AperFunction,SMDPad,CuDef*%
%ADD18RoundRect,0.250000X-1.950000X-1.000000X1.950000X-1.000000X1.950000X1.000000X-1.950000X1.000000X0*%
%TD*%
%TA.AperFunction,SMDPad,CuDef*%
%ADD19RoundRect,0.075000X-0.075000X-0.225000X0.075000X-0.225000X0.075000X0.225000X-0.075000X0.225000X0*%
%TD*%
G04 APERTURE END LIST*
D10*
%TO.P,U30,1*%
%TO.N,N/C*%
X79283125Y-82346875D03*
%TO.P,U30,2*%
X79283125Y-83846875D03*
%TO.P,U30,3*%
X79553125Y-83616875D03*
%TO.P,U30,4*%
X80653125Y-83616875D03*
%TO.P,U30,5*%
X81753125Y-83616875D03*
%TO.P,U30,6*%
X82853125Y-83616875D03*
%TO.P,U30,7*%
X83123125Y-83846875D03*
%TO.P,U30,8*%
%TO.N,V+*%
X83123125Y-82346875D03*
%TD*%
%TO.P,U28,1*%
%TO.N,N/C*%
X166876875Y-71078125D03*
%TO.P,U28,2*%
X166876875Y-72578125D03*
%TO.P,U28,3*%
X167146875Y-72348125D03*
%TO.P,U28,4*%
X168246875Y-72348125D03*
%TO.P,U28,5*%
X169346875Y-72348125D03*
%TO.P,U28,6*%
X170446875Y-72348125D03*
%TO.P,U28,7*%
X170716875Y-72578125D03*
%TO.P,U28,8*%
%TO.N,V+*%
X170716875Y-71078125D03*
%TD*%
%TO.P,U29,1*%
%TO.N,N/C*%
X184395625Y-71078125D03*
%TO.P,U29,2*%
X184395625Y-72578125D03*
%TO.P,U29,3*%
X184665625Y-72348125D03*
%TO.P,U29,4*%
X185765625Y-72348125D03*
%TO.P,U29,5*%
X186865625Y-72348125D03*
%TO.P,U29,6*%
X187965625Y-72348125D03*
%TO.P,U29,7*%
X188235625Y-72578125D03*
%TO.P,U29,8*%
%TO.N,V+*%
X188235625Y-71078125D03*
%TD*%
%TO.P,U25,1*%
%TO.N,N/C*%
X114320625Y-71078125D03*
%TO.P,U25,2*%
X114320625Y-72578125D03*
%TO.P,U25,3*%
X114590625Y-72348125D03*
%TO.P,U25,4*%
X115690625Y-72348125D03*
%TO.P,U25,5*%
X116790625Y-72348125D03*
%TO.P,U25,6*%
X117890625Y-72348125D03*
%TO.P,U25,7*%
X118160625Y-72578125D03*
%TO.P,U25,8*%
%TO.N,V+*%
X118160625Y-71078125D03*
%TD*%
%TO.P,U26,1*%
%TO.N,N/C*%
X131839375Y-71078125D03*
%TO.P,U26,2*%
X131839375Y-72578125D03*
%TO.P,U26,3*%
X132109375Y-72348125D03*
%TO.P,U26,4*%
X133209375Y-72348125D03*
%TO.P,U26,5*%
X134309375Y-72348125D03*
%TO.P,U26,6*%
X135409375Y-72348125D03*
%TO.P,U26,7*%
X135679375Y-72578125D03*
%TO.P,U26,8*%
%TO.N,V+*%
X135679375Y-71078125D03*
%TD*%
%TO.P,U27,1*%
%TO.N,N/C*%
X149358125Y-71078125D03*
%TO.P,U27,2*%
X149358125Y-72578125D03*
%TO.P,U27,3*%
X149628125Y-72348125D03*
%TO.P,U27,4*%
X150728125Y-72348125D03*
%TO.P,U27,5*%
X151828125Y-72348125D03*
%TO.P,U27,6*%
X152928125Y-72348125D03*
%TO.P,U27,7*%
X153198125Y-72578125D03*
%TO.P,U27,8*%
%TO.N,V+*%
X153198125Y-71078125D03*
%TD*%
D11*
%TO.P,U4,1*%
%TO.N,N/C*%
X97741875Y-82371875D03*
%TO.P,U4,2*%
X97741875Y-83821875D03*
%TO.P,U4,3*%
X97788875Y-83846875D03*
%TO.P,U4,4*%
X98721875Y-83846875D03*
%TO.P,U4,5*%
%TO.N,V+*%
X99654875Y-83846875D03*
%TD*%
D12*
%TO.P,C1,1*%
%TO.N,N/C*%
X63204375Y-94365625D03*
%TO.P,C1,2*%
X64164375Y-94365625D03*
%TD*%
%TO.P,C10,1*%
%TO.N,N/C*%
X80723125Y-94365625D03*
%TO.P,C10,2*%
X81683125Y-94365625D03*
%TD*%
%TO.P,C2,1*%
%TO.N,N/C*%
X150798125Y-94365625D03*
%TO.P,C2,2*%
X151758125Y-94365625D03*
%TD*%
%TO.P,C3,1*%
%TO.N,N/C*%
X168316875Y-94365625D03*
%TO.P,C3,2*%
X169276875Y-94365625D03*
%TD*%
%TO.P,C4,1*%
%TO.N,N/C*%
X185835625Y-94365625D03*
%TO.P,C4,2*%
X186795625Y-94365625D03*
%TD*%
%TO.P,C5,1*%
%TO.N,N/C*%
X63204375Y-105634375D03*
%TO.P,C5,2*%
X64164375Y-105634375D03*
%TD*%
%TO.P,C6,1*%
%TO.N,N/C*%
X80723125Y-105634375D03*
%TO.P,C6,2*%
X81683125Y-105634375D03*
%TD*%
%TO.P,C7,1*%
%TO.N,N/C*%
X98241875Y-105634375D03*
%TO.P,C7,2*%
X99201875Y-105634375D03*
%TD*%
%TO.P,C8,1*%
%TO.N,N/C*%
X115760625Y-105634375D03*
%TO.P,C8,2*%
X116720625Y-105634375D03*
%TD*%
%TO.P,C9,1*%
%TO.N,N/C*%
X133279375Y-105634375D03*
%TO.P,C9,2*%
X134239375Y-105634375D03*
%TD*%
D13*
%TO.P,U1,1*%
%TO.N,N/C*%
X54394375Y-59434375D03*
%TO.P,U1,2*%
X54394375Y-60184375D03*
%TO.P,U1,3*%
X54394375Y-60934375D03*
%TO.P,U1,4*%
X54394375Y-61684375D03*
%TO.P,U1,5*%
X54448375Y-61079375D03*
%TO.P,U1,6*%
X54976375Y-61079375D03*
%TO.P,U1,7*%
X55503375Y-61079375D03*
%TO.P,U1,8*%
X56031375Y-61079375D03*
%TO.P,U1,9*%
X56559375Y-61079375D03*
%TO.P,U1,10*%
X57087375Y-61079375D03*
%TO.P,U1,11*%
X57615375Y-61079375D03*
%TO.P,U1,12*%
X58142375Y-61079375D03*
%TO.P,U1,13*%
X58670375Y-61079375D03*
%TO.P,U1,14*%
X59198375Y-61079375D03*
%TO.P,U1,15*%
X59726375Y-61079375D03*
%TO.P,U1,16*%
X60253375Y-61079375D03*
%TO.P,U1,17*%
X60781375Y-61079375D03*
%TO.P,U1,18*%
X61309375Y-61079375D03*
%TO.P,U1,19*%
X61837375Y-61079375D03*
%TO.P,U1,20*%
X62365375Y-61079375D03*
%TO.P,U1,21*%
X62892375Y-61079375D03*
%TO.P,U1,22*%
X63420375Y-61079375D03*
%TO.P,U1,23*%
X63948375Y-61079375D03*
%TO.P,U1,24*%
X64476375Y-61079375D03*
%TO.P,U1,25*%
X65003375Y-61079375D03*
%TO.P,U1,26*%
X65531375Y-61079375D03*
%TO.P,U1,27*%
X66059375Y-61079375D03*
%TO.P,U1,28*%
X66587375Y-61079375D03*
%TO.P,U1,29*%
X67115375Y-61079375D03*
%TO.P,U1,30*%
X67642375Y-61079375D03*
%TO.P,U1,31*%
X68170375Y-61079375D03*
%TO.P,U1,32*%
X68698375Y-61079375D03*
%TO.P,U1,33*%
X69226375Y-61079375D03*
%TO.P,U1,34*%
X69753375Y-61079375D03*
%TO.P,U1,35*%
X70281375Y-61079375D03*
%TO.P,U1,36*%
X70809375Y-61079375D03*
%TO.P,U1,37*%
X71337375Y-61079375D03*
%TO.P,U1,38*%
X71865375Y-61079375D03*
%TO.P,U1,39*%
X72392375Y-61079375D03*
%TO.P,U1,40*%
X72920375Y-61079375D03*
%TO.P,U1,41*%
X72974375Y-61684375D03*
%TO.P,U1,42*%
X72974375Y-60934375D03*
%TO.P,U1,43*%
X72974375Y-60184375D03*
%TO.P,U1,44*%
X72974375Y-59434375D03*
%TO.P,U1,45*%
X72920375Y-60039375D03*
%TO.P,U1,46*%
X72392375Y-60039375D03*
%TO.P,U1,47*%
X71865375Y-60039375D03*
%TO.P,U1,48*%
X71337375Y-60039375D03*
%TO.P,U1,49*%
X70809375Y-60039375D03*
%TO.P,U1,50*%
X70281375Y-60039375D03*
%TO.P,U1,51*%
X69753375Y-60039375D03*
%TO.P,U1,52*%
X69226375Y-60039375D03*
%TO.P,U1,53*%
X68698375Y-60039375D03*
%TO.P,U1,54*%
X68170375Y-60039375D03*
%TO.P,U1,55*%
X67642375Y-60039375D03*
%TO.P,U1,56*%
X67115375Y-60039375D03*
%TO.P,U1,57*%
X66587375Y-60039375D03*
%TO.P,U1,58*%
X66059375Y-60039375D03*
%TO.P,U1,59*%
X65531375Y-60039375D03*
%TO.P,U1,60*%
X65003375Y-60039375D03*
%TO.P,U1,61*%
X64476375Y-60039375D03*
%TO.P,U1,62*%
X63948375Y-60039375D03*
%TO.P,U1,63*%
X63420375Y-60039375D03*
%TO.P,U1,64*%
X62892375Y-60039375D03*
%TO.P,U1,65*%
X62365375Y-60039375D03*
%TO.P,U1,66*%
X61837375Y-60039375D03*
%TO.P,U1,67*%
X61309375Y-60039375D03*
%TO.P,U1,68*%
X60781375Y-60039375D03*
%TO.P,U1,69*%
X60253375Y-60039375D03*
%TO.P,U1,70*%
X59726375Y-60039375D03*
%TO.P,U1,71*%
X59198375Y-60039375D03*
%TO.P,U1,72*%
X58670375Y-60039375D03*
%TO.P,U1,73*%
X58142375Y-60039375D03*
%TO.P,U1,74*%
X57615375Y-60039375D03*
%TO.P,U1,75*%
X57087375Y-60039375D03*
%TO.P,U1,76*%
X56559375Y-60039375D03*
%TO.P,U1,77*%
X56031375Y-60039375D03*
%TO.P,U1,78*%
X55503375Y-60039375D03*
%TO.P,U1,79*%
X54976375Y-60039375D03*
%TO.P,U1,80*%
X54448375Y-60039375D03*
%TD*%
%TO.P,U2,1*%
%TO.N,N/C*%
X89431875Y-70703125D03*
%TO.P,U2,2*%
X89431875Y-71453125D03*
%TO.P,U2,3*%
X89431875Y-72203125D03*
%TO.P,U2,4*%
X89431875Y-72953125D03*
%TO.P,U2,5*%
X89485875Y-72348125D03*
%TO.P,U2,6*%
X90013875Y-72348125D03*
%TO.P,U2,7*%
X90540875Y-72348125D03*
%TO.P,U2,8*%
X91068875Y-72348125D03*
%TO.P,U2,9*%
X91596875Y-72348125D03*
%TO.P,U2,10*%
X92124875Y-72348125D03*
%TO.P,U2,11*%
X92652875Y-72348125D03*
%TO.P,U2,12*%
X93179875Y-72348125D03*
%TO.P,U2,13*%
X93707875Y-72348125D03*
%TO.P,U2,14*%
X94235875Y-72348125D03*
%TO.P,U2,15*%
X94763875Y-72348125D03*
%TO.P,U2,16*%
X95290875Y-72348125D03*
%TO.P,U2,17*%
X95818875Y-72348125D03*
%TO.P,U2,18*%
X96346875Y-72348125D03*
%TO.P,U2,19*%
X96874875Y-72348125D03*
%TO.P,U2,20*%
X97402875Y-72348125D03*
%TO.P,U2,21*%
X97929875Y-72348125D03*
%TO.P,U2,22*%
X98457875Y-72348125D03*
%TO.P,U2,23*%
X98985875Y-72348125D03*
%TO.P,U2,24*%
X99513875Y-72348125D03*
%TO.P,U2,25*%
X100040875Y-72348125D03*
%TO.P,U2,26*%
X100568875Y-72348125D03*
%TO.P,U2,27*%
X101096875Y-72348125D03*
%TO.P,U2,28*%
X101624875Y-72348125D03*
%TO.P,U2,29*%
X102152875Y-72348125D03*
%TO.P,U2,30*%
X102679875Y-72348125D03*
%TO.P,U2,31*%
X103207875Y-72348125D03*
%TO.P,U2,32*%
X103735875Y-72348125D03*
%TO.P,U2,33*%
X104263875Y-72348125D03*
%TO.P,U2,34*%
X104790875Y-72348125D03*
%TO.P,U2,35*%
X105318875Y-72348125D03*
%TO.P,U2,36*%
X105846875Y-72348125D03*
%TO.P,U2,37*%
X106374875Y-72348125D03*
%TO.P,U2,38*%
X106902875Y-72348125D03*
%TO.P,U2,39*%
X107429875Y-72348125D03*
%TO.P,U2,40*%
X107957875Y-72348125D03*
%TO.P,U2,41*%
X108011875Y-72953125D03*
%TO.P,U2,42*%
X108011875Y-72203125D03*
%TO.P,U2,43*%
X108011875Y-71453125D03*
%TO.P,U2,44*%
X108011875Y-70703125D03*
%TO.P,U2,45*%
X107957875Y-71308125D03*
%TO.P,U2,46*%
X107429875Y-71308125D03*
%TO.P,U2,47*%
X106902875Y-71308125D03*
%TO.P,U2,48*%
X106374875Y-71308125D03*
%TO.P,U2,49*%
X105846875Y-71308125D03*
%TO.P,U2,50*%
X105318875Y-71308125D03*
%TO.P,U2,51*%
X104790875Y-71308125D03*
%TO.P,U2,52*%
X104263875Y-71308125D03*
%TO.P,U2,53*%
X103735875Y-71308125D03*
%TO.P,U2,54*%
X103207875Y-71308125D03*
%TO.P,U2,55*%
X102679875Y-71308125D03*
%TO.P,U2,56*%
X102152875Y-71308125D03*
%TO.P,U2,57*%
X101624875Y-71308125D03*
%TO.P,U2,58*%
X101096875Y-71308125D03*
%TO.P,U2,59*%
X100568875Y-71308125D03*
%TO.P,U2,60*%
X100040875Y-71308125D03*
%TO.P,U2,61*%
X99513875Y-71308125D03*
%TO.P,U2,62*%
X98985875Y-71308125D03*
%TO.P,U2,63*%
X98457875Y-71308125D03*
%TO.P,U2,64*%
X97929875Y-71308125D03*
%TO.P,U2,65*%
X97402875Y-71308125D03*
%TO.P,U2,66*%
X96874875Y-71308125D03*
%TO.P,U2,67*%
X96346875Y-71308125D03*
%TO.P,U2,68*%
X95818875Y-71308125D03*
%TO.P,U2,69*%
X95290875Y-71308125D03*
%TO.P,U2,70*%
X94763875Y-71308125D03*
%TO.P,U2,71*%
X94235875Y-71308125D03*
%TO.P,U2,72*%
X93707875Y-71308125D03*
%TO.P,U2,73*%
X93179875Y-71308125D03*
%TO.P,U2,74*%
X92652875Y-71308125D03*
%TO.P,U2,75*%
X92124875Y-71308125D03*
%TO.P,U2,76*%
X91596875Y-71308125D03*
%TO.P,U2,77*%
X91068875Y-71308125D03*
%TO.P,U2,78*%
X90540875Y-71308125D03*
%TO.P,U2,79*%
X90013875Y-71308125D03*
%TO.P,U2,80*%
X89485875Y-71308125D03*
%TD*%
%TO.P,U16,1*%
%TO.N,N/C*%
X183475625Y-54830375D03*
%TO.P,U16,2*%
X183475625Y-55871375D03*
%TO.P,U16,3*%
X183475625Y-56913375D03*
%TO.P,U16,4*%
X183475625Y-57955375D03*
%TO.P,U16,5*%
X183475625Y-58997375D03*
%TO.P,U16,6*%
X183475625Y-60038375D03*
%TO.P,U16,7*%
X183475625Y-61080375D03*
%TO.P,U16,8*%
X183475625Y-62122375D03*
%TO.P,U16,9*%
X183475625Y-63163375D03*
%TO.P,U16,10*%
X183475625Y-64205375D03*
%TO.P,U16,11*%
X183475625Y-65247375D03*
%TO.P,U16,12*%
X183475625Y-66288375D03*
%TO.P,U16,13*%
X183519625Y-65829375D03*
%TO.P,U16,14*%
X184028625Y-65829375D03*
%TO.P,U16,15*%
X184536625Y-65829375D03*
%TO.P,U16,16*%
X185044625Y-65829375D03*
%TO.P,U16,17*%
X185552625Y-65829375D03*
%TO.P,U16,18*%
X186061625Y-65829375D03*
%TO.P,U16,19*%
X186569625Y-65829375D03*
%TO.P,U16,20*%
X187078625Y-65829375D03*
%TO.P,U16,21*%
X187586625Y-65829375D03*
%TO.P,U16,22*%
X188094625Y-65829375D03*
%TO.P,U16,23*%
X188602625Y-65829375D03*
%TO.P,U16,24*%
X189111625Y-65829375D03*
%TO.P,U16,25*%
X189155625Y-66288375D03*
%TO.P,U16,26*%
X189155625Y-65247375D03*
%TO.P,U16,27*%
X189155625Y-64205375D03*
%TO.P,U16,28*%
X189155625Y-63163375D03*
%TO.P,U16,29*%
X189155625Y-62121375D03*
%TO.P,U16,30*%
X189155625Y-61080375D03*
%TO.P,U16,31*%
X189155625Y-60038375D03*
%TO.P,U16,32*%
X189155625Y-58996375D03*
%TO.P,U16,33*%
X189155625Y-57955375D03*
%TO.P,U16,34*%
X189155625Y-56913375D03*
%TO.P,U16,35*%
X189155625Y-55871375D03*
%TO.P,U16,36*%
X189155625Y-54830375D03*
%TO.P,U16,37*%
X189111625Y-55289375D03*
%TO.P,U16,38*%
%TO.N,PVDD*%
X188602625Y-55289375D03*
%TO.P,U16,39*%
%TO.N,N/C*%
X188094625Y-55289375D03*
%TO.P,U16,40*%
%TO.N,GVDD*%
X187586625Y-55289375D03*
%TO.P,U16,41*%
%TO.N,N/C*%
X187078625Y-55289375D03*
%TO.P,U16,42*%
X186569625Y-55289375D03*
%TO.P,U16,43*%
X186061625Y-55289375D03*
%TO.P,U16,44*%
X185552625Y-55289375D03*
%TO.P,U16,45*%
X185044625Y-55289375D03*
%TO.P,U16,46*%
X184536625Y-55289375D03*
%TO.P,U16,47*%
X184028625Y-55289375D03*
%TO.P,U16,48*%
X183519625Y-55289375D03*
%TD*%
%TO.P,U17,1*%
%TO.N,N/C*%
X60844375Y-66099125D03*
%TO.P,U17,2*%
X60844375Y-67140125D03*
%TO.P,U17,3*%
X60844375Y-68182125D03*
%TO.P,U17,4*%
X60844375Y-69224125D03*
%TO.P,U17,5*%
X60844375Y-70266125D03*
%TO.P,U17,6*%
X60844375Y-71307125D03*
%TO.P,U17,7*%
X60844375Y-72349125D03*
%TO.P,U17,8*%
X60844375Y-73391125D03*
%TO.P,U17,9*%
X60844375Y-74432125D03*
%TO.P,U17,10*%
X60844375Y-75474125D03*
%TO.P,U17,11*%
X60844375Y-76516125D03*
%TO.P,U17,12*%
X60844375Y-77557125D03*
%TO.P,U17,13*%
X60888375Y-77098125D03*
%TO.P,U17,14*%
X61397375Y-77098125D03*
%TO.P,U17,15*%
X61905375Y-77098125D03*
%TO.P,U17,16*%
X62413375Y-77098125D03*
%TO.P,U17,17*%
X62921375Y-77098125D03*
%TO.P,U17,18*%
X63430375Y-77098125D03*
%TO.P,U17,19*%
X63938375Y-77098125D03*
%TO.P,U17,20*%
X64447375Y-77098125D03*
%TO.P,U17,21*%
X64955375Y-77098125D03*
%TO.P,U17,22*%
X65463375Y-77098125D03*
%TO.P,U17,23*%
X65971375Y-77098125D03*
%TO.P,U17,24*%
X66480375Y-77098125D03*
%TO.P,U17,25*%
X66524375Y-77557125D03*
%TO.P,U17,26*%
X66524375Y-76516125D03*
%TO.P,U17,27*%
X66524375Y-75474125D03*
%TO.P,U17,28*%
X66524375Y-74432125D03*
%TO.P,U17,29*%
X66524375Y-73390125D03*
%TO.P,U17,30*%
X66524375Y-72349125D03*
%TO.P,U17,31*%
X66524375Y-71307125D03*
%TO.P,U17,32*%
X66524375Y-70265125D03*
%TO.P,U17,33*%
X66524375Y-69224125D03*
%TO.P,U17,34*%
X66524375Y-68182125D03*
%TO.P,U17,35*%
X66524375Y-67140125D03*
%TO.P,U17,36*%
X66524375Y-66099125D03*
%TO.P,U17,37*%
X66480375Y-66558125D03*
%TO.P,U17,38*%
%TO.N,PVDD*%
X65971375Y-66558125D03*
%TO.P,U17,39*%
%TO.N,N/C*%
X65463375Y-66558125D03*
%TO.P,U17,40*%
%TO.N,GVDD*%
X64955375Y-66558125D03*
%TO.P,U17,41*%
%TO.N,N/C*%
X64447375Y-66558125D03*
%TO.P,U17,42*%
X63938375Y-66558125D03*
%TO.P,U17,43*%
X63430375Y-66558125D03*
%TO.P,U17,44*%
X62921375Y-66558125D03*
%TO.P,U17,45*%
X62413375Y-66558125D03*
%TO.P,U17,46*%
X61905375Y-66558125D03*
%TO.P,U17,47*%
X61397375Y-66558125D03*
%TO.P,U17,48*%
X60888375Y-66558125D03*
%TD*%
%TO.P,U13,1*%
%TO.N,N/C*%
X130919375Y-54830375D03*
%TO.P,U13,2*%
X130919375Y-55871375D03*
%TO.P,U13,3*%
X130919375Y-56913375D03*
%TO.P,U13,4*%
X130919375Y-57955375D03*
%TO.P,U13,5*%
X130919375Y-58997375D03*
%TO.P,U13,6*%
X130919375Y-60038375D03*
%TO.P,U13,7*%
X130919375Y-61080375D03*
%TO.P,U13,8*%
X130919375Y-62122375D03*
%TO.P,U13,9*%
X130919375Y-63163375D03*
%TO.P,U13,10*%
X130919375Y-64205375D03*
%TO.P,U13,11*%
X130919375Y-65247375D03*
%TO.P,U13,12*%
X130919375Y-66288375D03*
%TO.P,U13,13*%
X130963375Y-65829375D03*
%TO.P,U13,14*%
X131472375Y-65829375D03*
%TO.P,U13,15*%
X131980375Y-65829375D03*
%TO.P,U13,16*%
X132488375Y-65829375D03*
%TO.P,U13,17*%
X132996375Y-65829375D03*
%TO.P,U13,18*%
X133505375Y-65829375D03*
%TO.P,U13,19*%
X134013375Y-65829375D03*
%TO.P,U13,20*%
X134522375Y-65829375D03*
%TO.P,U13,21*%
X135030375Y-65829375D03*
%TO.P,U13,22*%
X135538375Y-65829375D03*
%TO.P,U13,23*%
X136046375Y-65829375D03*
%TO.P,U13,24*%
X136555375Y-65829375D03*
%TO.P,U13,25*%
X136599375Y-66288375D03*
%TO.P,U13,26*%
X136599375Y-65247375D03*
%TO.P,U13,27*%
X136599375Y-64205375D03*
%TO.P,U13,28*%
X136599375Y-63163375D03*
%TO.P,U13,29*%
X136599375Y-62121375D03*
%TO.P,U13,30*%
X136599375Y-61080375D03*
%TO.P,U13,31*%
X136599375Y-60038375D03*
%TO.P,U13,32*%
X136599375Y-58996375D03*
%TO.P,U13,33*%
X136599375Y-57955375D03*
%TO.P,U13,34*%
X136599375Y-56913375D03*
%TO.P,U13,35*%
X136599375Y-55871375D03*
%TO.P,U13,36*%
X136599375Y-54830375D03*
%TO.P,U13,37*%
X136555375Y-55289375D03*
%TO.P,U13,38*%
%TO.N,PVDD*%
X136046375Y-55289375D03*
%TO.P,U13,39*%
%TO.N,N/C*%
X135538375Y-55289375D03*
%TO.P,U13,40*%
%TO.N,GVDD*%
X135030375Y-55289375D03*
%TO.P,U13,41*%
%TO.N,N/C*%
X134522375Y-55289375D03*
%TO.P,U13,42*%
X134013375Y-55289375D03*
%TO.P,U13,43*%
X133505375Y-55289375D03*
%TO.P,U13,44*%
X132996375Y-55289375D03*
%TO.P,U13,45*%
X132488375Y-55289375D03*
%TO.P,U13,46*%
X131980375Y-55289375D03*
%TO.P,U13,47*%
X131472375Y-55289375D03*
%TO.P,U13,48*%
X130963375Y-55289375D03*
%TD*%
%TO.P,U18,1*%
%TO.N,N/C*%
X78363125Y-66099125D03*
%TO.P,U18,2*%
X78363125Y-67140125D03*
%TO.P,U18,3*%
X78363125Y-68182125D03*
%TO.P,U18,4*%
X78363125Y-69224125D03*
%TO.P,U18,5*%
X78363125Y-70266125D03*
%TO.P,U18,6*%
X78363125Y-71307125D03*
%TO.P,U18,7*%
X78363125Y-72349125D03*
%TO.P,U18,8*%
X78363125Y-73391125D03*
%TO.P,U18,9*%
X78363125Y-74432125D03*
%TO.P,U18,10*%
X78363125Y-75474125D03*
%TO.P,U18,11*%
X78363125Y-76516125D03*
%TO.P,U18,12*%
X78363125Y-77557125D03*
%TO.P,U18,13*%
X78407125Y-77098125D03*
%TO.P,U18,14*%
X78916125Y-77098125D03*
%TO.P,U18,15*%
X79424125Y-77098125D03*
%TO.P,U18,16*%
X79932125Y-77098125D03*
%TO.P,U18,17*%
X80440125Y-77098125D03*
%TO.P,U18,18*%
X80949125Y-77098125D03*
%TO.P,U18,19*%
X81457125Y-77098125D03*
%TO.P,U18,20*%
X81966125Y-77098125D03*
%TO.P,U18,21*%
X82474125Y-77098125D03*
%TO.P,U18,22*%
X82982125Y-77098125D03*
%TO.P,U18,23*%
X83490125Y-77098125D03*
%TO.P,U18,24*%
X83999125Y-77098125D03*
%TO.P,U18,25*%
X84043125Y-77557125D03*
%TO.P,U18,26*%
X84043125Y-76516125D03*
%TO.P,U18,27*%
X84043125Y-75474125D03*
%TO.P,U18,28*%
X84043125Y-74432125D03*
%TO.P,U18,29*%
X84043125Y-73390125D03*
%TO.P,U18,30*%
X84043125Y-72349125D03*
%TO.P,U18,31*%
X84043125Y-71307125D03*
%TO.P,U18,32*%
X84043125Y-70265125D03*
%TO.P,U18,33*%
X84043125Y-69224125D03*
%TO.P,U18,34*%
X84043125Y-68182125D03*
%TO.P,U18,35*%
X84043125Y-67140125D03*
%TO.P,U18,36*%
X84043125Y-66099125D03*
%TO.P,U18,37*%
X83999125Y-66558125D03*
%TO.P,U18,38*%
%TO.N,PVDD*%
X83490125Y-66558125D03*
%TO.P,U18,39*%
%TO.N,N/C*%
X82982125Y-66558125D03*
%TO.P,U18,40*%
%TO.N,GVDD*%
X82474125Y-66558125D03*
%TO.P,U18,41*%
%TO.N,N/C*%
X81966125Y-66558125D03*
%TO.P,U18,42*%
X81457125Y-66558125D03*
%TO.P,U18,43*%
X80949125Y-66558125D03*
%TO.P,U18,44*%
X80440125Y-66558125D03*
%TO.P,U18,45*%
X79932125Y-66558125D03*
%TO.P,U18,46*%
X79424125Y-66558125D03*
%TO.P,U18,47*%
X78916125Y-66558125D03*
%TO.P,U18,48*%
X78407125Y-66558125D03*
%TD*%
%TO.P,U14,1*%
%TO.N,N/C*%
X148438125Y-54830375D03*
%TO.P,U14,2*%
X148438125Y-55871375D03*
%TO.P,U14,3*%
X148438125Y-56913375D03*
%TO.P,U14,4*%
X148438125Y-57955375D03*
%TO.P,U14,5*%
X148438125Y-58997375D03*
%TO.P,U14,6*%
X148438125Y-60038375D03*
%TO.P,U14,7*%
X148438125Y-61080375D03*
%TO.P,U14,8*%
X148438125Y-62122375D03*
%TO.P,U14,9*%
X148438125Y-63163375D03*
%TO.P,U14,10*%
X148438125Y-64205375D03*
%TO.P,U14,11*%
X148438125Y-65247375D03*
%TO.P,U14,12*%
X148438125Y-66288375D03*
%TO.P,U14,13*%
X148482125Y-65829375D03*
%TO.P,U14,14*%
X148991125Y-65829375D03*
%TO.P,U14,15*%
X149499125Y-65829375D03*
%TO.P,U14,16*%
X150007125Y-65829375D03*
%TO.P,U14,17*%
X150515125Y-65829375D03*
%TO.P,U14,18*%
X151024125Y-65829375D03*
%TO.P,U14,19*%
X151532125Y-65829375D03*
%TO.P,U14,20*%
X152041125Y-65829375D03*
%TO.P,U14,21*%
X152549125Y-65829375D03*
%TO.P,U14,22*%
X153057125Y-65829375D03*
%TO.P,U14,23*%
X153565125Y-65829375D03*
%TO.P,U14,24*%
X154074125Y-65829375D03*
%TO.P,U14,25*%
X154118125Y-66288375D03*
%TO.P,U14,26*%
X154118125Y-65247375D03*
%TO.P,U14,27*%
X154118125Y-64205375D03*
%TO.P,U14,28*%
X154118125Y-63163375D03*
%TO.P,U14,29*%
X154118125Y-62121375D03*
%TO.P,U14,30*%
X154118125Y-61080375D03*
%TO.P,U14,31*%
X154118125Y-60038375D03*
%TO.P,U14,32*%
X154118125Y-58996375D03*
%TO.P,U14,33*%
X154118125Y-57955375D03*
%TO.P,U14,34*%
X154118125Y-56913375D03*
%TO.P,U14,35*%
X154118125Y-55871375D03*
%TO.P,U14,36*%
X154118125Y-54830375D03*
%TO.P,U14,37*%
X154074125Y-55289375D03*
%TO.P,U14,38*%
%TO.N,PVDD*%
X153565125Y-55289375D03*
%TO.P,U14,39*%
%TO.N,N/C*%
X153057125Y-55289375D03*
%TO.P,U14,40*%
%TO.N,GVDD*%
X152549125Y-55289375D03*
%TO.P,U14,41*%
%TO.N,N/C*%
X152041125Y-55289375D03*
%TO.P,U14,42*%
X151532125Y-55289375D03*
%TO.P,U14,43*%
X151024125Y-55289375D03*
%TO.P,U14,44*%
X150515125Y-55289375D03*
%TO.P,U14,45*%
X150007125Y-55289375D03*
%TO.P,U14,46*%
X149499125Y-55289375D03*
%TO.P,U14,47*%
X148991125Y-55289375D03*
%TO.P,U14,48*%
X148482125Y-55289375D03*
%TD*%
%TO.P,U15,1*%
%TO.N,N/C*%
X165956875Y-54830375D03*
%TO.P,U15,2*%
X165956875Y-55871375D03*
%TO.P,U15,3*%
X165956875Y-56913375D03*
%TO.P,U15,4*%
X165956875Y-57955375D03*
%TO.P,U15,5*%
X165956875Y-58997375D03*
%TO.P,U15,6*%
X165956875Y-60038375D03*
%TO.P,U15,7*%
X165956875Y-61080375D03*
%TO.P,U15,8*%
X165956875Y-62122375D03*
%TO.P,U15,9*%
X165956875Y-63163375D03*
%TO.P,U15,10*%
X165956875Y-64205375D03*
%TO.P,U15,11*%
X165956875Y-65247375D03*
%TO.P,U15,12*%
X165956875Y-66288375D03*
%TO.P,U15,13*%
X166000875Y-65829375D03*
%TO.P,U15,14*%
X166509875Y-65829375D03*
%TO.P,U15,15*%
X167017875Y-65829375D03*
%TO.P,U15,16*%
X167525875Y-65829375D03*
%TO.P,U15,17*%
X168033875Y-65829375D03*
%TO.P,U15,18*%
X168542875Y-65829375D03*
%TO.P,U15,19*%
X169050875Y-65829375D03*
%TO.P,U15,20*%
X169559875Y-65829375D03*
%TO.P,U15,21*%
X170067875Y-65829375D03*
%TO.P,U15,22*%
X170575875Y-65829375D03*
%TO.P,U15,23*%
X171083875Y-65829375D03*
%TO.P,U15,24*%
X171592875Y-65829375D03*
%TO.P,U15,25*%
X171636875Y-66288375D03*
%TO.P,U15,26*%
X171636875Y-65247375D03*
%TO.P,U15,27*%
X171636875Y-64205375D03*
%TO.P,U15,28*%
X171636875Y-63163375D03*
%TO.P,U15,29*%
X171636875Y-62121375D03*
%TO.P,U15,30*%
X171636875Y-61080375D03*
%TO.P,U15,31*%
X171636875Y-60038375D03*
%TO.P,U15,32*%
X171636875Y-58996375D03*
%TO.P,U15,33*%
X171636875Y-57955375D03*
%TO.P,U15,34*%
X171636875Y-56913375D03*
%TO.P,U15,35*%
X171636875Y-55871375D03*
%TO.P,U15,36*%
X171636875Y-54830375D03*
%TO.P,U15,37*%
X171592875Y-55289375D03*
%TO.P,U15,38*%
%TO.N,PVDD*%
X171083875Y-55289375D03*
%TO.P,U15,39*%
%TO.N,N/C*%
X170575875Y-55289375D03*
%TO.P,U15,40*%
%TO.N,GVDD*%
X170067875Y-55289375D03*
%TO.P,U15,41*%
%TO.N,N/C*%
X169559875Y-55289375D03*
%TO.P,U15,42*%
X169050875Y-55289375D03*
%TO.P,U15,43*%
X168542875Y-55289375D03*
%TO.P,U15,44*%
X168033875Y-55289375D03*
%TO.P,U15,45*%
X167525875Y-55289375D03*
%TO.P,U15,46*%
X167017875Y-55289375D03*
%TO.P,U15,47*%
X166509875Y-55289375D03*
%TO.P,U15,48*%
X166000875Y-55289375D03*
%TD*%
D14*
%TO.P,R1,1*%
%TO.N,N/C*%
X80693125Y-128171875D03*
%TO.P,R1,2*%
X81713125Y-128171875D03*
%TD*%
%TO.P,R2,1*%
%TO.N,N/C*%
X133249375Y-128171875D03*
%TO.P,R2,2*%
X134269375Y-128171875D03*
%TD*%
%TO.P,R3,1*%
%TO.N,N/C*%
X150768125Y-128171875D03*
%TO.P,R3,2*%
X151788125Y-128171875D03*
%TD*%
%TO.P,R4,1*%
%TO.N,N/C*%
X168286875Y-128171875D03*
%TO.P,R4,2*%
X169306875Y-128171875D03*
%TD*%
%TO.P,R5,1*%
%TO.N,N/C*%
X185805625Y-128171875D03*
%TO.P,R5,2*%
X186825625Y-128171875D03*
%TD*%
D15*
%TO.P,R10,1*%
%TO.N,N/C*%
X95759375Y-128171875D03*
%TO.P,R10,2*%
X101684375Y-128171875D03*
%TD*%
%TO.P,R11,1*%
%TO.N,N/C*%
X113278125Y-128171875D03*
%TO.P,R11,2*%
X119203125Y-128171875D03*
%TD*%
%TO.P,R6,1*%
%TO.N,N/C*%
X60721875Y-139440625D03*
%TO.P,R6,2*%
X66646875Y-139440625D03*
%TD*%
%TO.P,R7,1*%
%TO.N,N/C*%
X78240625Y-139440625D03*
%TO.P,R7,2*%
X84165625Y-139440625D03*
%TD*%
%TO.P,R8,1*%
%TO.N,N/C*%
X95759375Y-139440625D03*
%TO.P,R8,2*%
X101684375Y-139440625D03*
%TD*%
%TO.P,R9,1*%
%TO.N,N/C*%
X113278125Y-139440625D03*
%TO.P,R9,2*%
X119203125Y-139440625D03*
%TD*%
D10*
%TO.P,U6,1*%
%TO.N,N/C*%
X130539375Y-80034875D03*
%TO.P,U6,2*%
X130539375Y-80908875D03*
%TO.P,U6,3*%
X130539375Y-81784875D03*
%TO.P,U6,4*%
X130539375Y-82658875D03*
%TO.P,U6,5*%
X130539375Y-83534875D03*
%TO.P,U6,6*%
X130539375Y-84408875D03*
%TO.P,U6,7*%
X130539375Y-85284875D03*
%TO.P,U6,8*%
X130539375Y-86158875D03*
%TO.P,U6,9*%
X130697375Y-85616875D03*
%TO.P,U6,10*%
X131571375Y-85616875D03*
%TO.P,U6,11*%
X132447375Y-85616875D03*
%TO.P,U6,12*%
X133321375Y-85616875D03*
%TO.P,U6,13*%
X134197375Y-85616875D03*
%TO.P,U6,14*%
X135071375Y-85616875D03*
%TO.P,U6,15*%
X135947375Y-85616875D03*
%TO.P,U6,16*%
X136821375Y-85616875D03*
%TO.P,U6,17*%
X136979375Y-86158875D03*
%TO.P,U6,18*%
X136979375Y-85284875D03*
%TO.P,U6,19*%
X136979375Y-84408875D03*
%TO.P,U6,20*%
X136979375Y-83534875D03*
%TO.P,U6,21*%
X136979375Y-82658875D03*
%TO.P,U6,22*%
X136979375Y-81784875D03*
%TO.P,U6,23*%
X136979375Y-80908875D03*
%TO.P,U6,24*%
X136979375Y-80034875D03*
%TO.P,U6,25*%
X136821375Y-80576875D03*
%TO.P,U6,26*%
X135947375Y-80576875D03*
%TO.P,U6,27*%
X135071375Y-80576875D03*
%TO.P,U6,28*%
X134197375Y-80576875D03*
%TO.P,U6,29*%
X133321375Y-80576875D03*
%TO.P,U6,30*%
X132447375Y-80576875D03*
%TO.P,U6,31*%
X131571375Y-80576875D03*
%TO.P,U6,32*%
X130697375Y-80576875D03*
%TD*%
D16*
%TO.P,U3,1*%
%TO.N,N/C*%
X62154375Y-81871875D03*
%TO.P,U3,2*%
X62154375Y-84321875D03*
%TO.P,U3,3*%
X62222375Y-84356875D03*
%TO.P,U3,4*%
X63196375Y-84356875D03*
%TO.P,U3,5*%
X64172375Y-84356875D03*
%TO.P,U3,6*%
X65147375Y-84356875D03*
%TO.P,U3,7*%
X65214375Y-84321875D03*
%TO.P,U3,8*%
X65214375Y-81871875D03*
%TD*%
%TO.P,U5,1*%
%TO.N,N/C*%
X114710625Y-81871875D03*
%TO.P,U5,2*%
X114710625Y-84321875D03*
%TO.P,U5,3*%
X114778625Y-84356875D03*
%TO.P,U5,4*%
X115752625Y-84356875D03*
%TO.P,U5,5*%
X116728625Y-84356875D03*
%TO.P,U5,6*%
X117703625Y-84356875D03*
%TO.P,U5,7*%
X117770625Y-84321875D03*
%TO.P,U5,8*%
X117770625Y-81871875D03*
%TD*%
D17*
%TO.P,Q1,1*%
%TO.N,N/C*%
X147678125Y-105634375D03*
%TO.P,Q1,2*%
X147945125Y-107884375D03*
%TO.P,Q1,3*%
X151278125Y-107884375D03*
%TD*%
%TO.P,Q10,1*%
%TO.N,N/C*%
X165196875Y-105634375D03*
%TO.P,Q10,2*%
X165463875Y-107884375D03*
%TO.P,Q10,3*%
X168796875Y-107884375D03*
%TD*%
%TO.P,Q11,1*%
%TO.N,N/C*%
X182715625Y-105634375D03*
%TO.P,Q11,2*%
X182982625Y-107884375D03*
%TO.P,Q11,3*%
X186315625Y-107884375D03*
%TD*%
%TO.P,Q12,1*%
%TO.N,N/C*%
X60084375Y-116903125D03*
%TO.P,Q12,2*%
X60351375Y-119153125D03*
%TO.P,Q12,3*%
X63684375Y-119153125D03*
%TD*%
%TO.P,Q2,1*%
%TO.N,N/C*%
X77603125Y-116903125D03*
%TO.P,Q2,2*%
X77870125Y-119153125D03*
%TO.P,Q2,3*%
X81203125Y-119153125D03*
%TD*%
%TO.P,Q3,1*%
%TO.N,N/C*%
X95121875Y-116903125D03*
%TO.P,Q3,2*%
X95388875Y-119153125D03*
%TO.P,Q3,3*%
X98721875Y-119153125D03*
%TD*%
%TO.P,Q4,1*%
%TO.N,N/C*%
X112640625Y-116903125D03*
%TO.P,Q4,2*%
X112907625Y-119153125D03*
%TO.P,Q4,3*%
X116240625Y-119153125D03*
%TD*%
%TO.P,Q5,1*%
%TO.N,N/C*%
X130159375Y-116903125D03*
%TO.P,Q5,2*%
X130426375Y-119153125D03*
%TO.P,Q5,3*%
X133759375Y-119153125D03*
%TD*%
%TO.P,Q6,1*%
%TO.N,N/C*%
X147678125Y-116903125D03*
%TO.P,Q6,2*%
X147945125Y-119153125D03*
%TO.P,Q6,3*%
X151278125Y-119153125D03*
%TD*%
%TO.P,Q7,1*%
%TO.N,N/C*%
X165196875Y-116903125D03*
%TO.P,Q7,2*%
X165463875Y-119153125D03*
%TO.P,Q7,3*%
X168796875Y-119153125D03*
%TD*%
%TO.P,Q8,1*%
%TO.N,N/C*%
X182715625Y-116903125D03*
%TO.P,Q8,2*%
X182982625Y-119153125D03*
%TO.P,Q8,3*%
X186315625Y-119153125D03*
%TD*%
%TO.P,Q9,1*%
%TO.N,N/C*%
X60084375Y-128171875D03*
%TO.P,Q9,2*%
X60351375Y-130421875D03*
%TO.P,Q9,3*%
X63684375Y-130421875D03*
%TD*%
D18*
%TO.P,C11,1*%
%TO.N,N/C*%
X94521875Y-94365625D03*
%TO.P,C11,2*%
X102921875Y-94365625D03*
%TD*%
%TO.P,C12,1*%
%TO.N,N/C*%
X112040625Y-94365625D03*
%TO.P,C12,2*%
X120440625Y-94365625D03*
%TD*%
%TO.P,C13,1*%
%TO.N,N/C*%
X129559375Y-94365625D03*
%TO.P,C13,2*%
X137959375Y-94365625D03*
%TD*%
D19*
%TO.P,U10,1*%
%TO.N,N/C*%
X79913125Y-59434375D03*
%TO.P,U10,2*%
X79913125Y-60184375D03*
%TO.P,U10,3*%
X79913125Y-60934375D03*
%TO.P,U10,4*%
X79913125Y-61684375D03*
%TO.P,U10,5*%
X80078125Y-61639375D03*
%TO.P,U10,6*%
X80828125Y-61639375D03*
%TO.P,U10,7*%
X81578125Y-61639375D03*
%TO.P,U10,8*%
X82328125Y-61639375D03*
%TO.P,U10,9*%
X82493125Y-61684375D03*
%TO.P,U10,10*%
X82493125Y-60934375D03*
%TO.P,U10,11*%
X82493125Y-60184375D03*
%TO.P,U10,12*%
X82493125Y-59434375D03*
%TO.P,U10,13*%
X82328125Y-59479375D03*
%TO.P,U10,14*%
X81578125Y-59479375D03*
%TO.P,U10,15*%
X80828125Y-59479375D03*
%TO.P,U10,16*%
X80078125Y-59479375D03*
%TD*%
%TO.P,U7,1*%
%TO.N,N/C*%
X149988125Y-81971875D03*
%TO.P,U7,2*%
X149988125Y-82721875D03*
%TO.P,U7,3*%
X149988125Y-83471875D03*
%TO.P,U7,4*%
X149988125Y-84221875D03*
%TO.P,U7,5*%
X150153125Y-84176875D03*
%TO.P,U7,6*%
X150903125Y-84176875D03*
%TO.P,U7,7*%
X151653125Y-84176875D03*
%TO.P,U7,8*%
X152403125Y-84176875D03*
%TO.P,U7,9*%
X152568125Y-84221875D03*
%TO.P,U7,10*%
X152568125Y-83471875D03*
%TO.P,U7,11*%
X152568125Y-82721875D03*
%TO.P,U7,12*%
X152568125Y-81971875D03*
%TO.P,U7,13*%
X152403125Y-82016875D03*
%TO.P,U7,14*%
X151653125Y-82016875D03*
%TO.P,U7,15*%
X150903125Y-82016875D03*
%TO.P,U7,16*%
X150153125Y-82016875D03*
%TD*%
%TO.P,U8,1*%
%TO.N,N/C*%
X167506875Y-81971875D03*
%TO.P,U8,2*%
X167506875Y-82721875D03*
%TO.P,U8,3*%
X167506875Y-83471875D03*
%TO.P,U8,4*%
X167506875Y-84221875D03*
%TO.P,U8,5*%
X167671875Y-84176875D03*
%TO.P,U8,6*%
X168421875Y-84176875D03*
%TO.P,U8,7*%
X169171875Y-84176875D03*
%TO.P,U8,8*%
X169921875Y-84176875D03*
%TO.P,U8,9*%
X170086875Y-84221875D03*
%TO.P,U8,10*%
X170086875Y-83471875D03*
%TO.P,U8,11*%
X170086875Y-82721875D03*
%TO.P,U8,12*%
X170086875Y-81971875D03*
%TO.P,U8,13*%
X169921875Y-82016875D03*
%TO.P,U8,14*%
X169171875Y-82016875D03*
%TO.P,U8,15*%
X168421875Y-82016875D03*
%TO.P,U8,16*%
X167671875Y-82016875D03*
%TD*%
%TO.P,U9,1*%
%TO.N,N/C*%
X185025625Y-81971875D03*
%TO.P,U9,2*%
X185025625Y-82721875D03*
%TO.P,U9,3*%
X185025625Y-83471875D03*
%TO.P,U9,4*%
X185025625Y-84221875D03*
%TO.P,U9,5*%
X185190625Y-84176875D03*
%TO.P,U9,6*%
X185940625Y-84176875D03*
%TO.P,U9,7*%
X186690625Y-84176875D03*
%TO.P,U9,8*%
X187440625Y-84176875D03*
%TO.P,U9,9*%
X187605625Y-84221875D03*
%TO.P,U9,10*%
X187605625Y-83471875D03*
%TO.P,U9,11*%
X187605625Y-82721875D03*
%TO.P,U9,12*%
X187605625Y-81971875D03*
%TO.P,U9,13*%
X187440625Y-82016875D03*
%TO.P,U9,14*%
X186690625Y-82016875D03*
%TO.P,U9,15*%
X185940625Y-82016875D03*
%TO.P,U9,16*%
X185190625Y-82016875D03*
%TD*%
%TO.P,U11,1*%
%TO.N,N/C*%
X97431875Y-59434375D03*
%TO.P,U11,2*%
X97431875Y-60184375D03*
%TO.P,U11,3*%
X97431875Y-60934375D03*
%TO.P,U11,4*%
X97431875Y-61684375D03*
%TO.P,U11,5*%
X97596875Y-61639375D03*
%TO.P,U11,6*%
X98346875Y-61639375D03*
%TO.P,U11,7*%
X99096875Y-61639375D03*
%TO.P,U11,8*%
X99846875Y-61639375D03*
%TO.P,U11,9*%
X100011875Y-61684375D03*
%TO.P,U11,10*%
X100011875Y-60934375D03*
%TO.P,U11,11*%
X100011875Y-60184375D03*
%TO.P,U11,12*%
X100011875Y-59434375D03*
%TO.P,U11,13*%
X99846875Y-59479375D03*
%TO.P,U11,14*%
X99096875Y-59479375D03*
%TO.P,U11,15*%
X98346875Y-59479375D03*
%TO.P,U11,16*%
X97596875Y-59479375D03*
%TD*%
%TO.P,U12,1*%
%TO.N,N/C*%
X114950625Y-59434375D03*
%TO.P,U12,2*%
X114950625Y-60184375D03*
%TO.P,U12,3*%
X114950625Y-60934375D03*
%TO.P,U12,4*%
X114950625Y-61684375D03*
%TO.P,U12,5*%
X115115625Y-61639375D03*
%TO.P,U12,6*%
X115865625Y-61639375D03*
%TO.P,U12,7*%
X116615625Y-61639375D03*
%TO.P,U12,8*%
X117365625Y-61639375D03*
%TO.P,U12,9*%
X117530625Y-61684375D03*
%TO.P,U12,10*%
X117530625Y-60934375D03*
%TO.P,U12,11*%
X117530625Y-60184375D03*
%TO.P,U12,12*%
X117530625Y-59434375D03*
%TO.P,U12,13*%
X117365625Y-59479375D03*
%TO.P,U12,14*%
X116615625Y-59479375D03*
%TO.P,U12,15*%
X115865625Y-59479375D03*
%TO.P,U12,16*%
X115115625Y-59479375D03*
%TD*%
M02*
