%TF.GenerationSoftware,KiCad,Pcbnew,10.0.5*%
%TF.CreationDate,2026-08-03T20:27:53-07:00*%
%TF.ProjectId,palpod-extender-sbc-routed,70616c70-6f64-42d6-9578-74656e646572,A0*%
%TF.SameCoordinates,Original*%
%TF.FileFunction,AssemblyDrawing,Top*%
%FSLAX46Y46*%
G04 Gerber Fmt 4.6, Leading zero omitted, Abs format (unit mm)*
G04 Created by KiCad (PCBNEW 10.0.5) date 2026-08-03 20:27:53*
%MOMM*%
%LPD*%
G01*
G04 APERTURE LIST*
%ADD10C,0.150000*%
%ADD11C,0.060000*%
%ADD12C,0.040000*%
%ADD13C,0.100000*%
G04 APERTURE END LIST*
D10*
X54964880Y-18299580D02*
X54917261Y-18347200D01*
X54917261Y-18347200D02*
X54774404Y-18394819D01*
X54774404Y-18394819D02*
X54679166Y-18394819D01*
X54679166Y-18394819D02*
X54536309Y-18347200D01*
X54536309Y-18347200D02*
X54441071Y-18251961D01*
X54441071Y-18251961D02*
X54393452Y-18156723D01*
X54393452Y-18156723D02*
X54345833Y-17966247D01*
X54345833Y-17966247D02*
X54345833Y-17823390D01*
X54345833Y-17823390D02*
X54393452Y-17632914D01*
X54393452Y-17632914D02*
X54441071Y-17537676D01*
X54441071Y-17537676D02*
X54536309Y-17442438D01*
X54536309Y-17442438D02*
X54679166Y-17394819D01*
X54679166Y-17394819D02*
X54774404Y-17394819D01*
X54774404Y-17394819D02*
X54917261Y-17442438D01*
X54917261Y-17442438D02*
X54964880Y-17490057D01*
X55345833Y-18347200D02*
X55488690Y-18394819D01*
X55488690Y-18394819D02*
X55726785Y-18394819D01*
X55726785Y-18394819D02*
X55822023Y-18347200D01*
X55822023Y-18347200D02*
X55869642Y-18299580D01*
X55869642Y-18299580D02*
X55917261Y-18204342D01*
X55917261Y-18204342D02*
X55917261Y-18109104D01*
X55917261Y-18109104D02*
X55869642Y-18013866D01*
X55869642Y-18013866D02*
X55822023Y-17966247D01*
X55822023Y-17966247D02*
X55726785Y-17918628D01*
X55726785Y-17918628D02*
X55536309Y-17871009D01*
X55536309Y-17871009D02*
X55441071Y-17823390D01*
X55441071Y-17823390D02*
X55393452Y-17775771D01*
X55393452Y-17775771D02*
X55345833Y-17680533D01*
X55345833Y-17680533D02*
X55345833Y-17585295D01*
X55345833Y-17585295D02*
X55393452Y-17490057D01*
X55393452Y-17490057D02*
X55441071Y-17442438D01*
X55441071Y-17442438D02*
X55536309Y-17394819D01*
X55536309Y-17394819D02*
X55774404Y-17394819D01*
X55774404Y-17394819D02*
X55917261Y-17442438D01*
X56774404Y-17728152D02*
X56774404Y-18394819D01*
X56536309Y-17347200D02*
X56298214Y-18061485D01*
X56298214Y-18061485D02*
X56917261Y-18061485D01*
X57202976Y-17394819D02*
X57822023Y-17394819D01*
X57822023Y-17394819D02*
X57488690Y-17775771D01*
X57488690Y-17775771D02*
X57631547Y-17775771D01*
X57631547Y-17775771D02*
X57726785Y-17823390D01*
X57726785Y-17823390D02*
X57774404Y-17871009D01*
X57774404Y-17871009D02*
X57822023Y-17966247D01*
X57822023Y-17966247D02*
X57822023Y-18204342D01*
X57822023Y-18204342D02*
X57774404Y-18299580D01*
X57774404Y-18299580D02*
X57726785Y-18347200D01*
X57726785Y-18347200D02*
X57631547Y-18394819D01*
X57631547Y-18394819D02*
X57345833Y-18394819D01*
X57345833Y-18394819D02*
X57250595Y-18347200D01*
X57250595Y-18347200D02*
X57202976Y-18299580D01*
X58774404Y-18394819D02*
X58202976Y-18394819D01*
X58488690Y-18394819D02*
X58488690Y-17394819D01*
X58488690Y-17394819D02*
X58393452Y-17537676D01*
X58393452Y-17537676D02*
X58298214Y-17632914D01*
X58298214Y-17632914D02*
X58202976Y-17680533D01*
X59250595Y-18394819D02*
X59441071Y-18394819D01*
X59441071Y-18394819D02*
X59536309Y-18347200D01*
X59536309Y-18347200D02*
X59583928Y-18299580D01*
X59583928Y-18299580D02*
X59679166Y-18156723D01*
X59679166Y-18156723D02*
X59726785Y-17966247D01*
X59726785Y-17966247D02*
X59726785Y-17585295D01*
X59726785Y-17585295D02*
X59679166Y-17490057D01*
X59679166Y-17490057D02*
X59631547Y-17442438D01*
X59631547Y-17442438D02*
X59536309Y-17394819D01*
X59536309Y-17394819D02*
X59345833Y-17394819D01*
X59345833Y-17394819D02*
X59250595Y-17442438D01*
X59250595Y-17442438D02*
X59202976Y-17490057D01*
X59202976Y-17490057D02*
X59155357Y-17585295D01*
X59155357Y-17585295D02*
X59155357Y-17823390D01*
X59155357Y-17823390D02*
X59202976Y-17918628D01*
X59202976Y-17918628D02*
X59250595Y-17966247D01*
X59250595Y-17966247D02*
X59345833Y-18013866D01*
X59345833Y-18013866D02*
X59536309Y-18013866D01*
X59536309Y-18013866D02*
X59631547Y-17966247D01*
X59631547Y-17966247D02*
X59679166Y-17918628D01*
X59679166Y-17918628D02*
X59726785Y-17823390D01*
X60298214Y-17823390D02*
X60202976Y-17775771D01*
X60202976Y-17775771D02*
X60155357Y-17728152D01*
X60155357Y-17728152D02*
X60107738Y-17632914D01*
X60107738Y-17632914D02*
X60107738Y-17585295D01*
X60107738Y-17585295D02*
X60155357Y-17490057D01*
X60155357Y-17490057D02*
X60202976Y-17442438D01*
X60202976Y-17442438D02*
X60298214Y-17394819D01*
X60298214Y-17394819D02*
X60488690Y-17394819D01*
X60488690Y-17394819D02*
X60583928Y-17442438D01*
X60583928Y-17442438D02*
X60631547Y-17490057D01*
X60631547Y-17490057D02*
X60679166Y-17585295D01*
X60679166Y-17585295D02*
X60679166Y-17632914D01*
X60679166Y-17632914D02*
X60631547Y-17728152D01*
X60631547Y-17728152D02*
X60583928Y-17775771D01*
X60583928Y-17775771D02*
X60488690Y-17823390D01*
X60488690Y-17823390D02*
X60298214Y-17823390D01*
X60298214Y-17823390D02*
X60202976Y-17871009D01*
X60202976Y-17871009D02*
X60155357Y-17918628D01*
X60155357Y-17918628D02*
X60107738Y-18013866D01*
X60107738Y-18013866D02*
X60107738Y-18204342D01*
X60107738Y-18204342D02*
X60155357Y-18299580D01*
X60155357Y-18299580D02*
X60202976Y-18347200D01*
X60202976Y-18347200D02*
X60298214Y-18394819D01*
X60298214Y-18394819D02*
X60488690Y-18394819D01*
X60488690Y-18394819D02*
X60583928Y-18347200D01*
X60583928Y-18347200D02*
X60631547Y-18299580D01*
X60631547Y-18299580D02*
X60679166Y-18204342D01*
X60679166Y-18204342D02*
X60679166Y-18013866D01*
X60679166Y-18013866D02*
X60631547Y-17918628D01*
X60631547Y-17918628D02*
X60583928Y-17871009D01*
X60583928Y-17871009D02*
X60488690Y-17823390D01*
X6532738Y-38257200D02*
X6675595Y-38304819D01*
X6675595Y-38304819D02*
X6913690Y-38304819D01*
X6913690Y-38304819D02*
X7008928Y-38257200D01*
X7008928Y-38257200D02*
X7056547Y-38209580D01*
X7056547Y-38209580D02*
X7104166Y-38114342D01*
X7104166Y-38114342D02*
X7104166Y-38019104D01*
X7104166Y-38019104D02*
X7056547Y-37923866D01*
X7056547Y-37923866D02*
X7008928Y-37876247D01*
X7008928Y-37876247D02*
X6913690Y-37828628D01*
X6913690Y-37828628D02*
X6723214Y-37781009D01*
X6723214Y-37781009D02*
X6627976Y-37733390D01*
X6627976Y-37733390D02*
X6580357Y-37685771D01*
X6580357Y-37685771D02*
X6532738Y-37590533D01*
X6532738Y-37590533D02*
X6532738Y-37495295D01*
X6532738Y-37495295D02*
X6580357Y-37400057D01*
X6580357Y-37400057D02*
X6627976Y-37352438D01*
X6627976Y-37352438D02*
X6723214Y-37304819D01*
X6723214Y-37304819D02*
X6961309Y-37304819D01*
X6961309Y-37304819D02*
X7104166Y-37352438D01*
X7389881Y-37304819D02*
X7961309Y-37304819D01*
X7675595Y-38304819D02*
X7675595Y-37304819D01*
X8294643Y-38304819D02*
X8294643Y-37304819D01*
X8294643Y-37304819D02*
X8627976Y-38019104D01*
X8627976Y-38019104D02*
X8961309Y-37304819D01*
X8961309Y-37304819D02*
X8961309Y-38304819D01*
X9342262Y-37304819D02*
X9961309Y-37304819D01*
X9961309Y-37304819D02*
X9627976Y-37685771D01*
X9627976Y-37685771D02*
X9770833Y-37685771D01*
X9770833Y-37685771D02*
X9866071Y-37733390D01*
X9866071Y-37733390D02*
X9913690Y-37781009D01*
X9913690Y-37781009D02*
X9961309Y-37876247D01*
X9961309Y-37876247D02*
X9961309Y-38114342D01*
X9961309Y-38114342D02*
X9913690Y-38209580D01*
X9913690Y-38209580D02*
X9866071Y-38257200D01*
X9866071Y-38257200D02*
X9770833Y-38304819D01*
X9770833Y-38304819D02*
X9485119Y-38304819D01*
X9485119Y-38304819D02*
X9389881Y-38257200D01*
X9389881Y-38257200D02*
X9342262Y-38209580D01*
X10342262Y-37400057D02*
X10389881Y-37352438D01*
X10389881Y-37352438D02*
X10485119Y-37304819D01*
X10485119Y-37304819D02*
X10723214Y-37304819D01*
X10723214Y-37304819D02*
X10818452Y-37352438D01*
X10818452Y-37352438D02*
X10866071Y-37400057D01*
X10866071Y-37400057D02*
X10913690Y-37495295D01*
X10913690Y-37495295D02*
X10913690Y-37590533D01*
X10913690Y-37590533D02*
X10866071Y-37733390D01*
X10866071Y-37733390D02*
X10294643Y-38304819D01*
X10294643Y-38304819D02*
X10913690Y-38304819D01*
X11866071Y-37352438D02*
X11770833Y-37304819D01*
X11770833Y-37304819D02*
X11627976Y-37304819D01*
X11627976Y-37304819D02*
X11485119Y-37352438D01*
X11485119Y-37352438D02*
X11389881Y-37447676D01*
X11389881Y-37447676D02*
X11342262Y-37542914D01*
X11342262Y-37542914D02*
X11294643Y-37733390D01*
X11294643Y-37733390D02*
X11294643Y-37876247D01*
X11294643Y-37876247D02*
X11342262Y-38066723D01*
X11342262Y-38066723D02*
X11389881Y-38161961D01*
X11389881Y-38161961D02*
X11485119Y-38257200D01*
X11485119Y-38257200D02*
X11627976Y-38304819D01*
X11627976Y-38304819D02*
X11723214Y-38304819D01*
X11723214Y-38304819D02*
X11866071Y-38257200D01*
X11866071Y-38257200D02*
X11913690Y-38209580D01*
X11913690Y-38209580D02*
X11913690Y-37876247D01*
X11913690Y-37876247D02*
X11723214Y-37876247D01*
X12532738Y-37304819D02*
X12627976Y-37304819D01*
X12627976Y-37304819D02*
X12723214Y-37352438D01*
X12723214Y-37352438D02*
X12770833Y-37400057D01*
X12770833Y-37400057D02*
X12818452Y-37495295D01*
X12818452Y-37495295D02*
X12866071Y-37685771D01*
X12866071Y-37685771D02*
X12866071Y-37923866D01*
X12866071Y-37923866D02*
X12818452Y-38114342D01*
X12818452Y-38114342D02*
X12770833Y-38209580D01*
X12770833Y-38209580D02*
X12723214Y-38257200D01*
X12723214Y-38257200D02*
X12627976Y-38304819D01*
X12627976Y-38304819D02*
X12532738Y-38304819D01*
X12532738Y-38304819D02*
X12437500Y-38257200D01*
X12437500Y-38257200D02*
X12389881Y-38209580D01*
X12389881Y-38209580D02*
X12342262Y-38114342D01*
X12342262Y-38114342D02*
X12294643Y-37923866D01*
X12294643Y-37923866D02*
X12294643Y-37685771D01*
X12294643Y-37685771D02*
X12342262Y-37495295D01*
X12342262Y-37495295D02*
X12389881Y-37400057D01*
X12389881Y-37400057D02*
X12437500Y-37352438D01*
X12437500Y-37352438D02*
X12532738Y-37304819D01*
X13199405Y-37304819D02*
X13866071Y-37304819D01*
X13866071Y-37304819D02*
X13437500Y-38304819D01*
X14770833Y-38304819D02*
X14199405Y-38304819D01*
X14485119Y-38304819D02*
X14485119Y-37304819D01*
X14485119Y-37304819D02*
X14389881Y-37447676D01*
X14389881Y-37447676D02*
X14294643Y-37542914D01*
X14294643Y-37542914D02*
X14199405Y-37590533D01*
X15199405Y-38304819D02*
X15199405Y-37304819D01*
X15770833Y-38304819D02*
X15342262Y-37733390D01*
X15770833Y-37304819D02*
X15199405Y-37876247D01*
X16532738Y-37781009D02*
X16675595Y-37828628D01*
X16675595Y-37828628D02*
X16723214Y-37876247D01*
X16723214Y-37876247D02*
X16770833Y-37971485D01*
X16770833Y-37971485D02*
X16770833Y-38114342D01*
X16770833Y-38114342D02*
X16723214Y-38209580D01*
X16723214Y-38209580D02*
X16675595Y-38257200D01*
X16675595Y-38257200D02*
X16580357Y-38304819D01*
X16580357Y-38304819D02*
X16199405Y-38304819D01*
X16199405Y-38304819D02*
X16199405Y-37304819D01*
X16199405Y-37304819D02*
X16532738Y-37304819D01*
X16532738Y-37304819D02*
X16627976Y-37352438D01*
X16627976Y-37352438D02*
X16675595Y-37400057D01*
X16675595Y-37400057D02*
X16723214Y-37495295D01*
X16723214Y-37495295D02*
X16723214Y-37590533D01*
X16723214Y-37590533D02*
X16675595Y-37685771D01*
X16675595Y-37685771D02*
X16627976Y-37733390D01*
X16627976Y-37733390D02*
X16532738Y-37781009D01*
X16532738Y-37781009D02*
X16199405Y-37781009D01*
X17056548Y-37304819D02*
X17627976Y-37304819D01*
X17342262Y-38304819D02*
X17342262Y-37304819D01*
X17866072Y-38304819D02*
X18389881Y-37638152D01*
X17866072Y-37638152D02*
X18389881Y-38304819D01*
X11675595Y-31424819D02*
X11675595Y-32234342D01*
X11675595Y-32234342D02*
X11723214Y-32329580D01*
X11723214Y-32329580D02*
X11770833Y-32377200D01*
X11770833Y-32377200D02*
X11866071Y-32424819D01*
X11866071Y-32424819D02*
X12056547Y-32424819D01*
X12056547Y-32424819D02*
X12151785Y-32377200D01*
X12151785Y-32377200D02*
X12199404Y-32329580D01*
X12199404Y-32329580D02*
X12247023Y-32234342D01*
X12247023Y-32234342D02*
X12247023Y-31424819D01*
X12866071Y-31853390D02*
X12770833Y-31805771D01*
X12770833Y-31805771D02*
X12723214Y-31758152D01*
X12723214Y-31758152D02*
X12675595Y-31662914D01*
X12675595Y-31662914D02*
X12675595Y-31615295D01*
X12675595Y-31615295D02*
X12723214Y-31520057D01*
X12723214Y-31520057D02*
X12770833Y-31472438D01*
X12770833Y-31472438D02*
X12866071Y-31424819D01*
X12866071Y-31424819D02*
X13056547Y-31424819D01*
X13056547Y-31424819D02*
X13151785Y-31472438D01*
X13151785Y-31472438D02*
X13199404Y-31520057D01*
X13199404Y-31520057D02*
X13247023Y-31615295D01*
X13247023Y-31615295D02*
X13247023Y-31662914D01*
X13247023Y-31662914D02*
X13199404Y-31758152D01*
X13199404Y-31758152D02*
X13151785Y-31805771D01*
X13151785Y-31805771D02*
X13056547Y-31853390D01*
X13056547Y-31853390D02*
X12866071Y-31853390D01*
X12866071Y-31853390D02*
X12770833Y-31901009D01*
X12770833Y-31901009D02*
X12723214Y-31948628D01*
X12723214Y-31948628D02*
X12675595Y-32043866D01*
X12675595Y-32043866D02*
X12675595Y-32234342D01*
X12675595Y-32234342D02*
X12723214Y-32329580D01*
X12723214Y-32329580D02*
X12770833Y-32377200D01*
X12770833Y-32377200D02*
X12866071Y-32424819D01*
X12866071Y-32424819D02*
X13056547Y-32424819D01*
X13056547Y-32424819D02*
X13151785Y-32377200D01*
X13151785Y-32377200D02*
X13199404Y-32329580D01*
X13199404Y-32329580D02*
X13247023Y-32234342D01*
X13247023Y-32234342D02*
X13247023Y-32043866D01*
X13247023Y-32043866D02*
X13199404Y-31948628D01*
X13199404Y-31948628D02*
X13151785Y-31901009D01*
X13151785Y-31901009D02*
X13056547Y-31853390D01*
X84181547Y-18194819D02*
X83848214Y-17718628D01*
X83610119Y-18194819D02*
X83610119Y-17194819D01*
X83610119Y-17194819D02*
X83991071Y-17194819D01*
X83991071Y-17194819D02*
X84086309Y-17242438D01*
X84086309Y-17242438D02*
X84133928Y-17290057D01*
X84133928Y-17290057D02*
X84181547Y-17385295D01*
X84181547Y-17385295D02*
X84181547Y-17528152D01*
X84181547Y-17528152D02*
X84133928Y-17623390D01*
X84133928Y-17623390D02*
X84086309Y-17671009D01*
X84086309Y-17671009D02*
X83991071Y-17718628D01*
X83991071Y-17718628D02*
X83610119Y-17718628D01*
X84467262Y-17194819D02*
X85038690Y-17194819D01*
X84752976Y-18194819D02*
X84752976Y-17194819D01*
X85848214Y-18194819D02*
X85372024Y-18194819D01*
X85372024Y-18194819D02*
X85372024Y-17194819D01*
X86324405Y-17623390D02*
X86229167Y-17575771D01*
X86229167Y-17575771D02*
X86181548Y-17528152D01*
X86181548Y-17528152D02*
X86133929Y-17432914D01*
X86133929Y-17432914D02*
X86133929Y-17385295D01*
X86133929Y-17385295D02*
X86181548Y-17290057D01*
X86181548Y-17290057D02*
X86229167Y-17242438D01*
X86229167Y-17242438D02*
X86324405Y-17194819D01*
X86324405Y-17194819D02*
X86514881Y-17194819D01*
X86514881Y-17194819D02*
X86610119Y-17242438D01*
X86610119Y-17242438D02*
X86657738Y-17290057D01*
X86657738Y-17290057D02*
X86705357Y-17385295D01*
X86705357Y-17385295D02*
X86705357Y-17432914D01*
X86705357Y-17432914D02*
X86657738Y-17528152D01*
X86657738Y-17528152D02*
X86610119Y-17575771D01*
X86610119Y-17575771D02*
X86514881Y-17623390D01*
X86514881Y-17623390D02*
X86324405Y-17623390D01*
X86324405Y-17623390D02*
X86229167Y-17671009D01*
X86229167Y-17671009D02*
X86181548Y-17718628D01*
X86181548Y-17718628D02*
X86133929Y-17813866D01*
X86133929Y-17813866D02*
X86133929Y-18004342D01*
X86133929Y-18004342D02*
X86181548Y-18099580D01*
X86181548Y-18099580D02*
X86229167Y-18147200D01*
X86229167Y-18147200D02*
X86324405Y-18194819D01*
X86324405Y-18194819D02*
X86514881Y-18194819D01*
X86514881Y-18194819D02*
X86610119Y-18147200D01*
X86610119Y-18147200D02*
X86657738Y-18099580D01*
X86657738Y-18099580D02*
X86705357Y-18004342D01*
X86705357Y-18004342D02*
X86705357Y-17813866D01*
X86705357Y-17813866D02*
X86657738Y-17718628D01*
X86657738Y-17718628D02*
X86610119Y-17671009D01*
X86610119Y-17671009D02*
X86514881Y-17623390D01*
X87657738Y-18194819D02*
X87086310Y-18194819D01*
X87372024Y-18194819D02*
X87372024Y-17194819D01*
X87372024Y-17194819D02*
X87276786Y-17337676D01*
X87276786Y-17337676D02*
X87181548Y-17432914D01*
X87181548Y-17432914D02*
X87086310Y-17480533D01*
X88038691Y-17290057D02*
X88086310Y-17242438D01*
X88086310Y-17242438D02*
X88181548Y-17194819D01*
X88181548Y-17194819D02*
X88419643Y-17194819D01*
X88419643Y-17194819D02*
X88514881Y-17242438D01*
X88514881Y-17242438D02*
X88562500Y-17290057D01*
X88562500Y-17290057D02*
X88610119Y-17385295D01*
X88610119Y-17385295D02*
X88610119Y-17480533D01*
X88610119Y-17480533D02*
X88562500Y-17623390D01*
X88562500Y-17623390D02*
X87991072Y-18194819D01*
X87991072Y-18194819D02*
X88610119Y-18194819D01*
X89514881Y-17194819D02*
X89038691Y-17194819D01*
X89038691Y-17194819D02*
X88991072Y-17671009D01*
X88991072Y-17671009D02*
X89038691Y-17623390D01*
X89038691Y-17623390D02*
X89133929Y-17575771D01*
X89133929Y-17575771D02*
X89372024Y-17575771D01*
X89372024Y-17575771D02*
X89467262Y-17623390D01*
X89467262Y-17623390D02*
X89514881Y-17671009D01*
X89514881Y-17671009D02*
X89562500Y-17766247D01*
X89562500Y-17766247D02*
X89562500Y-18004342D01*
X89562500Y-18004342D02*
X89514881Y-18099580D01*
X89514881Y-18099580D02*
X89467262Y-18147200D01*
X89467262Y-18147200D02*
X89372024Y-18194819D01*
X89372024Y-18194819D02*
X89133929Y-18194819D01*
X89133929Y-18194819D02*
X89038691Y-18147200D01*
X89038691Y-18147200D02*
X88991072Y-18099580D01*
X90324405Y-17671009D02*
X90467262Y-17718628D01*
X90467262Y-17718628D02*
X90514881Y-17766247D01*
X90514881Y-17766247D02*
X90562500Y-17861485D01*
X90562500Y-17861485D02*
X90562500Y-18004342D01*
X90562500Y-18004342D02*
X90514881Y-18099580D01*
X90514881Y-18099580D02*
X90467262Y-18147200D01*
X90467262Y-18147200D02*
X90372024Y-18194819D01*
X90372024Y-18194819D02*
X89991072Y-18194819D01*
X89991072Y-18194819D02*
X89991072Y-17194819D01*
X89991072Y-17194819D02*
X90324405Y-17194819D01*
X90324405Y-17194819D02*
X90419643Y-17242438D01*
X90419643Y-17242438D02*
X90467262Y-17290057D01*
X90467262Y-17290057D02*
X90514881Y-17385295D01*
X90514881Y-17385295D02*
X90514881Y-17480533D01*
X90514881Y-17480533D02*
X90467262Y-17575771D01*
X90467262Y-17575771D02*
X90419643Y-17623390D01*
X90419643Y-17623390D02*
X90324405Y-17671009D01*
X90324405Y-17671009D02*
X89991072Y-17671009D01*
X91514881Y-17242438D02*
X91419643Y-17194819D01*
X91419643Y-17194819D02*
X91276786Y-17194819D01*
X91276786Y-17194819D02*
X91133929Y-17242438D01*
X91133929Y-17242438D02*
X91038691Y-17337676D01*
X91038691Y-17337676D02*
X90991072Y-17432914D01*
X90991072Y-17432914D02*
X90943453Y-17623390D01*
X90943453Y-17623390D02*
X90943453Y-17766247D01*
X90943453Y-17766247D02*
X90991072Y-17956723D01*
X90991072Y-17956723D02*
X91038691Y-18051961D01*
X91038691Y-18051961D02*
X91133929Y-18147200D01*
X91133929Y-18147200D02*
X91276786Y-18194819D01*
X91276786Y-18194819D02*
X91372024Y-18194819D01*
X91372024Y-18194819D02*
X91514881Y-18147200D01*
X91514881Y-18147200D02*
X91562500Y-18099580D01*
X91562500Y-18099580D02*
X91562500Y-17766247D01*
X91562500Y-17766247D02*
X91372024Y-17766247D01*
X86800595Y-13394819D02*
X86800595Y-14204342D01*
X86800595Y-14204342D02*
X86848214Y-14299580D01*
X86848214Y-14299580D02*
X86895833Y-14347200D01*
X86895833Y-14347200D02*
X86991071Y-14394819D01*
X86991071Y-14394819D02*
X87181547Y-14394819D01*
X87181547Y-14394819D02*
X87276785Y-14347200D01*
X87276785Y-14347200D02*
X87324404Y-14299580D01*
X87324404Y-14299580D02*
X87372023Y-14204342D01*
X87372023Y-14204342D02*
X87372023Y-13394819D01*
X87752976Y-13394819D02*
X88419642Y-13394819D01*
X88419642Y-13394819D02*
X87991071Y-14394819D01*
X25843452Y-20394819D02*
X25510119Y-19918628D01*
X25272024Y-20394819D02*
X25272024Y-19394819D01*
X25272024Y-19394819D02*
X25652976Y-19394819D01*
X25652976Y-19394819D02*
X25748214Y-19442438D01*
X25748214Y-19442438D02*
X25795833Y-19490057D01*
X25795833Y-19490057D02*
X25843452Y-19585295D01*
X25843452Y-19585295D02*
X25843452Y-19728152D01*
X25843452Y-19728152D02*
X25795833Y-19823390D01*
X25795833Y-19823390D02*
X25748214Y-19871009D01*
X25748214Y-19871009D02*
X25652976Y-19918628D01*
X25652976Y-19918628D02*
X25272024Y-19918628D01*
X26272024Y-20394819D02*
X26272024Y-19394819D01*
X26843452Y-20394819D02*
X26414881Y-19823390D01*
X26843452Y-19394819D02*
X26272024Y-19966247D01*
X27414881Y-19823390D02*
X27319643Y-19775771D01*
X27319643Y-19775771D02*
X27272024Y-19728152D01*
X27272024Y-19728152D02*
X27224405Y-19632914D01*
X27224405Y-19632914D02*
X27224405Y-19585295D01*
X27224405Y-19585295D02*
X27272024Y-19490057D01*
X27272024Y-19490057D02*
X27319643Y-19442438D01*
X27319643Y-19442438D02*
X27414881Y-19394819D01*
X27414881Y-19394819D02*
X27605357Y-19394819D01*
X27605357Y-19394819D02*
X27700595Y-19442438D01*
X27700595Y-19442438D02*
X27748214Y-19490057D01*
X27748214Y-19490057D02*
X27795833Y-19585295D01*
X27795833Y-19585295D02*
X27795833Y-19632914D01*
X27795833Y-19632914D02*
X27748214Y-19728152D01*
X27748214Y-19728152D02*
X27700595Y-19775771D01*
X27700595Y-19775771D02*
X27605357Y-19823390D01*
X27605357Y-19823390D02*
X27414881Y-19823390D01*
X27414881Y-19823390D02*
X27319643Y-19871009D01*
X27319643Y-19871009D02*
X27272024Y-19918628D01*
X27272024Y-19918628D02*
X27224405Y-20013866D01*
X27224405Y-20013866D02*
X27224405Y-20204342D01*
X27224405Y-20204342D02*
X27272024Y-20299580D01*
X27272024Y-20299580D02*
X27319643Y-20347200D01*
X27319643Y-20347200D02*
X27414881Y-20394819D01*
X27414881Y-20394819D02*
X27605357Y-20394819D01*
X27605357Y-20394819D02*
X27700595Y-20347200D01*
X27700595Y-20347200D02*
X27748214Y-20299580D01*
X27748214Y-20299580D02*
X27795833Y-20204342D01*
X27795833Y-20204342D02*
X27795833Y-20013866D01*
X27795833Y-20013866D02*
X27748214Y-19918628D01*
X27748214Y-19918628D02*
X27700595Y-19871009D01*
X27700595Y-19871009D02*
X27605357Y-19823390D01*
X28414881Y-19394819D02*
X28510119Y-19394819D01*
X28510119Y-19394819D02*
X28605357Y-19442438D01*
X28605357Y-19442438D02*
X28652976Y-19490057D01*
X28652976Y-19490057D02*
X28700595Y-19585295D01*
X28700595Y-19585295D02*
X28748214Y-19775771D01*
X28748214Y-19775771D02*
X28748214Y-20013866D01*
X28748214Y-20013866D02*
X28700595Y-20204342D01*
X28700595Y-20204342D02*
X28652976Y-20299580D01*
X28652976Y-20299580D02*
X28605357Y-20347200D01*
X28605357Y-20347200D02*
X28510119Y-20394819D01*
X28510119Y-20394819D02*
X28414881Y-20394819D01*
X28414881Y-20394819D02*
X28319643Y-20347200D01*
X28319643Y-20347200D02*
X28272024Y-20299580D01*
X28272024Y-20299580D02*
X28224405Y-20204342D01*
X28224405Y-20204342D02*
X28176786Y-20013866D01*
X28176786Y-20013866D02*
X28176786Y-19775771D01*
X28176786Y-19775771D02*
X28224405Y-19585295D01*
X28224405Y-19585295D02*
X28272024Y-19490057D01*
X28272024Y-19490057D02*
X28319643Y-19442438D01*
X28319643Y-19442438D02*
X28414881Y-19394819D01*
X29605357Y-19394819D02*
X29414881Y-19394819D01*
X29414881Y-19394819D02*
X29319643Y-19442438D01*
X29319643Y-19442438D02*
X29272024Y-19490057D01*
X29272024Y-19490057D02*
X29176786Y-19632914D01*
X29176786Y-19632914D02*
X29129167Y-19823390D01*
X29129167Y-19823390D02*
X29129167Y-20204342D01*
X29129167Y-20204342D02*
X29176786Y-20299580D01*
X29176786Y-20299580D02*
X29224405Y-20347200D01*
X29224405Y-20347200D02*
X29319643Y-20394819D01*
X29319643Y-20394819D02*
X29510119Y-20394819D01*
X29510119Y-20394819D02*
X29605357Y-20347200D01*
X29605357Y-20347200D02*
X29652976Y-20299580D01*
X29652976Y-20299580D02*
X29700595Y-20204342D01*
X29700595Y-20204342D02*
X29700595Y-19966247D01*
X29700595Y-19966247D02*
X29652976Y-19871009D01*
X29652976Y-19871009D02*
X29605357Y-19823390D01*
X29605357Y-19823390D02*
X29510119Y-19775771D01*
X29510119Y-19775771D02*
X29319643Y-19775771D01*
X29319643Y-19775771D02*
X29224405Y-19823390D01*
X29224405Y-19823390D02*
X29176786Y-19871009D01*
X29176786Y-19871009D02*
X29129167Y-19966247D01*
X10342261Y-28394819D02*
X10008928Y-27918628D01*
X9770833Y-28394819D02*
X9770833Y-27394819D01*
X9770833Y-27394819D02*
X10151785Y-27394819D01*
X10151785Y-27394819D02*
X10247023Y-27442438D01*
X10247023Y-27442438D02*
X10294642Y-27490057D01*
X10294642Y-27490057D02*
X10342261Y-27585295D01*
X10342261Y-27585295D02*
X10342261Y-27728152D01*
X10342261Y-27728152D02*
X10294642Y-27823390D01*
X10294642Y-27823390D02*
X10247023Y-27871009D01*
X10247023Y-27871009D02*
X10151785Y-27918628D01*
X10151785Y-27918628D02*
X9770833Y-27918628D01*
X10770833Y-28394819D02*
X10770833Y-27394819D01*
X11342261Y-28394819D02*
X10913690Y-27823390D01*
X11342261Y-27394819D02*
X10770833Y-27966247D01*
X11675595Y-27394819D02*
X12294642Y-27394819D01*
X12294642Y-27394819D02*
X11961309Y-27775771D01*
X11961309Y-27775771D02*
X12104166Y-27775771D01*
X12104166Y-27775771D02*
X12199404Y-27823390D01*
X12199404Y-27823390D02*
X12247023Y-27871009D01*
X12247023Y-27871009D02*
X12294642Y-27966247D01*
X12294642Y-27966247D02*
X12294642Y-28204342D01*
X12294642Y-28204342D02*
X12247023Y-28299580D01*
X12247023Y-28299580D02*
X12199404Y-28347200D01*
X12199404Y-28347200D02*
X12104166Y-28394819D01*
X12104166Y-28394819D02*
X11818452Y-28394819D01*
X11818452Y-28394819D02*
X11723214Y-28347200D01*
X11723214Y-28347200D02*
X11675595Y-28299580D01*
X13199404Y-27394819D02*
X12723214Y-27394819D01*
X12723214Y-27394819D02*
X12675595Y-27871009D01*
X12675595Y-27871009D02*
X12723214Y-27823390D01*
X12723214Y-27823390D02*
X12818452Y-27775771D01*
X12818452Y-27775771D02*
X13056547Y-27775771D01*
X13056547Y-27775771D02*
X13151785Y-27823390D01*
X13151785Y-27823390D02*
X13199404Y-27871009D01*
X13199404Y-27871009D02*
X13247023Y-27966247D01*
X13247023Y-27966247D02*
X13247023Y-28204342D01*
X13247023Y-28204342D02*
X13199404Y-28299580D01*
X13199404Y-28299580D02*
X13151785Y-28347200D01*
X13151785Y-28347200D02*
X13056547Y-28394819D01*
X13056547Y-28394819D02*
X12818452Y-28394819D01*
X12818452Y-28394819D02*
X12723214Y-28347200D01*
X12723214Y-28347200D02*
X12675595Y-28299580D01*
X13818452Y-27823390D02*
X13723214Y-27775771D01*
X13723214Y-27775771D02*
X13675595Y-27728152D01*
X13675595Y-27728152D02*
X13627976Y-27632914D01*
X13627976Y-27632914D02*
X13627976Y-27585295D01*
X13627976Y-27585295D02*
X13675595Y-27490057D01*
X13675595Y-27490057D02*
X13723214Y-27442438D01*
X13723214Y-27442438D02*
X13818452Y-27394819D01*
X13818452Y-27394819D02*
X14008928Y-27394819D01*
X14008928Y-27394819D02*
X14104166Y-27442438D01*
X14104166Y-27442438D02*
X14151785Y-27490057D01*
X14151785Y-27490057D02*
X14199404Y-27585295D01*
X14199404Y-27585295D02*
X14199404Y-27632914D01*
X14199404Y-27632914D02*
X14151785Y-27728152D01*
X14151785Y-27728152D02*
X14104166Y-27775771D01*
X14104166Y-27775771D02*
X14008928Y-27823390D01*
X14008928Y-27823390D02*
X13818452Y-27823390D01*
X13818452Y-27823390D02*
X13723214Y-27871009D01*
X13723214Y-27871009D02*
X13675595Y-27918628D01*
X13675595Y-27918628D02*
X13627976Y-28013866D01*
X13627976Y-28013866D02*
X13627976Y-28204342D01*
X13627976Y-28204342D02*
X13675595Y-28299580D01*
X13675595Y-28299580D02*
X13723214Y-28347200D01*
X13723214Y-28347200D02*
X13818452Y-28394819D01*
X13818452Y-28394819D02*
X14008928Y-28394819D01*
X14008928Y-28394819D02*
X14104166Y-28347200D01*
X14104166Y-28347200D02*
X14151785Y-28299580D01*
X14151785Y-28299580D02*
X14199404Y-28204342D01*
X14199404Y-28204342D02*
X14199404Y-28013866D01*
X14199404Y-28013866D02*
X14151785Y-27918628D01*
X14151785Y-27918628D02*
X14104166Y-27871009D01*
X14104166Y-27871009D02*
X14008928Y-27823390D01*
X14770833Y-27823390D02*
X14675595Y-27775771D01*
X14675595Y-27775771D02*
X14627976Y-27728152D01*
X14627976Y-27728152D02*
X14580357Y-27632914D01*
X14580357Y-27632914D02*
X14580357Y-27585295D01*
X14580357Y-27585295D02*
X14627976Y-27490057D01*
X14627976Y-27490057D02*
X14675595Y-27442438D01*
X14675595Y-27442438D02*
X14770833Y-27394819D01*
X14770833Y-27394819D02*
X14961309Y-27394819D01*
X14961309Y-27394819D02*
X15056547Y-27442438D01*
X15056547Y-27442438D02*
X15104166Y-27490057D01*
X15104166Y-27490057D02*
X15151785Y-27585295D01*
X15151785Y-27585295D02*
X15151785Y-27632914D01*
X15151785Y-27632914D02*
X15104166Y-27728152D01*
X15104166Y-27728152D02*
X15056547Y-27775771D01*
X15056547Y-27775771D02*
X14961309Y-27823390D01*
X14961309Y-27823390D02*
X14770833Y-27823390D01*
X14770833Y-27823390D02*
X14675595Y-27871009D01*
X14675595Y-27871009D02*
X14627976Y-27918628D01*
X14627976Y-27918628D02*
X14580357Y-28013866D01*
X14580357Y-28013866D02*
X14580357Y-28204342D01*
X14580357Y-28204342D02*
X14627976Y-28299580D01*
X14627976Y-28299580D02*
X14675595Y-28347200D01*
X14675595Y-28347200D02*
X14770833Y-28394819D01*
X14770833Y-28394819D02*
X14961309Y-28394819D01*
X14961309Y-28394819D02*
X15056547Y-28347200D01*
X15056547Y-28347200D02*
X15104166Y-28299580D01*
X15104166Y-28299580D02*
X15151785Y-28204342D01*
X15151785Y-28204342D02*
X15151785Y-28013866D01*
X15151785Y-28013866D02*
X15104166Y-27918628D01*
X15104166Y-27918628D02*
X15056547Y-27871009D01*
X15056547Y-27871009D02*
X14961309Y-27823390D01*
X38844643Y-45424819D02*
X38844643Y-44424819D01*
X38844643Y-44424819D02*
X39225595Y-44424819D01*
X39225595Y-44424819D02*
X39320833Y-44472438D01*
X39320833Y-44472438D02*
X39368452Y-44520057D01*
X39368452Y-44520057D02*
X39416071Y-44615295D01*
X39416071Y-44615295D02*
X39416071Y-44758152D01*
X39416071Y-44758152D02*
X39368452Y-44853390D01*
X39368452Y-44853390D02*
X39320833Y-44901009D01*
X39320833Y-44901009D02*
X39225595Y-44948628D01*
X39225595Y-44948628D02*
X38844643Y-44948628D01*
X40130357Y-44424819D02*
X40130357Y-45139104D01*
X40130357Y-45139104D02*
X40082738Y-45281961D01*
X40082738Y-45281961D02*
X39987500Y-45377200D01*
X39987500Y-45377200D02*
X39844643Y-45424819D01*
X39844643Y-45424819D02*
X39749405Y-45424819D01*
X40606548Y-45043866D02*
X41368453Y-45043866D01*
X42035119Y-44424819D02*
X42130357Y-44424819D01*
X42130357Y-44424819D02*
X42225595Y-44472438D01*
X42225595Y-44472438D02*
X42273214Y-44520057D01*
X42273214Y-44520057D02*
X42320833Y-44615295D01*
X42320833Y-44615295D02*
X42368452Y-44805771D01*
X42368452Y-44805771D02*
X42368452Y-45043866D01*
X42368452Y-45043866D02*
X42320833Y-45234342D01*
X42320833Y-45234342D02*
X42273214Y-45329580D01*
X42273214Y-45329580D02*
X42225595Y-45377200D01*
X42225595Y-45377200D02*
X42130357Y-45424819D01*
X42130357Y-45424819D02*
X42035119Y-45424819D01*
X42035119Y-45424819D02*
X41939881Y-45377200D01*
X41939881Y-45377200D02*
X41892262Y-45329580D01*
X41892262Y-45329580D02*
X41844643Y-45234342D01*
X41844643Y-45234342D02*
X41797024Y-45043866D01*
X41797024Y-45043866D02*
X41797024Y-44805771D01*
X41797024Y-44805771D02*
X41844643Y-44615295D01*
X41844643Y-44615295D02*
X41892262Y-44520057D01*
X41892262Y-44520057D02*
X41939881Y-44472438D01*
X41939881Y-44472438D02*
X42035119Y-44424819D01*
X43225595Y-44424819D02*
X43035119Y-44424819D01*
X43035119Y-44424819D02*
X42939881Y-44472438D01*
X42939881Y-44472438D02*
X42892262Y-44520057D01*
X42892262Y-44520057D02*
X42797024Y-44662914D01*
X42797024Y-44662914D02*
X42749405Y-44853390D01*
X42749405Y-44853390D02*
X42749405Y-45234342D01*
X42749405Y-45234342D02*
X42797024Y-45329580D01*
X42797024Y-45329580D02*
X42844643Y-45377200D01*
X42844643Y-45377200D02*
X42939881Y-45424819D01*
X42939881Y-45424819D02*
X43130357Y-45424819D01*
X43130357Y-45424819D02*
X43225595Y-45377200D01*
X43225595Y-45377200D02*
X43273214Y-45329580D01*
X43273214Y-45329580D02*
X43320833Y-45234342D01*
X43320833Y-45234342D02*
X43320833Y-44996247D01*
X43320833Y-44996247D02*
X43273214Y-44901009D01*
X43273214Y-44901009D02*
X43225595Y-44853390D01*
X43225595Y-44853390D02*
X43130357Y-44805771D01*
X43130357Y-44805771D02*
X42939881Y-44805771D01*
X42939881Y-44805771D02*
X42844643Y-44853390D01*
X42844643Y-44853390D02*
X42797024Y-44901009D01*
X42797024Y-44901009D02*
X42749405Y-44996247D01*
X43654167Y-44424819D02*
X44273214Y-44424819D01*
X44273214Y-44424819D02*
X43939881Y-44805771D01*
X43939881Y-44805771D02*
X44082738Y-44805771D01*
X44082738Y-44805771D02*
X44177976Y-44853390D01*
X44177976Y-44853390D02*
X44225595Y-44901009D01*
X44225595Y-44901009D02*
X44273214Y-44996247D01*
X44273214Y-44996247D02*
X44273214Y-45234342D01*
X44273214Y-45234342D02*
X44225595Y-45329580D01*
X44225595Y-45329580D02*
X44177976Y-45377200D01*
X44177976Y-45377200D02*
X44082738Y-45424819D01*
X44082738Y-45424819D02*
X43797024Y-45424819D01*
X43797024Y-45424819D02*
X43701786Y-45377200D01*
X43701786Y-45377200D02*
X43654167Y-45329580D01*
X44654167Y-45139104D02*
X45130357Y-45139104D01*
X44558929Y-45424819D02*
X44892262Y-44424819D01*
X44892262Y-44424819D02*
X45225595Y-45424819D01*
X45558929Y-45424819D02*
X45558929Y-44424819D01*
X45558929Y-44901009D02*
X46130357Y-44901009D01*
X46130357Y-45424819D02*
X46130357Y-44424819D01*
X42154166Y-36924819D02*
X42154166Y-37639104D01*
X42154166Y-37639104D02*
X42106547Y-37781961D01*
X42106547Y-37781961D02*
X42011309Y-37877200D01*
X42011309Y-37877200D02*
X41868452Y-37924819D01*
X41868452Y-37924819D02*
X41773214Y-37924819D01*
X43058928Y-36924819D02*
X42868452Y-36924819D01*
X42868452Y-36924819D02*
X42773214Y-36972438D01*
X42773214Y-36972438D02*
X42725595Y-37020057D01*
X42725595Y-37020057D02*
X42630357Y-37162914D01*
X42630357Y-37162914D02*
X42582738Y-37353390D01*
X42582738Y-37353390D02*
X42582738Y-37734342D01*
X42582738Y-37734342D02*
X42630357Y-37829580D01*
X42630357Y-37829580D02*
X42677976Y-37877200D01*
X42677976Y-37877200D02*
X42773214Y-37924819D01*
X42773214Y-37924819D02*
X42963690Y-37924819D01*
X42963690Y-37924819D02*
X43058928Y-37877200D01*
X43058928Y-37877200D02*
X43106547Y-37829580D01*
X43106547Y-37829580D02*
X43154166Y-37734342D01*
X43154166Y-37734342D02*
X43154166Y-37496247D01*
X43154166Y-37496247D02*
X43106547Y-37401009D01*
X43106547Y-37401009D02*
X43058928Y-37353390D01*
X43058928Y-37353390D02*
X42963690Y-37305771D01*
X42963690Y-37305771D02*
X42773214Y-37305771D01*
X42773214Y-37305771D02*
X42677976Y-37353390D01*
X42677976Y-37353390D02*
X42630357Y-37401009D01*
X42630357Y-37401009D02*
X42582738Y-37496247D01*
X11366071Y-69914819D02*
X10794643Y-69914819D01*
X11080357Y-69914819D02*
X11080357Y-68914819D01*
X11080357Y-68914819D02*
X10985119Y-69057676D01*
X10985119Y-69057676D02*
X10889881Y-69152914D01*
X10889881Y-69152914D02*
X10794643Y-69200533D01*
X11985119Y-68914819D02*
X12080357Y-68914819D01*
X12080357Y-68914819D02*
X12175595Y-68962438D01*
X12175595Y-68962438D02*
X12223214Y-69010057D01*
X12223214Y-69010057D02*
X12270833Y-69105295D01*
X12270833Y-69105295D02*
X12318452Y-69295771D01*
X12318452Y-69295771D02*
X12318452Y-69533866D01*
X12318452Y-69533866D02*
X12270833Y-69724342D01*
X12270833Y-69724342D02*
X12223214Y-69819580D01*
X12223214Y-69819580D02*
X12175595Y-69867200D01*
X12175595Y-69867200D02*
X12080357Y-69914819D01*
X12080357Y-69914819D02*
X11985119Y-69914819D01*
X11985119Y-69914819D02*
X11889881Y-69867200D01*
X11889881Y-69867200D02*
X11842262Y-69819580D01*
X11842262Y-69819580D02*
X11794643Y-69724342D01*
X11794643Y-69724342D02*
X11747024Y-69533866D01*
X11747024Y-69533866D02*
X11747024Y-69295771D01*
X11747024Y-69295771D02*
X11794643Y-69105295D01*
X11794643Y-69105295D02*
X11842262Y-69010057D01*
X11842262Y-69010057D02*
X11889881Y-68962438D01*
X11889881Y-68962438D02*
X11985119Y-68914819D01*
X13175595Y-69248152D02*
X13175595Y-69914819D01*
X12747024Y-69248152D02*
X12747024Y-69771961D01*
X12747024Y-69771961D02*
X12794643Y-69867200D01*
X12794643Y-69867200D02*
X12889881Y-69914819D01*
X12889881Y-69914819D02*
X13032738Y-69914819D01*
X13032738Y-69914819D02*
X13127976Y-69867200D01*
X13127976Y-69867200D02*
X13175595Y-69819580D01*
X13985119Y-69391009D02*
X13651786Y-69391009D01*
X13651786Y-69914819D02*
X13651786Y-68914819D01*
X13651786Y-68914819D02*
X14127976Y-68914819D01*
D11*
X12370833Y-68173832D02*
X12351785Y-68192880D01*
X12351785Y-68192880D02*
X12294643Y-68211927D01*
X12294643Y-68211927D02*
X12256547Y-68211927D01*
X12256547Y-68211927D02*
X12199404Y-68192880D01*
X12199404Y-68192880D02*
X12161309Y-68154784D01*
X12161309Y-68154784D02*
X12142262Y-68116689D01*
X12142262Y-68116689D02*
X12123214Y-68040499D01*
X12123214Y-68040499D02*
X12123214Y-67983356D01*
X12123214Y-67983356D02*
X12142262Y-67907165D01*
X12142262Y-67907165D02*
X12161309Y-67869070D01*
X12161309Y-67869070D02*
X12199404Y-67830975D01*
X12199404Y-67830975D02*
X12256547Y-67811927D01*
X12256547Y-67811927D02*
X12294643Y-67811927D01*
X12294643Y-67811927D02*
X12351785Y-67830975D01*
X12351785Y-67830975D02*
X12370833Y-67850022D01*
X12732738Y-67811927D02*
X12542262Y-67811927D01*
X12542262Y-67811927D02*
X12523214Y-68002403D01*
X12523214Y-68002403D02*
X12542262Y-67983356D01*
X12542262Y-67983356D02*
X12580357Y-67964308D01*
X12580357Y-67964308D02*
X12675595Y-67964308D01*
X12675595Y-67964308D02*
X12713690Y-67983356D01*
X12713690Y-67983356D02*
X12732738Y-68002403D01*
X12732738Y-68002403D02*
X12751785Y-68040499D01*
X12751785Y-68040499D02*
X12751785Y-68135737D01*
X12751785Y-68135737D02*
X12732738Y-68173832D01*
X12732738Y-68173832D02*
X12713690Y-68192880D01*
X12713690Y-68192880D02*
X12675595Y-68211927D01*
X12675595Y-68211927D02*
X12580357Y-68211927D01*
X12580357Y-68211927D02*
X12542262Y-68192880D01*
X12542262Y-68192880D02*
X12523214Y-68173832D01*
D10*
X86014880Y-51884819D02*
X85443452Y-51884819D01*
X85729166Y-51884819D02*
X85729166Y-50884819D01*
X85729166Y-50884819D02*
X85633928Y-51027676D01*
X85633928Y-51027676D02*
X85538690Y-51122914D01*
X85538690Y-51122914D02*
X85443452Y-51170533D01*
X86633928Y-50884819D02*
X86729166Y-50884819D01*
X86729166Y-50884819D02*
X86824404Y-50932438D01*
X86824404Y-50932438D02*
X86872023Y-50980057D01*
X86872023Y-50980057D02*
X86919642Y-51075295D01*
X86919642Y-51075295D02*
X86967261Y-51265771D01*
X86967261Y-51265771D02*
X86967261Y-51503866D01*
X86967261Y-51503866D02*
X86919642Y-51694342D01*
X86919642Y-51694342D02*
X86872023Y-51789580D01*
X86872023Y-51789580D02*
X86824404Y-51837200D01*
X86824404Y-51837200D02*
X86729166Y-51884819D01*
X86729166Y-51884819D02*
X86633928Y-51884819D01*
X86633928Y-51884819D02*
X86538690Y-51837200D01*
X86538690Y-51837200D02*
X86491071Y-51789580D01*
X86491071Y-51789580D02*
X86443452Y-51694342D01*
X86443452Y-51694342D02*
X86395833Y-51503866D01*
X86395833Y-51503866D02*
X86395833Y-51265771D01*
X86395833Y-51265771D02*
X86443452Y-51075295D01*
X86443452Y-51075295D02*
X86491071Y-50980057D01*
X86491071Y-50980057D02*
X86538690Y-50932438D01*
X86538690Y-50932438D02*
X86633928Y-50884819D01*
X87586309Y-50884819D02*
X87681547Y-50884819D01*
X87681547Y-50884819D02*
X87776785Y-50932438D01*
X87776785Y-50932438D02*
X87824404Y-50980057D01*
X87824404Y-50980057D02*
X87872023Y-51075295D01*
X87872023Y-51075295D02*
X87919642Y-51265771D01*
X87919642Y-51265771D02*
X87919642Y-51503866D01*
X87919642Y-51503866D02*
X87872023Y-51694342D01*
X87872023Y-51694342D02*
X87824404Y-51789580D01*
X87824404Y-51789580D02*
X87776785Y-51837200D01*
X87776785Y-51837200D02*
X87681547Y-51884819D01*
X87681547Y-51884819D02*
X87586309Y-51884819D01*
X87586309Y-51884819D02*
X87491071Y-51837200D01*
X87491071Y-51837200D02*
X87443452Y-51789580D01*
X87443452Y-51789580D02*
X87395833Y-51694342D01*
X87395833Y-51694342D02*
X87348214Y-51503866D01*
X87348214Y-51503866D02*
X87348214Y-51265771D01*
X87348214Y-51265771D02*
X87395833Y-51075295D01*
X87395833Y-51075295D02*
X87443452Y-50980057D01*
X87443452Y-50980057D02*
X87491071Y-50932438D01*
X87491071Y-50932438D02*
X87586309Y-50884819D01*
X88348214Y-51218152D02*
X88348214Y-51884819D01*
X88348214Y-51313390D02*
X88395833Y-51265771D01*
X88395833Y-51265771D02*
X88491071Y-51218152D01*
X88491071Y-51218152D02*
X88633928Y-51218152D01*
X88633928Y-51218152D02*
X88729166Y-51265771D01*
X88729166Y-51265771D02*
X88776785Y-51361009D01*
X88776785Y-51361009D02*
X88776785Y-51884819D01*
X89586309Y-51361009D02*
X89252976Y-51361009D01*
X89252976Y-51884819D02*
X89252976Y-50884819D01*
X89252976Y-50884819D02*
X89729166Y-50884819D01*
D11*
X87495833Y-50143832D02*
X87476785Y-50162880D01*
X87476785Y-50162880D02*
X87419643Y-50181927D01*
X87419643Y-50181927D02*
X87381547Y-50181927D01*
X87381547Y-50181927D02*
X87324404Y-50162880D01*
X87324404Y-50162880D02*
X87286309Y-50124784D01*
X87286309Y-50124784D02*
X87267262Y-50086689D01*
X87267262Y-50086689D02*
X87248214Y-50010499D01*
X87248214Y-50010499D02*
X87248214Y-49953356D01*
X87248214Y-49953356D02*
X87267262Y-49877165D01*
X87267262Y-49877165D02*
X87286309Y-49839070D01*
X87286309Y-49839070D02*
X87324404Y-49800975D01*
X87324404Y-49800975D02*
X87381547Y-49781927D01*
X87381547Y-49781927D02*
X87419643Y-49781927D01*
X87419643Y-49781927D02*
X87476785Y-49800975D01*
X87476785Y-49800975D02*
X87495833Y-49820022D01*
X87838690Y-49915260D02*
X87838690Y-50181927D01*
X87743452Y-49762880D02*
X87648214Y-50048594D01*
X87648214Y-50048594D02*
X87895833Y-50048594D01*
D10*
X25914880Y-69914819D02*
X25343452Y-69914819D01*
X25629166Y-69914819D02*
X25629166Y-68914819D01*
X25629166Y-68914819D02*
X25533928Y-69057676D01*
X25533928Y-69057676D02*
X25438690Y-69152914D01*
X25438690Y-69152914D02*
X25343452Y-69200533D01*
X26533928Y-68914819D02*
X26629166Y-68914819D01*
X26629166Y-68914819D02*
X26724404Y-68962438D01*
X26724404Y-68962438D02*
X26772023Y-69010057D01*
X26772023Y-69010057D02*
X26819642Y-69105295D01*
X26819642Y-69105295D02*
X26867261Y-69295771D01*
X26867261Y-69295771D02*
X26867261Y-69533866D01*
X26867261Y-69533866D02*
X26819642Y-69724342D01*
X26819642Y-69724342D02*
X26772023Y-69819580D01*
X26772023Y-69819580D02*
X26724404Y-69867200D01*
X26724404Y-69867200D02*
X26629166Y-69914819D01*
X26629166Y-69914819D02*
X26533928Y-69914819D01*
X26533928Y-69914819D02*
X26438690Y-69867200D01*
X26438690Y-69867200D02*
X26391071Y-69819580D01*
X26391071Y-69819580D02*
X26343452Y-69724342D01*
X26343452Y-69724342D02*
X26295833Y-69533866D01*
X26295833Y-69533866D02*
X26295833Y-69295771D01*
X26295833Y-69295771D02*
X26343452Y-69105295D01*
X26343452Y-69105295D02*
X26391071Y-69010057D01*
X26391071Y-69010057D02*
X26438690Y-68962438D01*
X26438690Y-68962438D02*
X26533928Y-68914819D01*
X27486309Y-68914819D02*
X27581547Y-68914819D01*
X27581547Y-68914819D02*
X27676785Y-68962438D01*
X27676785Y-68962438D02*
X27724404Y-69010057D01*
X27724404Y-69010057D02*
X27772023Y-69105295D01*
X27772023Y-69105295D02*
X27819642Y-69295771D01*
X27819642Y-69295771D02*
X27819642Y-69533866D01*
X27819642Y-69533866D02*
X27772023Y-69724342D01*
X27772023Y-69724342D02*
X27724404Y-69819580D01*
X27724404Y-69819580D02*
X27676785Y-69867200D01*
X27676785Y-69867200D02*
X27581547Y-69914819D01*
X27581547Y-69914819D02*
X27486309Y-69914819D01*
X27486309Y-69914819D02*
X27391071Y-69867200D01*
X27391071Y-69867200D02*
X27343452Y-69819580D01*
X27343452Y-69819580D02*
X27295833Y-69724342D01*
X27295833Y-69724342D02*
X27248214Y-69533866D01*
X27248214Y-69533866D02*
X27248214Y-69295771D01*
X27248214Y-69295771D02*
X27295833Y-69105295D01*
X27295833Y-69105295D02*
X27343452Y-69010057D01*
X27343452Y-69010057D02*
X27391071Y-68962438D01*
X27391071Y-68962438D02*
X27486309Y-68914819D01*
X28248214Y-69248152D02*
X28248214Y-69914819D01*
X28248214Y-69343390D02*
X28295833Y-69295771D01*
X28295833Y-69295771D02*
X28391071Y-69248152D01*
X28391071Y-69248152D02*
X28533928Y-69248152D01*
X28533928Y-69248152D02*
X28629166Y-69295771D01*
X28629166Y-69295771D02*
X28676785Y-69391009D01*
X28676785Y-69391009D02*
X28676785Y-69914819D01*
X29486309Y-69391009D02*
X29152976Y-69391009D01*
X29152976Y-69914819D02*
X29152976Y-68914819D01*
X29152976Y-68914819D02*
X29629166Y-68914819D01*
D11*
X27395833Y-68173832D02*
X27376785Y-68192880D01*
X27376785Y-68192880D02*
X27319643Y-68211927D01*
X27319643Y-68211927D02*
X27281547Y-68211927D01*
X27281547Y-68211927D02*
X27224404Y-68192880D01*
X27224404Y-68192880D02*
X27186309Y-68154784D01*
X27186309Y-68154784D02*
X27167262Y-68116689D01*
X27167262Y-68116689D02*
X27148214Y-68040499D01*
X27148214Y-68040499D02*
X27148214Y-67983356D01*
X27148214Y-67983356D02*
X27167262Y-67907165D01*
X27167262Y-67907165D02*
X27186309Y-67869070D01*
X27186309Y-67869070D02*
X27224404Y-67830975D01*
X27224404Y-67830975D02*
X27281547Y-67811927D01*
X27281547Y-67811927D02*
X27319643Y-67811927D01*
X27319643Y-67811927D02*
X27376785Y-67830975D01*
X27376785Y-67830975D02*
X27395833Y-67850022D01*
X27738690Y-67811927D02*
X27662500Y-67811927D01*
X27662500Y-67811927D02*
X27624404Y-67830975D01*
X27624404Y-67830975D02*
X27605357Y-67850022D01*
X27605357Y-67850022D02*
X27567262Y-67907165D01*
X27567262Y-67907165D02*
X27548214Y-67983356D01*
X27548214Y-67983356D02*
X27548214Y-68135737D01*
X27548214Y-68135737D02*
X27567262Y-68173832D01*
X27567262Y-68173832D02*
X27586309Y-68192880D01*
X27586309Y-68192880D02*
X27624404Y-68211927D01*
X27624404Y-68211927D02*
X27700595Y-68211927D01*
X27700595Y-68211927D02*
X27738690Y-68192880D01*
X27738690Y-68192880D02*
X27757738Y-68173832D01*
X27757738Y-68173832D02*
X27776785Y-68135737D01*
X27776785Y-68135737D02*
X27776785Y-68040499D01*
X27776785Y-68040499D02*
X27757738Y-68002403D01*
X27757738Y-68002403D02*
X27738690Y-67983356D01*
X27738690Y-67983356D02*
X27700595Y-67964308D01*
X27700595Y-67964308D02*
X27624404Y-67964308D01*
X27624404Y-67964308D02*
X27586309Y-67983356D01*
X27586309Y-67983356D02*
X27567262Y-68002403D01*
X27567262Y-68002403D02*
X27548214Y-68040499D01*
D10*
X40368452Y-69010057D02*
X40416071Y-68962438D01*
X40416071Y-68962438D02*
X40511309Y-68914819D01*
X40511309Y-68914819D02*
X40749404Y-68914819D01*
X40749404Y-68914819D02*
X40844642Y-68962438D01*
X40844642Y-68962438D02*
X40892261Y-69010057D01*
X40892261Y-69010057D02*
X40939880Y-69105295D01*
X40939880Y-69105295D02*
X40939880Y-69200533D01*
X40939880Y-69200533D02*
X40892261Y-69343390D01*
X40892261Y-69343390D02*
X40320833Y-69914819D01*
X40320833Y-69914819D02*
X40939880Y-69914819D01*
X41320833Y-69010057D02*
X41368452Y-68962438D01*
X41368452Y-68962438D02*
X41463690Y-68914819D01*
X41463690Y-68914819D02*
X41701785Y-68914819D01*
X41701785Y-68914819D02*
X41797023Y-68962438D01*
X41797023Y-68962438D02*
X41844642Y-69010057D01*
X41844642Y-69010057D02*
X41892261Y-69105295D01*
X41892261Y-69105295D02*
X41892261Y-69200533D01*
X41892261Y-69200533D02*
X41844642Y-69343390D01*
X41844642Y-69343390D02*
X41273214Y-69914819D01*
X41273214Y-69914819D02*
X41892261Y-69914819D01*
X42511309Y-68914819D02*
X42606547Y-68914819D01*
X42606547Y-68914819D02*
X42701785Y-68962438D01*
X42701785Y-68962438D02*
X42749404Y-69010057D01*
X42749404Y-69010057D02*
X42797023Y-69105295D01*
X42797023Y-69105295D02*
X42844642Y-69295771D01*
X42844642Y-69295771D02*
X42844642Y-69533866D01*
X42844642Y-69533866D02*
X42797023Y-69724342D01*
X42797023Y-69724342D02*
X42749404Y-69819580D01*
X42749404Y-69819580D02*
X42701785Y-69867200D01*
X42701785Y-69867200D02*
X42606547Y-69914819D01*
X42606547Y-69914819D02*
X42511309Y-69914819D01*
X42511309Y-69914819D02*
X42416071Y-69867200D01*
X42416071Y-69867200D02*
X42368452Y-69819580D01*
X42368452Y-69819580D02*
X42320833Y-69724342D01*
X42320833Y-69724342D02*
X42273214Y-69533866D01*
X42273214Y-69533866D02*
X42273214Y-69295771D01*
X42273214Y-69295771D02*
X42320833Y-69105295D01*
X42320833Y-69105295D02*
X42368452Y-69010057D01*
X42368452Y-69010057D02*
X42416071Y-68962438D01*
X42416071Y-68962438D02*
X42511309Y-68914819D01*
X43701785Y-69248152D02*
X43701785Y-69914819D01*
X43273214Y-69248152D02*
X43273214Y-69771961D01*
X43273214Y-69771961D02*
X43320833Y-69867200D01*
X43320833Y-69867200D02*
X43416071Y-69914819D01*
X43416071Y-69914819D02*
X43558928Y-69914819D01*
X43558928Y-69914819D02*
X43654166Y-69867200D01*
X43654166Y-69867200D02*
X43701785Y-69819580D01*
X44511309Y-69391009D02*
X44177976Y-69391009D01*
X44177976Y-69914819D02*
X44177976Y-68914819D01*
X44177976Y-68914819D02*
X44654166Y-68914819D01*
D11*
X42420833Y-68173832D02*
X42401785Y-68192880D01*
X42401785Y-68192880D02*
X42344643Y-68211927D01*
X42344643Y-68211927D02*
X42306547Y-68211927D01*
X42306547Y-68211927D02*
X42249404Y-68192880D01*
X42249404Y-68192880D02*
X42211309Y-68154784D01*
X42211309Y-68154784D02*
X42192262Y-68116689D01*
X42192262Y-68116689D02*
X42173214Y-68040499D01*
X42173214Y-68040499D02*
X42173214Y-67983356D01*
X42173214Y-67983356D02*
X42192262Y-67907165D01*
X42192262Y-67907165D02*
X42211309Y-67869070D01*
X42211309Y-67869070D02*
X42249404Y-67830975D01*
X42249404Y-67830975D02*
X42306547Y-67811927D01*
X42306547Y-67811927D02*
X42344643Y-67811927D01*
X42344643Y-67811927D02*
X42401785Y-67830975D01*
X42401785Y-67830975D02*
X42420833Y-67850022D01*
X42554166Y-67811927D02*
X42820833Y-67811927D01*
X42820833Y-67811927D02*
X42649404Y-68211927D01*
D10*
X55393452Y-69010057D02*
X55441071Y-68962438D01*
X55441071Y-68962438D02*
X55536309Y-68914819D01*
X55536309Y-68914819D02*
X55774404Y-68914819D01*
X55774404Y-68914819D02*
X55869642Y-68962438D01*
X55869642Y-68962438D02*
X55917261Y-69010057D01*
X55917261Y-69010057D02*
X55964880Y-69105295D01*
X55964880Y-69105295D02*
X55964880Y-69200533D01*
X55964880Y-69200533D02*
X55917261Y-69343390D01*
X55917261Y-69343390D02*
X55345833Y-69914819D01*
X55345833Y-69914819D02*
X55964880Y-69914819D01*
X56345833Y-69010057D02*
X56393452Y-68962438D01*
X56393452Y-68962438D02*
X56488690Y-68914819D01*
X56488690Y-68914819D02*
X56726785Y-68914819D01*
X56726785Y-68914819D02*
X56822023Y-68962438D01*
X56822023Y-68962438D02*
X56869642Y-69010057D01*
X56869642Y-69010057D02*
X56917261Y-69105295D01*
X56917261Y-69105295D02*
X56917261Y-69200533D01*
X56917261Y-69200533D02*
X56869642Y-69343390D01*
X56869642Y-69343390D02*
X56298214Y-69914819D01*
X56298214Y-69914819D02*
X56917261Y-69914819D01*
X57536309Y-68914819D02*
X57631547Y-68914819D01*
X57631547Y-68914819D02*
X57726785Y-68962438D01*
X57726785Y-68962438D02*
X57774404Y-69010057D01*
X57774404Y-69010057D02*
X57822023Y-69105295D01*
X57822023Y-69105295D02*
X57869642Y-69295771D01*
X57869642Y-69295771D02*
X57869642Y-69533866D01*
X57869642Y-69533866D02*
X57822023Y-69724342D01*
X57822023Y-69724342D02*
X57774404Y-69819580D01*
X57774404Y-69819580D02*
X57726785Y-69867200D01*
X57726785Y-69867200D02*
X57631547Y-69914819D01*
X57631547Y-69914819D02*
X57536309Y-69914819D01*
X57536309Y-69914819D02*
X57441071Y-69867200D01*
X57441071Y-69867200D02*
X57393452Y-69819580D01*
X57393452Y-69819580D02*
X57345833Y-69724342D01*
X57345833Y-69724342D02*
X57298214Y-69533866D01*
X57298214Y-69533866D02*
X57298214Y-69295771D01*
X57298214Y-69295771D02*
X57345833Y-69105295D01*
X57345833Y-69105295D02*
X57393452Y-69010057D01*
X57393452Y-69010057D02*
X57441071Y-68962438D01*
X57441071Y-68962438D02*
X57536309Y-68914819D01*
X58726785Y-69248152D02*
X58726785Y-69914819D01*
X58298214Y-69248152D02*
X58298214Y-69771961D01*
X58298214Y-69771961D02*
X58345833Y-69867200D01*
X58345833Y-69867200D02*
X58441071Y-69914819D01*
X58441071Y-69914819D02*
X58583928Y-69914819D01*
X58583928Y-69914819D02*
X58679166Y-69867200D01*
X58679166Y-69867200D02*
X58726785Y-69819580D01*
X59536309Y-69391009D02*
X59202976Y-69391009D01*
X59202976Y-69914819D02*
X59202976Y-68914819D01*
X59202976Y-68914819D02*
X59679166Y-68914819D01*
D11*
X57445833Y-68173832D02*
X57426785Y-68192880D01*
X57426785Y-68192880D02*
X57369643Y-68211927D01*
X57369643Y-68211927D02*
X57331547Y-68211927D01*
X57331547Y-68211927D02*
X57274404Y-68192880D01*
X57274404Y-68192880D02*
X57236309Y-68154784D01*
X57236309Y-68154784D02*
X57217262Y-68116689D01*
X57217262Y-68116689D02*
X57198214Y-68040499D01*
X57198214Y-68040499D02*
X57198214Y-67983356D01*
X57198214Y-67983356D02*
X57217262Y-67907165D01*
X57217262Y-67907165D02*
X57236309Y-67869070D01*
X57236309Y-67869070D02*
X57274404Y-67830975D01*
X57274404Y-67830975D02*
X57331547Y-67811927D01*
X57331547Y-67811927D02*
X57369643Y-67811927D01*
X57369643Y-67811927D02*
X57426785Y-67830975D01*
X57426785Y-67830975D02*
X57445833Y-67850022D01*
X57674404Y-67983356D02*
X57636309Y-67964308D01*
X57636309Y-67964308D02*
X57617262Y-67945260D01*
X57617262Y-67945260D02*
X57598214Y-67907165D01*
X57598214Y-67907165D02*
X57598214Y-67888118D01*
X57598214Y-67888118D02*
X57617262Y-67850022D01*
X57617262Y-67850022D02*
X57636309Y-67830975D01*
X57636309Y-67830975D02*
X57674404Y-67811927D01*
X57674404Y-67811927D02*
X57750595Y-67811927D01*
X57750595Y-67811927D02*
X57788690Y-67830975D01*
X57788690Y-67830975D02*
X57807738Y-67850022D01*
X57807738Y-67850022D02*
X57826785Y-67888118D01*
X57826785Y-67888118D02*
X57826785Y-67907165D01*
X57826785Y-67907165D02*
X57807738Y-67945260D01*
X57807738Y-67945260D02*
X57788690Y-67964308D01*
X57788690Y-67964308D02*
X57750595Y-67983356D01*
X57750595Y-67983356D02*
X57674404Y-67983356D01*
X57674404Y-67983356D02*
X57636309Y-68002403D01*
X57636309Y-68002403D02*
X57617262Y-68021451D01*
X57617262Y-68021451D02*
X57598214Y-68059546D01*
X57598214Y-68059546D02*
X57598214Y-68135737D01*
X57598214Y-68135737D02*
X57617262Y-68173832D01*
X57617262Y-68173832D02*
X57636309Y-68192880D01*
X57636309Y-68192880D02*
X57674404Y-68211927D01*
X57674404Y-68211927D02*
X57750595Y-68211927D01*
X57750595Y-68211927D02*
X57788690Y-68192880D01*
X57788690Y-68192880D02*
X57807738Y-68173832D01*
X57807738Y-68173832D02*
X57826785Y-68135737D01*
X57826785Y-68135737D02*
X57826785Y-68059546D01*
X57826785Y-68059546D02*
X57807738Y-68021451D01*
X57807738Y-68021451D02*
X57788690Y-68002403D01*
X57788690Y-68002403D02*
X57750595Y-67983356D01*
D10*
X26391071Y-51884819D02*
X25819643Y-51884819D01*
X26105357Y-51884819D02*
X26105357Y-50884819D01*
X26105357Y-50884819D02*
X26010119Y-51027676D01*
X26010119Y-51027676D02*
X25914881Y-51122914D01*
X25914881Y-51122914D02*
X25819643Y-51170533D01*
X27010119Y-50884819D02*
X27105357Y-50884819D01*
X27105357Y-50884819D02*
X27200595Y-50932438D01*
X27200595Y-50932438D02*
X27248214Y-50980057D01*
X27248214Y-50980057D02*
X27295833Y-51075295D01*
X27295833Y-51075295D02*
X27343452Y-51265771D01*
X27343452Y-51265771D02*
X27343452Y-51503866D01*
X27343452Y-51503866D02*
X27295833Y-51694342D01*
X27295833Y-51694342D02*
X27248214Y-51789580D01*
X27248214Y-51789580D02*
X27200595Y-51837200D01*
X27200595Y-51837200D02*
X27105357Y-51884819D01*
X27105357Y-51884819D02*
X27010119Y-51884819D01*
X27010119Y-51884819D02*
X26914881Y-51837200D01*
X26914881Y-51837200D02*
X26867262Y-51789580D01*
X26867262Y-51789580D02*
X26819643Y-51694342D01*
X26819643Y-51694342D02*
X26772024Y-51503866D01*
X26772024Y-51503866D02*
X26772024Y-51265771D01*
X26772024Y-51265771D02*
X26819643Y-51075295D01*
X26819643Y-51075295D02*
X26867262Y-50980057D01*
X26867262Y-50980057D02*
X26914881Y-50932438D01*
X26914881Y-50932438D02*
X27010119Y-50884819D01*
X28200595Y-51218152D02*
X28200595Y-51884819D01*
X27772024Y-51218152D02*
X27772024Y-51741961D01*
X27772024Y-51741961D02*
X27819643Y-51837200D01*
X27819643Y-51837200D02*
X27914881Y-51884819D01*
X27914881Y-51884819D02*
X28057738Y-51884819D01*
X28057738Y-51884819D02*
X28152976Y-51837200D01*
X28152976Y-51837200D02*
X28200595Y-51789580D01*
X29010119Y-51361009D02*
X28676786Y-51361009D01*
X28676786Y-51884819D02*
X28676786Y-50884819D01*
X28676786Y-50884819D02*
X29152976Y-50884819D01*
D11*
X27205357Y-50143832D02*
X27186309Y-50162880D01*
X27186309Y-50162880D02*
X27129167Y-50181927D01*
X27129167Y-50181927D02*
X27091071Y-50181927D01*
X27091071Y-50181927D02*
X27033928Y-50162880D01*
X27033928Y-50162880D02*
X26995833Y-50124784D01*
X26995833Y-50124784D02*
X26976786Y-50086689D01*
X26976786Y-50086689D02*
X26957738Y-50010499D01*
X26957738Y-50010499D02*
X26957738Y-49953356D01*
X26957738Y-49953356D02*
X26976786Y-49877165D01*
X26976786Y-49877165D02*
X26995833Y-49839070D01*
X26995833Y-49839070D02*
X27033928Y-49800975D01*
X27033928Y-49800975D02*
X27091071Y-49781927D01*
X27091071Y-49781927D02*
X27129167Y-49781927D01*
X27129167Y-49781927D02*
X27186309Y-49800975D01*
X27186309Y-49800975D02*
X27205357Y-49820022D01*
X27586309Y-50181927D02*
X27357738Y-50181927D01*
X27472024Y-50181927D02*
X27472024Y-49781927D01*
X27472024Y-49781927D02*
X27433928Y-49839070D01*
X27433928Y-49839070D02*
X27395833Y-49877165D01*
X27395833Y-49877165D02*
X27357738Y-49896213D01*
X27719642Y-49781927D02*
X27967261Y-49781927D01*
X27967261Y-49781927D02*
X27833928Y-49934308D01*
X27833928Y-49934308D02*
X27891071Y-49934308D01*
X27891071Y-49934308D02*
X27929166Y-49953356D01*
X27929166Y-49953356D02*
X27948214Y-49972403D01*
X27948214Y-49972403D02*
X27967261Y-50010499D01*
X27967261Y-50010499D02*
X27967261Y-50105737D01*
X27967261Y-50105737D02*
X27948214Y-50143832D01*
X27948214Y-50143832D02*
X27929166Y-50162880D01*
X27929166Y-50162880D02*
X27891071Y-50181927D01*
X27891071Y-50181927D02*
X27776785Y-50181927D01*
X27776785Y-50181927D02*
X27738690Y-50162880D01*
X27738690Y-50162880D02*
X27719642Y-50143832D01*
D10*
X56441071Y-33854819D02*
X55869643Y-33854819D01*
X56155357Y-33854819D02*
X56155357Y-32854819D01*
X56155357Y-32854819D02*
X56060119Y-32997676D01*
X56060119Y-32997676D02*
X55964881Y-33092914D01*
X55964881Y-33092914D02*
X55869643Y-33140533D01*
X57060119Y-32854819D02*
X57155357Y-32854819D01*
X57155357Y-32854819D02*
X57250595Y-32902438D01*
X57250595Y-32902438D02*
X57298214Y-32950057D01*
X57298214Y-32950057D02*
X57345833Y-33045295D01*
X57345833Y-33045295D02*
X57393452Y-33235771D01*
X57393452Y-33235771D02*
X57393452Y-33473866D01*
X57393452Y-33473866D02*
X57345833Y-33664342D01*
X57345833Y-33664342D02*
X57298214Y-33759580D01*
X57298214Y-33759580D02*
X57250595Y-33807200D01*
X57250595Y-33807200D02*
X57155357Y-33854819D01*
X57155357Y-33854819D02*
X57060119Y-33854819D01*
X57060119Y-33854819D02*
X56964881Y-33807200D01*
X56964881Y-33807200D02*
X56917262Y-33759580D01*
X56917262Y-33759580D02*
X56869643Y-33664342D01*
X56869643Y-33664342D02*
X56822024Y-33473866D01*
X56822024Y-33473866D02*
X56822024Y-33235771D01*
X56822024Y-33235771D02*
X56869643Y-33045295D01*
X56869643Y-33045295D02*
X56917262Y-32950057D01*
X56917262Y-32950057D02*
X56964881Y-32902438D01*
X56964881Y-32902438D02*
X57060119Y-32854819D01*
X58250595Y-33188152D02*
X58250595Y-33854819D01*
X57822024Y-33188152D02*
X57822024Y-33711961D01*
X57822024Y-33711961D02*
X57869643Y-33807200D01*
X57869643Y-33807200D02*
X57964881Y-33854819D01*
X57964881Y-33854819D02*
X58107738Y-33854819D01*
X58107738Y-33854819D02*
X58202976Y-33807200D01*
X58202976Y-33807200D02*
X58250595Y-33759580D01*
X59060119Y-33331009D02*
X58726786Y-33331009D01*
X58726786Y-33854819D02*
X58726786Y-32854819D01*
X58726786Y-32854819D02*
X59202976Y-32854819D01*
D11*
X57445833Y-32113832D02*
X57426785Y-32132880D01*
X57426785Y-32132880D02*
X57369643Y-32151927D01*
X57369643Y-32151927D02*
X57331547Y-32151927D01*
X57331547Y-32151927D02*
X57274404Y-32132880D01*
X57274404Y-32132880D02*
X57236309Y-32094784D01*
X57236309Y-32094784D02*
X57217262Y-32056689D01*
X57217262Y-32056689D02*
X57198214Y-31980499D01*
X57198214Y-31980499D02*
X57198214Y-31923356D01*
X57198214Y-31923356D02*
X57217262Y-31847165D01*
X57217262Y-31847165D02*
X57236309Y-31809070D01*
X57236309Y-31809070D02*
X57274404Y-31770975D01*
X57274404Y-31770975D02*
X57331547Y-31751927D01*
X57331547Y-31751927D02*
X57369643Y-31751927D01*
X57369643Y-31751927D02*
X57426785Y-31770975D01*
X57426785Y-31770975D02*
X57445833Y-31790022D01*
X57826785Y-32151927D02*
X57598214Y-32151927D01*
X57712500Y-32151927D02*
X57712500Y-31751927D01*
X57712500Y-31751927D02*
X57674404Y-31809070D01*
X57674404Y-31809070D02*
X57636309Y-31847165D01*
X57636309Y-31847165D02*
X57598214Y-31866213D01*
D10*
X70989880Y-33854819D02*
X70418452Y-33854819D01*
X70704166Y-33854819D02*
X70704166Y-32854819D01*
X70704166Y-32854819D02*
X70608928Y-32997676D01*
X70608928Y-32997676D02*
X70513690Y-33092914D01*
X70513690Y-33092914D02*
X70418452Y-33140533D01*
X71608928Y-32854819D02*
X71704166Y-32854819D01*
X71704166Y-32854819D02*
X71799404Y-32902438D01*
X71799404Y-32902438D02*
X71847023Y-32950057D01*
X71847023Y-32950057D02*
X71894642Y-33045295D01*
X71894642Y-33045295D02*
X71942261Y-33235771D01*
X71942261Y-33235771D02*
X71942261Y-33473866D01*
X71942261Y-33473866D02*
X71894642Y-33664342D01*
X71894642Y-33664342D02*
X71847023Y-33759580D01*
X71847023Y-33759580D02*
X71799404Y-33807200D01*
X71799404Y-33807200D02*
X71704166Y-33854819D01*
X71704166Y-33854819D02*
X71608928Y-33854819D01*
X71608928Y-33854819D02*
X71513690Y-33807200D01*
X71513690Y-33807200D02*
X71466071Y-33759580D01*
X71466071Y-33759580D02*
X71418452Y-33664342D01*
X71418452Y-33664342D02*
X71370833Y-33473866D01*
X71370833Y-33473866D02*
X71370833Y-33235771D01*
X71370833Y-33235771D02*
X71418452Y-33045295D01*
X71418452Y-33045295D02*
X71466071Y-32950057D01*
X71466071Y-32950057D02*
X71513690Y-32902438D01*
X71513690Y-32902438D02*
X71608928Y-32854819D01*
X72561309Y-32854819D02*
X72656547Y-32854819D01*
X72656547Y-32854819D02*
X72751785Y-32902438D01*
X72751785Y-32902438D02*
X72799404Y-32950057D01*
X72799404Y-32950057D02*
X72847023Y-33045295D01*
X72847023Y-33045295D02*
X72894642Y-33235771D01*
X72894642Y-33235771D02*
X72894642Y-33473866D01*
X72894642Y-33473866D02*
X72847023Y-33664342D01*
X72847023Y-33664342D02*
X72799404Y-33759580D01*
X72799404Y-33759580D02*
X72751785Y-33807200D01*
X72751785Y-33807200D02*
X72656547Y-33854819D01*
X72656547Y-33854819D02*
X72561309Y-33854819D01*
X72561309Y-33854819D02*
X72466071Y-33807200D01*
X72466071Y-33807200D02*
X72418452Y-33759580D01*
X72418452Y-33759580D02*
X72370833Y-33664342D01*
X72370833Y-33664342D02*
X72323214Y-33473866D01*
X72323214Y-33473866D02*
X72323214Y-33235771D01*
X72323214Y-33235771D02*
X72370833Y-33045295D01*
X72370833Y-33045295D02*
X72418452Y-32950057D01*
X72418452Y-32950057D02*
X72466071Y-32902438D01*
X72466071Y-32902438D02*
X72561309Y-32854819D01*
X73323214Y-33188152D02*
X73323214Y-33854819D01*
X73323214Y-33283390D02*
X73370833Y-33235771D01*
X73370833Y-33235771D02*
X73466071Y-33188152D01*
X73466071Y-33188152D02*
X73608928Y-33188152D01*
X73608928Y-33188152D02*
X73704166Y-33235771D01*
X73704166Y-33235771D02*
X73751785Y-33331009D01*
X73751785Y-33331009D02*
X73751785Y-33854819D01*
X74561309Y-33331009D02*
X74227976Y-33331009D01*
X74227976Y-33854819D02*
X74227976Y-32854819D01*
X74227976Y-32854819D02*
X74704166Y-32854819D01*
D11*
X72280357Y-32113832D02*
X72261309Y-32132880D01*
X72261309Y-32132880D02*
X72204167Y-32151927D01*
X72204167Y-32151927D02*
X72166071Y-32151927D01*
X72166071Y-32151927D02*
X72108928Y-32132880D01*
X72108928Y-32132880D02*
X72070833Y-32094784D01*
X72070833Y-32094784D02*
X72051786Y-32056689D01*
X72051786Y-32056689D02*
X72032738Y-31980499D01*
X72032738Y-31980499D02*
X72032738Y-31923356D01*
X72032738Y-31923356D02*
X72051786Y-31847165D01*
X72051786Y-31847165D02*
X72070833Y-31809070D01*
X72070833Y-31809070D02*
X72108928Y-31770975D01*
X72108928Y-31770975D02*
X72166071Y-31751927D01*
X72166071Y-31751927D02*
X72204167Y-31751927D01*
X72204167Y-31751927D02*
X72261309Y-31770975D01*
X72261309Y-31770975D02*
X72280357Y-31790022D01*
X72661309Y-32151927D02*
X72432738Y-32151927D01*
X72547024Y-32151927D02*
X72547024Y-31751927D01*
X72547024Y-31751927D02*
X72508928Y-31809070D01*
X72508928Y-31809070D02*
X72470833Y-31847165D01*
X72470833Y-31847165D02*
X72432738Y-31866213D01*
X72908928Y-31751927D02*
X72947023Y-31751927D01*
X72947023Y-31751927D02*
X72985119Y-31770975D01*
X72985119Y-31770975D02*
X73004166Y-31790022D01*
X73004166Y-31790022D02*
X73023214Y-31828118D01*
X73023214Y-31828118D02*
X73042261Y-31904308D01*
X73042261Y-31904308D02*
X73042261Y-31999546D01*
X73042261Y-31999546D02*
X73023214Y-32075737D01*
X73023214Y-32075737D02*
X73004166Y-32113832D01*
X73004166Y-32113832D02*
X72985119Y-32132880D01*
X72985119Y-32132880D02*
X72947023Y-32151927D01*
X72947023Y-32151927D02*
X72908928Y-32151927D01*
X72908928Y-32151927D02*
X72870833Y-32132880D01*
X72870833Y-32132880D02*
X72851785Y-32113832D01*
X72851785Y-32113832D02*
X72832738Y-32075737D01*
X72832738Y-32075737D02*
X72813690Y-31999546D01*
X72813690Y-31999546D02*
X72813690Y-31904308D01*
X72813690Y-31904308D02*
X72832738Y-31828118D01*
X72832738Y-31828118D02*
X72851785Y-31790022D01*
X72851785Y-31790022D02*
X72870833Y-31770975D01*
X72870833Y-31770975D02*
X72908928Y-31751927D01*
D10*
X86491071Y-33854819D02*
X85919643Y-33854819D01*
X86205357Y-33854819D02*
X86205357Y-32854819D01*
X86205357Y-32854819D02*
X86110119Y-32997676D01*
X86110119Y-32997676D02*
X86014881Y-33092914D01*
X86014881Y-33092914D02*
X85919643Y-33140533D01*
X87110119Y-32854819D02*
X87205357Y-32854819D01*
X87205357Y-32854819D02*
X87300595Y-32902438D01*
X87300595Y-32902438D02*
X87348214Y-32950057D01*
X87348214Y-32950057D02*
X87395833Y-33045295D01*
X87395833Y-33045295D02*
X87443452Y-33235771D01*
X87443452Y-33235771D02*
X87443452Y-33473866D01*
X87443452Y-33473866D02*
X87395833Y-33664342D01*
X87395833Y-33664342D02*
X87348214Y-33759580D01*
X87348214Y-33759580D02*
X87300595Y-33807200D01*
X87300595Y-33807200D02*
X87205357Y-33854819D01*
X87205357Y-33854819D02*
X87110119Y-33854819D01*
X87110119Y-33854819D02*
X87014881Y-33807200D01*
X87014881Y-33807200D02*
X86967262Y-33759580D01*
X86967262Y-33759580D02*
X86919643Y-33664342D01*
X86919643Y-33664342D02*
X86872024Y-33473866D01*
X86872024Y-33473866D02*
X86872024Y-33235771D01*
X86872024Y-33235771D02*
X86919643Y-33045295D01*
X86919643Y-33045295D02*
X86967262Y-32950057D01*
X86967262Y-32950057D02*
X87014881Y-32902438D01*
X87014881Y-32902438D02*
X87110119Y-32854819D01*
X88300595Y-33188152D02*
X88300595Y-33854819D01*
X87872024Y-33188152D02*
X87872024Y-33711961D01*
X87872024Y-33711961D02*
X87919643Y-33807200D01*
X87919643Y-33807200D02*
X88014881Y-33854819D01*
X88014881Y-33854819D02*
X88157738Y-33854819D01*
X88157738Y-33854819D02*
X88252976Y-33807200D01*
X88252976Y-33807200D02*
X88300595Y-33759580D01*
X89110119Y-33331009D02*
X88776786Y-33331009D01*
X88776786Y-33854819D02*
X88776786Y-32854819D01*
X88776786Y-32854819D02*
X89252976Y-32854819D01*
D11*
X87305357Y-32113832D02*
X87286309Y-32132880D01*
X87286309Y-32132880D02*
X87229167Y-32151927D01*
X87229167Y-32151927D02*
X87191071Y-32151927D01*
X87191071Y-32151927D02*
X87133928Y-32132880D01*
X87133928Y-32132880D02*
X87095833Y-32094784D01*
X87095833Y-32094784D02*
X87076786Y-32056689D01*
X87076786Y-32056689D02*
X87057738Y-31980499D01*
X87057738Y-31980499D02*
X87057738Y-31923356D01*
X87057738Y-31923356D02*
X87076786Y-31847165D01*
X87076786Y-31847165D02*
X87095833Y-31809070D01*
X87095833Y-31809070D02*
X87133928Y-31770975D01*
X87133928Y-31770975D02*
X87191071Y-31751927D01*
X87191071Y-31751927D02*
X87229167Y-31751927D01*
X87229167Y-31751927D02*
X87286309Y-31770975D01*
X87286309Y-31770975D02*
X87305357Y-31790022D01*
X87686309Y-32151927D02*
X87457738Y-32151927D01*
X87572024Y-32151927D02*
X87572024Y-31751927D01*
X87572024Y-31751927D02*
X87533928Y-31809070D01*
X87533928Y-31809070D02*
X87495833Y-31847165D01*
X87495833Y-31847165D02*
X87457738Y-31866213D01*
X88067261Y-32151927D02*
X87838690Y-32151927D01*
X87952976Y-32151927D02*
X87952976Y-31751927D01*
X87952976Y-31751927D02*
X87914880Y-31809070D01*
X87914880Y-31809070D02*
X87876785Y-31847165D01*
X87876785Y-31847165D02*
X87838690Y-31866213D01*
D10*
X40939880Y-51884819D02*
X40368452Y-51884819D01*
X40654166Y-51884819D02*
X40654166Y-50884819D01*
X40654166Y-50884819D02*
X40558928Y-51027676D01*
X40558928Y-51027676D02*
X40463690Y-51122914D01*
X40463690Y-51122914D02*
X40368452Y-51170533D01*
X41558928Y-50884819D02*
X41654166Y-50884819D01*
X41654166Y-50884819D02*
X41749404Y-50932438D01*
X41749404Y-50932438D02*
X41797023Y-50980057D01*
X41797023Y-50980057D02*
X41844642Y-51075295D01*
X41844642Y-51075295D02*
X41892261Y-51265771D01*
X41892261Y-51265771D02*
X41892261Y-51503866D01*
X41892261Y-51503866D02*
X41844642Y-51694342D01*
X41844642Y-51694342D02*
X41797023Y-51789580D01*
X41797023Y-51789580D02*
X41749404Y-51837200D01*
X41749404Y-51837200D02*
X41654166Y-51884819D01*
X41654166Y-51884819D02*
X41558928Y-51884819D01*
X41558928Y-51884819D02*
X41463690Y-51837200D01*
X41463690Y-51837200D02*
X41416071Y-51789580D01*
X41416071Y-51789580D02*
X41368452Y-51694342D01*
X41368452Y-51694342D02*
X41320833Y-51503866D01*
X41320833Y-51503866D02*
X41320833Y-51265771D01*
X41320833Y-51265771D02*
X41368452Y-51075295D01*
X41368452Y-51075295D02*
X41416071Y-50980057D01*
X41416071Y-50980057D02*
X41463690Y-50932438D01*
X41463690Y-50932438D02*
X41558928Y-50884819D01*
X42511309Y-50884819D02*
X42606547Y-50884819D01*
X42606547Y-50884819D02*
X42701785Y-50932438D01*
X42701785Y-50932438D02*
X42749404Y-50980057D01*
X42749404Y-50980057D02*
X42797023Y-51075295D01*
X42797023Y-51075295D02*
X42844642Y-51265771D01*
X42844642Y-51265771D02*
X42844642Y-51503866D01*
X42844642Y-51503866D02*
X42797023Y-51694342D01*
X42797023Y-51694342D02*
X42749404Y-51789580D01*
X42749404Y-51789580D02*
X42701785Y-51837200D01*
X42701785Y-51837200D02*
X42606547Y-51884819D01*
X42606547Y-51884819D02*
X42511309Y-51884819D01*
X42511309Y-51884819D02*
X42416071Y-51837200D01*
X42416071Y-51837200D02*
X42368452Y-51789580D01*
X42368452Y-51789580D02*
X42320833Y-51694342D01*
X42320833Y-51694342D02*
X42273214Y-51503866D01*
X42273214Y-51503866D02*
X42273214Y-51265771D01*
X42273214Y-51265771D02*
X42320833Y-51075295D01*
X42320833Y-51075295D02*
X42368452Y-50980057D01*
X42368452Y-50980057D02*
X42416071Y-50932438D01*
X42416071Y-50932438D02*
X42511309Y-50884819D01*
X43273214Y-51218152D02*
X43273214Y-51884819D01*
X43273214Y-51313390D02*
X43320833Y-51265771D01*
X43320833Y-51265771D02*
X43416071Y-51218152D01*
X43416071Y-51218152D02*
X43558928Y-51218152D01*
X43558928Y-51218152D02*
X43654166Y-51265771D01*
X43654166Y-51265771D02*
X43701785Y-51361009D01*
X43701785Y-51361009D02*
X43701785Y-51884819D01*
X44511309Y-51361009D02*
X44177976Y-51361009D01*
X44177976Y-51884819D02*
X44177976Y-50884819D01*
X44177976Y-50884819D02*
X44654166Y-50884819D01*
D11*
X42230357Y-50143832D02*
X42211309Y-50162880D01*
X42211309Y-50162880D02*
X42154167Y-50181927D01*
X42154167Y-50181927D02*
X42116071Y-50181927D01*
X42116071Y-50181927D02*
X42058928Y-50162880D01*
X42058928Y-50162880D02*
X42020833Y-50124784D01*
X42020833Y-50124784D02*
X42001786Y-50086689D01*
X42001786Y-50086689D02*
X41982738Y-50010499D01*
X41982738Y-50010499D02*
X41982738Y-49953356D01*
X41982738Y-49953356D02*
X42001786Y-49877165D01*
X42001786Y-49877165D02*
X42020833Y-49839070D01*
X42020833Y-49839070D02*
X42058928Y-49800975D01*
X42058928Y-49800975D02*
X42116071Y-49781927D01*
X42116071Y-49781927D02*
X42154167Y-49781927D01*
X42154167Y-49781927D02*
X42211309Y-49800975D01*
X42211309Y-49800975D02*
X42230357Y-49820022D01*
X42611309Y-50181927D02*
X42382738Y-50181927D01*
X42497024Y-50181927D02*
X42497024Y-49781927D01*
X42497024Y-49781927D02*
X42458928Y-49839070D01*
X42458928Y-49839070D02*
X42420833Y-49877165D01*
X42420833Y-49877165D02*
X42382738Y-49896213D01*
X42954166Y-49915260D02*
X42954166Y-50181927D01*
X42858928Y-49762880D02*
X42763690Y-50048594D01*
X42763690Y-50048594D02*
X43011309Y-50048594D01*
D10*
X71466071Y-69914819D02*
X70894643Y-69914819D01*
X71180357Y-69914819D02*
X71180357Y-68914819D01*
X71180357Y-68914819D02*
X71085119Y-69057676D01*
X71085119Y-69057676D02*
X70989881Y-69152914D01*
X70989881Y-69152914D02*
X70894643Y-69200533D01*
X72085119Y-68914819D02*
X72180357Y-68914819D01*
X72180357Y-68914819D02*
X72275595Y-68962438D01*
X72275595Y-68962438D02*
X72323214Y-69010057D01*
X72323214Y-69010057D02*
X72370833Y-69105295D01*
X72370833Y-69105295D02*
X72418452Y-69295771D01*
X72418452Y-69295771D02*
X72418452Y-69533866D01*
X72418452Y-69533866D02*
X72370833Y-69724342D01*
X72370833Y-69724342D02*
X72323214Y-69819580D01*
X72323214Y-69819580D02*
X72275595Y-69867200D01*
X72275595Y-69867200D02*
X72180357Y-69914819D01*
X72180357Y-69914819D02*
X72085119Y-69914819D01*
X72085119Y-69914819D02*
X71989881Y-69867200D01*
X71989881Y-69867200D02*
X71942262Y-69819580D01*
X71942262Y-69819580D02*
X71894643Y-69724342D01*
X71894643Y-69724342D02*
X71847024Y-69533866D01*
X71847024Y-69533866D02*
X71847024Y-69295771D01*
X71847024Y-69295771D02*
X71894643Y-69105295D01*
X71894643Y-69105295D02*
X71942262Y-69010057D01*
X71942262Y-69010057D02*
X71989881Y-68962438D01*
X71989881Y-68962438D02*
X72085119Y-68914819D01*
X73275595Y-69248152D02*
X73275595Y-69914819D01*
X72847024Y-69248152D02*
X72847024Y-69771961D01*
X72847024Y-69771961D02*
X72894643Y-69867200D01*
X72894643Y-69867200D02*
X72989881Y-69914819D01*
X72989881Y-69914819D02*
X73132738Y-69914819D01*
X73132738Y-69914819D02*
X73227976Y-69867200D01*
X73227976Y-69867200D02*
X73275595Y-69819580D01*
X74085119Y-69391009D02*
X73751786Y-69391009D01*
X73751786Y-69914819D02*
X73751786Y-68914819D01*
X73751786Y-68914819D02*
X74227976Y-68914819D01*
D11*
X72470833Y-68173832D02*
X72451785Y-68192880D01*
X72451785Y-68192880D02*
X72394643Y-68211927D01*
X72394643Y-68211927D02*
X72356547Y-68211927D01*
X72356547Y-68211927D02*
X72299404Y-68192880D01*
X72299404Y-68192880D02*
X72261309Y-68154784D01*
X72261309Y-68154784D02*
X72242262Y-68116689D01*
X72242262Y-68116689D02*
X72223214Y-68040499D01*
X72223214Y-68040499D02*
X72223214Y-67983356D01*
X72223214Y-67983356D02*
X72242262Y-67907165D01*
X72242262Y-67907165D02*
X72261309Y-67869070D01*
X72261309Y-67869070D02*
X72299404Y-67830975D01*
X72299404Y-67830975D02*
X72356547Y-67811927D01*
X72356547Y-67811927D02*
X72394643Y-67811927D01*
X72394643Y-67811927D02*
X72451785Y-67830975D01*
X72451785Y-67830975D02*
X72470833Y-67850022D01*
X72661309Y-68211927D02*
X72737500Y-68211927D01*
X72737500Y-68211927D02*
X72775595Y-68192880D01*
X72775595Y-68192880D02*
X72794643Y-68173832D01*
X72794643Y-68173832D02*
X72832738Y-68116689D01*
X72832738Y-68116689D02*
X72851785Y-68040499D01*
X72851785Y-68040499D02*
X72851785Y-67888118D01*
X72851785Y-67888118D02*
X72832738Y-67850022D01*
X72832738Y-67850022D02*
X72813690Y-67830975D01*
X72813690Y-67830975D02*
X72775595Y-67811927D01*
X72775595Y-67811927D02*
X72699404Y-67811927D01*
X72699404Y-67811927D02*
X72661309Y-67830975D01*
X72661309Y-67830975D02*
X72642262Y-67850022D01*
X72642262Y-67850022D02*
X72623214Y-67888118D01*
X72623214Y-67888118D02*
X72623214Y-67983356D01*
X72623214Y-67983356D02*
X72642262Y-68021451D01*
X72642262Y-68021451D02*
X72661309Y-68040499D01*
X72661309Y-68040499D02*
X72699404Y-68059546D01*
X72699404Y-68059546D02*
X72775595Y-68059546D01*
X72775595Y-68059546D02*
X72813690Y-68040499D01*
X72813690Y-68040499D02*
X72832738Y-68021451D01*
X72832738Y-68021451D02*
X72851785Y-67983356D01*
D10*
X10889880Y-51884819D02*
X10318452Y-51884819D01*
X10604166Y-51884819D02*
X10604166Y-50884819D01*
X10604166Y-50884819D02*
X10508928Y-51027676D01*
X10508928Y-51027676D02*
X10413690Y-51122914D01*
X10413690Y-51122914D02*
X10318452Y-51170533D01*
X11508928Y-50884819D02*
X11604166Y-50884819D01*
X11604166Y-50884819D02*
X11699404Y-50932438D01*
X11699404Y-50932438D02*
X11747023Y-50980057D01*
X11747023Y-50980057D02*
X11794642Y-51075295D01*
X11794642Y-51075295D02*
X11842261Y-51265771D01*
X11842261Y-51265771D02*
X11842261Y-51503866D01*
X11842261Y-51503866D02*
X11794642Y-51694342D01*
X11794642Y-51694342D02*
X11747023Y-51789580D01*
X11747023Y-51789580D02*
X11699404Y-51837200D01*
X11699404Y-51837200D02*
X11604166Y-51884819D01*
X11604166Y-51884819D02*
X11508928Y-51884819D01*
X11508928Y-51884819D02*
X11413690Y-51837200D01*
X11413690Y-51837200D02*
X11366071Y-51789580D01*
X11366071Y-51789580D02*
X11318452Y-51694342D01*
X11318452Y-51694342D02*
X11270833Y-51503866D01*
X11270833Y-51503866D02*
X11270833Y-51265771D01*
X11270833Y-51265771D02*
X11318452Y-51075295D01*
X11318452Y-51075295D02*
X11366071Y-50980057D01*
X11366071Y-50980057D02*
X11413690Y-50932438D01*
X11413690Y-50932438D02*
X11508928Y-50884819D01*
X12461309Y-50884819D02*
X12556547Y-50884819D01*
X12556547Y-50884819D02*
X12651785Y-50932438D01*
X12651785Y-50932438D02*
X12699404Y-50980057D01*
X12699404Y-50980057D02*
X12747023Y-51075295D01*
X12747023Y-51075295D02*
X12794642Y-51265771D01*
X12794642Y-51265771D02*
X12794642Y-51503866D01*
X12794642Y-51503866D02*
X12747023Y-51694342D01*
X12747023Y-51694342D02*
X12699404Y-51789580D01*
X12699404Y-51789580D02*
X12651785Y-51837200D01*
X12651785Y-51837200D02*
X12556547Y-51884819D01*
X12556547Y-51884819D02*
X12461309Y-51884819D01*
X12461309Y-51884819D02*
X12366071Y-51837200D01*
X12366071Y-51837200D02*
X12318452Y-51789580D01*
X12318452Y-51789580D02*
X12270833Y-51694342D01*
X12270833Y-51694342D02*
X12223214Y-51503866D01*
X12223214Y-51503866D02*
X12223214Y-51265771D01*
X12223214Y-51265771D02*
X12270833Y-51075295D01*
X12270833Y-51075295D02*
X12318452Y-50980057D01*
X12318452Y-50980057D02*
X12366071Y-50932438D01*
X12366071Y-50932438D02*
X12461309Y-50884819D01*
X13223214Y-51218152D02*
X13223214Y-51884819D01*
X13223214Y-51313390D02*
X13270833Y-51265771D01*
X13270833Y-51265771D02*
X13366071Y-51218152D01*
X13366071Y-51218152D02*
X13508928Y-51218152D01*
X13508928Y-51218152D02*
X13604166Y-51265771D01*
X13604166Y-51265771D02*
X13651785Y-51361009D01*
X13651785Y-51361009D02*
X13651785Y-51884819D01*
X14461309Y-51361009D02*
X14127976Y-51361009D01*
X14127976Y-51884819D02*
X14127976Y-50884819D01*
X14127976Y-50884819D02*
X14604166Y-50884819D01*
D11*
X12180357Y-50143832D02*
X12161309Y-50162880D01*
X12161309Y-50162880D02*
X12104167Y-50181927D01*
X12104167Y-50181927D02*
X12066071Y-50181927D01*
X12066071Y-50181927D02*
X12008928Y-50162880D01*
X12008928Y-50162880D02*
X11970833Y-50124784D01*
X11970833Y-50124784D02*
X11951786Y-50086689D01*
X11951786Y-50086689D02*
X11932738Y-50010499D01*
X11932738Y-50010499D02*
X11932738Y-49953356D01*
X11932738Y-49953356D02*
X11951786Y-49877165D01*
X11951786Y-49877165D02*
X11970833Y-49839070D01*
X11970833Y-49839070D02*
X12008928Y-49800975D01*
X12008928Y-49800975D02*
X12066071Y-49781927D01*
X12066071Y-49781927D02*
X12104167Y-49781927D01*
X12104167Y-49781927D02*
X12161309Y-49800975D01*
X12161309Y-49800975D02*
X12180357Y-49820022D01*
X12561309Y-50181927D02*
X12332738Y-50181927D01*
X12447024Y-50181927D02*
X12447024Y-49781927D01*
X12447024Y-49781927D02*
X12408928Y-49839070D01*
X12408928Y-49839070D02*
X12370833Y-49877165D01*
X12370833Y-49877165D02*
X12332738Y-49896213D01*
X12713690Y-49820022D02*
X12732738Y-49800975D01*
X12732738Y-49800975D02*
X12770833Y-49781927D01*
X12770833Y-49781927D02*
X12866071Y-49781927D01*
X12866071Y-49781927D02*
X12904166Y-49800975D01*
X12904166Y-49800975D02*
X12923214Y-49820022D01*
X12923214Y-49820022D02*
X12942261Y-49858118D01*
X12942261Y-49858118D02*
X12942261Y-49896213D01*
X12942261Y-49896213D02*
X12923214Y-49953356D01*
X12923214Y-49953356D02*
X12694642Y-50181927D01*
X12694642Y-50181927D02*
X12942261Y-50181927D01*
D10*
X71466071Y-51884819D02*
X70894643Y-51884819D01*
X71180357Y-51884819D02*
X71180357Y-50884819D01*
X71180357Y-50884819D02*
X71085119Y-51027676D01*
X71085119Y-51027676D02*
X70989881Y-51122914D01*
X70989881Y-51122914D02*
X70894643Y-51170533D01*
X72085119Y-50884819D02*
X72180357Y-50884819D01*
X72180357Y-50884819D02*
X72275595Y-50932438D01*
X72275595Y-50932438D02*
X72323214Y-50980057D01*
X72323214Y-50980057D02*
X72370833Y-51075295D01*
X72370833Y-51075295D02*
X72418452Y-51265771D01*
X72418452Y-51265771D02*
X72418452Y-51503866D01*
X72418452Y-51503866D02*
X72370833Y-51694342D01*
X72370833Y-51694342D02*
X72323214Y-51789580D01*
X72323214Y-51789580D02*
X72275595Y-51837200D01*
X72275595Y-51837200D02*
X72180357Y-51884819D01*
X72180357Y-51884819D02*
X72085119Y-51884819D01*
X72085119Y-51884819D02*
X71989881Y-51837200D01*
X71989881Y-51837200D02*
X71942262Y-51789580D01*
X71942262Y-51789580D02*
X71894643Y-51694342D01*
X71894643Y-51694342D02*
X71847024Y-51503866D01*
X71847024Y-51503866D02*
X71847024Y-51265771D01*
X71847024Y-51265771D02*
X71894643Y-51075295D01*
X71894643Y-51075295D02*
X71942262Y-50980057D01*
X71942262Y-50980057D02*
X71989881Y-50932438D01*
X71989881Y-50932438D02*
X72085119Y-50884819D01*
X73275595Y-51218152D02*
X73275595Y-51884819D01*
X72847024Y-51218152D02*
X72847024Y-51741961D01*
X72847024Y-51741961D02*
X72894643Y-51837200D01*
X72894643Y-51837200D02*
X72989881Y-51884819D01*
X72989881Y-51884819D02*
X73132738Y-51884819D01*
X73132738Y-51884819D02*
X73227976Y-51837200D01*
X73227976Y-51837200D02*
X73275595Y-51789580D01*
X74085119Y-51361009D02*
X73751786Y-51361009D01*
X73751786Y-51884819D02*
X73751786Y-50884819D01*
X73751786Y-50884819D02*
X74227976Y-50884819D01*
D11*
X72470833Y-50143832D02*
X72451785Y-50162880D01*
X72451785Y-50162880D02*
X72394643Y-50181927D01*
X72394643Y-50181927D02*
X72356547Y-50181927D01*
X72356547Y-50181927D02*
X72299404Y-50162880D01*
X72299404Y-50162880D02*
X72261309Y-50124784D01*
X72261309Y-50124784D02*
X72242262Y-50086689D01*
X72242262Y-50086689D02*
X72223214Y-50010499D01*
X72223214Y-50010499D02*
X72223214Y-49953356D01*
X72223214Y-49953356D02*
X72242262Y-49877165D01*
X72242262Y-49877165D02*
X72261309Y-49839070D01*
X72261309Y-49839070D02*
X72299404Y-49800975D01*
X72299404Y-49800975D02*
X72356547Y-49781927D01*
X72356547Y-49781927D02*
X72394643Y-49781927D01*
X72394643Y-49781927D02*
X72451785Y-49800975D01*
X72451785Y-49800975D02*
X72470833Y-49820022D01*
X72604166Y-49781927D02*
X72851785Y-49781927D01*
X72851785Y-49781927D02*
X72718452Y-49934308D01*
X72718452Y-49934308D02*
X72775595Y-49934308D01*
X72775595Y-49934308D02*
X72813690Y-49953356D01*
X72813690Y-49953356D02*
X72832738Y-49972403D01*
X72832738Y-49972403D02*
X72851785Y-50010499D01*
X72851785Y-50010499D02*
X72851785Y-50105737D01*
X72851785Y-50105737D02*
X72832738Y-50143832D01*
X72832738Y-50143832D02*
X72813690Y-50162880D01*
X72813690Y-50162880D02*
X72775595Y-50181927D01*
X72775595Y-50181927D02*
X72661309Y-50181927D01*
X72661309Y-50181927D02*
X72623214Y-50162880D01*
X72623214Y-50162880D02*
X72604166Y-50143832D01*
D10*
X55964880Y-51884819D02*
X55393452Y-51884819D01*
X55679166Y-51884819D02*
X55679166Y-50884819D01*
X55679166Y-50884819D02*
X55583928Y-51027676D01*
X55583928Y-51027676D02*
X55488690Y-51122914D01*
X55488690Y-51122914D02*
X55393452Y-51170533D01*
X56583928Y-50884819D02*
X56679166Y-50884819D01*
X56679166Y-50884819D02*
X56774404Y-50932438D01*
X56774404Y-50932438D02*
X56822023Y-50980057D01*
X56822023Y-50980057D02*
X56869642Y-51075295D01*
X56869642Y-51075295D02*
X56917261Y-51265771D01*
X56917261Y-51265771D02*
X56917261Y-51503866D01*
X56917261Y-51503866D02*
X56869642Y-51694342D01*
X56869642Y-51694342D02*
X56822023Y-51789580D01*
X56822023Y-51789580D02*
X56774404Y-51837200D01*
X56774404Y-51837200D02*
X56679166Y-51884819D01*
X56679166Y-51884819D02*
X56583928Y-51884819D01*
X56583928Y-51884819D02*
X56488690Y-51837200D01*
X56488690Y-51837200D02*
X56441071Y-51789580D01*
X56441071Y-51789580D02*
X56393452Y-51694342D01*
X56393452Y-51694342D02*
X56345833Y-51503866D01*
X56345833Y-51503866D02*
X56345833Y-51265771D01*
X56345833Y-51265771D02*
X56393452Y-51075295D01*
X56393452Y-51075295D02*
X56441071Y-50980057D01*
X56441071Y-50980057D02*
X56488690Y-50932438D01*
X56488690Y-50932438D02*
X56583928Y-50884819D01*
X57536309Y-50884819D02*
X57631547Y-50884819D01*
X57631547Y-50884819D02*
X57726785Y-50932438D01*
X57726785Y-50932438D02*
X57774404Y-50980057D01*
X57774404Y-50980057D02*
X57822023Y-51075295D01*
X57822023Y-51075295D02*
X57869642Y-51265771D01*
X57869642Y-51265771D02*
X57869642Y-51503866D01*
X57869642Y-51503866D02*
X57822023Y-51694342D01*
X57822023Y-51694342D02*
X57774404Y-51789580D01*
X57774404Y-51789580D02*
X57726785Y-51837200D01*
X57726785Y-51837200D02*
X57631547Y-51884819D01*
X57631547Y-51884819D02*
X57536309Y-51884819D01*
X57536309Y-51884819D02*
X57441071Y-51837200D01*
X57441071Y-51837200D02*
X57393452Y-51789580D01*
X57393452Y-51789580D02*
X57345833Y-51694342D01*
X57345833Y-51694342D02*
X57298214Y-51503866D01*
X57298214Y-51503866D02*
X57298214Y-51265771D01*
X57298214Y-51265771D02*
X57345833Y-51075295D01*
X57345833Y-51075295D02*
X57393452Y-50980057D01*
X57393452Y-50980057D02*
X57441071Y-50932438D01*
X57441071Y-50932438D02*
X57536309Y-50884819D01*
X58298214Y-51218152D02*
X58298214Y-51884819D01*
X58298214Y-51313390D02*
X58345833Y-51265771D01*
X58345833Y-51265771D02*
X58441071Y-51218152D01*
X58441071Y-51218152D02*
X58583928Y-51218152D01*
X58583928Y-51218152D02*
X58679166Y-51265771D01*
X58679166Y-51265771D02*
X58726785Y-51361009D01*
X58726785Y-51361009D02*
X58726785Y-51884819D01*
X59536309Y-51361009D02*
X59202976Y-51361009D01*
X59202976Y-51884819D02*
X59202976Y-50884819D01*
X59202976Y-50884819D02*
X59679166Y-50884819D01*
D11*
X57445833Y-50143832D02*
X57426785Y-50162880D01*
X57426785Y-50162880D02*
X57369643Y-50181927D01*
X57369643Y-50181927D02*
X57331547Y-50181927D01*
X57331547Y-50181927D02*
X57274404Y-50162880D01*
X57274404Y-50162880D02*
X57236309Y-50124784D01*
X57236309Y-50124784D02*
X57217262Y-50086689D01*
X57217262Y-50086689D02*
X57198214Y-50010499D01*
X57198214Y-50010499D02*
X57198214Y-49953356D01*
X57198214Y-49953356D02*
X57217262Y-49877165D01*
X57217262Y-49877165D02*
X57236309Y-49839070D01*
X57236309Y-49839070D02*
X57274404Y-49800975D01*
X57274404Y-49800975D02*
X57331547Y-49781927D01*
X57331547Y-49781927D02*
X57369643Y-49781927D01*
X57369643Y-49781927D02*
X57426785Y-49800975D01*
X57426785Y-49800975D02*
X57445833Y-49820022D01*
X57598214Y-49820022D02*
X57617262Y-49800975D01*
X57617262Y-49800975D02*
X57655357Y-49781927D01*
X57655357Y-49781927D02*
X57750595Y-49781927D01*
X57750595Y-49781927D02*
X57788690Y-49800975D01*
X57788690Y-49800975D02*
X57807738Y-49820022D01*
X57807738Y-49820022D02*
X57826785Y-49858118D01*
X57826785Y-49858118D02*
X57826785Y-49896213D01*
X57826785Y-49896213D02*
X57807738Y-49953356D01*
X57807738Y-49953356D02*
X57579166Y-50181927D01*
X57579166Y-50181927D02*
X57826785Y-50181927D01*
D10*
X69418452Y-19894819D02*
X69989880Y-19894819D01*
X69704166Y-20894819D02*
X69704166Y-19894819D01*
X70323214Y-20894819D02*
X70323214Y-19894819D01*
X70323214Y-19894819D02*
X70704166Y-19894819D01*
X70704166Y-19894819D02*
X70799404Y-19942438D01*
X70799404Y-19942438D02*
X70847023Y-19990057D01*
X70847023Y-19990057D02*
X70894642Y-20085295D01*
X70894642Y-20085295D02*
X70894642Y-20228152D01*
X70894642Y-20228152D02*
X70847023Y-20323390D01*
X70847023Y-20323390D02*
X70799404Y-20371009D01*
X70799404Y-20371009D02*
X70704166Y-20418628D01*
X70704166Y-20418628D02*
X70323214Y-20418628D01*
X71275595Y-20609104D02*
X71751785Y-20609104D01*
X71180357Y-20894819D02*
X71513690Y-19894819D01*
X71513690Y-19894819D02*
X71847023Y-20894819D01*
X72085119Y-19894819D02*
X72704166Y-19894819D01*
X72704166Y-19894819D02*
X72370833Y-20275771D01*
X72370833Y-20275771D02*
X72513690Y-20275771D01*
X72513690Y-20275771D02*
X72608928Y-20323390D01*
X72608928Y-20323390D02*
X72656547Y-20371009D01*
X72656547Y-20371009D02*
X72704166Y-20466247D01*
X72704166Y-20466247D02*
X72704166Y-20704342D01*
X72704166Y-20704342D02*
X72656547Y-20799580D01*
X72656547Y-20799580D02*
X72608928Y-20847200D01*
X72608928Y-20847200D02*
X72513690Y-20894819D01*
X72513690Y-20894819D02*
X72227976Y-20894819D01*
X72227976Y-20894819D02*
X72132738Y-20847200D01*
X72132738Y-20847200D02*
X72085119Y-20799580D01*
X73085119Y-19990057D02*
X73132738Y-19942438D01*
X73132738Y-19942438D02*
X73227976Y-19894819D01*
X73227976Y-19894819D02*
X73466071Y-19894819D01*
X73466071Y-19894819D02*
X73561309Y-19942438D01*
X73561309Y-19942438D02*
X73608928Y-19990057D01*
X73608928Y-19990057D02*
X73656547Y-20085295D01*
X73656547Y-20085295D02*
X73656547Y-20180533D01*
X73656547Y-20180533D02*
X73608928Y-20323390D01*
X73608928Y-20323390D02*
X73037500Y-20894819D01*
X73037500Y-20894819D02*
X73656547Y-20894819D01*
X74561309Y-19894819D02*
X74085119Y-19894819D01*
X74085119Y-19894819D02*
X74037500Y-20371009D01*
X74037500Y-20371009D02*
X74085119Y-20323390D01*
X74085119Y-20323390D02*
X74180357Y-20275771D01*
X74180357Y-20275771D02*
X74418452Y-20275771D01*
X74418452Y-20275771D02*
X74513690Y-20323390D01*
X74513690Y-20323390D02*
X74561309Y-20371009D01*
X74561309Y-20371009D02*
X74608928Y-20466247D01*
X74608928Y-20466247D02*
X74608928Y-20704342D01*
X74608928Y-20704342D02*
X74561309Y-20799580D01*
X74561309Y-20799580D02*
X74513690Y-20847200D01*
X74513690Y-20847200D02*
X74418452Y-20894819D01*
X74418452Y-20894819D02*
X74180357Y-20894819D01*
X74180357Y-20894819D02*
X74085119Y-20847200D01*
X74085119Y-20847200D02*
X74037500Y-20799580D01*
X75513690Y-19894819D02*
X75037500Y-19894819D01*
X75037500Y-19894819D02*
X74989881Y-20371009D01*
X74989881Y-20371009D02*
X75037500Y-20323390D01*
X75037500Y-20323390D02*
X75132738Y-20275771D01*
X75132738Y-20275771D02*
X75370833Y-20275771D01*
X75370833Y-20275771D02*
X75466071Y-20323390D01*
X75466071Y-20323390D02*
X75513690Y-20371009D01*
X75513690Y-20371009D02*
X75561309Y-20466247D01*
X75561309Y-20466247D02*
X75561309Y-20704342D01*
X75561309Y-20704342D02*
X75513690Y-20799580D01*
X75513690Y-20799580D02*
X75466071Y-20847200D01*
X75466071Y-20847200D02*
X75370833Y-20894819D01*
X75370833Y-20894819D02*
X75132738Y-20894819D01*
X75132738Y-20894819D02*
X75037500Y-20847200D01*
X75037500Y-20847200D02*
X74989881Y-20799580D01*
X82800594Y-93484819D02*
X82467261Y-93008628D01*
X82229166Y-93484819D02*
X82229166Y-92484819D01*
X82229166Y-92484819D02*
X82610118Y-92484819D01*
X82610118Y-92484819D02*
X82705356Y-92532438D01*
X82705356Y-92532438D02*
X82752975Y-92580057D01*
X82752975Y-92580057D02*
X82800594Y-92675295D01*
X82800594Y-92675295D02*
X82800594Y-92818152D01*
X82800594Y-92818152D02*
X82752975Y-92913390D01*
X82752975Y-92913390D02*
X82705356Y-92961009D01*
X82705356Y-92961009D02*
X82610118Y-93008628D01*
X82610118Y-93008628D02*
X82229166Y-93008628D01*
X83086309Y-92484819D02*
X83657737Y-92484819D01*
X83372023Y-93484819D02*
X83372023Y-92484819D01*
X84467261Y-93484819D02*
X83991071Y-93484819D01*
X83991071Y-93484819D02*
X83991071Y-92484819D01*
X84943452Y-92913390D02*
X84848214Y-92865771D01*
X84848214Y-92865771D02*
X84800595Y-92818152D01*
X84800595Y-92818152D02*
X84752976Y-92722914D01*
X84752976Y-92722914D02*
X84752976Y-92675295D01*
X84752976Y-92675295D02*
X84800595Y-92580057D01*
X84800595Y-92580057D02*
X84848214Y-92532438D01*
X84848214Y-92532438D02*
X84943452Y-92484819D01*
X84943452Y-92484819D02*
X85133928Y-92484819D01*
X85133928Y-92484819D02*
X85229166Y-92532438D01*
X85229166Y-92532438D02*
X85276785Y-92580057D01*
X85276785Y-92580057D02*
X85324404Y-92675295D01*
X85324404Y-92675295D02*
X85324404Y-92722914D01*
X85324404Y-92722914D02*
X85276785Y-92818152D01*
X85276785Y-92818152D02*
X85229166Y-92865771D01*
X85229166Y-92865771D02*
X85133928Y-92913390D01*
X85133928Y-92913390D02*
X84943452Y-92913390D01*
X84943452Y-92913390D02*
X84848214Y-92961009D01*
X84848214Y-92961009D02*
X84800595Y-93008628D01*
X84800595Y-93008628D02*
X84752976Y-93103866D01*
X84752976Y-93103866D02*
X84752976Y-93294342D01*
X84752976Y-93294342D02*
X84800595Y-93389580D01*
X84800595Y-93389580D02*
X84848214Y-93437200D01*
X84848214Y-93437200D02*
X84943452Y-93484819D01*
X84943452Y-93484819D02*
X85133928Y-93484819D01*
X85133928Y-93484819D02*
X85229166Y-93437200D01*
X85229166Y-93437200D02*
X85276785Y-93389580D01*
X85276785Y-93389580D02*
X85324404Y-93294342D01*
X85324404Y-93294342D02*
X85324404Y-93103866D01*
X85324404Y-93103866D02*
X85276785Y-93008628D01*
X85276785Y-93008628D02*
X85229166Y-92961009D01*
X85229166Y-92961009D02*
X85133928Y-92913390D01*
X85895833Y-92913390D02*
X85800595Y-92865771D01*
X85800595Y-92865771D02*
X85752976Y-92818152D01*
X85752976Y-92818152D02*
X85705357Y-92722914D01*
X85705357Y-92722914D02*
X85705357Y-92675295D01*
X85705357Y-92675295D02*
X85752976Y-92580057D01*
X85752976Y-92580057D02*
X85800595Y-92532438D01*
X85800595Y-92532438D02*
X85895833Y-92484819D01*
X85895833Y-92484819D02*
X86086309Y-92484819D01*
X86086309Y-92484819D02*
X86181547Y-92532438D01*
X86181547Y-92532438D02*
X86229166Y-92580057D01*
X86229166Y-92580057D02*
X86276785Y-92675295D01*
X86276785Y-92675295D02*
X86276785Y-92722914D01*
X86276785Y-92722914D02*
X86229166Y-92818152D01*
X86229166Y-92818152D02*
X86181547Y-92865771D01*
X86181547Y-92865771D02*
X86086309Y-92913390D01*
X86086309Y-92913390D02*
X85895833Y-92913390D01*
X85895833Y-92913390D02*
X85800595Y-92961009D01*
X85800595Y-92961009D02*
X85752976Y-93008628D01*
X85752976Y-93008628D02*
X85705357Y-93103866D01*
X85705357Y-93103866D02*
X85705357Y-93294342D01*
X85705357Y-93294342D02*
X85752976Y-93389580D01*
X85752976Y-93389580D02*
X85800595Y-93437200D01*
X85800595Y-93437200D02*
X85895833Y-93484819D01*
X85895833Y-93484819D02*
X86086309Y-93484819D01*
X86086309Y-93484819D02*
X86181547Y-93437200D01*
X86181547Y-93437200D02*
X86229166Y-93389580D01*
X86229166Y-93389580D02*
X86276785Y-93294342D01*
X86276785Y-93294342D02*
X86276785Y-93103866D01*
X86276785Y-93103866D02*
X86229166Y-93008628D01*
X86229166Y-93008628D02*
X86181547Y-92961009D01*
X86181547Y-92961009D02*
X86086309Y-92913390D01*
X87181547Y-92484819D02*
X86705357Y-92484819D01*
X86705357Y-92484819D02*
X86657738Y-92961009D01*
X86657738Y-92961009D02*
X86705357Y-92913390D01*
X86705357Y-92913390D02*
X86800595Y-92865771D01*
X86800595Y-92865771D02*
X87038690Y-92865771D01*
X87038690Y-92865771D02*
X87133928Y-92913390D01*
X87133928Y-92913390D02*
X87181547Y-92961009D01*
X87181547Y-92961009D02*
X87229166Y-93056247D01*
X87229166Y-93056247D02*
X87229166Y-93294342D01*
X87229166Y-93294342D02*
X87181547Y-93389580D01*
X87181547Y-93389580D02*
X87133928Y-93437200D01*
X87133928Y-93437200D02*
X87038690Y-93484819D01*
X87038690Y-93484819D02*
X86800595Y-93484819D01*
X86800595Y-93484819D02*
X86705357Y-93437200D01*
X86705357Y-93437200D02*
X86657738Y-93389580D01*
X87610119Y-92580057D02*
X87657738Y-92532438D01*
X87657738Y-92532438D02*
X87752976Y-92484819D01*
X87752976Y-92484819D02*
X87991071Y-92484819D01*
X87991071Y-92484819D02*
X88086309Y-92532438D01*
X88086309Y-92532438D02*
X88133928Y-92580057D01*
X88133928Y-92580057D02*
X88181547Y-92675295D01*
X88181547Y-92675295D02*
X88181547Y-92770533D01*
X88181547Y-92770533D02*
X88133928Y-92913390D01*
X88133928Y-92913390D02*
X87562500Y-93484819D01*
X87562500Y-93484819D02*
X88181547Y-93484819D01*
X88943452Y-92961009D02*
X89086309Y-93008628D01*
X89086309Y-93008628D02*
X89133928Y-93056247D01*
X89133928Y-93056247D02*
X89181547Y-93151485D01*
X89181547Y-93151485D02*
X89181547Y-93294342D01*
X89181547Y-93294342D02*
X89133928Y-93389580D01*
X89133928Y-93389580D02*
X89086309Y-93437200D01*
X89086309Y-93437200D02*
X88991071Y-93484819D01*
X88991071Y-93484819D02*
X88610119Y-93484819D01*
X88610119Y-93484819D02*
X88610119Y-92484819D01*
X88610119Y-92484819D02*
X88943452Y-92484819D01*
X88943452Y-92484819D02*
X89038690Y-92532438D01*
X89038690Y-92532438D02*
X89086309Y-92580057D01*
X89086309Y-92580057D02*
X89133928Y-92675295D01*
X89133928Y-92675295D02*
X89133928Y-92770533D01*
X89133928Y-92770533D02*
X89086309Y-92865771D01*
X89086309Y-92865771D02*
X89038690Y-92913390D01*
X89038690Y-92913390D02*
X88943452Y-92961009D01*
X88943452Y-92961009D02*
X88610119Y-92961009D01*
X89610119Y-92961009D02*
X89943452Y-92961009D01*
X90086309Y-93484819D02*
X89610119Y-93484819D01*
X89610119Y-93484819D02*
X89610119Y-92484819D01*
X89610119Y-92484819D02*
X90086309Y-92484819D01*
X90276786Y-93580057D02*
X91038690Y-93580057D01*
X91276786Y-93484819D02*
X91276786Y-92484819D01*
X91276786Y-92484819D02*
X91610119Y-93199104D01*
X91610119Y-93199104D02*
X91943452Y-92484819D01*
X91943452Y-92484819D02*
X91943452Y-93484819D01*
X92372024Y-92580057D02*
X92419643Y-92532438D01*
X92419643Y-92532438D02*
X92514881Y-92484819D01*
X92514881Y-92484819D02*
X92752976Y-92484819D01*
X92752976Y-92484819D02*
X92848214Y-92532438D01*
X92848214Y-92532438D02*
X92895833Y-92580057D01*
X92895833Y-92580057D02*
X92943452Y-92675295D01*
X92943452Y-92675295D02*
X92943452Y-92770533D01*
X92943452Y-92770533D02*
X92895833Y-92913390D01*
X92895833Y-92913390D02*
X92324405Y-93484819D01*
X92324405Y-93484819D02*
X92943452Y-93484819D01*
X35225595Y-20894819D02*
X35225595Y-19894819D01*
X35797023Y-20894819D02*
X35368452Y-20323390D01*
X35797023Y-19894819D02*
X35225595Y-20466247D01*
X36130357Y-19894819D02*
X36749404Y-19894819D01*
X36749404Y-19894819D02*
X36416071Y-20275771D01*
X36416071Y-20275771D02*
X36558928Y-20275771D01*
X36558928Y-20275771D02*
X36654166Y-20323390D01*
X36654166Y-20323390D02*
X36701785Y-20371009D01*
X36701785Y-20371009D02*
X36749404Y-20466247D01*
X36749404Y-20466247D02*
X36749404Y-20704342D01*
X36749404Y-20704342D02*
X36701785Y-20799580D01*
X36701785Y-20799580D02*
X36654166Y-20847200D01*
X36654166Y-20847200D02*
X36558928Y-20894819D01*
X36558928Y-20894819D02*
X36273214Y-20894819D01*
X36273214Y-20894819D02*
X36177976Y-20847200D01*
X36177976Y-20847200D02*
X36130357Y-20799580D01*
X37654166Y-20894819D02*
X37177976Y-20894819D01*
X37177976Y-20894819D02*
X37177976Y-19894819D01*
X37987500Y-20894819D02*
X37987500Y-19894819D01*
X38558928Y-20894819D02*
X38130357Y-20323390D01*
X38558928Y-19894819D02*
X37987500Y-20466247D01*
X39320833Y-20371009D02*
X39463690Y-20418628D01*
X39463690Y-20418628D02*
X39511309Y-20466247D01*
X39511309Y-20466247D02*
X39558928Y-20561485D01*
X39558928Y-20561485D02*
X39558928Y-20704342D01*
X39558928Y-20704342D02*
X39511309Y-20799580D01*
X39511309Y-20799580D02*
X39463690Y-20847200D01*
X39463690Y-20847200D02*
X39368452Y-20894819D01*
X39368452Y-20894819D02*
X38987500Y-20894819D01*
X38987500Y-20894819D02*
X38987500Y-19894819D01*
X38987500Y-19894819D02*
X39320833Y-19894819D01*
X39320833Y-19894819D02*
X39416071Y-19942438D01*
X39416071Y-19942438D02*
X39463690Y-19990057D01*
X39463690Y-19990057D02*
X39511309Y-20085295D01*
X39511309Y-20085295D02*
X39511309Y-20180533D01*
X39511309Y-20180533D02*
X39463690Y-20275771D01*
X39463690Y-20275771D02*
X39416071Y-20323390D01*
X39416071Y-20323390D02*
X39320833Y-20371009D01*
X39320833Y-20371009D02*
X38987500Y-20371009D01*
X40320833Y-20371009D02*
X39987500Y-20371009D01*
X39987500Y-20894819D02*
X39987500Y-19894819D01*
X39987500Y-19894819D02*
X40463690Y-19894819D01*
X41177976Y-20371009D02*
X41320833Y-20418628D01*
X41320833Y-20418628D02*
X41368452Y-20466247D01*
X41368452Y-20466247D02*
X41416071Y-20561485D01*
X41416071Y-20561485D02*
X41416071Y-20704342D01*
X41416071Y-20704342D02*
X41368452Y-20799580D01*
X41368452Y-20799580D02*
X41320833Y-20847200D01*
X41320833Y-20847200D02*
X41225595Y-20894819D01*
X41225595Y-20894819D02*
X40844643Y-20894819D01*
X40844643Y-20894819D02*
X40844643Y-19894819D01*
X40844643Y-19894819D02*
X41177976Y-19894819D01*
X41177976Y-19894819D02*
X41273214Y-19942438D01*
X41273214Y-19942438D02*
X41320833Y-19990057D01*
X41320833Y-19990057D02*
X41368452Y-20085295D01*
X41368452Y-20085295D02*
X41368452Y-20180533D01*
X41368452Y-20180533D02*
X41320833Y-20275771D01*
X41320833Y-20275771D02*
X41273214Y-20323390D01*
X41273214Y-20323390D02*
X41177976Y-20371009D01*
X41177976Y-20371009D02*
X40844643Y-20371009D01*
X42035119Y-19894819D02*
X42130357Y-19894819D01*
X42130357Y-19894819D02*
X42225595Y-19942438D01*
X42225595Y-19942438D02*
X42273214Y-19990057D01*
X42273214Y-19990057D02*
X42320833Y-20085295D01*
X42320833Y-20085295D02*
X42368452Y-20275771D01*
X42368452Y-20275771D02*
X42368452Y-20513866D01*
X42368452Y-20513866D02*
X42320833Y-20704342D01*
X42320833Y-20704342D02*
X42273214Y-20799580D01*
X42273214Y-20799580D02*
X42225595Y-20847200D01*
X42225595Y-20847200D02*
X42130357Y-20894819D01*
X42130357Y-20894819D02*
X42035119Y-20894819D01*
X42035119Y-20894819D02*
X41939881Y-20847200D01*
X41939881Y-20847200D02*
X41892262Y-20799580D01*
X41892262Y-20799580D02*
X41844643Y-20704342D01*
X41844643Y-20704342D02*
X41797024Y-20513866D01*
X41797024Y-20513866D02*
X41797024Y-20275771D01*
X41797024Y-20275771D02*
X41844643Y-20085295D01*
X41844643Y-20085295D02*
X41892262Y-19990057D01*
X41892262Y-19990057D02*
X41939881Y-19942438D01*
X41939881Y-19942438D02*
X42035119Y-19894819D01*
X42797024Y-20371009D02*
X43130357Y-20371009D01*
X43273214Y-20894819D02*
X42797024Y-20894819D01*
X42797024Y-20894819D02*
X42797024Y-19894819D01*
X42797024Y-19894819D02*
X43273214Y-19894819D01*
X43701786Y-20894819D02*
X43701786Y-19894819D01*
X43701786Y-19894819D02*
X44035119Y-20609104D01*
X44035119Y-20609104D02*
X44368452Y-19894819D01*
X44368452Y-19894819D02*
X44368452Y-20894819D01*
X44844643Y-20513866D02*
X45606548Y-20513866D01*
X46082738Y-20894819D02*
X46082738Y-19894819D01*
X46082738Y-19894819D02*
X46416071Y-20609104D01*
X46416071Y-20609104D02*
X46749404Y-19894819D01*
X46749404Y-19894819D02*
X46749404Y-20894819D01*
X47749404Y-19942438D02*
X47654166Y-19894819D01*
X47654166Y-19894819D02*
X47511309Y-19894819D01*
X47511309Y-19894819D02*
X47368452Y-19942438D01*
X47368452Y-19942438D02*
X47273214Y-20037676D01*
X47273214Y-20037676D02*
X47225595Y-20132914D01*
X47225595Y-20132914D02*
X47177976Y-20323390D01*
X47177976Y-20323390D02*
X47177976Y-20466247D01*
X47177976Y-20466247D02*
X47225595Y-20656723D01*
X47225595Y-20656723D02*
X47273214Y-20751961D01*
X47273214Y-20751961D02*
X47368452Y-20847200D01*
X47368452Y-20847200D02*
X47511309Y-20894819D01*
X47511309Y-20894819D02*
X47606547Y-20894819D01*
X47606547Y-20894819D02*
X47749404Y-20847200D01*
X47749404Y-20847200D02*
X47797023Y-20799580D01*
X47797023Y-20799580D02*
X47797023Y-20466247D01*
X47797023Y-20466247D02*
X47606547Y-20466247D01*
X48797023Y-20799580D02*
X48749404Y-20847200D01*
X48749404Y-20847200D02*
X48606547Y-20894819D01*
X48606547Y-20894819D02*
X48511309Y-20894819D01*
X48511309Y-20894819D02*
X48368452Y-20847200D01*
X48368452Y-20847200D02*
X48273214Y-20751961D01*
X48273214Y-20751961D02*
X48225595Y-20656723D01*
X48225595Y-20656723D02*
X48177976Y-20466247D01*
X48177976Y-20466247D02*
X48177976Y-20323390D01*
X48177976Y-20323390D02*
X48225595Y-20132914D01*
X48225595Y-20132914D02*
X48273214Y-20037676D01*
X48273214Y-20037676D02*
X48368452Y-19942438D01*
X48368452Y-19942438D02*
X48511309Y-19894819D01*
X48511309Y-19894819D02*
X48606547Y-19894819D01*
X48606547Y-19894819D02*
X48749404Y-19942438D01*
X48749404Y-19942438D02*
X48797023Y-19990057D01*
X49225595Y-20894819D02*
X49225595Y-19894819D01*
X49225595Y-19894819D02*
X49606547Y-19894819D01*
X49606547Y-19894819D02*
X49701785Y-19942438D01*
X49701785Y-19942438D02*
X49749404Y-19990057D01*
X49749404Y-19990057D02*
X49797023Y-20085295D01*
X49797023Y-20085295D02*
X49797023Y-20228152D01*
X49797023Y-20228152D02*
X49749404Y-20323390D01*
X49749404Y-20323390D02*
X49701785Y-20371009D01*
X49701785Y-20371009D02*
X49606547Y-20418628D01*
X49606547Y-20418628D02*
X49225595Y-20418628D01*
X24438690Y-36329580D02*
X24391071Y-36377200D01*
X24391071Y-36377200D02*
X24248214Y-36424819D01*
X24248214Y-36424819D02*
X24152976Y-36424819D01*
X24152976Y-36424819D02*
X24010119Y-36377200D01*
X24010119Y-36377200D02*
X23914881Y-36281961D01*
X23914881Y-36281961D02*
X23867262Y-36186723D01*
X23867262Y-36186723D02*
X23819643Y-35996247D01*
X23819643Y-35996247D02*
X23819643Y-35853390D01*
X23819643Y-35853390D02*
X23867262Y-35662914D01*
X23867262Y-35662914D02*
X23914881Y-35567676D01*
X23914881Y-35567676D02*
X24010119Y-35472438D01*
X24010119Y-35472438D02*
X24152976Y-35424819D01*
X24152976Y-35424819D02*
X24248214Y-35424819D01*
X24248214Y-35424819D02*
X24391071Y-35472438D01*
X24391071Y-35472438D02*
X24438690Y-35520057D01*
X25057738Y-35948628D02*
X25057738Y-36424819D01*
X24724405Y-35424819D02*
X25057738Y-35948628D01*
X25057738Y-35948628D02*
X25391071Y-35424819D01*
X25724405Y-36424819D02*
X25724405Y-35424819D01*
X25724405Y-35424819D02*
X26105357Y-35424819D01*
X26105357Y-35424819D02*
X26200595Y-35472438D01*
X26200595Y-35472438D02*
X26248214Y-35520057D01*
X26248214Y-35520057D02*
X26295833Y-35615295D01*
X26295833Y-35615295D02*
X26295833Y-35758152D01*
X26295833Y-35758152D02*
X26248214Y-35853390D01*
X26248214Y-35853390D02*
X26200595Y-35901009D01*
X26200595Y-35901009D02*
X26105357Y-35948628D01*
X26105357Y-35948628D02*
X25724405Y-35948628D01*
X26724405Y-36424819D02*
X26724405Y-35424819D01*
X26724405Y-35424819D02*
X26962500Y-35424819D01*
X26962500Y-35424819D02*
X27105357Y-35472438D01*
X27105357Y-35472438D02*
X27200595Y-35567676D01*
X27200595Y-35567676D02*
X27248214Y-35662914D01*
X27248214Y-35662914D02*
X27295833Y-35853390D01*
X27295833Y-35853390D02*
X27295833Y-35996247D01*
X27295833Y-35996247D02*
X27248214Y-36186723D01*
X27248214Y-36186723D02*
X27200595Y-36281961D01*
X27200595Y-36281961D02*
X27105357Y-36377200D01*
X27105357Y-36377200D02*
X26962500Y-36424819D01*
X26962500Y-36424819D02*
X26724405Y-36424819D01*
X27629167Y-35424819D02*
X28248214Y-35424819D01*
X28248214Y-35424819D02*
X27914881Y-35805771D01*
X27914881Y-35805771D02*
X28057738Y-35805771D01*
X28057738Y-35805771D02*
X28152976Y-35853390D01*
X28152976Y-35853390D02*
X28200595Y-35901009D01*
X28200595Y-35901009D02*
X28248214Y-35996247D01*
X28248214Y-35996247D02*
X28248214Y-36234342D01*
X28248214Y-36234342D02*
X28200595Y-36329580D01*
X28200595Y-36329580D02*
X28152976Y-36377200D01*
X28152976Y-36377200D02*
X28057738Y-36424819D01*
X28057738Y-36424819D02*
X27772024Y-36424819D01*
X27772024Y-36424819D02*
X27676786Y-36377200D01*
X27676786Y-36377200D02*
X27629167Y-36329580D01*
X29200595Y-36424819D02*
X28629167Y-36424819D01*
X28914881Y-36424819D02*
X28914881Y-35424819D01*
X28914881Y-35424819D02*
X28819643Y-35567676D01*
X28819643Y-35567676D02*
X28724405Y-35662914D01*
X28724405Y-35662914D02*
X28629167Y-35710533D01*
X29533929Y-35424819D02*
X30200595Y-35424819D01*
X30200595Y-35424819D02*
X29772024Y-36424819D01*
X31057738Y-35424819D02*
X30581548Y-35424819D01*
X30581548Y-35424819D02*
X30533929Y-35901009D01*
X30533929Y-35901009D02*
X30581548Y-35853390D01*
X30581548Y-35853390D02*
X30676786Y-35805771D01*
X30676786Y-35805771D02*
X30914881Y-35805771D01*
X30914881Y-35805771D02*
X31010119Y-35853390D01*
X31010119Y-35853390D02*
X31057738Y-35901009D01*
X31057738Y-35901009D02*
X31105357Y-35996247D01*
X31105357Y-35996247D02*
X31105357Y-36234342D01*
X31105357Y-36234342D02*
X31057738Y-36329580D01*
X31057738Y-36329580D02*
X31010119Y-36377200D01*
X31010119Y-36377200D02*
X30914881Y-36424819D01*
X30914881Y-36424819D02*
X30676786Y-36424819D01*
X30676786Y-36424819D02*
X30581548Y-36377200D01*
X30581548Y-36377200D02*
X30533929Y-36329580D01*
X11842261Y-87684819D02*
X11270833Y-87684819D01*
X11556547Y-87684819D02*
X11556547Y-86684819D01*
X11556547Y-86684819D02*
X11461309Y-86827676D01*
X11461309Y-86827676D02*
X11366071Y-86922914D01*
X11366071Y-86922914D02*
X11270833Y-86970533D01*
X12461309Y-86684819D02*
X12556547Y-86684819D01*
X12556547Y-86684819D02*
X12651785Y-86732438D01*
X12651785Y-86732438D02*
X12699404Y-86780057D01*
X12699404Y-86780057D02*
X12747023Y-86875295D01*
X12747023Y-86875295D02*
X12794642Y-87065771D01*
X12794642Y-87065771D02*
X12794642Y-87303866D01*
X12794642Y-87303866D02*
X12747023Y-87494342D01*
X12747023Y-87494342D02*
X12699404Y-87589580D01*
X12699404Y-87589580D02*
X12651785Y-87637200D01*
X12651785Y-87637200D02*
X12556547Y-87684819D01*
X12556547Y-87684819D02*
X12461309Y-87684819D01*
X12461309Y-87684819D02*
X12366071Y-87637200D01*
X12366071Y-87637200D02*
X12318452Y-87589580D01*
X12318452Y-87589580D02*
X12270833Y-87494342D01*
X12270833Y-87494342D02*
X12223214Y-87303866D01*
X12223214Y-87303866D02*
X12223214Y-87065771D01*
X12223214Y-87065771D02*
X12270833Y-86875295D01*
X12270833Y-86875295D02*
X12318452Y-86780057D01*
X12318452Y-86780057D02*
X12366071Y-86732438D01*
X12366071Y-86732438D02*
X12461309Y-86684819D01*
X13223214Y-87684819D02*
X13223214Y-86684819D01*
X13318452Y-87303866D02*
X13604166Y-87684819D01*
X13604166Y-87018152D02*
X13223214Y-87399104D01*
D12*
X12394167Y-86178200D02*
X12307500Y-86054391D01*
X12245595Y-86178200D02*
X12245595Y-85918200D01*
X12245595Y-85918200D02*
X12344643Y-85918200D01*
X12344643Y-85918200D02*
X12369405Y-85930581D01*
X12369405Y-85930581D02*
X12381786Y-85942962D01*
X12381786Y-85942962D02*
X12394167Y-85967724D01*
X12394167Y-85967724D02*
X12394167Y-86004867D01*
X12394167Y-86004867D02*
X12381786Y-86029629D01*
X12381786Y-86029629D02*
X12369405Y-86042010D01*
X12369405Y-86042010D02*
X12344643Y-86054391D01*
X12344643Y-86054391D02*
X12245595Y-86054391D01*
X12641786Y-86178200D02*
X12493214Y-86178200D01*
X12567500Y-86178200D02*
X12567500Y-85918200D01*
X12567500Y-85918200D02*
X12542738Y-85955343D01*
X12542738Y-85955343D02*
X12517976Y-85980105D01*
X12517976Y-85980105D02*
X12493214Y-85992486D01*
D10*
X26867261Y-87684819D02*
X26295833Y-87684819D01*
X26581547Y-87684819D02*
X26581547Y-86684819D01*
X26581547Y-86684819D02*
X26486309Y-86827676D01*
X26486309Y-86827676D02*
X26391071Y-86922914D01*
X26391071Y-86922914D02*
X26295833Y-86970533D01*
X27486309Y-86684819D02*
X27581547Y-86684819D01*
X27581547Y-86684819D02*
X27676785Y-86732438D01*
X27676785Y-86732438D02*
X27724404Y-86780057D01*
X27724404Y-86780057D02*
X27772023Y-86875295D01*
X27772023Y-86875295D02*
X27819642Y-87065771D01*
X27819642Y-87065771D02*
X27819642Y-87303866D01*
X27819642Y-87303866D02*
X27772023Y-87494342D01*
X27772023Y-87494342D02*
X27724404Y-87589580D01*
X27724404Y-87589580D02*
X27676785Y-87637200D01*
X27676785Y-87637200D02*
X27581547Y-87684819D01*
X27581547Y-87684819D02*
X27486309Y-87684819D01*
X27486309Y-87684819D02*
X27391071Y-87637200D01*
X27391071Y-87637200D02*
X27343452Y-87589580D01*
X27343452Y-87589580D02*
X27295833Y-87494342D01*
X27295833Y-87494342D02*
X27248214Y-87303866D01*
X27248214Y-87303866D02*
X27248214Y-87065771D01*
X27248214Y-87065771D02*
X27295833Y-86875295D01*
X27295833Y-86875295D02*
X27343452Y-86780057D01*
X27343452Y-86780057D02*
X27391071Y-86732438D01*
X27391071Y-86732438D02*
X27486309Y-86684819D01*
X28248214Y-87684819D02*
X28248214Y-86684819D01*
X28343452Y-87303866D02*
X28629166Y-87684819D01*
X28629166Y-87018152D02*
X28248214Y-87399104D01*
D12*
X27419167Y-86178200D02*
X27332500Y-86054391D01*
X27270595Y-86178200D02*
X27270595Y-85918200D01*
X27270595Y-85918200D02*
X27369643Y-85918200D01*
X27369643Y-85918200D02*
X27394405Y-85930581D01*
X27394405Y-85930581D02*
X27406786Y-85942962D01*
X27406786Y-85942962D02*
X27419167Y-85967724D01*
X27419167Y-85967724D02*
X27419167Y-86004867D01*
X27419167Y-86004867D02*
X27406786Y-86029629D01*
X27406786Y-86029629D02*
X27394405Y-86042010D01*
X27394405Y-86042010D02*
X27369643Y-86054391D01*
X27369643Y-86054391D02*
X27270595Y-86054391D01*
X27518214Y-85942962D02*
X27530595Y-85930581D01*
X27530595Y-85930581D02*
X27555357Y-85918200D01*
X27555357Y-85918200D02*
X27617262Y-85918200D01*
X27617262Y-85918200D02*
X27642024Y-85930581D01*
X27642024Y-85930581D02*
X27654405Y-85942962D01*
X27654405Y-85942962D02*
X27666786Y-85967724D01*
X27666786Y-85967724D02*
X27666786Y-85992486D01*
X27666786Y-85992486D02*
X27654405Y-86029629D01*
X27654405Y-86029629D02*
X27505833Y-86178200D01*
X27505833Y-86178200D02*
X27666786Y-86178200D01*
D10*
X41225595Y-87018152D02*
X41225595Y-87684819D01*
X40987500Y-86637200D02*
X40749405Y-87351485D01*
X40749405Y-87351485D02*
X41368452Y-87351485D01*
X41797024Y-87684819D02*
X41987500Y-87684819D01*
X41987500Y-87684819D02*
X42082738Y-87637200D01*
X42082738Y-87637200D02*
X42130357Y-87589580D01*
X42130357Y-87589580D02*
X42225595Y-87446723D01*
X42225595Y-87446723D02*
X42273214Y-87256247D01*
X42273214Y-87256247D02*
X42273214Y-86875295D01*
X42273214Y-86875295D02*
X42225595Y-86780057D01*
X42225595Y-86780057D02*
X42177976Y-86732438D01*
X42177976Y-86732438D02*
X42082738Y-86684819D01*
X42082738Y-86684819D02*
X41892262Y-86684819D01*
X41892262Y-86684819D02*
X41797024Y-86732438D01*
X41797024Y-86732438D02*
X41749405Y-86780057D01*
X41749405Y-86780057D02*
X41701786Y-86875295D01*
X41701786Y-86875295D02*
X41701786Y-87113390D01*
X41701786Y-87113390D02*
X41749405Y-87208628D01*
X41749405Y-87208628D02*
X41797024Y-87256247D01*
X41797024Y-87256247D02*
X41892262Y-87303866D01*
X41892262Y-87303866D02*
X42082738Y-87303866D01*
X42082738Y-87303866D02*
X42177976Y-87256247D01*
X42177976Y-87256247D02*
X42225595Y-87208628D01*
X42225595Y-87208628D02*
X42273214Y-87113390D01*
X43273214Y-87684819D02*
X42939881Y-87208628D01*
X42701786Y-87684819D02*
X42701786Y-86684819D01*
X42701786Y-86684819D02*
X43082738Y-86684819D01*
X43082738Y-86684819D02*
X43177976Y-86732438D01*
X43177976Y-86732438D02*
X43225595Y-86780057D01*
X43225595Y-86780057D02*
X43273214Y-86875295D01*
X43273214Y-86875295D02*
X43273214Y-87018152D01*
X43273214Y-87018152D02*
X43225595Y-87113390D01*
X43225595Y-87113390D02*
X43177976Y-87161009D01*
X43177976Y-87161009D02*
X43082738Y-87208628D01*
X43082738Y-87208628D02*
X42701786Y-87208628D01*
X43749405Y-87684819D02*
X43939881Y-87684819D01*
X43939881Y-87684819D02*
X44035119Y-87637200D01*
X44035119Y-87637200D02*
X44082738Y-87589580D01*
X44082738Y-87589580D02*
X44177976Y-87446723D01*
X44177976Y-87446723D02*
X44225595Y-87256247D01*
X44225595Y-87256247D02*
X44225595Y-86875295D01*
X44225595Y-86875295D02*
X44177976Y-86780057D01*
X44177976Y-86780057D02*
X44130357Y-86732438D01*
X44130357Y-86732438D02*
X44035119Y-86684819D01*
X44035119Y-86684819D02*
X43844643Y-86684819D01*
X43844643Y-86684819D02*
X43749405Y-86732438D01*
X43749405Y-86732438D02*
X43701786Y-86780057D01*
X43701786Y-86780057D02*
X43654167Y-86875295D01*
X43654167Y-86875295D02*
X43654167Y-87113390D01*
X43654167Y-87113390D02*
X43701786Y-87208628D01*
X43701786Y-87208628D02*
X43749405Y-87256247D01*
X43749405Y-87256247D02*
X43844643Y-87303866D01*
X43844643Y-87303866D02*
X44035119Y-87303866D01*
X44035119Y-87303866D02*
X44130357Y-87256247D01*
X44130357Y-87256247D02*
X44177976Y-87208628D01*
X44177976Y-87208628D02*
X44225595Y-87113390D01*
D12*
X42444167Y-86178200D02*
X42357500Y-86054391D01*
X42295595Y-86178200D02*
X42295595Y-85918200D01*
X42295595Y-85918200D02*
X42394643Y-85918200D01*
X42394643Y-85918200D02*
X42419405Y-85930581D01*
X42419405Y-85930581D02*
X42431786Y-85942962D01*
X42431786Y-85942962D02*
X42444167Y-85967724D01*
X42444167Y-85967724D02*
X42444167Y-86004867D01*
X42444167Y-86004867D02*
X42431786Y-86029629D01*
X42431786Y-86029629D02*
X42419405Y-86042010D01*
X42419405Y-86042010D02*
X42394643Y-86054391D01*
X42394643Y-86054391D02*
X42295595Y-86054391D01*
X42530833Y-85918200D02*
X42691786Y-85918200D01*
X42691786Y-85918200D02*
X42605119Y-86017248D01*
X42605119Y-86017248D02*
X42642262Y-86017248D01*
X42642262Y-86017248D02*
X42667024Y-86029629D01*
X42667024Y-86029629D02*
X42679405Y-86042010D01*
X42679405Y-86042010D02*
X42691786Y-86066772D01*
X42691786Y-86066772D02*
X42691786Y-86128677D01*
X42691786Y-86128677D02*
X42679405Y-86153439D01*
X42679405Y-86153439D02*
X42667024Y-86165820D01*
X42667024Y-86165820D02*
X42642262Y-86178200D01*
X42642262Y-86178200D02*
X42567976Y-86178200D01*
X42567976Y-86178200D02*
X42543214Y-86165820D01*
X42543214Y-86165820D02*
X42530833Y-86153439D01*
D10*
X56250595Y-87018152D02*
X56250595Y-87684819D01*
X56012500Y-86637200D02*
X55774405Y-87351485D01*
X55774405Y-87351485D02*
X56393452Y-87351485D01*
X56822024Y-87684819D02*
X57012500Y-87684819D01*
X57012500Y-87684819D02*
X57107738Y-87637200D01*
X57107738Y-87637200D02*
X57155357Y-87589580D01*
X57155357Y-87589580D02*
X57250595Y-87446723D01*
X57250595Y-87446723D02*
X57298214Y-87256247D01*
X57298214Y-87256247D02*
X57298214Y-86875295D01*
X57298214Y-86875295D02*
X57250595Y-86780057D01*
X57250595Y-86780057D02*
X57202976Y-86732438D01*
X57202976Y-86732438D02*
X57107738Y-86684819D01*
X57107738Y-86684819D02*
X56917262Y-86684819D01*
X56917262Y-86684819D02*
X56822024Y-86732438D01*
X56822024Y-86732438D02*
X56774405Y-86780057D01*
X56774405Y-86780057D02*
X56726786Y-86875295D01*
X56726786Y-86875295D02*
X56726786Y-87113390D01*
X56726786Y-87113390D02*
X56774405Y-87208628D01*
X56774405Y-87208628D02*
X56822024Y-87256247D01*
X56822024Y-87256247D02*
X56917262Y-87303866D01*
X56917262Y-87303866D02*
X57107738Y-87303866D01*
X57107738Y-87303866D02*
X57202976Y-87256247D01*
X57202976Y-87256247D02*
X57250595Y-87208628D01*
X57250595Y-87208628D02*
X57298214Y-87113390D01*
X58298214Y-87684819D02*
X57964881Y-87208628D01*
X57726786Y-87684819D02*
X57726786Y-86684819D01*
X57726786Y-86684819D02*
X58107738Y-86684819D01*
X58107738Y-86684819D02*
X58202976Y-86732438D01*
X58202976Y-86732438D02*
X58250595Y-86780057D01*
X58250595Y-86780057D02*
X58298214Y-86875295D01*
X58298214Y-86875295D02*
X58298214Y-87018152D01*
X58298214Y-87018152D02*
X58250595Y-87113390D01*
X58250595Y-87113390D02*
X58202976Y-87161009D01*
X58202976Y-87161009D02*
X58107738Y-87208628D01*
X58107738Y-87208628D02*
X57726786Y-87208628D01*
X58774405Y-87684819D02*
X58964881Y-87684819D01*
X58964881Y-87684819D02*
X59060119Y-87637200D01*
X59060119Y-87637200D02*
X59107738Y-87589580D01*
X59107738Y-87589580D02*
X59202976Y-87446723D01*
X59202976Y-87446723D02*
X59250595Y-87256247D01*
X59250595Y-87256247D02*
X59250595Y-86875295D01*
X59250595Y-86875295D02*
X59202976Y-86780057D01*
X59202976Y-86780057D02*
X59155357Y-86732438D01*
X59155357Y-86732438D02*
X59060119Y-86684819D01*
X59060119Y-86684819D02*
X58869643Y-86684819D01*
X58869643Y-86684819D02*
X58774405Y-86732438D01*
X58774405Y-86732438D02*
X58726786Y-86780057D01*
X58726786Y-86780057D02*
X58679167Y-86875295D01*
X58679167Y-86875295D02*
X58679167Y-87113390D01*
X58679167Y-87113390D02*
X58726786Y-87208628D01*
X58726786Y-87208628D02*
X58774405Y-87256247D01*
X58774405Y-87256247D02*
X58869643Y-87303866D01*
X58869643Y-87303866D02*
X59060119Y-87303866D01*
X59060119Y-87303866D02*
X59155357Y-87256247D01*
X59155357Y-87256247D02*
X59202976Y-87208628D01*
X59202976Y-87208628D02*
X59250595Y-87113390D01*
D12*
X57469167Y-86178200D02*
X57382500Y-86054391D01*
X57320595Y-86178200D02*
X57320595Y-85918200D01*
X57320595Y-85918200D02*
X57419643Y-85918200D01*
X57419643Y-85918200D02*
X57444405Y-85930581D01*
X57444405Y-85930581D02*
X57456786Y-85942962D01*
X57456786Y-85942962D02*
X57469167Y-85967724D01*
X57469167Y-85967724D02*
X57469167Y-86004867D01*
X57469167Y-86004867D02*
X57456786Y-86029629D01*
X57456786Y-86029629D02*
X57444405Y-86042010D01*
X57444405Y-86042010D02*
X57419643Y-86054391D01*
X57419643Y-86054391D02*
X57320595Y-86054391D01*
X57692024Y-86004867D02*
X57692024Y-86178200D01*
X57630119Y-85905820D02*
X57568214Y-86091534D01*
X57568214Y-86091534D02*
X57729167Y-86091534D01*
%TO.C,U5*%
D13*
X55012500Y-11440000D02*
X60012500Y-11440000D01*
X55012500Y-16440000D02*
X55012500Y-11440000D01*
X60012500Y-11440000D02*
X60012500Y-16440000D01*
X60012500Y-16440000D02*
X55012500Y-16440000D01*
%TO.C,U8*%
X9937500Y-28470000D02*
X15937500Y-28470000D01*
X15937500Y-35470000D01*
X8937500Y-35470000D01*
X8937500Y-29470000D01*
X9937500Y-28470000D01*
%TO.C,U7*%
X86062500Y-11440000D02*
X90062500Y-11440000D01*
X90062500Y-16440000D01*
X85062500Y-16440000D01*
X85062500Y-12440000D01*
X86062500Y-11440000D01*
%TO.C,U2*%
X22962500Y-9440000D02*
X31962500Y-9440000D01*
X22962500Y-18440000D02*
X22962500Y-9440000D01*
X31962500Y-9440000D02*
X31962500Y-18440000D01*
X31962500Y-18440000D02*
X22962500Y-18440000D01*
%TO.C,U1*%
X-62500Y-1440000D02*
X24937500Y-1440000D01*
X-62500Y-26440000D02*
X-62500Y-1440000D01*
X24937500Y-1440000D02*
X24937500Y-26440000D01*
X24937500Y-26440000D02*
X-62500Y-26440000D01*
%TO.C,J6*%
X37487500Y-30970000D02*
X41487500Y-30970000D01*
X37487500Y-43970000D02*
X37487500Y-30970000D01*
X41487500Y-30970000D02*
X42487500Y-31970000D01*
X42487500Y-31970000D02*
X43487500Y-30970000D01*
X43487500Y-30970000D02*
X47487500Y-30970000D01*
X47487500Y-30970000D02*
X47487500Y-43970000D01*
X47487500Y-43970000D02*
X37487500Y-43970000D01*
%TO.C,C5*%
X11637500Y-67630000D02*
X13237500Y-67630000D01*
X13237500Y-68430000D01*
X11637500Y-68430000D01*
X11637500Y-67630000D01*
%TO.C,C4*%
X86762500Y-49600000D02*
X88362500Y-49600000D01*
X88362500Y-50400000D01*
X86762500Y-50400000D01*
X86762500Y-49600000D01*
%TO.C,C6*%
X26662500Y-67630000D02*
X28262500Y-67630000D01*
X28262500Y-68430000D01*
X26662500Y-68430000D01*
X26662500Y-67630000D01*
%TO.C,C7*%
X41687500Y-67630000D02*
X43287500Y-67630000D01*
X43287500Y-68430000D01*
X41687500Y-68430000D01*
X41687500Y-67630000D01*
%TO.C,C8*%
X56712500Y-67630000D02*
X58312500Y-67630000D01*
X58312500Y-68430000D01*
X56712500Y-68430000D01*
X56712500Y-67630000D01*
%TO.C,C13*%
X26662500Y-49600000D02*
X28262500Y-49600000D01*
X28262500Y-50400000D01*
X26662500Y-50400000D01*
X26662500Y-49600000D01*
%TO.C,C1*%
X56712500Y-31570000D02*
X58312500Y-31570000D01*
X58312500Y-32370000D01*
X56712500Y-32370000D01*
X56712500Y-31570000D01*
%TO.C,C10*%
X71737500Y-31570000D02*
X73337500Y-31570000D01*
X73337500Y-32370000D01*
X71737500Y-32370000D01*
X71737500Y-31570000D01*
%TO.C,C11*%
X86762500Y-31570000D02*
X88362500Y-31570000D01*
X88362500Y-32370000D01*
X86762500Y-32370000D01*
X86762500Y-31570000D01*
%TO.C,C14*%
X41687500Y-49600000D02*
X43287500Y-49600000D01*
X43287500Y-50400000D01*
X41687500Y-50400000D01*
X41687500Y-49600000D01*
%TO.C,C9*%
X71737500Y-67630000D02*
X73337500Y-67630000D01*
X73337500Y-68430000D01*
X71737500Y-68430000D01*
X71737500Y-67630000D01*
%TO.C,C12*%
X11637500Y-49600000D02*
X13237500Y-49600000D01*
X13237500Y-50400000D01*
X11637500Y-50400000D01*
X11637500Y-49600000D01*
%TO.C,C3*%
X71737500Y-49600000D02*
X73337500Y-49600000D01*
X73337500Y-50400000D01*
X71737500Y-50400000D01*
X71737500Y-49600000D01*
%TO.C,C2*%
X56712500Y-49600000D02*
X58312500Y-49600000D01*
X58312500Y-50400000D01*
X56712500Y-50400000D01*
X56712500Y-49600000D01*
%TO.C,U6*%
X67537500Y-8940000D02*
X77537500Y-8940000D01*
X67537500Y-18940000D02*
X67537500Y-8940000D01*
X77537500Y-8940000D02*
X77537500Y-18940000D01*
X77537500Y-18940000D02*
X67537500Y-18940000D01*
%TO.C,M1*%
D10*
X76562500Y-68030000D02*
X98562500Y-68030000D01*
X76562500Y-98030000D02*
X76562500Y-68030000D01*
X98562500Y-68030000D02*
X98562500Y-98030000D01*
X98562500Y-98030000D02*
X76562500Y-98030000D01*
%TO.C,U3*%
D13*
X37487500Y-8940000D02*
X47487500Y-8940000D01*
X37487500Y-18940000D02*
X37487500Y-8940000D01*
X47487500Y-8940000D02*
X47487500Y-18940000D01*
X47487500Y-18940000D02*
X37487500Y-18940000D01*
%TO.C,U9*%
X24962500Y-29470000D02*
X29962500Y-29470000D01*
X24962500Y-34470000D02*
X24962500Y-29470000D01*
X29962500Y-29470000D02*
X29962500Y-34470000D01*
X29962500Y-34470000D02*
X24962500Y-34470000D01*
%TO.C,R1*%
X11912500Y-85790000D02*
X12962500Y-85790000D01*
X12962500Y-86330000D01*
X11912500Y-86330000D01*
X11912500Y-85790000D01*
%TO.C,R2*%
X26937500Y-85790000D02*
X27987500Y-85790000D01*
X27987500Y-86330000D01*
X26937500Y-86330000D01*
X26937500Y-85790000D01*
%TO.C,R3*%
X41962500Y-85790000D02*
X43012500Y-85790000D01*
X43012500Y-86330000D01*
X41962500Y-86330000D01*
X41962500Y-85790000D01*
%TO.C,R4*%
X56987500Y-85790000D02*
X58037500Y-85790000D01*
X58037500Y-86330000D01*
X56987500Y-86330000D01*
X56987500Y-85790000D01*
%TD*%
M02*
