%TF.GenerationSoftware,KiCad,Pcbnew,10.0.5*%
%TF.CreationDate,2026-08-03T20:27:53-07:00*%
%TF.ProjectId,palpod-extender-sbc-routed,70616c70-6f64-42d6-9578-74656e646572,A0*%
%TF.SameCoordinates,Original*%
%TF.FileFunction,Paste,Top*%
%TF.FilePolarity,Positive*%
%FSLAX46Y46*%
G04 Gerber Fmt 4.6, Leading zero omitted, Abs format (unit mm)*
G04 Created by KiCad (PCBNEW 10.0.5) date 2026-08-03 20:27:53*
%MOMM*%
%LPD*%
G01*
G04 APERTURE LIST*
G04 Aperture macros list*
%AMRoundRect*
0 Rectangle with rounded corners*
0 $1 Rounding radius*
0 $2 $3 $4 $5 $6 $7 $8 $9 X,Y pos of 4 corners*
0 Add a 4 corners polygon primitive as box body*
4,1,4,$2,$3,$4,$5,$6,$7,$8,$9,$2,$3,0*
0 Add four circle primitives for the rounded corners*
1,1,$1+$1,$2,$3*
1,1,$1+$1,$4,$5*
1,1,$1+$1,$6,$7*
1,1,$1+$1,$8,$9*
0 Add four rect primitives between the rounded corners*
20,1,$1+$1,$2,$3,$4,$5,0*
20,1,$1+$1,$4,$5,$6,$7,0*
20,1,$1+$1,$6,$7,$8,$9,0*
20,1,$1+$1,$8,$9,$2,$3,0*%
G04 Aperture macros list end*
%ADD10RoundRect,0.062500X-0.187500X-0.062500X0.187500X-0.062500X0.187500X0.062500X-0.187500X0.062500X0*%
%ADD11RoundRect,0.062500X-0.062500X-0.187500X0.062500X-0.187500X0.062500X0.187500X-0.062500X0.187500X0*%
%ADD12R,2.500000X2.500000*%
%ADD13RoundRect,0.125000X-0.625000X-0.125000X0.625000X-0.125000X0.625000X0.125000X-0.625000X0.125000X0*%
%ADD14RoundRect,0.125000X-0.125000X-0.625000X0.125000X-0.625000X0.125000X0.625000X-0.125000X0.625000X0*%
%ADD15RoundRect,0.242500X-0.242500X-0.242500X0.242500X-0.242500X0.242500X0.242500X-0.242500X0.242500X0*%
%ADD16RoundRect,0.062500X-0.350000X-0.062500X0.350000X-0.062500X0.350000X0.062500X-0.350000X0.062500X0*%
%ADD17RoundRect,0.062500X-0.062500X-0.350000X0.062500X-0.350000X0.062500X0.350000X-0.062500X0.350000X0*%
%ADD18RoundRect,0.062500X-0.237500X-0.062500X0.237500X-0.062500X0.237500X0.062500X-0.237500X0.062500X0*%
%ADD19RoundRect,0.062500X-0.062500X-0.237500X0.062500X-0.237500X0.062500X0.237500X-0.062500X0.237500X0*%
%ADD20R,4.500000X4.500000*%
%ADD21C,0.400000*%
%ADD22RoundRect,0.225000X-0.225000X-0.250000X0.225000X-0.250000X0.225000X0.250000X-0.225000X0.250000X0*%
%ADD23RoundRect,0.087500X-0.412500X-0.087500X0.412500X-0.087500X0.412500X0.087500X-0.412500X0.087500X0*%
%ADD24RoundRect,0.087500X-0.087500X-0.412500X0.087500X-0.412500X0.087500X0.412500X-0.087500X0.412500X0*%
%ADD25R,5.000000X5.000000*%
%ADD26R,0.350000X3.000000*%
%ADD27C,0.280000*%
%ADD28RoundRect,0.050000X-0.200000X-0.050000X0.200000X-0.050000X0.200000X0.050000X-0.200000X0.050000X0*%
%ADD29RoundRect,0.050000X-0.050000X-0.200000X0.050000X-0.200000X0.050000X0.200000X-0.050000X0.200000X0*%
%ADD30RoundRect,0.135000X-0.135000X-0.185000X0.135000X-0.185000X0.135000X0.185000X-0.135000X0.185000X0*%
G04 APERTURE END LIST*
D10*
%TO.C,U5*%
X55162500Y-12190000D03*
X55162500Y-12690000D03*
X55162500Y-13190000D03*
X55162500Y-13690000D03*
X55162500Y-14190000D03*
X55162500Y-14690000D03*
X55162500Y-15190000D03*
X55162500Y-15690000D03*
D11*
X55762500Y-16290000D03*
X56262500Y-16290000D03*
X56762500Y-16290000D03*
X57262500Y-16290000D03*
X57762500Y-16290000D03*
X58262500Y-16290000D03*
X58762500Y-16290000D03*
X59262500Y-16290000D03*
D10*
X59862500Y-15690000D03*
X59862500Y-15190000D03*
X59862500Y-14690000D03*
X59862500Y-14190000D03*
X59862500Y-13690000D03*
X59862500Y-13190000D03*
X59862500Y-12690000D03*
X59862500Y-12190000D03*
D11*
X59262500Y-11590000D03*
X58762500Y-11590000D03*
X58262500Y-11590000D03*
X57762500Y-11590000D03*
X57262500Y-11590000D03*
X56762500Y-11590000D03*
X56262500Y-11590000D03*
X55762500Y-11590000D03*
D12*
X57512500Y-13940000D03*
%TD*%
D13*
%TO.C,U8*%
X8262500Y-29170000D03*
X8262500Y-29970000D03*
X8262500Y-30770000D03*
X8262500Y-31570000D03*
X8262500Y-32370000D03*
X8262500Y-33170000D03*
X8262500Y-33970000D03*
X8262500Y-34770000D03*
D14*
X9637500Y-36145000D03*
X10437500Y-36145000D03*
X11237500Y-36145000D03*
X12037500Y-36145000D03*
X12837500Y-36145000D03*
X13637500Y-36145000D03*
X14437500Y-36145000D03*
X15237500Y-36145000D03*
D13*
X16612500Y-34770000D03*
X16612500Y-33970000D03*
X16612500Y-33170000D03*
X16612500Y-32370000D03*
X16612500Y-31570000D03*
X16612500Y-30770000D03*
X16612500Y-29970000D03*
X16612500Y-29170000D03*
D14*
X15237500Y-27795000D03*
X14437500Y-27795000D03*
X13637500Y-27795000D03*
X12837500Y-27795000D03*
X12037500Y-27795000D03*
X11237500Y-27795000D03*
X10437500Y-27795000D03*
X9637500Y-27795000D03*
%TD*%
D15*
%TO.C,U7*%
X86362500Y-12740000D03*
X86362500Y-13940000D03*
X86362500Y-15140000D03*
X87562500Y-12740000D03*
X87562500Y-13940000D03*
X87562500Y-15140000D03*
X88762500Y-12740000D03*
X88762500Y-13940000D03*
X88762500Y-15140000D03*
D16*
X85125000Y-12140000D03*
X85125000Y-12540000D03*
X85125000Y-12940000D03*
X85125000Y-13340000D03*
X85125000Y-13740000D03*
X85125000Y-14140000D03*
X85125000Y-14540000D03*
X85125000Y-14940000D03*
X85125000Y-15340000D03*
X85125000Y-15740000D03*
D17*
X85762500Y-16377500D03*
X86162500Y-16377500D03*
X86562500Y-16377500D03*
X86962500Y-16377500D03*
X87362500Y-16377500D03*
X87762500Y-16377500D03*
X88162500Y-16377500D03*
X88562500Y-16377500D03*
X88962500Y-16377500D03*
X89362500Y-16377500D03*
D16*
X90000000Y-15740000D03*
X90000000Y-15340000D03*
X90000000Y-14940000D03*
X90000000Y-14540000D03*
X90000000Y-14140000D03*
X90000000Y-13740000D03*
X90000000Y-13340000D03*
X90000000Y-12940000D03*
X90000000Y-12540000D03*
X90000000Y-12140000D03*
D17*
X89362500Y-11502500D03*
X88962500Y-11502500D03*
X88562500Y-11502500D03*
X88162500Y-11502500D03*
X87762500Y-11502500D03*
X87362500Y-11502500D03*
X86962500Y-11502500D03*
X86562500Y-11502500D03*
X86162500Y-11502500D03*
X85762500Y-11502500D03*
%TD*%
D18*
%TO.C,U2*%
X23162500Y-9940000D03*
X23162500Y-10440000D03*
X23162500Y-10940000D03*
X23162500Y-11440000D03*
X23162500Y-11940000D03*
X23162500Y-12440000D03*
X23162500Y-12940000D03*
X23162500Y-13440000D03*
X23162500Y-13940000D03*
X23162500Y-14440000D03*
X23162500Y-14940000D03*
X23162500Y-15440000D03*
X23162500Y-15940000D03*
X23162500Y-16440000D03*
X23162500Y-16940000D03*
X23162500Y-17440000D03*
X23162500Y-17940000D03*
D19*
X23462500Y-18240000D03*
X23962500Y-18240000D03*
X24462500Y-18240000D03*
X24962500Y-18240000D03*
X25462500Y-18240000D03*
X25962500Y-18240000D03*
X26462500Y-18240000D03*
X26962500Y-18240000D03*
X27462500Y-18240000D03*
X27962500Y-18240000D03*
X28462500Y-18240000D03*
X28962500Y-18240000D03*
X29462500Y-18240000D03*
X29962500Y-18240000D03*
X30462500Y-18240000D03*
X30962500Y-18240000D03*
X31462500Y-18240000D03*
D18*
X31762500Y-17940000D03*
X31762500Y-17440000D03*
X31762500Y-16940000D03*
X31762500Y-16440000D03*
X31762500Y-15940000D03*
X31762500Y-15440000D03*
X31762500Y-14940000D03*
X31762500Y-14440000D03*
X31762500Y-13940000D03*
X31762500Y-13440000D03*
X31762500Y-12940000D03*
X31762500Y-12440000D03*
X31762500Y-11940000D03*
X31762500Y-11440000D03*
X31762500Y-10940000D03*
X31762500Y-10440000D03*
X31762500Y-9940000D03*
D19*
X31462500Y-9640000D03*
X30962500Y-9640000D03*
X30462500Y-9640000D03*
X29962500Y-9640000D03*
X29462500Y-9640000D03*
X28962500Y-9640000D03*
X28462500Y-9640000D03*
X27962500Y-9640000D03*
X27462500Y-9640000D03*
X26962500Y-9640000D03*
X26462500Y-9640000D03*
X25962500Y-9640000D03*
X25462500Y-9640000D03*
X24962500Y-9640000D03*
X24462500Y-9640000D03*
X23962500Y-9640000D03*
X23462500Y-9640000D03*
D20*
X27462500Y-13940000D03*
%TD*%
D21*
%TO.C,U1*%
X1937500Y-1940000D03*
X2687500Y-1940000D03*
X3437500Y-1940000D03*
X4187500Y-1940000D03*
X4937500Y-1940000D03*
X5687500Y-1940000D03*
X6437500Y-1940000D03*
X7187500Y-1940000D03*
X7937500Y-1940000D03*
X8687500Y-1940000D03*
X9437500Y-1940000D03*
X10187500Y-1940000D03*
X10937500Y-1940000D03*
X11687500Y-1940000D03*
X12437500Y-1940000D03*
X13187500Y-1940000D03*
X13937500Y-1940000D03*
X14687500Y-1940000D03*
X15437500Y-1940000D03*
X16187500Y-1940000D03*
X16937500Y-1940000D03*
X17687500Y-1940000D03*
X18437500Y-1940000D03*
X19187500Y-1940000D03*
X19937500Y-1940000D03*
X20687500Y-1940000D03*
X21437500Y-1940000D03*
X22187500Y-1940000D03*
X437500Y-21440000D03*
X1187500Y-21440000D03*
X1937500Y-21440000D03*
X2687500Y-21440000D03*
X3437500Y-21440000D03*
X4187500Y-21440000D03*
X4937500Y-21440000D03*
X5687500Y-21440000D03*
X6437500Y-21440000D03*
X7187500Y-21440000D03*
X7937500Y-21440000D03*
X8687500Y-21440000D03*
X9437500Y-21440000D03*
X10187500Y-21440000D03*
X10937500Y-21440000D03*
X11687500Y-21440000D03*
X12437500Y-21440000D03*
X13187500Y-21440000D03*
X13937500Y-21440000D03*
X14687500Y-21440000D03*
X15437500Y-21440000D03*
X16187500Y-21440000D03*
X16937500Y-21440000D03*
X17687500Y-21440000D03*
X18437500Y-21440000D03*
X19187500Y-21440000D03*
X19937500Y-21440000D03*
X20687500Y-21440000D03*
X21437500Y-21440000D03*
X22187500Y-21440000D03*
X22937500Y-21440000D03*
X23687500Y-21440000D03*
X437500Y-22190000D03*
X1187500Y-22190000D03*
X1937500Y-22190000D03*
X2687500Y-22190000D03*
X3437500Y-22190000D03*
X4187500Y-22190000D03*
X4937500Y-22190000D03*
X5687500Y-22190000D03*
X6437500Y-22190000D03*
X7187500Y-22190000D03*
X7937500Y-22190000D03*
X8687500Y-22190000D03*
X9437500Y-22190000D03*
X10187500Y-22190000D03*
X10937500Y-22190000D03*
X11687500Y-22190000D03*
X12437500Y-22190000D03*
X13187500Y-22190000D03*
X13937500Y-22190000D03*
X14687500Y-22190000D03*
X15437500Y-22190000D03*
X16187500Y-22190000D03*
X16937500Y-22190000D03*
X17687500Y-22190000D03*
X18437500Y-22190000D03*
X19187500Y-22190000D03*
X19937500Y-22190000D03*
X20687500Y-22190000D03*
X21437500Y-22190000D03*
X22187500Y-22190000D03*
X22937500Y-22190000D03*
X23687500Y-22190000D03*
X437500Y-22940000D03*
X1187500Y-22940000D03*
X1937500Y-22940000D03*
X2687500Y-22940000D03*
X3437500Y-22940000D03*
X4187500Y-22940000D03*
X4937500Y-22940000D03*
X5687500Y-22940000D03*
X6437500Y-22940000D03*
X7187500Y-22940000D03*
X7937500Y-22940000D03*
X8687500Y-22940000D03*
X9437500Y-22940000D03*
X10187500Y-22940000D03*
X10937500Y-22940000D03*
X11687500Y-22940000D03*
X12437500Y-22940000D03*
X13187500Y-22940000D03*
X13937500Y-22940000D03*
X14687500Y-22940000D03*
X15437500Y-22940000D03*
X16187500Y-22940000D03*
X16937500Y-22940000D03*
X17687500Y-22940000D03*
X18437500Y-22940000D03*
X19187500Y-22940000D03*
X19937500Y-22940000D03*
X20687500Y-22940000D03*
X21437500Y-22940000D03*
X22187500Y-22940000D03*
X22937500Y-22940000D03*
X23687500Y-22940000D03*
X437500Y-23690000D03*
X1187500Y-23690000D03*
X1937500Y-23690000D03*
X2687500Y-23690000D03*
X3437500Y-23690000D03*
X4187500Y-23690000D03*
X4937500Y-23690000D03*
X5687500Y-23690000D03*
X6437500Y-23690000D03*
X7187500Y-23690000D03*
X7937500Y-23690000D03*
X8687500Y-23690000D03*
X9437500Y-23690000D03*
X10187500Y-23690000D03*
X10937500Y-23690000D03*
X11687500Y-23690000D03*
X12437500Y-23690000D03*
X13187500Y-23690000D03*
X13937500Y-23690000D03*
X14687500Y-23690000D03*
X15437500Y-23690000D03*
X16187500Y-23690000D03*
X16937500Y-23690000D03*
X17687500Y-23690000D03*
X18437500Y-23690000D03*
X19187500Y-23690000D03*
X19937500Y-23690000D03*
X20687500Y-23690000D03*
X21437500Y-23690000D03*
X22187500Y-23690000D03*
X22937500Y-23690000D03*
X23687500Y-23690000D03*
X1937500Y-24440000D03*
X2687500Y-24440000D03*
X3437500Y-24440000D03*
X4187500Y-24440000D03*
X4937500Y-24440000D03*
X5687500Y-24440000D03*
X6437500Y-24440000D03*
X7187500Y-24440000D03*
X7937500Y-24440000D03*
X8687500Y-24440000D03*
X9437500Y-24440000D03*
X10187500Y-24440000D03*
X10937500Y-24440000D03*
X11687500Y-24440000D03*
X12437500Y-24440000D03*
X13187500Y-24440000D03*
X13937500Y-24440000D03*
X14687500Y-24440000D03*
X15437500Y-24440000D03*
X16187500Y-24440000D03*
X16937500Y-24440000D03*
X17687500Y-24440000D03*
X18437500Y-24440000D03*
X19187500Y-24440000D03*
X19937500Y-24440000D03*
X20687500Y-24440000D03*
X21437500Y-24440000D03*
X22187500Y-24440000D03*
X1937500Y-25190000D03*
X2687500Y-25190000D03*
X3437500Y-25190000D03*
X4187500Y-25190000D03*
X4937500Y-25190000D03*
X5687500Y-25190000D03*
X6437500Y-25190000D03*
X7187500Y-25190000D03*
X7937500Y-25190000D03*
X8687500Y-25190000D03*
X9437500Y-25190000D03*
X10187500Y-25190000D03*
X10937500Y-25190000D03*
X11687500Y-25190000D03*
X12437500Y-25190000D03*
X13187500Y-25190000D03*
X13937500Y-25190000D03*
X14687500Y-25190000D03*
X15437500Y-25190000D03*
X16187500Y-25190000D03*
X16937500Y-25190000D03*
X17687500Y-25190000D03*
X18437500Y-25190000D03*
X19187500Y-25190000D03*
X19937500Y-25190000D03*
X20687500Y-25190000D03*
X21437500Y-25190000D03*
X22187500Y-25190000D03*
X1937500Y-2690000D03*
X2687500Y-2690000D03*
X3437500Y-2690000D03*
X4187500Y-2690000D03*
X4937500Y-2690000D03*
X5687500Y-2690000D03*
X6437500Y-2690000D03*
X7187500Y-2690000D03*
X7937500Y-2690000D03*
X8687500Y-2690000D03*
X9437500Y-2690000D03*
X10187500Y-2690000D03*
X10937500Y-2690000D03*
X11687500Y-2690000D03*
X12437500Y-2690000D03*
X13187500Y-2690000D03*
X13937500Y-2690000D03*
X14687500Y-2690000D03*
X15437500Y-2690000D03*
X16187500Y-2690000D03*
X16937500Y-2690000D03*
X17687500Y-2690000D03*
X18437500Y-2690000D03*
X19187500Y-2690000D03*
X19937500Y-2690000D03*
X20687500Y-2690000D03*
X21437500Y-2690000D03*
X22187500Y-2690000D03*
X437500Y-3440000D03*
X1187500Y-3440000D03*
X1937500Y-3440000D03*
X2687500Y-3440000D03*
X3437500Y-3440000D03*
X4187500Y-3440000D03*
X4937500Y-3440000D03*
X5687500Y-3440000D03*
X6437500Y-3440000D03*
X7187500Y-3440000D03*
X7937500Y-3440000D03*
X8687500Y-3440000D03*
X9437500Y-3440000D03*
X10187500Y-3440000D03*
X10937500Y-3440000D03*
X11687500Y-3440000D03*
X12437500Y-3440000D03*
X13187500Y-3440000D03*
X13937500Y-3440000D03*
X14687500Y-3440000D03*
X15437500Y-3440000D03*
X16187500Y-3440000D03*
X16937500Y-3440000D03*
X17687500Y-3440000D03*
X18437500Y-3440000D03*
X19187500Y-3440000D03*
X19937500Y-3440000D03*
X20687500Y-3440000D03*
X21437500Y-3440000D03*
X22187500Y-3440000D03*
X22937500Y-3440000D03*
X23687500Y-3440000D03*
X437500Y-4190000D03*
X1187500Y-4190000D03*
X1937500Y-4190000D03*
X2687500Y-4190000D03*
X3437500Y-4190000D03*
X4187500Y-4190000D03*
X4937500Y-4190000D03*
X5687500Y-4190000D03*
X6437500Y-4190000D03*
X7187500Y-4190000D03*
X7937500Y-4190000D03*
X8687500Y-4190000D03*
X9437500Y-4190000D03*
X10187500Y-4190000D03*
X10937500Y-4190000D03*
X11687500Y-4190000D03*
X12437500Y-4190000D03*
X13187500Y-4190000D03*
X13937500Y-4190000D03*
X14687500Y-4190000D03*
X15437500Y-4190000D03*
X16187500Y-4190000D03*
X16937500Y-4190000D03*
X17687500Y-4190000D03*
X18437500Y-4190000D03*
X19187500Y-4190000D03*
X19937500Y-4190000D03*
X20687500Y-4190000D03*
X21437500Y-4190000D03*
X22187500Y-4190000D03*
X22937500Y-4190000D03*
X23687500Y-4190000D03*
X437500Y-4940000D03*
X1187500Y-4940000D03*
X1937500Y-4940000D03*
X2687500Y-4940000D03*
X3437500Y-4940000D03*
X4187500Y-4940000D03*
X4937500Y-4940000D03*
X5687500Y-4940000D03*
X6437500Y-4940000D03*
X7187500Y-4940000D03*
X7937500Y-4940000D03*
X8687500Y-4940000D03*
X9437500Y-4940000D03*
X10187500Y-4940000D03*
X10937500Y-4940000D03*
X11687500Y-4940000D03*
X12437500Y-4940000D03*
X13187500Y-4940000D03*
X13937500Y-4940000D03*
X14687500Y-4940000D03*
X15437500Y-4940000D03*
X16187500Y-4940000D03*
X16937500Y-4940000D03*
X17687500Y-4940000D03*
X18437500Y-4940000D03*
X19187500Y-4940000D03*
X19937500Y-4940000D03*
X20687500Y-4940000D03*
X21437500Y-4940000D03*
X22187500Y-4940000D03*
X22937500Y-4940000D03*
X23687500Y-4940000D03*
X437500Y-5690000D03*
X1187500Y-5690000D03*
X1937500Y-5690000D03*
X2687500Y-5690000D03*
X3437500Y-5690000D03*
X4187500Y-5690000D03*
X4937500Y-5690000D03*
X5687500Y-5690000D03*
X6437500Y-5690000D03*
X7187500Y-5690000D03*
X7937500Y-5690000D03*
X8687500Y-5690000D03*
X9437500Y-5690000D03*
X10187500Y-5690000D03*
X10937500Y-5690000D03*
X11687500Y-5690000D03*
X12437500Y-5690000D03*
X13187500Y-5690000D03*
X13937500Y-5690000D03*
X14687500Y-5690000D03*
X15437500Y-5690000D03*
X16187500Y-5690000D03*
X16937500Y-5690000D03*
X17687500Y-5690000D03*
X18437500Y-5690000D03*
X19187500Y-5690000D03*
X19937500Y-5690000D03*
X20687500Y-5690000D03*
X21437500Y-5690000D03*
X22187500Y-5690000D03*
X22937500Y-5690000D03*
X23687500Y-5690000D03*
X437500Y-6440000D03*
X1187500Y-6440000D03*
X1937500Y-6440000D03*
X2687500Y-6440000D03*
X3437500Y-6440000D03*
X4187500Y-6440000D03*
X4937500Y-6440000D03*
X5687500Y-6440000D03*
X6437500Y-6440000D03*
X7187500Y-6440000D03*
X7937500Y-6440000D03*
X8687500Y-6440000D03*
X9437500Y-6440000D03*
X10187500Y-6440000D03*
X10937500Y-6440000D03*
X11687500Y-6440000D03*
X12437500Y-6440000D03*
X13187500Y-6440000D03*
X13937500Y-6440000D03*
X14687500Y-6440000D03*
X15437500Y-6440000D03*
X16187500Y-6440000D03*
X16937500Y-6440000D03*
X17687500Y-6440000D03*
X18437500Y-6440000D03*
X19187500Y-6440000D03*
X19937500Y-6440000D03*
X20687500Y-6440000D03*
X21437500Y-6440000D03*
X22187500Y-6440000D03*
X22937500Y-6440000D03*
X23687500Y-6440000D03*
X437500Y-7190000D03*
X1187500Y-7190000D03*
X1937500Y-7190000D03*
X2687500Y-7190000D03*
X3437500Y-7190000D03*
X4187500Y-7190000D03*
X4937500Y-7190000D03*
X5687500Y-7190000D03*
X6437500Y-7190000D03*
X7187500Y-7190000D03*
X7937500Y-7190000D03*
X8687500Y-7190000D03*
X9437500Y-7190000D03*
X10187500Y-7190000D03*
X10937500Y-7190000D03*
X11687500Y-7190000D03*
X12437500Y-7190000D03*
X13187500Y-7190000D03*
X13937500Y-7190000D03*
X14687500Y-7190000D03*
X15437500Y-7190000D03*
X16187500Y-7190000D03*
X16937500Y-7190000D03*
X17687500Y-7190000D03*
X18437500Y-7190000D03*
X19187500Y-7190000D03*
X19937500Y-7190000D03*
X20687500Y-7190000D03*
X21437500Y-7190000D03*
X22187500Y-7190000D03*
X22937500Y-7190000D03*
X23687500Y-7190000D03*
X437500Y-7940000D03*
X1187500Y-7940000D03*
X1937500Y-7940000D03*
X2687500Y-7940000D03*
X3437500Y-7940000D03*
X4187500Y-7940000D03*
X4937500Y-7940000D03*
X5687500Y-7940000D03*
X6437500Y-7940000D03*
X7187500Y-7940000D03*
X7937500Y-7940000D03*
X8687500Y-7940000D03*
X9437500Y-7940000D03*
X10187500Y-7940000D03*
X10937500Y-7940000D03*
X11687500Y-7940000D03*
X12437500Y-7940000D03*
X13187500Y-7940000D03*
X13937500Y-7940000D03*
X14687500Y-7940000D03*
X15437500Y-7940000D03*
X16187500Y-7940000D03*
X16937500Y-7940000D03*
X17687500Y-7940000D03*
X18437500Y-7940000D03*
X19187500Y-7940000D03*
X19937500Y-7940000D03*
X20687500Y-7940000D03*
X21437500Y-7940000D03*
X22187500Y-7940000D03*
X22937500Y-7940000D03*
X23687500Y-7940000D03*
X437500Y-8690000D03*
X1187500Y-8690000D03*
X1937500Y-8690000D03*
X2687500Y-8690000D03*
X3437500Y-8690000D03*
X4187500Y-8690000D03*
X4937500Y-8690000D03*
X5687500Y-8690000D03*
X6437500Y-8690000D03*
X7187500Y-8690000D03*
X7937500Y-8690000D03*
X8687500Y-8690000D03*
X9437500Y-8690000D03*
X10187500Y-8690000D03*
X10937500Y-8690000D03*
X11687500Y-8690000D03*
X12437500Y-8690000D03*
X13187500Y-8690000D03*
X13937500Y-8690000D03*
X14687500Y-8690000D03*
X15437500Y-8690000D03*
X16187500Y-8690000D03*
X16937500Y-8690000D03*
X17687500Y-8690000D03*
X18437500Y-8690000D03*
X19187500Y-8690000D03*
X19937500Y-8690000D03*
X20687500Y-8690000D03*
X21437500Y-8690000D03*
X22187500Y-8690000D03*
X22937500Y-8690000D03*
X23687500Y-8690000D03*
X437500Y-9440000D03*
X1187500Y-9440000D03*
X1937500Y-9440000D03*
X2687500Y-9440000D03*
X3437500Y-9440000D03*
X4187500Y-9440000D03*
X4937500Y-9440000D03*
X5687500Y-9440000D03*
X6437500Y-9440000D03*
X7187500Y-9440000D03*
X7937500Y-9440000D03*
X8687500Y-9440000D03*
X9437500Y-9440000D03*
X10187500Y-9440000D03*
X10937500Y-9440000D03*
X11687500Y-9440000D03*
X12437500Y-9440000D03*
X13187500Y-9440000D03*
X13937500Y-9440000D03*
X14687500Y-9440000D03*
X15437500Y-9440000D03*
X16187500Y-9440000D03*
X16937500Y-9440000D03*
X17687500Y-9440000D03*
X18437500Y-9440000D03*
X19187500Y-9440000D03*
X19937500Y-9440000D03*
X20687500Y-9440000D03*
X21437500Y-9440000D03*
X22187500Y-9440000D03*
X22937500Y-9440000D03*
X23687500Y-9440000D03*
X437500Y-10190000D03*
X1187500Y-10190000D03*
X1937500Y-10190000D03*
X2687500Y-10190000D03*
X3437500Y-10190000D03*
X4187500Y-10190000D03*
X4937500Y-10190000D03*
X5687500Y-10190000D03*
X6437500Y-10190000D03*
X7187500Y-10190000D03*
X7937500Y-10190000D03*
X8687500Y-10190000D03*
X9437500Y-10190000D03*
X10187500Y-10190000D03*
X10937500Y-10190000D03*
X11687500Y-10190000D03*
X12437500Y-10190000D03*
X13187500Y-10190000D03*
X13937500Y-10190000D03*
X14687500Y-10190000D03*
X15437500Y-10190000D03*
X16187500Y-10190000D03*
X16937500Y-10190000D03*
X17687500Y-10190000D03*
X18437500Y-10190000D03*
X19187500Y-10190000D03*
X19937500Y-10190000D03*
X20687500Y-10190000D03*
X21437500Y-10190000D03*
X22187500Y-10190000D03*
X22937500Y-10190000D03*
X23687500Y-10190000D03*
X437500Y-10940000D03*
X1187500Y-10940000D03*
X1937500Y-10940000D03*
X2687500Y-10940000D03*
X3437500Y-10940000D03*
X4187500Y-10940000D03*
X4937500Y-10940000D03*
X5687500Y-10940000D03*
X6437500Y-10940000D03*
X7187500Y-10940000D03*
X7937500Y-10940000D03*
X8687500Y-10940000D03*
X9437500Y-10940000D03*
X10187500Y-10940000D03*
X10937500Y-10940000D03*
X11687500Y-10940000D03*
X12437500Y-10940000D03*
X13187500Y-10940000D03*
X13937500Y-10940000D03*
X14687500Y-10940000D03*
X15437500Y-10940000D03*
X16187500Y-10940000D03*
X16937500Y-10940000D03*
X17687500Y-10940000D03*
X18437500Y-10940000D03*
X19187500Y-10940000D03*
X19937500Y-10940000D03*
X20687500Y-10940000D03*
X21437500Y-10940000D03*
X22187500Y-10940000D03*
X22937500Y-10940000D03*
X23687500Y-10940000D03*
X437500Y-11690000D03*
X1187500Y-11690000D03*
X1937500Y-11690000D03*
X2687500Y-11690000D03*
X3437500Y-11690000D03*
X4187500Y-11690000D03*
X4937500Y-11690000D03*
X5687500Y-11690000D03*
X6437500Y-11690000D03*
X7187500Y-11690000D03*
X7937500Y-11690000D03*
X8687500Y-11690000D03*
X9437500Y-11690000D03*
X10187500Y-11690000D03*
X10937500Y-11690000D03*
X11687500Y-11690000D03*
X12437500Y-11690000D03*
X13187500Y-11690000D03*
X13937500Y-11690000D03*
X14687500Y-11690000D03*
X15437500Y-11690000D03*
X16187500Y-11690000D03*
X16937500Y-11690000D03*
X17687500Y-11690000D03*
X18437500Y-11690000D03*
X19187500Y-11690000D03*
X19937500Y-11690000D03*
X20687500Y-11690000D03*
X21437500Y-11690000D03*
X22187500Y-11690000D03*
X22937500Y-11690000D03*
X23687500Y-11690000D03*
X437500Y-12440000D03*
X1187500Y-12440000D03*
X1937500Y-12440000D03*
X2687500Y-12440000D03*
X3437500Y-12440000D03*
X4187500Y-12440000D03*
X4937500Y-12440000D03*
X5687500Y-12440000D03*
X6437500Y-12440000D03*
X7187500Y-12440000D03*
X7937500Y-12440000D03*
X8687500Y-12440000D03*
X9437500Y-12440000D03*
X10187500Y-12440000D03*
X10937500Y-12440000D03*
X11687500Y-12440000D03*
X12437500Y-12440000D03*
X13187500Y-12440000D03*
X13937500Y-12440000D03*
X14687500Y-12440000D03*
X15437500Y-12440000D03*
X16187500Y-12440000D03*
X16937500Y-12440000D03*
X17687500Y-12440000D03*
X18437500Y-12440000D03*
X19187500Y-12440000D03*
X19937500Y-12440000D03*
X20687500Y-12440000D03*
X21437500Y-12440000D03*
X22187500Y-12440000D03*
X22937500Y-12440000D03*
X23687500Y-12440000D03*
X437500Y-13190000D03*
X1187500Y-13190000D03*
X1937500Y-13190000D03*
X2687500Y-13190000D03*
X3437500Y-13190000D03*
X4187500Y-13190000D03*
X4937500Y-13190000D03*
X5687500Y-13190000D03*
X6437500Y-13190000D03*
X7187500Y-13190000D03*
X7937500Y-13190000D03*
X8687500Y-13190000D03*
X9437500Y-13190000D03*
X10187500Y-13190000D03*
X10937500Y-13190000D03*
X11687500Y-13190000D03*
X12437500Y-13190000D03*
X13187500Y-13190000D03*
X13937500Y-13190000D03*
X14687500Y-13190000D03*
X15437500Y-13190000D03*
X16187500Y-13190000D03*
X16937500Y-13190000D03*
X17687500Y-13190000D03*
X18437500Y-13190000D03*
X19187500Y-13190000D03*
X19937500Y-13190000D03*
X20687500Y-13190000D03*
X21437500Y-13190000D03*
X22187500Y-13190000D03*
X22937500Y-13190000D03*
X23687500Y-13190000D03*
X437500Y-13940000D03*
X1187500Y-13940000D03*
X1937500Y-13940000D03*
X2687500Y-13940000D03*
X3437500Y-13940000D03*
X4187500Y-13940000D03*
X4937500Y-13940000D03*
X5687500Y-13940000D03*
X6437500Y-13940000D03*
X7187500Y-13940000D03*
X7937500Y-13940000D03*
X8687500Y-13940000D03*
X9437500Y-13940000D03*
X10187500Y-13940000D03*
X10937500Y-13940000D03*
X11687500Y-13940000D03*
X12437500Y-13940000D03*
X13187500Y-13940000D03*
X13937500Y-13940000D03*
X14687500Y-13940000D03*
X15437500Y-13940000D03*
X16187500Y-13940000D03*
X16937500Y-13940000D03*
X17687500Y-13940000D03*
X18437500Y-13940000D03*
X19187500Y-13940000D03*
X19937500Y-13940000D03*
X20687500Y-13940000D03*
X21437500Y-13940000D03*
X22187500Y-13940000D03*
X22937500Y-13940000D03*
X23687500Y-13940000D03*
X437500Y-14690000D03*
X1187500Y-14690000D03*
X1937500Y-14690000D03*
X2687500Y-14690000D03*
X3437500Y-14690000D03*
X4187500Y-14690000D03*
X4937500Y-14690000D03*
X5687500Y-14690000D03*
X6437500Y-14690000D03*
X7187500Y-14690000D03*
X7937500Y-14690000D03*
X8687500Y-14690000D03*
X9437500Y-14690000D03*
X10187500Y-14690000D03*
X10937500Y-14690000D03*
X11687500Y-14690000D03*
X12437500Y-14690000D03*
X13187500Y-14690000D03*
X13937500Y-14690000D03*
X14687500Y-14690000D03*
X15437500Y-14690000D03*
X16187500Y-14690000D03*
X16937500Y-14690000D03*
X17687500Y-14690000D03*
X18437500Y-14690000D03*
X19187500Y-14690000D03*
X19937500Y-14690000D03*
X20687500Y-14690000D03*
X21437500Y-14690000D03*
X22187500Y-14690000D03*
X22937500Y-14690000D03*
X23687500Y-14690000D03*
X437500Y-15440000D03*
X1187500Y-15440000D03*
X1937500Y-15440000D03*
X2687500Y-15440000D03*
X3437500Y-15440000D03*
X4187500Y-15440000D03*
X4937500Y-15440000D03*
X5687500Y-15440000D03*
X6437500Y-15440000D03*
X7187500Y-15440000D03*
X7937500Y-15440000D03*
X8687500Y-15440000D03*
X9437500Y-15440000D03*
X10187500Y-15440000D03*
X10937500Y-15440000D03*
X11687500Y-15440000D03*
X12437500Y-15440000D03*
X13187500Y-15440000D03*
X13937500Y-15440000D03*
X14687500Y-15440000D03*
X15437500Y-15440000D03*
X16187500Y-15440000D03*
X16937500Y-15440000D03*
X17687500Y-15440000D03*
X18437500Y-15440000D03*
X19187500Y-15440000D03*
X19937500Y-15440000D03*
X20687500Y-15440000D03*
X21437500Y-15440000D03*
X22187500Y-15440000D03*
X22937500Y-15440000D03*
X23687500Y-15440000D03*
X437500Y-16190000D03*
X1187500Y-16190000D03*
X1937500Y-16190000D03*
X2687500Y-16190000D03*
X3437500Y-16190000D03*
X4187500Y-16190000D03*
X4937500Y-16190000D03*
X5687500Y-16190000D03*
X6437500Y-16190000D03*
X7187500Y-16190000D03*
X7937500Y-16190000D03*
X8687500Y-16190000D03*
X9437500Y-16190000D03*
X10187500Y-16190000D03*
X10937500Y-16190000D03*
X11687500Y-16190000D03*
X12437500Y-16190000D03*
X13187500Y-16190000D03*
X13937500Y-16190000D03*
X14687500Y-16190000D03*
X15437500Y-16190000D03*
X16187500Y-16190000D03*
X16937500Y-16190000D03*
X17687500Y-16190000D03*
X18437500Y-16190000D03*
X19187500Y-16190000D03*
X19937500Y-16190000D03*
X20687500Y-16190000D03*
X21437500Y-16190000D03*
X22187500Y-16190000D03*
X22937500Y-16190000D03*
X23687500Y-16190000D03*
X437500Y-16940000D03*
X1187500Y-16940000D03*
X1937500Y-16940000D03*
X2687500Y-16940000D03*
X3437500Y-16940000D03*
X4187500Y-16940000D03*
X4937500Y-16940000D03*
X5687500Y-16940000D03*
X6437500Y-16940000D03*
X7187500Y-16940000D03*
X7937500Y-16940000D03*
X8687500Y-16940000D03*
X9437500Y-16940000D03*
X10187500Y-16940000D03*
X10937500Y-16940000D03*
X11687500Y-16940000D03*
X12437500Y-16940000D03*
X13187500Y-16940000D03*
X13937500Y-16940000D03*
X14687500Y-16940000D03*
X15437500Y-16940000D03*
X16187500Y-16940000D03*
X16937500Y-16940000D03*
X17687500Y-16940000D03*
X18437500Y-16940000D03*
X19187500Y-16940000D03*
X19937500Y-16940000D03*
X20687500Y-16940000D03*
X21437500Y-16940000D03*
X22187500Y-16940000D03*
X22937500Y-16940000D03*
X23687500Y-16940000D03*
X437500Y-17690000D03*
X1187500Y-17690000D03*
X1937500Y-17690000D03*
X2687500Y-17690000D03*
X3437500Y-17690000D03*
X4187500Y-17690000D03*
X4937500Y-17690000D03*
X5687500Y-17690000D03*
X6437500Y-17690000D03*
X7187500Y-17690000D03*
X7937500Y-17690000D03*
X8687500Y-17690000D03*
X9437500Y-17690000D03*
X10187500Y-17690000D03*
X10937500Y-17690000D03*
X11687500Y-17690000D03*
X12437500Y-17690000D03*
X13187500Y-17690000D03*
X13937500Y-17690000D03*
X14687500Y-17690000D03*
X15437500Y-17690000D03*
X16187500Y-17690000D03*
X16937500Y-17690000D03*
X17687500Y-17690000D03*
X18437500Y-17690000D03*
X19187500Y-17690000D03*
X19937500Y-17690000D03*
X20687500Y-17690000D03*
X21437500Y-17690000D03*
X22187500Y-17690000D03*
X22937500Y-17690000D03*
X23687500Y-17690000D03*
X437500Y-18440000D03*
X1187500Y-18440000D03*
X1937500Y-18440000D03*
X2687500Y-18440000D03*
X3437500Y-18440000D03*
X4187500Y-18440000D03*
X4937500Y-18440000D03*
X5687500Y-18440000D03*
X6437500Y-18440000D03*
X7187500Y-18440000D03*
X7937500Y-18440000D03*
X8687500Y-18440000D03*
X9437500Y-18440000D03*
X10187500Y-18440000D03*
X10937500Y-18440000D03*
X11687500Y-18440000D03*
X12437500Y-18440000D03*
X13187500Y-18440000D03*
X13937500Y-18440000D03*
X14687500Y-18440000D03*
X15437500Y-18440000D03*
X16187500Y-18440000D03*
X16937500Y-18440000D03*
X17687500Y-18440000D03*
X18437500Y-18440000D03*
X19187500Y-18440000D03*
X19937500Y-18440000D03*
X20687500Y-18440000D03*
X21437500Y-18440000D03*
X22187500Y-18440000D03*
X22937500Y-18440000D03*
X23687500Y-18440000D03*
X437500Y-19190000D03*
X1187500Y-19190000D03*
X1937500Y-19190000D03*
X2687500Y-19190000D03*
X3437500Y-19190000D03*
X4187500Y-19190000D03*
X4937500Y-19190000D03*
X5687500Y-19190000D03*
X6437500Y-19190000D03*
X7187500Y-19190000D03*
X7937500Y-19190000D03*
X8687500Y-19190000D03*
X9437500Y-19190000D03*
X10187500Y-19190000D03*
X10937500Y-19190000D03*
X11687500Y-19190000D03*
X12437500Y-19190000D03*
X13187500Y-19190000D03*
X13937500Y-19190000D03*
X14687500Y-19190000D03*
X15437500Y-19190000D03*
X16187500Y-19190000D03*
X16937500Y-19190000D03*
X17687500Y-19190000D03*
X18437500Y-19190000D03*
X19187500Y-19190000D03*
X19937500Y-19190000D03*
X20687500Y-19190000D03*
X21437500Y-19190000D03*
X22187500Y-19190000D03*
X22937500Y-19190000D03*
X23687500Y-19190000D03*
X437500Y-19940000D03*
X1187500Y-19940000D03*
X1937500Y-19940000D03*
X2687500Y-19940000D03*
X3437500Y-19940000D03*
X4187500Y-19940000D03*
X4937500Y-19940000D03*
X5687500Y-19940000D03*
X6437500Y-19940000D03*
X7187500Y-19940000D03*
X7937500Y-19940000D03*
X8687500Y-19940000D03*
X9437500Y-19940000D03*
X10187500Y-19940000D03*
X10937500Y-19940000D03*
X11687500Y-19940000D03*
X12437500Y-19940000D03*
X13187500Y-19940000D03*
X13937500Y-19940000D03*
X14687500Y-19940000D03*
X15437500Y-19940000D03*
X16187500Y-19940000D03*
X16937500Y-19940000D03*
X17687500Y-19940000D03*
X18437500Y-19940000D03*
X19187500Y-19940000D03*
X19937500Y-19940000D03*
X20687500Y-19940000D03*
X21437500Y-19940000D03*
X22187500Y-19940000D03*
X22937500Y-19940000D03*
X23687500Y-19940000D03*
X437500Y-20690000D03*
X1187500Y-20690000D03*
X1937500Y-20690000D03*
X2687500Y-20690000D03*
X3437500Y-20690000D03*
X4187500Y-20690000D03*
X4937500Y-20690000D03*
X5687500Y-20690000D03*
X6437500Y-20690000D03*
X7187500Y-20690000D03*
X7937500Y-20690000D03*
X8687500Y-20690000D03*
X9437500Y-20690000D03*
X10187500Y-20690000D03*
X10937500Y-20690000D03*
X11687500Y-20690000D03*
X12437500Y-20690000D03*
X13187500Y-20690000D03*
X13937500Y-20690000D03*
X14687500Y-20690000D03*
X15437500Y-20690000D03*
X16187500Y-20690000D03*
X16937500Y-20690000D03*
X17687500Y-20690000D03*
X18437500Y-20690000D03*
X19187500Y-20690000D03*
X19937500Y-20690000D03*
X20687500Y-20690000D03*
X21437500Y-20690000D03*
X22187500Y-20690000D03*
X22937500Y-20690000D03*
X23687500Y-20690000D03*
%TD*%
D22*
%TO.C,C5*%
X11662500Y-68030000D03*
X13212500Y-68030000D03*
%TD*%
%TO.C,C4*%
X86787500Y-50000000D03*
X88337500Y-50000000D03*
%TD*%
%TO.C,C6*%
X26687500Y-68030000D03*
X28237500Y-68030000D03*
%TD*%
%TO.C,C7*%
X41712500Y-68030000D03*
X43262500Y-68030000D03*
%TD*%
%TO.C,C8*%
X56737500Y-68030000D03*
X58287500Y-68030000D03*
%TD*%
%TO.C,C13*%
X26687500Y-50000000D03*
X28237500Y-50000000D03*
%TD*%
%TO.C,C1*%
X56737500Y-31970000D03*
X58287500Y-31970000D03*
%TD*%
%TO.C,C10*%
X71762500Y-31970000D03*
X73312500Y-31970000D03*
%TD*%
%TO.C,C11*%
X86787500Y-31970000D03*
X88337500Y-31970000D03*
%TD*%
%TO.C,C14*%
X41712500Y-50000000D03*
X43262500Y-50000000D03*
%TD*%
%TO.C,C9*%
X71762500Y-68030000D03*
X73312500Y-68030000D03*
%TD*%
%TO.C,C12*%
X11662500Y-50000000D03*
X13212500Y-50000000D03*
%TD*%
%TO.C,C3*%
X71762500Y-50000000D03*
X73312500Y-50000000D03*
%TD*%
%TO.C,C2*%
X56737500Y-50000000D03*
X58287500Y-50000000D03*
%TD*%
D23*
%TO.C,U6*%
X67937500Y-10690000D03*
X67937500Y-11340000D03*
X67937500Y-11990000D03*
X67937500Y-12640000D03*
X67937500Y-13290000D03*
X67937500Y-13940000D03*
X67937500Y-14590000D03*
X67937500Y-15240000D03*
X67937500Y-15890000D03*
X67937500Y-16540000D03*
X67937500Y-17190000D03*
D24*
X69287500Y-18540000D03*
X69937500Y-18540000D03*
X70587500Y-18540000D03*
X71237500Y-18540000D03*
X71887500Y-18540000D03*
X72537500Y-18540000D03*
X73187500Y-18540000D03*
X73837500Y-18540000D03*
X74487500Y-18540000D03*
X75137500Y-18540000D03*
X75787500Y-18540000D03*
D23*
X77137500Y-17190000D03*
X77137500Y-16540000D03*
X77137500Y-15890000D03*
X77137500Y-15240000D03*
X77137500Y-14590000D03*
X77137500Y-13940000D03*
X77137500Y-13290000D03*
X77137500Y-12640000D03*
X77137500Y-11990000D03*
X77137500Y-11340000D03*
X77137500Y-10690000D03*
D24*
X75787500Y-9340000D03*
X75137500Y-9340000D03*
X74487500Y-9340000D03*
X73837500Y-9340000D03*
X73187500Y-9340000D03*
X72537500Y-9340000D03*
X71887500Y-9340000D03*
X71237500Y-9340000D03*
X70587500Y-9340000D03*
X69937500Y-9340000D03*
X69287500Y-9340000D03*
D25*
X72537500Y-13940000D03*
%TD*%
D26*
%TO.C,M1*%
X69062500Y-70030000D03*
X69562500Y-70030000D03*
X70062500Y-70030000D03*
X70562500Y-70030000D03*
X71062500Y-70030000D03*
X71562500Y-70030000D03*
X72062500Y-70030000D03*
X72562500Y-70030000D03*
X73062500Y-70030000D03*
X73562500Y-70030000D03*
X74062500Y-70030000D03*
X74562500Y-70030000D03*
X75062500Y-70030000D03*
X75562500Y-70030000D03*
X76062500Y-70030000D03*
X76562500Y-70030000D03*
X77062500Y-70030000D03*
X77562500Y-70030000D03*
X78062500Y-70030000D03*
X78562500Y-70030000D03*
X79062500Y-70030000D03*
X79562500Y-70030000D03*
X80062500Y-70030000D03*
X80562500Y-70030000D03*
X81062500Y-70030000D03*
X81562500Y-70030000D03*
X82062500Y-70030000D03*
X82562500Y-70030000D03*
X83062500Y-70030000D03*
X83562500Y-70030000D03*
X84062500Y-70030000D03*
X84562500Y-70030000D03*
X85062500Y-70030000D03*
X85562500Y-70030000D03*
X86062500Y-70030000D03*
X86562500Y-70030000D03*
X87062500Y-70030000D03*
X87562500Y-70030000D03*
X88062500Y-70030000D03*
X88562500Y-70030000D03*
X89062500Y-70030000D03*
X89562500Y-70030000D03*
X90062500Y-70030000D03*
X90562500Y-70030000D03*
X91062500Y-70030000D03*
X91562500Y-70030000D03*
X92062500Y-70030000D03*
X92562500Y-70030000D03*
X93062500Y-70030000D03*
X93562500Y-70030000D03*
X94062500Y-70030000D03*
X94562500Y-70030000D03*
X95062500Y-70030000D03*
X95562500Y-70030000D03*
X96062500Y-70030000D03*
X96562500Y-70030000D03*
X97062500Y-70030000D03*
X97562500Y-70030000D03*
X98062500Y-70030000D03*
X98562500Y-70030000D03*
X99062500Y-70030000D03*
X99562500Y-70030000D03*
X100062500Y-70030000D03*
X100562500Y-70030000D03*
X101062500Y-70030000D03*
X101562500Y-70030000D03*
X102062500Y-70030000D03*
X102562500Y-70030000D03*
X103062500Y-70030000D03*
X103562500Y-70030000D03*
X104062500Y-70030000D03*
X104562500Y-70030000D03*
X105062500Y-70030000D03*
X105562500Y-70030000D03*
X106062500Y-70030000D03*
%TD*%
D27*
%TO.C,U3*%
X40487500Y-9440000D03*
X40987500Y-9440000D03*
X41487500Y-9440000D03*
X41987500Y-9440000D03*
X42487500Y-9440000D03*
X42987500Y-9440000D03*
X43487500Y-9440000D03*
X43987500Y-9440000D03*
X40487500Y-9940000D03*
X40987500Y-9940000D03*
X41487500Y-9940000D03*
X41987500Y-9940000D03*
X42487500Y-9940000D03*
X42987500Y-9940000D03*
X43487500Y-9940000D03*
X43987500Y-9940000D03*
X40487500Y-10440000D03*
X40987500Y-10440000D03*
X41487500Y-10440000D03*
X41987500Y-10440000D03*
X42487500Y-10440000D03*
X42987500Y-10440000D03*
X43487500Y-10440000D03*
X43987500Y-10440000D03*
X40487500Y-10940000D03*
X40987500Y-10940000D03*
X41487500Y-10940000D03*
X41987500Y-10940000D03*
X42487500Y-10940000D03*
X42987500Y-10940000D03*
X43487500Y-10940000D03*
X43987500Y-10940000D03*
X40487500Y-11440000D03*
X40987500Y-11440000D03*
X41487500Y-11440000D03*
X41987500Y-11440000D03*
X42487500Y-11440000D03*
X42987500Y-11440000D03*
X43487500Y-11440000D03*
X43987500Y-11440000D03*
X37987500Y-11940000D03*
X38487500Y-11940000D03*
X38987500Y-11940000D03*
X39487500Y-11940000D03*
X39987500Y-11940000D03*
X40487500Y-11940000D03*
X40987500Y-11940000D03*
X41487500Y-11940000D03*
X41987500Y-11940000D03*
X42487500Y-11940000D03*
X42987500Y-11940000D03*
X43487500Y-11940000D03*
X43987500Y-11940000D03*
X44487500Y-11940000D03*
X44987500Y-11940000D03*
X45487500Y-11940000D03*
X45987500Y-11940000D03*
X46487500Y-11940000D03*
X37987500Y-12440000D03*
X38487500Y-12440000D03*
X38987500Y-12440000D03*
X39487500Y-12440000D03*
X39987500Y-12440000D03*
X40487500Y-12440000D03*
X40987500Y-12440000D03*
X41487500Y-12440000D03*
X41987500Y-12440000D03*
X42487500Y-12440000D03*
X42987500Y-12440000D03*
X43487500Y-12440000D03*
X43987500Y-12440000D03*
X44487500Y-12440000D03*
X44987500Y-12440000D03*
X45487500Y-12440000D03*
X45987500Y-12440000D03*
X46487500Y-12440000D03*
X37987500Y-12940000D03*
X38487500Y-12940000D03*
X38987500Y-12940000D03*
X39487500Y-12940000D03*
X39987500Y-12940000D03*
X40487500Y-12940000D03*
X40987500Y-12940000D03*
X41487500Y-12940000D03*
X41987500Y-12940000D03*
X42487500Y-12940000D03*
X42987500Y-12940000D03*
X43487500Y-12940000D03*
X43987500Y-12940000D03*
X44487500Y-12940000D03*
X44987500Y-12940000D03*
X45487500Y-12940000D03*
X45987500Y-12940000D03*
X46487500Y-12940000D03*
X37987500Y-13440000D03*
X38487500Y-13440000D03*
X38987500Y-13440000D03*
X39487500Y-13440000D03*
X39987500Y-13440000D03*
X40487500Y-13440000D03*
X40987500Y-13440000D03*
X41487500Y-13440000D03*
X41987500Y-13440000D03*
X42487500Y-13440000D03*
X42987500Y-13440000D03*
X43487500Y-13440000D03*
X43987500Y-13440000D03*
X44487500Y-13440000D03*
X44987500Y-13440000D03*
X45487500Y-13440000D03*
X45987500Y-13440000D03*
X46487500Y-13440000D03*
X37987500Y-13940000D03*
X38487500Y-13940000D03*
X38987500Y-13940000D03*
X39487500Y-13940000D03*
X39987500Y-13940000D03*
X40487500Y-13940000D03*
X40987500Y-13940000D03*
X41487500Y-13940000D03*
X41987500Y-13940000D03*
X42487500Y-13940000D03*
X42987500Y-13940000D03*
X43487500Y-13940000D03*
X43987500Y-13940000D03*
X44487500Y-13940000D03*
X44987500Y-13940000D03*
X45487500Y-13940000D03*
X45987500Y-13940000D03*
X46487500Y-13940000D03*
X37987500Y-14440000D03*
X38487500Y-14440000D03*
X38987500Y-14440000D03*
X39487500Y-14440000D03*
X39987500Y-14440000D03*
X40487500Y-14440000D03*
X40987500Y-14440000D03*
X41487500Y-14440000D03*
X41987500Y-14440000D03*
X42487500Y-14440000D03*
X42987500Y-14440000D03*
X43487500Y-14440000D03*
X43987500Y-14440000D03*
X44487500Y-14440000D03*
X44987500Y-14440000D03*
X45487500Y-14440000D03*
X45987500Y-14440000D03*
X46487500Y-14440000D03*
X37987500Y-14940000D03*
X38487500Y-14940000D03*
X38987500Y-14940000D03*
X39487500Y-14940000D03*
X39987500Y-14940000D03*
X40487500Y-14940000D03*
X40987500Y-14940000D03*
X41487500Y-14940000D03*
X41987500Y-14940000D03*
X42487500Y-14940000D03*
X42987500Y-14940000D03*
X43487500Y-14940000D03*
X43987500Y-14940000D03*
X44487500Y-14940000D03*
X44987500Y-14940000D03*
X45487500Y-14940000D03*
X45987500Y-14940000D03*
X46487500Y-14940000D03*
X37987500Y-15440000D03*
X38487500Y-15440000D03*
X38987500Y-15440000D03*
X39487500Y-15440000D03*
X39987500Y-15440000D03*
X40487500Y-15440000D03*
X40987500Y-15440000D03*
X41487500Y-15440000D03*
X41987500Y-15440000D03*
X42487500Y-15440000D03*
X42987500Y-15440000D03*
X43487500Y-15440000D03*
X43987500Y-15440000D03*
X44487500Y-15440000D03*
X44987500Y-15440000D03*
X45487500Y-15440000D03*
X45987500Y-15440000D03*
X46487500Y-15440000D03*
X40487500Y-15940000D03*
X40987500Y-15940000D03*
X41487500Y-15940000D03*
X41987500Y-15940000D03*
X42487500Y-15940000D03*
X42987500Y-15940000D03*
X43487500Y-15940000D03*
X43987500Y-15940000D03*
X40487500Y-16440000D03*
X40987500Y-16440000D03*
X41487500Y-16440000D03*
X41987500Y-16440000D03*
X42487500Y-16440000D03*
X42987500Y-16440000D03*
X43487500Y-16440000D03*
X43987500Y-16440000D03*
X40487500Y-16940000D03*
X40987500Y-16940000D03*
X41487500Y-16940000D03*
X41987500Y-16940000D03*
X42487500Y-16940000D03*
X42987500Y-16940000D03*
X43487500Y-16940000D03*
X43987500Y-16940000D03*
X40487500Y-17440000D03*
X40987500Y-17440000D03*
X41487500Y-17440000D03*
X41987500Y-17440000D03*
X42487500Y-17440000D03*
X42987500Y-17440000D03*
X43487500Y-17440000D03*
X43987500Y-17440000D03*
X40487500Y-17940000D03*
X40987500Y-17940000D03*
X41487500Y-17940000D03*
X41987500Y-17940000D03*
X42487500Y-17940000D03*
X42987500Y-17940000D03*
X43487500Y-17940000D03*
X43987500Y-17940000D03*
%TD*%
D28*
%TO.C,U9*%
X25112500Y-30170000D03*
X25112500Y-30570000D03*
X25112500Y-30970000D03*
X25112500Y-31370000D03*
X25112500Y-31770000D03*
X25112500Y-32170000D03*
X25112500Y-32570000D03*
X25112500Y-32970000D03*
X25112500Y-33370000D03*
X25112500Y-33770000D03*
D29*
X25662500Y-34320000D03*
X26062500Y-34320000D03*
X26462500Y-34320000D03*
X26862500Y-34320000D03*
X27262500Y-34320000D03*
X27662500Y-34320000D03*
X28062500Y-34320000D03*
X28462500Y-34320000D03*
X28862500Y-34320000D03*
X29262500Y-34320000D03*
D28*
X29812500Y-33770000D03*
X29812500Y-33370000D03*
X29812500Y-32970000D03*
X29812500Y-32570000D03*
X29812500Y-32170000D03*
X29812500Y-31770000D03*
X29812500Y-31370000D03*
X29812500Y-30970000D03*
X29812500Y-30570000D03*
X29812500Y-30170000D03*
D29*
X29262500Y-29620000D03*
X28862500Y-29620000D03*
X28462500Y-29620000D03*
X28062500Y-29620000D03*
X27662500Y-29620000D03*
X27262500Y-29620000D03*
X26862500Y-29620000D03*
X26462500Y-29620000D03*
X26062500Y-29620000D03*
X25662500Y-29620000D03*
D12*
X27462500Y-31970000D03*
%TD*%
D30*
%TO.C,R1*%
X11927500Y-86060000D03*
X12947500Y-86060000D03*
%TD*%
%TO.C,R2*%
X26952500Y-86060000D03*
X27972500Y-86060000D03*
%TD*%
%TO.C,R3*%
X41977500Y-86060000D03*
X42997500Y-86060000D03*
%TD*%
%TO.C,R4*%
X57002500Y-86060000D03*
X58022500Y-86060000D03*
%TD*%
M02*
