%TF.GenerationSoftware,KiCad,Pcbnew,10.0.5*%
%TF.CreationDate,2026-08-03T20:27:53-07:00*%
%TF.ProjectId,palpod-extender-sbc-routed,70616c70-6f64-42d6-9578-74656e646572,A0*%
%TF.SameCoordinates,Original*%
%TF.FileFunction,Other,Comment*%
%FSLAX46Y46*%
G04 Gerber Fmt 4.6, Leading zero omitted, Abs format (unit mm)*
G04 Created by KiCad (PCBNEW 10.0.5) date 2026-08-03 20:27:53*
%MOMM*%
%LPD*%
G01*
G04 APERTURE LIST*
%ADD10C,0.200000*%
G04 APERTURE END LIST*
D10*
X6203006Y-106561028D02*
X5488720Y-106561028D01*
X5488720Y-106561028D02*
X5488720Y-105061028D01*
X6703006Y-106561028D02*
X6703006Y-105061028D01*
X6703006Y-105061028D02*
X7274435Y-105061028D01*
X7274435Y-105061028D02*
X7417292Y-105132457D01*
X7417292Y-105132457D02*
X7488721Y-105203885D01*
X7488721Y-105203885D02*
X7560149Y-105346742D01*
X7560149Y-105346742D02*
X7560149Y-105561028D01*
X7560149Y-105561028D02*
X7488721Y-105703885D01*
X7488721Y-105703885D02*
X7417292Y-105775314D01*
X7417292Y-105775314D02*
X7274435Y-105846742D01*
X7274435Y-105846742D02*
X6703006Y-105846742D01*
X8203006Y-106561028D02*
X8203006Y-105061028D01*
X8203006Y-105061028D02*
X8560149Y-105061028D01*
X8560149Y-105061028D02*
X8774435Y-105132457D01*
X8774435Y-105132457D02*
X8917292Y-105275314D01*
X8917292Y-105275314D02*
X8988721Y-105418171D01*
X8988721Y-105418171D02*
X9060149Y-105703885D01*
X9060149Y-105703885D02*
X9060149Y-105918171D01*
X9060149Y-105918171D02*
X8988721Y-106203885D01*
X8988721Y-106203885D02*
X8917292Y-106346742D01*
X8917292Y-106346742D02*
X8774435Y-106489600D01*
X8774435Y-106489600D02*
X8560149Y-106561028D01*
X8560149Y-106561028D02*
X8203006Y-106561028D01*
X9703006Y-106561028D02*
X9703006Y-105061028D01*
X9703006Y-105061028D02*
X10060149Y-105061028D01*
X10060149Y-105061028D02*
X10274435Y-105132457D01*
X10274435Y-105132457D02*
X10417292Y-105275314D01*
X10417292Y-105275314D02*
X10488721Y-105418171D01*
X10488721Y-105418171D02*
X10560149Y-105703885D01*
X10560149Y-105703885D02*
X10560149Y-105918171D01*
X10560149Y-105918171D02*
X10488721Y-106203885D01*
X10488721Y-106203885D02*
X10417292Y-106346742D01*
X10417292Y-106346742D02*
X10274435Y-106489600D01*
X10274435Y-106489600D02*
X10060149Y-106561028D01*
X10060149Y-106561028D02*
X9703006Y-106561028D01*
X12060149Y-106561028D02*
X11560149Y-105846742D01*
X11203006Y-106561028D02*
X11203006Y-105061028D01*
X11203006Y-105061028D02*
X11774435Y-105061028D01*
X11774435Y-105061028D02*
X11917292Y-105132457D01*
X11917292Y-105132457D02*
X11988721Y-105203885D01*
X11988721Y-105203885D02*
X12060149Y-105346742D01*
X12060149Y-105346742D02*
X12060149Y-105561028D01*
X12060149Y-105561028D02*
X11988721Y-105703885D01*
X11988721Y-105703885D02*
X11917292Y-105775314D01*
X11917292Y-105775314D02*
X11774435Y-105846742D01*
X11774435Y-105846742D02*
X11203006Y-105846742D01*
X13417292Y-105061028D02*
X12703006Y-105061028D01*
X12703006Y-105061028D02*
X12631578Y-105775314D01*
X12631578Y-105775314D02*
X12703006Y-105703885D01*
X12703006Y-105703885D02*
X12845864Y-105632457D01*
X12845864Y-105632457D02*
X13203006Y-105632457D01*
X13203006Y-105632457D02*
X13345864Y-105703885D01*
X13345864Y-105703885D02*
X13417292Y-105775314D01*
X13417292Y-105775314D02*
X13488721Y-105918171D01*
X13488721Y-105918171D02*
X13488721Y-106275314D01*
X13488721Y-106275314D02*
X13417292Y-106418171D01*
X13417292Y-106418171D02*
X13345864Y-106489600D01*
X13345864Y-106489600D02*
X13203006Y-106561028D01*
X13203006Y-106561028D02*
X12845864Y-106561028D01*
X12845864Y-106561028D02*
X12703006Y-106489600D01*
X12703006Y-106489600D02*
X12631578Y-106418171D01*
X15060149Y-105561028D02*
X15631577Y-105561028D01*
X15274434Y-106561028D02*
X15274434Y-105275314D01*
X15274434Y-105275314D02*
X15345863Y-105132457D01*
X15345863Y-105132457D02*
X15488720Y-105061028D01*
X15488720Y-105061028D02*
X15631577Y-105061028D01*
X16345863Y-106561028D02*
X16203006Y-106489600D01*
X16203006Y-106489600D02*
X16131577Y-106346742D01*
X16131577Y-106346742D02*
X16131577Y-105061028D01*
X16774434Y-105561028D02*
X17131577Y-106561028D01*
X17488720Y-105561028D02*
X17131577Y-106561028D01*
X17131577Y-106561028D02*
X16988720Y-106918171D01*
X16988720Y-106918171D02*
X16917291Y-106989600D01*
X16917291Y-106989600D02*
X16774434Y-107061028D01*
X18060148Y-105989600D02*
X19203006Y-105989600D01*
X19917291Y-106561028D02*
X19917291Y-105061028D01*
X19917291Y-105632457D02*
X20060149Y-105561028D01*
X20060149Y-105561028D02*
X20345863Y-105561028D01*
X20345863Y-105561028D02*
X20488720Y-105632457D01*
X20488720Y-105632457D02*
X20560149Y-105703885D01*
X20560149Y-105703885D02*
X20631577Y-105846742D01*
X20631577Y-105846742D02*
X20631577Y-106275314D01*
X20631577Y-106275314D02*
X20560149Y-106418171D01*
X20560149Y-106418171D02*
X20488720Y-106489600D01*
X20488720Y-106489600D02*
X20345863Y-106561028D01*
X20345863Y-106561028D02*
X20060149Y-106561028D01*
X20060149Y-106561028D02*
X19917291Y-106489600D01*
X21131577Y-105561028D02*
X21488720Y-106561028D01*
X21845863Y-105561028D02*
X21488720Y-106561028D01*
X21488720Y-106561028D02*
X21345863Y-106918171D01*
X21345863Y-106918171D02*
X21274434Y-106989600D01*
X21274434Y-106989600D02*
X21131577Y-107061028D01*
X22488720Y-106489600D02*
X22488720Y-106561028D01*
X22488720Y-106561028D02*
X22417291Y-106703885D01*
X22417291Y-106703885D02*
X22345863Y-106775314D01*
X24274434Y-106561028D02*
X24274434Y-105061028D01*
X24274434Y-105775314D02*
X25131577Y-105775314D01*
X25131577Y-106561028D02*
X25131577Y-105061028D01*
X25845863Y-106561028D02*
X25845863Y-105061028D01*
X25845863Y-105061028D02*
X26203006Y-105061028D01*
X26203006Y-105061028D02*
X26417292Y-105132457D01*
X26417292Y-105132457D02*
X26560149Y-105275314D01*
X26560149Y-105275314D02*
X26631578Y-105418171D01*
X26631578Y-105418171D02*
X26703006Y-105703885D01*
X26703006Y-105703885D02*
X26703006Y-105918171D01*
X26703006Y-105918171D02*
X26631578Y-106203885D01*
X26631578Y-106203885D02*
X26560149Y-106346742D01*
X26560149Y-106346742D02*
X26417292Y-106489600D01*
X26417292Y-106489600D02*
X26203006Y-106561028D01*
X26203006Y-106561028D02*
X25845863Y-106561028D01*
X27345863Y-106561028D02*
X27345863Y-105061028D01*
X27345863Y-105061028D02*
X27845863Y-106132457D01*
X27845863Y-106132457D02*
X28345863Y-105061028D01*
X28345863Y-105061028D02*
X28345863Y-106561028D01*
X29060149Y-106561028D02*
X29060149Y-105061028D01*
X31703007Y-106561028D02*
X30845864Y-106561028D01*
X31274435Y-106561028D02*
X31274435Y-105061028D01*
X31274435Y-105061028D02*
X31131578Y-105275314D01*
X31131578Y-105275314D02*
X30988721Y-105418171D01*
X30988721Y-105418171D02*
X30845864Y-105489600D01*
X32631578Y-105061028D02*
X32774435Y-105061028D01*
X32774435Y-105061028D02*
X32917292Y-105132457D01*
X32917292Y-105132457D02*
X32988721Y-105203885D01*
X32988721Y-105203885D02*
X33060149Y-105346742D01*
X33060149Y-105346742D02*
X33131578Y-105632457D01*
X33131578Y-105632457D02*
X33131578Y-105989600D01*
X33131578Y-105989600D02*
X33060149Y-106275314D01*
X33060149Y-106275314D02*
X32988721Y-106418171D01*
X32988721Y-106418171D02*
X32917292Y-106489600D01*
X32917292Y-106489600D02*
X32774435Y-106561028D01*
X32774435Y-106561028D02*
X32631578Y-106561028D01*
X32631578Y-106561028D02*
X32488721Y-106489600D01*
X32488721Y-106489600D02*
X32417292Y-106418171D01*
X32417292Y-106418171D02*
X32345863Y-106275314D01*
X32345863Y-106275314D02*
X32274435Y-105989600D01*
X32274435Y-105989600D02*
X32274435Y-105632457D01*
X32274435Y-105632457D02*
X32345863Y-105346742D01*
X32345863Y-105346742D02*
X32417292Y-105203885D01*
X32417292Y-105203885D02*
X32488721Y-105132457D01*
X32488721Y-105132457D02*
X32631578Y-105061028D01*
X34060149Y-105061028D02*
X34203006Y-105061028D01*
X34203006Y-105061028D02*
X34345863Y-105132457D01*
X34345863Y-105132457D02*
X34417292Y-105203885D01*
X34417292Y-105203885D02*
X34488720Y-105346742D01*
X34488720Y-105346742D02*
X34560149Y-105632457D01*
X34560149Y-105632457D02*
X34560149Y-105989600D01*
X34560149Y-105989600D02*
X34488720Y-106275314D01*
X34488720Y-106275314D02*
X34417292Y-106418171D01*
X34417292Y-106418171D02*
X34345863Y-106489600D01*
X34345863Y-106489600D02*
X34203006Y-106561028D01*
X34203006Y-106561028D02*
X34060149Y-106561028D01*
X34060149Y-106561028D02*
X33917292Y-106489600D01*
X33917292Y-106489600D02*
X33845863Y-106418171D01*
X33845863Y-106418171D02*
X33774434Y-106275314D01*
X33774434Y-106275314D02*
X33703006Y-105989600D01*
X33703006Y-105989600D02*
X33703006Y-105632457D01*
X33703006Y-105632457D02*
X33774434Y-105346742D01*
X33774434Y-105346742D02*
X33845863Y-105203885D01*
X33845863Y-105203885D02*
X33917292Y-105132457D01*
X33917292Y-105132457D02*
X34060149Y-105061028D01*
X36060148Y-106561028D02*
X35560148Y-105846742D01*
X35203005Y-106561028D02*
X35203005Y-105061028D01*
X35203005Y-105061028D02*
X35774434Y-105061028D01*
X35774434Y-105061028D02*
X35917291Y-105132457D01*
X35917291Y-105132457D02*
X35988720Y-105203885D01*
X35988720Y-105203885D02*
X36060148Y-105346742D01*
X36060148Y-105346742D02*
X36060148Y-105561028D01*
X36060148Y-105561028D02*
X35988720Y-105703885D01*
X35988720Y-105703885D02*
X35917291Y-105775314D01*
X35917291Y-105775314D02*
X35774434Y-105846742D01*
X35774434Y-105846742D02*
X35203005Y-105846742D01*
X38488720Y-106561028D02*
X38488720Y-105061028D01*
X38488720Y-106489600D02*
X38345862Y-106561028D01*
X38345862Y-106561028D02*
X38060148Y-106561028D01*
X38060148Y-106561028D02*
X37917291Y-106489600D01*
X37917291Y-106489600D02*
X37845862Y-106418171D01*
X37845862Y-106418171D02*
X37774434Y-106275314D01*
X37774434Y-106275314D02*
X37774434Y-105846742D01*
X37774434Y-105846742D02*
X37845862Y-105703885D01*
X37845862Y-105703885D02*
X37917291Y-105632457D01*
X37917291Y-105632457D02*
X38060148Y-105561028D01*
X38060148Y-105561028D02*
X38345862Y-105561028D01*
X38345862Y-105561028D02*
X38488720Y-105632457D01*
X39203005Y-106561028D02*
X39203005Y-105561028D01*
X39203005Y-105061028D02*
X39131577Y-105132457D01*
X39131577Y-105132457D02*
X39203005Y-105203885D01*
X39203005Y-105203885D02*
X39274434Y-105132457D01*
X39274434Y-105132457D02*
X39203005Y-105061028D01*
X39203005Y-105061028D02*
X39203005Y-105203885D01*
X39703006Y-105561028D02*
X40274434Y-105561028D01*
X39917291Y-106561028D02*
X39917291Y-105275314D01*
X39917291Y-105275314D02*
X39988720Y-105132457D01*
X39988720Y-105132457D02*
X40131577Y-105061028D01*
X40131577Y-105061028D02*
X40274434Y-105061028D01*
X40560149Y-105561028D02*
X41131577Y-105561028D01*
X40774434Y-106561028D02*
X40774434Y-105275314D01*
X40774434Y-105275314D02*
X40845863Y-105132457D01*
X40845863Y-105132457D02*
X40988720Y-105061028D01*
X40988720Y-105061028D02*
X41131577Y-105061028D01*
X41703006Y-106489600D02*
X41703006Y-106561028D01*
X41703006Y-106561028D02*
X41631577Y-106703885D01*
X41631577Y-106703885D02*
X41560149Y-106775314D01*
X43488720Y-105061028D02*
X43488720Y-106275314D01*
X43488720Y-106275314D02*
X43560149Y-106418171D01*
X43560149Y-106418171D02*
X43631578Y-106489600D01*
X43631578Y-106489600D02*
X43774435Y-106561028D01*
X43774435Y-106561028D02*
X44060149Y-106561028D01*
X44060149Y-106561028D02*
X44203006Y-106489600D01*
X44203006Y-106489600D02*
X44274435Y-106418171D01*
X44274435Y-106418171D02*
X44345863Y-106275314D01*
X44345863Y-106275314D02*
X44345863Y-105061028D01*
X44988721Y-106489600D02*
X45203007Y-106561028D01*
X45203007Y-106561028D02*
X45560149Y-106561028D01*
X45560149Y-106561028D02*
X45703007Y-106489600D01*
X45703007Y-106489600D02*
X45774435Y-106418171D01*
X45774435Y-106418171D02*
X45845864Y-106275314D01*
X45845864Y-106275314D02*
X45845864Y-106132457D01*
X45845864Y-106132457D02*
X45774435Y-105989600D01*
X45774435Y-105989600D02*
X45703007Y-105918171D01*
X45703007Y-105918171D02*
X45560149Y-105846742D01*
X45560149Y-105846742D02*
X45274435Y-105775314D01*
X45274435Y-105775314D02*
X45131578Y-105703885D01*
X45131578Y-105703885D02*
X45060149Y-105632457D01*
X45060149Y-105632457D02*
X44988721Y-105489600D01*
X44988721Y-105489600D02*
X44988721Y-105346742D01*
X44988721Y-105346742D02*
X45060149Y-105203885D01*
X45060149Y-105203885D02*
X45131578Y-105132457D01*
X45131578Y-105132457D02*
X45274435Y-105061028D01*
X45274435Y-105061028D02*
X45631578Y-105061028D01*
X45631578Y-105061028D02*
X45845864Y-105132457D01*
X46988720Y-105775314D02*
X47203006Y-105846742D01*
X47203006Y-105846742D02*
X47274435Y-105918171D01*
X47274435Y-105918171D02*
X47345863Y-106061028D01*
X47345863Y-106061028D02*
X47345863Y-106275314D01*
X47345863Y-106275314D02*
X47274435Y-106418171D01*
X47274435Y-106418171D02*
X47203006Y-106489600D01*
X47203006Y-106489600D02*
X47060149Y-106561028D01*
X47060149Y-106561028D02*
X46488720Y-106561028D01*
X46488720Y-106561028D02*
X46488720Y-105061028D01*
X46488720Y-105061028D02*
X46988720Y-105061028D01*
X46988720Y-105061028D02*
X47131578Y-105132457D01*
X47131578Y-105132457D02*
X47203006Y-105203885D01*
X47203006Y-105203885D02*
X47274435Y-105346742D01*
X47274435Y-105346742D02*
X47274435Y-105489600D01*
X47274435Y-105489600D02*
X47203006Y-105632457D01*
X47203006Y-105632457D02*
X47131578Y-105703885D01*
X47131578Y-105703885D02*
X46988720Y-105775314D01*
X46988720Y-105775314D02*
X46488720Y-105775314D01*
X49203006Y-106561028D02*
X49488720Y-106561028D01*
X49488720Y-106561028D02*
X49631577Y-106489600D01*
X49631577Y-106489600D02*
X49703006Y-106418171D01*
X49703006Y-106418171D02*
X49845863Y-106203885D01*
X49845863Y-106203885D02*
X49917292Y-105918171D01*
X49917292Y-105918171D02*
X49917292Y-105346742D01*
X49917292Y-105346742D02*
X49845863Y-105203885D01*
X49845863Y-105203885D02*
X49774435Y-105132457D01*
X49774435Y-105132457D02*
X49631577Y-105061028D01*
X49631577Y-105061028D02*
X49345863Y-105061028D01*
X49345863Y-105061028D02*
X49203006Y-105132457D01*
X49203006Y-105132457D02*
X49131577Y-105203885D01*
X49131577Y-105203885D02*
X49060149Y-105346742D01*
X49060149Y-105346742D02*
X49060149Y-105703885D01*
X49060149Y-105703885D02*
X49131577Y-105846742D01*
X49131577Y-105846742D02*
X49203006Y-105918171D01*
X49203006Y-105918171D02*
X49345863Y-105989600D01*
X49345863Y-105989600D02*
X49631577Y-105989600D01*
X49631577Y-105989600D02*
X49774435Y-105918171D01*
X49774435Y-105918171D02*
X49845863Y-105846742D01*
X49845863Y-105846742D02*
X49917292Y-105703885D01*
X50845863Y-105061028D02*
X50988720Y-105061028D01*
X50988720Y-105061028D02*
X51131577Y-105132457D01*
X51131577Y-105132457D02*
X51203006Y-105203885D01*
X51203006Y-105203885D02*
X51274434Y-105346742D01*
X51274434Y-105346742D02*
X51345863Y-105632457D01*
X51345863Y-105632457D02*
X51345863Y-105989600D01*
X51345863Y-105989600D02*
X51274434Y-106275314D01*
X51274434Y-106275314D02*
X51203006Y-106418171D01*
X51203006Y-106418171D02*
X51131577Y-106489600D01*
X51131577Y-106489600D02*
X50988720Y-106561028D01*
X50988720Y-106561028D02*
X50845863Y-106561028D01*
X50845863Y-106561028D02*
X50703006Y-106489600D01*
X50703006Y-106489600D02*
X50631577Y-106418171D01*
X50631577Y-106418171D02*
X50560148Y-106275314D01*
X50560148Y-106275314D02*
X50488720Y-105989600D01*
X50488720Y-105989600D02*
X50488720Y-105632457D01*
X50488720Y-105632457D02*
X50560148Y-105346742D01*
X50560148Y-105346742D02*
X50631577Y-105203885D01*
X50631577Y-105203885D02*
X50703006Y-105132457D01*
X50703006Y-105132457D02*
X50845863Y-105061028D01*
X52845862Y-106561028D02*
X52345862Y-105846742D01*
X51988719Y-106561028D02*
X51988719Y-105061028D01*
X51988719Y-105061028D02*
X52560148Y-105061028D01*
X52560148Y-105061028D02*
X52703005Y-105132457D01*
X52703005Y-105132457D02*
X52774434Y-105203885D01*
X52774434Y-105203885D02*
X52845862Y-105346742D01*
X52845862Y-105346742D02*
X52845862Y-105561028D01*
X52845862Y-105561028D02*
X52774434Y-105703885D01*
X52774434Y-105703885D02*
X52703005Y-105775314D01*
X52703005Y-105775314D02*
X52560148Y-105846742D01*
X52560148Y-105846742D02*
X51988719Y-105846742D01*
X55274434Y-106561028D02*
X55274434Y-105061028D01*
X55274434Y-106489600D02*
X55131576Y-106561028D01*
X55131576Y-106561028D02*
X54845862Y-106561028D01*
X54845862Y-106561028D02*
X54703005Y-106489600D01*
X54703005Y-106489600D02*
X54631576Y-106418171D01*
X54631576Y-106418171D02*
X54560148Y-106275314D01*
X54560148Y-106275314D02*
X54560148Y-105846742D01*
X54560148Y-105846742D02*
X54631576Y-105703885D01*
X54631576Y-105703885D02*
X54703005Y-105632457D01*
X54703005Y-105632457D02*
X54845862Y-105561028D01*
X54845862Y-105561028D02*
X55131576Y-105561028D01*
X55131576Y-105561028D02*
X55274434Y-105632457D01*
X55988719Y-106561028D02*
X55988719Y-105561028D01*
X55988719Y-105061028D02*
X55917291Y-105132457D01*
X55917291Y-105132457D02*
X55988719Y-105203885D01*
X55988719Y-105203885D02*
X56060148Y-105132457D01*
X56060148Y-105132457D02*
X55988719Y-105061028D01*
X55988719Y-105061028D02*
X55988719Y-105203885D01*
X56488720Y-105561028D02*
X57060148Y-105561028D01*
X56703005Y-106561028D02*
X56703005Y-105275314D01*
X56703005Y-105275314D02*
X56774434Y-105132457D01*
X56774434Y-105132457D02*
X56917291Y-105061028D01*
X56917291Y-105061028D02*
X57060148Y-105061028D01*
X57345863Y-105561028D02*
X57917291Y-105561028D01*
X57560148Y-106561028D02*
X57560148Y-105275314D01*
X57560148Y-105275314D02*
X57631577Y-105132457D01*
X57631577Y-105132457D02*
X57774434Y-105061028D01*
X57774434Y-105061028D02*
X57917291Y-105061028D01*
X59560148Y-105989600D02*
X60703006Y-105989600D01*
X62774434Y-106561028D02*
X62631577Y-106489600D01*
X62631577Y-106489600D02*
X62560148Y-106346742D01*
X62560148Y-106346742D02*
X62560148Y-105061028D01*
X63917291Y-106489600D02*
X63774434Y-106561028D01*
X63774434Y-106561028D02*
X63488720Y-106561028D01*
X63488720Y-106561028D02*
X63345862Y-106489600D01*
X63345862Y-106489600D02*
X63274434Y-106346742D01*
X63274434Y-106346742D02*
X63274434Y-105775314D01*
X63274434Y-105775314D02*
X63345862Y-105632457D01*
X63345862Y-105632457D02*
X63488720Y-105561028D01*
X63488720Y-105561028D02*
X63774434Y-105561028D01*
X63774434Y-105561028D02*
X63917291Y-105632457D01*
X63917291Y-105632457D02*
X63988720Y-105775314D01*
X63988720Y-105775314D02*
X63988720Y-105918171D01*
X63988720Y-105918171D02*
X63274434Y-106061028D01*
X64631576Y-105561028D02*
X64631576Y-106561028D01*
X64631576Y-105703885D02*
X64703005Y-105632457D01*
X64703005Y-105632457D02*
X64845862Y-105561028D01*
X64845862Y-105561028D02*
X65060148Y-105561028D01*
X65060148Y-105561028D02*
X65203005Y-105632457D01*
X65203005Y-105632457D02*
X65274434Y-105775314D01*
X65274434Y-105775314D02*
X65274434Y-106561028D01*
X66631577Y-105561028D02*
X66631577Y-106775314D01*
X66631577Y-106775314D02*
X66560148Y-106918171D01*
X66560148Y-106918171D02*
X66488719Y-106989600D01*
X66488719Y-106989600D02*
X66345862Y-107061028D01*
X66345862Y-107061028D02*
X66131577Y-107061028D01*
X66131577Y-107061028D02*
X65988719Y-106989600D01*
X66631577Y-106489600D02*
X66488719Y-106561028D01*
X66488719Y-106561028D02*
X66203005Y-106561028D01*
X66203005Y-106561028D02*
X66060148Y-106489600D01*
X66060148Y-106489600D02*
X65988719Y-106418171D01*
X65988719Y-106418171D02*
X65917291Y-106275314D01*
X65917291Y-106275314D02*
X65917291Y-105846742D01*
X65917291Y-105846742D02*
X65988719Y-105703885D01*
X65988719Y-105703885D02*
X66060148Y-105632457D01*
X66060148Y-105632457D02*
X66203005Y-105561028D01*
X66203005Y-105561028D02*
X66488719Y-105561028D01*
X66488719Y-105561028D02*
X66631577Y-105632457D01*
X67131577Y-105561028D02*
X67703005Y-105561028D01*
X67345862Y-105061028D02*
X67345862Y-106346742D01*
X67345862Y-106346742D02*
X67417291Y-106489600D01*
X67417291Y-106489600D02*
X67560148Y-106561028D01*
X67560148Y-106561028D02*
X67703005Y-106561028D01*
X68203005Y-106561028D02*
X68203005Y-105061028D01*
X68845863Y-106561028D02*
X68845863Y-105775314D01*
X68845863Y-105775314D02*
X68774434Y-105632457D01*
X68774434Y-105632457D02*
X68631577Y-105561028D01*
X68631577Y-105561028D02*
X68417291Y-105561028D01*
X68417291Y-105561028D02*
X68274434Y-105632457D01*
X68274434Y-105632457D02*
X68203005Y-105703885D01*
X69560148Y-105989600D02*
X70703006Y-105989600D01*
X71417291Y-106561028D02*
X71417291Y-105561028D01*
X71417291Y-105703885D02*
X71488720Y-105632457D01*
X71488720Y-105632457D02*
X71631577Y-105561028D01*
X71631577Y-105561028D02*
X71845863Y-105561028D01*
X71845863Y-105561028D02*
X71988720Y-105632457D01*
X71988720Y-105632457D02*
X72060149Y-105775314D01*
X72060149Y-105775314D02*
X72060149Y-106561028D01*
X72060149Y-105775314D02*
X72131577Y-105632457D01*
X72131577Y-105632457D02*
X72274434Y-105561028D01*
X72274434Y-105561028D02*
X72488720Y-105561028D01*
X72488720Y-105561028D02*
X72631577Y-105632457D01*
X72631577Y-105632457D02*
X72703006Y-105775314D01*
X72703006Y-105775314D02*
X72703006Y-106561028D01*
X74060149Y-106561028D02*
X74060149Y-105775314D01*
X74060149Y-105775314D02*
X73988720Y-105632457D01*
X73988720Y-105632457D02*
X73845863Y-105561028D01*
X73845863Y-105561028D02*
X73560149Y-105561028D01*
X73560149Y-105561028D02*
X73417291Y-105632457D01*
X74060149Y-106489600D02*
X73917291Y-106561028D01*
X73917291Y-106561028D02*
X73560149Y-106561028D01*
X73560149Y-106561028D02*
X73417291Y-106489600D01*
X73417291Y-106489600D02*
X73345863Y-106346742D01*
X73345863Y-106346742D02*
X73345863Y-106203885D01*
X73345863Y-106203885D02*
X73417291Y-106061028D01*
X73417291Y-106061028D02*
X73560149Y-105989600D01*
X73560149Y-105989600D02*
X73917291Y-105989600D01*
X73917291Y-105989600D02*
X74060149Y-105918171D01*
X74560149Y-105561028D02*
X75131577Y-105561028D01*
X74774434Y-105061028D02*
X74774434Y-106346742D01*
X74774434Y-106346742D02*
X74845863Y-106489600D01*
X74845863Y-106489600D02*
X74988720Y-106561028D01*
X74988720Y-106561028D02*
X75131577Y-106561028D01*
X76274435Y-106489600D02*
X76131577Y-106561028D01*
X76131577Y-106561028D02*
X75845863Y-106561028D01*
X75845863Y-106561028D02*
X75703006Y-106489600D01*
X75703006Y-106489600D02*
X75631577Y-106418171D01*
X75631577Y-106418171D02*
X75560149Y-106275314D01*
X75560149Y-106275314D02*
X75560149Y-105846742D01*
X75560149Y-105846742D02*
X75631577Y-105703885D01*
X75631577Y-105703885D02*
X75703006Y-105632457D01*
X75703006Y-105632457D02*
X75845863Y-105561028D01*
X75845863Y-105561028D02*
X76131577Y-105561028D01*
X76131577Y-105561028D02*
X76274435Y-105632457D01*
X76917291Y-106561028D02*
X76917291Y-105061028D01*
X77560149Y-106561028D02*
X77560149Y-105775314D01*
X77560149Y-105775314D02*
X77488720Y-105632457D01*
X77488720Y-105632457D02*
X77345863Y-105561028D01*
X77345863Y-105561028D02*
X77131577Y-105561028D01*
X77131577Y-105561028D02*
X76988720Y-105632457D01*
X76988720Y-105632457D02*
X76917291Y-105703885D01*
X79417291Y-105561028D02*
X79417291Y-107061028D01*
X79417291Y-105632457D02*
X79560149Y-105561028D01*
X79560149Y-105561028D02*
X79845863Y-105561028D01*
X79845863Y-105561028D02*
X79988720Y-105632457D01*
X79988720Y-105632457D02*
X80060149Y-105703885D01*
X80060149Y-105703885D02*
X80131577Y-105846742D01*
X80131577Y-105846742D02*
X80131577Y-106275314D01*
X80131577Y-106275314D02*
X80060149Y-106418171D01*
X80060149Y-106418171D02*
X79988720Y-106489600D01*
X79988720Y-106489600D02*
X79845863Y-106561028D01*
X79845863Y-106561028D02*
X79560149Y-106561028D01*
X79560149Y-106561028D02*
X79417291Y-106489600D01*
X81345863Y-106489600D02*
X81203006Y-106561028D01*
X81203006Y-106561028D02*
X80917292Y-106561028D01*
X80917292Y-106561028D02*
X80774434Y-106489600D01*
X80774434Y-106489600D02*
X80703006Y-106346742D01*
X80703006Y-106346742D02*
X80703006Y-105775314D01*
X80703006Y-105775314D02*
X80774434Y-105632457D01*
X80774434Y-105632457D02*
X80917292Y-105561028D01*
X80917292Y-105561028D02*
X81203006Y-105561028D01*
X81203006Y-105561028D02*
X81345863Y-105632457D01*
X81345863Y-105632457D02*
X81417292Y-105775314D01*
X81417292Y-105775314D02*
X81417292Y-105918171D01*
X81417292Y-105918171D02*
X80703006Y-106061028D01*
X82060148Y-106561028D02*
X82060148Y-105561028D01*
X82060148Y-105846742D02*
X82131577Y-105703885D01*
X82131577Y-105703885D02*
X82203006Y-105632457D01*
X82203006Y-105632457D02*
X82345863Y-105561028D01*
X82345863Y-105561028D02*
X82488720Y-105561028D01*
X84988719Y-106561028D02*
X84488719Y-105846742D01*
X84131576Y-106561028D02*
X84131576Y-105061028D01*
X84131576Y-105061028D02*
X84703005Y-105061028D01*
X84703005Y-105061028D02*
X84845862Y-105132457D01*
X84845862Y-105132457D02*
X84917291Y-105203885D01*
X84917291Y-105203885D02*
X84988719Y-105346742D01*
X84988719Y-105346742D02*
X84988719Y-105561028D01*
X84988719Y-105561028D02*
X84917291Y-105703885D01*
X84917291Y-105703885D02*
X84845862Y-105775314D01*
X84845862Y-105775314D02*
X84703005Y-105846742D01*
X84703005Y-105846742D02*
X84131576Y-105846742D01*
X85631576Y-106561028D02*
X85631576Y-105061028D01*
X86488719Y-106561028D02*
X85845862Y-105703885D01*
X86488719Y-105061028D02*
X85631576Y-105918171D01*
X86988719Y-105061028D02*
X87917291Y-105061028D01*
X87917291Y-105061028D02*
X87417291Y-105632457D01*
X87417291Y-105632457D02*
X87631576Y-105632457D01*
X87631576Y-105632457D02*
X87774434Y-105703885D01*
X87774434Y-105703885D02*
X87845862Y-105775314D01*
X87845862Y-105775314D02*
X87917291Y-105918171D01*
X87917291Y-105918171D02*
X87917291Y-106275314D01*
X87917291Y-106275314D02*
X87845862Y-106418171D01*
X87845862Y-106418171D02*
X87774434Y-106489600D01*
X87774434Y-106489600D02*
X87631576Y-106561028D01*
X87631576Y-106561028D02*
X87203005Y-106561028D01*
X87203005Y-106561028D02*
X87060148Y-106489600D01*
X87060148Y-106489600D02*
X86988719Y-106418171D01*
X89274433Y-105061028D02*
X88560147Y-105061028D01*
X88560147Y-105061028D02*
X88488719Y-105775314D01*
X88488719Y-105775314D02*
X88560147Y-105703885D01*
X88560147Y-105703885D02*
X88703005Y-105632457D01*
X88703005Y-105632457D02*
X89060147Y-105632457D01*
X89060147Y-105632457D02*
X89203005Y-105703885D01*
X89203005Y-105703885D02*
X89274433Y-105775314D01*
X89274433Y-105775314D02*
X89345862Y-105918171D01*
X89345862Y-105918171D02*
X89345862Y-106275314D01*
X89345862Y-106275314D02*
X89274433Y-106418171D01*
X89274433Y-106418171D02*
X89203005Y-106489600D01*
X89203005Y-106489600D02*
X89060147Y-106561028D01*
X89060147Y-106561028D02*
X88703005Y-106561028D01*
X88703005Y-106561028D02*
X88560147Y-106489600D01*
X88560147Y-106489600D02*
X88488719Y-106418171D01*
X90203004Y-105703885D02*
X90060147Y-105632457D01*
X90060147Y-105632457D02*
X89988718Y-105561028D01*
X89988718Y-105561028D02*
X89917290Y-105418171D01*
X89917290Y-105418171D02*
X89917290Y-105346742D01*
X89917290Y-105346742D02*
X89988718Y-105203885D01*
X89988718Y-105203885D02*
X90060147Y-105132457D01*
X90060147Y-105132457D02*
X90203004Y-105061028D01*
X90203004Y-105061028D02*
X90488718Y-105061028D01*
X90488718Y-105061028D02*
X90631576Y-105132457D01*
X90631576Y-105132457D02*
X90703004Y-105203885D01*
X90703004Y-105203885D02*
X90774433Y-105346742D01*
X90774433Y-105346742D02*
X90774433Y-105418171D01*
X90774433Y-105418171D02*
X90703004Y-105561028D01*
X90703004Y-105561028D02*
X90631576Y-105632457D01*
X90631576Y-105632457D02*
X90488718Y-105703885D01*
X90488718Y-105703885D02*
X90203004Y-105703885D01*
X90203004Y-105703885D02*
X90060147Y-105775314D01*
X90060147Y-105775314D02*
X89988718Y-105846742D01*
X89988718Y-105846742D02*
X89917290Y-105989600D01*
X89917290Y-105989600D02*
X89917290Y-106275314D01*
X89917290Y-106275314D02*
X89988718Y-106418171D01*
X89988718Y-106418171D02*
X90060147Y-106489600D01*
X90060147Y-106489600D02*
X90203004Y-106561028D01*
X90203004Y-106561028D02*
X90488718Y-106561028D01*
X90488718Y-106561028D02*
X90631576Y-106489600D01*
X90631576Y-106489600D02*
X90703004Y-106418171D01*
X90703004Y-106418171D02*
X90774433Y-106275314D01*
X90774433Y-106275314D02*
X90774433Y-105989600D01*
X90774433Y-105989600D02*
X90703004Y-105846742D01*
X90703004Y-105846742D02*
X90631576Y-105775314D01*
X90631576Y-105775314D02*
X90488718Y-105703885D01*
X91631575Y-105703885D02*
X91488718Y-105632457D01*
X91488718Y-105632457D02*
X91417289Y-105561028D01*
X91417289Y-105561028D02*
X91345861Y-105418171D01*
X91345861Y-105418171D02*
X91345861Y-105346742D01*
X91345861Y-105346742D02*
X91417289Y-105203885D01*
X91417289Y-105203885D02*
X91488718Y-105132457D01*
X91488718Y-105132457D02*
X91631575Y-105061028D01*
X91631575Y-105061028D02*
X91917289Y-105061028D01*
X91917289Y-105061028D02*
X92060147Y-105132457D01*
X92060147Y-105132457D02*
X92131575Y-105203885D01*
X92131575Y-105203885D02*
X92203004Y-105346742D01*
X92203004Y-105346742D02*
X92203004Y-105418171D01*
X92203004Y-105418171D02*
X92131575Y-105561028D01*
X92131575Y-105561028D02*
X92060147Y-105632457D01*
X92060147Y-105632457D02*
X91917289Y-105703885D01*
X91917289Y-105703885D02*
X91631575Y-105703885D01*
X91631575Y-105703885D02*
X91488718Y-105775314D01*
X91488718Y-105775314D02*
X91417289Y-105846742D01*
X91417289Y-105846742D02*
X91345861Y-105989600D01*
X91345861Y-105989600D02*
X91345861Y-106275314D01*
X91345861Y-106275314D02*
X91417289Y-106418171D01*
X91417289Y-106418171D02*
X91488718Y-106489600D01*
X91488718Y-106489600D02*
X91631575Y-106561028D01*
X91631575Y-106561028D02*
X91917289Y-106561028D01*
X91917289Y-106561028D02*
X92060147Y-106489600D01*
X92060147Y-106489600D02*
X92131575Y-106418171D01*
X92131575Y-106418171D02*
X92203004Y-106275314D01*
X92203004Y-106275314D02*
X92203004Y-105989600D01*
X92203004Y-105989600D02*
X92131575Y-105846742D01*
X92131575Y-105846742D02*
X92060147Y-105775314D01*
X92060147Y-105775314D02*
X91917289Y-105703885D01*
X93988717Y-106561028D02*
X93988717Y-105061028D01*
X94631575Y-106561028D02*
X94631575Y-105775314D01*
X94631575Y-105775314D02*
X94560146Y-105632457D01*
X94560146Y-105632457D02*
X94417289Y-105561028D01*
X94417289Y-105561028D02*
X94203003Y-105561028D01*
X94203003Y-105561028D02*
X94060146Y-105632457D01*
X94060146Y-105632457D02*
X93988717Y-105703885D01*
X95988718Y-106561028D02*
X95988718Y-105775314D01*
X95988718Y-105775314D02*
X95917289Y-105632457D01*
X95917289Y-105632457D02*
X95774432Y-105561028D01*
X95774432Y-105561028D02*
X95488718Y-105561028D01*
X95488718Y-105561028D02*
X95345860Y-105632457D01*
X95988718Y-106489600D02*
X95845860Y-106561028D01*
X95845860Y-106561028D02*
X95488718Y-106561028D01*
X95488718Y-106561028D02*
X95345860Y-106489600D01*
X95345860Y-106489600D02*
X95274432Y-106346742D01*
X95274432Y-106346742D02*
X95274432Y-106203885D01*
X95274432Y-106203885D02*
X95345860Y-106061028D01*
X95345860Y-106061028D02*
X95488718Y-105989600D01*
X95488718Y-105989600D02*
X95845860Y-105989600D01*
X95845860Y-105989600D02*
X95988718Y-105918171D01*
X96703003Y-106561028D02*
X96703003Y-105561028D01*
X96703003Y-105846742D02*
X96774432Y-105703885D01*
X96774432Y-105703885D02*
X96845861Y-105632457D01*
X96845861Y-105632457D02*
X96988718Y-105561028D01*
X96988718Y-105561028D02*
X97131575Y-105561028D01*
X98274432Y-106561028D02*
X98274432Y-105061028D01*
X98274432Y-106489600D02*
X98131574Y-106561028D01*
X98131574Y-106561028D02*
X97845860Y-106561028D01*
X97845860Y-106561028D02*
X97703003Y-106489600D01*
X97703003Y-106489600D02*
X97631574Y-106418171D01*
X97631574Y-106418171D02*
X97560146Y-106275314D01*
X97560146Y-106275314D02*
X97560146Y-105846742D01*
X97560146Y-105846742D02*
X97631574Y-105703885D01*
X97631574Y-105703885D02*
X97703003Y-105632457D01*
X97703003Y-105632457D02*
X97845860Y-105561028D01*
X97845860Y-105561028D02*
X98131574Y-105561028D01*
X98131574Y-105561028D02*
X98274432Y-105632457D01*
X98845860Y-105561028D02*
X99131575Y-106561028D01*
X99131575Y-106561028D02*
X99417289Y-105846742D01*
X99417289Y-105846742D02*
X99703003Y-106561028D01*
X99703003Y-106561028D02*
X99988717Y-105561028D01*
X101203004Y-106561028D02*
X101203004Y-105775314D01*
X101203004Y-105775314D02*
X101131575Y-105632457D01*
X101131575Y-105632457D02*
X100988718Y-105561028D01*
X100988718Y-105561028D02*
X100703004Y-105561028D01*
X100703004Y-105561028D02*
X100560146Y-105632457D01*
X101203004Y-106489600D02*
X101060146Y-106561028D01*
X101060146Y-106561028D02*
X100703004Y-106561028D01*
X100703004Y-106561028D02*
X100560146Y-106489600D01*
X100560146Y-106489600D02*
X100488718Y-106346742D01*
X100488718Y-106346742D02*
X100488718Y-106203885D01*
X100488718Y-106203885D02*
X100560146Y-106061028D01*
X100560146Y-106061028D02*
X100703004Y-105989600D01*
X100703004Y-105989600D02*
X101060146Y-105989600D01*
X101060146Y-105989600D02*
X101203004Y-105918171D01*
X101917289Y-106561028D02*
X101917289Y-105561028D01*
X101917289Y-105846742D02*
X101988718Y-105703885D01*
X101988718Y-105703885D02*
X102060147Y-105632457D01*
X102060147Y-105632457D02*
X102203004Y-105561028D01*
X102203004Y-105561028D02*
X102345861Y-105561028D01*
X103417289Y-106489600D02*
X103274432Y-106561028D01*
X103274432Y-106561028D02*
X102988718Y-106561028D01*
X102988718Y-106561028D02*
X102845860Y-106489600D01*
X102845860Y-106489600D02*
X102774432Y-106346742D01*
X102774432Y-106346742D02*
X102774432Y-105775314D01*
X102774432Y-105775314D02*
X102845860Y-105632457D01*
X102845860Y-105632457D02*
X102988718Y-105561028D01*
X102988718Y-105561028D02*
X103274432Y-105561028D01*
X103274432Y-105561028D02*
X103417289Y-105632457D01*
X103417289Y-105632457D02*
X103488718Y-105775314D01*
X103488718Y-105775314D02*
X103488718Y-105918171D01*
X103488718Y-105918171D02*
X102774432Y-106061028D01*
X105917289Y-105561028D02*
X105917289Y-106775314D01*
X105917289Y-106775314D02*
X105845860Y-106918171D01*
X105845860Y-106918171D02*
X105774431Y-106989600D01*
X105774431Y-106989600D02*
X105631574Y-107061028D01*
X105631574Y-107061028D02*
X105417289Y-107061028D01*
X105417289Y-107061028D02*
X105274431Y-106989600D01*
X105917289Y-106489600D02*
X105774431Y-106561028D01*
X105774431Y-106561028D02*
X105488717Y-106561028D01*
X105488717Y-106561028D02*
X105345860Y-106489600D01*
X105345860Y-106489600D02*
X105274431Y-106418171D01*
X105274431Y-106418171D02*
X105203003Y-106275314D01*
X105203003Y-106275314D02*
X105203003Y-105846742D01*
X105203003Y-105846742D02*
X105274431Y-105703885D01*
X105274431Y-105703885D02*
X105345860Y-105632457D01*
X105345860Y-105632457D02*
X105488717Y-105561028D01*
X105488717Y-105561028D02*
X105774431Y-105561028D01*
X105774431Y-105561028D02*
X105917289Y-105632457D01*
X107274432Y-105561028D02*
X107274432Y-106561028D01*
X106631574Y-105561028D02*
X106631574Y-106346742D01*
X106631574Y-106346742D02*
X106703003Y-106489600D01*
X106703003Y-106489600D02*
X106845860Y-106561028D01*
X106845860Y-106561028D02*
X107060146Y-106561028D01*
X107060146Y-106561028D02*
X107203003Y-106489600D01*
X107203003Y-106489600D02*
X107274432Y-106418171D01*
X107988717Y-106561028D02*
X107988717Y-105561028D01*
X107988717Y-105061028D02*
X107917289Y-105132457D01*
X107917289Y-105132457D02*
X107988717Y-105203885D01*
X107988717Y-105203885D02*
X108060146Y-105132457D01*
X108060146Y-105132457D02*
X107988717Y-105061028D01*
X107988717Y-105061028D02*
X107988717Y-105203885D01*
X109345861Y-106561028D02*
X109345861Y-105061028D01*
X109345861Y-106489600D02*
X109203003Y-106561028D01*
X109203003Y-106561028D02*
X108917289Y-106561028D01*
X108917289Y-106561028D02*
X108774432Y-106489600D01*
X108774432Y-106489600D02*
X108703003Y-106418171D01*
X108703003Y-106418171D02*
X108631575Y-106275314D01*
X108631575Y-106275314D02*
X108631575Y-105846742D01*
X108631575Y-105846742D02*
X108703003Y-105703885D01*
X108703003Y-105703885D02*
X108774432Y-105632457D01*
X108774432Y-105632457D02*
X108917289Y-105561028D01*
X108917289Y-105561028D02*
X109203003Y-105561028D01*
X109203003Y-105561028D02*
X109345861Y-105632457D01*
X110631575Y-106489600D02*
X110488718Y-106561028D01*
X110488718Y-106561028D02*
X110203004Y-106561028D01*
X110203004Y-106561028D02*
X110060146Y-106489600D01*
X110060146Y-106489600D02*
X109988718Y-106346742D01*
X109988718Y-106346742D02*
X109988718Y-105775314D01*
X109988718Y-105775314D02*
X110060146Y-105632457D01*
X110060146Y-105632457D02*
X110203004Y-105561028D01*
X110203004Y-105561028D02*
X110488718Y-105561028D01*
X110488718Y-105561028D02*
X110631575Y-105632457D01*
X110631575Y-105632457D02*
X110703004Y-105775314D01*
X110703004Y-105775314D02*
X110703004Y-105918171D01*
X110703004Y-105918171D02*
X109988718Y-106061028D01*
X6345863Y-110561028D02*
X5845863Y-109846742D01*
X5488720Y-110561028D02*
X5488720Y-109061028D01*
X5488720Y-109061028D02*
X6060149Y-109061028D01*
X6060149Y-109061028D02*
X6203006Y-109132457D01*
X6203006Y-109132457D02*
X6274435Y-109203885D01*
X6274435Y-109203885D02*
X6345863Y-109346742D01*
X6345863Y-109346742D02*
X6345863Y-109561028D01*
X6345863Y-109561028D02*
X6274435Y-109703885D01*
X6274435Y-109703885D02*
X6203006Y-109775314D01*
X6203006Y-109775314D02*
X6060149Y-109846742D01*
X6060149Y-109846742D02*
X5488720Y-109846742D01*
X6988720Y-110561028D02*
X6988720Y-109061028D01*
X7845863Y-110561028D02*
X7203006Y-109703885D01*
X7845863Y-109061028D02*
X6988720Y-109918171D01*
X8345863Y-109061028D02*
X9274435Y-109061028D01*
X9274435Y-109061028D02*
X8774435Y-109632457D01*
X8774435Y-109632457D02*
X8988720Y-109632457D01*
X8988720Y-109632457D02*
X9131578Y-109703885D01*
X9131578Y-109703885D02*
X9203006Y-109775314D01*
X9203006Y-109775314D02*
X9274435Y-109918171D01*
X9274435Y-109918171D02*
X9274435Y-110275314D01*
X9274435Y-110275314D02*
X9203006Y-110418171D01*
X9203006Y-110418171D02*
X9131578Y-110489600D01*
X9131578Y-110489600D02*
X8988720Y-110561028D01*
X8988720Y-110561028D02*
X8560149Y-110561028D01*
X8560149Y-110561028D02*
X8417292Y-110489600D01*
X8417292Y-110489600D02*
X8345863Y-110418171D01*
X10631577Y-109061028D02*
X9917291Y-109061028D01*
X9917291Y-109061028D02*
X9845863Y-109775314D01*
X9845863Y-109775314D02*
X9917291Y-109703885D01*
X9917291Y-109703885D02*
X10060149Y-109632457D01*
X10060149Y-109632457D02*
X10417291Y-109632457D01*
X10417291Y-109632457D02*
X10560149Y-109703885D01*
X10560149Y-109703885D02*
X10631577Y-109775314D01*
X10631577Y-109775314D02*
X10703006Y-109918171D01*
X10703006Y-109918171D02*
X10703006Y-110275314D01*
X10703006Y-110275314D02*
X10631577Y-110418171D01*
X10631577Y-110418171D02*
X10560149Y-110489600D01*
X10560149Y-110489600D02*
X10417291Y-110561028D01*
X10417291Y-110561028D02*
X10060149Y-110561028D01*
X10060149Y-110561028D02*
X9917291Y-110489600D01*
X9917291Y-110489600D02*
X9845863Y-110418171D01*
X11560148Y-109703885D02*
X11417291Y-109632457D01*
X11417291Y-109632457D02*
X11345862Y-109561028D01*
X11345862Y-109561028D02*
X11274434Y-109418171D01*
X11274434Y-109418171D02*
X11274434Y-109346742D01*
X11274434Y-109346742D02*
X11345862Y-109203885D01*
X11345862Y-109203885D02*
X11417291Y-109132457D01*
X11417291Y-109132457D02*
X11560148Y-109061028D01*
X11560148Y-109061028D02*
X11845862Y-109061028D01*
X11845862Y-109061028D02*
X11988720Y-109132457D01*
X11988720Y-109132457D02*
X12060148Y-109203885D01*
X12060148Y-109203885D02*
X12131577Y-109346742D01*
X12131577Y-109346742D02*
X12131577Y-109418171D01*
X12131577Y-109418171D02*
X12060148Y-109561028D01*
X12060148Y-109561028D02*
X11988720Y-109632457D01*
X11988720Y-109632457D02*
X11845862Y-109703885D01*
X11845862Y-109703885D02*
X11560148Y-109703885D01*
X11560148Y-109703885D02*
X11417291Y-109775314D01*
X11417291Y-109775314D02*
X11345862Y-109846742D01*
X11345862Y-109846742D02*
X11274434Y-109989600D01*
X11274434Y-109989600D02*
X11274434Y-110275314D01*
X11274434Y-110275314D02*
X11345862Y-110418171D01*
X11345862Y-110418171D02*
X11417291Y-110489600D01*
X11417291Y-110489600D02*
X11560148Y-110561028D01*
X11560148Y-110561028D02*
X11845862Y-110561028D01*
X11845862Y-110561028D02*
X11988720Y-110489600D01*
X11988720Y-110489600D02*
X12060148Y-110418171D01*
X12060148Y-110418171D02*
X12131577Y-110275314D01*
X12131577Y-110275314D02*
X12131577Y-109989600D01*
X12131577Y-109989600D02*
X12060148Y-109846742D01*
X12060148Y-109846742D02*
X11988720Y-109775314D01*
X11988720Y-109775314D02*
X11845862Y-109703885D01*
X12988719Y-109703885D02*
X12845862Y-109632457D01*
X12845862Y-109632457D02*
X12774433Y-109561028D01*
X12774433Y-109561028D02*
X12703005Y-109418171D01*
X12703005Y-109418171D02*
X12703005Y-109346742D01*
X12703005Y-109346742D02*
X12774433Y-109203885D01*
X12774433Y-109203885D02*
X12845862Y-109132457D01*
X12845862Y-109132457D02*
X12988719Y-109061028D01*
X12988719Y-109061028D02*
X13274433Y-109061028D01*
X13274433Y-109061028D02*
X13417291Y-109132457D01*
X13417291Y-109132457D02*
X13488719Y-109203885D01*
X13488719Y-109203885D02*
X13560148Y-109346742D01*
X13560148Y-109346742D02*
X13560148Y-109418171D01*
X13560148Y-109418171D02*
X13488719Y-109561028D01*
X13488719Y-109561028D02*
X13417291Y-109632457D01*
X13417291Y-109632457D02*
X13274433Y-109703885D01*
X13274433Y-109703885D02*
X12988719Y-109703885D01*
X12988719Y-109703885D02*
X12845862Y-109775314D01*
X12845862Y-109775314D02*
X12774433Y-109846742D01*
X12774433Y-109846742D02*
X12703005Y-109989600D01*
X12703005Y-109989600D02*
X12703005Y-110275314D01*
X12703005Y-110275314D02*
X12774433Y-110418171D01*
X12774433Y-110418171D02*
X12845862Y-110489600D01*
X12845862Y-110489600D02*
X12988719Y-110561028D01*
X12988719Y-110561028D02*
X13274433Y-110561028D01*
X13274433Y-110561028D02*
X13417291Y-110489600D01*
X13417291Y-110489600D02*
X13488719Y-110418171D01*
X13488719Y-110418171D02*
X13560148Y-110275314D01*
X13560148Y-110275314D02*
X13560148Y-109989600D01*
X13560148Y-109989600D02*
X13488719Y-109846742D01*
X13488719Y-109846742D02*
X13417291Y-109775314D01*
X13417291Y-109775314D02*
X13274433Y-109703885D01*
X15345861Y-109061028D02*
X15345861Y-110275314D01*
X15345861Y-110275314D02*
X15417290Y-110418171D01*
X15417290Y-110418171D02*
X15488719Y-110489600D01*
X15488719Y-110489600D02*
X15631576Y-110561028D01*
X15631576Y-110561028D02*
X15917290Y-110561028D01*
X15917290Y-110561028D02*
X16060147Y-110489600D01*
X16060147Y-110489600D02*
X16131576Y-110418171D01*
X16131576Y-110418171D02*
X16203004Y-110275314D01*
X16203004Y-110275314D02*
X16203004Y-109061028D01*
X17703005Y-110561028D02*
X16845862Y-110561028D01*
X17274433Y-110561028D02*
X17274433Y-109061028D01*
X17274433Y-109061028D02*
X17131576Y-109275314D01*
X17131576Y-109275314D02*
X16988719Y-109418171D01*
X16988719Y-109418171D02*
X16845862Y-109489600D01*
X19488718Y-109989600D02*
X20631576Y-109989600D01*
X23131576Y-110489600D02*
X22988718Y-110561028D01*
X22988718Y-110561028D02*
X22703004Y-110561028D01*
X22703004Y-110561028D02*
X22560147Y-110489600D01*
X22560147Y-110489600D02*
X22488718Y-110418171D01*
X22488718Y-110418171D02*
X22417290Y-110275314D01*
X22417290Y-110275314D02*
X22417290Y-109846742D01*
X22417290Y-109846742D02*
X22488718Y-109703885D01*
X22488718Y-109703885D02*
X22560147Y-109632457D01*
X22560147Y-109632457D02*
X22703004Y-109561028D01*
X22703004Y-109561028D02*
X22988718Y-109561028D01*
X22988718Y-109561028D02*
X23131576Y-109632457D01*
X24345861Y-110489600D02*
X24203004Y-110561028D01*
X24203004Y-110561028D02*
X23917290Y-110561028D01*
X23917290Y-110561028D02*
X23774432Y-110489600D01*
X23774432Y-110489600D02*
X23703004Y-110346742D01*
X23703004Y-110346742D02*
X23703004Y-109775314D01*
X23703004Y-109775314D02*
X23774432Y-109632457D01*
X23774432Y-109632457D02*
X23917290Y-109561028D01*
X23917290Y-109561028D02*
X24203004Y-109561028D01*
X24203004Y-109561028D02*
X24345861Y-109632457D01*
X24345861Y-109632457D02*
X24417290Y-109775314D01*
X24417290Y-109775314D02*
X24417290Y-109918171D01*
X24417290Y-109918171D02*
X23703004Y-110061028D01*
X25060146Y-109561028D02*
X25060146Y-110561028D01*
X25060146Y-109703885D02*
X25131575Y-109632457D01*
X25131575Y-109632457D02*
X25274432Y-109561028D01*
X25274432Y-109561028D02*
X25488718Y-109561028D01*
X25488718Y-109561028D02*
X25631575Y-109632457D01*
X25631575Y-109632457D02*
X25703004Y-109775314D01*
X25703004Y-109775314D02*
X25703004Y-110561028D01*
X26203004Y-109561028D02*
X26774432Y-109561028D01*
X26417289Y-109061028D02*
X26417289Y-110346742D01*
X26417289Y-110346742D02*
X26488718Y-110489600D01*
X26488718Y-110489600D02*
X26631575Y-110561028D01*
X26631575Y-110561028D02*
X26774432Y-110561028D01*
X27845861Y-110489600D02*
X27703004Y-110561028D01*
X27703004Y-110561028D02*
X27417290Y-110561028D01*
X27417290Y-110561028D02*
X27274432Y-110489600D01*
X27274432Y-110489600D02*
X27203004Y-110346742D01*
X27203004Y-110346742D02*
X27203004Y-109775314D01*
X27203004Y-109775314D02*
X27274432Y-109632457D01*
X27274432Y-109632457D02*
X27417290Y-109561028D01*
X27417290Y-109561028D02*
X27703004Y-109561028D01*
X27703004Y-109561028D02*
X27845861Y-109632457D01*
X27845861Y-109632457D02*
X27917290Y-109775314D01*
X27917290Y-109775314D02*
X27917290Y-109918171D01*
X27917290Y-109918171D02*
X27203004Y-110061028D01*
X28560146Y-110561028D02*
X28560146Y-109561028D01*
X28560146Y-109846742D02*
X28631575Y-109703885D01*
X28631575Y-109703885D02*
X28703004Y-109632457D01*
X28703004Y-109632457D02*
X28845861Y-109561028D01*
X28845861Y-109561028D02*
X28988718Y-109561028D01*
X30631574Y-109561028D02*
X30631574Y-111061028D01*
X30631574Y-109632457D02*
X30774432Y-109561028D01*
X30774432Y-109561028D02*
X31060146Y-109561028D01*
X31060146Y-109561028D02*
X31203003Y-109632457D01*
X31203003Y-109632457D02*
X31274432Y-109703885D01*
X31274432Y-109703885D02*
X31345860Y-109846742D01*
X31345860Y-109846742D02*
X31345860Y-110275314D01*
X31345860Y-110275314D02*
X31274432Y-110418171D01*
X31274432Y-110418171D02*
X31203003Y-110489600D01*
X31203003Y-110489600D02*
X31060146Y-110561028D01*
X31060146Y-110561028D02*
X30774432Y-110561028D01*
X30774432Y-110561028D02*
X30631574Y-110489600D01*
X32203003Y-110561028D02*
X32060146Y-110489600D01*
X32060146Y-110489600D02*
X31988717Y-110346742D01*
X31988717Y-110346742D02*
X31988717Y-109061028D01*
X33417289Y-110561028D02*
X33417289Y-109775314D01*
X33417289Y-109775314D02*
X33345860Y-109632457D01*
X33345860Y-109632457D02*
X33203003Y-109561028D01*
X33203003Y-109561028D02*
X32917289Y-109561028D01*
X32917289Y-109561028D02*
X32774431Y-109632457D01*
X33417289Y-110489600D02*
X33274431Y-110561028D01*
X33274431Y-110561028D02*
X32917289Y-110561028D01*
X32917289Y-110561028D02*
X32774431Y-110489600D01*
X32774431Y-110489600D02*
X32703003Y-110346742D01*
X32703003Y-110346742D02*
X32703003Y-110203885D01*
X32703003Y-110203885D02*
X32774431Y-110061028D01*
X32774431Y-110061028D02*
X32917289Y-109989600D01*
X32917289Y-109989600D02*
X33274431Y-109989600D01*
X33274431Y-109989600D02*
X33417289Y-109918171D01*
X34774432Y-110489600D02*
X34631574Y-110561028D01*
X34631574Y-110561028D02*
X34345860Y-110561028D01*
X34345860Y-110561028D02*
X34203003Y-110489600D01*
X34203003Y-110489600D02*
X34131574Y-110418171D01*
X34131574Y-110418171D02*
X34060146Y-110275314D01*
X34060146Y-110275314D02*
X34060146Y-109846742D01*
X34060146Y-109846742D02*
X34131574Y-109703885D01*
X34131574Y-109703885D02*
X34203003Y-109632457D01*
X34203003Y-109632457D02*
X34345860Y-109561028D01*
X34345860Y-109561028D02*
X34631574Y-109561028D01*
X34631574Y-109561028D02*
X34774432Y-109632457D01*
X35988717Y-110489600D02*
X35845860Y-110561028D01*
X35845860Y-110561028D02*
X35560146Y-110561028D01*
X35560146Y-110561028D02*
X35417288Y-110489600D01*
X35417288Y-110489600D02*
X35345860Y-110346742D01*
X35345860Y-110346742D02*
X35345860Y-109775314D01*
X35345860Y-109775314D02*
X35417288Y-109632457D01*
X35417288Y-109632457D02*
X35560146Y-109561028D01*
X35560146Y-109561028D02*
X35845860Y-109561028D01*
X35845860Y-109561028D02*
X35988717Y-109632457D01*
X35988717Y-109632457D02*
X36060146Y-109775314D01*
X36060146Y-109775314D02*
X36060146Y-109918171D01*
X36060146Y-109918171D02*
X35345860Y-110061028D01*
X36703002Y-110561028D02*
X36703002Y-109561028D01*
X36703002Y-109703885D02*
X36774431Y-109632457D01*
X36774431Y-109632457D02*
X36917288Y-109561028D01*
X36917288Y-109561028D02*
X37131574Y-109561028D01*
X37131574Y-109561028D02*
X37274431Y-109632457D01*
X37274431Y-109632457D02*
X37345860Y-109775314D01*
X37345860Y-109775314D02*
X37345860Y-110561028D01*
X37345860Y-109775314D02*
X37417288Y-109632457D01*
X37417288Y-109632457D02*
X37560145Y-109561028D01*
X37560145Y-109561028D02*
X37774431Y-109561028D01*
X37774431Y-109561028D02*
X37917288Y-109632457D01*
X37917288Y-109632457D02*
X37988717Y-109775314D01*
X37988717Y-109775314D02*
X37988717Y-110561028D01*
X39274431Y-110489600D02*
X39131574Y-110561028D01*
X39131574Y-110561028D02*
X38845860Y-110561028D01*
X38845860Y-110561028D02*
X38703002Y-110489600D01*
X38703002Y-110489600D02*
X38631574Y-110346742D01*
X38631574Y-110346742D02*
X38631574Y-109775314D01*
X38631574Y-109775314D02*
X38703002Y-109632457D01*
X38703002Y-109632457D02*
X38845860Y-109561028D01*
X38845860Y-109561028D02*
X39131574Y-109561028D01*
X39131574Y-109561028D02*
X39274431Y-109632457D01*
X39274431Y-109632457D02*
X39345860Y-109775314D01*
X39345860Y-109775314D02*
X39345860Y-109918171D01*
X39345860Y-109918171D02*
X38631574Y-110061028D01*
X39988716Y-109561028D02*
X39988716Y-110561028D01*
X39988716Y-109703885D02*
X40060145Y-109632457D01*
X40060145Y-109632457D02*
X40203002Y-109561028D01*
X40203002Y-109561028D02*
X40417288Y-109561028D01*
X40417288Y-109561028D02*
X40560145Y-109632457D01*
X40560145Y-109632457D02*
X40631574Y-109775314D01*
X40631574Y-109775314D02*
X40631574Y-110561028D01*
X41131574Y-109561028D02*
X41703002Y-109561028D01*
X41345859Y-109061028D02*
X41345859Y-110346742D01*
X41345859Y-110346742D02*
X41417288Y-110489600D01*
X41417288Y-110489600D02*
X41560145Y-110561028D01*
X41560145Y-110561028D02*
X41703002Y-110561028D01*
X42274431Y-110489600D02*
X42274431Y-110561028D01*
X42274431Y-110561028D02*
X42203002Y-110703885D01*
X42203002Y-110703885D02*
X42131574Y-110775314D01*
X44774431Y-110561028D02*
X44060145Y-110561028D01*
X44060145Y-110561028D02*
X44060145Y-109061028D01*
X45274431Y-110561028D02*
X45274431Y-109061028D01*
X45274431Y-109061028D02*
X45845860Y-109061028D01*
X45845860Y-109061028D02*
X45988717Y-109132457D01*
X45988717Y-109132457D02*
X46060146Y-109203885D01*
X46060146Y-109203885D02*
X46131574Y-109346742D01*
X46131574Y-109346742D02*
X46131574Y-109561028D01*
X46131574Y-109561028D02*
X46060146Y-109703885D01*
X46060146Y-109703885D02*
X45988717Y-109775314D01*
X45988717Y-109775314D02*
X45845860Y-109846742D01*
X45845860Y-109846742D02*
X45274431Y-109846742D01*
X46774431Y-110561028D02*
X46774431Y-109061028D01*
X46774431Y-109061028D02*
X47131574Y-109061028D01*
X47131574Y-109061028D02*
X47345860Y-109132457D01*
X47345860Y-109132457D02*
X47488717Y-109275314D01*
X47488717Y-109275314D02*
X47560146Y-109418171D01*
X47560146Y-109418171D02*
X47631574Y-109703885D01*
X47631574Y-109703885D02*
X47631574Y-109918171D01*
X47631574Y-109918171D02*
X47560146Y-110203885D01*
X47560146Y-110203885D02*
X47488717Y-110346742D01*
X47488717Y-110346742D02*
X47345860Y-110489600D01*
X47345860Y-110489600D02*
X47131574Y-110561028D01*
X47131574Y-110561028D02*
X46774431Y-110561028D01*
X48274431Y-110561028D02*
X48274431Y-109061028D01*
X48274431Y-109061028D02*
X48631574Y-109061028D01*
X48631574Y-109061028D02*
X48845860Y-109132457D01*
X48845860Y-109132457D02*
X48988717Y-109275314D01*
X48988717Y-109275314D02*
X49060146Y-109418171D01*
X49060146Y-109418171D02*
X49131574Y-109703885D01*
X49131574Y-109703885D02*
X49131574Y-109918171D01*
X49131574Y-109918171D02*
X49060146Y-110203885D01*
X49060146Y-110203885D02*
X48988717Y-110346742D01*
X48988717Y-110346742D02*
X48845860Y-110489600D01*
X48845860Y-110489600D02*
X48631574Y-110561028D01*
X48631574Y-110561028D02*
X48274431Y-110561028D01*
X50631574Y-110561028D02*
X50131574Y-109846742D01*
X49774431Y-110561028D02*
X49774431Y-109061028D01*
X49774431Y-109061028D02*
X50345860Y-109061028D01*
X50345860Y-109061028D02*
X50488717Y-109132457D01*
X50488717Y-109132457D02*
X50560146Y-109203885D01*
X50560146Y-109203885D02*
X50631574Y-109346742D01*
X50631574Y-109346742D02*
X50631574Y-109561028D01*
X50631574Y-109561028D02*
X50560146Y-109703885D01*
X50560146Y-109703885D02*
X50488717Y-109775314D01*
X50488717Y-109775314D02*
X50345860Y-109846742D01*
X50345860Y-109846742D02*
X49774431Y-109846742D01*
X51988717Y-109061028D02*
X51274431Y-109061028D01*
X51274431Y-109061028D02*
X51203003Y-109775314D01*
X51203003Y-109775314D02*
X51274431Y-109703885D01*
X51274431Y-109703885D02*
X51417289Y-109632457D01*
X51417289Y-109632457D02*
X51774431Y-109632457D01*
X51774431Y-109632457D02*
X51917289Y-109703885D01*
X51917289Y-109703885D02*
X51988717Y-109775314D01*
X51988717Y-109775314D02*
X52060146Y-109918171D01*
X52060146Y-109918171D02*
X52060146Y-110275314D01*
X52060146Y-110275314D02*
X51988717Y-110418171D01*
X51988717Y-110418171D02*
X51917289Y-110489600D01*
X51917289Y-110489600D02*
X51774431Y-110561028D01*
X51774431Y-110561028D02*
X51417289Y-110561028D01*
X51417289Y-110561028D02*
X51274431Y-110489600D01*
X51274431Y-110489600D02*
X51203003Y-110418171D01*
X53631574Y-109561028D02*
X54203002Y-109561028D01*
X53845859Y-110561028D02*
X53845859Y-109275314D01*
X53845859Y-109275314D02*
X53917288Y-109132457D01*
X53917288Y-109132457D02*
X54060145Y-109061028D01*
X54060145Y-109061028D02*
X54203002Y-109061028D01*
X55345860Y-110561028D02*
X55345860Y-109775314D01*
X55345860Y-109775314D02*
X55274431Y-109632457D01*
X55274431Y-109632457D02*
X55131574Y-109561028D01*
X55131574Y-109561028D02*
X54845860Y-109561028D01*
X54845860Y-109561028D02*
X54703002Y-109632457D01*
X55345860Y-110489600D02*
X55203002Y-110561028D01*
X55203002Y-110561028D02*
X54845860Y-110561028D01*
X54845860Y-110561028D02*
X54703002Y-110489600D01*
X54703002Y-110489600D02*
X54631574Y-110346742D01*
X54631574Y-110346742D02*
X54631574Y-110203885D01*
X54631574Y-110203885D02*
X54703002Y-110061028D01*
X54703002Y-110061028D02*
X54845860Y-109989600D01*
X54845860Y-109989600D02*
X55203002Y-109989600D01*
X55203002Y-109989600D02*
X55345860Y-109918171D01*
X56060145Y-109561028D02*
X56060145Y-110561028D01*
X56060145Y-109703885D02*
X56131574Y-109632457D01*
X56131574Y-109632457D02*
X56274431Y-109561028D01*
X56274431Y-109561028D02*
X56488717Y-109561028D01*
X56488717Y-109561028D02*
X56631574Y-109632457D01*
X56631574Y-109632457D02*
X56703003Y-109775314D01*
X56703003Y-109775314D02*
X56703003Y-110561028D01*
X57631574Y-110561028D02*
X57488717Y-110489600D01*
X57488717Y-110489600D02*
X57417288Y-110418171D01*
X57417288Y-110418171D02*
X57345860Y-110275314D01*
X57345860Y-110275314D02*
X57345860Y-109846742D01*
X57345860Y-109846742D02*
X57417288Y-109703885D01*
X57417288Y-109703885D02*
X57488717Y-109632457D01*
X57488717Y-109632457D02*
X57631574Y-109561028D01*
X57631574Y-109561028D02*
X57845860Y-109561028D01*
X57845860Y-109561028D02*
X57988717Y-109632457D01*
X57988717Y-109632457D02*
X58060146Y-109703885D01*
X58060146Y-109703885D02*
X58131574Y-109846742D01*
X58131574Y-109846742D02*
X58131574Y-110275314D01*
X58131574Y-110275314D02*
X58060146Y-110418171D01*
X58060146Y-110418171D02*
X57988717Y-110489600D01*
X57988717Y-110489600D02*
X57845860Y-110561028D01*
X57845860Y-110561028D02*
X57631574Y-110561028D01*
X59417289Y-109561028D02*
X59417289Y-110561028D01*
X58774431Y-109561028D02*
X58774431Y-110346742D01*
X58774431Y-110346742D02*
X58845860Y-110489600D01*
X58845860Y-110489600D02*
X58988717Y-110561028D01*
X58988717Y-110561028D02*
X59203003Y-110561028D01*
X59203003Y-110561028D02*
X59345860Y-110489600D01*
X59345860Y-110489600D02*
X59417289Y-110418171D01*
X59917289Y-109561028D02*
X60488717Y-109561028D01*
X60131574Y-109061028D02*
X60131574Y-110346742D01*
X60131574Y-110346742D02*
X60203003Y-110489600D01*
X60203003Y-110489600D02*
X60345860Y-110561028D01*
X60345860Y-110561028D02*
X60488717Y-110561028D01*
X61917289Y-109561028D02*
X62488717Y-109561028D01*
X62131574Y-109061028D02*
X62131574Y-110346742D01*
X62131574Y-110346742D02*
X62203003Y-110489600D01*
X62203003Y-110489600D02*
X62345860Y-110561028D01*
X62345860Y-110561028D02*
X62488717Y-110561028D01*
X63203003Y-110561028D02*
X63060146Y-110489600D01*
X63060146Y-110489600D02*
X62988717Y-110418171D01*
X62988717Y-110418171D02*
X62917289Y-110275314D01*
X62917289Y-110275314D02*
X62917289Y-109846742D01*
X62917289Y-109846742D02*
X62988717Y-109703885D01*
X62988717Y-109703885D02*
X63060146Y-109632457D01*
X63060146Y-109632457D02*
X63203003Y-109561028D01*
X63203003Y-109561028D02*
X63417289Y-109561028D01*
X63417289Y-109561028D02*
X63560146Y-109632457D01*
X63560146Y-109632457D02*
X63631575Y-109703885D01*
X63631575Y-109703885D02*
X63703003Y-109846742D01*
X63703003Y-109846742D02*
X63703003Y-110275314D01*
X63703003Y-110275314D02*
X63631575Y-110418171D01*
X63631575Y-110418171D02*
X63560146Y-110489600D01*
X63560146Y-110489600D02*
X63417289Y-110561028D01*
X63417289Y-110561028D02*
X63203003Y-110561028D01*
X65274432Y-109561028D02*
X65845860Y-109561028D01*
X65488717Y-109061028D02*
X65488717Y-110346742D01*
X65488717Y-110346742D02*
X65560146Y-110489600D01*
X65560146Y-110489600D02*
X65703003Y-110561028D01*
X65703003Y-110561028D02*
X65845860Y-110561028D01*
X66560146Y-110561028D02*
X66417289Y-110489600D01*
X66417289Y-110489600D02*
X66345860Y-110418171D01*
X66345860Y-110418171D02*
X66274432Y-110275314D01*
X66274432Y-110275314D02*
X66274432Y-109846742D01*
X66274432Y-109846742D02*
X66345860Y-109703885D01*
X66345860Y-109703885D02*
X66417289Y-109632457D01*
X66417289Y-109632457D02*
X66560146Y-109561028D01*
X66560146Y-109561028D02*
X66774432Y-109561028D01*
X66774432Y-109561028D02*
X66917289Y-109632457D01*
X66917289Y-109632457D02*
X66988718Y-109703885D01*
X66988718Y-109703885D02*
X67060146Y-109846742D01*
X67060146Y-109846742D02*
X67060146Y-110275314D01*
X67060146Y-110275314D02*
X66988718Y-110418171D01*
X66988718Y-110418171D02*
X66917289Y-110489600D01*
X66917289Y-110489600D02*
X66774432Y-110561028D01*
X66774432Y-110561028D02*
X66560146Y-110561028D01*
X67703003Y-109561028D02*
X67703003Y-111061028D01*
X67703003Y-109632457D02*
X67845861Y-109561028D01*
X67845861Y-109561028D02*
X68131575Y-109561028D01*
X68131575Y-109561028D02*
X68274432Y-109632457D01*
X68274432Y-109632457D02*
X68345861Y-109703885D01*
X68345861Y-109703885D02*
X68417289Y-109846742D01*
X68417289Y-109846742D02*
X68417289Y-110275314D01*
X68417289Y-110275314D02*
X68345861Y-110418171D01*
X68345861Y-110418171D02*
X68274432Y-110489600D01*
X68274432Y-110489600D02*
X68131575Y-110561028D01*
X68131575Y-110561028D02*
X67845861Y-110561028D01*
X67845861Y-110561028D02*
X67703003Y-110489600D01*
X69131575Y-110489600D02*
X69131575Y-110561028D01*
X69131575Y-110561028D02*
X69060146Y-110703885D01*
X69060146Y-110703885D02*
X68988718Y-110775314D01*
X69060146Y-109632457D02*
X69131575Y-109703885D01*
X69131575Y-109703885D02*
X69060146Y-109775314D01*
X69060146Y-109775314D02*
X68988718Y-109703885D01*
X68988718Y-109703885D02*
X69060146Y-109632457D01*
X69060146Y-109632457D02*
X69060146Y-109775314D01*
X70917289Y-110561028D02*
X70917289Y-109061028D01*
X70917289Y-109775314D02*
X71774432Y-109775314D01*
X71774432Y-110561028D02*
X71774432Y-109061028D01*
X72488718Y-110561028D02*
X72488718Y-109061028D01*
X72488718Y-109061028D02*
X72845861Y-109061028D01*
X72845861Y-109061028D02*
X73060147Y-109132457D01*
X73060147Y-109132457D02*
X73203004Y-109275314D01*
X73203004Y-109275314D02*
X73274433Y-109418171D01*
X73274433Y-109418171D02*
X73345861Y-109703885D01*
X73345861Y-109703885D02*
X73345861Y-109918171D01*
X73345861Y-109918171D02*
X73274433Y-110203885D01*
X73274433Y-110203885D02*
X73203004Y-110346742D01*
X73203004Y-110346742D02*
X73060147Y-110489600D01*
X73060147Y-110489600D02*
X72845861Y-110561028D01*
X72845861Y-110561028D02*
X72488718Y-110561028D01*
X73988718Y-110561028D02*
X73988718Y-109061028D01*
X73988718Y-109061028D02*
X74488718Y-110132457D01*
X74488718Y-110132457D02*
X74988718Y-109061028D01*
X74988718Y-109061028D02*
X74988718Y-110561028D01*
X75703004Y-110561028D02*
X75703004Y-109061028D01*
X77488719Y-108989600D02*
X76203005Y-110918171D01*
X77988719Y-109061028D02*
X77988719Y-110275314D01*
X77988719Y-110275314D02*
X78060148Y-110418171D01*
X78060148Y-110418171D02*
X78131577Y-110489600D01*
X78131577Y-110489600D02*
X78274434Y-110561028D01*
X78274434Y-110561028D02*
X78560148Y-110561028D01*
X78560148Y-110561028D02*
X78703005Y-110489600D01*
X78703005Y-110489600D02*
X78774434Y-110418171D01*
X78774434Y-110418171D02*
X78845862Y-110275314D01*
X78845862Y-110275314D02*
X78845862Y-109061028D01*
X79488720Y-110489600D02*
X79703006Y-110561028D01*
X79703006Y-110561028D02*
X80060148Y-110561028D01*
X80060148Y-110561028D02*
X80203006Y-110489600D01*
X80203006Y-110489600D02*
X80274434Y-110418171D01*
X80274434Y-110418171D02*
X80345863Y-110275314D01*
X80345863Y-110275314D02*
X80345863Y-110132457D01*
X80345863Y-110132457D02*
X80274434Y-109989600D01*
X80274434Y-109989600D02*
X80203006Y-109918171D01*
X80203006Y-109918171D02*
X80060148Y-109846742D01*
X80060148Y-109846742D02*
X79774434Y-109775314D01*
X79774434Y-109775314D02*
X79631577Y-109703885D01*
X79631577Y-109703885D02*
X79560148Y-109632457D01*
X79560148Y-109632457D02*
X79488720Y-109489600D01*
X79488720Y-109489600D02*
X79488720Y-109346742D01*
X79488720Y-109346742D02*
X79560148Y-109203885D01*
X79560148Y-109203885D02*
X79631577Y-109132457D01*
X79631577Y-109132457D02*
X79774434Y-109061028D01*
X79774434Y-109061028D02*
X80131577Y-109061028D01*
X80131577Y-109061028D02*
X80345863Y-109132457D01*
X81488719Y-109775314D02*
X81703005Y-109846742D01*
X81703005Y-109846742D02*
X81774434Y-109918171D01*
X81774434Y-109918171D02*
X81845862Y-110061028D01*
X81845862Y-110061028D02*
X81845862Y-110275314D01*
X81845862Y-110275314D02*
X81774434Y-110418171D01*
X81774434Y-110418171D02*
X81703005Y-110489600D01*
X81703005Y-110489600D02*
X81560148Y-110561028D01*
X81560148Y-110561028D02*
X80988719Y-110561028D01*
X80988719Y-110561028D02*
X80988719Y-109061028D01*
X80988719Y-109061028D02*
X81488719Y-109061028D01*
X81488719Y-109061028D02*
X81631577Y-109132457D01*
X81631577Y-109132457D02*
X81703005Y-109203885D01*
X81703005Y-109203885D02*
X81774434Y-109346742D01*
X81774434Y-109346742D02*
X81774434Y-109489600D01*
X81774434Y-109489600D02*
X81703005Y-109632457D01*
X81703005Y-109632457D02*
X81631577Y-109703885D01*
X81631577Y-109703885D02*
X81488719Y-109775314D01*
X81488719Y-109775314D02*
X80988719Y-109775314D01*
X83417291Y-109561028D02*
X83988719Y-109561028D01*
X83631576Y-109061028D02*
X83631576Y-110346742D01*
X83631576Y-110346742D02*
X83703005Y-110489600D01*
X83703005Y-110489600D02*
X83845862Y-110561028D01*
X83845862Y-110561028D02*
X83988719Y-110561028D01*
X84703005Y-110561028D02*
X84560148Y-110489600D01*
X84560148Y-110489600D02*
X84488719Y-110418171D01*
X84488719Y-110418171D02*
X84417291Y-110275314D01*
X84417291Y-110275314D02*
X84417291Y-109846742D01*
X84417291Y-109846742D02*
X84488719Y-109703885D01*
X84488719Y-109703885D02*
X84560148Y-109632457D01*
X84560148Y-109632457D02*
X84703005Y-109561028D01*
X84703005Y-109561028D02*
X84917291Y-109561028D01*
X84917291Y-109561028D02*
X85060148Y-109632457D01*
X85060148Y-109632457D02*
X85131577Y-109703885D01*
X85131577Y-109703885D02*
X85203005Y-109846742D01*
X85203005Y-109846742D02*
X85203005Y-110275314D01*
X85203005Y-110275314D02*
X85131577Y-110418171D01*
X85131577Y-110418171D02*
X85060148Y-110489600D01*
X85060148Y-110489600D02*
X84917291Y-110561028D01*
X84917291Y-110561028D02*
X84703005Y-110561028D01*
X86988719Y-110561028D02*
X86988719Y-109561028D01*
X86988719Y-109846742D02*
X87060148Y-109703885D01*
X87060148Y-109703885D02*
X87131577Y-109632457D01*
X87131577Y-109632457D02*
X87274434Y-109561028D01*
X87274434Y-109561028D02*
X87417291Y-109561028D01*
X87917290Y-110561028D02*
X87917290Y-109561028D01*
X87917290Y-109061028D02*
X87845862Y-109132457D01*
X87845862Y-109132457D02*
X87917290Y-109203885D01*
X87917290Y-109203885D02*
X87988719Y-109132457D01*
X87988719Y-109132457D02*
X87917290Y-109061028D01*
X87917290Y-109061028D02*
X87917290Y-109203885D01*
X89274434Y-109561028D02*
X89274434Y-110775314D01*
X89274434Y-110775314D02*
X89203005Y-110918171D01*
X89203005Y-110918171D02*
X89131576Y-110989600D01*
X89131576Y-110989600D02*
X88988719Y-111061028D01*
X88988719Y-111061028D02*
X88774434Y-111061028D01*
X88774434Y-111061028D02*
X88631576Y-110989600D01*
X89274434Y-110489600D02*
X89131576Y-110561028D01*
X89131576Y-110561028D02*
X88845862Y-110561028D01*
X88845862Y-110561028D02*
X88703005Y-110489600D01*
X88703005Y-110489600D02*
X88631576Y-110418171D01*
X88631576Y-110418171D02*
X88560148Y-110275314D01*
X88560148Y-110275314D02*
X88560148Y-109846742D01*
X88560148Y-109846742D02*
X88631576Y-109703885D01*
X88631576Y-109703885D02*
X88703005Y-109632457D01*
X88703005Y-109632457D02*
X88845862Y-109561028D01*
X88845862Y-109561028D02*
X89131576Y-109561028D01*
X89131576Y-109561028D02*
X89274434Y-109632457D01*
X89988719Y-110561028D02*
X89988719Y-109061028D01*
X90631577Y-110561028D02*
X90631577Y-109775314D01*
X90631577Y-109775314D02*
X90560148Y-109632457D01*
X90560148Y-109632457D02*
X90417291Y-109561028D01*
X90417291Y-109561028D02*
X90203005Y-109561028D01*
X90203005Y-109561028D02*
X90060148Y-109632457D01*
X90060148Y-109632457D02*
X89988719Y-109703885D01*
X91131577Y-109561028D02*
X91703005Y-109561028D01*
X91345862Y-109061028D02*
X91345862Y-110346742D01*
X91345862Y-110346742D02*
X91417291Y-110489600D01*
X91417291Y-110489600D02*
X91560148Y-110561028D01*
X91560148Y-110561028D02*
X91703005Y-110561028D01*
X93917291Y-110489600D02*
X93774434Y-110561028D01*
X93774434Y-110561028D02*
X93488720Y-110561028D01*
X93488720Y-110561028D02*
X93345862Y-110489600D01*
X93345862Y-110489600D02*
X93274434Y-110346742D01*
X93274434Y-110346742D02*
X93274434Y-109775314D01*
X93274434Y-109775314D02*
X93345862Y-109632457D01*
X93345862Y-109632457D02*
X93488720Y-109561028D01*
X93488720Y-109561028D02*
X93774434Y-109561028D01*
X93774434Y-109561028D02*
X93917291Y-109632457D01*
X93917291Y-109632457D02*
X93988720Y-109775314D01*
X93988720Y-109775314D02*
X93988720Y-109918171D01*
X93988720Y-109918171D02*
X93274434Y-110061028D01*
X95274434Y-110561028D02*
X95274434Y-109061028D01*
X95274434Y-110489600D02*
X95131576Y-110561028D01*
X95131576Y-110561028D02*
X94845862Y-110561028D01*
X94845862Y-110561028D02*
X94703005Y-110489600D01*
X94703005Y-110489600D02*
X94631576Y-110418171D01*
X94631576Y-110418171D02*
X94560148Y-110275314D01*
X94560148Y-110275314D02*
X94560148Y-109846742D01*
X94560148Y-109846742D02*
X94631576Y-109703885D01*
X94631576Y-109703885D02*
X94703005Y-109632457D01*
X94703005Y-109632457D02*
X94845862Y-109561028D01*
X94845862Y-109561028D02*
X95131576Y-109561028D01*
X95131576Y-109561028D02*
X95274434Y-109632457D01*
X96631577Y-109561028D02*
X96631577Y-110775314D01*
X96631577Y-110775314D02*
X96560148Y-110918171D01*
X96560148Y-110918171D02*
X96488719Y-110989600D01*
X96488719Y-110989600D02*
X96345862Y-111061028D01*
X96345862Y-111061028D02*
X96131577Y-111061028D01*
X96131577Y-111061028D02*
X95988719Y-110989600D01*
X96631577Y-110489600D02*
X96488719Y-110561028D01*
X96488719Y-110561028D02*
X96203005Y-110561028D01*
X96203005Y-110561028D02*
X96060148Y-110489600D01*
X96060148Y-110489600D02*
X95988719Y-110418171D01*
X95988719Y-110418171D02*
X95917291Y-110275314D01*
X95917291Y-110275314D02*
X95917291Y-109846742D01*
X95917291Y-109846742D02*
X95988719Y-109703885D01*
X95988719Y-109703885D02*
X96060148Y-109632457D01*
X96060148Y-109632457D02*
X96203005Y-109561028D01*
X96203005Y-109561028D02*
X96488719Y-109561028D01*
X96488719Y-109561028D02*
X96631577Y-109632457D01*
X97917291Y-110489600D02*
X97774434Y-110561028D01*
X97774434Y-110561028D02*
X97488720Y-110561028D01*
X97488720Y-110561028D02*
X97345862Y-110489600D01*
X97345862Y-110489600D02*
X97274434Y-110346742D01*
X97274434Y-110346742D02*
X97274434Y-109775314D01*
X97274434Y-109775314D02*
X97345862Y-109632457D01*
X97345862Y-109632457D02*
X97488720Y-109561028D01*
X97488720Y-109561028D02*
X97774434Y-109561028D01*
X97774434Y-109561028D02*
X97917291Y-109632457D01*
X97917291Y-109632457D02*
X97988720Y-109775314D01*
X97988720Y-109775314D02*
X97988720Y-109918171D01*
X97988720Y-109918171D02*
X97274434Y-110061028D01*
M02*
