%TF.GenerationSoftware,KiCad,Pcbnew,10.0.5*%
%TF.CreationDate,2026-08-03T17:35:05-07:00*%
%TF.ProjectId,palpod-mic-array,70616c70-6f64-42d6-9d69-632d61727261,A0*%
%TF.SameCoordinates,Original*%
%TF.FileFunction,Legend,Top*%
%TF.FilePolarity,Positive*%
%FSLAX46Y46*%
G04 Gerber Fmt 4.6, Leading zero omitted, Abs format (unit mm)*
G04 Created by KiCad (PCBNEW 10.0.5) date 2026-08-03 17:35:05*
%MOMM*%
%LPD*%
G01*
G04 APERTURE LIST*
%ADD10C,0.300000*%
%ADD11C,0.200000*%
G04 APERTURE END LIST*
D10*
X673558Y55260361D02*
X673558Y57260361D01*
X673558Y57260361D02*
X1435463Y57260361D01*
X1435463Y57260361D02*
X1625939Y57165123D01*
X1625939Y57165123D02*
X1721177Y57069885D01*
X1721177Y57069885D02*
X1816415Y56879409D01*
X1816415Y56879409D02*
X1816415Y56593695D01*
X1816415Y56593695D02*
X1721177Y56403219D01*
X1721177Y56403219D02*
X1625939Y56307980D01*
X1625939Y56307980D02*
X1435463Y56212742D01*
X1435463Y56212742D02*
X673558Y56212742D01*
X2578320Y55831790D02*
X3530701Y55831790D01*
X2387844Y55260361D02*
X3054510Y57260361D01*
X3054510Y57260361D02*
X3721177Y55260361D01*
X5340225Y55260361D02*
X4387844Y55260361D01*
X4387844Y55260361D02*
X4387844Y57260361D01*
X7530702Y55260361D02*
X7530702Y57260361D01*
X7530702Y57260361D02*
X8292607Y57260361D01*
X8292607Y57260361D02*
X8483083Y57165123D01*
X8483083Y57165123D02*
X8578321Y57069885D01*
X8578321Y57069885D02*
X8673559Y56879409D01*
X8673559Y56879409D02*
X8673559Y56593695D01*
X8673559Y56593695D02*
X8578321Y56403219D01*
X8578321Y56403219D02*
X8483083Y56307980D01*
X8483083Y56307980D02*
X8292607Y56212742D01*
X8292607Y56212742D02*
X7530702Y56212742D01*
X9816416Y55260361D02*
X9625940Y55355600D01*
X9625940Y55355600D02*
X9530702Y55450838D01*
X9530702Y55450838D02*
X9435464Y55641314D01*
X9435464Y55641314D02*
X9435464Y56212742D01*
X9435464Y56212742D02*
X9530702Y56403219D01*
X9530702Y56403219D02*
X9625940Y56498457D01*
X9625940Y56498457D02*
X9816416Y56593695D01*
X9816416Y56593695D02*
X10102131Y56593695D01*
X10102131Y56593695D02*
X10292607Y56498457D01*
X10292607Y56498457D02*
X10387845Y56403219D01*
X10387845Y56403219D02*
X10483083Y56212742D01*
X10483083Y56212742D02*
X10483083Y55641314D01*
X10483083Y55641314D02*
X10387845Y55450838D01*
X10387845Y55450838D02*
X10292607Y55355600D01*
X10292607Y55355600D02*
X10102131Y55260361D01*
X10102131Y55260361D02*
X9816416Y55260361D01*
X12197369Y55260361D02*
X12197369Y57260361D01*
X12197369Y55355600D02*
X12006893Y55260361D01*
X12006893Y55260361D02*
X11625940Y55260361D01*
X11625940Y55260361D02*
X11435464Y55355600D01*
X11435464Y55355600D02*
X11340226Y55450838D01*
X11340226Y55450838D02*
X11244988Y55641314D01*
X11244988Y55641314D02*
X11244988Y56212742D01*
X11244988Y56212742D02*
X11340226Y56403219D01*
X11340226Y56403219D02*
X11435464Y56498457D01*
X11435464Y56498457D02*
X11625940Y56593695D01*
X11625940Y56593695D02*
X12006893Y56593695D01*
X12006893Y56593695D02*
X12197369Y56498457D01*
X14673560Y55260361D02*
X14673560Y57260361D01*
X14673560Y57260361D02*
X15340227Y55831790D01*
X15340227Y55831790D02*
X16006893Y57260361D01*
X16006893Y57260361D02*
X16006893Y55260361D01*
X16959274Y55260361D02*
X16959274Y56593695D01*
X16959274Y57260361D02*
X16864036Y57165123D01*
X16864036Y57165123D02*
X16959274Y57069885D01*
X16959274Y57069885D02*
X17054512Y57165123D01*
X17054512Y57165123D02*
X16959274Y57260361D01*
X16959274Y57260361D02*
X16959274Y57069885D01*
X18768798Y55355600D02*
X18578322Y55260361D01*
X18578322Y55260361D02*
X18197369Y55260361D01*
X18197369Y55260361D02*
X18006893Y55355600D01*
X18006893Y55355600D02*
X17911655Y55450838D01*
X17911655Y55450838D02*
X17816417Y55641314D01*
X17816417Y55641314D02*
X17816417Y56212742D01*
X17816417Y56212742D02*
X17911655Y56403219D01*
X17911655Y56403219D02*
X18006893Y56498457D01*
X18006893Y56498457D02*
X18197369Y56593695D01*
X18197369Y56593695D02*
X18578322Y56593695D01*
X18578322Y56593695D02*
X18768798Y56498457D01*
X21054513Y55831790D02*
X22006894Y55831790D01*
X20864037Y55260361D02*
X21530703Y57260361D01*
X21530703Y57260361D02*
X22197370Y55260361D01*
X22864037Y55260361D02*
X22864037Y56593695D01*
X22864037Y56212742D02*
X22959275Y56403219D01*
X22959275Y56403219D02*
X23054513Y56498457D01*
X23054513Y56498457D02*
X23244989Y56593695D01*
X23244989Y56593695D02*
X23435466Y56593695D01*
X24102132Y55260361D02*
X24102132Y56593695D01*
X24102132Y56212742D02*
X24197370Y56403219D01*
X24197370Y56403219D02*
X24292608Y56498457D01*
X24292608Y56498457D02*
X24483084Y56593695D01*
X24483084Y56593695D02*
X24673561Y56593695D01*
X26197370Y55260361D02*
X26197370Y56307980D01*
X26197370Y56307980D02*
X26102132Y56498457D01*
X26102132Y56498457D02*
X25911656Y56593695D01*
X25911656Y56593695D02*
X25530703Y56593695D01*
X25530703Y56593695D02*
X25340227Y56498457D01*
X26197370Y55355600D02*
X26006894Y55260361D01*
X26006894Y55260361D02*
X25530703Y55260361D01*
X25530703Y55260361D02*
X25340227Y55355600D01*
X25340227Y55355600D02*
X25244989Y55546076D01*
X25244989Y55546076D02*
X25244989Y55736552D01*
X25244989Y55736552D02*
X25340227Y55927028D01*
X25340227Y55927028D02*
X25530703Y56022266D01*
X25530703Y56022266D02*
X26006894Y56022266D01*
X26006894Y56022266D02*
X26197370Y56117504D01*
X26959275Y56593695D02*
X27435465Y55260361D01*
X27911656Y56593695D02*
X27435465Y55260361D01*
X27435465Y55260361D02*
X27244989Y54784171D01*
X27244989Y54784171D02*
X27149751Y54688933D01*
X27149751Y54688933D02*
X26959275Y54593695D01*
X30197371Y56022266D02*
X31721181Y56022266D01*
X35340228Y55260361D02*
X34673561Y56212742D01*
X34197371Y55260361D02*
X34197371Y57260361D01*
X34197371Y57260361D02*
X34959276Y57260361D01*
X34959276Y57260361D02*
X35149752Y57165123D01*
X35149752Y57165123D02*
X35244990Y57069885D01*
X35244990Y57069885D02*
X35340228Y56879409D01*
X35340228Y56879409D02*
X35340228Y56593695D01*
X35340228Y56593695D02*
X35244990Y56403219D01*
X35244990Y56403219D02*
X35149752Y56307980D01*
X35149752Y56307980D02*
X34959276Y56212742D01*
X34959276Y56212742D02*
X34197371Y56212742D01*
X36959276Y55355600D02*
X36768800Y55260361D01*
X36768800Y55260361D02*
X36387847Y55260361D01*
X36387847Y55260361D02*
X36197371Y55355600D01*
X36197371Y55355600D02*
X36102133Y55546076D01*
X36102133Y55546076D02*
X36102133Y56307980D01*
X36102133Y56307980D02*
X36197371Y56498457D01*
X36197371Y56498457D02*
X36387847Y56593695D01*
X36387847Y56593695D02*
X36768800Y56593695D01*
X36768800Y56593695D02*
X36959276Y56498457D01*
X36959276Y56498457D02*
X37054514Y56307980D01*
X37054514Y56307980D02*
X37054514Y56117504D01*
X37054514Y56117504D02*
X36102133Y55927028D01*
X37721181Y56593695D02*
X38197371Y55260361D01*
X38197371Y55260361D02*
X38673562Y56593695D01*
X40864039Y55831790D02*
X41816420Y55831790D01*
X40673563Y55260361D02*
X41340229Y57260361D01*
X41340229Y57260361D02*
X42006896Y55260361D01*
X43054515Y57260361D02*
X43244992Y57260361D01*
X43244992Y57260361D02*
X43435468Y57165123D01*
X43435468Y57165123D02*
X43530706Y57069885D01*
X43530706Y57069885D02*
X43625944Y56879409D01*
X43625944Y56879409D02*
X43721182Y56498457D01*
X43721182Y56498457D02*
X43721182Y56022266D01*
X43721182Y56022266D02*
X43625944Y55641314D01*
X43625944Y55641314D02*
X43530706Y55450838D01*
X43530706Y55450838D02*
X43435468Y55355600D01*
X43435468Y55355600D02*
X43244992Y55260361D01*
X43244992Y55260361D02*
X43054515Y55260361D01*
X43054515Y55260361D02*
X42864039Y55355600D01*
X42864039Y55355600D02*
X42768801Y55450838D01*
X42768801Y55450838D02*
X42673563Y55641314D01*
X42673563Y55641314D02*
X42578325Y56022266D01*
X42578325Y56022266D02*
X42578325Y56498457D01*
X42578325Y56498457D02*
X42673563Y56879409D01*
X42673563Y56879409D02*
X42768801Y57069885D01*
X42768801Y57069885D02*
X42864039Y57165123D01*
X42864039Y57165123D02*
X43054515Y57260361D01*
X46102135Y56022266D02*
X47625945Y56022266D01*
X50102135Y55260361D02*
X50102135Y57260361D01*
X50102135Y57260361D02*
X50864040Y57260361D01*
X50864040Y57260361D02*
X51054516Y57165123D01*
X51054516Y57165123D02*
X51149754Y57069885D01*
X51149754Y57069885D02*
X51244992Y56879409D01*
X51244992Y56879409D02*
X51244992Y56593695D01*
X51244992Y56593695D02*
X51149754Y56403219D01*
X51149754Y56403219D02*
X51054516Y56307980D01*
X51054516Y56307980D02*
X50864040Y56212742D01*
X50864040Y56212742D02*
X50102135Y56212742D01*
X53054516Y55260361D02*
X52102135Y55260361D01*
X52102135Y55260361D02*
X52102135Y57260361D01*
X53625945Y55831790D02*
X54578326Y55831790D01*
X53435469Y55260361D02*
X54102135Y57260361D01*
X54102135Y57260361D02*
X54768802Y55260361D01*
X56578326Y55450838D02*
X56483088Y55355600D01*
X56483088Y55355600D02*
X56197374Y55260361D01*
X56197374Y55260361D02*
X56006898Y55260361D01*
X56006898Y55260361D02*
X55721183Y55355600D01*
X55721183Y55355600D02*
X55530707Y55546076D01*
X55530707Y55546076D02*
X55435469Y55736552D01*
X55435469Y55736552D02*
X55340231Y56117504D01*
X55340231Y56117504D02*
X55340231Y56403219D01*
X55340231Y56403219D02*
X55435469Y56784171D01*
X55435469Y56784171D02*
X55530707Y56974647D01*
X55530707Y56974647D02*
X55721183Y57165123D01*
X55721183Y57165123D02*
X56006898Y57260361D01*
X56006898Y57260361D02*
X56197374Y57260361D01*
X56197374Y57260361D02*
X56483088Y57165123D01*
X56483088Y57165123D02*
X56578326Y57069885D01*
X57435469Y56307980D02*
X58102136Y56307980D01*
X58387850Y55260361D02*
X57435469Y55260361D01*
X57435469Y55260361D02*
X57435469Y57260361D01*
X57435469Y57260361D02*
X58387850Y57260361D01*
X59244993Y55260361D02*
X59244993Y57260361D01*
X59244993Y56307980D02*
X60387850Y56307980D01*
X60387850Y55260361D02*
X60387850Y57260361D01*
X61721183Y57260361D02*
X62102136Y57260361D01*
X62102136Y57260361D02*
X62292612Y57165123D01*
X62292612Y57165123D02*
X62483088Y56974647D01*
X62483088Y56974647D02*
X62578326Y56593695D01*
X62578326Y56593695D02*
X62578326Y55927028D01*
X62578326Y55927028D02*
X62483088Y55546076D01*
X62483088Y55546076D02*
X62292612Y55355600D01*
X62292612Y55355600D02*
X62102136Y55260361D01*
X62102136Y55260361D02*
X61721183Y55260361D01*
X61721183Y55260361D02*
X61530707Y55355600D01*
X61530707Y55355600D02*
X61340231Y55546076D01*
X61340231Y55546076D02*
X61244993Y55927028D01*
X61244993Y55927028D02*
X61244993Y56593695D01*
X61244993Y56593695D02*
X61340231Y56974647D01*
X61340231Y56974647D02*
X61530707Y57165123D01*
X61530707Y57165123D02*
X61721183Y57260361D01*
X64387850Y55260361D02*
X63435469Y55260361D01*
X63435469Y55260361D02*
X63435469Y57260361D01*
X65054517Y55260361D02*
X65054517Y57260361D01*
X65054517Y57260361D02*
X65530707Y57260361D01*
X65530707Y57260361D02*
X65816422Y57165123D01*
X65816422Y57165123D02*
X66006898Y56974647D01*
X66006898Y56974647D02*
X66102136Y56784171D01*
X66102136Y56784171D02*
X66197374Y56403219D01*
X66197374Y56403219D02*
X66197374Y56117504D01*
X66197374Y56117504D02*
X66102136Y55736552D01*
X66102136Y55736552D02*
X66006898Y55546076D01*
X66006898Y55546076D02*
X65816422Y55355600D01*
X65816422Y55355600D02*
X65530707Y55260361D01*
X65530707Y55260361D02*
X65054517Y55260361D01*
X67054517Y56307980D02*
X67721184Y56307980D01*
X68006898Y55260361D02*
X67054517Y55260361D01*
X67054517Y55260361D02*
X67054517Y57260361D01*
X67054517Y57260361D02*
X68006898Y57260361D01*
X70006898Y55260361D02*
X69340231Y56212742D01*
X68864041Y55260361D02*
X68864041Y57260361D01*
X68864041Y57260361D02*
X69625946Y57260361D01*
X69625946Y57260361D02*
X69816422Y57165123D01*
X69816422Y57165123D02*
X69911660Y57069885D01*
X69911660Y57069885D02*
X70006898Y56879409D01*
X70006898Y56879409D02*
X70006898Y56593695D01*
X70006898Y56593695D02*
X69911660Y56403219D01*
X69911660Y56403219D02*
X69816422Y56307980D01*
X69816422Y56307980D02*
X69625946Y56212742D01*
X69625946Y56212742D02*
X68864041Y56212742D01*
X72387851Y55260361D02*
X72387851Y57260361D01*
X72387851Y57260361D02*
X73149756Y57260361D01*
X73149756Y57260361D02*
X73340232Y57165123D01*
X73340232Y57165123D02*
X73435470Y57069885D01*
X73435470Y57069885D02*
X73530708Y56879409D01*
X73530708Y56879409D02*
X73530708Y56593695D01*
X73530708Y56593695D02*
X73435470Y56403219D01*
X73435470Y56403219D02*
X73340232Y56307980D01*
X73340232Y56307980D02*
X73149756Y56212742D01*
X73149756Y56212742D02*
X72387851Y56212742D01*
X75530708Y55450838D02*
X75435470Y55355600D01*
X75435470Y55355600D02*
X75149756Y55260361D01*
X75149756Y55260361D02*
X74959280Y55260361D01*
X74959280Y55260361D02*
X74673565Y55355600D01*
X74673565Y55355600D02*
X74483089Y55546076D01*
X74483089Y55546076D02*
X74387851Y55736552D01*
X74387851Y55736552D02*
X74292613Y56117504D01*
X74292613Y56117504D02*
X74292613Y56403219D01*
X74292613Y56403219D02*
X74387851Y56784171D01*
X74387851Y56784171D02*
X74483089Y56974647D01*
X74483089Y56974647D02*
X74673565Y57165123D01*
X74673565Y57165123D02*
X74959280Y57260361D01*
X74959280Y57260361D02*
X75149756Y57260361D01*
X75149756Y57260361D02*
X75435470Y57165123D01*
X75435470Y57165123D02*
X75530708Y57069885D01*
X77054518Y56307980D02*
X77340232Y56212742D01*
X77340232Y56212742D02*
X77435470Y56117504D01*
X77435470Y56117504D02*
X77530708Y55927028D01*
X77530708Y55927028D02*
X77530708Y55641314D01*
X77530708Y55641314D02*
X77435470Y55450838D01*
X77435470Y55450838D02*
X77340232Y55355600D01*
X77340232Y55355600D02*
X77149756Y55260361D01*
X77149756Y55260361D02*
X76387851Y55260361D01*
X76387851Y55260361D02*
X76387851Y57260361D01*
X76387851Y57260361D02*
X77054518Y57260361D01*
X77054518Y57260361D02*
X77244994Y57165123D01*
X77244994Y57165123D02*
X77340232Y57069885D01*
X77340232Y57069885D02*
X77435470Y56879409D01*
X77435470Y56879409D02*
X77435470Y56688933D01*
X77435470Y56688933D02*
X77340232Y56498457D01*
X77340232Y56498457D02*
X77244994Y56403219D01*
X77244994Y56403219D02*
X77054518Y56307980D01*
X77054518Y56307980D02*
X76387851Y56307980D01*
D11*
X360149Y58214400D02*
X531578Y58157257D01*
X531578Y58157257D02*
X817292Y58157257D01*
X817292Y58157257D02*
X931578Y58214400D01*
X931578Y58214400D02*
X988720Y58271542D01*
X988720Y58271542D02*
X1045863Y58385828D01*
X1045863Y58385828D02*
X1045863Y58500114D01*
X1045863Y58500114D02*
X988720Y58614400D01*
X988720Y58614400D02*
X931578Y58671542D01*
X931578Y58671542D02*
X817292Y58728685D01*
X817292Y58728685D02*
X588720Y58785828D01*
X588720Y58785828D02*
X474435Y58842971D01*
X474435Y58842971D02*
X417292Y58900114D01*
X417292Y58900114D02*
X360149Y59014400D01*
X360149Y59014400D02*
X360149Y59128685D01*
X360149Y59128685D02*
X417292Y59242971D01*
X417292Y59242971D02*
X474435Y59300114D01*
X474435Y59300114D02*
X588720Y59357257D01*
X588720Y59357257D02*
X874435Y59357257D01*
X874435Y59357257D02*
X1045863Y59300114D01*
X2017292Y58214400D02*
X1903006Y58157257D01*
X1903006Y58157257D02*
X1674435Y58157257D01*
X1674435Y58157257D02*
X1560149Y58214400D01*
X1560149Y58214400D02*
X1503006Y58328685D01*
X1503006Y58328685D02*
X1503006Y58785828D01*
X1503006Y58785828D02*
X1560149Y58900114D01*
X1560149Y58900114D02*
X1674435Y58957257D01*
X1674435Y58957257D02*
X1903006Y58957257D01*
X1903006Y58957257D02*
X2017292Y58900114D01*
X2017292Y58900114D02*
X2074435Y58785828D01*
X2074435Y58785828D02*
X2074435Y58671542D01*
X2074435Y58671542D02*
X1503006Y58557257D01*
X3045863Y58214400D02*
X2931577Y58157257D01*
X2931577Y58157257D02*
X2703006Y58157257D01*
X2703006Y58157257D02*
X2588720Y58214400D01*
X2588720Y58214400D02*
X2531577Y58328685D01*
X2531577Y58328685D02*
X2531577Y58785828D01*
X2531577Y58785828D02*
X2588720Y58900114D01*
X2588720Y58900114D02*
X2703006Y58957257D01*
X2703006Y58957257D02*
X2931577Y58957257D01*
X2931577Y58957257D02*
X3045863Y58900114D01*
X3045863Y58900114D02*
X3103006Y58785828D01*
X3103006Y58785828D02*
X3103006Y58671542D01*
X3103006Y58671542D02*
X2531577Y58557257D01*
X4531577Y58157257D02*
X4531577Y58957257D01*
X4531577Y58842971D02*
X4588720Y58900114D01*
X4588720Y58900114D02*
X4703005Y58957257D01*
X4703005Y58957257D02*
X4874434Y58957257D01*
X4874434Y58957257D02*
X4988720Y58900114D01*
X4988720Y58900114D02*
X5045863Y58785828D01*
X5045863Y58785828D02*
X5045863Y58157257D01*
X5045863Y58785828D02*
X5103005Y58900114D01*
X5103005Y58900114D02*
X5217291Y58957257D01*
X5217291Y58957257D02*
X5388720Y58957257D01*
X5388720Y58957257D02*
X5503005Y58900114D01*
X5503005Y58900114D02*
X5560148Y58785828D01*
X5560148Y58785828D02*
X5560148Y58157257D01*
X6131577Y58157257D02*
X6131577Y58957257D01*
X6131577Y59357257D02*
X6074434Y59300114D01*
X6074434Y59300114D02*
X6131577Y59242971D01*
X6131577Y59242971D02*
X6188720Y59300114D01*
X6188720Y59300114D02*
X6131577Y59357257D01*
X6131577Y59357257D02*
X6131577Y59242971D01*
X7217292Y58214400D02*
X7103006Y58157257D01*
X7103006Y58157257D02*
X6874434Y58157257D01*
X6874434Y58157257D02*
X6760149Y58214400D01*
X6760149Y58214400D02*
X6703006Y58271542D01*
X6703006Y58271542D02*
X6645863Y58385828D01*
X6645863Y58385828D02*
X6645863Y58728685D01*
X6645863Y58728685D02*
X6703006Y58842971D01*
X6703006Y58842971D02*
X6760149Y58900114D01*
X6760149Y58900114D02*
X6874434Y58957257D01*
X6874434Y58957257D02*
X7103006Y58957257D01*
X7103006Y58957257D02*
X7217292Y58900114D01*
X7731577Y58614400D02*
X8645863Y58614400D01*
X9731577Y58157257D02*
X9731577Y58785828D01*
X9731577Y58785828D02*
X9674434Y58900114D01*
X9674434Y58900114D02*
X9560148Y58957257D01*
X9560148Y58957257D02*
X9331577Y58957257D01*
X9331577Y58957257D02*
X9217291Y58900114D01*
X9731577Y58214400D02*
X9617291Y58157257D01*
X9617291Y58157257D02*
X9331577Y58157257D01*
X9331577Y58157257D02*
X9217291Y58214400D01*
X9217291Y58214400D02*
X9160148Y58328685D01*
X9160148Y58328685D02*
X9160148Y58442971D01*
X9160148Y58442971D02*
X9217291Y58557257D01*
X9217291Y58557257D02*
X9331577Y58614400D01*
X9331577Y58614400D02*
X9617291Y58614400D01*
X9617291Y58614400D02*
X9731577Y58671542D01*
X10303005Y58157257D02*
X10303005Y58957257D01*
X10303005Y58728685D02*
X10360148Y58842971D01*
X10360148Y58842971D02*
X10417291Y58900114D01*
X10417291Y58900114D02*
X10531576Y58957257D01*
X10531576Y58957257D02*
X10645862Y58957257D01*
X11045862Y58157257D02*
X11045862Y58957257D01*
X11045862Y58728685D02*
X11103005Y58842971D01*
X11103005Y58842971D02*
X11160148Y58900114D01*
X11160148Y58900114D02*
X11274433Y58957257D01*
X11274433Y58957257D02*
X11388719Y58957257D01*
X12303005Y58157257D02*
X12303005Y58785828D01*
X12303005Y58785828D02*
X12245862Y58900114D01*
X12245862Y58900114D02*
X12131576Y58957257D01*
X12131576Y58957257D02*
X11903005Y58957257D01*
X11903005Y58957257D02*
X11788719Y58900114D01*
X12303005Y58214400D02*
X12188719Y58157257D01*
X12188719Y58157257D02*
X11903005Y58157257D01*
X11903005Y58157257D02*
X11788719Y58214400D01*
X11788719Y58214400D02*
X11731576Y58328685D01*
X11731576Y58328685D02*
X11731576Y58442971D01*
X11731576Y58442971D02*
X11788719Y58557257D01*
X11788719Y58557257D02*
X11903005Y58614400D01*
X11903005Y58614400D02*
X12188719Y58614400D01*
X12188719Y58614400D02*
X12303005Y58671542D01*
X12760147Y58957257D02*
X13045861Y58157257D01*
X13331576Y58957257D02*
X13045861Y58157257D01*
X13045861Y58157257D02*
X12931576Y57871542D01*
X12931576Y57871542D02*
X12874433Y57814400D01*
X12874433Y57814400D02*
X12760147Y57757257D01*
X13788719Y58614400D02*
X14703005Y58614400D01*
X15274433Y58157257D02*
X15274433Y58957257D01*
X15274433Y58728685D02*
X15331576Y58842971D01*
X15331576Y58842971D02*
X15388719Y58900114D01*
X15388719Y58900114D02*
X15503004Y58957257D01*
X15503004Y58957257D02*
X15617290Y58957257D01*
X16474433Y58214400D02*
X16360147Y58157257D01*
X16360147Y58157257D02*
X16131576Y58157257D01*
X16131576Y58157257D02*
X16017290Y58214400D01*
X16017290Y58214400D02*
X15960147Y58328685D01*
X15960147Y58328685D02*
X15960147Y58785828D01*
X15960147Y58785828D02*
X16017290Y58900114D01*
X16017290Y58900114D02*
X16131576Y58957257D01*
X16131576Y58957257D02*
X16360147Y58957257D01*
X16360147Y58957257D02*
X16474433Y58900114D01*
X16474433Y58900114D02*
X16531576Y58785828D01*
X16531576Y58785828D02*
X16531576Y58671542D01*
X16531576Y58671542D02*
X15960147Y58557257D01*
X16874432Y58957257D02*
X17331575Y58957257D01*
X17045861Y58157257D02*
X17045861Y59185828D01*
X17045861Y59185828D02*
X17103004Y59300114D01*
X17103004Y59300114D02*
X17217289Y59357257D01*
X17217289Y59357257D02*
X17331575Y59357257D01*
X18188718Y58214400D02*
X18074432Y58157257D01*
X18074432Y58157257D02*
X17845861Y58157257D01*
X17845861Y58157257D02*
X17731575Y58214400D01*
X17731575Y58214400D02*
X17674432Y58328685D01*
X17674432Y58328685D02*
X17674432Y58785828D01*
X17674432Y58785828D02*
X17731575Y58900114D01*
X17731575Y58900114D02*
X17845861Y58957257D01*
X17845861Y58957257D02*
X18074432Y58957257D01*
X18074432Y58957257D02*
X18188718Y58900114D01*
X18188718Y58900114D02*
X18245861Y58785828D01*
X18245861Y58785828D02*
X18245861Y58671542D01*
X18245861Y58671542D02*
X17674432Y58557257D01*
X18760146Y58157257D02*
X18760146Y58957257D01*
X18760146Y58728685D02*
X18817289Y58842971D01*
X18817289Y58842971D02*
X18874432Y58900114D01*
X18874432Y58900114D02*
X18988717Y58957257D01*
X18988717Y58957257D02*
X19103003Y58957257D01*
X19960146Y58214400D02*
X19845860Y58157257D01*
X19845860Y58157257D02*
X19617289Y58157257D01*
X19617289Y58157257D02*
X19503003Y58214400D01*
X19503003Y58214400D02*
X19445860Y58328685D01*
X19445860Y58328685D02*
X19445860Y58785828D01*
X19445860Y58785828D02*
X19503003Y58900114D01*
X19503003Y58900114D02*
X19617289Y58957257D01*
X19617289Y58957257D02*
X19845860Y58957257D01*
X19845860Y58957257D02*
X19960146Y58900114D01*
X19960146Y58900114D02*
X20017289Y58785828D01*
X20017289Y58785828D02*
X20017289Y58671542D01*
X20017289Y58671542D02*
X19445860Y58557257D01*
X20531574Y58957257D02*
X20531574Y58157257D01*
X20531574Y58842971D02*
X20588717Y58900114D01*
X20588717Y58900114D02*
X20703002Y58957257D01*
X20703002Y58957257D02*
X20874431Y58957257D01*
X20874431Y58957257D02*
X20988717Y58900114D01*
X20988717Y58900114D02*
X21045860Y58785828D01*
X21045860Y58785828D02*
X21045860Y58157257D01*
X22131574Y58214400D02*
X22017288Y58157257D01*
X22017288Y58157257D02*
X21788716Y58157257D01*
X21788716Y58157257D02*
X21674431Y58214400D01*
X21674431Y58214400D02*
X21617288Y58271542D01*
X21617288Y58271542D02*
X21560145Y58385828D01*
X21560145Y58385828D02*
X21560145Y58728685D01*
X21560145Y58728685D02*
X21617288Y58842971D01*
X21617288Y58842971D02*
X21674431Y58900114D01*
X21674431Y58900114D02*
X21788716Y58957257D01*
X21788716Y58957257D02*
X22017288Y58957257D01*
X22017288Y58957257D02*
X22131574Y58900114D01*
X23103002Y58214400D02*
X22988716Y58157257D01*
X22988716Y58157257D02*
X22760145Y58157257D01*
X22760145Y58157257D02*
X22645859Y58214400D01*
X22645859Y58214400D02*
X22588716Y58328685D01*
X22588716Y58328685D02*
X22588716Y58785828D01*
X22588716Y58785828D02*
X22645859Y58900114D01*
X22645859Y58900114D02*
X22760145Y58957257D01*
X22760145Y58957257D02*
X22988716Y58957257D01*
X22988716Y58957257D02*
X23103002Y58900114D01*
X23103002Y58900114D02*
X23160145Y58785828D01*
X23160145Y58785828D02*
X23160145Y58671542D01*
X23160145Y58671542D02*
X22588716Y58557257D01*
X23674430Y58614400D02*
X24588716Y58614400D01*
X25674430Y58157257D02*
X25674430Y59357257D01*
X25674430Y58214400D02*
X25560144Y58157257D01*
X25560144Y58157257D02*
X25331572Y58157257D01*
X25331572Y58157257D02*
X25217287Y58214400D01*
X25217287Y58214400D02*
X25160144Y58271542D01*
X25160144Y58271542D02*
X25103001Y58385828D01*
X25103001Y58385828D02*
X25103001Y58728685D01*
X25103001Y58728685D02*
X25160144Y58842971D01*
X25160144Y58842971D02*
X25217287Y58900114D01*
X25217287Y58900114D02*
X25331572Y58957257D01*
X25331572Y58957257D02*
X25560144Y58957257D01*
X25560144Y58957257D02*
X25674430Y58900114D01*
X26703001Y58214400D02*
X26588715Y58157257D01*
X26588715Y58157257D02*
X26360144Y58157257D01*
X26360144Y58157257D02*
X26245858Y58214400D01*
X26245858Y58214400D02*
X26188715Y58328685D01*
X26188715Y58328685D02*
X26188715Y58785828D01*
X26188715Y58785828D02*
X26245858Y58900114D01*
X26245858Y58900114D02*
X26360144Y58957257D01*
X26360144Y58957257D02*
X26588715Y58957257D01*
X26588715Y58957257D02*
X26703001Y58900114D01*
X26703001Y58900114D02*
X26760144Y58785828D01*
X26760144Y58785828D02*
X26760144Y58671542D01*
X26760144Y58671542D02*
X26188715Y58557257D01*
X27217286Y58214400D02*
X27331572Y58157257D01*
X27331572Y58157257D02*
X27560143Y58157257D01*
X27560143Y58157257D02*
X27674429Y58214400D01*
X27674429Y58214400D02*
X27731572Y58328685D01*
X27731572Y58328685D02*
X27731572Y58385828D01*
X27731572Y58385828D02*
X27674429Y58500114D01*
X27674429Y58500114D02*
X27560143Y58557257D01*
X27560143Y58557257D02*
X27388715Y58557257D01*
X27388715Y58557257D02*
X27274429Y58614400D01*
X27274429Y58614400D02*
X27217286Y58728685D01*
X27217286Y58728685D02*
X27217286Y58785828D01*
X27217286Y58785828D02*
X27274429Y58900114D01*
X27274429Y58900114D02*
X27388715Y58957257D01*
X27388715Y58957257D02*
X27560143Y58957257D01*
X27560143Y58957257D02*
X27674429Y58900114D01*
X28245858Y58157257D02*
X28245858Y58957257D01*
X28245858Y59357257D02*
X28188715Y59300114D01*
X28188715Y59300114D02*
X28245858Y59242971D01*
X28245858Y59242971D02*
X28303001Y59300114D01*
X28303001Y59300114D02*
X28245858Y59357257D01*
X28245858Y59357257D02*
X28245858Y59242971D01*
X29331573Y58957257D02*
X29331573Y57985828D01*
X29331573Y57985828D02*
X29274430Y57871542D01*
X29274430Y57871542D02*
X29217287Y57814400D01*
X29217287Y57814400D02*
X29103001Y57757257D01*
X29103001Y57757257D02*
X28931573Y57757257D01*
X28931573Y57757257D02*
X28817287Y57814400D01*
X29331573Y58214400D02*
X29217287Y58157257D01*
X29217287Y58157257D02*
X28988715Y58157257D01*
X28988715Y58157257D02*
X28874430Y58214400D01*
X28874430Y58214400D02*
X28817287Y58271542D01*
X28817287Y58271542D02*
X28760144Y58385828D01*
X28760144Y58385828D02*
X28760144Y58728685D01*
X28760144Y58728685D02*
X28817287Y58842971D01*
X28817287Y58842971D02*
X28874430Y58900114D01*
X28874430Y58900114D02*
X28988715Y58957257D01*
X28988715Y58957257D02*
X29217287Y58957257D01*
X29217287Y58957257D02*
X29331573Y58900114D01*
X29903001Y58957257D02*
X29903001Y58157257D01*
X29903001Y58842971D02*
X29960144Y58900114D01*
X29960144Y58900114D02*
X30074429Y58957257D01*
X30074429Y58957257D02*
X30245858Y58957257D01*
X30245858Y58957257D02*
X30360144Y58900114D01*
X30360144Y58900114D02*
X30417287Y58785828D01*
X30417287Y58785828D02*
X30417287Y58157257D01*
X30988715Y58271542D02*
X31045858Y58214400D01*
X31045858Y58214400D02*
X30988715Y58157257D01*
X30988715Y58157257D02*
X30931572Y58214400D01*
X30931572Y58214400D02*
X30988715Y58271542D01*
X30988715Y58271542D02*
X30988715Y58157257D01*
X31560144Y58157257D02*
X31560144Y58957257D01*
X31560144Y58842971D02*
X31617287Y58900114D01*
X31617287Y58900114D02*
X31731572Y58957257D01*
X31731572Y58957257D02*
X31903001Y58957257D01*
X31903001Y58957257D02*
X32017287Y58900114D01*
X32017287Y58900114D02*
X32074430Y58785828D01*
X32074430Y58785828D02*
X32074430Y58157257D01*
X32074430Y58785828D02*
X32131572Y58900114D01*
X32131572Y58900114D02*
X32245858Y58957257D01*
X32245858Y58957257D02*
X32417287Y58957257D01*
X32417287Y58957257D02*
X32531572Y58900114D01*
X32531572Y58900114D02*
X32588715Y58785828D01*
X32588715Y58785828D02*
X32588715Y58157257D01*
X33674430Y58157257D02*
X33674430Y59357257D01*
X33674430Y58214400D02*
X33560144Y58157257D01*
X33560144Y58157257D02*
X33331572Y58157257D01*
X33331572Y58157257D02*
X33217287Y58214400D01*
X33217287Y58214400D02*
X33160144Y58271542D01*
X33160144Y58271542D02*
X33103001Y58385828D01*
X33103001Y58385828D02*
X33103001Y58728685D01*
X33103001Y58728685D02*
X33160144Y58842971D01*
X33160144Y58842971D02*
X33217287Y58900114D01*
X33217287Y58900114D02*
X33331572Y58957257D01*
X33331572Y58957257D02*
X33560144Y58957257D01*
X33560144Y58957257D02*
X33674430Y58900114D01*
X34988715Y58957257D02*
X35445858Y58957257D01*
X35160144Y58157257D02*
X35160144Y59185828D01*
X35160144Y59185828D02*
X35217287Y59300114D01*
X35217287Y59300114D02*
X35331572Y59357257D01*
X35331572Y59357257D02*
X35445858Y59357257D01*
X36017286Y58157257D02*
X35903001Y58214400D01*
X35903001Y58214400D02*
X35845858Y58271542D01*
X35845858Y58271542D02*
X35788715Y58385828D01*
X35788715Y58385828D02*
X35788715Y58728685D01*
X35788715Y58728685D02*
X35845858Y58842971D01*
X35845858Y58842971D02*
X35903001Y58900114D01*
X35903001Y58900114D02*
X36017286Y58957257D01*
X36017286Y58957257D02*
X36188715Y58957257D01*
X36188715Y58957257D02*
X36303001Y58900114D01*
X36303001Y58900114D02*
X36360144Y58842971D01*
X36360144Y58842971D02*
X36417286Y58728685D01*
X36417286Y58728685D02*
X36417286Y58385828D01*
X36417286Y58385828D02*
X36360144Y58271542D01*
X36360144Y58271542D02*
X36303001Y58214400D01*
X36303001Y58214400D02*
X36188715Y58157257D01*
X36188715Y58157257D02*
X36017286Y58157257D01*
X36931572Y58157257D02*
X36931572Y58957257D01*
X36931572Y58728685D02*
X36988715Y58842971D01*
X36988715Y58842971D02*
X37045858Y58900114D01*
X37045858Y58900114D02*
X37160143Y58957257D01*
X37160143Y58957257D02*
X37274429Y58957257D01*
X38988715Y58785828D02*
X39160143Y58728685D01*
X39160143Y58728685D02*
X39217286Y58671542D01*
X39217286Y58671542D02*
X39274429Y58557257D01*
X39274429Y58557257D02*
X39274429Y58385828D01*
X39274429Y58385828D02*
X39217286Y58271542D01*
X39217286Y58271542D02*
X39160143Y58214400D01*
X39160143Y58214400D02*
X39045858Y58157257D01*
X39045858Y58157257D02*
X38588715Y58157257D01*
X38588715Y58157257D02*
X38588715Y59357257D01*
X38588715Y59357257D02*
X38988715Y59357257D01*
X38988715Y59357257D02*
X39103001Y59300114D01*
X39103001Y59300114D02*
X39160143Y59242971D01*
X39160143Y59242971D02*
X39217286Y59128685D01*
X39217286Y59128685D02*
X39217286Y59014400D01*
X39217286Y59014400D02*
X39160143Y58900114D01*
X39160143Y58900114D02*
X39103001Y58842971D01*
X39103001Y58842971D02*
X38988715Y58785828D01*
X38988715Y58785828D02*
X38588715Y58785828D01*
X40017286Y59357257D02*
X40245858Y59357257D01*
X40245858Y59357257D02*
X40360143Y59300114D01*
X40360143Y59300114D02*
X40474429Y59185828D01*
X40474429Y59185828D02*
X40531572Y58957257D01*
X40531572Y58957257D02*
X40531572Y58557257D01*
X40531572Y58557257D02*
X40474429Y58328685D01*
X40474429Y58328685D02*
X40360143Y58214400D01*
X40360143Y58214400D02*
X40245858Y58157257D01*
X40245858Y58157257D02*
X40017286Y58157257D01*
X40017286Y58157257D02*
X39903001Y58214400D01*
X39903001Y58214400D02*
X39788715Y58328685D01*
X39788715Y58328685D02*
X39731572Y58557257D01*
X39731572Y58557257D02*
X39731572Y58957257D01*
X39731572Y58957257D02*
X39788715Y59185828D01*
X39788715Y59185828D02*
X39903001Y59300114D01*
X39903001Y59300114D02*
X40017286Y59357257D01*
X41045858Y58157257D02*
X41045858Y59357257D01*
X41045858Y59357257D02*
X41445858Y58500114D01*
X41445858Y58500114D02*
X41845858Y59357257D01*
X41845858Y59357257D02*
X41845858Y58157257D01*
X43845859Y58157257D02*
X43845859Y58785828D01*
X43845859Y58785828D02*
X43788716Y58900114D01*
X43788716Y58900114D02*
X43674430Y58957257D01*
X43674430Y58957257D02*
X43445859Y58957257D01*
X43445859Y58957257D02*
X43331573Y58900114D01*
X43845859Y58214400D02*
X43731573Y58157257D01*
X43731573Y58157257D02*
X43445859Y58157257D01*
X43445859Y58157257D02*
X43331573Y58214400D01*
X43331573Y58214400D02*
X43274430Y58328685D01*
X43274430Y58328685D02*
X43274430Y58442971D01*
X43274430Y58442971D02*
X43331573Y58557257D01*
X43331573Y58557257D02*
X43445859Y58614400D01*
X43445859Y58614400D02*
X43731573Y58614400D01*
X43731573Y58614400D02*
X43845859Y58671542D01*
X44417287Y58957257D02*
X44417287Y58157257D01*
X44417287Y58842971D02*
X44474430Y58900114D01*
X44474430Y58900114D02*
X44588715Y58957257D01*
X44588715Y58957257D02*
X44760144Y58957257D01*
X44760144Y58957257D02*
X44874430Y58900114D01*
X44874430Y58900114D02*
X44931573Y58785828D01*
X44931573Y58785828D02*
X44931573Y58157257D01*
X46017287Y58157257D02*
X46017287Y59357257D01*
X46017287Y58214400D02*
X45903001Y58157257D01*
X45903001Y58157257D02*
X45674429Y58157257D01*
X45674429Y58157257D02*
X45560144Y58214400D01*
X45560144Y58214400D02*
X45503001Y58271542D01*
X45503001Y58271542D02*
X45445858Y58385828D01*
X45445858Y58385828D02*
X45445858Y58728685D01*
X45445858Y58728685D02*
X45503001Y58842971D01*
X45503001Y58842971D02*
X45560144Y58900114D01*
X45560144Y58900114D02*
X45674429Y58957257D01*
X45674429Y58957257D02*
X45903001Y58957257D01*
X45903001Y58957257D02*
X46017287Y58900114D01*
X47503001Y58957257D02*
X47503001Y57757257D01*
X47503001Y58900114D02*
X47617287Y58957257D01*
X47617287Y58957257D02*
X47845858Y58957257D01*
X47845858Y58957257D02*
X47960144Y58900114D01*
X47960144Y58900114D02*
X48017287Y58842971D01*
X48017287Y58842971D02*
X48074429Y58728685D01*
X48074429Y58728685D02*
X48074429Y58385828D01*
X48074429Y58385828D02*
X48017287Y58271542D01*
X48017287Y58271542D02*
X47960144Y58214400D01*
X47960144Y58214400D02*
X47845858Y58157257D01*
X47845858Y58157257D02*
X47617287Y58157257D01*
X47617287Y58157257D02*
X47503001Y58214400D01*
X48760143Y58157257D02*
X48645858Y58214400D01*
X48645858Y58214400D02*
X48588715Y58328685D01*
X48588715Y58328685D02*
X48588715Y59357257D01*
X49731572Y58157257D02*
X49731572Y58785828D01*
X49731572Y58785828D02*
X49674429Y58900114D01*
X49674429Y58900114D02*
X49560143Y58957257D01*
X49560143Y58957257D02*
X49331572Y58957257D01*
X49331572Y58957257D02*
X49217286Y58900114D01*
X49731572Y58214400D02*
X49617286Y58157257D01*
X49617286Y58157257D02*
X49331572Y58157257D01*
X49331572Y58157257D02*
X49217286Y58214400D01*
X49217286Y58214400D02*
X49160143Y58328685D01*
X49160143Y58328685D02*
X49160143Y58442971D01*
X49160143Y58442971D02*
X49217286Y58557257D01*
X49217286Y58557257D02*
X49331572Y58614400D01*
X49331572Y58614400D02*
X49617286Y58614400D01*
X49617286Y58614400D02*
X49731572Y58671542D01*
X50817286Y58214400D02*
X50703000Y58157257D01*
X50703000Y58157257D02*
X50474428Y58157257D01*
X50474428Y58157257D02*
X50360143Y58214400D01*
X50360143Y58214400D02*
X50303000Y58271542D01*
X50303000Y58271542D02*
X50245857Y58385828D01*
X50245857Y58385828D02*
X50245857Y58728685D01*
X50245857Y58728685D02*
X50303000Y58842971D01*
X50303000Y58842971D02*
X50360143Y58900114D01*
X50360143Y58900114D02*
X50474428Y58957257D01*
X50474428Y58957257D02*
X50703000Y58957257D01*
X50703000Y58957257D02*
X50817286Y58900114D01*
X51788714Y58214400D02*
X51674428Y58157257D01*
X51674428Y58157257D02*
X51445857Y58157257D01*
X51445857Y58157257D02*
X51331571Y58214400D01*
X51331571Y58214400D02*
X51274428Y58328685D01*
X51274428Y58328685D02*
X51274428Y58785828D01*
X51274428Y58785828D02*
X51331571Y58900114D01*
X51331571Y58900114D02*
X51445857Y58957257D01*
X51445857Y58957257D02*
X51674428Y58957257D01*
X51674428Y58957257D02*
X51788714Y58900114D01*
X51788714Y58900114D02*
X51845857Y58785828D01*
X51845857Y58785828D02*
X51845857Y58671542D01*
X51845857Y58671542D02*
X51274428Y58557257D01*
X52360142Y58157257D02*
X52360142Y58957257D01*
X52360142Y58842971D02*
X52417285Y58900114D01*
X52417285Y58900114D02*
X52531570Y58957257D01*
X52531570Y58957257D02*
X52702999Y58957257D01*
X52702999Y58957257D02*
X52817285Y58900114D01*
X52817285Y58900114D02*
X52874428Y58785828D01*
X52874428Y58785828D02*
X52874428Y58157257D01*
X52874428Y58785828D02*
X52931570Y58900114D01*
X52931570Y58900114D02*
X53045856Y58957257D01*
X53045856Y58957257D02*
X53217285Y58957257D01*
X53217285Y58957257D02*
X53331570Y58900114D01*
X53331570Y58900114D02*
X53388713Y58785828D01*
X53388713Y58785828D02*
X53388713Y58157257D01*
X54417285Y58214400D02*
X54302999Y58157257D01*
X54302999Y58157257D02*
X54074428Y58157257D01*
X54074428Y58157257D02*
X53960142Y58214400D01*
X53960142Y58214400D02*
X53902999Y58328685D01*
X53902999Y58328685D02*
X53902999Y58785828D01*
X53902999Y58785828D02*
X53960142Y58900114D01*
X53960142Y58900114D02*
X54074428Y58957257D01*
X54074428Y58957257D02*
X54302999Y58957257D01*
X54302999Y58957257D02*
X54417285Y58900114D01*
X54417285Y58900114D02*
X54474428Y58785828D01*
X54474428Y58785828D02*
X54474428Y58671542D01*
X54474428Y58671542D02*
X53902999Y58557257D01*
X54988713Y58957257D02*
X54988713Y58157257D01*
X54988713Y58842971D02*
X55045856Y58900114D01*
X55045856Y58900114D02*
X55160141Y58957257D01*
X55160141Y58957257D02*
X55331570Y58957257D01*
X55331570Y58957257D02*
X55445856Y58900114D01*
X55445856Y58900114D02*
X55502999Y58785828D01*
X55502999Y58785828D02*
X55502999Y58157257D01*
X55902998Y58957257D02*
X56360141Y58957257D01*
X56074427Y59357257D02*
X56074427Y58328685D01*
X56074427Y58328685D02*
X56131570Y58214400D01*
X56131570Y58214400D02*
X56245855Y58157257D01*
X56245855Y58157257D02*
X56360141Y58157257D01*
X57674427Y58957257D02*
X57674427Y57757257D01*
X57674427Y58900114D02*
X57788713Y58957257D01*
X57788713Y58957257D02*
X58017284Y58957257D01*
X58017284Y58957257D02*
X58131570Y58900114D01*
X58131570Y58900114D02*
X58188713Y58842971D01*
X58188713Y58842971D02*
X58245855Y58728685D01*
X58245855Y58728685D02*
X58245855Y58385828D01*
X58245855Y58385828D02*
X58188713Y58271542D01*
X58188713Y58271542D02*
X58131570Y58214400D01*
X58131570Y58214400D02*
X58017284Y58157257D01*
X58017284Y58157257D02*
X57788713Y58157257D01*
X57788713Y58157257D02*
X57674427Y58214400D01*
X58931569Y58157257D02*
X58817284Y58214400D01*
X58817284Y58214400D02*
X58760141Y58328685D01*
X58760141Y58328685D02*
X58760141Y59357257D01*
X59902998Y58157257D02*
X59902998Y58785828D01*
X59902998Y58785828D02*
X59845855Y58900114D01*
X59845855Y58900114D02*
X59731569Y58957257D01*
X59731569Y58957257D02*
X59502998Y58957257D01*
X59502998Y58957257D02*
X59388712Y58900114D01*
X59902998Y58214400D02*
X59788712Y58157257D01*
X59788712Y58157257D02*
X59502998Y58157257D01*
X59502998Y58157257D02*
X59388712Y58214400D01*
X59388712Y58214400D02*
X59331569Y58328685D01*
X59331569Y58328685D02*
X59331569Y58442971D01*
X59331569Y58442971D02*
X59388712Y58557257D01*
X59388712Y58557257D02*
X59502998Y58614400D01*
X59502998Y58614400D02*
X59788712Y58614400D01*
X59788712Y58614400D02*
X59902998Y58671542D01*
X60474426Y58957257D02*
X60474426Y58157257D01*
X60474426Y58842971D02*
X60531569Y58900114D01*
X60531569Y58900114D02*
X60645854Y58957257D01*
X60645854Y58957257D02*
X60817283Y58957257D01*
X60817283Y58957257D02*
X60931569Y58900114D01*
X60931569Y58900114D02*
X60988712Y58785828D01*
X60988712Y58785828D02*
X60988712Y58157257D01*
M02*
