%TF.GenerationSoftware,KiCad,Pcbnew,10.0.5*%
%TF.CreationDate,2026-08-03T20:27:08-07:00*%
%TF.ProjectId,palpod-orb-routed,70616c70-6f64-42d6-9f72-622d726f7574,A0*%
%TF.SameCoordinates,Original*%
%TF.FileFunction,Legend,Top*%
%TF.FilePolarity,Positive*%
%FSLAX46Y46*%
G04 Gerber Fmt 4.6, Leading zero omitted, Abs format (unit mm)*
G04 Created by KiCad (PCBNEW 10.0.5) date 2026-08-03 20:27:08*
%MOMM*%
%LPD*%
G01*
G04 APERTURE LIST*
%ADD10C,0.120000*%
%ADD11C,0.150000*%
%ADD12C,0.200000*%
%ADD13C,0.275000*%
G04 APERTURE END LIST*
D10*
X-16192481Y9116382D02*
X-16492481Y9544954D01*
X-16706767Y9116382D02*
X-16706767Y10016382D01*
X-16706767Y10016382D02*
X-16363910Y10016382D01*
X-16363910Y10016382D02*
X-16278195Y9973525D01*
X-16278195Y9973525D02*
X-16235338Y9930668D01*
X-16235338Y9930668D02*
X-16192481Y9844954D01*
X-16192481Y9844954D02*
X-16192481Y9716382D01*
X-16192481Y9716382D02*
X-16235338Y9630668D01*
X-16235338Y9630668D02*
X-16278195Y9587811D01*
X-16278195Y9587811D02*
X-16363910Y9544954D01*
X-16363910Y9544954D02*
X-16706767Y9544954D01*
X-15806767Y9116382D02*
X-15806767Y9716382D01*
X-15806767Y10016382D02*
X-15849624Y9973525D01*
X-15849624Y9973525D02*
X-15806767Y9930668D01*
X-15806767Y9930668D02*
X-15763910Y9973525D01*
X-15763910Y9973525D02*
X-15806767Y10016382D01*
X-15806767Y10016382D02*
X-15806767Y9930668D01*
X-14992482Y9716382D02*
X-14992482Y8987811D01*
X-14992482Y8987811D02*
X-15035339Y8902097D01*
X-15035339Y8902097D02*
X-15078196Y8859240D01*
X-15078196Y8859240D02*
X-15163910Y8816382D01*
X-15163910Y8816382D02*
X-15292482Y8816382D01*
X-15292482Y8816382D02*
X-15378196Y8859240D01*
X-14992482Y9159240D02*
X-15078196Y9116382D01*
X-15078196Y9116382D02*
X-15249624Y9116382D01*
X-15249624Y9116382D02*
X-15335339Y9159240D01*
X-15335339Y9159240D02*
X-15378196Y9202097D01*
X-15378196Y9202097D02*
X-15421053Y9287811D01*
X-15421053Y9287811D02*
X-15421053Y9544954D01*
X-15421053Y9544954D02*
X-15378196Y9630668D01*
X-15378196Y9630668D02*
X-15335339Y9673525D01*
X-15335339Y9673525D02*
X-15249624Y9716382D01*
X-15249624Y9716382D02*
X-15078196Y9716382D01*
X-15078196Y9716382D02*
X-14992482Y9673525D01*
X-14563910Y9116382D02*
X-14563910Y9716382D01*
X-14563910Y10016382D02*
X-14606767Y9973525D01*
X-14606767Y9973525D02*
X-14563910Y9930668D01*
X-14563910Y9930668D02*
X-14521053Y9973525D01*
X-14521053Y9973525D02*
X-14563910Y10016382D01*
X-14563910Y10016382D02*
X-14563910Y9930668D01*
X-13749625Y9116382D02*
X-13749625Y10016382D01*
X-13749625Y9159240D02*
X-13835339Y9116382D01*
X-13835339Y9116382D02*
X-14006767Y9116382D01*
X-14006767Y9116382D02*
X-14092482Y9159240D01*
X-14092482Y9159240D02*
X-14135339Y9202097D01*
X-14135339Y9202097D02*
X-14178196Y9287811D01*
X-14178196Y9287811D02*
X-14178196Y9544954D01*
X-14178196Y9544954D02*
X-14135339Y9630668D01*
X-14135339Y9630668D02*
X-14092482Y9673525D01*
X-14092482Y9673525D02*
X-14006767Y9716382D01*
X-14006767Y9716382D02*
X-13835339Y9716382D01*
X-13835339Y9716382D02*
X-13749625Y9673525D01*
X-12849624Y9116382D02*
X-13363910Y9116382D01*
X-13106767Y9116382D02*
X-13106767Y10016382D01*
X-13106767Y10016382D02*
X-13192481Y9887811D01*
X-13192481Y9887811D02*
X-13278196Y9802097D01*
X-13278196Y9802097D02*
X-13363910Y9759240D01*
X-12463910Y9202097D02*
X-12421053Y9159240D01*
X-12421053Y9159240D02*
X-12463910Y9116382D01*
X-12463910Y9116382D02*
X-12506767Y9159240D01*
X-12506767Y9159240D02*
X-12463910Y9202097D01*
X-12463910Y9202097D02*
X-12463910Y9116382D01*
X-12463910Y9673525D02*
X-12421053Y9630668D01*
X-12421053Y9630668D02*
X-12463910Y9587811D01*
X-12463910Y9587811D02*
X-12506767Y9630668D01*
X-12506767Y9630668D02*
X-12463910Y9673525D01*
X-12463910Y9673525D02*
X-12463910Y9587811D01*
X-11349625Y9716382D02*
X-11349625Y9116382D01*
X-11349625Y9630668D02*
X-11306768Y9673525D01*
X-11306768Y9673525D02*
X-11221053Y9716382D01*
X-11221053Y9716382D02*
X-11092482Y9716382D01*
X-11092482Y9716382D02*
X-11006768Y9673525D01*
X-11006768Y9673525D02*
X-10963911Y9587811D01*
X-10963911Y9587811D02*
X-10963911Y9116382D01*
X-10021053Y9116382D02*
X-10321053Y9544954D01*
X-10535339Y9116382D02*
X-10535339Y10016382D01*
X-10535339Y10016382D02*
X-10192482Y10016382D01*
X-10192482Y10016382D02*
X-10106767Y9973525D01*
X-10106767Y9973525D02*
X-10063910Y9930668D01*
X-10063910Y9930668D02*
X-10021053Y9844954D01*
X-10021053Y9844954D02*
X-10021053Y9716382D01*
X-10021053Y9716382D02*
X-10063910Y9630668D01*
X-10063910Y9630668D02*
X-10106767Y9587811D01*
X-10106767Y9587811D02*
X-10192482Y9544954D01*
X-10192482Y9544954D02*
X-10535339Y9544954D01*
X-9335339Y9587811D02*
X-9635339Y9587811D01*
X-9635339Y9116382D02*
X-9635339Y10016382D01*
X-9635339Y10016382D02*
X-9206767Y10016382D01*
X-8435338Y10016382D02*
X-8863910Y10016382D01*
X-8863910Y10016382D02*
X-8906767Y9587811D01*
X-8906767Y9587811D02*
X-8863910Y9630668D01*
X-8863910Y9630668D02*
X-8778196Y9673525D01*
X-8778196Y9673525D02*
X-8563910Y9673525D01*
X-8563910Y9673525D02*
X-8478196Y9630668D01*
X-8478196Y9630668D02*
X-8435338Y9587811D01*
X-8435338Y9587811D02*
X-8392481Y9502097D01*
X-8392481Y9502097D02*
X-8392481Y9287811D01*
X-8392481Y9287811D02*
X-8435338Y9202097D01*
X-8435338Y9202097D02*
X-8478196Y9159240D01*
X-8478196Y9159240D02*
X-8563910Y9116382D01*
X-8563910Y9116382D02*
X-8778196Y9116382D01*
X-8778196Y9116382D02*
X-8863910Y9159240D01*
X-8863910Y9159240D02*
X-8906767Y9202097D01*
X-7621053Y9716382D02*
X-7621053Y9116382D01*
X-7835338Y10059240D02*
X-8049624Y9416382D01*
X-8049624Y9416382D02*
X-7492481Y9416382D01*
X-7149624Y9116382D02*
X-7149624Y10016382D01*
X-7149624Y9587811D02*
X-6635338Y9587811D01*
X-6635338Y9116382D02*
X-6635338Y10016382D01*
X-6249624Y9930668D02*
X-6206767Y9973525D01*
X-6206767Y9973525D02*
X-6121053Y10016382D01*
X-6121053Y10016382D02*
X-5906767Y10016382D01*
X-5906767Y10016382D02*
X-5821053Y9973525D01*
X-5821053Y9973525D02*
X-5778195Y9930668D01*
X-5778195Y9930668D02*
X-5735338Y9844954D01*
X-5735338Y9844954D02*
X-5735338Y9759240D01*
X-5735338Y9759240D02*
X-5778195Y9630668D01*
X-5778195Y9630668D02*
X-6292481Y9116382D01*
X-6292481Y9116382D02*
X-5735338Y9116382D01*
X-5178195Y10016382D02*
X-5092481Y10016382D01*
X-5092481Y10016382D02*
X-5006767Y9973525D01*
X-5006767Y9973525D02*
X-4963910Y9930668D01*
X-4963910Y9930668D02*
X-4921052Y9844954D01*
X-4921052Y9844954D02*
X-4878195Y9673525D01*
X-4878195Y9673525D02*
X-4878195Y9459240D01*
X-4878195Y9459240D02*
X-4921052Y9287811D01*
X-4921052Y9287811D02*
X-4963910Y9202097D01*
X-4963910Y9202097D02*
X-5006767Y9159240D01*
X-5006767Y9159240D02*
X-5092481Y9116382D01*
X-5092481Y9116382D02*
X-5178195Y9116382D01*
X-5178195Y9116382D02*
X-5263910Y9159240D01*
X-5263910Y9159240D02*
X-5306767Y9202097D01*
X-5306767Y9202097D02*
X-5349624Y9287811D01*
X-5349624Y9287811D02*
X-5392481Y9459240D01*
X-5392481Y9459240D02*
X-5392481Y9673525D01*
X-5392481Y9673525D02*
X-5349624Y9844954D01*
X-5349624Y9844954D02*
X-5306767Y9930668D01*
X-5306767Y9930668D02*
X-5263910Y9973525D01*
X-5263910Y9973525D02*
X-5178195Y10016382D01*
X-3806767Y9459240D02*
X-3121053Y9459240D01*
X-3463910Y9116382D02*
X-3463910Y9802097D01*
X-2006767Y9116382D02*
X-2006767Y10016382D01*
X-2006767Y10016382D02*
X-1706767Y9373525D01*
X-1706767Y9373525D02*
X-1406767Y10016382D01*
X-1406767Y10016382D02*
X-1406767Y9116382D01*
X-978196Y9116382D02*
X-978196Y10016382D01*
X-549625Y9116382D02*
X-549625Y10016382D01*
X-549625Y10016382D02*
X-206768Y10016382D01*
X-206768Y10016382D02*
X-121053Y9973525D01*
X-121053Y9973525D02*
X-78196Y9930668D01*
X-78196Y9930668D02*
X-35339Y9844954D01*
X-35339Y9844954D02*
X-35339Y9716382D01*
X-35339Y9716382D02*
X-78196Y9630668D01*
X-78196Y9630668D02*
X-121053Y9587811D01*
X-121053Y9587811D02*
X-206768Y9544954D01*
X-206768Y9544954D02*
X-549625Y9544954D01*
X350374Y9116382D02*
X350374Y10016382D01*
X1850374Y9116382D02*
X1850374Y9587811D01*
X1850374Y9587811D02*
X1807516Y9673525D01*
X1807516Y9673525D02*
X1721802Y9716382D01*
X1721802Y9716382D02*
X1550374Y9716382D01*
X1550374Y9716382D02*
X1464659Y9673525D01*
X1850374Y9159240D02*
X1764659Y9116382D01*
X1764659Y9116382D02*
X1550374Y9116382D01*
X1550374Y9116382D02*
X1464659Y9159240D01*
X1464659Y9159240D02*
X1421802Y9244954D01*
X1421802Y9244954D02*
X1421802Y9330668D01*
X1421802Y9330668D02*
X1464659Y9416382D01*
X1464659Y9416382D02*
X1550374Y9459240D01*
X1550374Y9459240D02*
X1764659Y9459240D01*
X1764659Y9459240D02*
X1850374Y9502097D01*
X2664660Y9716382D02*
X2664660Y8987811D01*
X2664660Y8987811D02*
X2621802Y8902097D01*
X2621802Y8902097D02*
X2578945Y8859240D01*
X2578945Y8859240D02*
X2493231Y8816382D01*
X2493231Y8816382D02*
X2364660Y8816382D01*
X2364660Y8816382D02*
X2278945Y8859240D01*
X2664660Y9159240D02*
X2578945Y9116382D01*
X2578945Y9116382D02*
X2407517Y9116382D01*
X2407517Y9116382D02*
X2321802Y9159240D01*
X2321802Y9159240D02*
X2278945Y9202097D01*
X2278945Y9202097D02*
X2236088Y9287811D01*
X2236088Y9287811D02*
X2236088Y9544954D01*
X2236088Y9544954D02*
X2278945Y9630668D01*
X2278945Y9630668D02*
X2321802Y9673525D01*
X2321802Y9673525D02*
X2407517Y9716382D01*
X2407517Y9716382D02*
X2578945Y9716382D01*
X2578945Y9716382D02*
X2664660Y9673525D01*
X3478946Y9716382D02*
X3478946Y8987811D01*
X3478946Y8987811D02*
X3436088Y8902097D01*
X3436088Y8902097D02*
X3393231Y8859240D01*
X3393231Y8859240D02*
X3307517Y8816382D01*
X3307517Y8816382D02*
X3178946Y8816382D01*
X3178946Y8816382D02*
X3093231Y8859240D01*
X3478946Y9159240D02*
X3393231Y9116382D01*
X3393231Y9116382D02*
X3221803Y9116382D01*
X3221803Y9116382D02*
X3136088Y9159240D01*
X3136088Y9159240D02*
X3093231Y9202097D01*
X3093231Y9202097D02*
X3050374Y9287811D01*
X3050374Y9287811D02*
X3050374Y9544954D01*
X3050374Y9544954D02*
X3093231Y9630668D01*
X3093231Y9630668D02*
X3136088Y9673525D01*
X3136088Y9673525D02*
X3221803Y9716382D01*
X3221803Y9716382D02*
X3393231Y9716382D01*
X3393231Y9716382D02*
X3478946Y9673525D01*
X3907517Y9116382D02*
X3907517Y9716382D01*
X3907517Y9544954D02*
X3950374Y9630668D01*
X3950374Y9630668D02*
X3993232Y9673525D01*
X3993232Y9673525D02*
X4078946Y9716382D01*
X4078946Y9716382D02*
X4164660Y9716382D01*
X4807517Y9159240D02*
X4721803Y9116382D01*
X4721803Y9116382D02*
X4550375Y9116382D01*
X4550375Y9116382D02*
X4464660Y9159240D01*
X4464660Y9159240D02*
X4421803Y9244954D01*
X4421803Y9244954D02*
X4421803Y9587811D01*
X4421803Y9587811D02*
X4464660Y9673525D01*
X4464660Y9673525D02*
X4550375Y9716382D01*
X4550375Y9716382D02*
X4721803Y9716382D01*
X4721803Y9716382D02*
X4807517Y9673525D01*
X4807517Y9673525D02*
X4850375Y9587811D01*
X4850375Y9587811D02*
X4850375Y9502097D01*
X4850375Y9502097D02*
X4421803Y9416382D01*
X5621804Y9716382D02*
X5621804Y8987811D01*
X5621804Y8987811D02*
X5578946Y8902097D01*
X5578946Y8902097D02*
X5536089Y8859240D01*
X5536089Y8859240D02*
X5450375Y8816382D01*
X5450375Y8816382D02*
X5321804Y8816382D01*
X5321804Y8816382D02*
X5236089Y8859240D01*
X5621804Y9159240D02*
X5536089Y9116382D01*
X5536089Y9116382D02*
X5364661Y9116382D01*
X5364661Y9116382D02*
X5278946Y9159240D01*
X5278946Y9159240D02*
X5236089Y9202097D01*
X5236089Y9202097D02*
X5193232Y9287811D01*
X5193232Y9287811D02*
X5193232Y9544954D01*
X5193232Y9544954D02*
X5236089Y9630668D01*
X5236089Y9630668D02*
X5278946Y9673525D01*
X5278946Y9673525D02*
X5364661Y9716382D01*
X5364661Y9716382D02*
X5536089Y9716382D01*
X5536089Y9716382D02*
X5621804Y9673525D01*
X6436090Y9116382D02*
X6436090Y9587811D01*
X6436090Y9587811D02*
X6393232Y9673525D01*
X6393232Y9673525D02*
X6307518Y9716382D01*
X6307518Y9716382D02*
X6136090Y9716382D01*
X6136090Y9716382D02*
X6050375Y9673525D01*
X6436090Y9159240D02*
X6350375Y9116382D01*
X6350375Y9116382D02*
X6136090Y9116382D01*
X6136090Y9116382D02*
X6050375Y9159240D01*
X6050375Y9159240D02*
X6007518Y9244954D01*
X6007518Y9244954D02*
X6007518Y9330668D01*
X6007518Y9330668D02*
X6050375Y9416382D01*
X6050375Y9416382D02*
X6136090Y9459240D01*
X6136090Y9459240D02*
X6350375Y9459240D01*
X6350375Y9459240D02*
X6436090Y9502097D01*
X6736090Y9716382D02*
X7078947Y9716382D01*
X6864661Y10016382D02*
X6864661Y9244954D01*
X6864661Y9244954D02*
X6907518Y9159240D01*
X6907518Y9159240D02*
X6993233Y9116382D01*
X6993233Y9116382D02*
X7078947Y9116382D01*
X7507519Y9116382D02*
X7421804Y9159240D01*
X7421804Y9159240D02*
X7378947Y9202097D01*
X7378947Y9202097D02*
X7336090Y9287811D01*
X7336090Y9287811D02*
X7336090Y9544954D01*
X7336090Y9544954D02*
X7378947Y9630668D01*
X7378947Y9630668D02*
X7421804Y9673525D01*
X7421804Y9673525D02*
X7507519Y9716382D01*
X7507519Y9716382D02*
X7636090Y9716382D01*
X7636090Y9716382D02*
X7721804Y9673525D01*
X7721804Y9673525D02*
X7764662Y9630668D01*
X7764662Y9630668D02*
X7807519Y9544954D01*
X7807519Y9544954D02*
X7807519Y9287811D01*
X7807519Y9287811D02*
X7764662Y9202097D01*
X7764662Y9202097D02*
X7721804Y9159240D01*
X7721804Y9159240D02*
X7636090Y9116382D01*
X7636090Y9116382D02*
X7507519Y9116382D01*
X8193233Y9116382D02*
X8193233Y9716382D01*
X8193233Y9544954D02*
X8236090Y9630668D01*
X8236090Y9630668D02*
X8278948Y9673525D01*
X8278948Y9673525D02*
X8364662Y9716382D01*
X8364662Y9716382D02*
X8450376Y9716382D01*
X58807518Y6116382D02*
X58507518Y6544954D01*
X58293232Y6116382D02*
X58293232Y7016382D01*
X58293232Y7016382D02*
X58636089Y7016382D01*
X58636089Y7016382D02*
X58721804Y6973525D01*
X58721804Y6973525D02*
X58764661Y6930668D01*
X58764661Y6930668D02*
X58807518Y6844954D01*
X58807518Y6844954D02*
X58807518Y6716382D01*
X58807518Y6716382D02*
X58764661Y6630668D01*
X58764661Y6630668D02*
X58721804Y6587811D01*
X58721804Y6587811D02*
X58636089Y6544954D01*
X58636089Y6544954D02*
X58293232Y6544954D01*
X59193232Y6116382D02*
X59193232Y6716382D01*
X59193232Y7016382D02*
X59150375Y6973525D01*
X59150375Y6973525D02*
X59193232Y6930668D01*
X59193232Y6930668D02*
X59236089Y6973525D01*
X59236089Y6973525D02*
X59193232Y7016382D01*
X59193232Y7016382D02*
X59193232Y6930668D01*
X60007518Y6716382D02*
X60007518Y5987811D01*
X60007518Y5987811D02*
X59964660Y5902097D01*
X59964660Y5902097D02*
X59921803Y5859240D01*
X59921803Y5859240D02*
X59836089Y5816382D01*
X59836089Y5816382D02*
X59707518Y5816382D01*
X59707518Y5816382D02*
X59621803Y5859240D01*
X60007518Y6159240D02*
X59921803Y6116382D01*
X59921803Y6116382D02*
X59750375Y6116382D01*
X59750375Y6116382D02*
X59664660Y6159240D01*
X59664660Y6159240D02*
X59621803Y6202097D01*
X59621803Y6202097D02*
X59578946Y6287811D01*
X59578946Y6287811D02*
X59578946Y6544954D01*
X59578946Y6544954D02*
X59621803Y6630668D01*
X59621803Y6630668D02*
X59664660Y6673525D01*
X59664660Y6673525D02*
X59750375Y6716382D01*
X59750375Y6716382D02*
X59921803Y6716382D01*
X59921803Y6716382D02*
X60007518Y6673525D01*
X60436089Y6116382D02*
X60436089Y6716382D01*
X60436089Y7016382D02*
X60393232Y6973525D01*
X60393232Y6973525D02*
X60436089Y6930668D01*
X60436089Y6930668D02*
X60478946Y6973525D01*
X60478946Y6973525D02*
X60436089Y7016382D01*
X60436089Y7016382D02*
X60436089Y6930668D01*
X61250375Y6116382D02*
X61250375Y7016382D01*
X61250375Y6159240D02*
X61164660Y6116382D01*
X61164660Y6116382D02*
X60993232Y6116382D01*
X60993232Y6116382D02*
X60907517Y6159240D01*
X60907517Y6159240D02*
X60864660Y6202097D01*
X60864660Y6202097D02*
X60821803Y6287811D01*
X60821803Y6287811D02*
X60821803Y6544954D01*
X60821803Y6544954D02*
X60864660Y6630668D01*
X60864660Y6630668D02*
X60907517Y6673525D01*
X60907517Y6673525D02*
X60993232Y6716382D01*
X60993232Y6716382D02*
X61164660Y6716382D01*
X61164660Y6716382D02*
X61250375Y6673525D01*
X61636089Y6930668D02*
X61678946Y6973525D01*
X61678946Y6973525D02*
X61764661Y7016382D01*
X61764661Y7016382D02*
X61978946Y7016382D01*
X61978946Y7016382D02*
X62064661Y6973525D01*
X62064661Y6973525D02*
X62107518Y6930668D01*
X62107518Y6930668D02*
X62150375Y6844954D01*
X62150375Y6844954D02*
X62150375Y6759240D01*
X62150375Y6759240D02*
X62107518Y6630668D01*
X62107518Y6630668D02*
X61593232Y6116382D01*
X61593232Y6116382D02*
X62150375Y6116382D01*
X62536089Y6202097D02*
X62578946Y6159240D01*
X62578946Y6159240D02*
X62536089Y6116382D01*
X62536089Y6116382D02*
X62493232Y6159240D01*
X62493232Y6159240D02*
X62536089Y6202097D01*
X62536089Y6202097D02*
X62536089Y6116382D01*
X62536089Y6673525D02*
X62578946Y6630668D01*
X62578946Y6630668D02*
X62536089Y6587811D01*
X62536089Y6587811D02*
X62493232Y6630668D01*
X62493232Y6630668D02*
X62536089Y6673525D01*
X62536089Y6673525D02*
X62536089Y6587811D01*
X63607517Y6159240D02*
X63736089Y6116382D01*
X63736089Y6116382D02*
X63950374Y6116382D01*
X63950374Y6116382D02*
X64036089Y6159240D01*
X64036089Y6159240D02*
X64078946Y6202097D01*
X64078946Y6202097D02*
X64121803Y6287811D01*
X64121803Y6287811D02*
X64121803Y6373525D01*
X64121803Y6373525D02*
X64078946Y6459240D01*
X64078946Y6459240D02*
X64036089Y6502097D01*
X64036089Y6502097D02*
X63950374Y6544954D01*
X63950374Y6544954D02*
X63778946Y6587811D01*
X63778946Y6587811D02*
X63693231Y6630668D01*
X63693231Y6630668D02*
X63650374Y6673525D01*
X63650374Y6673525D02*
X63607517Y6759240D01*
X63607517Y6759240D02*
X63607517Y6844954D01*
X63607517Y6844954D02*
X63650374Y6930668D01*
X63650374Y6930668D02*
X63693231Y6973525D01*
X63693231Y6973525D02*
X63778946Y7016382D01*
X63778946Y7016382D02*
X63993231Y7016382D01*
X63993231Y7016382D02*
X64121803Y6973525D01*
X64464660Y6159240D02*
X64593232Y6116382D01*
X64593232Y6116382D02*
X64807517Y6116382D01*
X64807517Y6116382D02*
X64893232Y6159240D01*
X64893232Y6159240D02*
X64936089Y6202097D01*
X64936089Y6202097D02*
X64978946Y6287811D01*
X64978946Y6287811D02*
X64978946Y6373525D01*
X64978946Y6373525D02*
X64936089Y6459240D01*
X64936089Y6459240D02*
X64893232Y6502097D01*
X64893232Y6502097D02*
X64807517Y6544954D01*
X64807517Y6544954D02*
X64636089Y6587811D01*
X64636089Y6587811D02*
X64550374Y6630668D01*
X64550374Y6630668D02*
X64507517Y6673525D01*
X64507517Y6673525D02*
X64464660Y6759240D01*
X64464660Y6759240D02*
X64464660Y6844954D01*
X64464660Y6844954D02*
X64507517Y6930668D01*
X64507517Y6930668D02*
X64550374Y6973525D01*
X64550374Y6973525D02*
X64636089Y7016382D01*
X64636089Y7016382D02*
X64850374Y7016382D01*
X64850374Y7016382D02*
X64978946Y6973525D01*
X65364660Y6116382D02*
X65364660Y7016382D01*
X65364660Y7016382D02*
X65578946Y7016382D01*
X65578946Y7016382D02*
X65707517Y6973525D01*
X65707517Y6973525D02*
X65793232Y6887811D01*
X65793232Y6887811D02*
X65836089Y6802097D01*
X65836089Y6802097D02*
X65878946Y6630668D01*
X65878946Y6630668D02*
X65878946Y6502097D01*
X65878946Y6502097D02*
X65836089Y6330668D01*
X65836089Y6330668D02*
X65793232Y6244954D01*
X65793232Y6244954D02*
X65707517Y6159240D01*
X65707517Y6159240D02*
X65578946Y6116382D01*
X65578946Y6116382D02*
X65364660Y6116382D01*
X66736089Y6116382D02*
X66221803Y6116382D01*
X66478946Y6116382D02*
X66478946Y7016382D01*
X66478946Y7016382D02*
X66393232Y6887811D01*
X66393232Y6887811D02*
X66307517Y6802097D01*
X66307517Y6802097D02*
X66221803Y6759240D01*
X67164660Y6116382D02*
X67336089Y6116382D01*
X67336089Y6116382D02*
X67421803Y6159240D01*
X67421803Y6159240D02*
X67464660Y6202097D01*
X67464660Y6202097D02*
X67550375Y6330668D01*
X67550375Y6330668D02*
X67593232Y6502097D01*
X67593232Y6502097D02*
X67593232Y6844954D01*
X67593232Y6844954D02*
X67550375Y6930668D01*
X67550375Y6930668D02*
X67507518Y6973525D01*
X67507518Y6973525D02*
X67421803Y7016382D01*
X67421803Y7016382D02*
X67250375Y7016382D01*
X67250375Y7016382D02*
X67164660Y6973525D01*
X67164660Y6973525D02*
X67121803Y6930668D01*
X67121803Y6930668D02*
X67078946Y6844954D01*
X67078946Y6844954D02*
X67078946Y6630668D01*
X67078946Y6630668D02*
X67121803Y6544954D01*
X67121803Y6544954D02*
X67164660Y6502097D01*
X67164660Y6502097D02*
X67250375Y6459240D01*
X67250375Y6459240D02*
X67421803Y6459240D01*
X67421803Y6459240D02*
X67507518Y6502097D01*
X67507518Y6502097D02*
X67550375Y6544954D01*
X67550375Y6544954D02*
X67593232Y6630668D01*
X68364661Y7016382D02*
X68193232Y7016382D01*
X68193232Y7016382D02*
X68107518Y6973525D01*
X68107518Y6973525D02*
X68064661Y6930668D01*
X68064661Y6930668D02*
X67978946Y6802097D01*
X67978946Y6802097D02*
X67936089Y6630668D01*
X67936089Y6630668D02*
X67936089Y6287811D01*
X67936089Y6287811D02*
X67978946Y6202097D01*
X67978946Y6202097D02*
X68021803Y6159240D01*
X68021803Y6159240D02*
X68107518Y6116382D01*
X68107518Y6116382D02*
X68278946Y6116382D01*
X68278946Y6116382D02*
X68364661Y6159240D01*
X68364661Y6159240D02*
X68407518Y6202097D01*
X68407518Y6202097D02*
X68450375Y6287811D01*
X68450375Y6287811D02*
X68450375Y6502097D01*
X68450375Y6502097D02*
X68407518Y6587811D01*
X68407518Y6587811D02*
X68364661Y6630668D01*
X68364661Y6630668D02*
X68278946Y6673525D01*
X68278946Y6673525D02*
X68107518Y6673525D01*
X68107518Y6673525D02*
X68021803Y6630668D01*
X68021803Y6630668D02*
X67978946Y6587811D01*
X67978946Y6587811D02*
X67936089Y6502097D01*
X68750375Y7016382D02*
X69307518Y7016382D01*
X69307518Y7016382D02*
X69007518Y6673525D01*
X69007518Y6673525D02*
X69136089Y6673525D01*
X69136089Y6673525D02*
X69221804Y6630668D01*
X69221804Y6630668D02*
X69264661Y6587811D01*
X69264661Y6587811D02*
X69307518Y6502097D01*
X69307518Y6502097D02*
X69307518Y6287811D01*
X69307518Y6287811D02*
X69264661Y6202097D01*
X69264661Y6202097D02*
X69221804Y6159240D01*
X69221804Y6159240D02*
X69136089Y6116382D01*
X69136089Y6116382D02*
X68878946Y6116382D01*
X68878946Y6116382D02*
X68793232Y6159240D01*
X68793232Y6159240D02*
X68750375Y6202097D01*
D11*
X22612969Y4589371D02*
X22312969Y4589371D01*
X22312969Y4117942D02*
X22312969Y5017942D01*
X22312969Y5017942D02*
X22741541Y5017942D01*
X23512970Y4117942D02*
X23084398Y4117942D01*
X23084398Y4117942D02*
X23084398Y5017942D01*
X23812969Y4589371D02*
X24112969Y4589371D01*
X24241541Y4117942D02*
X23812969Y4117942D01*
X23812969Y4117942D02*
X23812969Y5017942D01*
X23812969Y5017942D02*
X24241541Y5017942D01*
X24541541Y5017942D02*
X25141541Y4117942D01*
X25141541Y5017942D02*
X24541541Y4117942D01*
X26127255Y4160800D02*
X26255827Y4117942D01*
X26255827Y4117942D02*
X26470112Y4117942D01*
X26470112Y4117942D02*
X26555827Y4160800D01*
X26555827Y4160800D02*
X26598684Y4203657D01*
X26598684Y4203657D02*
X26641541Y4289371D01*
X26641541Y4289371D02*
X26641541Y4375085D01*
X26641541Y4375085D02*
X26598684Y4460800D01*
X26598684Y4460800D02*
X26555827Y4503657D01*
X26555827Y4503657D02*
X26470112Y4546514D01*
X26470112Y4546514D02*
X26298684Y4589371D01*
X26298684Y4589371D02*
X26212969Y4632228D01*
X26212969Y4632228D02*
X26170112Y4675085D01*
X26170112Y4675085D02*
X26127255Y4760800D01*
X26127255Y4760800D02*
X26127255Y4846514D01*
X26127255Y4846514D02*
X26170112Y4932228D01*
X26170112Y4932228D02*
X26212969Y4975085D01*
X26212969Y4975085D02*
X26298684Y5017942D01*
X26298684Y5017942D02*
X26512969Y5017942D01*
X26512969Y5017942D02*
X26641541Y4975085D01*
X27027255Y4589371D02*
X27327255Y4589371D01*
X27455827Y4117942D02*
X27027255Y4117942D01*
X27027255Y4117942D02*
X27027255Y5017942D01*
X27027255Y5017942D02*
X27455827Y5017942D01*
X28355827Y4203657D02*
X28312970Y4160800D01*
X28312970Y4160800D02*
X28184398Y4117942D01*
X28184398Y4117942D02*
X28098684Y4117942D01*
X28098684Y4117942D02*
X27970113Y4160800D01*
X27970113Y4160800D02*
X27884398Y4246514D01*
X27884398Y4246514D02*
X27841541Y4332228D01*
X27841541Y4332228D02*
X27798684Y4503657D01*
X27798684Y4503657D02*
X27798684Y4632228D01*
X27798684Y4632228D02*
X27841541Y4803657D01*
X27841541Y4803657D02*
X27884398Y4889371D01*
X27884398Y4889371D02*
X27970113Y4975085D01*
X27970113Y4975085D02*
X28098684Y5017942D01*
X28098684Y5017942D02*
X28184398Y5017942D01*
X28184398Y5017942D02*
X28312970Y4975085D01*
X28312970Y4975085D02*
X28355827Y4932228D01*
X28612970Y5017942D02*
X29127256Y5017942D01*
X28870113Y4117942D02*
X28870113Y5017942D01*
X29427255Y4117942D02*
X29427255Y5017942D01*
X30027255Y5017942D02*
X30198683Y5017942D01*
X30198683Y5017942D02*
X30284398Y4975085D01*
X30284398Y4975085D02*
X30370112Y4889371D01*
X30370112Y4889371D02*
X30412969Y4717942D01*
X30412969Y4717942D02*
X30412969Y4417942D01*
X30412969Y4417942D02*
X30370112Y4246514D01*
X30370112Y4246514D02*
X30284398Y4160800D01*
X30284398Y4160800D02*
X30198683Y4117942D01*
X30198683Y4117942D02*
X30027255Y4117942D01*
X30027255Y4117942D02*
X29941541Y4160800D01*
X29941541Y4160800D02*
X29855826Y4246514D01*
X29855826Y4246514D02*
X29812969Y4417942D01*
X29812969Y4417942D02*
X29812969Y4717942D01*
X29812969Y4717942D02*
X29855826Y4889371D01*
X29855826Y4889371D02*
X29941541Y4975085D01*
X29941541Y4975085D02*
X30027255Y5017942D01*
X30798683Y4117942D02*
X30798683Y5017942D01*
X30798683Y5017942D02*
X31312969Y4117942D01*
X31312969Y4117942D02*
X31312969Y5017942D01*
X32427254Y4460800D02*
X33112969Y4460800D01*
X34398683Y5017942D02*
X34484397Y5017942D01*
X34484397Y5017942D02*
X34570111Y4975085D01*
X34570111Y4975085D02*
X34612969Y4932228D01*
X34612969Y4932228D02*
X34655826Y4846514D01*
X34655826Y4846514D02*
X34698683Y4675085D01*
X34698683Y4675085D02*
X34698683Y4460800D01*
X34698683Y4460800D02*
X34655826Y4289371D01*
X34655826Y4289371D02*
X34612969Y4203657D01*
X34612969Y4203657D02*
X34570111Y4160800D01*
X34570111Y4160800D02*
X34484397Y4117942D01*
X34484397Y4117942D02*
X34398683Y4117942D01*
X34398683Y4117942D02*
X34312969Y4160800D01*
X34312969Y4160800D02*
X34270111Y4203657D01*
X34270111Y4203657D02*
X34227254Y4289371D01*
X34227254Y4289371D02*
X34184397Y4460800D01*
X34184397Y4460800D02*
X34184397Y4675085D01*
X34184397Y4675085D02*
X34227254Y4846514D01*
X34227254Y4846514D02*
X34270111Y4932228D01*
X34270111Y4932228D02*
X34312969Y4975085D01*
X34312969Y4975085D02*
X34398683Y5017942D01*
X35084397Y4203657D02*
X35127254Y4160800D01*
X35127254Y4160800D02*
X35084397Y4117942D01*
X35084397Y4117942D02*
X35041540Y4160800D01*
X35041540Y4160800D02*
X35084397Y4203657D01*
X35084397Y4203657D02*
X35084397Y4117942D01*
X35941540Y5017942D02*
X35512968Y5017942D01*
X35512968Y5017942D02*
X35470111Y4589371D01*
X35470111Y4589371D02*
X35512968Y4632228D01*
X35512968Y4632228D02*
X35598683Y4675085D01*
X35598683Y4675085D02*
X35812968Y4675085D01*
X35812968Y4675085D02*
X35898683Y4632228D01*
X35898683Y4632228D02*
X35941540Y4589371D01*
X35941540Y4589371D02*
X35984397Y4503657D01*
X35984397Y4503657D02*
X35984397Y4289371D01*
X35984397Y4289371D02*
X35941540Y4203657D01*
X35941540Y4203657D02*
X35898683Y4160800D01*
X35898683Y4160800D02*
X35812968Y4117942D01*
X35812968Y4117942D02*
X35598683Y4117942D01*
X35598683Y4117942D02*
X35512968Y4160800D01*
X35512968Y4160800D02*
X35470111Y4203657D01*
X36498683Y4117942D02*
X36412968Y4160800D01*
X36412968Y4160800D02*
X36370111Y4203657D01*
X36370111Y4203657D02*
X36327254Y4289371D01*
X36327254Y4289371D02*
X36327254Y4546514D01*
X36327254Y4546514D02*
X36370111Y4632228D01*
X36370111Y4632228D02*
X36412968Y4675085D01*
X36412968Y4675085D02*
X36498683Y4717942D01*
X36498683Y4717942D02*
X36627254Y4717942D01*
X36627254Y4717942D02*
X36712968Y4675085D01*
X36712968Y4675085D02*
X36755826Y4632228D01*
X36755826Y4632228D02*
X36798683Y4546514D01*
X36798683Y4546514D02*
X36798683Y4289371D01*
X36798683Y4289371D02*
X36755826Y4203657D01*
X36755826Y4203657D02*
X36712968Y4160800D01*
X36712968Y4160800D02*
X36627254Y4117942D01*
X36627254Y4117942D02*
X36498683Y4117942D01*
X37098683Y4717942D02*
X37570112Y4717942D01*
X37570112Y4717942D02*
X37098683Y4117942D01*
X37098683Y4117942D02*
X37570112Y4117942D01*
X39112968Y4203657D02*
X39070111Y4160800D01*
X39070111Y4160800D02*
X38941539Y4117942D01*
X38941539Y4117942D02*
X38855825Y4117942D01*
X38855825Y4117942D02*
X38727254Y4160800D01*
X38727254Y4160800D02*
X38641539Y4246514D01*
X38641539Y4246514D02*
X38598682Y4332228D01*
X38598682Y4332228D02*
X38555825Y4503657D01*
X38555825Y4503657D02*
X38555825Y4632228D01*
X38555825Y4632228D02*
X38598682Y4803657D01*
X38598682Y4803657D02*
X38641539Y4889371D01*
X38641539Y4889371D02*
X38727254Y4975085D01*
X38727254Y4975085D02*
X38855825Y5017942D01*
X38855825Y5017942D02*
X38941539Y5017942D01*
X38941539Y5017942D02*
X39070111Y4975085D01*
X39070111Y4975085D02*
X39112968Y4932228D01*
X39884397Y4717942D02*
X39884397Y4117942D01*
X39498682Y4717942D02*
X39498682Y4246514D01*
X39498682Y4246514D02*
X39541539Y4160800D01*
X39541539Y4160800D02*
X39627254Y4117942D01*
X39627254Y4117942D02*
X39755825Y4117942D01*
X39755825Y4117942D02*
X39841539Y4160800D01*
X39841539Y4160800D02*
X39884397Y4203657D01*
X40998682Y4717942D02*
X40998682Y3817942D01*
X40998682Y4675085D02*
X41084397Y4717942D01*
X41084397Y4717942D02*
X41255825Y4717942D01*
X41255825Y4717942D02*
X41341539Y4675085D01*
X41341539Y4675085D02*
X41384397Y4632228D01*
X41384397Y4632228D02*
X41427254Y4546514D01*
X41427254Y4546514D02*
X41427254Y4289371D01*
X41427254Y4289371D02*
X41384397Y4203657D01*
X41384397Y4203657D02*
X41341539Y4160800D01*
X41341539Y4160800D02*
X41255825Y4117942D01*
X41255825Y4117942D02*
X41084397Y4117942D01*
X41084397Y4117942D02*
X40998682Y4160800D01*
X41941540Y4117942D02*
X41855825Y4160800D01*
X41855825Y4160800D02*
X41812968Y4203657D01*
X41812968Y4203657D02*
X41770111Y4289371D01*
X41770111Y4289371D02*
X41770111Y4546514D01*
X41770111Y4546514D02*
X41812968Y4632228D01*
X41812968Y4632228D02*
X41855825Y4675085D01*
X41855825Y4675085D02*
X41941540Y4717942D01*
X41941540Y4717942D02*
X42070111Y4717942D01*
X42070111Y4717942D02*
X42155825Y4675085D01*
X42155825Y4675085D02*
X42198683Y4632228D01*
X42198683Y4632228D02*
X42241540Y4546514D01*
X42241540Y4546514D02*
X42241540Y4289371D01*
X42241540Y4289371D02*
X42198683Y4203657D01*
X42198683Y4203657D02*
X42155825Y4160800D01*
X42155825Y4160800D02*
X42070111Y4117942D01*
X42070111Y4117942D02*
X41941540Y4117942D01*
X42755826Y4117942D02*
X42670111Y4160800D01*
X42670111Y4160800D02*
X42627254Y4246514D01*
X42627254Y4246514D02*
X42627254Y5017942D01*
X43012969Y4717942D02*
X43227255Y4117942D01*
X43441540Y4717942D02*
X43227255Y4117942D01*
X43227255Y4117942D02*
X43141540Y3903657D01*
X43141540Y3903657D02*
X43098683Y3860800D01*
X43098683Y3860800D02*
X43012969Y3817942D01*
X43784397Y4117942D02*
X43784397Y4717942D01*
X43784397Y5017942D02*
X43741540Y4975085D01*
X43741540Y4975085D02*
X43784397Y4932228D01*
X43784397Y4932228D02*
X43827254Y4975085D01*
X43827254Y4975085D02*
X43784397Y5017942D01*
X43784397Y5017942D02*
X43784397Y4932228D01*
X44212968Y4117942D02*
X44212968Y4717942D01*
X44212968Y4632228D02*
X44255825Y4675085D01*
X44255825Y4675085D02*
X44341540Y4717942D01*
X44341540Y4717942D02*
X44470111Y4717942D01*
X44470111Y4717942D02*
X44555825Y4675085D01*
X44555825Y4675085D02*
X44598683Y4589371D01*
X44598683Y4589371D02*
X44598683Y4117942D01*
X44598683Y4589371D02*
X44641540Y4675085D01*
X44641540Y4675085D02*
X44727254Y4717942D01*
X44727254Y4717942D02*
X44855825Y4717942D01*
X44855825Y4717942D02*
X44941540Y4675085D01*
X44941540Y4675085D02*
X44984397Y4589371D01*
X44984397Y4589371D02*
X44984397Y4117942D01*
X45412968Y4117942D02*
X45412968Y4717942D01*
X45412968Y5017942D02*
X45370111Y4975085D01*
X45370111Y4975085D02*
X45412968Y4932228D01*
X45412968Y4932228D02*
X45455825Y4975085D01*
X45455825Y4975085D02*
X45412968Y5017942D01*
X45412968Y5017942D02*
X45412968Y4932228D01*
X46227254Y4117942D02*
X46227254Y5017942D01*
X46227254Y4160800D02*
X46141539Y4117942D01*
X46141539Y4117942D02*
X45970111Y4117942D01*
X45970111Y4117942D02*
X45884396Y4160800D01*
X45884396Y4160800D02*
X45841539Y4203657D01*
X45841539Y4203657D02*
X45798682Y4289371D01*
X45798682Y4289371D02*
X45798682Y4546514D01*
X45798682Y4546514D02*
X45841539Y4632228D01*
X45841539Y4632228D02*
X45884396Y4675085D01*
X45884396Y4675085D02*
X45970111Y4717942D01*
X45970111Y4717942D02*
X46141539Y4717942D01*
X46141539Y4717942D02*
X46227254Y4675085D01*
X46998682Y4160800D02*
X46912968Y4117942D01*
X46912968Y4117942D02*
X46741540Y4117942D01*
X46741540Y4117942D02*
X46655825Y4160800D01*
X46655825Y4160800D02*
X46612968Y4246514D01*
X46612968Y4246514D02*
X46612968Y4589371D01*
X46612968Y4589371D02*
X46655825Y4675085D01*
X46655825Y4675085D02*
X46741540Y4717942D01*
X46741540Y4717942D02*
X46912968Y4717942D01*
X46912968Y4717942D02*
X46998682Y4675085D01*
X46998682Y4675085D02*
X47041540Y4589371D01*
X47041540Y4589371D02*
X47041540Y4503657D01*
X47041540Y4503657D02*
X46612968Y4417942D01*
D12*
X-16511279Y12193971D02*
X-16511279Y13693971D01*
X-16511279Y13693971D02*
X-15939850Y13693971D01*
X-15939850Y13693971D02*
X-15796993Y13622542D01*
X-15796993Y13622542D02*
X-15725564Y13551114D01*
X-15725564Y13551114D02*
X-15654136Y13408257D01*
X-15654136Y13408257D02*
X-15654136Y13193971D01*
X-15654136Y13193971D02*
X-15725564Y13051114D01*
X-15725564Y13051114D02*
X-15796993Y12979685D01*
X-15796993Y12979685D02*
X-15939850Y12908257D01*
X-15939850Y12908257D02*
X-16511279Y12908257D01*
X-15082707Y12622542D02*
X-14368422Y12622542D01*
X-15225564Y12193971D02*
X-14725564Y13693971D01*
X-14725564Y13693971D02*
X-14225564Y12193971D01*
X-13011279Y12193971D02*
X-13725565Y12193971D01*
X-13725565Y12193971D02*
X-13725565Y13693971D01*
X-11368422Y12193971D02*
X-11368422Y13693971D01*
X-11368422Y13693971D02*
X-10796993Y13693971D01*
X-10796993Y13693971D02*
X-10654136Y13622542D01*
X-10654136Y13622542D02*
X-10582707Y13551114D01*
X-10582707Y13551114D02*
X-10511279Y13408257D01*
X-10511279Y13408257D02*
X-10511279Y13193971D01*
X-10511279Y13193971D02*
X-10582707Y13051114D01*
X-10582707Y13051114D02*
X-10654136Y12979685D01*
X-10654136Y12979685D02*
X-10796993Y12908257D01*
X-10796993Y12908257D02*
X-11368422Y12908257D01*
X-9654136Y12193971D02*
X-9796993Y12265400D01*
X-9796993Y12265400D02*
X-9868422Y12336828D01*
X-9868422Y12336828D02*
X-9939850Y12479685D01*
X-9939850Y12479685D02*
X-9939850Y12908257D01*
X-9939850Y12908257D02*
X-9868422Y13051114D01*
X-9868422Y13051114D02*
X-9796993Y13122542D01*
X-9796993Y13122542D02*
X-9654136Y13193971D01*
X-9654136Y13193971D02*
X-9439850Y13193971D01*
X-9439850Y13193971D02*
X-9296993Y13122542D01*
X-9296993Y13122542D02*
X-9225565Y13051114D01*
X-9225565Y13051114D02*
X-9154136Y12908257D01*
X-9154136Y12908257D02*
X-9154136Y12479685D01*
X-9154136Y12479685D02*
X-9225565Y12336828D01*
X-9225565Y12336828D02*
X-9296993Y12265400D01*
X-9296993Y12265400D02*
X-9439850Y12193971D01*
X-9439850Y12193971D02*
X-9654136Y12193971D01*
X-7868422Y12193971D02*
X-7868422Y13693971D01*
X-7868422Y12265400D02*
X-8011279Y12193971D01*
X-8011279Y12193971D02*
X-8296993Y12193971D01*
X-8296993Y12193971D02*
X-8439850Y12265400D01*
X-8439850Y12265400D02*
X-8511279Y12336828D01*
X-8511279Y12336828D02*
X-8582707Y12479685D01*
X-8582707Y12479685D02*
X-8582707Y12908257D01*
X-8582707Y12908257D02*
X-8511279Y13051114D01*
X-8511279Y13051114D02*
X-8439850Y13122542D01*
X-8439850Y13122542D02*
X-8296993Y13193971D01*
X-8296993Y13193971D02*
X-8011279Y13193971D01*
X-8011279Y13193971D02*
X-7868422Y13122542D01*
X-5725564Y13693971D02*
X-5439850Y13693971D01*
X-5439850Y13693971D02*
X-5296993Y13622542D01*
X-5296993Y13622542D02*
X-5154136Y13479685D01*
X-5154136Y13479685D02*
X-5082707Y13193971D01*
X-5082707Y13193971D02*
X-5082707Y12693971D01*
X-5082707Y12693971D02*
X-5154136Y12408257D01*
X-5154136Y12408257D02*
X-5296993Y12265400D01*
X-5296993Y12265400D02*
X-5439850Y12193971D01*
X-5439850Y12193971D02*
X-5725564Y12193971D01*
X-5725564Y12193971D02*
X-5868422Y12265400D01*
X-5868422Y12265400D02*
X-6011279Y12408257D01*
X-6011279Y12408257D02*
X-6082707Y12693971D01*
X-6082707Y12693971D02*
X-6082707Y13193971D01*
X-6082707Y13193971D02*
X-6011279Y13479685D01*
X-6011279Y13479685D02*
X-5868422Y13622542D01*
X-5868422Y13622542D02*
X-5725564Y13693971D01*
X-4439850Y12193971D02*
X-4439850Y13193971D01*
X-4439850Y12908257D02*
X-4368421Y13051114D01*
X-4368421Y13051114D02*
X-4296993Y13122542D01*
X-4296993Y13122542D02*
X-4154135Y13193971D01*
X-4154135Y13193971D02*
X-4011278Y13193971D01*
X-3511279Y12193971D02*
X-3511279Y13693971D01*
X-3511279Y13122542D02*
X-3368422Y13193971D01*
X-3368422Y13193971D02*
X-3082707Y13193971D01*
X-3082707Y13193971D02*
X-2939850Y13122542D01*
X-2939850Y13122542D02*
X-2868422Y13051114D01*
X-2868422Y13051114D02*
X-2796993Y12908257D01*
X-2796993Y12908257D02*
X-2796993Y12479685D01*
X-2796993Y12479685D02*
X-2868422Y12336828D01*
X-2868422Y12336828D02*
X-2939850Y12265400D01*
X-2939850Y12265400D02*
X-3082707Y12193971D01*
X-3082707Y12193971D02*
X-3368422Y12193971D01*
X-3368422Y12193971D02*
X-3511279Y12265400D01*
X-1011279Y12765400D02*
X131578Y12765400D01*
X2845863Y12193971D02*
X2345863Y12908257D01*
X1988720Y12193971D02*
X1988720Y13693971D01*
X1988720Y13693971D02*
X2560149Y13693971D01*
X2560149Y13693971D02*
X2703006Y13622542D01*
X2703006Y13622542D02*
X2774435Y13551114D01*
X2774435Y13551114D02*
X2845863Y13408257D01*
X2845863Y13408257D02*
X2845863Y13193971D01*
X2845863Y13193971D02*
X2774435Y13051114D01*
X2774435Y13051114D02*
X2703006Y12979685D01*
X2703006Y12979685D02*
X2560149Y12908257D01*
X2560149Y12908257D02*
X1988720Y12908257D01*
X4060149Y12265400D02*
X3917292Y12193971D01*
X3917292Y12193971D02*
X3631578Y12193971D01*
X3631578Y12193971D02*
X3488720Y12265400D01*
X3488720Y12265400D02*
X3417292Y12408257D01*
X3417292Y12408257D02*
X3417292Y12979685D01*
X3417292Y12979685D02*
X3488720Y13122542D01*
X3488720Y13122542D02*
X3631578Y13193971D01*
X3631578Y13193971D02*
X3917292Y13193971D01*
X3917292Y13193971D02*
X4060149Y13122542D01*
X4060149Y13122542D02*
X4131578Y12979685D01*
X4131578Y12979685D02*
X4131578Y12836828D01*
X4131578Y12836828D02*
X3417292Y12693971D01*
X4631577Y13193971D02*
X4988720Y12193971D01*
X4988720Y12193971D02*
X5345863Y13193971D01*
X6988720Y12622542D02*
X7703006Y12622542D01*
X6845863Y12193971D02*
X7345863Y13693971D01*
X7345863Y13693971D02*
X7845863Y12193971D01*
X8631577Y13693971D02*
X8774434Y13693971D01*
X8774434Y13693971D02*
X8917291Y13622542D01*
X8917291Y13622542D02*
X8988720Y13551114D01*
X8988720Y13551114D02*
X9060148Y13408257D01*
X9060148Y13408257D02*
X9131577Y13122542D01*
X9131577Y13122542D02*
X9131577Y12765400D01*
X9131577Y12765400D02*
X9060148Y12479685D01*
X9060148Y12479685D02*
X8988720Y12336828D01*
X8988720Y12336828D02*
X8917291Y12265400D01*
X8917291Y12265400D02*
X8774434Y12193971D01*
X8774434Y12193971D02*
X8631577Y12193971D01*
X8631577Y12193971D02*
X8488720Y12265400D01*
X8488720Y12265400D02*
X8417291Y12336828D01*
X8417291Y12336828D02*
X8345862Y12479685D01*
X8345862Y12479685D02*
X8274434Y12765400D01*
X8274434Y12765400D02*
X8274434Y13122542D01*
X8274434Y13122542D02*
X8345862Y13408257D01*
X8345862Y13408257D02*
X8417291Y13551114D01*
X8417291Y13551114D02*
X8488720Y13622542D01*
X8488720Y13622542D02*
X8631577Y13693971D01*
D11*
X-8445237Y-14035533D02*
X-8778570Y-13559342D01*
X-9016665Y-14035533D02*
X-9016665Y-13035533D01*
X-9016665Y-13035533D02*
X-8635713Y-13035533D01*
X-8635713Y-13035533D02*
X-8540475Y-13083152D01*
X-8540475Y-13083152D02*
X-8492856Y-13130771D01*
X-8492856Y-13130771D02*
X-8445237Y-13226009D01*
X-8445237Y-13226009D02*
X-8445237Y-13368866D01*
X-8445237Y-13368866D02*
X-8492856Y-13464104D01*
X-8492856Y-13464104D02*
X-8540475Y-13511723D01*
X-8540475Y-13511723D02*
X-8635713Y-13559342D01*
X-8635713Y-13559342D02*
X-9016665Y-13559342D01*
X-7492856Y-14035533D02*
X-8064284Y-14035533D01*
X-7778570Y-14035533D02*
X-7778570Y-13035533D01*
X-7778570Y-13035533D02*
X-7873808Y-13178390D01*
X-7873808Y-13178390D02*
X-7969046Y-13273628D01*
X-7969046Y-13273628D02*
X-8064284Y-13321247D01*
X5147618Y-14035533D02*
X4814285Y-13559342D01*
X4576190Y-14035533D02*
X4576190Y-13035533D01*
X4576190Y-13035533D02*
X4957142Y-13035533D01*
X4957142Y-13035533D02*
X5052380Y-13083152D01*
X5052380Y-13083152D02*
X5099999Y-13130771D01*
X5099999Y-13130771D02*
X5147618Y-13226009D01*
X5147618Y-13226009D02*
X5147618Y-13368866D01*
X5147618Y-13368866D02*
X5099999Y-13464104D01*
X5099999Y-13464104D02*
X5052380Y-13511723D01*
X5052380Y-13511723D02*
X4957142Y-13559342D01*
X4957142Y-13559342D02*
X4576190Y-13559342D01*
X5528571Y-13130771D02*
X5576190Y-13083152D01*
X5576190Y-13083152D02*
X5671428Y-13035533D01*
X5671428Y-13035533D02*
X5909523Y-13035533D01*
X5909523Y-13035533D02*
X6004761Y-13083152D01*
X6004761Y-13083152D02*
X6052380Y-13130771D01*
X6052380Y-13130771D02*
X6099999Y-13226009D01*
X6099999Y-13226009D02*
X6099999Y-13321247D01*
X6099999Y-13321247D02*
X6052380Y-13464104D01*
X6052380Y-13464104D02*
X5480952Y-14035533D01*
X5480952Y-14035533D02*
X6099999Y-14035533D01*
X58923809Y17825894D02*
X58923809Y17016371D01*
X58923809Y17016371D02*
X58971428Y16921133D01*
X58971428Y16921133D02*
X59019047Y16873514D01*
X59019047Y16873514D02*
X59114285Y16825894D01*
X59114285Y16825894D02*
X59304761Y16825894D01*
X59304761Y16825894D02*
X59399999Y16873514D01*
X59399999Y16873514D02*
X59447618Y16921133D01*
X59447618Y16921133D02*
X59495237Y17016371D01*
X59495237Y17016371D02*
X59495237Y17825894D01*
X60447618Y17825894D02*
X59971428Y17825894D01*
X59971428Y17825894D02*
X59923809Y17349704D01*
X59923809Y17349704D02*
X59971428Y17397323D01*
X59971428Y17397323D02*
X60066666Y17444942D01*
X60066666Y17444942D02*
X60304761Y17444942D01*
X60304761Y17444942D02*
X60399999Y17397323D01*
X60399999Y17397323D02*
X60447618Y17349704D01*
X60447618Y17349704D02*
X60495237Y17254466D01*
X60495237Y17254466D02*
X60495237Y17016371D01*
X60495237Y17016371D02*
X60447618Y16921133D01*
X60447618Y16921133D02*
X60399999Y16873514D01*
X60399999Y16873514D02*
X60304761Y16825894D01*
X60304761Y16825894D02*
X60066666Y16825894D01*
X60066666Y16825894D02*
X59971428Y16873514D01*
X59971428Y16873514D02*
X59923809Y16921133D01*
X72516666Y20425894D02*
X72516666Y19616371D01*
X72516666Y19616371D02*
X72564285Y19521133D01*
X72564285Y19521133D02*
X72611904Y19473514D01*
X72611904Y19473514D02*
X72707142Y19425894D01*
X72707142Y19425894D02*
X72897618Y19425894D01*
X72897618Y19425894D02*
X72992856Y19473514D01*
X72992856Y19473514D02*
X73040475Y19521133D01*
X73040475Y19521133D02*
X73088094Y19616371D01*
X73088094Y19616371D02*
X73088094Y20425894D01*
X73992856Y20425894D02*
X73802380Y20425894D01*
X73802380Y20425894D02*
X73707142Y20378275D01*
X73707142Y20378275D02*
X73659523Y20330656D01*
X73659523Y20330656D02*
X73564285Y20187799D01*
X73564285Y20187799D02*
X73516666Y19997323D01*
X73516666Y19997323D02*
X73516666Y19616371D01*
X73516666Y19616371D02*
X73564285Y19521133D01*
X73564285Y19521133D02*
X73611904Y19473514D01*
X73611904Y19473514D02*
X73707142Y19425894D01*
X73707142Y19425894D02*
X73897618Y19425894D01*
X73897618Y19425894D02*
X73992856Y19473514D01*
X73992856Y19473514D02*
X74040475Y19521133D01*
X74040475Y19521133D02*
X74088094Y19616371D01*
X74088094Y19616371D02*
X74088094Y19854466D01*
X74088094Y19854466D02*
X74040475Y19949704D01*
X74040475Y19949704D02*
X73992856Y19997323D01*
X73992856Y19997323D02*
X73897618Y20044942D01*
X73897618Y20044942D02*
X73707142Y20044942D01*
X73707142Y20044942D02*
X73611904Y19997323D01*
X73611904Y19997323D02*
X73564285Y19949704D01*
X73564285Y19949704D02*
X73516666Y19854466D01*
X59042856Y-3633151D02*
X58995237Y-3680771D01*
X58995237Y-3680771D02*
X58852380Y-3728390D01*
X58852380Y-3728390D02*
X58757142Y-3728390D01*
X58757142Y-3728390D02*
X58614285Y-3680771D01*
X58614285Y-3680771D02*
X58519047Y-3585532D01*
X58519047Y-3585532D02*
X58471428Y-3490294D01*
X58471428Y-3490294D02*
X58423809Y-3299818D01*
X58423809Y-3299818D02*
X58423809Y-3156961D01*
X58423809Y-3156961D02*
X58471428Y-2966485D01*
X58471428Y-2966485D02*
X58519047Y-2871247D01*
X58519047Y-2871247D02*
X58614285Y-2776009D01*
X58614285Y-2776009D02*
X58757142Y-2728390D01*
X58757142Y-2728390D02*
X58852380Y-2728390D01*
X58852380Y-2728390D02*
X58995237Y-2776009D01*
X58995237Y-2776009D02*
X59042856Y-2823628D01*
X59423809Y-2823628D02*
X59471428Y-2776009D01*
X59471428Y-2776009D02*
X59566666Y-2728390D01*
X59566666Y-2728390D02*
X59804761Y-2728390D01*
X59804761Y-2728390D02*
X59899999Y-2776009D01*
X59899999Y-2776009D02*
X59947618Y-2823628D01*
X59947618Y-2823628D02*
X59995237Y-2918866D01*
X59995237Y-2918866D02*
X59995237Y-3014104D01*
X59995237Y-3014104D02*
X59947618Y-3156961D01*
X59947618Y-3156961D02*
X59376190Y-3728390D01*
X59376190Y-3728390D02*
X59995237Y-3728390D01*
X60852380Y-3061723D02*
X60852380Y-3728390D01*
X60614285Y-2680771D02*
X60376190Y-3395056D01*
X60376190Y-3395056D02*
X60995237Y-3395056D01*
X72635713Y-3633151D02*
X72588094Y-3680771D01*
X72588094Y-3680771D02*
X72445237Y-3728390D01*
X72445237Y-3728390D02*
X72349999Y-3728390D01*
X72349999Y-3728390D02*
X72207142Y-3680771D01*
X72207142Y-3680771D02*
X72111904Y-3585532D01*
X72111904Y-3585532D02*
X72064285Y-3490294D01*
X72064285Y-3490294D02*
X72016666Y-3299818D01*
X72016666Y-3299818D02*
X72016666Y-3156961D01*
X72016666Y-3156961D02*
X72064285Y-2966485D01*
X72064285Y-2966485D02*
X72111904Y-2871247D01*
X72111904Y-2871247D02*
X72207142Y-2776009D01*
X72207142Y-2776009D02*
X72349999Y-2728390D01*
X72349999Y-2728390D02*
X72445237Y-2728390D01*
X72445237Y-2728390D02*
X72588094Y-2776009D01*
X72588094Y-2776009D02*
X72635713Y-2823628D01*
X73016666Y-2823628D02*
X73064285Y-2776009D01*
X73064285Y-2776009D02*
X73159523Y-2728390D01*
X73159523Y-2728390D02*
X73397618Y-2728390D01*
X73397618Y-2728390D02*
X73492856Y-2776009D01*
X73492856Y-2776009D02*
X73540475Y-2823628D01*
X73540475Y-2823628D02*
X73588094Y-2918866D01*
X73588094Y-2918866D02*
X73588094Y-3014104D01*
X73588094Y-3014104D02*
X73540475Y-3156961D01*
X73540475Y-3156961D02*
X72969047Y-3728390D01*
X72969047Y-3728390D02*
X73588094Y-3728390D01*
X74492856Y-2728390D02*
X74016666Y-2728390D01*
X74016666Y-2728390D02*
X73969047Y-3204580D01*
X73969047Y-3204580D02*
X74016666Y-3156961D01*
X74016666Y-3156961D02*
X74111904Y-3109342D01*
X74111904Y-3109342D02*
X74349999Y-3109342D01*
X74349999Y-3109342D02*
X74445237Y-3156961D01*
X74445237Y-3156961D02*
X74492856Y-3204580D01*
X74492856Y-3204580D02*
X74540475Y-3299818D01*
X74540475Y-3299818D02*
X74540475Y-3537913D01*
X74540475Y-3537913D02*
X74492856Y-3633151D01*
X74492856Y-3633151D02*
X74445237Y-3680771D01*
X74445237Y-3680771D02*
X74349999Y-3728390D01*
X74349999Y-3728390D02*
X74111904Y-3728390D01*
X74111904Y-3728390D02*
X74016666Y-3680771D01*
X74016666Y-3680771D02*
X73969047Y-3633151D01*
X18145237Y17825894D02*
X18145237Y17016371D01*
X18145237Y17016371D02*
X18192856Y16921133D01*
X18192856Y16921133D02*
X18240475Y16873514D01*
X18240475Y16873514D02*
X18335713Y16825894D01*
X18335713Y16825894D02*
X18526189Y16825894D01*
X18526189Y16825894D02*
X18621427Y16873514D01*
X18621427Y16873514D02*
X18669046Y16921133D01*
X18669046Y16921133D02*
X18716665Y17016371D01*
X18716665Y17016371D02*
X18716665Y17825894D01*
X19145237Y17730656D02*
X19192856Y17778275D01*
X19192856Y17778275D02*
X19288094Y17825894D01*
X19288094Y17825894D02*
X19526189Y17825894D01*
X19526189Y17825894D02*
X19621427Y17778275D01*
X19621427Y17778275D02*
X19669046Y17730656D01*
X19669046Y17730656D02*
X19716665Y17635418D01*
X19716665Y17635418D02*
X19716665Y17540180D01*
X19716665Y17540180D02*
X19669046Y17397323D01*
X19669046Y17397323D02*
X19097618Y16825894D01*
X19097618Y16825894D02*
X19716665Y16825894D01*
X32166666Y20648751D02*
X32166666Y19934466D01*
X32166666Y19934466D02*
X32119047Y19791609D01*
X32119047Y19791609D02*
X32023809Y19696371D01*
X32023809Y19696371D02*
X31880952Y19648751D01*
X31880952Y19648751D02*
X31785714Y19648751D01*
X32785714Y20220180D02*
X32690476Y20267799D01*
X32690476Y20267799D02*
X32642857Y20315418D01*
X32642857Y20315418D02*
X32595238Y20410656D01*
X32595238Y20410656D02*
X32595238Y20458275D01*
X32595238Y20458275D02*
X32642857Y20553513D01*
X32642857Y20553513D02*
X32690476Y20601132D01*
X32690476Y20601132D02*
X32785714Y20648751D01*
X32785714Y20648751D02*
X32976190Y20648751D01*
X32976190Y20648751D02*
X33071428Y20601132D01*
X33071428Y20601132D02*
X33119047Y20553513D01*
X33119047Y20553513D02*
X33166666Y20458275D01*
X33166666Y20458275D02*
X33166666Y20410656D01*
X33166666Y20410656D02*
X33119047Y20315418D01*
X33119047Y20315418D02*
X33071428Y20267799D01*
X33071428Y20267799D02*
X32976190Y20220180D01*
X32976190Y20220180D02*
X32785714Y20220180D01*
X32785714Y20220180D02*
X32690476Y20172561D01*
X32690476Y20172561D02*
X32642857Y20124942D01*
X32642857Y20124942D02*
X32595238Y20029704D01*
X32595238Y20029704D02*
X32595238Y19839228D01*
X32595238Y19839228D02*
X32642857Y19743990D01*
X32642857Y19743990D02*
X32690476Y19696371D01*
X32690476Y19696371D02*
X32785714Y19648751D01*
X32785714Y19648751D02*
X32976190Y19648751D01*
X32976190Y19648751D02*
X33071428Y19696371D01*
X33071428Y19696371D02*
X33119047Y19743990D01*
X33119047Y19743990D02*
X33166666Y19839228D01*
X33166666Y19839228D02*
X33166666Y20029704D01*
X33166666Y20029704D02*
X33119047Y20124942D01*
X33119047Y20124942D02*
X33071428Y20172561D01*
X33071428Y20172561D02*
X32976190Y20220180D01*
X31738095Y16325894D02*
X31738095Y15516371D01*
X31738095Y15516371D02*
X31785714Y15421133D01*
X31785714Y15421133D02*
X31833333Y15373514D01*
X31833333Y15373514D02*
X31928571Y15325894D01*
X31928571Y15325894D02*
X32119047Y15325894D01*
X32119047Y15325894D02*
X32214285Y15373514D01*
X32214285Y15373514D02*
X32261904Y15421133D01*
X32261904Y15421133D02*
X32309523Y15516371D01*
X32309523Y15516371D02*
X32309523Y16325894D01*
X32690476Y16325894D02*
X33309523Y16325894D01*
X33309523Y16325894D02*
X32976190Y15944942D01*
X32976190Y15944942D02*
X33119047Y15944942D01*
X33119047Y15944942D02*
X33214285Y15897323D01*
X33214285Y15897323D02*
X33261904Y15849704D01*
X33261904Y15849704D02*
X33309523Y15754466D01*
X33309523Y15754466D02*
X33309523Y15516371D01*
X33309523Y15516371D02*
X33261904Y15421133D01*
X33261904Y15421133D02*
X33214285Y15373514D01*
X33214285Y15373514D02*
X33119047Y15325894D01*
X33119047Y15325894D02*
X32833333Y15325894D01*
X32833333Y15325894D02*
X32738095Y15373514D01*
X32738095Y15373514D02*
X32690476Y15421133D01*
X-9040475Y18325894D02*
X-9040475Y17516371D01*
X-9040475Y17516371D02*
X-8992856Y17421133D01*
X-8992856Y17421133D02*
X-8945237Y17373514D01*
X-8945237Y17373514D02*
X-8849999Y17325894D01*
X-8849999Y17325894D02*
X-8659523Y17325894D01*
X-8659523Y17325894D02*
X-8564285Y17373514D01*
X-8564285Y17373514D02*
X-8516666Y17421133D01*
X-8516666Y17421133D02*
X-8469047Y17516371D01*
X-8469047Y17516371D02*
X-8469047Y18325894D01*
X-7469047Y17325894D02*
X-8040475Y17325894D01*
X-7754761Y17325894D02*
X-7754761Y18325894D01*
X-7754761Y18325894D02*
X-7849999Y18183037D01*
X-7849999Y18183037D02*
X-7945237Y18087799D01*
X-7945237Y18087799D02*
X-8040475Y18040180D01*
X45759523Y8648751D02*
X45759523Y7934466D01*
X45759523Y7934466D02*
X45711904Y7791609D01*
X45711904Y7791609D02*
X45616666Y7696371D01*
X45616666Y7696371D02*
X45473809Y7648751D01*
X45473809Y7648751D02*
X45378571Y7648751D01*
X46283333Y7648751D02*
X46473809Y7648751D01*
X46473809Y7648751D02*
X46569047Y7696371D01*
X46569047Y7696371D02*
X46616666Y7743990D01*
X46616666Y7743990D02*
X46711904Y7886847D01*
X46711904Y7886847D02*
X46759523Y8077323D01*
X46759523Y8077323D02*
X46759523Y8458275D01*
X46759523Y8458275D02*
X46711904Y8553513D01*
X46711904Y8553513D02*
X46664285Y8601132D01*
X46664285Y8601132D02*
X46569047Y8648751D01*
X46569047Y8648751D02*
X46378571Y8648751D01*
X46378571Y8648751D02*
X46283333Y8601132D01*
X46283333Y8601132D02*
X46235714Y8553513D01*
X46235714Y8553513D02*
X46188095Y8458275D01*
X46188095Y8458275D02*
X46188095Y8220180D01*
X46188095Y8220180D02*
X46235714Y8124942D01*
X46235714Y8124942D02*
X46283333Y8077323D01*
X46283333Y8077323D02*
X46378571Y8029704D01*
X46378571Y8029704D02*
X46569047Y8029704D01*
X46569047Y8029704D02*
X46664285Y8077323D01*
X46664285Y8077323D02*
X46711904Y8124942D01*
X46711904Y8124942D02*
X46759523Y8220180D01*
X-8611904Y8648751D02*
X-8611904Y7934466D01*
X-8611904Y7934466D02*
X-8659523Y7791609D01*
X-8659523Y7791609D02*
X-8754761Y7696371D01*
X-8754761Y7696371D02*
X-8897618Y7648751D01*
X-8897618Y7648751D02*
X-8992856Y7648751D01*
X-7659523Y8648751D02*
X-8135713Y8648751D01*
X-8135713Y8648751D02*
X-8183332Y8172561D01*
X-8183332Y8172561D02*
X-8135713Y8220180D01*
X-8135713Y8220180D02*
X-8040475Y8267799D01*
X-8040475Y8267799D02*
X-7802380Y8267799D01*
X-7802380Y8267799D02*
X-7707142Y8220180D01*
X-7707142Y8220180D02*
X-7659523Y8172561D01*
X-7659523Y8172561D02*
X-7611904Y8077323D01*
X-7611904Y8077323D02*
X-7611904Y7839228D01*
X-7611904Y7839228D02*
X-7659523Y7743990D01*
X-7659523Y7743990D02*
X-7707142Y7696371D01*
X-7707142Y7696371D02*
X-7802380Y7648751D01*
X-7802380Y7648751D02*
X-8040475Y7648751D01*
X-8040475Y7648751D02*
X-8135713Y7696371D01*
X-8135713Y7696371D02*
X-8183332Y7743990D01*
X4980951Y8648751D02*
X4980951Y7934466D01*
X4980951Y7934466D02*
X4933332Y7791609D01*
X4933332Y7791609D02*
X4838094Y7696371D01*
X4838094Y7696371D02*
X4695237Y7648751D01*
X4695237Y7648751D02*
X4599999Y7648751D01*
X5885713Y8648751D02*
X5695237Y8648751D01*
X5695237Y8648751D02*
X5599999Y8601132D01*
X5599999Y8601132D02*
X5552380Y8553513D01*
X5552380Y8553513D02*
X5457142Y8410656D01*
X5457142Y8410656D02*
X5409523Y8220180D01*
X5409523Y8220180D02*
X5409523Y7839228D01*
X5409523Y7839228D02*
X5457142Y7743990D01*
X5457142Y7743990D02*
X5504761Y7696371D01*
X5504761Y7696371D02*
X5599999Y7648751D01*
X5599999Y7648751D02*
X5790475Y7648751D01*
X5790475Y7648751D02*
X5885713Y7696371D01*
X5885713Y7696371D02*
X5933332Y7743990D01*
X5933332Y7743990D02*
X5980951Y7839228D01*
X5980951Y7839228D02*
X5980951Y8077323D01*
X5980951Y8077323D02*
X5933332Y8172561D01*
X5933332Y8172561D02*
X5885713Y8220180D01*
X5885713Y8220180D02*
X5790475Y8267799D01*
X5790475Y8267799D02*
X5599999Y8267799D01*
X5599999Y8267799D02*
X5504761Y8220180D01*
X5504761Y8220180D02*
X5457142Y8172561D01*
X5457142Y8172561D02*
X5409523Y8077323D01*
X59352380Y13237322D02*
X59352380Y12523037D01*
X59352380Y12523037D02*
X59304761Y12380180D01*
X59304761Y12380180D02*
X59209523Y12284942D01*
X59209523Y12284942D02*
X59066666Y12237322D01*
X59066666Y12237322D02*
X58971428Y12237322D01*
X59733333Y13237322D02*
X60352380Y13237322D01*
X60352380Y13237322D02*
X60019047Y12856370D01*
X60019047Y12856370D02*
X60161904Y12856370D01*
X60161904Y12856370D02*
X60257142Y12808751D01*
X60257142Y12808751D02*
X60304761Y12761132D01*
X60304761Y12761132D02*
X60352380Y12665894D01*
X60352380Y12665894D02*
X60352380Y12427799D01*
X60352380Y12427799D02*
X60304761Y12332561D01*
X60304761Y12332561D02*
X60257142Y12284942D01*
X60257142Y12284942D02*
X60161904Y12237322D01*
X60161904Y12237322D02*
X59876190Y12237322D01*
X59876190Y12237322D02*
X59780952Y12284942D01*
X59780952Y12284942D02*
X59733333Y12332561D01*
X72945237Y13237322D02*
X72945237Y12523037D01*
X72945237Y12523037D02*
X72897618Y12380180D01*
X72897618Y12380180D02*
X72802380Y12284942D01*
X72802380Y12284942D02*
X72659523Y12237322D01*
X72659523Y12237322D02*
X72564285Y12237322D01*
X73849999Y12903989D02*
X73849999Y12237322D01*
X73611904Y13284942D02*
X73373809Y12570656D01*
X73373809Y12570656D02*
X73992856Y12570656D01*
X32166666Y13237322D02*
X32166666Y12523037D01*
X32166666Y12523037D02*
X32119047Y12380180D01*
X32119047Y12380180D02*
X32023809Y12284942D01*
X32023809Y12284942D02*
X31880952Y12237322D01*
X31880952Y12237322D02*
X31785714Y12237322D01*
X33166666Y12237322D02*
X32595238Y12237322D01*
X32880952Y12237322D02*
X32880952Y13237322D01*
X32880952Y13237322D02*
X32785714Y13094465D01*
X32785714Y13094465D02*
X32690476Y12999227D01*
X32690476Y12999227D02*
X32595238Y12951608D01*
X45759523Y13237322D02*
X45759523Y12523037D01*
X45759523Y12523037D02*
X45711904Y12380180D01*
X45711904Y12380180D02*
X45616666Y12284942D01*
X45616666Y12284942D02*
X45473809Y12237322D01*
X45473809Y12237322D02*
X45378571Y12237322D01*
X46188095Y13142084D02*
X46235714Y13189703D01*
X46235714Y13189703D02*
X46330952Y13237322D01*
X46330952Y13237322D02*
X46569047Y13237322D01*
X46569047Y13237322D02*
X46664285Y13189703D01*
X46664285Y13189703D02*
X46711904Y13142084D01*
X46711904Y13142084D02*
X46759523Y13046846D01*
X46759523Y13046846D02*
X46759523Y12951608D01*
X46759523Y12951608D02*
X46711904Y12808751D01*
X46711904Y12808751D02*
X46140476Y12237322D01*
X46140476Y12237322D02*
X46759523Y12237322D01*
X45330952Y16825894D02*
X45330952Y16016371D01*
X45330952Y16016371D02*
X45378571Y15921133D01*
X45378571Y15921133D02*
X45426190Y15873514D01*
X45426190Y15873514D02*
X45521428Y15825894D01*
X45521428Y15825894D02*
X45711904Y15825894D01*
X45711904Y15825894D02*
X45807142Y15873514D01*
X45807142Y15873514D02*
X45854761Y15921133D01*
X45854761Y15921133D02*
X45902380Y16016371D01*
X45902380Y16016371D02*
X45902380Y16825894D01*
X46807142Y16492561D02*
X46807142Y15825894D01*
X46569047Y16873514D02*
X46330952Y16159228D01*
X46330952Y16159228D02*
X46949999Y16159228D01*
X4671427Y-4253151D02*
X4623808Y-4300771D01*
X4623808Y-4300771D02*
X4480951Y-4348390D01*
X4480951Y-4348390D02*
X4385713Y-4348390D01*
X4385713Y-4348390D02*
X4242856Y-4300771D01*
X4242856Y-4300771D02*
X4147618Y-4205532D01*
X4147618Y-4205532D02*
X4099999Y-4110294D01*
X4099999Y-4110294D02*
X4052380Y-3919818D01*
X4052380Y-3919818D02*
X4052380Y-3776961D01*
X4052380Y-3776961D02*
X4099999Y-3586485D01*
X4099999Y-3586485D02*
X4147618Y-3491247D01*
X4147618Y-3491247D02*
X4242856Y-3396009D01*
X4242856Y-3396009D02*
X4385713Y-3348390D01*
X4385713Y-3348390D02*
X4480951Y-3348390D01*
X4480951Y-3348390D02*
X4623808Y-3396009D01*
X4623808Y-3396009D02*
X4671427Y-3443628D01*
X5052380Y-3443628D02*
X5099999Y-3396009D01*
X5099999Y-3396009D02*
X5195237Y-3348390D01*
X5195237Y-3348390D02*
X5433332Y-3348390D01*
X5433332Y-3348390D02*
X5528570Y-3396009D01*
X5528570Y-3396009D02*
X5576189Y-3443628D01*
X5576189Y-3443628D02*
X5623808Y-3538866D01*
X5623808Y-3538866D02*
X5623808Y-3634104D01*
X5623808Y-3634104D02*
X5576189Y-3776961D01*
X5576189Y-3776961D02*
X5004761Y-4348390D01*
X5004761Y-4348390D02*
X5623808Y-4348390D01*
X6242856Y-3348390D02*
X6338094Y-3348390D01*
X6338094Y-3348390D02*
X6433332Y-3396009D01*
X6433332Y-3396009D02*
X6480951Y-3443628D01*
X6480951Y-3443628D02*
X6528570Y-3538866D01*
X6528570Y-3538866D02*
X6576189Y-3729342D01*
X6576189Y-3729342D02*
X6576189Y-3967437D01*
X6576189Y-3967437D02*
X6528570Y-4157913D01*
X6528570Y-4157913D02*
X6480951Y-4253151D01*
X6480951Y-4253151D02*
X6433332Y-4300771D01*
X6433332Y-4300771D02*
X6338094Y-4348390D01*
X6338094Y-4348390D02*
X6242856Y-4348390D01*
X6242856Y-4348390D02*
X6147618Y-4300771D01*
X6147618Y-4300771D02*
X6099999Y-4253151D01*
X6099999Y-4253151D02*
X6052380Y-4157913D01*
X6052380Y-4157913D02*
X6004761Y-3967437D01*
X6004761Y-3967437D02*
X6004761Y-3729342D01*
X6004761Y-3729342D02*
X6052380Y-3538866D01*
X6052380Y-3538866D02*
X6099999Y-3443628D01*
X6099999Y-3443628D02*
X6147618Y-3396009D01*
X6147618Y-3396009D02*
X6242856Y-3348390D01*
X18264284Y-4253151D02*
X18216665Y-4300771D01*
X18216665Y-4300771D02*
X18073808Y-4348390D01*
X18073808Y-4348390D02*
X17978570Y-4348390D01*
X17978570Y-4348390D02*
X17835713Y-4300771D01*
X17835713Y-4300771D02*
X17740475Y-4205532D01*
X17740475Y-4205532D02*
X17692856Y-4110294D01*
X17692856Y-4110294D02*
X17645237Y-3919818D01*
X17645237Y-3919818D02*
X17645237Y-3776961D01*
X17645237Y-3776961D02*
X17692856Y-3586485D01*
X17692856Y-3586485D02*
X17740475Y-3491247D01*
X17740475Y-3491247D02*
X17835713Y-3396009D01*
X17835713Y-3396009D02*
X17978570Y-3348390D01*
X17978570Y-3348390D02*
X18073808Y-3348390D01*
X18073808Y-3348390D02*
X18216665Y-3396009D01*
X18216665Y-3396009D02*
X18264284Y-3443628D01*
X18645237Y-3443628D02*
X18692856Y-3396009D01*
X18692856Y-3396009D02*
X18788094Y-3348390D01*
X18788094Y-3348390D02*
X19026189Y-3348390D01*
X19026189Y-3348390D02*
X19121427Y-3396009D01*
X19121427Y-3396009D02*
X19169046Y-3443628D01*
X19169046Y-3443628D02*
X19216665Y-3538866D01*
X19216665Y-3538866D02*
X19216665Y-3634104D01*
X19216665Y-3634104D02*
X19169046Y-3776961D01*
X19169046Y-3776961D02*
X18597618Y-4348390D01*
X18597618Y-4348390D02*
X19216665Y-4348390D01*
X20169046Y-4348390D02*
X19597618Y-4348390D01*
X19883332Y-4348390D02*
X19883332Y-3348390D01*
X19883332Y-3348390D02*
X19788094Y-3491247D01*
X19788094Y-3491247D02*
X19692856Y-3586485D01*
X19692856Y-3586485D02*
X19597618Y-3634104D01*
X31857142Y-4253151D02*
X31809523Y-4300771D01*
X31809523Y-4300771D02*
X31666666Y-4348390D01*
X31666666Y-4348390D02*
X31571428Y-4348390D01*
X31571428Y-4348390D02*
X31428571Y-4300771D01*
X31428571Y-4300771D02*
X31333333Y-4205532D01*
X31333333Y-4205532D02*
X31285714Y-4110294D01*
X31285714Y-4110294D02*
X31238095Y-3919818D01*
X31238095Y-3919818D02*
X31238095Y-3776961D01*
X31238095Y-3776961D02*
X31285714Y-3586485D01*
X31285714Y-3586485D02*
X31333333Y-3491247D01*
X31333333Y-3491247D02*
X31428571Y-3396009D01*
X31428571Y-3396009D02*
X31571428Y-3348390D01*
X31571428Y-3348390D02*
X31666666Y-3348390D01*
X31666666Y-3348390D02*
X31809523Y-3396009D01*
X31809523Y-3396009D02*
X31857142Y-3443628D01*
X32238095Y-3443628D02*
X32285714Y-3396009D01*
X32285714Y-3396009D02*
X32380952Y-3348390D01*
X32380952Y-3348390D02*
X32619047Y-3348390D01*
X32619047Y-3348390D02*
X32714285Y-3396009D01*
X32714285Y-3396009D02*
X32761904Y-3443628D01*
X32761904Y-3443628D02*
X32809523Y-3538866D01*
X32809523Y-3538866D02*
X32809523Y-3634104D01*
X32809523Y-3634104D02*
X32761904Y-3776961D01*
X32761904Y-3776961D02*
X32190476Y-4348390D01*
X32190476Y-4348390D02*
X32809523Y-4348390D01*
X33190476Y-3443628D02*
X33238095Y-3396009D01*
X33238095Y-3396009D02*
X33333333Y-3348390D01*
X33333333Y-3348390D02*
X33571428Y-3348390D01*
X33571428Y-3348390D02*
X33666666Y-3396009D01*
X33666666Y-3396009D02*
X33714285Y-3443628D01*
X33714285Y-3443628D02*
X33761904Y-3538866D01*
X33761904Y-3538866D02*
X33761904Y-3634104D01*
X33761904Y-3634104D02*
X33714285Y-3776961D01*
X33714285Y-3776961D02*
X33142857Y-4348390D01*
X33142857Y-4348390D02*
X33761904Y-4348390D01*
X45449999Y-4253151D02*
X45402380Y-4300771D01*
X45402380Y-4300771D02*
X45259523Y-4348390D01*
X45259523Y-4348390D02*
X45164285Y-4348390D01*
X45164285Y-4348390D02*
X45021428Y-4300771D01*
X45021428Y-4300771D02*
X44926190Y-4205532D01*
X44926190Y-4205532D02*
X44878571Y-4110294D01*
X44878571Y-4110294D02*
X44830952Y-3919818D01*
X44830952Y-3919818D02*
X44830952Y-3776961D01*
X44830952Y-3776961D02*
X44878571Y-3586485D01*
X44878571Y-3586485D02*
X44926190Y-3491247D01*
X44926190Y-3491247D02*
X45021428Y-3396009D01*
X45021428Y-3396009D02*
X45164285Y-3348390D01*
X45164285Y-3348390D02*
X45259523Y-3348390D01*
X45259523Y-3348390D02*
X45402380Y-3396009D01*
X45402380Y-3396009D02*
X45449999Y-3443628D01*
X45830952Y-3443628D02*
X45878571Y-3396009D01*
X45878571Y-3396009D02*
X45973809Y-3348390D01*
X45973809Y-3348390D02*
X46211904Y-3348390D01*
X46211904Y-3348390D02*
X46307142Y-3396009D01*
X46307142Y-3396009D02*
X46354761Y-3443628D01*
X46354761Y-3443628D02*
X46402380Y-3538866D01*
X46402380Y-3538866D02*
X46402380Y-3634104D01*
X46402380Y-3634104D02*
X46354761Y-3776961D01*
X46354761Y-3776961D02*
X45783333Y-4348390D01*
X45783333Y-4348390D02*
X46402380Y-4348390D01*
X46735714Y-3348390D02*
X47354761Y-3348390D01*
X47354761Y-3348390D02*
X47021428Y-3729342D01*
X47021428Y-3729342D02*
X47164285Y-3729342D01*
X47164285Y-3729342D02*
X47259523Y-3776961D01*
X47259523Y-3776961D02*
X47307142Y-3824580D01*
X47307142Y-3824580D02*
X47354761Y-3919818D01*
X47354761Y-3919818D02*
X47354761Y-4157913D01*
X47354761Y-4157913D02*
X47307142Y-4253151D01*
X47307142Y-4253151D02*
X47259523Y-4300771D01*
X47259523Y-4300771D02*
X47164285Y-4348390D01*
X47164285Y-4348390D02*
X46878571Y-4348390D01*
X46878571Y-4348390D02*
X46783333Y-4300771D01*
X46783333Y-4300771D02*
X46735714Y-4253151D01*
X18573808Y9648751D02*
X18573808Y8934466D01*
X18573808Y8934466D02*
X18526189Y8791609D01*
X18526189Y8791609D02*
X18430951Y8696371D01*
X18430951Y8696371D02*
X18288094Y8648751D01*
X18288094Y8648751D02*
X18192856Y8648751D01*
X18954761Y9648751D02*
X19621427Y9648751D01*
X19621427Y9648751D02*
X19192856Y8648751D01*
X59519047Y5428751D02*
X59042857Y5428751D01*
X59042857Y5428751D02*
X59042857Y6428751D01*
X60376190Y5428751D02*
X59804762Y5428751D01*
X60090476Y5428751D02*
X60090476Y6428751D01*
X60090476Y6428751D02*
X59995238Y6285894D01*
X59995238Y6285894D02*
X59900000Y6190656D01*
X59900000Y6190656D02*
X59804762Y6143037D01*
X32333333Y-184579D02*
X32285714Y-232199D01*
X32285714Y-232199D02*
X32142857Y-279818D01*
X32142857Y-279818D02*
X32047619Y-279818D01*
X32047619Y-279818D02*
X31904762Y-232199D01*
X31904762Y-232199D02*
X31809524Y-136960D01*
X31809524Y-136960D02*
X31761905Y-41722D01*
X31761905Y-41722D02*
X31714286Y148753D01*
X31714286Y148753D02*
X31714286Y291610D01*
X31714286Y291610D02*
X31761905Y482086D01*
X31761905Y482086D02*
X31809524Y577324D01*
X31809524Y577324D02*
X31904762Y672562D01*
X31904762Y672562D02*
X32047619Y720181D01*
X32047619Y720181D02*
X32142857Y720181D01*
X32142857Y720181D02*
X32285714Y672562D01*
X32285714Y672562D02*
X32333333Y624943D01*
X33285714Y-279818D02*
X32714286Y-279818D01*
X33000000Y-279818D02*
X33000000Y720181D01*
X33000000Y720181D02*
X32904762Y577324D01*
X32904762Y577324D02*
X32809524Y482086D01*
X32809524Y482086D02*
X32714286Y434467D01*
X45449999Y-184579D02*
X45402380Y-232199D01*
X45402380Y-232199D02*
X45259523Y-279818D01*
X45259523Y-279818D02*
X45164285Y-279818D01*
X45164285Y-279818D02*
X45021428Y-232199D01*
X45021428Y-232199D02*
X44926190Y-136960D01*
X44926190Y-136960D02*
X44878571Y-41722D01*
X44878571Y-41722D02*
X44830952Y148753D01*
X44830952Y148753D02*
X44830952Y291610D01*
X44830952Y291610D02*
X44878571Y482086D01*
X44878571Y482086D02*
X44926190Y577324D01*
X44926190Y577324D02*
X45021428Y672562D01*
X45021428Y672562D02*
X45164285Y720181D01*
X45164285Y720181D02*
X45259523Y720181D01*
X45259523Y720181D02*
X45402380Y672562D01*
X45402380Y672562D02*
X45449999Y624943D01*
X46402380Y-279818D02*
X45830952Y-279818D01*
X46116666Y-279818D02*
X46116666Y720181D01*
X46116666Y720181D02*
X46021428Y577324D01*
X46021428Y577324D02*
X45926190Y482086D01*
X45926190Y482086D02*
X45830952Y434467D01*
X47021428Y720181D02*
X47116666Y720181D01*
X47116666Y720181D02*
X47211904Y672562D01*
X47211904Y672562D02*
X47259523Y624943D01*
X47259523Y624943D02*
X47307142Y529705D01*
X47307142Y529705D02*
X47354761Y339229D01*
X47354761Y339229D02*
X47354761Y101134D01*
X47354761Y101134D02*
X47307142Y-89341D01*
X47307142Y-89341D02*
X47259523Y-184579D01*
X47259523Y-184579D02*
X47211904Y-232199D01*
X47211904Y-232199D02*
X47116666Y-279818D01*
X47116666Y-279818D02*
X47021428Y-279818D01*
X47021428Y-279818D02*
X46926190Y-232199D01*
X46926190Y-232199D02*
X46878571Y-184579D01*
X46878571Y-184579D02*
X46830952Y-89341D01*
X46830952Y-89341D02*
X46783333Y101134D01*
X46783333Y101134D02*
X46783333Y339229D01*
X46783333Y339229D02*
X46830952Y529705D01*
X46830952Y529705D02*
X46878571Y624943D01*
X46878571Y624943D02*
X46926190Y672562D01*
X46926190Y672562D02*
X47021428Y720181D01*
X59042856Y-184579D02*
X58995237Y-232199D01*
X58995237Y-232199D02*
X58852380Y-279818D01*
X58852380Y-279818D02*
X58757142Y-279818D01*
X58757142Y-279818D02*
X58614285Y-232199D01*
X58614285Y-232199D02*
X58519047Y-136960D01*
X58519047Y-136960D02*
X58471428Y-41722D01*
X58471428Y-41722D02*
X58423809Y148753D01*
X58423809Y148753D02*
X58423809Y291610D01*
X58423809Y291610D02*
X58471428Y482086D01*
X58471428Y482086D02*
X58519047Y577324D01*
X58519047Y577324D02*
X58614285Y672562D01*
X58614285Y672562D02*
X58757142Y720181D01*
X58757142Y720181D02*
X58852380Y720181D01*
X58852380Y720181D02*
X58995237Y672562D01*
X58995237Y672562D02*
X59042856Y624943D01*
X59995237Y-279818D02*
X59423809Y-279818D01*
X59709523Y-279818D02*
X59709523Y720181D01*
X59709523Y720181D02*
X59614285Y577324D01*
X59614285Y577324D02*
X59519047Y482086D01*
X59519047Y482086D02*
X59423809Y434467D01*
X60947618Y-279818D02*
X60376190Y-279818D01*
X60661904Y-279818D02*
X60661904Y720181D01*
X60661904Y720181D02*
X60566666Y577324D01*
X60566666Y577324D02*
X60471428Y482086D01*
X60471428Y482086D02*
X60376190Y434467D01*
X72635713Y-184579D02*
X72588094Y-232199D01*
X72588094Y-232199D02*
X72445237Y-279818D01*
X72445237Y-279818D02*
X72349999Y-279818D01*
X72349999Y-279818D02*
X72207142Y-232199D01*
X72207142Y-232199D02*
X72111904Y-136960D01*
X72111904Y-136960D02*
X72064285Y-41722D01*
X72064285Y-41722D02*
X72016666Y148753D01*
X72016666Y148753D02*
X72016666Y291610D01*
X72016666Y291610D02*
X72064285Y482086D01*
X72064285Y482086D02*
X72111904Y577324D01*
X72111904Y577324D02*
X72207142Y672562D01*
X72207142Y672562D02*
X72349999Y720181D01*
X72349999Y720181D02*
X72445237Y720181D01*
X72445237Y720181D02*
X72588094Y672562D01*
X72588094Y672562D02*
X72635713Y624943D01*
X73588094Y-279818D02*
X73016666Y-279818D01*
X73302380Y-279818D02*
X73302380Y720181D01*
X73302380Y720181D02*
X73207142Y577324D01*
X73207142Y577324D02*
X73111904Y482086D01*
X73111904Y482086D02*
X73016666Y434467D01*
X73969047Y624943D02*
X74016666Y672562D01*
X74016666Y672562D02*
X74111904Y720181D01*
X74111904Y720181D02*
X74349999Y720181D01*
X74349999Y720181D02*
X74445237Y672562D01*
X74445237Y672562D02*
X74492856Y624943D01*
X74492856Y624943D02*
X74540475Y529705D01*
X74540475Y529705D02*
X74540475Y434467D01*
X74540475Y434467D02*
X74492856Y291610D01*
X74492856Y291610D02*
X73921428Y-279818D01*
X73921428Y-279818D02*
X74540475Y-279818D01*
X-8445237Y-4773151D02*
X-8492856Y-4820771D01*
X-8492856Y-4820771D02*
X-8635713Y-4868390D01*
X-8635713Y-4868390D02*
X-8730951Y-4868390D01*
X-8730951Y-4868390D02*
X-8873808Y-4820771D01*
X-8873808Y-4820771D02*
X-8969046Y-4725532D01*
X-8969046Y-4725532D02*
X-9016665Y-4630294D01*
X-9016665Y-4630294D02*
X-9064284Y-4439818D01*
X-9064284Y-4439818D02*
X-9064284Y-4296961D01*
X-9064284Y-4296961D02*
X-9016665Y-4106485D01*
X-9016665Y-4106485D02*
X-8969046Y-4011247D01*
X-8969046Y-4011247D02*
X-8873808Y-3916009D01*
X-8873808Y-3916009D02*
X-8730951Y-3868390D01*
X-8730951Y-3868390D02*
X-8635713Y-3868390D01*
X-8635713Y-3868390D02*
X-8492856Y-3916009D01*
X-8492856Y-3916009D02*
X-8445237Y-3963628D01*
X-8064284Y-3963628D02*
X-8016665Y-3916009D01*
X-8016665Y-3916009D02*
X-7921427Y-3868390D01*
X-7921427Y-3868390D02*
X-7683332Y-3868390D01*
X-7683332Y-3868390D02*
X-7588094Y-3916009D01*
X-7588094Y-3916009D02*
X-7540475Y-3963628D01*
X-7540475Y-3963628D02*
X-7492856Y-4058866D01*
X-7492856Y-4058866D02*
X-7492856Y-4154104D01*
X-7492856Y-4154104D02*
X-7540475Y-4296961D01*
X-7540475Y-4296961D02*
X-8111903Y-4868390D01*
X-8111903Y-4868390D02*
X-7492856Y-4868390D01*
X-8445237Y-9361722D02*
X-8492856Y-9409342D01*
X-8492856Y-9409342D02*
X-8635713Y-9456961D01*
X-8635713Y-9456961D02*
X-8730951Y-9456961D01*
X-8730951Y-9456961D02*
X-8873808Y-9409342D01*
X-8873808Y-9409342D02*
X-8969046Y-9314103D01*
X-8969046Y-9314103D02*
X-9016665Y-9218865D01*
X-9016665Y-9218865D02*
X-9064284Y-9028389D01*
X-9064284Y-9028389D02*
X-9064284Y-8885532D01*
X-9064284Y-8885532D02*
X-9016665Y-8695056D01*
X-9016665Y-8695056D02*
X-8969046Y-8599818D01*
X-8969046Y-8599818D02*
X-8873808Y-8504580D01*
X-8873808Y-8504580D02*
X-8730951Y-8456961D01*
X-8730951Y-8456961D02*
X-8635713Y-8456961D01*
X-8635713Y-8456961D02*
X-8492856Y-8504580D01*
X-8492856Y-8504580D02*
X-8445237Y-8552199D01*
X-8111903Y-8456961D02*
X-7492856Y-8456961D01*
X-7492856Y-8456961D02*
X-7826189Y-8837913D01*
X-7826189Y-8837913D02*
X-7683332Y-8837913D01*
X-7683332Y-8837913D02*
X-7588094Y-8885532D01*
X-7588094Y-8885532D02*
X-7540475Y-8933151D01*
X-7540475Y-8933151D02*
X-7492856Y-9028389D01*
X-7492856Y-9028389D02*
X-7492856Y-9266484D01*
X-7492856Y-9266484D02*
X-7540475Y-9361722D01*
X-7540475Y-9361722D02*
X-7588094Y-9409342D01*
X-7588094Y-9409342D02*
X-7683332Y-9456961D01*
X-7683332Y-9456961D02*
X-7969046Y-9456961D01*
X-7969046Y-9456961D02*
X-8064284Y-9409342D01*
X-8064284Y-9409342D02*
X-8111903Y-9361722D01*
X5147618Y-9361722D02*
X5099999Y-9409342D01*
X5099999Y-9409342D02*
X4957142Y-9456961D01*
X4957142Y-9456961D02*
X4861904Y-9456961D01*
X4861904Y-9456961D02*
X4719047Y-9409342D01*
X4719047Y-9409342D02*
X4623809Y-9314103D01*
X4623809Y-9314103D02*
X4576190Y-9218865D01*
X4576190Y-9218865D02*
X4528571Y-9028389D01*
X4528571Y-9028389D02*
X4528571Y-8885532D01*
X4528571Y-8885532D02*
X4576190Y-8695056D01*
X4576190Y-8695056D02*
X4623809Y-8599818D01*
X4623809Y-8599818D02*
X4719047Y-8504580D01*
X4719047Y-8504580D02*
X4861904Y-8456961D01*
X4861904Y-8456961D02*
X4957142Y-8456961D01*
X4957142Y-8456961D02*
X5099999Y-8504580D01*
X5099999Y-8504580D02*
X5147618Y-8552199D01*
X6004761Y-8790294D02*
X6004761Y-9456961D01*
X5766666Y-8409342D02*
X5528571Y-9123627D01*
X5528571Y-9123627D02*
X6147618Y-9123627D01*
X18740475Y-9361722D02*
X18692856Y-9409342D01*
X18692856Y-9409342D02*
X18549999Y-9456961D01*
X18549999Y-9456961D02*
X18454761Y-9456961D01*
X18454761Y-9456961D02*
X18311904Y-9409342D01*
X18311904Y-9409342D02*
X18216666Y-9314103D01*
X18216666Y-9314103D02*
X18169047Y-9218865D01*
X18169047Y-9218865D02*
X18121428Y-9028389D01*
X18121428Y-9028389D02*
X18121428Y-8885532D01*
X18121428Y-8885532D02*
X18169047Y-8695056D01*
X18169047Y-8695056D02*
X18216666Y-8599818D01*
X18216666Y-8599818D02*
X18311904Y-8504580D01*
X18311904Y-8504580D02*
X18454761Y-8456961D01*
X18454761Y-8456961D02*
X18549999Y-8456961D01*
X18549999Y-8456961D02*
X18692856Y-8504580D01*
X18692856Y-8504580D02*
X18740475Y-8552199D01*
X19645237Y-8456961D02*
X19169047Y-8456961D01*
X19169047Y-8456961D02*
X19121428Y-8933151D01*
X19121428Y-8933151D02*
X19169047Y-8885532D01*
X19169047Y-8885532D02*
X19264285Y-8837913D01*
X19264285Y-8837913D02*
X19502380Y-8837913D01*
X19502380Y-8837913D02*
X19597618Y-8885532D01*
X19597618Y-8885532D02*
X19645237Y-8933151D01*
X19645237Y-8933151D02*
X19692856Y-9028389D01*
X19692856Y-9028389D02*
X19692856Y-9266484D01*
X19692856Y-9266484D02*
X19645237Y-9361722D01*
X19645237Y-9361722D02*
X19597618Y-9409342D01*
X19597618Y-9409342D02*
X19502380Y-9456961D01*
X19502380Y-9456961D02*
X19264285Y-9456961D01*
X19264285Y-9456961D02*
X19169047Y-9409342D01*
X19169047Y-9409342D02*
X19121428Y-9361722D01*
X32333333Y-9361722D02*
X32285714Y-9409342D01*
X32285714Y-9409342D02*
X32142857Y-9456961D01*
X32142857Y-9456961D02*
X32047619Y-9456961D01*
X32047619Y-9456961D02*
X31904762Y-9409342D01*
X31904762Y-9409342D02*
X31809524Y-9314103D01*
X31809524Y-9314103D02*
X31761905Y-9218865D01*
X31761905Y-9218865D02*
X31714286Y-9028389D01*
X31714286Y-9028389D02*
X31714286Y-8885532D01*
X31714286Y-8885532D02*
X31761905Y-8695056D01*
X31761905Y-8695056D02*
X31809524Y-8599818D01*
X31809524Y-8599818D02*
X31904762Y-8504580D01*
X31904762Y-8504580D02*
X32047619Y-8456961D01*
X32047619Y-8456961D02*
X32142857Y-8456961D01*
X32142857Y-8456961D02*
X32285714Y-8504580D01*
X32285714Y-8504580D02*
X32333333Y-8552199D01*
X33190476Y-8456961D02*
X33000000Y-8456961D01*
X33000000Y-8456961D02*
X32904762Y-8504580D01*
X32904762Y-8504580D02*
X32857143Y-8552199D01*
X32857143Y-8552199D02*
X32761905Y-8695056D01*
X32761905Y-8695056D02*
X32714286Y-8885532D01*
X32714286Y-8885532D02*
X32714286Y-9266484D01*
X32714286Y-9266484D02*
X32761905Y-9361722D01*
X32761905Y-9361722D02*
X32809524Y-9409342D01*
X32809524Y-9409342D02*
X32904762Y-9456961D01*
X32904762Y-9456961D02*
X33095238Y-9456961D01*
X33095238Y-9456961D02*
X33190476Y-9409342D01*
X33190476Y-9409342D02*
X33238095Y-9361722D01*
X33238095Y-9361722D02*
X33285714Y-9266484D01*
X33285714Y-9266484D02*
X33285714Y-9028389D01*
X33285714Y-9028389D02*
X33238095Y-8933151D01*
X33238095Y-8933151D02*
X33190476Y-8885532D01*
X33190476Y-8885532D02*
X33095238Y-8837913D01*
X33095238Y-8837913D02*
X32904762Y-8837913D01*
X32904762Y-8837913D02*
X32809524Y-8885532D01*
X32809524Y-8885532D02*
X32761905Y-8933151D01*
X32761905Y-8933151D02*
X32714286Y-9028389D01*
X45926190Y-9361722D02*
X45878571Y-9409342D01*
X45878571Y-9409342D02*
X45735714Y-9456961D01*
X45735714Y-9456961D02*
X45640476Y-9456961D01*
X45640476Y-9456961D02*
X45497619Y-9409342D01*
X45497619Y-9409342D02*
X45402381Y-9314103D01*
X45402381Y-9314103D02*
X45354762Y-9218865D01*
X45354762Y-9218865D02*
X45307143Y-9028389D01*
X45307143Y-9028389D02*
X45307143Y-8885532D01*
X45307143Y-8885532D02*
X45354762Y-8695056D01*
X45354762Y-8695056D02*
X45402381Y-8599818D01*
X45402381Y-8599818D02*
X45497619Y-8504580D01*
X45497619Y-8504580D02*
X45640476Y-8456961D01*
X45640476Y-8456961D02*
X45735714Y-8456961D01*
X45735714Y-8456961D02*
X45878571Y-8504580D01*
X45878571Y-8504580D02*
X45926190Y-8552199D01*
X46259524Y-8456961D02*
X46926190Y-8456961D01*
X46926190Y-8456961D02*
X46497619Y-9456961D01*
X59519047Y-9361722D02*
X59471428Y-9409342D01*
X59471428Y-9409342D02*
X59328571Y-9456961D01*
X59328571Y-9456961D02*
X59233333Y-9456961D01*
X59233333Y-9456961D02*
X59090476Y-9409342D01*
X59090476Y-9409342D02*
X58995238Y-9314103D01*
X58995238Y-9314103D02*
X58947619Y-9218865D01*
X58947619Y-9218865D02*
X58900000Y-9028389D01*
X58900000Y-9028389D02*
X58900000Y-8885532D01*
X58900000Y-8885532D02*
X58947619Y-8695056D01*
X58947619Y-8695056D02*
X58995238Y-8599818D01*
X58995238Y-8599818D02*
X59090476Y-8504580D01*
X59090476Y-8504580D02*
X59233333Y-8456961D01*
X59233333Y-8456961D02*
X59328571Y-8456961D01*
X59328571Y-8456961D02*
X59471428Y-8504580D01*
X59471428Y-8504580D02*
X59519047Y-8552199D01*
X60090476Y-8885532D02*
X59995238Y-8837913D01*
X59995238Y-8837913D02*
X59947619Y-8790294D01*
X59947619Y-8790294D02*
X59900000Y-8695056D01*
X59900000Y-8695056D02*
X59900000Y-8647437D01*
X59900000Y-8647437D02*
X59947619Y-8552199D01*
X59947619Y-8552199D02*
X59995238Y-8504580D01*
X59995238Y-8504580D02*
X60090476Y-8456961D01*
X60090476Y-8456961D02*
X60280952Y-8456961D01*
X60280952Y-8456961D02*
X60376190Y-8504580D01*
X60376190Y-8504580D02*
X60423809Y-8552199D01*
X60423809Y-8552199D02*
X60471428Y-8647437D01*
X60471428Y-8647437D02*
X60471428Y-8695056D01*
X60471428Y-8695056D02*
X60423809Y-8790294D01*
X60423809Y-8790294D02*
X60376190Y-8837913D01*
X60376190Y-8837913D02*
X60280952Y-8885532D01*
X60280952Y-8885532D02*
X60090476Y-8885532D01*
X60090476Y-8885532D02*
X59995238Y-8933151D01*
X59995238Y-8933151D02*
X59947619Y-8980770D01*
X59947619Y-8980770D02*
X59900000Y-9076008D01*
X59900000Y-9076008D02*
X59900000Y-9266484D01*
X59900000Y-9266484D02*
X59947619Y-9361722D01*
X59947619Y-9361722D02*
X59995238Y-9409342D01*
X59995238Y-9409342D02*
X60090476Y-9456961D01*
X60090476Y-9456961D02*
X60280952Y-9456961D01*
X60280952Y-9456961D02*
X60376190Y-9409342D01*
X60376190Y-9409342D02*
X60423809Y-9361722D01*
X60423809Y-9361722D02*
X60471428Y-9266484D01*
X60471428Y-9266484D02*
X60471428Y-9076008D01*
X60471428Y-9076008D02*
X60423809Y-8980770D01*
X60423809Y-8980770D02*
X60376190Y-8933151D01*
X60376190Y-8933151D02*
X60280952Y-8885532D01*
X73111904Y-9361722D02*
X73064285Y-9409342D01*
X73064285Y-9409342D02*
X72921428Y-9456961D01*
X72921428Y-9456961D02*
X72826190Y-9456961D01*
X72826190Y-9456961D02*
X72683333Y-9409342D01*
X72683333Y-9409342D02*
X72588095Y-9314103D01*
X72588095Y-9314103D02*
X72540476Y-9218865D01*
X72540476Y-9218865D02*
X72492857Y-9028389D01*
X72492857Y-9028389D02*
X72492857Y-8885532D01*
X72492857Y-8885532D02*
X72540476Y-8695056D01*
X72540476Y-8695056D02*
X72588095Y-8599818D01*
X72588095Y-8599818D02*
X72683333Y-8504580D01*
X72683333Y-8504580D02*
X72826190Y-8456961D01*
X72826190Y-8456961D02*
X72921428Y-8456961D01*
X72921428Y-8456961D02*
X73064285Y-8504580D01*
X73064285Y-8504580D02*
X73111904Y-8552199D01*
X73588095Y-9456961D02*
X73778571Y-9456961D01*
X73778571Y-9456961D02*
X73873809Y-9409342D01*
X73873809Y-9409342D02*
X73921428Y-9361722D01*
X73921428Y-9361722D02*
X74016666Y-9218865D01*
X74016666Y-9218865D02*
X74064285Y-9028389D01*
X74064285Y-9028389D02*
X74064285Y-8647437D01*
X74064285Y-8647437D02*
X74016666Y-8552199D01*
X74016666Y-8552199D02*
X73969047Y-8504580D01*
X73969047Y-8504580D02*
X73873809Y-8456961D01*
X73873809Y-8456961D02*
X73683333Y-8456961D01*
X73683333Y-8456961D02*
X73588095Y-8504580D01*
X73588095Y-8504580D02*
X73540476Y-8552199D01*
X73540476Y-8552199D02*
X73492857Y-8647437D01*
X73492857Y-8647437D02*
X73492857Y-8885532D01*
X73492857Y-8885532D02*
X73540476Y-8980770D01*
X73540476Y-8980770D02*
X73588095Y-9028389D01*
X73588095Y-9028389D02*
X73683333Y-9076008D01*
X73683333Y-9076008D02*
X73873809Y-9076008D01*
X73873809Y-9076008D02*
X73969047Y-9028389D01*
X73969047Y-9028389D02*
X74016666Y-8980770D01*
X74016666Y-8980770D02*
X74064285Y-8885532D01*
X4552380Y11737322D02*
X4552380Y10927799D01*
X4552380Y10927799D02*
X4599999Y10832561D01*
X4599999Y10832561D02*
X4647618Y10784942D01*
X4647618Y10784942D02*
X4742856Y10737322D01*
X4742856Y10737322D02*
X4933332Y10737322D01*
X4933332Y10737322D02*
X5028570Y10784942D01*
X5028570Y10784942D02*
X5076189Y10832561D01*
X5076189Y10832561D02*
X5123808Y10927799D01*
X5123808Y10927799D02*
X5123808Y11737322D01*
X5742856Y11308751D02*
X5647618Y11356370D01*
X5647618Y11356370D02*
X5599999Y11403989D01*
X5599999Y11403989D02*
X5552380Y11499227D01*
X5552380Y11499227D02*
X5552380Y11546846D01*
X5552380Y11546846D02*
X5599999Y11642084D01*
X5599999Y11642084D02*
X5647618Y11689703D01*
X5647618Y11689703D02*
X5742856Y11737322D01*
X5742856Y11737322D02*
X5933332Y11737322D01*
X5933332Y11737322D02*
X6028570Y11689703D01*
X6028570Y11689703D02*
X6076189Y11642084D01*
X6076189Y11642084D02*
X6123808Y11546846D01*
X6123808Y11546846D02*
X6123808Y11499227D01*
X6123808Y11499227D02*
X6076189Y11403989D01*
X6076189Y11403989D02*
X6028570Y11356370D01*
X6028570Y11356370D02*
X5933332Y11308751D01*
X5933332Y11308751D02*
X5742856Y11308751D01*
X5742856Y11308751D02*
X5647618Y11261132D01*
X5647618Y11261132D02*
X5599999Y11213513D01*
X5599999Y11213513D02*
X5552380Y11118275D01*
X5552380Y11118275D02*
X5552380Y10927799D01*
X5552380Y10927799D02*
X5599999Y10832561D01*
X5599999Y10832561D02*
X5647618Y10784942D01*
X5647618Y10784942D02*
X5742856Y10737322D01*
X5742856Y10737322D02*
X5933332Y10737322D01*
X5933332Y10737322D02*
X6028570Y10784942D01*
X6028570Y10784942D02*
X6076189Y10832561D01*
X6076189Y10832561D02*
X6123808Y10927799D01*
X6123808Y10927799D02*
X6123808Y11118275D01*
X6123808Y11118275D02*
X6076189Y11213513D01*
X6076189Y11213513D02*
X6028570Y11261132D01*
X6028570Y11261132D02*
X5933332Y11308751D01*
X4076190Y16325894D02*
X4076190Y15516371D01*
X4076190Y15516371D02*
X4123809Y15421133D01*
X4123809Y15421133D02*
X4171428Y15373514D01*
X4171428Y15373514D02*
X4266666Y15325894D01*
X4266666Y15325894D02*
X4457142Y15325894D01*
X4457142Y15325894D02*
X4552380Y15373514D01*
X4552380Y15373514D02*
X4599999Y15421133D01*
X4599999Y15421133D02*
X4647618Y15516371D01*
X4647618Y15516371D02*
X4647618Y16325894D01*
X5647618Y15325894D02*
X5076190Y15325894D01*
X5361904Y15325894D02*
X5361904Y16325894D01*
X5361904Y16325894D02*
X5266666Y16183037D01*
X5266666Y16183037D02*
X5171428Y16087799D01*
X5171428Y16087799D02*
X5076190Y16040180D01*
X6266666Y16325894D02*
X6361904Y16325894D01*
X6361904Y16325894D02*
X6457142Y16278275D01*
X6457142Y16278275D02*
X6504761Y16230656D01*
X6504761Y16230656D02*
X6552380Y16135418D01*
X6552380Y16135418D02*
X6599999Y15944942D01*
X6599999Y15944942D02*
X6599999Y15706847D01*
X6599999Y15706847D02*
X6552380Y15516371D01*
X6552380Y15516371D02*
X6504761Y15421133D01*
X6504761Y15421133D02*
X6457142Y15373514D01*
X6457142Y15373514D02*
X6361904Y15325894D01*
X6361904Y15325894D02*
X6266666Y15325894D01*
X6266666Y15325894D02*
X6171428Y15373514D01*
X6171428Y15373514D02*
X6123809Y15421133D01*
X6123809Y15421133D02*
X6076190Y15516371D01*
X6076190Y15516371D02*
X6028571Y15706847D01*
X6028571Y15706847D02*
X6028571Y15944942D01*
X6028571Y15944942D02*
X6076190Y16135418D01*
X6076190Y16135418D02*
X6123809Y16230656D01*
X6123809Y16230656D02*
X6171428Y16278275D01*
X6171428Y16278275D02*
X6266666Y16325894D01*
X18145237Y11737322D02*
X18145237Y10927799D01*
X18145237Y10927799D02*
X18192856Y10832561D01*
X18192856Y10832561D02*
X18240475Y10784942D01*
X18240475Y10784942D02*
X18335713Y10737322D01*
X18335713Y10737322D02*
X18526189Y10737322D01*
X18526189Y10737322D02*
X18621427Y10784942D01*
X18621427Y10784942D02*
X18669046Y10832561D01*
X18669046Y10832561D02*
X18716665Y10927799D01*
X18716665Y10927799D02*
X18716665Y11737322D01*
X19240475Y10737322D02*
X19430951Y10737322D01*
X19430951Y10737322D02*
X19526189Y10784942D01*
X19526189Y10784942D02*
X19573808Y10832561D01*
X19573808Y10832561D02*
X19669046Y10975418D01*
X19669046Y10975418D02*
X19716665Y11165894D01*
X19716665Y11165894D02*
X19716665Y11546846D01*
X19716665Y11546846D02*
X19669046Y11642084D01*
X19669046Y11642084D02*
X19621427Y11689703D01*
X19621427Y11689703D02*
X19526189Y11737322D01*
X19526189Y11737322D02*
X19335713Y11737322D01*
X19335713Y11737322D02*
X19240475Y11689703D01*
X19240475Y11689703D02*
X19192856Y11642084D01*
X19192856Y11642084D02*
X19145237Y11546846D01*
X19145237Y11546846D02*
X19145237Y11308751D01*
X19145237Y11308751D02*
X19192856Y11213513D01*
X19192856Y11213513D02*
X19240475Y11165894D01*
X19240475Y11165894D02*
X19335713Y11118275D01*
X19335713Y11118275D02*
X19526189Y11118275D01*
X19526189Y11118275D02*
X19621427Y11165894D01*
X19621427Y11165894D02*
X19669046Y11213513D01*
X19669046Y11213513D02*
X19716665Y11308751D01*
X-9040475Y11737322D02*
X-9040475Y10927799D01*
X-9040475Y10927799D02*
X-8992856Y10832561D01*
X-8992856Y10832561D02*
X-8945237Y10784942D01*
X-8945237Y10784942D02*
X-8849999Y10737322D01*
X-8849999Y10737322D02*
X-8659523Y10737322D01*
X-8659523Y10737322D02*
X-8564285Y10784942D01*
X-8564285Y10784942D02*
X-8516666Y10832561D01*
X-8516666Y10832561D02*
X-8469047Y10927799D01*
X-8469047Y10927799D02*
X-8469047Y11737322D01*
X-8088094Y11737322D02*
X-7421428Y11737322D01*
X-7421428Y11737322D02*
X-7849999Y10737322D01*
X72540476Y4998751D02*
X72540476Y5998751D01*
X72540476Y5998751D02*
X72778571Y5998751D01*
X72778571Y5998751D02*
X72921428Y5951132D01*
X72921428Y5951132D02*
X73016666Y5855894D01*
X73016666Y5855894D02*
X73064285Y5760656D01*
X73064285Y5760656D02*
X73111904Y5570180D01*
X73111904Y5570180D02*
X73111904Y5427323D01*
X73111904Y5427323D02*
X73064285Y5236847D01*
X73064285Y5236847D02*
X73016666Y5141609D01*
X73016666Y5141609D02*
X72921428Y5046371D01*
X72921428Y5046371D02*
X72778571Y4998751D01*
X72778571Y4998751D02*
X72540476Y4998751D01*
X74064285Y4998751D02*
X73492857Y4998751D01*
X73778571Y4998751D02*
X73778571Y5998751D01*
X73778571Y5998751D02*
X73683333Y5855894D01*
X73683333Y5855894D02*
X73588095Y5760656D01*
X73588095Y5760656D02*
X73492857Y5713037D01*
X-9016665Y410181D02*
X-9016665Y1410181D01*
X-9016665Y1410181D02*
X-8778570Y1410181D01*
X-8778570Y1410181D02*
X-8635713Y1362562D01*
X-8635713Y1362562D02*
X-8540475Y1267324D01*
X-8540475Y1267324D02*
X-8492856Y1172086D01*
X-8492856Y1172086D02*
X-8445237Y981610D01*
X-8445237Y981610D02*
X-8445237Y838753D01*
X-8445237Y838753D02*
X-8492856Y648277D01*
X-8492856Y648277D02*
X-8540475Y553039D01*
X-8540475Y553039D02*
X-8635713Y457801D01*
X-8635713Y457801D02*
X-8778570Y410181D01*
X-8778570Y410181D02*
X-9016665Y410181D01*
X-8064284Y1314943D02*
X-8016665Y1362562D01*
X-8016665Y1362562D02*
X-7921427Y1410181D01*
X-7921427Y1410181D02*
X-7683332Y1410181D01*
X-7683332Y1410181D02*
X-7588094Y1362562D01*
X-7588094Y1362562D02*
X-7540475Y1314943D01*
X-7540475Y1314943D02*
X-7492856Y1219705D01*
X-7492856Y1219705D02*
X-7492856Y1124467D01*
X-7492856Y1124467D02*
X-7540475Y981610D01*
X-7540475Y981610D02*
X-8111903Y410181D01*
X-8111903Y410181D02*
X-7492856Y410181D01*
X4576190Y410181D02*
X4576190Y1410181D01*
X4576190Y1410181D02*
X4814285Y1410181D01*
X4814285Y1410181D02*
X4957142Y1362562D01*
X4957142Y1362562D02*
X5052380Y1267324D01*
X5052380Y1267324D02*
X5099999Y1172086D01*
X5099999Y1172086D02*
X5147618Y981610D01*
X5147618Y981610D02*
X5147618Y838753D01*
X5147618Y838753D02*
X5099999Y648277D01*
X5099999Y648277D02*
X5052380Y553039D01*
X5052380Y553039D02*
X4957142Y457801D01*
X4957142Y457801D02*
X4814285Y410181D01*
X4814285Y410181D02*
X4576190Y410181D01*
X5480952Y1410181D02*
X6099999Y1410181D01*
X6099999Y1410181D02*
X5766666Y1029229D01*
X5766666Y1029229D02*
X5909523Y1029229D01*
X5909523Y1029229D02*
X6004761Y981610D01*
X6004761Y981610D02*
X6052380Y933991D01*
X6052380Y933991D02*
X6099999Y838753D01*
X6099999Y838753D02*
X6099999Y600658D01*
X6099999Y600658D02*
X6052380Y505420D01*
X6052380Y505420D02*
X6004761Y457801D01*
X6004761Y457801D02*
X5909523Y410181D01*
X5909523Y410181D02*
X5623809Y410181D01*
X5623809Y410181D02*
X5528571Y457801D01*
X5528571Y457801D02*
X5480952Y505420D01*
X18169047Y410181D02*
X18169047Y1410181D01*
X18169047Y1410181D02*
X18407142Y1410181D01*
X18407142Y1410181D02*
X18549999Y1362562D01*
X18549999Y1362562D02*
X18645237Y1267324D01*
X18645237Y1267324D02*
X18692856Y1172086D01*
X18692856Y1172086D02*
X18740475Y981610D01*
X18740475Y981610D02*
X18740475Y838753D01*
X18740475Y838753D02*
X18692856Y648277D01*
X18692856Y648277D02*
X18645237Y553039D01*
X18645237Y553039D02*
X18549999Y457801D01*
X18549999Y457801D02*
X18407142Y410181D01*
X18407142Y410181D02*
X18169047Y410181D01*
X19597618Y1076848D02*
X19597618Y410181D01*
X19359523Y1457801D02*
X19121428Y743515D01*
X19121428Y743515D02*
X19740475Y743515D01*
%TO.C,R1*%
D10*
X-8432212Y-14370714D02*
X-8124930Y-14370714D01*
X-8432212Y-15130714D02*
X-8124930Y-15130714D01*
%TO.C,R2*%
X5160644Y-14370714D02*
X5467926Y-14370714D01*
X5160644Y-15130714D02*
X5467926Y-15130714D01*
%TO.C,U5*%
X56585714Y15880714D02*
X62785714Y15880714D01*
X56585714Y9680714D02*
X56585714Y15880714D01*
X62785714Y15880714D02*
X62785714Y9680714D01*
X62785714Y9680714D02*
X56585714Y9680714D01*
D13*
X56423214Y16180714D02*
G75*
G02*
X56148214Y16180714I-137500J0D01*
G01*
X56148214Y16180714D02*
G75*
G02*
X56423214Y16180714I137500J0D01*
G01*
%TO.C,U6*%
D10*
X67578571Y18480714D02*
X78978571Y18480714D01*
X67578571Y7080714D02*
X67578571Y18480714D01*
X78978571Y18480714D02*
X78978571Y7080714D01*
X78978571Y7080714D02*
X67578571Y7080714D01*
D13*
X67416071Y18780714D02*
G75*
G02*
X67141071Y18780714I-137500J0D01*
G01*
X67141071Y18780714D02*
G75*
G02*
X67416071Y18780714I137500J0D01*
G01*
%TO.C,C24*%
D10*
X58974462Y-4213571D02*
X60396966Y-4213571D01*
X58974462Y-6933571D02*
X60396966Y-6933571D01*
%TO.C,C25*%
X72567319Y-4213571D02*
X73989823Y-4213571D01*
X72567319Y-6933571D02*
X73989823Y-6933571D01*
%TO.C,U2*%
X15807142Y15880714D02*
X22007142Y15880714D01*
X15807142Y9680714D02*
X15807142Y15880714D01*
X22007142Y15880714D02*
X22007142Y9680714D01*
X22007142Y9680714D02*
X15807142Y9680714D01*
D13*
X15644642Y16180714D02*
G75*
G02*
X15369642Y16180714I-137500J0D01*
G01*
X15369642Y16180714D02*
G75*
G02*
X15644642Y16180714I137500J0D01*
G01*
%TO.C,J8*%
D10*
X18400000Y18703571D02*
X46600000Y18703571D01*
X18400000Y-11496429D02*
X18400000Y18703571D01*
X46600000Y18703571D02*
X46600000Y-11496429D01*
X46600000Y-11496429D02*
X18400000Y-11496429D01*
D13*
X18237500Y19003571D02*
G75*
G02*
X17962500Y19003571I-137500J0D01*
G01*
X17962500Y19003571D02*
G75*
G02*
X18237500Y19003571I137500J0D01*
G01*
%TO.C,U3*%
D10*
X29200000Y14380714D02*
X35800000Y14380714D01*
X29200000Y11180714D02*
X29200000Y14380714D01*
X35800000Y14380714D02*
X35800000Y11180714D01*
X35800000Y11180714D02*
X29200000Y11180714D01*
D13*
X29037500Y14680714D02*
G75*
G02*
X28762500Y14680714I-137500J0D01*
G01*
X28762500Y14680714D02*
G75*
G02*
X29037500Y14680714I137500J0D01*
G01*
%TO.C,U1*%
D10*
X-11878571Y16380714D02*
X-4678571Y16380714D01*
X-11878571Y9180714D02*
X-11878571Y16380714D01*
X-4678571Y16380714D02*
X-4678571Y9180714D01*
X-4678571Y9180714D02*
X-11878571Y9180714D01*
D13*
X-12041071Y16680714D02*
G75*
G02*
X-12316071Y16680714I-137500J0D01*
G01*
X-12316071Y16680714D02*
G75*
G02*
X-12041071Y16680714I137500J0D01*
G01*
%TO.C,J9*%
D10*
X34492857Y6703571D02*
X57692857Y6703571D01*
X34492857Y503571D02*
X34492857Y6703571D01*
X57692857Y6703571D02*
X57692857Y503571D01*
X57692857Y503571D02*
X34492857Y503571D01*
D13*
X34330357Y7003571D02*
G75*
G02*
X34055357Y7003571I-137500J0D01*
G01*
X34055357Y7003571D02*
G75*
G02*
X34330357Y7003571I137500J0D01*
G01*
%TO.C,J5*%
D10*
X-16878571Y6703571D02*
X321429Y6703571D01*
X-16878571Y503571D02*
X-16878571Y6703571D01*
X321429Y6703571D02*
X321429Y503571D01*
X321429Y503571D02*
X-16878571Y503571D01*
D13*
X-17041071Y7003571D02*
G75*
G02*
X-17316071Y7003571I-137500J0D01*
G01*
X-17316071Y7003571D02*
G75*
G02*
X-17041071Y7003571I137500J0D01*
G01*
%TO.C,J6*%
D10*
X-3285715Y6703571D02*
X13914285Y6703571D01*
X-3285715Y503571D02*
X-3285715Y6703571D01*
X13914285Y6703571D02*
X13914285Y503571D01*
X13914285Y503571D02*
X-3285715Y503571D01*
D13*
X-3448215Y7003571D02*
G75*
G02*
X-3723215Y7003571I-137500J0D01*
G01*
X-3723215Y7003571D02*
G75*
G02*
X-3448215Y7003571I137500J0D01*
G01*
%TO.C,J3*%
D10*
X51085714Y11292142D02*
X68285714Y11292142D01*
X51085714Y5092142D02*
X51085714Y11292142D01*
X68285714Y11292142D02*
X68285714Y5092142D01*
X68285714Y5092142D02*
X51085714Y5092142D01*
D13*
X50923214Y11592142D02*
G75*
G02*
X50648214Y11592142I-137500J0D01*
G01*
X50648214Y11592142D02*
G75*
G02*
X50923214Y11592142I137500J0D01*
G01*
%TO.C,J4*%
D10*
X64678571Y11292142D02*
X81878571Y11292142D01*
X64678571Y5092142D02*
X64678571Y11292142D01*
X81878571Y11292142D02*
X81878571Y5092142D01*
X81878571Y5092142D02*
X64678571Y5092142D01*
D13*
X64516071Y11592142D02*
G75*
G02*
X64241071Y11592142I-137500J0D01*
G01*
X64241071Y11592142D02*
G75*
G02*
X64516071Y11592142I137500J0D01*
G01*
%TO.C,J1*%
D10*
X23900000Y11292142D02*
X41100000Y11292142D01*
X23900000Y5092142D02*
X23900000Y11292142D01*
X41100000Y11292142D02*
X41100000Y5092142D01*
X41100000Y5092142D02*
X23900000Y5092142D01*
D13*
X23737500Y11592142D02*
G75*
G02*
X23462500Y11592142I-137500J0D01*
G01*
X23462500Y11592142D02*
G75*
G02*
X23737500Y11592142I137500J0D01*
G01*
%TO.C,J2*%
D10*
X37492857Y11292142D02*
X54692857Y11292142D01*
X37492857Y5092142D02*
X37492857Y11292142D01*
X54692857Y11292142D02*
X54692857Y5092142D01*
X54692857Y5092142D02*
X37492857Y5092142D01*
D13*
X37330357Y11592142D02*
G75*
G02*
X37055357Y11592142I-137500J0D01*
G01*
X37055357Y11592142D02*
G75*
G02*
X37330357Y11592142I137500J0D01*
G01*
%TO.C,U4*%
D10*
X43992857Y14880714D02*
X48192857Y14880714D01*
X43992857Y10680714D02*
X43992857Y14880714D01*
X48192857Y14880714D02*
X48192857Y10680714D01*
X48192857Y10680714D02*
X43992857Y10680714D01*
D13*
X43830357Y15180714D02*
G75*
G02*
X43555357Y15180714I-137500J0D01*
G01*
X43555357Y15180714D02*
G75*
G02*
X43830357Y15180714I137500J0D01*
G01*
%TO.C,C20*%
D10*
X5053033Y-4838571D02*
X5575537Y-4838571D01*
X5053033Y-6308571D02*
X5575537Y-6308571D01*
%TO.C,C21*%
X18645890Y-4838571D02*
X19168394Y-4838571D01*
X18645890Y-6308571D02*
X19168394Y-6308571D01*
%TO.C,C22*%
X32238748Y-4838571D02*
X32761252Y-4838571D01*
X32238748Y-6308571D02*
X32761252Y-6308571D01*
%TO.C,C23*%
X45831605Y-4838571D02*
X46354109Y-4838571D01*
X45831605Y-6308571D02*
X46354109Y-6308571D01*
%TO.C,J7*%
X12807142Y7703571D02*
X25007142Y7703571D01*
X12807142Y-496429D02*
X12807142Y7703571D01*
X25007142Y7703571D02*
X25007142Y-496429D01*
X25007142Y-496429D02*
X12807142Y-496429D01*
D13*
X12644642Y8003571D02*
G75*
G02*
X12369642Y8003571I-137500J0D01*
G01*
X12369642Y8003571D02*
G75*
G02*
X12644642Y8003571I137500J0D01*
G01*
%TO.C,L1*%
D10*
X59083650Y4963571D02*
X60287778Y4963571D01*
X59083650Y2243571D02*
X60287778Y2243571D01*
%TO.C,C1*%
X32392164Y-624999D02*
X32607836Y-624999D01*
X32392164Y-1344999D02*
X32607836Y-1344999D01*
%TO.C,C10*%
X45985021Y-624999D02*
X46200693Y-624999D01*
X45985021Y-1344999D02*
X46200693Y-1344999D01*
%TO.C,C11*%
X59577878Y-624999D02*
X59793550Y-624999D01*
X59577878Y-1344999D02*
X59793550Y-1344999D01*
%TO.C,C12*%
X73170735Y-624999D02*
X73386407Y-624999D01*
X73170735Y-1344999D02*
X73386407Y-1344999D01*
%TO.C,C2*%
X-8386407Y-5213571D02*
X-8170735Y-5213571D01*
X-8386407Y-5933571D02*
X-8170735Y-5933571D01*
%TO.C,C3*%
X-8386407Y-9802142D02*
X-8170735Y-9802142D01*
X-8386407Y-10522142D02*
X-8170735Y-10522142D01*
%TO.C,C4*%
X5206449Y-9802142D02*
X5422121Y-9802142D01*
X5206449Y-10522142D02*
X5422121Y-10522142D01*
%TO.C,C5*%
X18799306Y-9802142D02*
X19014978Y-9802142D01*
X18799306Y-10522142D02*
X19014978Y-10522142D01*
%TO.C,C6*%
X32392164Y-9802142D02*
X32607836Y-9802142D01*
X32392164Y-10522142D02*
X32607836Y-10522142D01*
%TO.C,C7*%
X45985021Y-9802142D02*
X46200693Y-9802142D01*
X45985021Y-10522142D02*
X46200693Y-10522142D01*
%TO.C,C8*%
X59577878Y-9802142D02*
X59793550Y-9802142D01*
X59577878Y-10522142D02*
X59793550Y-10522142D01*
%TO.C,C9*%
X73170735Y-9802142D02*
X73386407Y-9802142D01*
X73170735Y-10522142D02*
X73386407Y-10522142D01*
%TO.C,U8*%
X3714285Y9792142D02*
X6914285Y9792142D01*
X3714285Y6592142D02*
X3714285Y9792142D01*
X6914285Y9792142D02*
X6914285Y6592142D01*
X6914285Y6592142D02*
X3714285Y6592142D01*
D13*
X3551785Y10092142D02*
G75*
G02*
X3276785Y10092142I-137500J0D01*
G01*
X3276785Y10092142D02*
G75*
G02*
X3551785Y10092142I137500J0D01*
G01*
%TO.C,U10*%
D10*
X3714285Y14380714D02*
X6914285Y14380714D01*
X3714285Y11180714D02*
X3714285Y14380714D01*
X6914285Y14380714D02*
X6914285Y11180714D01*
X6914285Y11180714D02*
X3714285Y11180714D01*
D13*
X3551785Y14680714D02*
G75*
G02*
X3276785Y14680714I-137500J0D01*
G01*
X3276785Y14680714D02*
G75*
G02*
X3551785Y14680714I137500J0D01*
G01*
%TO.C,U9*%
D10*
X17307142Y9792142D02*
X20507142Y9792142D01*
X17307142Y6592142D02*
X17307142Y9792142D01*
X20507142Y9792142D02*
X20507142Y6592142D01*
X20507142Y6592142D02*
X17307142Y6592142D01*
D13*
X17144642Y10092142D02*
G75*
G02*
X16869642Y10092142I-137500J0D01*
G01*
X16869642Y10092142D02*
G75*
G02*
X17144642Y10092142I137500J0D01*
G01*
%TO.C,U7*%
D10*
X-9878571Y9792142D02*
X-6678571Y9792142D01*
X-9878571Y6592142D02*
X-9878571Y9792142D01*
X-6678571Y9792142D02*
X-6678571Y6592142D01*
X-6678571Y6592142D02*
X-9878571Y6592142D01*
D13*
X-10041071Y10092142D02*
G75*
G02*
X-10316071Y10092142I-137500J0D01*
G01*
X-10316071Y10092142D02*
G75*
G02*
X-10041071Y10092142I137500J0D01*
G01*
%TO.C,D1*%
D10*
X71668571Y4453571D02*
X71668571Y2753571D01*
X71668571Y4453571D02*
X74328571Y4453571D01*
X71668571Y2753571D02*
X74328571Y2753571D01*
%TO.C,D2*%
X-9888571Y-134999D02*
X-9888571Y-1834999D01*
X-9888571Y-134999D02*
X-7228571Y-134999D01*
X-9888571Y-1834999D02*
X-7228571Y-1834999D01*
%TO.C,D3*%
X3704285Y-134999D02*
X3704285Y-1834999D01*
X3704285Y-134999D02*
X6364285Y-134999D01*
X3704285Y-1834999D02*
X6364285Y-1834999D01*
%TO.C,D4*%
X17297142Y-134999D02*
X17297142Y-1834999D01*
X17297142Y-134999D02*
X19957142Y-134999D01*
X17297142Y-1834999D02*
X19957142Y-1834999D01*
%TD*%
M02*
