%TF.GenerationSoftware,KiCad,Pcbnew,10.0.5*%
%TF.CreationDate,2026-08-03T20:27:08-07:00*%
%TF.ProjectId,palpod-orb-routed,70616c70-6f64-42d6-9f72-622d726f7574,A0*%
%TF.SameCoordinates,Original*%
%TF.FileFunction,OtherDrawing,Comment*%
%FSLAX46Y46*%
G04 Gerber Fmt 4.6, Leading zero omitted, Abs format (unit mm)*
G04 Created by KiCad (PCBNEW 10.0.5) date 2026-08-03 20:27:08*
%MOMM*%
%LPD*%
G01*
G04 APERTURE LIST*
%ADD10C,0.100000*%
%ADD11C,0.150000*%
G04 APERTURE END LIST*
D10*
X-20000000Y32000000D02*
X85000000Y32000000D01*
X-20000000Y30000000D02*
X-20000000Y32000000D01*
X-20000000Y30000000D02*
X85000000Y30000000D01*
D11*
X20000000Y7500000D02*
X20000000Y-7500000D01*
X55000000Y7500000D02*
X55000000Y-7500000D01*
D10*
X85000000Y30000000D02*
X85000000Y32000000D01*
D11*
X-17091792Y33130180D02*
X-17425125Y33606371D01*
X-17663220Y33130180D02*
X-17663220Y34130180D01*
X-17663220Y34130180D02*
X-17282268Y34130180D01*
X-17282268Y34130180D02*
X-17187030Y34082561D01*
X-17187030Y34082561D02*
X-17139411Y34034942D01*
X-17139411Y34034942D02*
X-17091792Y33939704D01*
X-17091792Y33939704D02*
X-17091792Y33796847D01*
X-17091792Y33796847D02*
X-17139411Y33701609D01*
X-17139411Y33701609D02*
X-17187030Y33653990D01*
X-17187030Y33653990D02*
X-17282268Y33606371D01*
X-17282268Y33606371D02*
X-17663220Y33606371D01*
X-16282268Y33177800D02*
X-16377506Y33130180D01*
X-16377506Y33130180D02*
X-16567982Y33130180D01*
X-16567982Y33130180D02*
X-16663220Y33177800D01*
X-16663220Y33177800D02*
X-16710839Y33273038D01*
X-16710839Y33273038D02*
X-16710839Y33653990D01*
X-16710839Y33653990D02*
X-16663220Y33749228D01*
X-16663220Y33749228D02*
X-16567982Y33796847D01*
X-16567982Y33796847D02*
X-16377506Y33796847D01*
X-16377506Y33796847D02*
X-16282268Y33749228D01*
X-16282268Y33749228D02*
X-16234649Y33653990D01*
X-16234649Y33653990D02*
X-16234649Y33558752D01*
X-16234649Y33558752D02*
X-16710839Y33463514D01*
X-15948934Y33796847D02*
X-15567982Y33796847D01*
X-15806077Y34130180D02*
X-15806077Y33273038D01*
X-15806077Y33273038D02*
X-15758458Y33177800D01*
X-15758458Y33177800D02*
X-15663220Y33130180D01*
X-15663220Y33130180D02*
X-15567982Y33130180D01*
X-14806077Y33796847D02*
X-14806077Y33130180D01*
X-15234648Y33796847D02*
X-15234648Y33273038D01*
X-15234648Y33273038D02*
X-15187029Y33177800D01*
X-15187029Y33177800D02*
X-15091791Y33130180D01*
X-15091791Y33130180D02*
X-14948934Y33130180D01*
X-14948934Y33130180D02*
X-14853696Y33177800D01*
X-14853696Y33177800D02*
X-14806077Y33225419D01*
X-14329886Y33130180D02*
X-14329886Y33796847D01*
X-14329886Y33606371D02*
X-14282267Y33701609D01*
X-14282267Y33701609D02*
X-14234648Y33749228D01*
X-14234648Y33749228D02*
X-14139410Y33796847D01*
X-14139410Y33796847D02*
X-14044172Y33796847D01*
X-13710838Y33796847D02*
X-13710838Y33130180D01*
X-13710838Y33701609D02*
X-13663219Y33749228D01*
X-13663219Y33749228D02*
X-13567981Y33796847D01*
X-13567981Y33796847D02*
X-13425124Y33796847D01*
X-13425124Y33796847D02*
X-13329886Y33749228D01*
X-13329886Y33749228D02*
X-13282267Y33653990D01*
X-13282267Y33653990D02*
X-13282267Y33130180D01*
X-12806076Y33511133D02*
X-12044172Y33511133D01*
X-11710838Y33796847D02*
X-11329886Y33796847D01*
X-11567981Y33130180D02*
X-11567981Y33987323D01*
X-11567981Y33987323D02*
X-11520362Y34082561D01*
X-11520362Y34082561D02*
X-11425124Y34130180D01*
X-11425124Y34130180D02*
X-11329886Y34130180D01*
X-10853695Y33130180D02*
X-10948933Y33177800D01*
X-10948933Y33177800D02*
X-10996552Y33273038D01*
X-10996552Y33273038D02*
X-10996552Y34130180D01*
X-10091790Y33177800D02*
X-10187028Y33130180D01*
X-10187028Y33130180D02*
X-10377504Y33130180D01*
X-10377504Y33130180D02*
X-10472742Y33177800D01*
X-10472742Y33177800D02*
X-10520361Y33273038D01*
X-10520361Y33273038D02*
X-10520361Y33653990D01*
X-10520361Y33653990D02*
X-10472742Y33749228D01*
X-10472742Y33749228D02*
X-10377504Y33796847D01*
X-10377504Y33796847D02*
X-10187028Y33796847D01*
X-10187028Y33796847D02*
X-10091790Y33749228D01*
X-10091790Y33749228D02*
X-10044171Y33653990D01*
X-10044171Y33653990D02*
X-10044171Y33558752D01*
X-10044171Y33558752D02*
X-10520361Y33463514D01*
X-9710837Y33130180D02*
X-9187028Y33796847D01*
X-9710837Y33796847D02*
X-9187028Y33130180D01*
X-8044170Y33130180D02*
X-8044170Y34130180D01*
X-8044170Y33749228D02*
X-7948932Y33796847D01*
X-7948932Y33796847D02*
X-7758456Y33796847D01*
X-7758456Y33796847D02*
X-7663218Y33749228D01*
X-7663218Y33749228D02*
X-7615599Y33701609D01*
X-7615599Y33701609D02*
X-7567980Y33606371D01*
X-7567980Y33606371D02*
X-7567980Y33320657D01*
X-7567980Y33320657D02*
X-7615599Y33225419D01*
X-7615599Y33225419D02*
X-7663218Y33177800D01*
X-7663218Y33177800D02*
X-7758456Y33130180D01*
X-7758456Y33130180D02*
X-7948932Y33130180D01*
X-7948932Y33130180D02*
X-8044170Y33177800D01*
X-7139408Y33130180D02*
X-7139408Y33796847D01*
X-7139408Y33606371D02*
X-7091789Y33701609D01*
X-7091789Y33701609D02*
X-7044170Y33749228D01*
X-7044170Y33749228D02*
X-6948932Y33796847D01*
X-6948932Y33796847D02*
X-6853694Y33796847D01*
X-6520360Y33130180D02*
X-6520360Y33796847D01*
X-6520360Y34130180D02*
X-6567979Y34082561D01*
X-6567979Y34082561D02*
X-6520360Y34034942D01*
X-6520360Y34034942D02*
X-6472741Y34082561D01*
X-6472741Y34082561D02*
X-6520360Y34130180D01*
X-6520360Y34130180D02*
X-6520360Y34034942D01*
X-5615599Y33130180D02*
X-5615599Y34130180D01*
X-5615599Y33177800D02*
X-5710837Y33130180D01*
X-5710837Y33130180D02*
X-5901313Y33130180D01*
X-5901313Y33130180D02*
X-5996551Y33177800D01*
X-5996551Y33177800D02*
X-6044170Y33225419D01*
X-6044170Y33225419D02*
X-6091789Y33320657D01*
X-6091789Y33320657D02*
X-6091789Y33606371D01*
X-6091789Y33606371D02*
X-6044170Y33701609D01*
X-6044170Y33701609D02*
X-5996551Y33749228D01*
X-5996551Y33749228D02*
X-5901313Y33796847D01*
X-5901313Y33796847D02*
X-5710837Y33796847D01*
X-5710837Y33796847D02*
X-5615599Y33749228D01*
X-4710837Y33796847D02*
X-4710837Y32987323D01*
X-4710837Y32987323D02*
X-4758456Y32892085D01*
X-4758456Y32892085D02*
X-4806075Y32844466D01*
X-4806075Y32844466D02*
X-4901313Y32796847D01*
X-4901313Y32796847D02*
X-5044170Y32796847D01*
X-5044170Y32796847D02*
X-5139408Y32844466D01*
X-4710837Y33177800D02*
X-4806075Y33130180D01*
X-4806075Y33130180D02*
X-4996551Y33130180D01*
X-4996551Y33130180D02*
X-5091789Y33177800D01*
X-5091789Y33177800D02*
X-5139408Y33225419D01*
X-5139408Y33225419D02*
X-5187027Y33320657D01*
X-5187027Y33320657D02*
X-5187027Y33606371D01*
X-5187027Y33606371D02*
X-5139408Y33701609D01*
X-5139408Y33701609D02*
X-5091789Y33749228D01*
X-5091789Y33749228D02*
X-4996551Y33796847D01*
X-4996551Y33796847D02*
X-4806075Y33796847D01*
X-4806075Y33796847D02*
X-4710837Y33749228D01*
X-3853694Y33177800D02*
X-3948932Y33130180D01*
X-3948932Y33130180D02*
X-4139408Y33130180D01*
X-4139408Y33130180D02*
X-4234646Y33177800D01*
X-4234646Y33177800D02*
X-4282265Y33273038D01*
X-4282265Y33273038D02*
X-4282265Y33653990D01*
X-4282265Y33653990D02*
X-4234646Y33749228D01*
X-4234646Y33749228D02*
X-4139408Y33796847D01*
X-4139408Y33796847D02*
X-3948932Y33796847D01*
X-3948932Y33796847D02*
X-3853694Y33749228D01*
X-3853694Y33749228D02*
X-3806075Y33653990D01*
X-3806075Y33653990D02*
X-3806075Y33558752D01*
X-3806075Y33558752D02*
X-4282265Y33463514D01*
X-2329884Y32749228D02*
X-2377503Y32796847D01*
X-2377503Y32796847D02*
X-2472741Y32939704D01*
X-2472741Y32939704D02*
X-2520360Y33034942D01*
X-2520360Y33034942D02*
X-2567979Y33177800D01*
X-2567979Y33177800D02*
X-2615598Y33415895D01*
X-2615598Y33415895D02*
X-2615598Y33606371D01*
X-2615598Y33606371D02*
X-2567979Y33844466D01*
X-2567979Y33844466D02*
X-2520360Y33987323D01*
X-2520360Y33987323D02*
X-2472741Y34082561D01*
X-2472741Y34082561D02*
X-2377503Y34225419D01*
X-2377503Y34225419D02*
X-2329884Y34273038D01*
X-1520360Y33130180D02*
X-1520360Y34130180D01*
X-1520360Y33177800D02*
X-1615598Y33130180D01*
X-1615598Y33130180D02*
X-1806074Y33130180D01*
X-1806074Y33130180D02*
X-1901312Y33177800D01*
X-1901312Y33177800D02*
X-1948931Y33225419D01*
X-1948931Y33225419D02*
X-1996550Y33320657D01*
X-1996550Y33320657D02*
X-1996550Y33606371D01*
X-1996550Y33606371D02*
X-1948931Y33701609D01*
X-1948931Y33701609D02*
X-1901312Y33749228D01*
X-1901312Y33749228D02*
X-1806074Y33796847D01*
X-1806074Y33796847D02*
X-1615598Y33796847D01*
X-1615598Y33796847D02*
X-1520360Y33749228D01*
X-901312Y33130180D02*
X-996550Y33177800D01*
X-996550Y33177800D02*
X-1044169Y33225419D01*
X-1044169Y33225419D02*
X-1091788Y33320657D01*
X-1091788Y33320657D02*
X-1091788Y33606371D01*
X-1091788Y33606371D02*
X-1044169Y33701609D01*
X-1044169Y33701609D02*
X-996550Y33749228D01*
X-996550Y33749228D02*
X-901312Y33796847D01*
X-901312Y33796847D02*
X-758455Y33796847D01*
X-758455Y33796847D02*
X-663217Y33749228D01*
X-663217Y33749228D02*
X-615598Y33701609D01*
X-615598Y33701609D02*
X-567979Y33606371D01*
X-567979Y33606371D02*
X-567979Y33320657D01*
X-567979Y33320657D02*
X-615598Y33225419D01*
X-615598Y33225419D02*
X-663217Y33177800D01*
X-663217Y33177800D02*
X-758455Y33130180D01*
X-758455Y33130180D02*
X-901312Y33130180D01*
X289163Y33177800D02*
X193925Y33130180D01*
X193925Y33130180D02*
X3449Y33130180D01*
X3449Y33130180D02*
X-91788Y33177800D01*
X-91788Y33177800D02*
X-139407Y33225419D01*
X-139407Y33225419D02*
X-187026Y33320657D01*
X-187026Y33320657D02*
X-187026Y33606371D01*
X-187026Y33606371D02*
X-139407Y33701609D01*
X-139407Y33701609D02*
X-91788Y33749228D01*
X-91788Y33749228D02*
X3449Y33796847D01*
X3449Y33796847D02*
X193925Y33796847D01*
X193925Y33796847D02*
X289163Y33749228D01*
X1146306Y33796847D02*
X1146306Y33130180D01*
X717735Y33796847D02*
X717735Y33273038D01*
X717735Y33273038D02*
X765354Y33177800D01*
X765354Y33177800D02*
X860592Y33130180D01*
X860592Y33130180D02*
X1003449Y33130180D01*
X1003449Y33130180D02*
X1098687Y33177800D01*
X1098687Y33177800D02*
X1146306Y33225419D01*
X1622497Y33130180D02*
X1622497Y33796847D01*
X1622497Y33701609D02*
X1670116Y33749228D01*
X1670116Y33749228D02*
X1765354Y33796847D01*
X1765354Y33796847D02*
X1908211Y33796847D01*
X1908211Y33796847D02*
X2003449Y33749228D01*
X2003449Y33749228D02*
X2051068Y33653990D01*
X2051068Y33653990D02*
X2051068Y33130180D01*
X2051068Y33653990D02*
X2098687Y33749228D01*
X2098687Y33749228D02*
X2193925Y33796847D01*
X2193925Y33796847D02*
X2336782Y33796847D01*
X2336782Y33796847D02*
X2432021Y33749228D01*
X2432021Y33749228D02*
X2479640Y33653990D01*
X2479640Y33653990D02*
X2479640Y33130180D01*
X3336782Y33177800D02*
X3241544Y33130180D01*
X3241544Y33130180D02*
X3051068Y33130180D01*
X3051068Y33130180D02*
X2955830Y33177800D01*
X2955830Y33177800D02*
X2908211Y33273038D01*
X2908211Y33273038D02*
X2908211Y33653990D01*
X2908211Y33653990D02*
X2955830Y33749228D01*
X2955830Y33749228D02*
X3051068Y33796847D01*
X3051068Y33796847D02*
X3241544Y33796847D01*
X3241544Y33796847D02*
X3336782Y33749228D01*
X3336782Y33749228D02*
X3384401Y33653990D01*
X3384401Y33653990D02*
X3384401Y33558752D01*
X3384401Y33558752D02*
X2908211Y33463514D01*
X3812973Y33796847D02*
X3812973Y33130180D01*
X3812973Y33701609D02*
X3860592Y33749228D01*
X3860592Y33749228D02*
X3955830Y33796847D01*
X3955830Y33796847D02*
X4098687Y33796847D01*
X4098687Y33796847D02*
X4193925Y33749228D01*
X4193925Y33749228D02*
X4241544Y33653990D01*
X4241544Y33653990D02*
X4241544Y33130180D01*
X4574878Y33796847D02*
X4955830Y33796847D01*
X4717735Y34130180D02*
X4717735Y33273038D01*
X4717735Y33273038D02*
X4765354Y33177800D01*
X4765354Y33177800D02*
X4860592Y33130180D01*
X4860592Y33130180D02*
X4955830Y33130180D01*
X5717735Y33130180D02*
X5717735Y33653990D01*
X5717735Y33653990D02*
X5670116Y33749228D01*
X5670116Y33749228D02*
X5574878Y33796847D01*
X5574878Y33796847D02*
X5384402Y33796847D01*
X5384402Y33796847D02*
X5289164Y33749228D01*
X5717735Y33177800D02*
X5622497Y33130180D01*
X5622497Y33130180D02*
X5384402Y33130180D01*
X5384402Y33130180D02*
X5289164Y33177800D01*
X5289164Y33177800D02*
X5241545Y33273038D01*
X5241545Y33273038D02*
X5241545Y33368276D01*
X5241545Y33368276D02*
X5289164Y33463514D01*
X5289164Y33463514D02*
X5384402Y33511133D01*
X5384402Y33511133D02*
X5622497Y33511133D01*
X5622497Y33511133D02*
X5717735Y33558752D01*
X6051069Y33796847D02*
X6432021Y33796847D01*
X6193926Y34130180D02*
X6193926Y33273038D01*
X6193926Y33273038D02*
X6241545Y33177800D01*
X6241545Y33177800D02*
X6336783Y33130180D01*
X6336783Y33130180D02*
X6432021Y33130180D01*
X6765355Y33130180D02*
X6765355Y33796847D01*
X6765355Y34130180D02*
X6717736Y34082561D01*
X6717736Y34082561D02*
X6765355Y34034942D01*
X6765355Y34034942D02*
X6812974Y34082561D01*
X6812974Y34082561D02*
X6765355Y34130180D01*
X6765355Y34130180D02*
X6765355Y34034942D01*
X7384402Y33130180D02*
X7289164Y33177800D01*
X7289164Y33177800D02*
X7241545Y33225419D01*
X7241545Y33225419D02*
X7193926Y33320657D01*
X7193926Y33320657D02*
X7193926Y33606371D01*
X7193926Y33606371D02*
X7241545Y33701609D01*
X7241545Y33701609D02*
X7289164Y33749228D01*
X7289164Y33749228D02*
X7384402Y33796847D01*
X7384402Y33796847D02*
X7527259Y33796847D01*
X7527259Y33796847D02*
X7622497Y33749228D01*
X7622497Y33749228D02*
X7670116Y33701609D01*
X7670116Y33701609D02*
X7717735Y33606371D01*
X7717735Y33606371D02*
X7717735Y33320657D01*
X7717735Y33320657D02*
X7670116Y33225419D01*
X7670116Y33225419D02*
X7622497Y33177800D01*
X7622497Y33177800D02*
X7527259Y33130180D01*
X7527259Y33130180D02*
X7384402Y33130180D01*
X8146307Y33796847D02*
X8146307Y33130180D01*
X8146307Y33701609D02*
X8193926Y33749228D01*
X8193926Y33749228D02*
X8289164Y33796847D01*
X8289164Y33796847D02*
X8432021Y33796847D01*
X8432021Y33796847D02*
X8527259Y33749228D01*
X8527259Y33749228D02*
X8574878Y33653990D01*
X8574878Y33653990D02*
X8574878Y33130180D01*
X9955831Y33130180D02*
X9860593Y33177800D01*
X9860593Y33177800D02*
X9812974Y33225419D01*
X9812974Y33225419D02*
X9765355Y33320657D01*
X9765355Y33320657D02*
X9765355Y33606371D01*
X9765355Y33606371D02*
X9812974Y33701609D01*
X9812974Y33701609D02*
X9860593Y33749228D01*
X9860593Y33749228D02*
X9955831Y33796847D01*
X9955831Y33796847D02*
X10098688Y33796847D01*
X10098688Y33796847D02*
X10193926Y33749228D01*
X10193926Y33749228D02*
X10241545Y33701609D01*
X10241545Y33701609D02*
X10289164Y33606371D01*
X10289164Y33606371D02*
X10289164Y33320657D01*
X10289164Y33320657D02*
X10241545Y33225419D01*
X10241545Y33225419D02*
X10193926Y33177800D01*
X10193926Y33177800D02*
X10098688Y33130180D01*
X10098688Y33130180D02*
X9955831Y33130180D01*
X10717736Y33796847D02*
X10717736Y33130180D01*
X10717736Y33701609D02*
X10765355Y33749228D01*
X10765355Y33749228D02*
X10860593Y33796847D01*
X10860593Y33796847D02*
X11003450Y33796847D01*
X11003450Y33796847D02*
X11098688Y33749228D01*
X11098688Y33749228D02*
X11146307Y33653990D01*
X11146307Y33653990D02*
X11146307Y33130180D01*
X11765355Y33130180D02*
X11670117Y33177800D01*
X11670117Y33177800D02*
X11622498Y33273038D01*
X11622498Y33273038D02*
X11622498Y34130180D01*
X12051070Y33796847D02*
X12289165Y33130180D01*
X12527260Y33796847D02*
X12289165Y33130180D01*
X12289165Y33130180D02*
X12193927Y32892085D01*
X12193927Y32892085D02*
X12146308Y32844466D01*
X12146308Y32844466D02*
X12051070Y32796847D01*
X12812975Y32749228D02*
X12860594Y32796847D01*
X12860594Y32796847D02*
X12955832Y32939704D01*
X12955832Y32939704D02*
X13003451Y33034942D01*
X13003451Y33034942D02*
X13051070Y33177800D01*
X13051070Y33177800D02*
X13098689Y33415895D01*
X13098689Y33415895D02*
X13098689Y33606371D01*
X13098689Y33606371D02*
X13051070Y33844466D01*
X13051070Y33844466D02*
X13003451Y33987323D01*
X13003451Y33987323D02*
X12955832Y34082561D01*
X12955832Y34082561D02*
X12860594Y34225419D01*
X12860594Y34225419D02*
X12812975Y34273038D01*
M02*
