%TF.GenerationSoftware,KiCad,Pcbnew,10.0.5*%
%TF.CreationDate,2026-08-03T20:27:08-07:00*%
%TF.ProjectId,palpod-orb-routed,70616c70-6f64-42d6-9f72-622d726f7574,A0*%
%TF.SameCoordinates,Original*%
%TF.FileFunction,Other,User*%
%FSLAX46Y46*%
G04 Gerber Fmt 4.6, Leading zero omitted, Abs format (unit mm)*
G04 Created by KiCad (PCBNEW 10.0.5) date 2026-08-03 20:27:08*
%MOMM*%
%LPD*%
G01*
G04 APERTURE LIST*
%ADD10C,0.050000*%
G04 APERTURE END LIST*
%TO.C,R1*%
D10*
X-9208571Y-14280714D02*
X-7348571Y-14280714D01*
X-7348571Y-15220714D01*
X-9208571Y-15220714D01*
X-9208571Y-14280714D01*
%TO.C,R2*%
X4384285Y-14280714D02*
X6244285Y-14280714D01*
X6244285Y-15220714D01*
X4384285Y-15220714D01*
X4384285Y-14280714D01*
%TO.C,U5*%
X56435714Y16030714D02*
X62935714Y16030714D01*
X56435714Y9530714D02*
X56435714Y16030714D01*
X62935714Y16030714D02*
X62935714Y9530714D01*
X62935714Y9530714D02*
X56435714Y9530714D01*
%TO.C,U6*%
X67428571Y18630714D02*
X79128571Y18630714D01*
X67428571Y6930714D02*
X67428571Y18630714D01*
X79128571Y18630714D02*
X79128571Y6930714D01*
X79128571Y6930714D02*
X67428571Y6930714D01*
%TO.C,C24*%
X57385714Y-3973571D02*
X61985714Y-3973571D01*
X61985714Y-7173571D01*
X57385714Y-7173571D01*
X57385714Y-3973571D01*
%TO.C,C25*%
X70978571Y-3973571D02*
X75578571Y-3973571D01*
X75578571Y-7173571D01*
X70978571Y-7173571D01*
X70978571Y-3973571D01*
%TO.C,U2*%
X15657142Y16030714D02*
X22157142Y16030714D01*
X15657142Y9530714D02*
X15657142Y16030714D01*
X22157142Y16030714D02*
X22157142Y9530714D01*
X22157142Y9530714D02*
X15657142Y9530714D01*
%TO.C,J8*%
X18250000Y18853571D02*
X46750000Y18853571D01*
X18250000Y-11646429D02*
X18250000Y18853571D01*
X46750000Y18853571D02*
X46750000Y-11646429D01*
X46750000Y-11646429D02*
X18250000Y-11646429D01*
%TO.C,U3*%
X29050000Y14530714D02*
X35950000Y14530714D01*
X29050000Y11030714D02*
X29050000Y14530714D01*
X35950000Y14530714D02*
X35950000Y11030714D01*
X35950000Y11030714D02*
X29050000Y11030714D01*
%TO.C,U1*%
X-12028571Y16530714D02*
X-4528571Y16530714D01*
X-12028571Y9030714D02*
X-12028571Y16530714D01*
X-4528571Y16530714D02*
X-4528571Y9030714D01*
X-4528571Y9030714D02*
X-12028571Y9030714D01*
%TO.C,J9*%
X34342857Y6853571D02*
X57842857Y6853571D01*
X34342857Y353571D02*
X34342857Y6853571D01*
X57842857Y6853571D02*
X57842857Y353571D01*
X57842857Y353571D02*
X34342857Y353571D01*
%TO.C,J5*%
X-17028571Y6853571D02*
X471429Y6853571D01*
X-17028571Y353571D02*
X-17028571Y6853571D01*
X471429Y6853571D02*
X471429Y353571D01*
X471429Y353571D02*
X-17028571Y353571D01*
%TO.C,J6*%
X-3435715Y6853571D02*
X14064285Y6853571D01*
X-3435715Y353571D02*
X-3435715Y6853571D01*
X14064285Y6853571D02*
X14064285Y353571D01*
X14064285Y353571D02*
X-3435715Y353571D01*
%TO.C,J3*%
X50935714Y11442142D02*
X68435714Y11442142D01*
X50935714Y4942142D02*
X50935714Y11442142D01*
X68435714Y11442142D02*
X68435714Y4942142D01*
X68435714Y4942142D02*
X50935714Y4942142D01*
%TO.C,J4*%
X64528571Y11442142D02*
X82028571Y11442142D01*
X64528571Y4942142D02*
X64528571Y11442142D01*
X82028571Y11442142D02*
X82028571Y4942142D01*
X82028571Y4942142D02*
X64528571Y4942142D01*
%TO.C,J1*%
X23750000Y11442142D02*
X41250000Y11442142D01*
X23750000Y4942142D02*
X23750000Y11442142D01*
X41250000Y11442142D02*
X41250000Y4942142D01*
X41250000Y4942142D02*
X23750000Y4942142D01*
%TO.C,J2*%
X37342857Y11442142D02*
X54842857Y11442142D01*
X37342857Y4942142D02*
X37342857Y11442142D01*
X54842857Y11442142D02*
X54842857Y4942142D01*
X54842857Y4942142D02*
X37342857Y4942142D01*
%TO.C,U4*%
X43842857Y15030714D02*
X48342857Y15030714D01*
X43842857Y10530714D02*
X43842857Y15030714D01*
X48342857Y15030714D02*
X48342857Y10530714D01*
X48342857Y10530714D02*
X43842857Y10530714D01*
%TO.C,C20*%
X3614285Y-4593571D02*
X7014285Y-4593571D01*
X7014285Y-6553571D01*
X3614285Y-6553571D01*
X3614285Y-4593571D01*
%TO.C,C21*%
X17207142Y-4593571D02*
X20607142Y-4593571D01*
X20607142Y-6553571D01*
X17207142Y-6553571D01*
X17207142Y-4593571D01*
%TO.C,C22*%
X30800000Y-4593571D02*
X34200000Y-4593571D01*
X34200000Y-6553571D01*
X30800000Y-6553571D01*
X30800000Y-4593571D01*
%TO.C,C23*%
X44392857Y-4593571D02*
X47792857Y-4593571D01*
X47792857Y-6553571D01*
X44392857Y-6553571D01*
X44392857Y-4593571D01*
%TO.C,J7*%
X12657142Y7853571D02*
X25157142Y7853571D01*
X12657142Y-646429D02*
X12657142Y7853571D01*
X25157142Y7853571D02*
X25157142Y-646429D01*
X25157142Y-646429D02*
X12657142Y-646429D01*
%TO.C,L1*%
X57405714Y5183571D02*
X61965714Y5183571D01*
X61965714Y2023571D01*
X57405714Y2023571D01*
X57405714Y5183571D01*
%TO.C,C1*%
X31590000Y-524999D02*
X33410000Y-524999D01*
X33410000Y-1444999D01*
X31590000Y-1444999D01*
X31590000Y-524999D01*
%TO.C,C10*%
X45182857Y-524999D02*
X47002857Y-524999D01*
X47002857Y-1444999D01*
X45182857Y-1444999D01*
X45182857Y-524999D01*
%TO.C,C11*%
X58775714Y-524999D02*
X60595714Y-524999D01*
X60595714Y-1444999D01*
X58775714Y-1444999D01*
X58775714Y-524999D01*
%TO.C,C12*%
X72368571Y-524999D02*
X74188571Y-524999D01*
X74188571Y-1444999D01*
X72368571Y-1444999D01*
X72368571Y-524999D01*
%TO.C,C2*%
X-9188571Y-5113571D02*
X-7368571Y-5113571D01*
X-7368571Y-6033571D01*
X-9188571Y-6033571D01*
X-9188571Y-5113571D01*
%TO.C,C3*%
X-9188571Y-9702142D02*
X-7368571Y-9702142D01*
X-7368571Y-10622142D01*
X-9188571Y-10622142D01*
X-9188571Y-9702142D01*
%TO.C,C4*%
X4404285Y-9702142D02*
X6224285Y-9702142D01*
X6224285Y-10622142D01*
X4404285Y-10622142D01*
X4404285Y-9702142D01*
%TO.C,C5*%
X17997142Y-9702142D02*
X19817142Y-9702142D01*
X19817142Y-10622142D01*
X17997142Y-10622142D01*
X17997142Y-9702142D01*
%TO.C,C6*%
X31590000Y-9702142D02*
X33410000Y-9702142D01*
X33410000Y-10622142D01*
X31590000Y-10622142D01*
X31590000Y-9702142D01*
%TO.C,C7*%
X45182857Y-9702142D02*
X47002857Y-9702142D01*
X47002857Y-10622142D01*
X45182857Y-10622142D01*
X45182857Y-9702142D01*
%TO.C,C8*%
X58775714Y-9702142D02*
X60595714Y-9702142D01*
X60595714Y-10622142D01*
X58775714Y-10622142D01*
X58775714Y-9702142D01*
%TO.C,C9*%
X72368571Y-9702142D02*
X74188571Y-9702142D01*
X74188571Y-10622142D01*
X72368571Y-10622142D01*
X72368571Y-9702142D01*
%TO.C,U8*%
X3564285Y9942142D02*
X7064285Y9942142D01*
X3564285Y6442142D02*
X3564285Y9942142D01*
X7064285Y9942142D02*
X7064285Y6442142D01*
X7064285Y6442142D02*
X3564285Y6442142D01*
%TO.C,U10*%
X3564285Y14530714D02*
X7064285Y14530714D01*
X3564285Y11030714D02*
X3564285Y14530714D01*
X7064285Y14530714D02*
X7064285Y11030714D01*
X7064285Y11030714D02*
X3564285Y11030714D01*
%TO.C,U9*%
X17157142Y9942142D02*
X20657142Y9942142D01*
X17157142Y6442142D02*
X17157142Y9942142D01*
X20657142Y9942142D02*
X20657142Y6442142D01*
X20657142Y6442142D02*
X17157142Y6442142D01*
%TO.C,U7*%
X-10028571Y9942142D02*
X-6528571Y9942142D01*
X-10028571Y6442142D02*
X-10028571Y9942142D01*
X-6528571Y9942142D02*
X-6528571Y6442142D01*
X-6528571Y6442142D02*
X-10028571Y6442142D01*
%TO.C,D1*%
X71678571Y4553571D02*
X71678571Y2653571D01*
X71678571Y4553571D02*
X74878571Y4553571D01*
X71678571Y2653571D02*
X74878571Y2653571D01*
X74878571Y4553571D02*
X74878571Y2653571D01*
%TO.C,D2*%
X-9878571Y-34999D02*
X-9878571Y-1934999D01*
X-9878571Y-34999D02*
X-6678571Y-34999D01*
X-9878571Y-1934999D02*
X-6678571Y-1934999D01*
X-6678571Y-34999D02*
X-6678571Y-1934999D01*
%TO.C,D3*%
X3714285Y-34999D02*
X3714285Y-1934999D01*
X3714285Y-34999D02*
X6914285Y-34999D01*
X3714285Y-1934999D02*
X6914285Y-1934999D01*
X6914285Y-34999D02*
X6914285Y-1934999D01*
%TO.C,D4*%
X17307142Y-34999D02*
X17307142Y-1934999D01*
X17307142Y-34999D02*
X20507142Y-34999D01*
X17307142Y-1934999D02*
X20507142Y-1934999D01*
X20507142Y-34999D02*
X20507142Y-1934999D01*
%TD*%
M02*
