M48
; DRILL file KiCad 10.0.5 date 2026-08-04T17:18:40
; FORMAT={-:-/ absolute / metric / decimal}
; #@! TF.CreationDate,2026-08-04T17:18:40-07:00
; #@! TF.GenerationSoftware,Kicad,Pcbnew,10.0.5
; #@! TF.FileFunction,MixedPlating,1,6
FMAT,2
METRIC
; #@! TA.AperFunction,Plated,PTH,ComponentDrill
T1C1.000
; #@! TA.AperFunction,Plated,PTH,ComponentDrill
T2C1.200
; #@! TA.AperFunction,Plated,PTH,ComponentDrill
T3C1.300
; #@! TA.AperFunction,Plated,PTH,ComponentDrill
T4C3.200
; #@! TA.AperFunction,Plated,PTH,ComponentDrill
T5C5.500
%
G90
G05
T1
X15.0Y-30.0
X15.0Y-32.54
X15.0Y-35.08
X15.0Y-37.62
T2
X58.756Y-166.196
X58.756Y-199.096
X66.256Y-166.196
X66.256Y-199.096
X78.15Y-172.504
X78.15Y-199.096
X85.65Y-172.504
X85.65Y-199.096
X100.0Y2.5
X100.0Y-2.5
X100.0Y-7.5
X100.0Y-12.5
X100.0Y-17.5
X100.0Y-22.5
X100.0Y-27.5
X100.0Y-32.5
X100.0Y-37.5
X100.0Y-42.5
X100.0Y-47.5
X100.0Y-47.5
X100.0Y-52.5
X100.0Y-52.5
X100.0Y-57.5
X100.0Y-62.5
X100.0Y-67.5
X100.0Y-72.5
X100.0Y-77.5
X100.0Y-82.5
X100.0Y-87.5
X100.0Y-92.5
X100.0Y-97.5
X100.0Y-97.5
X100.0Y-102.5
X100.0Y-102.5
X100.0Y-107.5
X100.0Y-112.5
X100.0Y-117.5
X100.0Y-122.5
X100.0Y-127.5
X100.0Y-132.5
X100.0Y-137.5
X100.0Y-142.5
X100.0Y-147.5
X100.0Y-147.5
X100.0Y-152.5
X100.0Y-152.5
X100.0Y-157.5
X100.0Y-162.5
X100.0Y-167.5
X100.0Y-172.5
X100.0Y-177.5
X100.0Y-182.5
X100.0Y-187.5
X100.0Y-192.5
X100.0Y-197.5
X100.0Y-202.5
T3
X15.0Y-15.0
X20.0Y-15.0
X25.0Y-15.0
X30.0Y-15.0
T4
X97.5Y-7.5
X97.5Y-42.5
X97.5Y-57.5
X97.5Y-92.5
X97.5Y-107.5
X97.5Y-142.5
X97.5Y-157.5
X97.5Y-192.5
X242.5Y-7.5
X242.5Y-42.5
X242.5Y-57.5
X242.5Y-92.5
X242.5Y-107.5
X242.5Y-142.5
X242.5Y-157.5
X242.5Y-192.5
T5
X230.475Y-25.0
X230.475Y-75.0
X230.475Y-125.0
X230.475Y-175.0
X249.525Y-25.0
X249.525Y-75.0
X249.525Y-125.0
X249.525Y-175.0
M30
