%TF.GenerationSoftware,KiCad,Pcbnew,10.0.5*%
%TF.CreationDate,2026-08-04T17:18:37-07:00*%
%TF.ProjectId,palpod-audio-amp-real,70616c70-6f64-42d6-9175-64696f2d616d,A0*%
%TF.SameCoordinates,Original*%
%TF.FileFunction,Copper,L1,Top*%
%TF.FilePolarity,Positive*%
%FSLAX46Y46*%
G04 Gerber Fmt 4.6, Leading zero omitted, Abs format (unit mm)*
G04 Created by KiCad (PCBNEW 10.0.5) date 2026-08-04 17:18:37*
%MOMM*%
%LPD*%
G01*
G04 APERTURE LIST*
G04 Aperture macros list*
%AMRoundRect*
0 Rectangle with rounded corners*
0 $1 Rounding radius*
0 $2 $3 $4 $5 $6 $7 $8 $9 X,Y pos of 4 corners*
0 Add a 4 corners polygon primitive as box body*
4,1,4,$2,$3,$4,$5,$6,$7,$8,$9,$2,$3,0*
0 Add four circle primitives for the rounded corners*
1,1,$1+$1,$2,$3*
1,1,$1+$1,$4,$5*
1,1,$1+$1,$6,$7*
1,1,$1+$1,$8,$9*
0 Add four rect primitives between the rounded corners*
20,1,$1+$1,$2,$3,$4,$5,0*
20,1,$1+$1,$4,$5,$6,$7,0*
20,1,$1+$1,$6,$7,$8,$9,0*
20,1,$1+$1,$8,$9,$2,$3,0*%
G04 Aperture macros list end*
%TA.AperFunction,ComponentPad*%
%ADD10R,1.700000X1.700000*%
%TD*%
%TA.AperFunction,ComponentPad*%
%ADD11C,1.700000*%
%TD*%
%TA.AperFunction,ComponentPad*%
%ADD12RoundRect,0.250001X-1.149999X-1.149999X1.149999X-1.149999X1.149999X1.149999X-1.149999X1.149999X0*%
%TD*%
%TA.AperFunction,ComponentPad*%
%ADD13C,2.800000*%
%TD*%
%TA.AperFunction,SMDPad,CuDef*%
%ADD14RoundRect,0.100000X-0.600000X-0.100000X0.600000X-0.100000X0.600000X0.100000X-0.600000X0.100000X0*%
%TD*%
%TA.AperFunction,SMDPad,CuDef*%
%ADD15RoundRect,0.135000X-0.135000X-0.185000X0.135000X-0.185000X0.135000X0.185000X-0.135000X0.185000X0*%
%TD*%
%TA.AperFunction,SMDPad,CuDef*%
%ADD16RoundRect,0.075000X-0.625000X-0.075000X0.625000X-0.075000X0.625000X0.075000X-0.625000X0.075000X0*%
%TD*%
%TA.AperFunction,SMDPad,CuDef*%
%ADD17RoundRect,0.140000X-0.140000X-0.170000X0.140000X-0.170000X0.140000X0.170000X-0.140000X0.170000X0*%
%TD*%
%TA.AperFunction,SMDPad,CuDef*%
%ADD18RoundRect,0.150000X-0.150000X-0.450000X0.150000X-0.450000X0.150000X0.450000X-0.150000X0.450000X0*%
%TD*%
%TA.AperFunction,ComponentPad*%
%ADD19C,2.200000*%
%TD*%
%TA.AperFunction,ComponentPad*%
%ADD20C,6.000000*%
%TD*%
%TA.AperFunction,SMDPad,CuDef*%
%ADD21RoundRect,0.250000X-0.250000X-0.475000X0.250000X-0.475000X0.250000X0.475000X-0.250000X0.475000X0*%
%TD*%
%TA.AperFunction,SMDPad,CuDef*%
%ADD22RoundRect,0.250000X-0.940000X-4.250000X0.940000X-4.250000X0.940000X4.250000X-0.940000X4.250000X0*%
%TD*%
%TA.AperFunction,SMDPad,CuDef*%
%ADD23RoundRect,0.100000X-0.650000X-0.100000X0.650000X-0.100000X0.650000X0.100000X-0.650000X0.100000X0*%
%TD*%
%TA.AperFunction,SMDPad,CuDef*%
%ADD24R,3.400000X5.000000*%
%TD*%
%TA.AperFunction,SMDPad,CuDef*%
%ADD25RoundRect,0.070000X-0.280000X-0.070000X0.280000X-0.070000X0.280000X0.070000X-0.280000X0.070000X0*%
%TD*%
%TA.AperFunction,SMDPad,CuDef*%
%ADD26RoundRect,0.070000X-0.070000X-0.280000X0.070000X-0.280000X0.070000X0.280000X-0.070000X0.280000X0*%
%TD*%
%TA.AperFunction,SMDPad,CuDef*%
%ADD27R,3.100000X3.100000*%
%TD*%
%TA.AperFunction,SMDPad,CuDef*%
%ADD28RoundRect,0.150000X-0.850000X-0.150000X0.850000X-0.150000X0.850000X0.150000X-0.850000X0.150000X0*%
%TD*%
%TA.AperFunction,ComponentPad*%
%ADD29RoundRect,0.250001X-0.949999X-0.949999X0.949999X-0.949999X0.949999X0.949999X-0.949999X0.949999X0*%
%TD*%
%TA.AperFunction,ComponentPad*%
%ADD30C,2.400000*%
%TD*%
%TA.AperFunction,ComponentPad*%
%ADD31C,9.000000*%
%TD*%
%TA.AperFunction,SMDPad,CuDef*%
%ADD32RoundRect,0.150000X-0.625000X-0.150000X0.625000X-0.150000X0.625000X0.150000X-0.625000X0.150000X0*%
%TD*%
G04 APERTURE END LIST*
D10*
%TO.P,J2,1*%
%TO.N,I2S_BCK_ISO*%
X15000000Y-30000000D03*
D11*
%TO.P,J2,2*%
%TO.N,I2S_LRCK_ISO*%
X15000000Y-32540000D03*
%TO.P,J2,3*%
%TO.N,I2S_SDIN_ISO*%
X15000000Y-35080000D03*
%TO.P,J2,4*%
%TO.N,GND_ISO*%
X15000000Y-37620000D03*
%TD*%
D12*
%TO.P,J1,1*%
%TO.N,+60V*%
X15000000Y-15000000D03*
D13*
%TO.P,J1,2*%
%TO.N,-60V*%
X20000000Y-15000000D03*
%TO.P,J1,3*%
%TO.N,GND*%
X25000000Y-15000000D03*
%TO.P,J1,4*%
%TO.N,+12V*%
X30000000Y-15000000D03*
%TD*%
D14*
%TO.P,U22,1*%
%TO.N,+3V3*%
X107900000Y-104025000D03*
%TO.P,U22,2*%
%TO.N,SDA_TEMP2*%
X107900000Y-104675000D03*
%TO.P,U22,3*%
%TO.N,THERM_CT_2*%
X107900000Y-105325000D03*
%TO.P,U22,4*%
%TO.N,THERM_INT_2*%
X107900000Y-105975000D03*
%TO.P,U22,5*%
%TO.N,GND*%
X112100000Y-105975000D03*
%TO.P,U22,6*%
X112100000Y-105325000D03*
%TO.P,U22,7*%
%TO.N,I2C_SCL*%
X112100000Y-104675000D03*
%TO.P,U22,8*%
%TO.N,GND*%
X112100000Y-104025000D03*
%TD*%
%TO.P,U20,1*%
%TO.N,+3V3*%
X107900000Y-14025000D03*
%TO.P,U20,2*%
%TO.N,SDA_TEMP0*%
X107900000Y-14675000D03*
%TO.P,U20,3*%
%TO.N,THERM_CT_0*%
X107900000Y-15325000D03*
%TO.P,U20,4*%
%TO.N,THERM_INT_0*%
X107900000Y-15975000D03*
%TO.P,U20,5*%
%TO.N,GND*%
X112100000Y-15975000D03*
%TO.P,U20,6*%
X112100000Y-15325000D03*
%TO.P,U20,7*%
%TO.N,I2C_SCL*%
X112100000Y-14675000D03*
%TO.P,U20,8*%
%TO.N,GND*%
X112100000Y-14025000D03*
%TD*%
%TO.P,U21,1*%
%TO.N,+3V3*%
X107900000Y-54025000D03*
%TO.P,U21,2*%
%TO.N,SDA_TEMP1*%
X107900000Y-54675000D03*
%TO.P,U21,3*%
%TO.N,THERM_CT_1*%
X107900000Y-55325000D03*
%TO.P,U21,4*%
%TO.N,THERM_INT_1*%
X107900000Y-55975000D03*
%TO.P,U21,5*%
%TO.N,GND*%
X112100000Y-55975000D03*
%TO.P,U21,6*%
X112100000Y-55325000D03*
%TO.P,U21,7*%
%TO.N,I2C_SCL*%
X112100000Y-54675000D03*
%TO.P,U21,8*%
%TO.N,GND*%
X112100000Y-54025000D03*
%TD*%
%TO.P,U23,1*%
%TO.N,+3V3*%
X107900000Y-154025000D03*
%TO.P,U23,2*%
%TO.N,SDA_TEMP3*%
X107900000Y-154675000D03*
%TO.P,U23,3*%
%TO.N,THERM_CT_3*%
X107900000Y-155325000D03*
%TO.P,U23,4*%
%TO.N,THERM_INT_3*%
X107900000Y-155975000D03*
%TO.P,U23,5*%
%TO.N,GND*%
X112100000Y-155975000D03*
%TO.P,U23,6*%
X112100000Y-155325000D03*
%TO.P,U23,7*%
%TO.N,I2C_SCL*%
X112100000Y-154675000D03*
%TO.P,U23,8*%
%TO.N,GND*%
X112100000Y-154025000D03*
%TD*%
D15*
%TO.P,R65,1*%
%TO.N,+3V3*%
X66501906Y-30000000D03*
%TO.P,R65,2*%
%TO.N,I2C_SCL*%
X67521906Y-30000000D03*
%TD*%
%TO.P,R66,1*%
%TO.N,+3V3*%
X70242382Y-30000000D03*
%TO.P,R66,2*%
%TO.N,SDA_TEMP0*%
X71262382Y-30000000D03*
%TD*%
%TO.P,R67,1*%
%TO.N,+3V3*%
X73982858Y-30000000D03*
%TO.P,R67,2*%
%TO.N,SDA_TEMP1*%
X75002858Y-30000000D03*
%TD*%
%TO.P,R68,1*%
%TO.N,+3V3*%
X77723334Y-30000000D03*
%TO.P,R68,2*%
%TO.N,SDA_TEMP2*%
X78743334Y-30000000D03*
%TD*%
%TO.P,R69,1*%
%TO.N,+3V3*%
X81463810Y-30000000D03*
%TO.P,R69,2*%
%TO.N,SDA_TEMP3*%
X82483810Y-30000000D03*
%TD*%
%TO.P,R70,1*%
%TO.N,+3V3*%
X85204286Y-30000000D03*
%TO.P,R70,2*%
%TO.N,RST_N*%
X86224286Y-30000000D03*
%TD*%
%TO.P,R71,1*%
%TO.N,+3V3*%
X88944762Y-30000000D03*
%TO.P,R71,2*%
%TO.N,PDN_N*%
X89964762Y-30000000D03*
%TD*%
%TO.P,R64,1*%
%TO.N,+3V3*%
X62761430Y-30000000D03*
%TO.P,R64,2*%
%TO.N,I2C_SDA*%
X63781430Y-30000000D03*
%TD*%
D16*
%TO.P,U3,1*%
%TO.N,MCLK_REF*%
X42900000Y-19000000D03*
%TO.P,U3,2*%
%TO.N,MCLK*%
X42900000Y-19500000D03*
%TO.P,U3,3*%
%TO.N,I2C_SDA*%
X42900000Y-20000000D03*
%TO.P,U3,4*%
%TO.N,I2C_SCL*%
X42900000Y-20500000D03*
%TO.P,U3,5*%
%TO.N,GND*%
X42900000Y-21000000D03*
%TO.P,U3,6*%
%TO.N,XTI*%
X47100000Y-21000000D03*
%TO.P,U3,7*%
%TO.N,XTO*%
X47100000Y-20500000D03*
%TO.P,U3,8*%
%TO.N,+3V3*%
X47100000Y-20000000D03*
%TO.P,U3,9*%
%TO.N,GND*%
X47100000Y-19500000D03*
%TO.P,U3,10*%
%TO.N,RST_N*%
X47100000Y-19000000D03*
%TD*%
D17*
%TO.P,C43,1*%
%TO.N,DAC3_FILT*%
X71520000Y-105000000D03*
%TO.P,C43,2*%
%TO.N,GND*%
X72480000Y-105000000D03*
%TD*%
%TO.P,C50,1*%
%TO.N,SMPS_HB_A*%
X66520000Y-130000000D03*
%TO.P,C50,2*%
%TO.N,GND*%
X67480000Y-130000000D03*
%TD*%
%TO.P,C51,1*%
%TO.N,SMPS_HB_B*%
X71520000Y-130000000D03*
%TO.P,C51,2*%
%TO.N,GND*%
X72480000Y-130000000D03*
%TD*%
%TO.P,C30,1*%
%TO.N,+3V3_DVDD*%
X44469999Y-80000000D03*
%TO.P,C30,2*%
%TO.N,GND*%
X45429999Y-80000000D03*
%TD*%
%TO.P,C29,1*%
%TO.N,+3V3_AVDD*%
X39300951Y-80000000D03*
%TO.P,C29,2*%
%TO.N,GND*%
X40260951Y-80000000D03*
%TD*%
%TO.P,C31,1*%
%TO.N,+3V3_ISO*%
X51520000Y-82106500D03*
%TO.P,C31,2*%
%TO.N,GND*%
X52480000Y-82106500D03*
%TD*%
%TO.P,C42,1*%
%TO.N,DAC2_FILT*%
X66520000Y-105000000D03*
%TO.P,C42,2*%
%TO.N,GND*%
X67480000Y-105000000D03*
%TD*%
%TO.P,C32,1*%
%TO.N,+5V*%
X56520000Y-82106500D03*
%TO.P,C32,2*%
%TO.N,GND*%
X57480000Y-82106500D03*
%TD*%
%TO.P,C28,1*%
%TO.N,+3V3*%
X34131903Y-80000000D03*
%TO.P,C28,2*%
%TO.N,GND*%
X35091903Y-80000000D03*
%TD*%
%TO.P,C33,1*%
%TO.N,+15V*%
X61520000Y-82106500D03*
%TO.P,C33,2*%
%TO.N,GND*%
X62480000Y-82106500D03*
%TD*%
%TO.P,C34,1*%
%TO.N,-15V*%
X66520000Y-80000000D03*
%TO.P,C34,2*%
%TO.N,GND*%
X67480000Y-80000000D03*
%TD*%
%TO.P,C35,1*%
%TO.N,+12V*%
X71520000Y-80000000D03*
%TO.P,C35,2*%
%TO.N,GND*%
X72480000Y-80000000D03*
%TD*%
%TO.P,C36,1*%
%TO.N,SMPS_VCC_A*%
X35505712Y-105000000D03*
%TO.P,C36,2*%
%TO.N,GND*%
X36465712Y-105000000D03*
%TD*%
%TO.P,C37,1*%
%TO.N,SMPS_VCC_B*%
X40674760Y-105000000D03*
%TO.P,C37,2*%
%TO.N,GND*%
X41634760Y-105000000D03*
%TD*%
%TO.P,C38,1*%
%TO.N,SMPS_VCCX_A*%
X45843808Y-105000000D03*
%TO.P,C38,2*%
%TO.N,GND*%
X46803808Y-105000000D03*
%TD*%
%TO.P,C39,1*%
%TO.N,SMPS_VCCX_B*%
X51012856Y-107106500D03*
%TO.P,C39,2*%
%TO.N,GND*%
X51972856Y-107106500D03*
%TD*%
%TO.P,C40,1*%
%TO.N,DAC0_FILT*%
X56181904Y-107106500D03*
%TO.P,C40,2*%
%TO.N,GND*%
X57141904Y-107106500D03*
%TD*%
%TO.P,C41,1*%
%TO.N,DAC1_FILT*%
X62689048Y-105000000D03*
%TO.P,C41,2*%
%TO.N,GND*%
X63649048Y-105000000D03*
%TD*%
%TO.P,C44,1*%
%TO.N,DAC0_VQ*%
X34322380Y-130000000D03*
%TO.P,C44,2*%
%TO.N,GND*%
X35282380Y-130000000D03*
%TD*%
%TO.P,C45,1*%
%TO.N,DAC1_VQ*%
X39491428Y-130000000D03*
%TO.P,C45,2*%
%TO.N,GND*%
X40451428Y-130000000D03*
%TD*%
%TO.P,C46,1*%
%TO.N,DAC2_VQ*%
X44660476Y-130000000D03*
%TO.P,C46,2*%
%TO.N,GND*%
X45620476Y-130000000D03*
%TD*%
%TO.P,C47,1*%
%TO.N,DAC3_VQ*%
X51520000Y-132106500D03*
%TO.P,C47,2*%
%TO.N,GND*%
X52480000Y-132106500D03*
%TD*%
%TO.P,C48,1*%
%TO.N,MCLK_REF*%
X56520000Y-132106500D03*
%TO.P,C48,2*%
%TO.N,GND*%
X57480000Y-132106500D03*
%TD*%
%TO.P,C49,1*%
%TO.N,FILT*%
X61520000Y-132106500D03*
%TO.P,C49,2*%
%TO.N,GND*%
X62480000Y-132106500D03*
%TD*%
D18*
%TO.P,U19,1*%
%TO.N,+3V3*%
X29050000Y-51400000D03*
%TO.P,U19,2*%
%TO.N,+3V3_SENSE*%
X30000000Y-51400000D03*
%TO.P,U19,3*%
%TO.N,CT_RESET*%
X30950000Y-51400000D03*
%TO.P,U19,4*%
%TO.N,GND*%
X30950000Y-48600000D03*
%TO.P,U19,5*%
%TO.N,RST_N*%
X29050000Y-48600000D03*
%TD*%
D19*
%TO.P,A14,1*%
%TO.N,+60V*%
X100000000Y-47500000D03*
%TO.P,A14,2*%
%TO.N,-60V*%
X100000000Y-52500000D03*
%TO.P,A14,3*%
%TO.N,GND*%
X100000000Y-57500000D03*
%TO.P,A14,4*%
%TO.N,CH1_AUDIO*%
X100000000Y-62500000D03*
%TO.P,A14,5*%
%TO.N,GND*%
X100000000Y-67500000D03*
%TO.P,A14,6*%
X100000000Y-72500000D03*
%TO.P,A14,7*%
%TO.N,MUTE_1*%
X100000000Y-77500000D03*
%TO.P,A14,8*%
%TO.N,FAULT_1*%
X100000000Y-82500000D03*
%TO.P,A14,9*%
%TO.N,+12V*%
X100000000Y-87500000D03*
%TO.P,A14,10*%
%TO.N,SPKR_MID_POS*%
X100000000Y-92500000D03*
%TO.P,A14,11*%
%TO.N,SPKR_MID_NEG*%
X100000000Y-97500000D03*
%TO.P,A14,12*%
%TO.N,GND*%
X100000000Y-102500000D03*
D20*
%TO.P,A14,MH1*%
%TO.N,N/C*%
X97500000Y-57500000D03*
%TO.P,A14,MH2*%
X242500000Y-57500000D03*
%TO.P,A14,MH3*%
X242500000Y-92500000D03*
%TO.P,A14,MH4*%
X97500000Y-92500000D03*
%TD*%
D19*
%TO.P,A13,1*%
%TO.N,+60V*%
X100000000Y2500000D03*
%TO.P,A13,2*%
%TO.N,-60V*%
X100000000Y-2500000D03*
%TO.P,A13,3*%
%TO.N,GND*%
X100000000Y-7500000D03*
%TO.P,A13,4*%
%TO.N,CH0_AUDIO*%
X100000000Y-12500000D03*
%TO.P,A13,5*%
%TO.N,GND*%
X100000000Y-17500000D03*
%TO.P,A13,6*%
X100000000Y-22500000D03*
%TO.P,A13,7*%
%TO.N,MUTE_0*%
X100000000Y-27500000D03*
%TO.P,A13,8*%
%TO.N,FAULT_0*%
X100000000Y-32500000D03*
%TO.P,A13,9*%
%TO.N,+12V*%
X100000000Y-37500000D03*
%TO.P,A13,10*%
%TO.N,SPKR_TWEETER_POS*%
X100000000Y-42500000D03*
%TO.P,A13,11*%
%TO.N,SPKR_TWEETER_NEG*%
X100000000Y-47500000D03*
%TO.P,A13,12*%
%TO.N,GND*%
X100000000Y-52500000D03*
D20*
%TO.P,A13,MH1*%
%TO.N,N/C*%
X97500000Y-7500000D03*
%TO.P,A13,MH2*%
X242500000Y-7500000D03*
%TO.P,A13,MH3*%
X242500000Y-42500000D03*
%TO.P,A13,MH4*%
X97500000Y-42500000D03*
%TD*%
D19*
%TO.P,A16,1*%
%TO.N,+60V*%
X100000000Y-147500000D03*
%TO.P,A16,2*%
%TO.N,-60V*%
X100000000Y-152500000D03*
%TO.P,A16,3*%
%TO.N,GND*%
X100000000Y-157500000D03*
%TO.P,A16,4*%
%TO.N,CH3_AUDIO*%
X100000000Y-162500000D03*
%TO.P,A16,5*%
%TO.N,GND*%
X100000000Y-167500000D03*
%TO.P,A16,6*%
X100000000Y-172500000D03*
%TO.P,A16,7*%
%TO.N,MUTE_3*%
X100000000Y-177500000D03*
%TO.P,A16,8*%
%TO.N,FAULT_3*%
X100000000Y-182500000D03*
%TO.P,A16,9*%
%TO.N,+12V*%
X100000000Y-187500000D03*
%TO.P,A16,10*%
%TO.N,SPKR_SUB_POS*%
X100000000Y-192500000D03*
%TO.P,A16,11*%
%TO.N,SPKR_SUB_NEG*%
X100000000Y-197500000D03*
%TO.P,A16,12*%
%TO.N,GND*%
X100000000Y-202500000D03*
D20*
%TO.P,A16,MH1*%
%TO.N,N/C*%
X97500000Y-157500000D03*
%TO.P,A16,MH2*%
X242500000Y-157500000D03*
%TO.P,A16,MH3*%
X242500000Y-192500000D03*
%TO.P,A16,MH4*%
X97500000Y-192500000D03*
%TD*%
D19*
%TO.P,A15,1*%
%TO.N,+60V*%
X100000000Y-97500000D03*
%TO.P,A15,2*%
%TO.N,-60V*%
X100000000Y-102500000D03*
%TO.P,A15,3*%
%TO.N,GND*%
X100000000Y-107500000D03*
%TO.P,A15,4*%
%TO.N,CH2_AUDIO*%
X100000000Y-112500000D03*
%TO.P,A15,5*%
%TO.N,GND*%
X100000000Y-117500000D03*
%TO.P,A15,6*%
X100000000Y-122500000D03*
%TO.P,A15,7*%
%TO.N,MUTE_2*%
X100000000Y-127500000D03*
%TO.P,A15,8*%
%TO.N,FAULT_2*%
X100000000Y-132500000D03*
%TO.P,A15,9*%
%TO.N,+12V*%
X100000000Y-137500000D03*
%TO.P,A15,10*%
%TO.N,SPKR_WOOFER_POS*%
X100000000Y-142500000D03*
%TO.P,A15,11*%
%TO.N,SPKR_WOOFER_NEG*%
X100000000Y-147500000D03*
%TO.P,A15,12*%
%TO.N,GND*%
X100000000Y-152500000D03*
D20*
%TO.P,A15,MH1*%
%TO.N,N/C*%
X97500000Y-107500000D03*
%TO.P,A15,MH2*%
X242500000Y-107500000D03*
%TO.P,A15,MH3*%
X242500000Y-142500000D03*
%TO.P,A15,MH4*%
X97500000Y-142500000D03*
%TD*%
D21*
%TO.P,C52,1*%
%TO.N,+3V3_AVDD*%
X33361905Y-75000000D03*
%TO.P,C52,2*%
%TO.N,GND*%
X35261905Y-75000000D03*
%TD*%
%TO.P,C53,1*%
%TO.N,+3V3_DVDD*%
X36042855Y-75000000D03*
%TO.P,C53,2*%
%TO.N,GND*%
X37942855Y-75000000D03*
%TD*%
%TO.P,C54,1*%
%TO.N,+3V3_ISO*%
X40259522Y-75000000D03*
%TO.P,C54,2*%
%TO.N,GND*%
X42159522Y-75000000D03*
%TD*%
%TO.P,C55,1*%
%TO.N,+15V*%
X44476189Y-75000000D03*
%TO.P,C55,2*%
%TO.N,GND*%
X46376189Y-75000000D03*
%TD*%
%TO.P,C56,1*%
%TO.N,-15V*%
X33707141Y-100000000D03*
%TO.P,C56,2*%
%TO.N,GND*%
X35607141Y-100000000D03*
%TD*%
%TO.P,C57,1*%
%TO.N,+12V*%
X37923808Y-100000000D03*
%TO.P,C57,2*%
%TO.N,GND*%
X39823808Y-100000000D03*
%TD*%
%TO.P,C58,1*%
%TO.N,SMPS_VCC_A*%
X42140475Y-100000000D03*
%TO.P,C58,2*%
%TO.N,GND*%
X44040475Y-100000000D03*
%TD*%
%TO.P,C59,1*%
%TO.N,SMPS_VCC_B*%
X46357142Y-100000000D03*
%TO.P,C59,2*%
%TO.N,GND*%
X48257142Y-100000000D03*
%TD*%
D22*
%TO.P,L73,1*%
%TO.N,SW_B_NEG*%
X74675000Y-180000000D03*
%TO.P,L73,2*%
%TO.N,-60V*%
X81325000Y-180000000D03*
%TD*%
%TO.P,L72,1*%
%TO.N,SW_A_POS*%
X38675000Y-180000000D03*
%TO.P,L72,2*%
%TO.N,+60V*%
X45325000Y-180000000D03*
%TD*%
D23*
%TO.P,U17,1*%
%TO.N,+12V*%
X20450000Y-176425000D03*
%TO.P,U17,2*%
%TO.N,+60V_UVLO*%
X20450000Y-177075000D03*
%TO.P,U17,3*%
%TO.N,SMPS_EN*%
X20450000Y-177725000D03*
%TO.P,U17,4*%
%TO.N,SMPS_VCC_A*%
X20450000Y-178375000D03*
%TO.P,U17,5*%
%TO.N,SMPS_SS_A*%
X20450000Y-179025000D03*
%TO.P,U17,6*%
%TO.N,SMPS_COMP_A*%
X20450000Y-179675000D03*
%TO.P,U17,7*%
%TO.N,SMPS_FB_A_POS*%
X20450000Y-180325000D03*
%TO.P,U17,8*%
%TO.N,SMPS_CS_A_POS*%
X20450000Y-180975000D03*
%TO.P,U17,9*%
%TO.N,SMPS_CSG_A_POS*%
X20450000Y-181625000D03*
%TO.P,U17,10*%
%TO.N,GND*%
X20450000Y-182275000D03*
%TO.P,U17,11*%
%TO.N,SMPS_RT_A*%
X20450000Y-182925000D03*
%TO.P,U17,12*%
%TO.N,SMPS_SYNC*%
X20450000Y-183575000D03*
%TO.P,U17,13*%
%TO.N,SMPS_HB_A*%
X29550000Y-183575000D03*
%TO.P,U17,14*%
%TO.N,SMPS_HO_A*%
X29550000Y-182925000D03*
%TO.P,U17,15*%
%TO.N,SW_A_POS*%
X29550000Y-182275000D03*
%TO.P,U17,16*%
%TO.N,SMPS_LO_A*%
X29550000Y-181625000D03*
%TO.P,U17,17*%
%TO.N,SMPS_VCCX_A*%
X29550000Y-180975000D03*
%TO.P,U17,18*%
%TO.N,GND*%
X29550000Y-180325000D03*
%TO.P,U17,19*%
%TO.N,SMPS_SLOPE_A*%
X29550000Y-179675000D03*
%TO.P,U17,20*%
%TO.N,SMPS_RES_A*%
X29550000Y-179025000D03*
%TO.P,U17,21*%
%TO.N,PGOOD_60V_POS*%
X29550000Y-178375000D03*
%TO.P,U17,22*%
%TO.N,SMPS_DEMB_A*%
X29550000Y-177725000D03*
%TO.P,U17,23*%
%TO.N,SMPS_NC1_A*%
X29550000Y-177075000D03*
%TO.P,U17,24*%
%TO.N,SMPS_NC2_A*%
X29550000Y-176425000D03*
D24*
%TO.P,U17,25*%
%TO.N,N/C*%
X25000000Y-180000000D03*
%TD*%
D23*
%TO.P,U18,1*%
%TO.N,+12V*%
X55450000Y-176425000D03*
%TO.P,U18,2*%
%TO.N,-60V_UVLO*%
X55450000Y-177075000D03*
%TO.P,U18,3*%
%TO.N,SMPS_EN*%
X55450000Y-177725000D03*
%TO.P,U18,4*%
%TO.N,SMPS_VCC_B*%
X55450000Y-178375000D03*
%TO.P,U18,5*%
%TO.N,SMPS_SS_B*%
X55450000Y-179025000D03*
%TO.P,U18,6*%
%TO.N,SMPS_COMP_B*%
X55450000Y-179675000D03*
%TO.P,U18,7*%
%TO.N,SMPS_FB_B_NEG*%
X55450000Y-180325000D03*
%TO.P,U18,8*%
%TO.N,SMPS_CS_B_NEG*%
X55450000Y-180975000D03*
%TO.P,U18,9*%
%TO.N,SMPS_CSG_B_NEG*%
X55450000Y-181625000D03*
%TO.P,U18,10*%
%TO.N,GND*%
X55450000Y-182275000D03*
%TO.P,U18,11*%
%TO.N,SMPS_RT_B*%
X55450000Y-182925000D03*
%TO.P,U18,12*%
%TO.N,SMPS_SYNC*%
X55450000Y-183575000D03*
%TO.P,U18,13*%
%TO.N,SMPS_HB_B*%
X64550000Y-183575000D03*
%TO.P,U18,14*%
%TO.N,SMPS_HO_B*%
X64550000Y-182925000D03*
%TO.P,U18,15*%
%TO.N,SW_B_NEG*%
X64550000Y-182275000D03*
%TO.P,U18,16*%
%TO.N,SMPS_LO_B*%
X64550000Y-181625000D03*
%TO.P,U18,17*%
%TO.N,SMPS_VCCX_B*%
X64550000Y-180975000D03*
%TO.P,U18,18*%
%TO.N,GND*%
X64550000Y-180325000D03*
%TO.P,U18,19*%
%TO.N,SMPS_SLOPE_B*%
X64550000Y-179675000D03*
%TO.P,U18,20*%
%TO.N,SMPS_RES_B*%
X64550000Y-179025000D03*
%TO.P,U18,21*%
%TO.N,PGOOD_60V_NEG*%
X64550000Y-178375000D03*
%TO.P,U18,22*%
%TO.N,SMPS_DEMB_B*%
X64550000Y-177725000D03*
%TO.P,U18,23*%
%TO.N,SMPS_NC1_B*%
X64550000Y-177075000D03*
%TO.P,U18,24*%
%TO.N,SMPS_NC2_B*%
X64550000Y-176425000D03*
D24*
%TO.P,U18,25*%
%TO.N,N/C*%
X60000000Y-180000000D03*
%TD*%
D25*
%TO.P,U5,1*%
%TO.N,+3V3_AVDD*%
X22250000Y-73250000D03*
%TO.P,U5,2*%
%TO.N,GND*%
X22250000Y-73750000D03*
%TO.P,U5,3*%
%TO.N,DAC0_OUT_A_POS*%
X22250000Y-74250000D03*
%TO.P,U5,4*%
%TO.N,DAC0_OUT_A_NEG*%
X22250000Y-74750000D03*
%TO.P,U5,5*%
%TO.N,DAC0_OUT_B_POS*%
X22250000Y-75250000D03*
%TO.P,U5,6*%
%TO.N,DAC0_OUT_B_NEG*%
X22250000Y-75750000D03*
%TO.P,U5,7*%
%TO.N,DAC0_FILT*%
X22250000Y-76250000D03*
%TO.P,U5,8*%
%TO.N,DAC0_VQ*%
X22250000Y-76750000D03*
D26*
%TO.P,U5,9*%
%TO.N,+3V3*%
X23250000Y-77750000D03*
%TO.P,U5,10*%
%TO.N,RST_N*%
X23750000Y-77750000D03*
%TO.P,U5,11*%
%TO.N,MCLK*%
X24250000Y-77750000D03*
%TO.P,U5,12*%
%TO.N,I2S_BCK*%
X24750000Y-77750000D03*
%TO.P,U5,13*%
%TO.N,I2S_LRCK*%
X25250000Y-77750000D03*
%TO.P,U5,14*%
%TO.N,I2S_SDIN_0*%
X25750000Y-77750000D03*
%TO.P,U5,15*%
%TO.N,I2C_SDA*%
X26250000Y-77750000D03*
%TO.P,U5,16*%
%TO.N,I2C_SCL*%
X26750000Y-77750000D03*
D25*
%TO.P,U5,17*%
%TO.N,DAC0_AD0*%
X27750000Y-76750000D03*
%TO.P,U5,18*%
%TO.N,DAC0_AD1*%
X27750000Y-76250000D03*
%TO.P,U5,19*%
%TO.N,MUTE_0*%
X27750000Y-75750000D03*
%TO.P,U5,20*%
%TO.N,PDN_N*%
X27750000Y-75250000D03*
%TO.P,U5,21*%
%TO.N,FAULT_0*%
X27750000Y-74750000D03*
%TO.P,U5,22*%
%TO.N,DSD_EN*%
X27750000Y-74250000D03*
%TO.P,U5,23*%
%TO.N,DSD_CLK*%
X27750000Y-73750000D03*
%TO.P,U5,24*%
%TO.N,DSD_L*%
X27750000Y-73250000D03*
D26*
%TO.P,U5,25*%
%TO.N,DSD_R*%
X26750000Y-72250000D03*
%TO.P,U5,26*%
%TO.N,+3V3_DVDD*%
X26250000Y-72250000D03*
%TO.P,U5,27*%
%TO.N,GND*%
X25750000Y-72250000D03*
%TO.P,U5,28*%
%TO.N,DAC0_NC1*%
X25250000Y-72250000D03*
%TO.P,U5,29*%
%TO.N,DAC0_NC2*%
X24750000Y-72250000D03*
%TO.P,U5,30*%
%TO.N,GND*%
X24250000Y-72250000D03*
%TO.P,U5,31*%
%TO.N,+3V3_AVDD*%
X23750000Y-72250000D03*
%TO.P,U5,32*%
%TO.N,N/C*%
X23250000Y-72250000D03*
D27*
%TO.P,U5,33*%
%TO.N,GND*%
X25000000Y-75000000D03*
%TD*%
D25*
%TO.P,U7,1*%
%TO.N,+3V3_AVDD*%
X22250000Y-123250000D03*
%TO.P,U7,2*%
%TO.N,GND*%
X22250000Y-123750000D03*
%TO.P,U7,3*%
%TO.N,DAC2_OUT_A_POS*%
X22250000Y-124250000D03*
%TO.P,U7,4*%
%TO.N,DAC2_OUT_A_NEG*%
X22250000Y-124750000D03*
%TO.P,U7,5*%
%TO.N,DAC2_OUT_B_POS*%
X22250000Y-125250000D03*
%TO.P,U7,6*%
%TO.N,DAC2_OUT_B_NEG*%
X22250000Y-125750000D03*
%TO.P,U7,7*%
%TO.N,DAC2_FILT*%
X22250000Y-126250000D03*
%TO.P,U7,8*%
%TO.N,DAC2_VQ*%
X22250000Y-126750000D03*
D26*
%TO.P,U7,9*%
%TO.N,+3V3*%
X23250000Y-127750000D03*
%TO.P,U7,10*%
%TO.N,RST_N*%
X23750000Y-127750000D03*
%TO.P,U7,11*%
%TO.N,MCLK*%
X24250000Y-127750000D03*
%TO.P,U7,12*%
%TO.N,I2S_BCK*%
X24750000Y-127750000D03*
%TO.P,U7,13*%
%TO.N,I2S_LRCK*%
X25250000Y-127750000D03*
%TO.P,U7,14*%
%TO.N,I2S_SDIN_2*%
X25750000Y-127750000D03*
%TO.P,U7,15*%
%TO.N,I2C_SDA*%
X26250000Y-127750000D03*
%TO.P,U7,16*%
%TO.N,I2C_SCL*%
X26750000Y-127750000D03*
D25*
%TO.P,U7,17*%
%TO.N,DAC2_AD0*%
X27750000Y-126750000D03*
%TO.P,U7,18*%
%TO.N,DAC2_AD1*%
X27750000Y-126250000D03*
%TO.P,U7,19*%
%TO.N,MUTE_2*%
X27750000Y-125750000D03*
%TO.P,U7,20*%
%TO.N,PDN_N*%
X27750000Y-125250000D03*
%TO.P,U7,21*%
%TO.N,FAULT_2*%
X27750000Y-124750000D03*
%TO.P,U7,22*%
%TO.N,DSD_EN*%
X27750000Y-124250000D03*
%TO.P,U7,23*%
%TO.N,DSD_CLK*%
X27750000Y-123750000D03*
%TO.P,U7,24*%
%TO.N,DSD_L*%
X27750000Y-123250000D03*
D26*
%TO.P,U7,25*%
%TO.N,DSD_R*%
X26750000Y-122250000D03*
%TO.P,U7,26*%
%TO.N,+3V3_DVDD*%
X26250000Y-122250000D03*
%TO.P,U7,27*%
%TO.N,GND*%
X25750000Y-122250000D03*
%TO.P,U7,28*%
%TO.N,DAC2_NC1*%
X25250000Y-122250000D03*
%TO.P,U7,29*%
%TO.N,DAC2_NC2*%
X24750000Y-122250000D03*
%TO.P,U7,30*%
%TO.N,GND*%
X24250000Y-122250000D03*
%TO.P,U7,31*%
%TO.N,+3V3_AVDD*%
X23750000Y-122250000D03*
%TO.P,U7,32*%
%TO.N,N/C*%
X23250000Y-122250000D03*
D27*
%TO.P,U7,33*%
%TO.N,GND*%
X25000000Y-125000000D03*
%TD*%
D25*
%TO.P,U6,1*%
%TO.N,+3V3_AVDD*%
X22250000Y-98250000D03*
%TO.P,U6,2*%
%TO.N,GND*%
X22250000Y-98750000D03*
%TO.P,U6,3*%
%TO.N,DAC1_OUT_A_POS*%
X22250000Y-99250000D03*
%TO.P,U6,4*%
%TO.N,DAC1_OUT_A_NEG*%
X22250000Y-99750000D03*
%TO.P,U6,5*%
%TO.N,DAC1_OUT_B_POS*%
X22250000Y-100250000D03*
%TO.P,U6,6*%
%TO.N,DAC1_OUT_B_NEG*%
X22250000Y-100750000D03*
%TO.P,U6,7*%
%TO.N,DAC1_FILT*%
X22250000Y-101250000D03*
%TO.P,U6,8*%
%TO.N,DAC1_VQ*%
X22250000Y-101750000D03*
D26*
%TO.P,U6,9*%
%TO.N,+3V3*%
X23250000Y-102750000D03*
%TO.P,U6,10*%
%TO.N,RST_N*%
X23750000Y-102750000D03*
%TO.P,U6,11*%
%TO.N,MCLK*%
X24250000Y-102750000D03*
%TO.P,U6,12*%
%TO.N,I2S_BCK*%
X24750000Y-102750000D03*
%TO.P,U6,13*%
%TO.N,I2S_LRCK*%
X25250000Y-102750000D03*
%TO.P,U6,14*%
%TO.N,I2S_SDIN_1*%
X25750000Y-102750000D03*
%TO.P,U6,15*%
%TO.N,I2C_SDA*%
X26250000Y-102750000D03*
%TO.P,U6,16*%
%TO.N,I2C_SCL*%
X26750000Y-102750000D03*
D25*
%TO.P,U6,17*%
%TO.N,DAC1_AD0*%
X27750000Y-101750000D03*
%TO.P,U6,18*%
%TO.N,DAC1_AD1*%
X27750000Y-101250000D03*
%TO.P,U6,19*%
%TO.N,MUTE_1*%
X27750000Y-100750000D03*
%TO.P,U6,20*%
%TO.N,PDN_N*%
X27750000Y-100250000D03*
%TO.P,U6,21*%
%TO.N,FAULT_1*%
X27750000Y-99750000D03*
%TO.P,U6,22*%
%TO.N,DSD_EN*%
X27750000Y-99250000D03*
%TO.P,U6,23*%
%TO.N,DSD_CLK*%
X27750000Y-98750000D03*
%TO.P,U6,24*%
%TO.N,DSD_L*%
X27750000Y-98250000D03*
D26*
%TO.P,U6,25*%
%TO.N,DSD_R*%
X26750000Y-97250000D03*
%TO.P,U6,26*%
%TO.N,+3V3_DVDD*%
X26250000Y-97250000D03*
%TO.P,U6,27*%
%TO.N,GND*%
X25750000Y-97250000D03*
%TO.P,U6,28*%
%TO.N,DAC1_NC1*%
X25250000Y-97250000D03*
%TO.P,U6,29*%
%TO.N,DAC1_NC2*%
X24750000Y-97250000D03*
%TO.P,U6,30*%
%TO.N,GND*%
X24250000Y-97250000D03*
%TO.P,U6,31*%
%TO.N,+3V3_AVDD*%
X23750000Y-97250000D03*
%TO.P,U6,32*%
%TO.N,N/C*%
X23250000Y-97250000D03*
D27*
%TO.P,U6,33*%
%TO.N,GND*%
X25000000Y-100000000D03*
%TD*%
D25*
%TO.P,U8,1*%
%TO.N,+3V3_AVDD*%
X22250000Y-148250000D03*
%TO.P,U8,2*%
%TO.N,GND*%
X22250000Y-148750000D03*
%TO.P,U8,3*%
%TO.N,DAC3_OUT_A_POS*%
X22250000Y-149250000D03*
%TO.P,U8,4*%
%TO.N,DAC3_OUT_A_NEG*%
X22250000Y-149750000D03*
%TO.P,U8,5*%
%TO.N,DAC3_OUT_B_POS*%
X22250000Y-150250000D03*
%TO.P,U8,6*%
%TO.N,DAC3_OUT_B_NEG*%
X22250000Y-150750000D03*
%TO.P,U8,7*%
%TO.N,DAC3_FILT*%
X22250000Y-151250000D03*
%TO.P,U8,8*%
%TO.N,DAC3_VQ*%
X22250000Y-151750000D03*
D26*
%TO.P,U8,9*%
%TO.N,+3V3*%
X23250000Y-152750000D03*
%TO.P,U8,10*%
%TO.N,RST_N*%
X23750000Y-152750000D03*
%TO.P,U8,11*%
%TO.N,MCLK*%
X24250000Y-152750000D03*
%TO.P,U8,12*%
%TO.N,I2S_BCK*%
X24750000Y-152750000D03*
%TO.P,U8,13*%
%TO.N,I2S_LRCK*%
X25250000Y-152750000D03*
%TO.P,U8,14*%
%TO.N,I2S_SDIN_3*%
X25750000Y-152750000D03*
%TO.P,U8,15*%
%TO.N,I2C_SDA*%
X26250000Y-152750000D03*
%TO.P,U8,16*%
%TO.N,I2C_SCL*%
X26750000Y-152750000D03*
D25*
%TO.P,U8,17*%
%TO.N,DAC3_AD0*%
X27750000Y-151750000D03*
%TO.P,U8,18*%
%TO.N,DAC3_AD1*%
X27750000Y-151250000D03*
%TO.P,U8,19*%
%TO.N,MUTE_3*%
X27750000Y-150750000D03*
%TO.P,U8,20*%
%TO.N,PDN_N*%
X27750000Y-150250000D03*
%TO.P,U8,21*%
%TO.N,FAULT_3*%
X27750000Y-149750000D03*
%TO.P,U8,22*%
%TO.N,DSD_EN*%
X27750000Y-149250000D03*
%TO.P,U8,23*%
%TO.N,DSD_CLK*%
X27750000Y-148750000D03*
%TO.P,U8,24*%
%TO.N,DSD_L*%
X27750000Y-148250000D03*
D26*
%TO.P,U8,25*%
%TO.N,DSD_R*%
X26750000Y-147250000D03*
%TO.P,U8,26*%
%TO.N,+3V3_DVDD*%
X26250000Y-147250000D03*
%TO.P,U8,27*%
%TO.N,GND*%
X25750000Y-147250000D03*
%TO.P,U8,28*%
%TO.N,DAC3_NC1*%
X25250000Y-147250000D03*
%TO.P,U8,29*%
%TO.N,DAC3_NC2*%
X24750000Y-147250000D03*
%TO.P,U8,30*%
%TO.N,GND*%
X24250000Y-147250000D03*
%TO.P,U8,31*%
%TO.N,+3V3_AVDD*%
X23750000Y-147250000D03*
%TO.P,U8,32*%
%TO.N,N/C*%
X23250000Y-147250000D03*
D27*
%TO.P,U8,33*%
%TO.N,GND*%
X25000000Y-150000000D03*
%TD*%
D28*
%TO.P,U4,1*%
%TO.N,+3V3_ISO*%
X68950000Y-15555000D03*
%TO.P,U4,2*%
%TO.N,I2S_BCK_ISO*%
X68950000Y-16825000D03*
%TO.P,U4,3*%
%TO.N,I2S_LRCK_ISO*%
X68950000Y-18095000D03*
%TO.P,U4,4*%
%TO.N,I2S_SDIN_ISO*%
X68950000Y-19365000D03*
%TO.P,U4,5*%
%TO.N,DSD_EN_ISO*%
X68950000Y-20635000D03*
%TO.P,U4,6*%
%TO.N,RST_ISO*%
X68950000Y-21905000D03*
%TO.P,U4,7*%
X68950000Y-23175000D03*
%TO.P,U4,8*%
%TO.N,GND_ISO*%
X68950000Y-24445000D03*
%TO.P,U4,9*%
%TO.N,GND*%
X81050000Y-24445000D03*
%TO.P,U4,10*%
%TO.N,RST_N*%
X81050000Y-23175000D03*
%TO.P,U4,11*%
%TO.N,DSD_EN*%
X81050000Y-21905000D03*
%TO.P,U4,12*%
%TO.N,MCLK*%
X81050000Y-20635000D03*
%TO.P,U4,13*%
%TO.N,I2S_SDIN_0*%
X81050000Y-19365000D03*
%TO.P,U4,14*%
%TO.N,I2S_LRCK*%
X81050000Y-18095000D03*
%TO.P,U4,15*%
%TO.N,I2S_BCK*%
X81050000Y-16825000D03*
%TO.P,U4,16*%
%TO.N,+3V3*%
X81050000Y-15555000D03*
%TD*%
D29*
%TO.P,C61,1*%
%TO.N,+60V*%
X58755560Y-199096500D03*
D30*
%TO.P,C61,2*%
%TO.N,GND*%
X66255560Y-199096500D03*
%TD*%
D29*
%TO.P,C62,1*%
%TO.N,-60V*%
X78150000Y-172503500D03*
D30*
%TO.P,C62,2*%
%TO.N,GND*%
X85650000Y-172503500D03*
%TD*%
D29*
%TO.P,C63,1*%
%TO.N,-60V*%
X78150000Y-199096500D03*
D30*
%TO.P,C63,2*%
%TO.N,GND*%
X85650000Y-199096500D03*
%TD*%
D29*
%TO.P,C60,1*%
%TO.N,+60V*%
X58755560Y-166196500D03*
D30*
%TO.P,C60,2*%
%TO.N,GND*%
X66255560Y-166196500D03*
%TD*%
D31*
%TO.P,J25,1*%
%TO.N,SPKR_MID_POS*%
X230475000Y-75000000D03*
%TO.P,J25,2*%
%TO.N,SPKR_MID_NEG*%
X249525000Y-75000000D03*
%TD*%
%TO.P,J27,1*%
%TO.N,SPKR_SUB_POS*%
X230475000Y-175000000D03*
%TO.P,J27,2*%
%TO.N,SPKR_SUB_NEG*%
X249525000Y-175000000D03*
%TD*%
%TO.P,J26,1*%
%TO.N,SPKR_WOOFER_POS*%
X230475000Y-125000000D03*
%TO.P,J26,2*%
%TO.N,SPKR_WOOFER_NEG*%
X249525000Y-125000000D03*
%TD*%
%TO.P,J24,1*%
%TO.N,SPKR_TWEETER_POS*%
X230475000Y-25000000D03*
%TO.P,J24,2*%
%TO.N,SPKR_TWEETER_NEG*%
X249525000Y-25000000D03*
%TD*%
D32*
%TO.P,U11,1*%
%TO.N,DAC2_OUT_A_POS*%
X52375000Y-123095000D03*
%TO.P,U11,2*%
%TO.N,DAC2_OUT_A_NEG*%
X52375000Y-124365000D03*
%TO.P,U11,3*%
%TO.N,GND*%
X52375000Y-125635000D03*
%TO.P,U11,4*%
%TO.N,-15V*%
X52375000Y-126905000D03*
%TO.P,U11,5*%
%TO.N,+15V*%
X57625000Y-126905000D03*
%TO.P,U11,6*%
%TO.N,CH2_AUDIO*%
X57625000Y-125635000D03*
%TO.P,U11,7*%
X57625000Y-124365000D03*
%TO.P,U11,8*%
%TO.N,GND*%
X57625000Y-123095000D03*
%TD*%
%TO.P,U10,1*%
%TO.N,DAC1_OUT_A_POS*%
X52375000Y-98095000D03*
%TO.P,U10,2*%
%TO.N,DAC1_OUT_A_NEG*%
X52375000Y-99365000D03*
%TO.P,U10,3*%
%TO.N,GND*%
X52375000Y-100635000D03*
%TO.P,U10,4*%
%TO.N,-15V*%
X52375000Y-101905000D03*
%TO.P,U10,5*%
%TO.N,+15V*%
X57625000Y-101905000D03*
%TO.P,U10,6*%
%TO.N,CH1_AUDIO*%
X57625000Y-100635000D03*
%TO.P,U10,7*%
X57625000Y-99365000D03*
%TO.P,U10,8*%
%TO.N,GND*%
X57625000Y-98095000D03*
%TD*%
%TO.P,U12,1*%
%TO.N,DAC3_OUT_A_POS*%
X52375000Y-148095000D03*
%TO.P,U12,2*%
%TO.N,DAC3_OUT_A_NEG*%
X52375000Y-149365000D03*
%TO.P,U12,3*%
%TO.N,GND*%
X52375000Y-150635000D03*
%TO.P,U12,4*%
%TO.N,-15V*%
X52375000Y-151905000D03*
%TO.P,U12,5*%
%TO.N,+15V*%
X57625000Y-151905000D03*
%TO.P,U12,6*%
%TO.N,CH3_AUDIO*%
X57625000Y-150635000D03*
%TO.P,U12,7*%
X57625000Y-149365000D03*
%TO.P,U12,8*%
%TO.N,GND*%
X57625000Y-148095000D03*
%TD*%
%TO.P,U9,1*%
%TO.N,DAC0_OUT_A_POS*%
X52375000Y-73095000D03*
%TO.P,U9,2*%
%TO.N,DAC0_OUT_A_NEG*%
X52375000Y-74365000D03*
%TO.P,U9,3*%
%TO.N,GND*%
X52375000Y-75635000D03*
%TO.P,U9,4*%
%TO.N,-15V*%
X52375000Y-76905000D03*
%TO.P,U9,5*%
%TO.N,+15V*%
X57625000Y-76905000D03*
%TO.P,U9,6*%
%TO.N,CH0_AUDIO*%
X57625000Y-75635000D03*
%TO.P,U9,7*%
X57625000Y-74365000D03*
%TO.P,U9,8*%
%TO.N,GND*%
X57625000Y-73095000D03*
%TD*%
M02*
