%TF.GenerationSoftware,KiCad,Pcbnew,10.0.5*%
%TF.CreationDate,2026-08-04T17:18:37-07:00*%
%TF.ProjectId,palpod-audio-amp-real,70616c70-6f64-42d6-9175-64696f2d616d,A0*%
%TF.SameCoordinates,Original*%
%TF.FileFunction,Copper,L5,Inr*%
%TF.FilePolarity,Positive*%
%FSLAX46Y46*%
G04 Gerber Fmt 4.6, Leading zero omitted, Abs format (unit mm)*
G04 Created by KiCad (PCBNEW 10.0.5) date 2026-08-04 17:18:37*
%MOMM*%
%LPD*%
G01*
G04 APERTURE LIST*
G04 Aperture macros list*
%AMRoundRect*
0 Rectangle with rounded corners*
0 $1 Rounding radius*
0 $2 $3 $4 $5 $6 $7 $8 $9 X,Y pos of 4 corners*
0 Add a 4 corners polygon primitive as box body*
4,1,4,$2,$3,$4,$5,$6,$7,$8,$9,$2,$3,0*
0 Add four circle primitives for the rounded corners*
1,1,$1+$1,$2,$3*
1,1,$1+$1,$4,$5*
1,1,$1+$1,$6,$7*
1,1,$1+$1,$8,$9*
0 Add four rect primitives between the rounded corners*
20,1,$1+$1,$2,$3,$4,$5,0*
20,1,$1+$1,$4,$5,$6,$7,0*
20,1,$1+$1,$6,$7,$8,$9,0*
20,1,$1+$1,$8,$9,$2,$3,0*%
G04 Aperture macros list end*
%TA.AperFunction,ComponentPad*%
%ADD10R,1.700000X1.700000*%
%TD*%
%TA.AperFunction,ComponentPad*%
%ADD11C,1.700000*%
%TD*%
%TA.AperFunction,ComponentPad*%
%ADD12RoundRect,0.250001X-1.149999X-1.149999X1.149999X-1.149999X1.149999X1.149999X-1.149999X1.149999X0*%
%TD*%
%TA.AperFunction,ComponentPad*%
%ADD13C,2.800000*%
%TD*%
%TA.AperFunction,ComponentPad*%
%ADD14C,2.200000*%
%TD*%
%TA.AperFunction,ComponentPad*%
%ADD15C,6.000000*%
%TD*%
%TA.AperFunction,ComponentPad*%
%ADD16RoundRect,0.250001X-0.949999X-0.949999X0.949999X-0.949999X0.949999X0.949999X-0.949999X0.949999X0*%
%TD*%
%TA.AperFunction,ComponentPad*%
%ADD17C,2.400000*%
%TD*%
%TA.AperFunction,ComponentPad*%
%ADD18C,9.000000*%
%TD*%
G04 APERTURE END LIST*
D10*
%TO.N,I2S_BCK_ISO*%
%TO.C,J2*%
X15000000Y-30000000D03*
D11*
%TO.N,I2S_LRCK_ISO*%
X15000000Y-32540000D03*
%TO.N,I2S_SDIN_ISO*%
X15000000Y-35080000D03*
%TO.N,GND_ISO*%
X15000000Y-37620000D03*
%TD*%
D12*
%TO.N,+60V*%
%TO.C,J1*%
X15000000Y-15000000D03*
D13*
%TO.N,-60V*%
X20000000Y-15000000D03*
%TO.N,GND*%
X25000000Y-15000000D03*
%TO.N,+12V*%
X30000000Y-15000000D03*
%TD*%
D14*
%TO.N,+60V*%
%TO.C,A14*%
X100000000Y-47500000D03*
%TO.N,-60V*%
X100000000Y-52500000D03*
%TO.N,GND*%
X100000000Y-57500000D03*
%TO.N,CH1_AUDIO*%
X100000000Y-62500000D03*
%TO.N,GND*%
X100000000Y-67500000D03*
X100000000Y-72500000D03*
%TO.N,MUTE_1*%
X100000000Y-77500000D03*
%TO.N,FAULT_1*%
X100000000Y-82500000D03*
%TO.N,+12V*%
X100000000Y-87500000D03*
%TO.N,SPKR_MID_POS*%
X100000000Y-92500000D03*
%TO.N,SPKR_MID_NEG*%
X100000000Y-97500000D03*
%TO.N,GND*%
X100000000Y-102500000D03*
D15*
%TO.N,N/C*%
X97500000Y-57500000D03*
X242500000Y-57500000D03*
X242500000Y-92500000D03*
X97500000Y-92500000D03*
%TD*%
D14*
%TO.N,+60V*%
%TO.C,A13*%
X100000000Y2500000D03*
%TO.N,-60V*%
X100000000Y-2500000D03*
%TO.N,GND*%
X100000000Y-7500000D03*
%TO.N,CH0_AUDIO*%
X100000000Y-12500000D03*
%TO.N,GND*%
X100000000Y-17500000D03*
X100000000Y-22500000D03*
%TO.N,MUTE_0*%
X100000000Y-27500000D03*
%TO.N,FAULT_0*%
X100000000Y-32500000D03*
%TO.N,+12V*%
X100000000Y-37500000D03*
%TO.N,SPKR_TWEETER_POS*%
X100000000Y-42500000D03*
%TO.N,SPKR_TWEETER_NEG*%
X100000000Y-47500000D03*
%TO.N,GND*%
X100000000Y-52500000D03*
D15*
%TO.N,N/C*%
X97500000Y-7500000D03*
X242500000Y-7500000D03*
X242500000Y-42500000D03*
X97500000Y-42500000D03*
%TD*%
D14*
%TO.N,+60V*%
%TO.C,A16*%
X100000000Y-147500000D03*
%TO.N,-60V*%
X100000000Y-152500000D03*
%TO.N,GND*%
X100000000Y-157500000D03*
%TO.N,CH3_AUDIO*%
X100000000Y-162500000D03*
%TO.N,GND*%
X100000000Y-167500000D03*
X100000000Y-172500000D03*
%TO.N,MUTE_3*%
X100000000Y-177500000D03*
%TO.N,FAULT_3*%
X100000000Y-182500000D03*
%TO.N,+12V*%
X100000000Y-187500000D03*
%TO.N,SPKR_SUB_POS*%
X100000000Y-192500000D03*
%TO.N,SPKR_SUB_NEG*%
X100000000Y-197500000D03*
%TO.N,GND*%
X100000000Y-202500000D03*
D15*
%TO.N,N/C*%
X97500000Y-157500000D03*
X242500000Y-157500000D03*
X242500000Y-192500000D03*
X97500000Y-192500000D03*
%TD*%
D14*
%TO.N,+60V*%
%TO.C,A15*%
X100000000Y-97500000D03*
%TO.N,-60V*%
X100000000Y-102500000D03*
%TO.N,GND*%
X100000000Y-107500000D03*
%TO.N,CH2_AUDIO*%
X100000000Y-112500000D03*
%TO.N,GND*%
X100000000Y-117500000D03*
X100000000Y-122500000D03*
%TO.N,MUTE_2*%
X100000000Y-127500000D03*
%TO.N,FAULT_2*%
X100000000Y-132500000D03*
%TO.N,+12V*%
X100000000Y-137500000D03*
%TO.N,SPKR_WOOFER_POS*%
X100000000Y-142500000D03*
%TO.N,SPKR_WOOFER_NEG*%
X100000000Y-147500000D03*
%TO.N,GND*%
X100000000Y-152500000D03*
D15*
%TO.N,N/C*%
X97500000Y-107500000D03*
X242500000Y-107500000D03*
X242500000Y-142500000D03*
X97500000Y-142500000D03*
%TD*%
D16*
%TO.N,+60V*%
%TO.C,C61*%
X58755560Y-199096500D03*
D17*
%TO.N,GND*%
X66255560Y-199096500D03*
%TD*%
D16*
%TO.N,-60V*%
%TO.C,C62*%
X78150000Y-172503500D03*
D17*
%TO.N,GND*%
X85650000Y-172503500D03*
%TD*%
D16*
%TO.N,-60V*%
%TO.C,C63*%
X78150000Y-199096500D03*
D17*
%TO.N,GND*%
X85650000Y-199096500D03*
%TD*%
D16*
%TO.N,+60V*%
%TO.C,C60*%
X58755560Y-166196500D03*
D17*
%TO.N,GND*%
X66255560Y-166196500D03*
%TD*%
D18*
%TO.N,SPKR_MID_POS*%
%TO.C,J25*%
X230475000Y-75000000D03*
%TO.N,SPKR_MID_NEG*%
X249525000Y-75000000D03*
%TD*%
%TO.N,SPKR_SUB_POS*%
%TO.C,J27*%
X230475000Y-175000000D03*
%TO.N,SPKR_SUB_NEG*%
X249525000Y-175000000D03*
%TD*%
%TO.N,SPKR_WOOFER_POS*%
%TO.C,J26*%
X230475000Y-125000000D03*
%TO.N,SPKR_WOOFER_NEG*%
X249525000Y-125000000D03*
%TD*%
%TO.N,SPKR_TWEETER_POS*%
%TO.C,J24*%
X230475000Y-25000000D03*
%TO.N,SPKR_TWEETER_NEG*%
X249525000Y-25000000D03*
%TD*%
M02*
