%TF.GenerationSoftware,KiCad,Pcbnew,10.0.5*%
%TF.CreationDate,2026-08-04T17:18:37-07:00*%
%TF.ProjectId,palpod-audio-amp-real,70616c70-6f64-42d6-9175-64696f2d616d,A0*%
%TF.SameCoordinates,Original*%
%TF.FileFunction,Other,User*%
%FSLAX46Y46*%
G04 Gerber Fmt 4.6, Leading zero omitted, Abs format (unit mm)*
G04 Created by KiCad (PCBNEW 10.0.5) date 2026-08-04 17:18:37*
%MOMM*%
%LPD*%
G01*
G04 APERTURE LIST*
%ADD10C,0.050000*%
G04 APERTURE END LIST*
%TO.C,J2*%
D10*
X13230000Y-28230000D02*
X16770000Y-28230000D01*
X16770000Y-39390000D01*
X13230000Y-39390000D01*
X13230000Y-28230000D01*
%TO.C,J1*%
X11500000Y-10500000D02*
X33000000Y-10500000D01*
X33000000Y-19310000D01*
X11500000Y-19310000D01*
X11500000Y-10500000D01*
%TO.C,U22*%
X108000000Y-103000000D02*
X112000000Y-103000000D01*
X108000000Y-107000000D02*
X108000000Y-103000000D01*
X112000000Y-103000000D02*
X112000000Y-107000000D01*
X112000000Y-107000000D02*
X108000000Y-107000000D01*
%TO.C,U20*%
X108000000Y-13000000D02*
X112000000Y-13000000D01*
X108000000Y-17000000D02*
X108000000Y-13000000D01*
X112000000Y-13000000D02*
X112000000Y-17000000D01*
X112000000Y-17000000D02*
X108000000Y-17000000D01*
%TO.C,U21*%
X108000000Y-53000000D02*
X112000000Y-53000000D01*
X108000000Y-57000000D02*
X108000000Y-53000000D01*
X112000000Y-53000000D02*
X112000000Y-57000000D01*
X112000000Y-57000000D02*
X108000000Y-57000000D01*
%TO.C,U23*%
X108000000Y-153000000D02*
X112000000Y-153000000D01*
X108000000Y-157000000D02*
X108000000Y-153000000D01*
X112000000Y-153000000D02*
X112000000Y-157000000D01*
X112000000Y-157000000D02*
X108000000Y-157000000D01*
%TO.C,R65*%
X66081906Y-29530000D02*
X67941906Y-29530000D01*
X67941906Y-30470000D01*
X66081906Y-30470000D01*
X66081906Y-29530000D01*
%TO.C,R66*%
X69822382Y-29530000D02*
X71682382Y-29530000D01*
X71682382Y-30470000D01*
X69822382Y-30470000D01*
X69822382Y-29530000D01*
%TO.C,R67*%
X73562858Y-29530000D02*
X75422858Y-29530000D01*
X75422858Y-30470000D01*
X73562858Y-30470000D01*
X73562858Y-29530000D01*
%TO.C,R68*%
X77303334Y-29530000D02*
X79163334Y-29530000D01*
X79163334Y-30470000D01*
X77303334Y-30470000D01*
X77303334Y-29530000D01*
%TO.C,R69*%
X81043810Y-29530000D02*
X82903810Y-29530000D01*
X82903810Y-30470000D01*
X81043810Y-30470000D01*
X81043810Y-29530000D01*
%TO.C,R70*%
X84784286Y-29530000D02*
X86644286Y-29530000D01*
X86644286Y-30470000D01*
X84784286Y-30470000D01*
X84784286Y-29530000D01*
%TO.C,R71*%
X88524762Y-29530000D02*
X90384762Y-29530000D01*
X90384762Y-30470000D01*
X88524762Y-30470000D01*
X88524762Y-29530000D01*
%TO.C,R64*%
X62341430Y-29530000D02*
X64201430Y-29530000D01*
X64201430Y-30470000D01*
X62341430Y-30470000D01*
X62341430Y-29530000D01*
%TO.C,U3*%
X43000000Y-18000000D02*
X47000000Y-18000000D01*
X43000000Y-22000000D02*
X43000000Y-18000000D01*
X47000000Y-18000000D02*
X47000000Y-22000000D01*
X47000000Y-22000000D02*
X43000000Y-22000000D01*
%TO.C,C43*%
X71090000Y-104540000D02*
X72910000Y-104540000D01*
X72910000Y-105460000D01*
X71090000Y-105460000D01*
X71090000Y-104540000D01*
%TO.C,C50*%
X66090000Y-129540000D02*
X67910000Y-129540000D01*
X67910000Y-130460000D01*
X66090000Y-130460000D01*
X66090000Y-129540000D01*
%TO.C,C51*%
X71090000Y-129540000D02*
X72910000Y-129540000D01*
X72910000Y-130460000D01*
X71090000Y-130460000D01*
X71090000Y-129540000D01*
%TO.C,C30*%
X44039999Y-79540000D02*
X45859999Y-79540000D01*
X45859999Y-80460000D01*
X44039999Y-80460000D01*
X44039999Y-79540000D01*
%TO.C,C29*%
X38870951Y-79540000D02*
X40690951Y-79540000D01*
X40690951Y-80460000D01*
X38870951Y-80460000D01*
X38870951Y-79540000D01*
%TO.C,C31*%
X51090000Y-81646500D02*
X52910000Y-81646500D01*
X52910000Y-82566500D01*
X51090000Y-82566500D01*
X51090000Y-81646500D01*
%TO.C,C42*%
X66090000Y-104540000D02*
X67910000Y-104540000D01*
X67910000Y-105460000D01*
X66090000Y-105460000D01*
X66090000Y-104540000D01*
%TO.C,C32*%
X56090000Y-81646500D02*
X57910000Y-81646500D01*
X57910000Y-82566500D01*
X56090000Y-82566500D01*
X56090000Y-81646500D01*
%TO.C,C28*%
X33701903Y-79540000D02*
X35521903Y-79540000D01*
X35521903Y-80460000D01*
X33701903Y-80460000D01*
X33701903Y-79540000D01*
%TO.C,C33*%
X61090000Y-81646500D02*
X62910000Y-81646500D01*
X62910000Y-82566500D01*
X61090000Y-82566500D01*
X61090000Y-81646500D01*
%TO.C,C34*%
X66090000Y-79540000D02*
X67910000Y-79540000D01*
X67910000Y-80460000D01*
X66090000Y-80460000D01*
X66090000Y-79540000D01*
%TO.C,C35*%
X71090000Y-79540000D02*
X72910000Y-79540000D01*
X72910000Y-80460000D01*
X71090000Y-80460000D01*
X71090000Y-79540000D01*
%TO.C,C36*%
X35075712Y-104540000D02*
X36895712Y-104540000D01*
X36895712Y-105460000D01*
X35075712Y-105460000D01*
X35075712Y-104540000D01*
%TO.C,C37*%
X40244760Y-104540000D02*
X42064760Y-104540000D01*
X42064760Y-105460000D01*
X40244760Y-105460000D01*
X40244760Y-104540000D01*
%TO.C,C38*%
X45413808Y-104540000D02*
X47233808Y-104540000D01*
X47233808Y-105460000D01*
X45413808Y-105460000D01*
X45413808Y-104540000D01*
%TO.C,C39*%
X50582856Y-106646500D02*
X52402856Y-106646500D01*
X52402856Y-107566500D01*
X50582856Y-107566500D01*
X50582856Y-106646500D01*
%TO.C,C40*%
X55751904Y-106646500D02*
X57571904Y-106646500D01*
X57571904Y-107566500D01*
X55751904Y-107566500D01*
X55751904Y-106646500D01*
%TO.C,C41*%
X62259048Y-104540000D02*
X64079048Y-104540000D01*
X64079048Y-105460000D01*
X62259048Y-105460000D01*
X62259048Y-104540000D01*
%TO.C,C44*%
X33892380Y-129540000D02*
X35712380Y-129540000D01*
X35712380Y-130460000D01*
X33892380Y-130460000D01*
X33892380Y-129540000D01*
%TO.C,C45*%
X39061428Y-129540000D02*
X40881428Y-129540000D01*
X40881428Y-130460000D01*
X39061428Y-130460000D01*
X39061428Y-129540000D01*
%TO.C,C46*%
X44230476Y-129540000D02*
X46050476Y-129540000D01*
X46050476Y-130460000D01*
X44230476Y-130460000D01*
X44230476Y-129540000D01*
%TO.C,C47*%
X51090000Y-131646500D02*
X52910000Y-131646500D01*
X52910000Y-132566500D01*
X51090000Y-132566500D01*
X51090000Y-131646500D01*
%TO.C,C48*%
X56090000Y-131646500D02*
X57910000Y-131646500D01*
X57910000Y-132566500D01*
X56090000Y-132566500D01*
X56090000Y-131646500D01*
%TO.C,C49*%
X61090000Y-131646500D02*
X62910000Y-131646500D01*
X62910000Y-132566500D01*
X61090000Y-132566500D01*
X61090000Y-131646500D01*
%TO.C,U19*%
X28050000Y-48700000D02*
X31950000Y-48700000D01*
X28050000Y-51300000D02*
X28050000Y-48700000D01*
X31950000Y-48700000D02*
X31950000Y-51300000D01*
X31950000Y-51300000D02*
X28050000Y-51300000D01*
%TO.C,A14*%
X91500000Y-51500000D02*
X248500000Y-51500000D01*
X91500000Y-98500000D02*
X91500000Y-51500000D01*
X248500000Y-51500000D02*
X248500000Y-98500000D01*
X248500000Y-98500000D02*
X91500000Y-98500000D01*
%TO.C,A13*%
X91500000Y-1500000D02*
X248500000Y-1500000D01*
X91500000Y-48500000D02*
X91500000Y-1500000D01*
X248500000Y-1500000D02*
X248500000Y-48500000D01*
X248500000Y-48500000D02*
X91500000Y-48500000D01*
%TO.C,A16*%
X91500000Y-151500000D02*
X248500000Y-151500000D01*
X91500000Y-198500000D02*
X91500000Y-151500000D01*
X248500000Y-151500000D02*
X248500000Y-198500000D01*
X248500000Y-198500000D02*
X91500000Y-198500000D01*
%TO.C,A15*%
X91500000Y-101500000D02*
X248500000Y-101500000D01*
X91500000Y-148500000D02*
X91500000Y-101500000D01*
X248500000Y-101500000D02*
X248500000Y-148500000D01*
X248500000Y-148500000D02*
X91500000Y-148500000D01*
%TO.C,C52*%
X32611905Y-74020000D02*
X36011905Y-74020000D01*
X36011905Y-75980000D01*
X32611905Y-75980000D01*
X32611905Y-74020000D01*
%TO.C,C53*%
X35292855Y-74020000D02*
X38692855Y-74020000D01*
X38692855Y-75980000D01*
X35292855Y-75980000D01*
X35292855Y-74020000D01*
%TO.C,C54*%
X39509522Y-74020000D02*
X42909522Y-74020000D01*
X42909522Y-75980000D01*
X39509522Y-75980000D01*
X39509522Y-74020000D01*
%TO.C,C55*%
X43726189Y-74020000D02*
X47126189Y-74020000D01*
X47126189Y-75980000D01*
X43726189Y-75980000D01*
X43726189Y-74020000D01*
%TO.C,C56*%
X32957141Y-99020000D02*
X36357141Y-99020000D01*
X36357141Y-100980000D01*
X32957141Y-100980000D01*
X32957141Y-99020000D01*
%TO.C,C57*%
X37173808Y-99020000D02*
X40573808Y-99020000D01*
X40573808Y-100980000D01*
X37173808Y-100980000D01*
X37173808Y-99020000D01*
%TO.C,C58*%
X41390475Y-99020000D02*
X44790475Y-99020000D01*
X44790475Y-100980000D01*
X41390475Y-100980000D01*
X41390475Y-99020000D01*
%TO.C,C59*%
X45607142Y-99020000D02*
X49007142Y-99020000D01*
X49007142Y-100980000D01*
X45607142Y-100980000D01*
X45607142Y-99020000D01*
%TO.C,L73*%
X72500000Y-173850000D02*
X83500000Y-173850000D01*
X83500000Y-186150000D01*
X72500000Y-186150000D01*
X72500000Y-173850000D01*
%TO.C,L72*%
X36500000Y-173850000D02*
X47500000Y-173850000D01*
X47500000Y-186150000D01*
X36500000Y-186150000D01*
X36500000Y-173850000D01*
%TO.C,U17*%
X20600000Y-176300000D02*
X29400000Y-176300000D01*
X20600000Y-183700000D02*
X20600000Y-176300000D01*
X29400000Y-176300000D02*
X29400000Y-183700000D01*
X29400000Y-183700000D02*
X20600000Y-183700000D01*
%TO.C,U18*%
X55600000Y-176300000D02*
X64400000Y-176300000D01*
X55600000Y-183700000D02*
X55600000Y-176300000D01*
X64400000Y-176300000D02*
X64400000Y-183700000D01*
X64400000Y-183700000D02*
X55600000Y-183700000D01*
%TO.C,U5*%
X22000000Y-72000000D02*
X28000000Y-72000000D01*
X22000000Y-78000000D02*
X22000000Y-72000000D01*
X28000000Y-72000000D02*
X28000000Y-78000000D01*
X28000000Y-78000000D02*
X22000000Y-78000000D01*
%TO.C,U7*%
X22000000Y-122000000D02*
X28000000Y-122000000D01*
X22000000Y-128000000D02*
X22000000Y-122000000D01*
X28000000Y-122000000D02*
X28000000Y-128000000D01*
X28000000Y-128000000D02*
X22000000Y-128000000D01*
%TO.C,U6*%
X22000000Y-97000000D02*
X28000000Y-97000000D01*
X22000000Y-103000000D02*
X22000000Y-97000000D01*
X28000000Y-97000000D02*
X28000000Y-103000000D01*
X28000000Y-103000000D02*
X22000000Y-103000000D01*
%TO.C,U8*%
X22000000Y-147000000D02*
X28000000Y-147000000D01*
X22000000Y-153000000D02*
X22000000Y-147000000D01*
X28000000Y-147000000D02*
X28000000Y-153000000D01*
X28000000Y-153000000D02*
X22000000Y-153000000D01*
%TO.C,U4*%
X69350000Y-15750000D02*
X80650000Y-15750000D01*
X69350000Y-24250000D02*
X69350000Y-15750000D01*
X80650000Y-15750000D02*
X80650000Y-24250000D01*
X80650000Y-24250000D02*
X69350000Y-24250000D01*
%TO.C,C61*%
X71755560Y-199096500D02*
G75*
G02*
X53255560Y-199096500I-9250000J0D01*
G01*
X53255560Y-199096500D02*
G75*
G02*
X71755560Y-199096500I9250000J0D01*
G01*
%TO.C,C62*%
X91150000Y-172503500D02*
G75*
G02*
X72650000Y-172503500I-9250000J0D01*
G01*
X72650000Y-172503500D02*
G75*
G02*
X91150000Y-172503500I9250000J0D01*
G01*
%TO.C,C63*%
X91150000Y-199096500D02*
G75*
G02*
X72650000Y-199096500I-9250000J0D01*
G01*
X72650000Y-199096500D02*
G75*
G02*
X91150000Y-199096500I9250000J0D01*
G01*
%TO.C,C60*%
X71755560Y-166196500D02*
G75*
G02*
X53255560Y-166196500I-9250000J0D01*
G01*
X53255560Y-166196500D02*
G75*
G02*
X71755560Y-166196500I9250000J0D01*
G01*
%TO.C,J25*%
X224000000Y-64000000D02*
X256000000Y-64000000D01*
X224000000Y-86000000D02*
X224000000Y-64000000D01*
X256000000Y-64000000D02*
X256000000Y-86000000D01*
X256000000Y-86000000D02*
X224000000Y-86000000D01*
%TO.C,J27*%
X224000000Y-164000000D02*
X256000000Y-164000000D01*
X224000000Y-186000000D02*
X224000000Y-164000000D01*
X256000000Y-164000000D02*
X256000000Y-186000000D01*
X256000000Y-186000000D02*
X224000000Y-186000000D01*
%TO.C,J26*%
X224000000Y-114000000D02*
X256000000Y-114000000D01*
X224000000Y-136000000D02*
X224000000Y-114000000D01*
X256000000Y-114000000D02*
X256000000Y-136000000D01*
X256000000Y-136000000D02*
X224000000Y-136000000D01*
%TO.C,J24*%
X224000000Y-14000000D02*
X256000000Y-14000000D01*
X224000000Y-36000000D02*
X224000000Y-14000000D01*
X256000000Y-14000000D02*
X256000000Y-36000000D01*
X256000000Y-36000000D02*
X224000000Y-36000000D01*
%TO.C,U11*%
X52550000Y-122050000D02*
X57450000Y-122050000D01*
X52550000Y-127950000D02*
X52550000Y-122050000D01*
X57450000Y-122050000D02*
X57450000Y-127950000D01*
X57450000Y-127950000D02*
X52550000Y-127950000D01*
%TO.C,U10*%
X52550000Y-97050000D02*
X57450000Y-97050000D01*
X52550000Y-102950000D02*
X52550000Y-97050000D01*
X57450000Y-97050000D02*
X57450000Y-102950000D01*
X57450000Y-102950000D02*
X52550000Y-102950000D01*
%TO.C,U12*%
X52550000Y-147050000D02*
X57450000Y-147050000D01*
X52550000Y-152950000D02*
X52550000Y-147050000D01*
X57450000Y-147050000D02*
X57450000Y-152950000D01*
X57450000Y-152950000D02*
X52550000Y-152950000D01*
%TO.C,U9*%
X52550000Y-72050000D02*
X57450000Y-72050000D01*
X52550000Y-77950000D02*
X52550000Y-72050000D01*
X57450000Y-72050000D02*
X57450000Y-77950000D01*
X57450000Y-77950000D02*
X52550000Y-77950000D01*
%TD*%
M02*
