%TF.GenerationSoftware,KiCad,Pcbnew,10.0.5*%
%TF.CreationDate,2026-08-04T17:18:37-07:00*%
%TF.ProjectId,palpod-audio-amp-real,70616c70-6f64-42d6-9175-64696f2d616d,A0*%
%TF.SameCoordinates,Original*%
%TF.FileFunction,Paste,Top*%
%TF.FilePolarity,Positive*%
%FSLAX46Y46*%
G04 Gerber Fmt 4.6, Leading zero omitted, Abs format (unit mm)*
G04 Created by KiCad (PCBNEW 10.0.5) date 2026-08-04 17:18:37*
%MOMM*%
%LPD*%
G01*
G04 APERTURE LIST*
G04 Aperture macros list*
%AMRoundRect*
0 Rectangle with rounded corners*
0 $1 Rounding radius*
0 $2 $3 $4 $5 $6 $7 $8 $9 X,Y pos of 4 corners*
0 Add a 4 corners polygon primitive as box body*
4,1,4,$2,$3,$4,$5,$6,$7,$8,$9,$2,$3,0*
0 Add four circle primitives for the rounded corners*
1,1,$1+$1,$2,$3*
1,1,$1+$1,$4,$5*
1,1,$1+$1,$6,$7*
1,1,$1+$1,$8,$9*
0 Add four rect primitives between the rounded corners*
20,1,$1+$1,$2,$3,$4,$5,0*
20,1,$1+$1,$4,$5,$6,$7,0*
20,1,$1+$1,$6,$7,$8,$9,0*
20,1,$1+$1,$8,$9,$2,$3,0*%
G04 Aperture macros list end*
%ADD10RoundRect,0.100000X-0.600000X-0.100000X0.600000X-0.100000X0.600000X0.100000X-0.600000X0.100000X0*%
%ADD11RoundRect,0.135000X-0.135000X-0.185000X0.135000X-0.185000X0.135000X0.185000X-0.135000X0.185000X0*%
%ADD12RoundRect,0.075000X-0.625000X-0.075000X0.625000X-0.075000X0.625000X0.075000X-0.625000X0.075000X0*%
%ADD13RoundRect,0.140000X-0.140000X-0.170000X0.140000X-0.170000X0.140000X0.170000X-0.140000X0.170000X0*%
%ADD14RoundRect,0.150000X-0.150000X-0.450000X0.150000X-0.450000X0.150000X0.450000X-0.150000X0.450000X0*%
%ADD15RoundRect,0.250000X-0.250000X-0.475000X0.250000X-0.475000X0.250000X0.475000X-0.250000X0.475000X0*%
%ADD16RoundRect,0.250000X-0.940000X-4.250000X0.940000X-4.250000X0.940000X4.250000X-0.940000X4.250000X0*%
%ADD17RoundRect,0.100000X-0.650000X-0.100000X0.650000X-0.100000X0.650000X0.100000X-0.650000X0.100000X0*%
%ADD18R,3.400000X5.000000*%
%ADD19RoundRect,0.070000X-0.280000X-0.070000X0.280000X-0.070000X0.280000X0.070000X-0.280000X0.070000X0*%
%ADD20RoundRect,0.070000X-0.070000X-0.280000X0.070000X-0.280000X0.070000X0.280000X-0.070000X0.280000X0*%
%ADD21R,3.100000X3.100000*%
%ADD22RoundRect,0.150000X-0.850000X-0.150000X0.850000X-0.150000X0.850000X0.150000X-0.850000X0.150000X0*%
%ADD23RoundRect,0.150000X-0.625000X-0.150000X0.625000X-0.150000X0.625000X0.150000X-0.625000X0.150000X0*%
G04 APERTURE END LIST*
D10*
%TO.C,U22*%
X107900000Y-104025000D03*
X107900000Y-104675000D03*
X107900000Y-105325000D03*
X107900000Y-105975000D03*
X112100000Y-105975000D03*
X112100000Y-105325000D03*
X112100000Y-104675000D03*
X112100000Y-104025000D03*
%TD*%
%TO.C,U20*%
X107900000Y-14025000D03*
X107900000Y-14675000D03*
X107900000Y-15325000D03*
X107900000Y-15975000D03*
X112100000Y-15975000D03*
X112100000Y-15325000D03*
X112100000Y-14675000D03*
X112100000Y-14025000D03*
%TD*%
%TO.C,U21*%
X107900000Y-54025000D03*
X107900000Y-54675000D03*
X107900000Y-55325000D03*
X107900000Y-55975000D03*
X112100000Y-55975000D03*
X112100000Y-55325000D03*
X112100000Y-54675000D03*
X112100000Y-54025000D03*
%TD*%
%TO.C,U23*%
X107900000Y-154025000D03*
X107900000Y-154675000D03*
X107900000Y-155325000D03*
X107900000Y-155975000D03*
X112100000Y-155975000D03*
X112100000Y-155325000D03*
X112100000Y-154675000D03*
X112100000Y-154025000D03*
%TD*%
D11*
%TO.C,R65*%
X66501906Y-30000000D03*
X67521906Y-30000000D03*
%TD*%
%TO.C,R66*%
X70242382Y-30000000D03*
X71262382Y-30000000D03*
%TD*%
%TO.C,R67*%
X73982858Y-30000000D03*
X75002858Y-30000000D03*
%TD*%
%TO.C,R68*%
X77723334Y-30000000D03*
X78743334Y-30000000D03*
%TD*%
%TO.C,R69*%
X81463810Y-30000000D03*
X82483810Y-30000000D03*
%TD*%
%TO.C,R70*%
X85204286Y-30000000D03*
X86224286Y-30000000D03*
%TD*%
%TO.C,R71*%
X88944762Y-30000000D03*
X89964762Y-30000000D03*
%TD*%
%TO.C,R64*%
X62761430Y-30000000D03*
X63781430Y-30000000D03*
%TD*%
D12*
%TO.C,U3*%
X42900000Y-19000000D03*
X42900000Y-19500000D03*
X42900000Y-20000000D03*
X42900000Y-20500000D03*
X42900000Y-21000000D03*
X47100000Y-21000000D03*
X47100000Y-20500000D03*
X47100000Y-20000000D03*
X47100000Y-19500000D03*
X47100000Y-19000000D03*
%TD*%
D13*
%TO.C,C43*%
X71520000Y-105000000D03*
X72480000Y-105000000D03*
%TD*%
%TO.C,C50*%
X66520000Y-130000000D03*
X67480000Y-130000000D03*
%TD*%
%TO.C,C51*%
X71520000Y-130000000D03*
X72480000Y-130000000D03*
%TD*%
%TO.C,C30*%
X44469999Y-80000000D03*
X45429999Y-80000000D03*
%TD*%
%TO.C,C29*%
X39300951Y-80000000D03*
X40260951Y-80000000D03*
%TD*%
%TO.C,C31*%
X51520000Y-82106500D03*
X52480000Y-82106500D03*
%TD*%
%TO.C,C42*%
X66520000Y-105000000D03*
X67480000Y-105000000D03*
%TD*%
%TO.C,C32*%
X56520000Y-82106500D03*
X57480000Y-82106500D03*
%TD*%
%TO.C,C28*%
X34131903Y-80000000D03*
X35091903Y-80000000D03*
%TD*%
%TO.C,C33*%
X61520000Y-82106500D03*
X62480000Y-82106500D03*
%TD*%
%TO.C,C34*%
X66520000Y-80000000D03*
X67480000Y-80000000D03*
%TD*%
%TO.C,C35*%
X71520000Y-80000000D03*
X72480000Y-80000000D03*
%TD*%
%TO.C,C36*%
X35505712Y-105000000D03*
X36465712Y-105000000D03*
%TD*%
%TO.C,C37*%
X40674760Y-105000000D03*
X41634760Y-105000000D03*
%TD*%
%TO.C,C38*%
X45843808Y-105000000D03*
X46803808Y-105000000D03*
%TD*%
%TO.C,C39*%
X51012856Y-107106500D03*
X51972856Y-107106500D03*
%TD*%
%TO.C,C40*%
X56181904Y-107106500D03*
X57141904Y-107106500D03*
%TD*%
%TO.C,C41*%
X62689048Y-105000000D03*
X63649048Y-105000000D03*
%TD*%
%TO.C,C44*%
X34322380Y-130000000D03*
X35282380Y-130000000D03*
%TD*%
%TO.C,C45*%
X39491428Y-130000000D03*
X40451428Y-130000000D03*
%TD*%
%TO.C,C46*%
X44660476Y-130000000D03*
X45620476Y-130000000D03*
%TD*%
%TO.C,C47*%
X51520000Y-132106500D03*
X52480000Y-132106500D03*
%TD*%
%TO.C,C48*%
X56520000Y-132106500D03*
X57480000Y-132106500D03*
%TD*%
%TO.C,C49*%
X61520000Y-132106500D03*
X62480000Y-132106500D03*
%TD*%
D14*
%TO.C,U19*%
X29050000Y-51400000D03*
X30000000Y-51400000D03*
X30950000Y-51400000D03*
X30950000Y-48600000D03*
X29050000Y-48600000D03*
%TD*%
D15*
%TO.C,C52*%
X33361905Y-75000000D03*
X35261905Y-75000000D03*
%TD*%
%TO.C,C53*%
X36042855Y-75000000D03*
X37942855Y-75000000D03*
%TD*%
%TO.C,C54*%
X40259522Y-75000000D03*
X42159522Y-75000000D03*
%TD*%
%TO.C,C55*%
X44476189Y-75000000D03*
X46376189Y-75000000D03*
%TD*%
%TO.C,C56*%
X33707141Y-100000000D03*
X35607141Y-100000000D03*
%TD*%
%TO.C,C57*%
X37923808Y-100000000D03*
X39823808Y-100000000D03*
%TD*%
%TO.C,C58*%
X42140475Y-100000000D03*
X44040475Y-100000000D03*
%TD*%
%TO.C,C59*%
X46357142Y-100000000D03*
X48257142Y-100000000D03*
%TD*%
D16*
%TO.C,L73*%
X74675000Y-180000000D03*
X81325000Y-180000000D03*
%TD*%
%TO.C,L72*%
X38675000Y-180000000D03*
X45325000Y-180000000D03*
%TD*%
D17*
%TO.C,U17*%
X20450000Y-176425000D03*
X20450000Y-177075000D03*
X20450000Y-177725000D03*
X20450000Y-178375000D03*
X20450000Y-179025000D03*
X20450000Y-179675000D03*
X20450000Y-180325000D03*
X20450000Y-180975000D03*
X20450000Y-181625000D03*
X20450000Y-182275000D03*
X20450000Y-182925000D03*
X20450000Y-183575000D03*
X29550000Y-183575000D03*
X29550000Y-182925000D03*
X29550000Y-182275000D03*
X29550000Y-181625000D03*
X29550000Y-180975000D03*
X29550000Y-180325000D03*
X29550000Y-179675000D03*
X29550000Y-179025000D03*
X29550000Y-178375000D03*
X29550000Y-177725000D03*
X29550000Y-177075000D03*
X29550000Y-176425000D03*
D18*
X25000000Y-180000000D03*
%TD*%
D17*
%TO.C,U18*%
X55450000Y-176425000D03*
X55450000Y-177075000D03*
X55450000Y-177725000D03*
X55450000Y-178375000D03*
X55450000Y-179025000D03*
X55450000Y-179675000D03*
X55450000Y-180325000D03*
X55450000Y-180975000D03*
X55450000Y-181625000D03*
X55450000Y-182275000D03*
X55450000Y-182925000D03*
X55450000Y-183575000D03*
X64550000Y-183575000D03*
X64550000Y-182925000D03*
X64550000Y-182275000D03*
X64550000Y-181625000D03*
X64550000Y-180975000D03*
X64550000Y-180325000D03*
X64550000Y-179675000D03*
X64550000Y-179025000D03*
X64550000Y-178375000D03*
X64550000Y-177725000D03*
X64550000Y-177075000D03*
X64550000Y-176425000D03*
D18*
X60000000Y-180000000D03*
%TD*%
D19*
%TO.C,U5*%
X22250000Y-73250000D03*
X22250000Y-73750000D03*
X22250000Y-74250000D03*
X22250000Y-74750000D03*
X22250000Y-75250000D03*
X22250000Y-75750000D03*
X22250000Y-76250000D03*
X22250000Y-76750000D03*
D20*
X23250000Y-77750000D03*
X23750000Y-77750000D03*
X24250000Y-77750000D03*
X24750000Y-77750000D03*
X25250000Y-77750000D03*
X25750000Y-77750000D03*
X26250000Y-77750000D03*
X26750000Y-77750000D03*
D19*
X27750000Y-76750000D03*
X27750000Y-76250000D03*
X27750000Y-75750000D03*
X27750000Y-75250000D03*
X27750000Y-74750000D03*
X27750000Y-74250000D03*
X27750000Y-73750000D03*
X27750000Y-73250000D03*
D20*
X26750000Y-72250000D03*
X26250000Y-72250000D03*
X25750000Y-72250000D03*
X25250000Y-72250000D03*
X24750000Y-72250000D03*
X24250000Y-72250000D03*
X23750000Y-72250000D03*
X23250000Y-72250000D03*
D21*
X25000000Y-75000000D03*
%TD*%
D19*
%TO.C,U7*%
X22250000Y-123250000D03*
X22250000Y-123750000D03*
X22250000Y-124250000D03*
X22250000Y-124750000D03*
X22250000Y-125250000D03*
X22250000Y-125750000D03*
X22250000Y-126250000D03*
X22250000Y-126750000D03*
D20*
X23250000Y-127750000D03*
X23750000Y-127750000D03*
X24250000Y-127750000D03*
X24750000Y-127750000D03*
X25250000Y-127750000D03*
X25750000Y-127750000D03*
X26250000Y-127750000D03*
X26750000Y-127750000D03*
D19*
X27750000Y-126750000D03*
X27750000Y-126250000D03*
X27750000Y-125750000D03*
X27750000Y-125250000D03*
X27750000Y-124750000D03*
X27750000Y-124250000D03*
X27750000Y-123750000D03*
X27750000Y-123250000D03*
D20*
X26750000Y-122250000D03*
X26250000Y-122250000D03*
X25750000Y-122250000D03*
X25250000Y-122250000D03*
X24750000Y-122250000D03*
X24250000Y-122250000D03*
X23750000Y-122250000D03*
X23250000Y-122250000D03*
D21*
X25000000Y-125000000D03*
%TD*%
D19*
%TO.C,U6*%
X22250000Y-98250000D03*
X22250000Y-98750000D03*
X22250000Y-99250000D03*
X22250000Y-99750000D03*
X22250000Y-100250000D03*
X22250000Y-100750000D03*
X22250000Y-101250000D03*
X22250000Y-101750000D03*
D20*
X23250000Y-102750000D03*
X23750000Y-102750000D03*
X24250000Y-102750000D03*
X24750000Y-102750000D03*
X25250000Y-102750000D03*
X25750000Y-102750000D03*
X26250000Y-102750000D03*
X26750000Y-102750000D03*
D19*
X27750000Y-101750000D03*
X27750000Y-101250000D03*
X27750000Y-100750000D03*
X27750000Y-100250000D03*
X27750000Y-99750000D03*
X27750000Y-99250000D03*
X27750000Y-98750000D03*
X27750000Y-98250000D03*
D20*
X26750000Y-97250000D03*
X26250000Y-97250000D03*
X25750000Y-97250000D03*
X25250000Y-97250000D03*
X24750000Y-97250000D03*
X24250000Y-97250000D03*
X23750000Y-97250000D03*
X23250000Y-97250000D03*
D21*
X25000000Y-100000000D03*
%TD*%
D19*
%TO.C,U8*%
X22250000Y-148250000D03*
X22250000Y-148750000D03*
X22250000Y-149250000D03*
X22250000Y-149750000D03*
X22250000Y-150250000D03*
X22250000Y-150750000D03*
X22250000Y-151250000D03*
X22250000Y-151750000D03*
D20*
X23250000Y-152750000D03*
X23750000Y-152750000D03*
X24250000Y-152750000D03*
X24750000Y-152750000D03*
X25250000Y-152750000D03*
X25750000Y-152750000D03*
X26250000Y-152750000D03*
X26750000Y-152750000D03*
D19*
X27750000Y-151750000D03*
X27750000Y-151250000D03*
X27750000Y-150750000D03*
X27750000Y-150250000D03*
X27750000Y-149750000D03*
X27750000Y-149250000D03*
X27750000Y-148750000D03*
X27750000Y-148250000D03*
D20*
X26750000Y-147250000D03*
X26250000Y-147250000D03*
X25750000Y-147250000D03*
X25250000Y-147250000D03*
X24750000Y-147250000D03*
X24250000Y-147250000D03*
X23750000Y-147250000D03*
X23250000Y-147250000D03*
D21*
X25000000Y-150000000D03*
%TD*%
D22*
%TO.C,U4*%
X68950000Y-15555000D03*
X68950000Y-16825000D03*
X68950000Y-18095000D03*
X68950000Y-19365000D03*
X68950000Y-20635000D03*
X68950000Y-21905000D03*
X68950000Y-23175000D03*
X68950000Y-24445000D03*
X81050000Y-24445000D03*
X81050000Y-23175000D03*
X81050000Y-21905000D03*
X81050000Y-20635000D03*
X81050000Y-19365000D03*
X81050000Y-18095000D03*
X81050000Y-16825000D03*
X81050000Y-15555000D03*
%TD*%
D23*
%TO.C,U11*%
X52375000Y-123095000D03*
X52375000Y-124365000D03*
X52375000Y-125635000D03*
X52375000Y-126905000D03*
X57625000Y-126905000D03*
X57625000Y-125635000D03*
X57625000Y-124365000D03*
X57625000Y-123095000D03*
%TD*%
%TO.C,U10*%
X52375000Y-98095000D03*
X52375000Y-99365000D03*
X52375000Y-100635000D03*
X52375000Y-101905000D03*
X57625000Y-101905000D03*
X57625000Y-100635000D03*
X57625000Y-99365000D03*
X57625000Y-98095000D03*
%TD*%
%TO.C,U12*%
X52375000Y-148095000D03*
X52375000Y-149365000D03*
X52375000Y-150635000D03*
X52375000Y-151905000D03*
X57625000Y-151905000D03*
X57625000Y-150635000D03*
X57625000Y-149365000D03*
X57625000Y-148095000D03*
%TD*%
%TO.C,U9*%
X52375000Y-73095000D03*
X52375000Y-74365000D03*
X52375000Y-75635000D03*
X52375000Y-76905000D03*
X57625000Y-76905000D03*
X57625000Y-75635000D03*
X57625000Y-74365000D03*
X57625000Y-73095000D03*
%TD*%
M02*
