%TF.GenerationSoftware,KiCad,Pcbnew,10.0.5*%
%TF.CreationDate,2026-08-03T18:12:20-07:00*%
%TF.ProjectId,palpod-halbach-controller,70616c70-6f64-42d6-9861-6c626163682d,A0*%
%TF.SameCoordinates,Original*%
%TF.FileFunction,Legend,Top*%
%TF.FilePolarity,Positive*%
%FSLAX46Y46*%
G04 Gerber Fmt 4.6, Leading zero omitted, Abs format (unit mm)*
G04 Created by KiCad (PCBNEW 10.0.5) date 2026-08-03 18:12:20*
%MOMM*%
%LPD*%
G01*
G04 APERTURE LIST*
%ADD10C,0.350000*%
%ADD11C,0.250000*%
%ADD12C,0.200000*%
G04 APERTURE END LIST*
D10*
X55825501Y-57600847D02*
X55825501Y-55100847D01*
X55825501Y-55100847D02*
X56777882Y-55100847D01*
X56777882Y-55100847D02*
X57015977Y-55219895D01*
X57015977Y-55219895D02*
X57135024Y-55338942D01*
X57135024Y-55338942D02*
X57254072Y-55577038D01*
X57254072Y-55577038D02*
X57254072Y-55934180D01*
X57254072Y-55934180D02*
X57135024Y-56172276D01*
X57135024Y-56172276D02*
X57015977Y-56291323D01*
X57015977Y-56291323D02*
X56777882Y-56410371D01*
X56777882Y-56410371D02*
X55825501Y-56410371D01*
X58206453Y-56886561D02*
X59396929Y-56886561D01*
X57968358Y-57600847D02*
X58801691Y-55100847D01*
X58801691Y-55100847D02*
X59635024Y-57600847D01*
X61658834Y-57600847D02*
X60468358Y-57600847D01*
X60468358Y-57600847D02*
X60468358Y-55100847D01*
X64396930Y-57600847D02*
X64396930Y-55100847D01*
X64396930Y-55100847D02*
X65349311Y-55100847D01*
X65349311Y-55100847D02*
X65587406Y-55219895D01*
X65587406Y-55219895D02*
X65706453Y-55338942D01*
X65706453Y-55338942D02*
X65825501Y-55577038D01*
X65825501Y-55577038D02*
X65825501Y-55934180D01*
X65825501Y-55934180D02*
X65706453Y-56172276D01*
X65706453Y-56172276D02*
X65587406Y-56291323D01*
X65587406Y-56291323D02*
X65349311Y-56410371D01*
X65349311Y-56410371D02*
X64396930Y-56410371D01*
X67254072Y-57600847D02*
X67015977Y-57481800D01*
X67015977Y-57481800D02*
X66896930Y-57362752D01*
X66896930Y-57362752D02*
X66777882Y-57124657D01*
X66777882Y-57124657D02*
X66777882Y-56410371D01*
X66777882Y-56410371D02*
X66896930Y-56172276D01*
X66896930Y-56172276D02*
X67015977Y-56053228D01*
X67015977Y-56053228D02*
X67254072Y-55934180D01*
X67254072Y-55934180D02*
X67611215Y-55934180D01*
X67611215Y-55934180D02*
X67849311Y-56053228D01*
X67849311Y-56053228D02*
X67968358Y-56172276D01*
X67968358Y-56172276D02*
X68087406Y-56410371D01*
X68087406Y-56410371D02*
X68087406Y-57124657D01*
X68087406Y-57124657D02*
X67968358Y-57362752D01*
X67968358Y-57362752D02*
X67849311Y-57481800D01*
X67849311Y-57481800D02*
X67611215Y-57600847D01*
X67611215Y-57600847D02*
X67254072Y-57600847D01*
X70230263Y-57600847D02*
X70230263Y-55100847D01*
X70230263Y-57481800D02*
X69992168Y-57600847D01*
X69992168Y-57600847D02*
X69515977Y-57600847D01*
X69515977Y-57600847D02*
X69277882Y-57481800D01*
X69277882Y-57481800D02*
X69158835Y-57362752D01*
X69158835Y-57362752D02*
X69039787Y-57124657D01*
X69039787Y-57124657D02*
X69039787Y-56410371D01*
X69039787Y-56410371D02*
X69158835Y-56172276D01*
X69158835Y-56172276D02*
X69277882Y-56053228D01*
X69277882Y-56053228D02*
X69515977Y-55934180D01*
X69515977Y-55934180D02*
X69992168Y-55934180D01*
X69992168Y-55934180D02*
X70230263Y-56053228D01*
X73325502Y-57600847D02*
X73325502Y-55100847D01*
X73325502Y-56291323D02*
X74754073Y-56291323D01*
X74754073Y-57600847D02*
X74754073Y-55100847D01*
X77015978Y-57600847D02*
X77015978Y-56291323D01*
X77015978Y-56291323D02*
X76896931Y-56053228D01*
X76896931Y-56053228D02*
X76658835Y-55934180D01*
X76658835Y-55934180D02*
X76182645Y-55934180D01*
X76182645Y-55934180D02*
X75944550Y-56053228D01*
X77015978Y-57481800D02*
X76777883Y-57600847D01*
X76777883Y-57600847D02*
X76182645Y-57600847D01*
X76182645Y-57600847D02*
X75944550Y-57481800D01*
X75944550Y-57481800D02*
X75825502Y-57243704D01*
X75825502Y-57243704D02*
X75825502Y-57005609D01*
X75825502Y-57005609D02*
X75944550Y-56767514D01*
X75944550Y-56767514D02*
X76182645Y-56648466D01*
X76182645Y-56648466D02*
X76777883Y-56648466D01*
X76777883Y-56648466D02*
X77015978Y-56529419D01*
X78563597Y-57600847D02*
X78325502Y-57481800D01*
X78325502Y-57481800D02*
X78206455Y-57243704D01*
X78206455Y-57243704D02*
X78206455Y-55100847D01*
X79515979Y-57600847D02*
X79515979Y-55100847D01*
X79515979Y-56053228D02*
X79754074Y-55934180D01*
X79754074Y-55934180D02*
X80230264Y-55934180D01*
X80230264Y-55934180D02*
X80468360Y-56053228D01*
X80468360Y-56053228D02*
X80587407Y-56172276D01*
X80587407Y-56172276D02*
X80706455Y-56410371D01*
X80706455Y-56410371D02*
X80706455Y-57124657D01*
X80706455Y-57124657D02*
X80587407Y-57362752D01*
X80587407Y-57362752D02*
X80468360Y-57481800D01*
X80468360Y-57481800D02*
X80230264Y-57600847D01*
X80230264Y-57600847D02*
X79754074Y-57600847D01*
X79754074Y-57600847D02*
X79515979Y-57481800D01*
X82849312Y-57600847D02*
X82849312Y-56291323D01*
X82849312Y-56291323D02*
X82730265Y-56053228D01*
X82730265Y-56053228D02*
X82492169Y-55934180D01*
X82492169Y-55934180D02*
X82015979Y-55934180D01*
X82015979Y-55934180D02*
X81777884Y-56053228D01*
X82849312Y-57481800D02*
X82611217Y-57600847D01*
X82611217Y-57600847D02*
X82015979Y-57600847D01*
X82015979Y-57600847D02*
X81777884Y-57481800D01*
X81777884Y-57481800D02*
X81658836Y-57243704D01*
X81658836Y-57243704D02*
X81658836Y-57005609D01*
X81658836Y-57005609D02*
X81777884Y-56767514D01*
X81777884Y-56767514D02*
X82015979Y-56648466D01*
X82015979Y-56648466D02*
X82611217Y-56648466D01*
X82611217Y-56648466D02*
X82849312Y-56529419D01*
X85111217Y-57481800D02*
X84873122Y-57600847D01*
X84873122Y-57600847D02*
X84396931Y-57600847D01*
X84396931Y-57600847D02*
X84158836Y-57481800D01*
X84158836Y-57481800D02*
X84039789Y-57362752D01*
X84039789Y-57362752D02*
X83920741Y-57124657D01*
X83920741Y-57124657D02*
X83920741Y-56410371D01*
X83920741Y-56410371D02*
X84039789Y-56172276D01*
X84039789Y-56172276D02*
X84158836Y-56053228D01*
X84158836Y-56053228D02*
X84396931Y-55934180D01*
X84396931Y-55934180D02*
X84873122Y-55934180D01*
X84873122Y-55934180D02*
X85111217Y-56053228D01*
X86182646Y-57600847D02*
X86182646Y-55100847D01*
X87254074Y-57600847D02*
X87254074Y-56291323D01*
X87254074Y-56291323D02*
X87135027Y-56053228D01*
X87135027Y-56053228D02*
X86896931Y-55934180D01*
X86896931Y-55934180D02*
X86539788Y-55934180D01*
X86539788Y-55934180D02*
X86301693Y-56053228D01*
X86301693Y-56053228D02*
X86182646Y-56172276D01*
X91539789Y-57600847D02*
X90349313Y-57600847D01*
X90349313Y-57600847D02*
X90349313Y-55100847D01*
X93325504Y-57481800D02*
X93087408Y-57600847D01*
X93087408Y-57600847D02*
X92611218Y-57600847D01*
X92611218Y-57600847D02*
X92373123Y-57481800D01*
X92373123Y-57481800D02*
X92254075Y-57243704D01*
X92254075Y-57243704D02*
X92254075Y-56291323D01*
X92254075Y-56291323D02*
X92373123Y-56053228D01*
X92373123Y-56053228D02*
X92611218Y-55934180D01*
X92611218Y-55934180D02*
X93087408Y-55934180D01*
X93087408Y-55934180D02*
X93325504Y-56053228D01*
X93325504Y-56053228D02*
X93444551Y-56291323D01*
X93444551Y-56291323D02*
X93444551Y-56529419D01*
X93444551Y-56529419D02*
X92254075Y-56767514D01*
X94277884Y-55934180D02*
X94873122Y-57600847D01*
X94873122Y-57600847D02*
X95468361Y-55934180D01*
X96420742Y-57600847D02*
X96420742Y-55934180D01*
X96420742Y-55100847D02*
X96301694Y-55219895D01*
X96301694Y-55219895D02*
X96420742Y-55338942D01*
X96420742Y-55338942D02*
X96539789Y-55219895D01*
X96539789Y-55219895D02*
X96420742Y-55100847D01*
X96420742Y-55100847D02*
X96420742Y-55338942D01*
X97254075Y-55934180D02*
X98206456Y-55934180D01*
X97611218Y-55100847D02*
X97611218Y-57243704D01*
X97611218Y-57243704D02*
X97730265Y-57481800D01*
X97730265Y-57481800D02*
X97968360Y-57600847D01*
X97968360Y-57600847D02*
X98206456Y-57600847D01*
X100111217Y-57600847D02*
X100111217Y-56291323D01*
X100111217Y-56291323D02*
X99992170Y-56053228D01*
X99992170Y-56053228D02*
X99754074Y-55934180D01*
X99754074Y-55934180D02*
X99277884Y-55934180D01*
X99277884Y-55934180D02*
X99039789Y-56053228D01*
X100111217Y-57481800D02*
X99873122Y-57600847D01*
X99873122Y-57600847D02*
X99277884Y-57600847D01*
X99277884Y-57600847D02*
X99039789Y-57481800D01*
X99039789Y-57481800D02*
X98920741Y-57243704D01*
X98920741Y-57243704D02*
X98920741Y-57005609D01*
X98920741Y-57005609D02*
X99039789Y-56767514D01*
X99039789Y-56767514D02*
X99277884Y-56648466D01*
X99277884Y-56648466D02*
X99873122Y-56648466D01*
X99873122Y-56648466D02*
X100111217Y-56529419D01*
X100944551Y-55934180D02*
X101896932Y-55934180D01*
X101301694Y-55100847D02*
X101301694Y-57243704D01*
X101301694Y-57243704D02*
X101420741Y-57481800D01*
X101420741Y-57481800D02*
X101658836Y-57600847D01*
X101658836Y-57600847D02*
X101896932Y-57600847D01*
X102730265Y-57600847D02*
X102730265Y-55934180D01*
X102730265Y-55100847D02*
X102611217Y-55219895D01*
X102611217Y-55219895D02*
X102730265Y-55338942D01*
X102730265Y-55338942D02*
X102849312Y-55219895D01*
X102849312Y-55219895D02*
X102730265Y-55100847D01*
X102730265Y-55100847D02*
X102730265Y-55338942D01*
X104277883Y-57600847D02*
X104039788Y-57481800D01*
X104039788Y-57481800D02*
X103920741Y-57362752D01*
X103920741Y-57362752D02*
X103801693Y-57124657D01*
X103801693Y-57124657D02*
X103801693Y-56410371D01*
X103801693Y-56410371D02*
X103920741Y-56172276D01*
X103920741Y-56172276D02*
X104039788Y-56053228D01*
X104039788Y-56053228D02*
X104277883Y-55934180D01*
X104277883Y-55934180D02*
X104635026Y-55934180D01*
X104635026Y-55934180D02*
X104873122Y-56053228D01*
X104873122Y-56053228D02*
X104992169Y-56172276D01*
X104992169Y-56172276D02*
X105111217Y-56410371D01*
X105111217Y-56410371D02*
X105111217Y-57124657D01*
X105111217Y-57124657D02*
X104992169Y-57362752D01*
X104992169Y-57362752D02*
X104873122Y-57481800D01*
X104873122Y-57481800D02*
X104635026Y-57600847D01*
X104635026Y-57600847D02*
X104277883Y-57600847D01*
X106182646Y-55934180D02*
X106182646Y-57600847D01*
X106182646Y-56172276D02*
X106301693Y-56053228D01*
X106301693Y-56053228D02*
X106539788Y-55934180D01*
X106539788Y-55934180D02*
X106896931Y-55934180D01*
X106896931Y-55934180D02*
X107135027Y-56053228D01*
X107135027Y-56053228D02*
X107254074Y-56291323D01*
X107254074Y-56291323D02*
X107254074Y-57600847D01*
X111777884Y-57362752D02*
X111658836Y-57481800D01*
X111658836Y-57481800D02*
X111301694Y-57600847D01*
X111301694Y-57600847D02*
X111063598Y-57600847D01*
X111063598Y-57600847D02*
X110706455Y-57481800D01*
X110706455Y-57481800D02*
X110468360Y-57243704D01*
X110468360Y-57243704D02*
X110349313Y-57005609D01*
X110349313Y-57005609D02*
X110230265Y-56529419D01*
X110230265Y-56529419D02*
X110230265Y-56172276D01*
X110230265Y-56172276D02*
X110349313Y-55696085D01*
X110349313Y-55696085D02*
X110468360Y-55457990D01*
X110468360Y-55457990D02*
X110706455Y-55219895D01*
X110706455Y-55219895D02*
X111063598Y-55100847D01*
X111063598Y-55100847D02*
X111301694Y-55100847D01*
X111301694Y-55100847D02*
X111658836Y-55219895D01*
X111658836Y-55219895D02*
X111777884Y-55338942D01*
X113206455Y-57600847D02*
X112968360Y-57481800D01*
X112968360Y-57481800D02*
X112849313Y-57362752D01*
X112849313Y-57362752D02*
X112730265Y-57124657D01*
X112730265Y-57124657D02*
X112730265Y-56410371D01*
X112730265Y-56410371D02*
X112849313Y-56172276D01*
X112849313Y-56172276D02*
X112968360Y-56053228D01*
X112968360Y-56053228D02*
X113206455Y-55934180D01*
X113206455Y-55934180D02*
X113563598Y-55934180D01*
X113563598Y-55934180D02*
X113801694Y-56053228D01*
X113801694Y-56053228D02*
X113920741Y-56172276D01*
X113920741Y-56172276D02*
X114039789Y-56410371D01*
X114039789Y-56410371D02*
X114039789Y-57124657D01*
X114039789Y-57124657D02*
X113920741Y-57362752D01*
X113920741Y-57362752D02*
X113801694Y-57481800D01*
X113801694Y-57481800D02*
X113563598Y-57600847D01*
X113563598Y-57600847D02*
X113206455Y-57600847D01*
X115111218Y-55934180D02*
X115111218Y-57600847D01*
X115111218Y-56172276D02*
X115230265Y-56053228D01*
X115230265Y-56053228D02*
X115468360Y-55934180D01*
X115468360Y-55934180D02*
X115825503Y-55934180D01*
X115825503Y-55934180D02*
X116063599Y-56053228D01*
X116063599Y-56053228D02*
X116182646Y-56291323D01*
X116182646Y-56291323D02*
X116182646Y-57600847D01*
X117015980Y-55934180D02*
X117968361Y-55934180D01*
X117373123Y-55100847D02*
X117373123Y-57243704D01*
X117373123Y-57243704D02*
X117492170Y-57481800D01*
X117492170Y-57481800D02*
X117730265Y-57600847D01*
X117730265Y-57600847D02*
X117968361Y-57600847D01*
X118801694Y-57600847D02*
X118801694Y-55934180D01*
X118801694Y-56410371D02*
X118920741Y-56172276D01*
X118920741Y-56172276D02*
X119039789Y-56053228D01*
X119039789Y-56053228D02*
X119277884Y-55934180D01*
X119277884Y-55934180D02*
X119515979Y-55934180D01*
X120706455Y-57600847D02*
X120468360Y-57481800D01*
X120468360Y-57481800D02*
X120349313Y-57362752D01*
X120349313Y-57362752D02*
X120230265Y-57124657D01*
X120230265Y-57124657D02*
X120230265Y-56410371D01*
X120230265Y-56410371D02*
X120349313Y-56172276D01*
X120349313Y-56172276D02*
X120468360Y-56053228D01*
X120468360Y-56053228D02*
X120706455Y-55934180D01*
X120706455Y-55934180D02*
X121063598Y-55934180D01*
X121063598Y-55934180D02*
X121301694Y-56053228D01*
X121301694Y-56053228D02*
X121420741Y-56172276D01*
X121420741Y-56172276D02*
X121539789Y-56410371D01*
X121539789Y-56410371D02*
X121539789Y-57124657D01*
X121539789Y-57124657D02*
X121420741Y-57362752D01*
X121420741Y-57362752D02*
X121301694Y-57481800D01*
X121301694Y-57481800D02*
X121063598Y-57600847D01*
X121063598Y-57600847D02*
X120706455Y-57600847D01*
X122968360Y-57600847D02*
X122730265Y-57481800D01*
X122730265Y-57481800D02*
X122611218Y-57243704D01*
X122611218Y-57243704D02*
X122611218Y-55100847D01*
X124277884Y-57600847D02*
X124039789Y-57481800D01*
X124039789Y-57481800D02*
X123920742Y-57243704D01*
X123920742Y-57243704D02*
X123920742Y-55100847D01*
X126182647Y-57481800D02*
X125944551Y-57600847D01*
X125944551Y-57600847D02*
X125468361Y-57600847D01*
X125468361Y-57600847D02*
X125230266Y-57481800D01*
X125230266Y-57481800D02*
X125111218Y-57243704D01*
X125111218Y-57243704D02*
X125111218Y-56291323D01*
X125111218Y-56291323D02*
X125230266Y-56053228D01*
X125230266Y-56053228D02*
X125468361Y-55934180D01*
X125468361Y-55934180D02*
X125944551Y-55934180D01*
X125944551Y-55934180D02*
X126182647Y-56053228D01*
X126182647Y-56053228D02*
X126301694Y-56291323D01*
X126301694Y-56291323D02*
X126301694Y-56529419D01*
X126301694Y-56529419D02*
X125111218Y-56767514D01*
X127373123Y-57600847D02*
X127373123Y-55934180D01*
X127373123Y-56410371D02*
X127492170Y-56172276D01*
X127492170Y-56172276D02*
X127611218Y-56053228D01*
X127611218Y-56053228D02*
X127849313Y-55934180D01*
X127849313Y-55934180D02*
X128087408Y-55934180D01*
X130825504Y-56648466D02*
X132730266Y-56648466D01*
X137254075Y-57600847D02*
X136420742Y-56410371D01*
X135825504Y-57600847D02*
X135825504Y-55100847D01*
X135825504Y-55100847D02*
X136777885Y-55100847D01*
X136777885Y-55100847D02*
X137015980Y-55219895D01*
X137015980Y-55219895D02*
X137135027Y-55338942D01*
X137135027Y-55338942D02*
X137254075Y-55577038D01*
X137254075Y-55577038D02*
X137254075Y-55934180D01*
X137254075Y-55934180D02*
X137135027Y-56172276D01*
X137135027Y-56172276D02*
X137015980Y-56291323D01*
X137015980Y-56291323D02*
X136777885Y-56410371D01*
X136777885Y-56410371D02*
X135825504Y-56410371D01*
X139277885Y-57481800D02*
X139039789Y-57600847D01*
X139039789Y-57600847D02*
X138563599Y-57600847D01*
X138563599Y-57600847D02*
X138325504Y-57481800D01*
X138325504Y-57481800D02*
X138206456Y-57243704D01*
X138206456Y-57243704D02*
X138206456Y-56291323D01*
X138206456Y-56291323D02*
X138325504Y-56053228D01*
X138325504Y-56053228D02*
X138563599Y-55934180D01*
X138563599Y-55934180D02*
X139039789Y-55934180D01*
X139039789Y-55934180D02*
X139277885Y-56053228D01*
X139277885Y-56053228D02*
X139396932Y-56291323D01*
X139396932Y-56291323D02*
X139396932Y-56529419D01*
X139396932Y-56529419D02*
X138206456Y-56767514D01*
X140230265Y-55934180D02*
X140825503Y-57600847D01*
X140825503Y-57600847D02*
X141420742Y-55934180D01*
X144158837Y-56886561D02*
X145349313Y-56886561D01*
X143920742Y-57600847D02*
X144754075Y-55100847D01*
X144754075Y-55100847D02*
X145587408Y-57600847D01*
X146896932Y-55100847D02*
X147135027Y-55100847D01*
X147135027Y-55100847D02*
X147373123Y-55219895D01*
X147373123Y-55219895D02*
X147492170Y-55338942D01*
X147492170Y-55338942D02*
X147611218Y-55577038D01*
X147611218Y-55577038D02*
X147730265Y-56053228D01*
X147730265Y-56053228D02*
X147730265Y-56648466D01*
X147730265Y-56648466D02*
X147611218Y-57124657D01*
X147611218Y-57124657D02*
X147492170Y-57362752D01*
X147492170Y-57362752D02*
X147373123Y-57481800D01*
X147373123Y-57481800D02*
X147135027Y-57600847D01*
X147135027Y-57600847D02*
X146896932Y-57600847D01*
X146896932Y-57600847D02*
X146658837Y-57481800D01*
X146658837Y-57481800D02*
X146539789Y-57362752D01*
X146539789Y-57362752D02*
X146420742Y-57124657D01*
X146420742Y-57124657D02*
X146301694Y-56648466D01*
X146301694Y-56648466D02*
X146301694Y-56053228D01*
X146301694Y-56053228D02*
X146420742Y-55577038D01*
X146420742Y-55577038D02*
X146539789Y-55338942D01*
X146539789Y-55338942D02*
X146658837Y-55219895D01*
X146658837Y-55219895D02*
X146896932Y-55100847D01*
X150706456Y-56648466D02*
X152611218Y-56648466D01*
X155706456Y-57600847D02*
X155706456Y-55100847D01*
X155706456Y-55100847D02*
X156658837Y-55100847D01*
X156658837Y-55100847D02*
X156896932Y-55219895D01*
X156896932Y-55219895D02*
X157015979Y-55338942D01*
X157015979Y-55338942D02*
X157135027Y-55577038D01*
X157135027Y-55577038D02*
X157135027Y-55934180D01*
X157135027Y-55934180D02*
X157015979Y-56172276D01*
X157015979Y-56172276D02*
X156896932Y-56291323D01*
X156896932Y-56291323D02*
X156658837Y-56410371D01*
X156658837Y-56410371D02*
X155706456Y-56410371D01*
X159396932Y-57600847D02*
X158206456Y-57600847D01*
X158206456Y-57600847D02*
X158206456Y-55100847D01*
X160111218Y-56886561D02*
X161301694Y-56886561D01*
X159873123Y-57600847D02*
X160706456Y-55100847D01*
X160706456Y-55100847D02*
X161539789Y-57600847D01*
X163801694Y-57362752D02*
X163682646Y-57481800D01*
X163682646Y-57481800D02*
X163325504Y-57600847D01*
X163325504Y-57600847D02*
X163087408Y-57600847D01*
X163087408Y-57600847D02*
X162730265Y-57481800D01*
X162730265Y-57481800D02*
X162492170Y-57243704D01*
X162492170Y-57243704D02*
X162373123Y-57005609D01*
X162373123Y-57005609D02*
X162254075Y-56529419D01*
X162254075Y-56529419D02*
X162254075Y-56172276D01*
X162254075Y-56172276D02*
X162373123Y-55696085D01*
X162373123Y-55696085D02*
X162492170Y-55457990D01*
X162492170Y-55457990D02*
X162730265Y-55219895D01*
X162730265Y-55219895D02*
X163087408Y-55100847D01*
X163087408Y-55100847D02*
X163325504Y-55100847D01*
X163325504Y-55100847D02*
X163682646Y-55219895D01*
X163682646Y-55219895D02*
X163801694Y-55338942D01*
X164873123Y-56291323D02*
X165706456Y-56291323D01*
X166063599Y-57600847D02*
X164873123Y-57600847D01*
X164873123Y-57600847D02*
X164873123Y-55100847D01*
X164873123Y-55100847D02*
X166063599Y-55100847D01*
X167135028Y-57600847D02*
X167135028Y-55100847D01*
X167135028Y-56291323D02*
X168563599Y-56291323D01*
X168563599Y-57600847D02*
X168563599Y-55100847D01*
X170230266Y-55100847D02*
X170706457Y-55100847D01*
X170706457Y-55100847D02*
X170944552Y-55219895D01*
X170944552Y-55219895D02*
X171182647Y-55457990D01*
X171182647Y-55457990D02*
X171301695Y-55934180D01*
X171301695Y-55934180D02*
X171301695Y-56767514D01*
X171301695Y-56767514D02*
X171182647Y-57243704D01*
X171182647Y-57243704D02*
X170944552Y-57481800D01*
X170944552Y-57481800D02*
X170706457Y-57600847D01*
X170706457Y-57600847D02*
X170230266Y-57600847D01*
X170230266Y-57600847D02*
X169992171Y-57481800D01*
X169992171Y-57481800D02*
X169754076Y-57243704D01*
X169754076Y-57243704D02*
X169635028Y-56767514D01*
X169635028Y-56767514D02*
X169635028Y-55934180D01*
X169635028Y-55934180D02*
X169754076Y-55457990D01*
X169754076Y-55457990D02*
X169992171Y-55219895D01*
X169992171Y-55219895D02*
X170230266Y-55100847D01*
X173563600Y-57600847D02*
X172373124Y-57600847D01*
X172373124Y-57600847D02*
X172373124Y-55100847D01*
X174396934Y-57600847D02*
X174396934Y-55100847D01*
X174396934Y-55100847D02*
X174992172Y-55100847D01*
X174992172Y-55100847D02*
X175349315Y-55219895D01*
X175349315Y-55219895D02*
X175587410Y-55457990D01*
X175587410Y-55457990D02*
X175706457Y-55696085D01*
X175706457Y-55696085D02*
X175825505Y-56172276D01*
X175825505Y-56172276D02*
X175825505Y-56529419D01*
X175825505Y-56529419D02*
X175706457Y-57005609D01*
X175706457Y-57005609D02*
X175587410Y-57243704D01*
X175587410Y-57243704D02*
X175349315Y-57481800D01*
X175349315Y-57481800D02*
X174992172Y-57600847D01*
X174992172Y-57600847D02*
X174396934Y-57600847D01*
X176896934Y-56291323D02*
X177730267Y-56291323D01*
X178087410Y-57600847D02*
X176896934Y-57600847D01*
X176896934Y-57600847D02*
X176896934Y-55100847D01*
X176896934Y-55100847D02*
X178087410Y-55100847D01*
X180587410Y-57600847D02*
X179754077Y-56410371D01*
X179158839Y-57600847D02*
X179158839Y-55100847D01*
X179158839Y-55100847D02*
X180111220Y-55100847D01*
X180111220Y-55100847D02*
X180349315Y-55219895D01*
X180349315Y-55219895D02*
X180468362Y-55338942D01*
X180468362Y-55338942D02*
X180587410Y-55577038D01*
X180587410Y-55577038D02*
X180587410Y-55934180D01*
X180587410Y-55934180D02*
X180468362Y-56172276D01*
X180468362Y-56172276D02*
X180349315Y-56291323D01*
X180349315Y-56291323D02*
X180111220Y-56410371D01*
X180111220Y-56410371D02*
X179158839Y-56410371D01*
X183563601Y-57600847D02*
X183563601Y-55100847D01*
X183563601Y-55100847D02*
X184515982Y-55100847D01*
X184515982Y-55100847D02*
X184754077Y-55219895D01*
X184754077Y-55219895D02*
X184873124Y-55338942D01*
X184873124Y-55338942D02*
X184992172Y-55577038D01*
X184992172Y-55577038D02*
X184992172Y-55934180D01*
X184992172Y-55934180D02*
X184873124Y-56172276D01*
X184873124Y-56172276D02*
X184754077Y-56291323D01*
X184754077Y-56291323D02*
X184515982Y-56410371D01*
X184515982Y-56410371D02*
X183563601Y-56410371D01*
X187492172Y-57362752D02*
X187373124Y-57481800D01*
X187373124Y-57481800D02*
X187015982Y-57600847D01*
X187015982Y-57600847D02*
X186777886Y-57600847D01*
X186777886Y-57600847D02*
X186420743Y-57481800D01*
X186420743Y-57481800D02*
X186182648Y-57243704D01*
X186182648Y-57243704D02*
X186063601Y-57005609D01*
X186063601Y-57005609D02*
X185944553Y-56529419D01*
X185944553Y-56529419D02*
X185944553Y-56172276D01*
X185944553Y-56172276D02*
X186063601Y-55696085D01*
X186063601Y-55696085D02*
X186182648Y-55457990D01*
X186182648Y-55457990D02*
X186420743Y-55219895D01*
X186420743Y-55219895D02*
X186777886Y-55100847D01*
X186777886Y-55100847D02*
X187015982Y-55100847D01*
X187015982Y-55100847D02*
X187373124Y-55219895D01*
X187373124Y-55219895D02*
X187492172Y-55338942D01*
X189396934Y-56291323D02*
X189754077Y-56410371D01*
X189754077Y-56410371D02*
X189873124Y-56529419D01*
X189873124Y-56529419D02*
X189992172Y-56767514D01*
X189992172Y-56767514D02*
X189992172Y-57124657D01*
X189992172Y-57124657D02*
X189873124Y-57362752D01*
X189873124Y-57362752D02*
X189754077Y-57481800D01*
X189754077Y-57481800D02*
X189515982Y-57600847D01*
X189515982Y-57600847D02*
X188563601Y-57600847D01*
X188563601Y-57600847D02*
X188563601Y-55100847D01*
X188563601Y-55100847D02*
X189396934Y-55100847D01*
X189396934Y-55100847D02*
X189635029Y-55219895D01*
X189635029Y-55219895D02*
X189754077Y-55338942D01*
X189754077Y-55338942D02*
X189873124Y-55577038D01*
X189873124Y-55577038D02*
X189873124Y-55815133D01*
X189873124Y-55815133D02*
X189754077Y-56053228D01*
X189754077Y-56053228D02*
X189635029Y-56172276D01*
X189635029Y-56172276D02*
X189396934Y-56291323D01*
X189396934Y-56291323D02*
X188563601Y-56291323D01*
D11*
X55450187Y-61487000D02*
X55664473Y-61558428D01*
X55664473Y-61558428D02*
X56021615Y-61558428D01*
X56021615Y-61558428D02*
X56164473Y-61487000D01*
X56164473Y-61487000D02*
X56235901Y-61415571D01*
X56235901Y-61415571D02*
X56307330Y-61272714D01*
X56307330Y-61272714D02*
X56307330Y-61129857D01*
X56307330Y-61129857D02*
X56235901Y-60987000D01*
X56235901Y-60987000D02*
X56164473Y-60915571D01*
X56164473Y-60915571D02*
X56021615Y-60844142D01*
X56021615Y-60844142D02*
X55735901Y-60772714D01*
X55735901Y-60772714D02*
X55593044Y-60701285D01*
X55593044Y-60701285D02*
X55521615Y-60629857D01*
X55521615Y-60629857D02*
X55450187Y-60487000D01*
X55450187Y-60487000D02*
X55450187Y-60344142D01*
X55450187Y-60344142D02*
X55521615Y-60201285D01*
X55521615Y-60201285D02*
X55593044Y-60129857D01*
X55593044Y-60129857D02*
X55735901Y-60058428D01*
X55735901Y-60058428D02*
X56093044Y-60058428D01*
X56093044Y-60058428D02*
X56307330Y-60129857D01*
X56878758Y-61129857D02*
X57593044Y-61129857D01*
X56735901Y-61558428D02*
X57235901Y-60058428D01*
X57235901Y-60058428D02*
X57735901Y-61558428D01*
X58735900Y-60772714D02*
X58235900Y-60772714D01*
X58235900Y-61558428D02*
X58235900Y-60058428D01*
X58235900Y-60058428D02*
X58950186Y-60058428D01*
X59521614Y-60772714D02*
X60021614Y-60772714D01*
X60235900Y-61558428D02*
X59521614Y-61558428D01*
X59521614Y-61558428D02*
X59521614Y-60058428D01*
X59521614Y-60058428D02*
X60235900Y-60058428D01*
X60664472Y-60058428D02*
X61521615Y-60058428D01*
X61093043Y-61558428D02*
X61093043Y-60058428D01*
X62307329Y-60844142D02*
X62307329Y-61558428D01*
X61807329Y-60058428D02*
X62307329Y-60844142D01*
X62307329Y-60844142D02*
X62807329Y-60058428D01*
X63307328Y-60987000D02*
X64450186Y-60987000D01*
X66021614Y-61415571D02*
X65950186Y-61487000D01*
X65950186Y-61487000D02*
X65735900Y-61558428D01*
X65735900Y-61558428D02*
X65593043Y-61558428D01*
X65593043Y-61558428D02*
X65378757Y-61487000D01*
X65378757Y-61487000D02*
X65235900Y-61344142D01*
X65235900Y-61344142D02*
X65164471Y-61201285D01*
X65164471Y-61201285D02*
X65093043Y-60915571D01*
X65093043Y-60915571D02*
X65093043Y-60701285D01*
X65093043Y-60701285D02*
X65164471Y-60415571D01*
X65164471Y-60415571D02*
X65235900Y-60272714D01*
X65235900Y-60272714D02*
X65378757Y-60129857D01*
X65378757Y-60129857D02*
X65593043Y-60058428D01*
X65593043Y-60058428D02*
X65735900Y-60058428D01*
X65735900Y-60058428D02*
X65950186Y-60129857D01*
X65950186Y-60129857D02*
X66021614Y-60201285D01*
X67521614Y-61558428D02*
X67021614Y-60844142D01*
X66664471Y-61558428D02*
X66664471Y-60058428D01*
X66664471Y-60058428D02*
X67235900Y-60058428D01*
X67235900Y-60058428D02*
X67378757Y-60129857D01*
X67378757Y-60129857D02*
X67450186Y-60201285D01*
X67450186Y-60201285D02*
X67521614Y-60344142D01*
X67521614Y-60344142D02*
X67521614Y-60558428D01*
X67521614Y-60558428D02*
X67450186Y-60701285D01*
X67450186Y-60701285D02*
X67378757Y-60772714D01*
X67378757Y-60772714D02*
X67235900Y-60844142D01*
X67235900Y-60844142D02*
X66664471Y-60844142D01*
X68164471Y-61558428D02*
X68164471Y-60058428D01*
X68664472Y-60058428D02*
X69521615Y-60058428D01*
X69093043Y-61558428D02*
X69093043Y-60058428D01*
X70021614Y-61558428D02*
X70021614Y-60058428D01*
X71593043Y-61415571D02*
X71521615Y-61487000D01*
X71521615Y-61487000D02*
X71307329Y-61558428D01*
X71307329Y-61558428D02*
X71164472Y-61558428D01*
X71164472Y-61558428D02*
X70950186Y-61487000D01*
X70950186Y-61487000D02*
X70807329Y-61344142D01*
X70807329Y-61344142D02*
X70735900Y-61201285D01*
X70735900Y-61201285D02*
X70664472Y-60915571D01*
X70664472Y-60915571D02*
X70664472Y-60701285D01*
X70664472Y-60701285D02*
X70735900Y-60415571D01*
X70735900Y-60415571D02*
X70807329Y-60272714D01*
X70807329Y-60272714D02*
X70950186Y-60129857D01*
X70950186Y-60129857D02*
X71164472Y-60058428D01*
X71164472Y-60058428D02*
X71307329Y-60058428D01*
X71307329Y-60058428D02*
X71521615Y-60129857D01*
X71521615Y-60129857D02*
X71593043Y-60201285D01*
X72164472Y-61129857D02*
X72878758Y-61129857D01*
X72021615Y-61558428D02*
X72521615Y-60058428D01*
X72521615Y-60058428D02*
X73021615Y-61558428D01*
X74235900Y-61558428D02*
X73521614Y-61558428D01*
X73521614Y-61558428D02*
X73521614Y-60058428D01*
X76378757Y-60772714D02*
X76593043Y-60844142D01*
X76593043Y-60844142D02*
X76664472Y-60915571D01*
X76664472Y-60915571D02*
X76735900Y-61058428D01*
X76735900Y-61058428D02*
X76735900Y-61272714D01*
X76735900Y-61272714D02*
X76664472Y-61415571D01*
X76664472Y-61415571D02*
X76593043Y-61487000D01*
X76593043Y-61487000D02*
X76450186Y-61558428D01*
X76450186Y-61558428D02*
X75878757Y-61558428D01*
X75878757Y-61558428D02*
X75878757Y-60058428D01*
X75878757Y-60058428D02*
X76378757Y-60058428D01*
X76378757Y-60058428D02*
X76521615Y-60129857D01*
X76521615Y-60129857D02*
X76593043Y-60201285D01*
X76593043Y-60201285D02*
X76664472Y-60344142D01*
X76664472Y-60344142D02*
X76664472Y-60487000D01*
X76664472Y-60487000D02*
X76593043Y-60629857D01*
X76593043Y-60629857D02*
X76521615Y-60701285D01*
X76521615Y-60701285D02*
X76378757Y-60772714D01*
X76378757Y-60772714D02*
X75878757Y-60772714D01*
X77664472Y-60058428D02*
X77950186Y-60058428D01*
X77950186Y-60058428D02*
X78093043Y-60129857D01*
X78093043Y-60129857D02*
X78235900Y-60272714D01*
X78235900Y-60272714D02*
X78307329Y-60558428D01*
X78307329Y-60558428D02*
X78307329Y-61058428D01*
X78307329Y-61058428D02*
X78235900Y-61344142D01*
X78235900Y-61344142D02*
X78093043Y-61487000D01*
X78093043Y-61487000D02*
X77950186Y-61558428D01*
X77950186Y-61558428D02*
X77664472Y-61558428D01*
X77664472Y-61558428D02*
X77521615Y-61487000D01*
X77521615Y-61487000D02*
X77378757Y-61344142D01*
X77378757Y-61344142D02*
X77307329Y-61058428D01*
X77307329Y-61058428D02*
X77307329Y-60558428D01*
X77307329Y-60558428D02*
X77378757Y-60272714D01*
X77378757Y-60272714D02*
X77521615Y-60129857D01*
X77521615Y-60129857D02*
X77664472Y-60058428D01*
X78878758Y-61129857D02*
X79593044Y-61129857D01*
X78735901Y-61558428D02*
X79235901Y-60058428D01*
X79235901Y-60058428D02*
X79735901Y-61558428D01*
X81093043Y-61558428D02*
X80593043Y-60844142D01*
X80235900Y-61558428D02*
X80235900Y-60058428D01*
X80235900Y-60058428D02*
X80807329Y-60058428D01*
X80807329Y-60058428D02*
X80950186Y-60129857D01*
X80950186Y-60129857D02*
X81021615Y-60201285D01*
X81021615Y-60201285D02*
X81093043Y-60344142D01*
X81093043Y-60344142D02*
X81093043Y-60558428D01*
X81093043Y-60558428D02*
X81021615Y-60701285D01*
X81021615Y-60701285D02*
X80950186Y-60772714D01*
X80950186Y-60772714D02*
X80807329Y-60844142D01*
X80807329Y-60844142D02*
X80235900Y-60844142D01*
X81735900Y-61558428D02*
X81735900Y-60058428D01*
X81735900Y-60058428D02*
X82093043Y-60058428D01*
X82093043Y-60058428D02*
X82307329Y-60129857D01*
X82307329Y-60129857D02*
X82450186Y-60272714D01*
X82450186Y-60272714D02*
X82521615Y-60415571D01*
X82521615Y-60415571D02*
X82593043Y-60701285D01*
X82593043Y-60701285D02*
X82593043Y-60915571D01*
X82593043Y-60915571D02*
X82521615Y-61201285D01*
X82521615Y-61201285D02*
X82450186Y-61344142D01*
X82450186Y-61344142D02*
X82307329Y-61487000D01*
X82307329Y-61487000D02*
X82093043Y-61558428D01*
X82093043Y-61558428D02*
X81735900Y-61558428D01*
X84378757Y-60987000D02*
X85521615Y-60987000D01*
X87878757Y-60772714D02*
X87378757Y-60772714D01*
X87378757Y-61558428D02*
X87378757Y-60058428D01*
X87378757Y-60058428D02*
X88093043Y-60058428D01*
X89307329Y-60558428D02*
X89307329Y-61558428D01*
X88664471Y-60558428D02*
X88664471Y-61344142D01*
X88664471Y-61344142D02*
X88735900Y-61487000D01*
X88735900Y-61487000D02*
X88878757Y-61558428D01*
X88878757Y-61558428D02*
X89093043Y-61558428D01*
X89093043Y-61558428D02*
X89235900Y-61487000D01*
X89235900Y-61487000D02*
X89307329Y-61415571D01*
X90235900Y-61558428D02*
X90093043Y-61487000D01*
X90093043Y-61487000D02*
X90021614Y-61344142D01*
X90021614Y-61344142D02*
X90021614Y-60058428D01*
X91021614Y-61558428D02*
X90878757Y-61487000D01*
X90878757Y-61487000D02*
X90807328Y-61344142D01*
X90807328Y-61344142D02*
X90807328Y-60058428D01*
X93235899Y-60772714D02*
X92735899Y-60772714D01*
X92735899Y-61558428D02*
X92735899Y-60058428D01*
X92735899Y-60058428D02*
X93450185Y-60058428D01*
X94021613Y-61558428D02*
X94021613Y-60058428D01*
X94021613Y-60058428D02*
X94521613Y-61129857D01*
X94521613Y-61129857D02*
X95021613Y-60058428D01*
X95021613Y-60058428D02*
X95021613Y-61558428D01*
X95735899Y-60772714D02*
X96235899Y-60772714D01*
X96450185Y-61558428D02*
X95735899Y-61558428D01*
X95735899Y-61558428D02*
X95735899Y-60058428D01*
X95735899Y-60058428D02*
X96450185Y-60058428D01*
X97021614Y-61129857D02*
X97735900Y-61129857D01*
X96878757Y-61558428D02*
X97378757Y-60058428D01*
X97378757Y-60058428D02*
X97878757Y-61558428D01*
X100593042Y-59987000D02*
X99307328Y-61915571D01*
X102235899Y-61558428D02*
X102235899Y-60058428D01*
X102235899Y-60058428D02*
X102593042Y-60058428D01*
X102593042Y-60058428D02*
X102807328Y-60129857D01*
X102807328Y-60129857D02*
X102950185Y-60272714D01*
X102950185Y-60272714D02*
X103021614Y-60415571D01*
X103021614Y-60415571D02*
X103093042Y-60701285D01*
X103093042Y-60701285D02*
X103093042Y-60915571D01*
X103093042Y-60915571D02*
X103021614Y-61201285D01*
X103021614Y-61201285D02*
X102950185Y-61344142D01*
X102950185Y-61344142D02*
X102807328Y-61487000D01*
X102807328Y-61487000D02*
X102593042Y-61558428D01*
X102593042Y-61558428D02*
X102235899Y-61558428D01*
X104235899Y-60772714D02*
X103735899Y-60772714D01*
X103735899Y-61558428D02*
X103735899Y-60058428D01*
X103735899Y-60058428D02*
X104450185Y-60058428D01*
X105021613Y-61558428D02*
X105021613Y-60058428D01*
X105021613Y-60058428D02*
X105521613Y-61129857D01*
X105521613Y-61129857D02*
X106021613Y-60058428D01*
X106021613Y-60058428D02*
X106021613Y-61558428D01*
X106735899Y-60772714D02*
X107235899Y-60772714D01*
X107450185Y-61558428D02*
X106735899Y-61558428D01*
X106735899Y-61558428D02*
X106735899Y-60058428D01*
X106735899Y-60058428D02*
X107450185Y-60058428D01*
X108021614Y-61129857D02*
X108735900Y-61129857D01*
X107878757Y-61558428D02*
X108378757Y-60058428D01*
X108378757Y-60058428D02*
X108878757Y-61558428D01*
X111593042Y-59987000D02*
X110307328Y-61915571D01*
X113235899Y-60558428D02*
X113235899Y-62058428D01*
X113235899Y-60629857D02*
X113378757Y-60558428D01*
X113378757Y-60558428D02*
X113664471Y-60558428D01*
X113664471Y-60558428D02*
X113807328Y-60629857D01*
X113807328Y-60629857D02*
X113878757Y-60701285D01*
X113878757Y-60701285D02*
X113950185Y-60844142D01*
X113950185Y-60844142D02*
X113950185Y-61272714D01*
X113950185Y-61272714D02*
X113878757Y-61415571D01*
X113878757Y-61415571D02*
X113807328Y-61487000D01*
X113807328Y-61487000D02*
X113664471Y-61558428D01*
X113664471Y-61558428D02*
X113378757Y-61558428D01*
X113378757Y-61558428D02*
X113235899Y-61487000D01*
X114807328Y-61558428D02*
X114664471Y-61487000D01*
X114664471Y-61487000D02*
X114593042Y-61415571D01*
X114593042Y-61415571D02*
X114521614Y-61272714D01*
X114521614Y-61272714D02*
X114521614Y-60844142D01*
X114521614Y-60844142D02*
X114593042Y-60701285D01*
X114593042Y-60701285D02*
X114664471Y-60629857D01*
X114664471Y-60629857D02*
X114807328Y-60558428D01*
X114807328Y-60558428D02*
X115021614Y-60558428D01*
X115021614Y-60558428D02*
X115164471Y-60629857D01*
X115164471Y-60629857D02*
X115235900Y-60701285D01*
X115235900Y-60701285D02*
X115307328Y-60844142D01*
X115307328Y-60844142D02*
X115307328Y-61272714D01*
X115307328Y-61272714D02*
X115235900Y-61415571D01*
X115235900Y-61415571D02*
X115164471Y-61487000D01*
X115164471Y-61487000D02*
X115021614Y-61558428D01*
X115021614Y-61558428D02*
X114807328Y-61558428D01*
X115807328Y-60558428D02*
X116093043Y-61558428D01*
X116093043Y-61558428D02*
X116378757Y-60844142D01*
X116378757Y-60844142D02*
X116664471Y-61558428D01*
X116664471Y-61558428D02*
X116950185Y-60558428D01*
X118093043Y-61487000D02*
X117950186Y-61558428D01*
X117950186Y-61558428D02*
X117664472Y-61558428D01*
X117664472Y-61558428D02*
X117521614Y-61487000D01*
X117521614Y-61487000D02*
X117450186Y-61344142D01*
X117450186Y-61344142D02*
X117450186Y-60772714D01*
X117450186Y-60772714D02*
X117521614Y-60629857D01*
X117521614Y-60629857D02*
X117664472Y-60558428D01*
X117664472Y-60558428D02*
X117950186Y-60558428D01*
X117950186Y-60558428D02*
X118093043Y-60629857D01*
X118093043Y-60629857D02*
X118164472Y-60772714D01*
X118164472Y-60772714D02*
X118164472Y-60915571D01*
X118164472Y-60915571D02*
X117450186Y-61058428D01*
X118807328Y-61558428D02*
X118807328Y-60558428D01*
X118807328Y-60844142D02*
X118878757Y-60701285D01*
X118878757Y-60701285D02*
X118950186Y-60629857D01*
X118950186Y-60629857D02*
X119093043Y-60558428D01*
X119093043Y-60558428D02*
X119235900Y-60558428D01*
X119735899Y-60987000D02*
X120878757Y-60987000D01*
X121807328Y-61558428D02*
X121664471Y-61487000D01*
X121664471Y-61487000D02*
X121593042Y-61415571D01*
X121593042Y-61415571D02*
X121521614Y-61272714D01*
X121521614Y-61272714D02*
X121521614Y-60844142D01*
X121521614Y-60844142D02*
X121593042Y-60701285D01*
X121593042Y-60701285D02*
X121664471Y-60629857D01*
X121664471Y-60629857D02*
X121807328Y-60558428D01*
X121807328Y-60558428D02*
X122021614Y-60558428D01*
X122021614Y-60558428D02*
X122164471Y-60629857D01*
X122164471Y-60629857D02*
X122235900Y-60701285D01*
X122235900Y-60701285D02*
X122307328Y-60844142D01*
X122307328Y-60844142D02*
X122307328Y-61272714D01*
X122307328Y-61272714D02*
X122235900Y-61415571D01*
X122235900Y-61415571D02*
X122164471Y-61487000D01*
X122164471Y-61487000D02*
X122021614Y-61558428D01*
X122021614Y-61558428D02*
X121807328Y-61558428D01*
X122950185Y-60558428D02*
X122950185Y-61558428D01*
X122950185Y-60701285D02*
X123021614Y-60629857D01*
X123021614Y-60629857D02*
X123164471Y-60558428D01*
X123164471Y-60558428D02*
X123378757Y-60558428D01*
X123378757Y-60558428D02*
X123521614Y-60629857D01*
X123521614Y-60629857D02*
X123593043Y-60772714D01*
X123593043Y-60772714D02*
X123593043Y-61558428D01*
X126093043Y-61487000D02*
X125950185Y-61558428D01*
X125950185Y-61558428D02*
X125664471Y-61558428D01*
X125664471Y-61558428D02*
X125521614Y-61487000D01*
X125521614Y-61487000D02*
X125450185Y-61415571D01*
X125450185Y-61415571D02*
X125378757Y-61272714D01*
X125378757Y-61272714D02*
X125378757Y-60844142D01*
X125378757Y-60844142D02*
X125450185Y-60701285D01*
X125450185Y-60701285D02*
X125521614Y-60629857D01*
X125521614Y-60629857D02*
X125664471Y-60558428D01*
X125664471Y-60558428D02*
X125950185Y-60558428D01*
X125950185Y-60558428D02*
X126093043Y-60629857D01*
X126735899Y-61558428D02*
X126735899Y-60058428D01*
X127378757Y-61558428D02*
X127378757Y-60772714D01*
X127378757Y-60772714D02*
X127307328Y-60629857D01*
X127307328Y-60629857D02*
X127164471Y-60558428D01*
X127164471Y-60558428D02*
X126950185Y-60558428D01*
X126950185Y-60558428D02*
X126807328Y-60629857D01*
X126807328Y-60629857D02*
X126735899Y-60701285D01*
X128664471Y-61487000D02*
X128521614Y-61558428D01*
X128521614Y-61558428D02*
X128235900Y-61558428D01*
X128235900Y-61558428D02*
X128093042Y-61487000D01*
X128093042Y-61487000D02*
X128021614Y-61344142D01*
X128021614Y-61344142D02*
X128021614Y-60772714D01*
X128021614Y-60772714D02*
X128093042Y-60629857D01*
X128093042Y-60629857D02*
X128235900Y-60558428D01*
X128235900Y-60558428D02*
X128521614Y-60558428D01*
X128521614Y-60558428D02*
X128664471Y-60629857D01*
X128664471Y-60629857D02*
X128735900Y-60772714D01*
X128735900Y-60772714D02*
X128735900Y-60915571D01*
X128735900Y-60915571D02*
X128021614Y-61058428D01*
X130021614Y-61487000D02*
X129878756Y-61558428D01*
X129878756Y-61558428D02*
X129593042Y-61558428D01*
X129593042Y-61558428D02*
X129450185Y-61487000D01*
X129450185Y-61487000D02*
X129378756Y-61415571D01*
X129378756Y-61415571D02*
X129307328Y-61272714D01*
X129307328Y-61272714D02*
X129307328Y-60844142D01*
X129307328Y-60844142D02*
X129378756Y-60701285D01*
X129378756Y-60701285D02*
X129450185Y-60629857D01*
X129450185Y-60629857D02*
X129593042Y-60558428D01*
X129593042Y-60558428D02*
X129878756Y-60558428D01*
X129878756Y-60558428D02*
X130021614Y-60629857D01*
X130664470Y-61558428D02*
X130664470Y-60058428D01*
X130807328Y-60987000D02*
X131235899Y-61558428D01*
X131235899Y-60558428D02*
X130664470Y-61129857D01*
X132093042Y-61558428D02*
X131950185Y-61487000D01*
X131950185Y-61487000D02*
X131878756Y-61344142D01*
X131878756Y-61344142D02*
X131878756Y-60058428D01*
X132664470Y-61558428D02*
X132664470Y-60558428D01*
X132664470Y-60058428D02*
X132593042Y-60129857D01*
X132593042Y-60129857D02*
X132664470Y-60201285D01*
X132664470Y-60201285D02*
X132735899Y-60129857D01*
X132735899Y-60129857D02*
X132664470Y-60058428D01*
X132664470Y-60058428D02*
X132664470Y-60201285D01*
X133307328Y-61487000D02*
X133450185Y-61558428D01*
X133450185Y-61558428D02*
X133735899Y-61558428D01*
X133735899Y-61558428D02*
X133878756Y-61487000D01*
X133878756Y-61487000D02*
X133950185Y-61344142D01*
X133950185Y-61344142D02*
X133950185Y-61272714D01*
X133950185Y-61272714D02*
X133878756Y-61129857D01*
X133878756Y-61129857D02*
X133735899Y-61058428D01*
X133735899Y-61058428D02*
X133521614Y-61058428D01*
X133521614Y-61058428D02*
X133378756Y-60987000D01*
X133378756Y-60987000D02*
X133307328Y-60844142D01*
X133307328Y-60844142D02*
X133307328Y-60772714D01*
X133307328Y-60772714D02*
X133378756Y-60629857D01*
X133378756Y-60629857D02*
X133521614Y-60558428D01*
X133521614Y-60558428D02*
X133735899Y-60558428D01*
X133735899Y-60558428D02*
X133878756Y-60629857D01*
X134378757Y-60558428D02*
X134950185Y-60558428D01*
X134593042Y-60058428D02*
X134593042Y-61344142D01*
X134593042Y-61344142D02*
X134664471Y-61487000D01*
X134664471Y-61487000D02*
X134807328Y-61558428D01*
X134807328Y-61558428D02*
X134950185Y-61558428D01*
X136593042Y-61558428D02*
X136593042Y-60558428D01*
X136593042Y-60844142D02*
X136664471Y-60701285D01*
X136664471Y-60701285D02*
X136735900Y-60629857D01*
X136735900Y-60629857D02*
X136878757Y-60558428D01*
X136878757Y-60558428D02*
X137021614Y-60558428D01*
X138093042Y-61487000D02*
X137950185Y-61558428D01*
X137950185Y-61558428D02*
X137664471Y-61558428D01*
X137664471Y-61558428D02*
X137521613Y-61487000D01*
X137521613Y-61487000D02*
X137450185Y-61344142D01*
X137450185Y-61344142D02*
X137450185Y-60772714D01*
X137450185Y-60772714D02*
X137521613Y-60629857D01*
X137521613Y-60629857D02*
X137664471Y-60558428D01*
X137664471Y-60558428D02*
X137950185Y-60558428D01*
X137950185Y-60558428D02*
X138093042Y-60629857D01*
X138093042Y-60629857D02*
X138164471Y-60772714D01*
X138164471Y-60772714D02*
X138164471Y-60915571D01*
X138164471Y-60915571D02*
X137450185Y-61058428D01*
X139450185Y-60558428D02*
X139450185Y-62058428D01*
X139450185Y-61487000D02*
X139307327Y-61558428D01*
X139307327Y-61558428D02*
X139021613Y-61558428D01*
X139021613Y-61558428D02*
X138878756Y-61487000D01*
X138878756Y-61487000D02*
X138807327Y-61415571D01*
X138807327Y-61415571D02*
X138735899Y-61272714D01*
X138735899Y-61272714D02*
X138735899Y-60844142D01*
X138735899Y-60844142D02*
X138807327Y-60701285D01*
X138807327Y-60701285D02*
X138878756Y-60629857D01*
X138878756Y-60629857D02*
X139021613Y-60558428D01*
X139021613Y-60558428D02*
X139307327Y-60558428D01*
X139307327Y-60558428D02*
X139450185Y-60629857D01*
X140807328Y-60558428D02*
X140807328Y-61558428D01*
X140164470Y-60558428D02*
X140164470Y-61344142D01*
X140164470Y-61344142D02*
X140235899Y-61487000D01*
X140235899Y-61487000D02*
X140378756Y-61558428D01*
X140378756Y-61558428D02*
X140593042Y-61558428D01*
X140593042Y-61558428D02*
X140735899Y-61487000D01*
X140735899Y-61487000D02*
X140807328Y-61415571D01*
X141521613Y-61558428D02*
X141521613Y-60558428D01*
X141521613Y-60058428D02*
X141450185Y-60129857D01*
X141450185Y-60129857D02*
X141521613Y-60201285D01*
X141521613Y-60201285D02*
X141593042Y-60129857D01*
X141593042Y-60129857D02*
X141521613Y-60058428D01*
X141521613Y-60058428D02*
X141521613Y-60201285D01*
X142235899Y-61558428D02*
X142235899Y-60558428D01*
X142235899Y-60844142D02*
X142307328Y-60701285D01*
X142307328Y-60701285D02*
X142378757Y-60629857D01*
X142378757Y-60629857D02*
X142521614Y-60558428D01*
X142521614Y-60558428D02*
X142664471Y-60558428D01*
X143735899Y-61487000D02*
X143593042Y-61558428D01*
X143593042Y-61558428D02*
X143307328Y-61558428D01*
X143307328Y-61558428D02*
X143164470Y-61487000D01*
X143164470Y-61487000D02*
X143093042Y-61344142D01*
X143093042Y-61344142D02*
X143093042Y-60772714D01*
X143093042Y-60772714D02*
X143164470Y-60629857D01*
X143164470Y-60629857D02*
X143307328Y-60558428D01*
X143307328Y-60558428D02*
X143593042Y-60558428D01*
X143593042Y-60558428D02*
X143735899Y-60629857D01*
X143735899Y-60629857D02*
X143807328Y-60772714D01*
X143807328Y-60772714D02*
X143807328Y-60915571D01*
X143807328Y-60915571D02*
X143093042Y-61058428D01*
X145093042Y-61558428D02*
X145093042Y-60058428D01*
X145093042Y-61487000D02*
X144950184Y-61558428D01*
X144950184Y-61558428D02*
X144664470Y-61558428D01*
X144664470Y-61558428D02*
X144521613Y-61487000D01*
X144521613Y-61487000D02*
X144450184Y-61415571D01*
X144450184Y-61415571D02*
X144378756Y-61272714D01*
X144378756Y-61272714D02*
X144378756Y-60844142D01*
X144378756Y-60844142D02*
X144450184Y-60701285D01*
X144450184Y-60701285D02*
X144521613Y-60629857D01*
X144521613Y-60629857D02*
X144664470Y-60558428D01*
X144664470Y-60558428D02*
X144950184Y-60558428D01*
X144950184Y-60558428D02*
X145093042Y-60629857D01*
X146950184Y-61558428D02*
X146950184Y-60058428D01*
X146950184Y-60629857D02*
X147093042Y-60558428D01*
X147093042Y-60558428D02*
X147378756Y-60558428D01*
X147378756Y-60558428D02*
X147521613Y-60629857D01*
X147521613Y-60629857D02*
X147593042Y-60701285D01*
X147593042Y-60701285D02*
X147664470Y-60844142D01*
X147664470Y-60844142D02*
X147664470Y-61272714D01*
X147664470Y-61272714D02*
X147593042Y-61415571D01*
X147593042Y-61415571D02*
X147521613Y-61487000D01*
X147521613Y-61487000D02*
X147378756Y-61558428D01*
X147378756Y-61558428D02*
X147093042Y-61558428D01*
X147093042Y-61558428D02*
X146950184Y-61487000D01*
X148878756Y-61487000D02*
X148735899Y-61558428D01*
X148735899Y-61558428D02*
X148450185Y-61558428D01*
X148450185Y-61558428D02*
X148307327Y-61487000D01*
X148307327Y-61487000D02*
X148235899Y-61344142D01*
X148235899Y-61344142D02*
X148235899Y-60772714D01*
X148235899Y-60772714D02*
X148307327Y-60629857D01*
X148307327Y-60629857D02*
X148450185Y-60558428D01*
X148450185Y-60558428D02*
X148735899Y-60558428D01*
X148735899Y-60558428D02*
X148878756Y-60629857D01*
X148878756Y-60629857D02*
X148950185Y-60772714D01*
X148950185Y-60772714D02*
X148950185Y-60915571D01*
X148950185Y-60915571D02*
X148235899Y-61058428D01*
X149378756Y-60558428D02*
X149950184Y-60558428D01*
X149593041Y-61558428D02*
X149593041Y-60272714D01*
X149593041Y-60272714D02*
X149664470Y-60129857D01*
X149664470Y-60129857D02*
X149807327Y-60058428D01*
X149807327Y-60058428D02*
X149950184Y-60058428D01*
X150664470Y-61558428D02*
X150521613Y-61487000D01*
X150521613Y-61487000D02*
X150450184Y-61415571D01*
X150450184Y-61415571D02*
X150378756Y-61272714D01*
X150378756Y-61272714D02*
X150378756Y-60844142D01*
X150378756Y-60844142D02*
X150450184Y-60701285D01*
X150450184Y-60701285D02*
X150521613Y-60629857D01*
X150521613Y-60629857D02*
X150664470Y-60558428D01*
X150664470Y-60558428D02*
X150878756Y-60558428D01*
X150878756Y-60558428D02*
X151021613Y-60629857D01*
X151021613Y-60629857D02*
X151093042Y-60701285D01*
X151093042Y-60701285D02*
X151164470Y-60844142D01*
X151164470Y-60844142D02*
X151164470Y-61272714D01*
X151164470Y-61272714D02*
X151093042Y-61415571D01*
X151093042Y-61415571D02*
X151021613Y-61487000D01*
X151021613Y-61487000D02*
X150878756Y-61558428D01*
X150878756Y-61558428D02*
X150664470Y-61558428D01*
X151807327Y-61558428D02*
X151807327Y-60558428D01*
X151807327Y-60844142D02*
X151878756Y-60701285D01*
X151878756Y-60701285D02*
X151950185Y-60629857D01*
X151950185Y-60629857D02*
X152093042Y-60558428D01*
X152093042Y-60558428D02*
X152235899Y-60558428D01*
X153307327Y-61487000D02*
X153164470Y-61558428D01*
X153164470Y-61558428D02*
X152878756Y-61558428D01*
X152878756Y-61558428D02*
X152735898Y-61487000D01*
X152735898Y-61487000D02*
X152664470Y-61344142D01*
X152664470Y-61344142D02*
X152664470Y-60772714D01*
X152664470Y-60772714D02*
X152735898Y-60629857D01*
X152735898Y-60629857D02*
X152878756Y-60558428D01*
X152878756Y-60558428D02*
X153164470Y-60558428D01*
X153164470Y-60558428D02*
X153307327Y-60629857D01*
X153307327Y-60629857D02*
X153378756Y-60772714D01*
X153378756Y-60772714D02*
X153378756Y-60915571D01*
X153378756Y-60915571D02*
X152664470Y-61058428D01*
X155735898Y-61487000D02*
X155593041Y-61558428D01*
X155593041Y-61558428D02*
X155307327Y-61558428D01*
X155307327Y-61558428D02*
X155164469Y-61487000D01*
X155164469Y-61487000D02*
X155093041Y-61344142D01*
X155093041Y-61344142D02*
X155093041Y-60772714D01*
X155093041Y-60772714D02*
X155164469Y-60629857D01*
X155164469Y-60629857D02*
X155307327Y-60558428D01*
X155307327Y-60558428D02*
X155593041Y-60558428D01*
X155593041Y-60558428D02*
X155735898Y-60629857D01*
X155735898Y-60629857D02*
X155807327Y-60772714D01*
X155807327Y-60772714D02*
X155807327Y-60915571D01*
X155807327Y-60915571D02*
X155093041Y-61058428D01*
X156450183Y-60558428D02*
X156450183Y-61558428D01*
X156450183Y-60701285D02*
X156521612Y-60629857D01*
X156521612Y-60629857D02*
X156664469Y-60558428D01*
X156664469Y-60558428D02*
X156878755Y-60558428D01*
X156878755Y-60558428D02*
X157021612Y-60629857D01*
X157021612Y-60629857D02*
X157093041Y-60772714D01*
X157093041Y-60772714D02*
X157093041Y-61558428D01*
X158378755Y-61487000D02*
X158235898Y-61558428D01*
X158235898Y-61558428D02*
X157950184Y-61558428D01*
X157950184Y-61558428D02*
X157807326Y-61487000D01*
X157807326Y-61487000D02*
X157735898Y-61344142D01*
X157735898Y-61344142D02*
X157735898Y-60772714D01*
X157735898Y-60772714D02*
X157807326Y-60629857D01*
X157807326Y-60629857D02*
X157950184Y-60558428D01*
X157950184Y-60558428D02*
X158235898Y-60558428D01*
X158235898Y-60558428D02*
X158378755Y-60629857D01*
X158378755Y-60629857D02*
X158450184Y-60772714D01*
X158450184Y-60772714D02*
X158450184Y-60915571D01*
X158450184Y-60915571D02*
X157735898Y-61058428D01*
X159093040Y-61558428D02*
X159093040Y-60558428D01*
X159093040Y-60844142D02*
X159164469Y-60701285D01*
X159164469Y-60701285D02*
X159235898Y-60629857D01*
X159235898Y-60629857D02*
X159378755Y-60558428D01*
X159378755Y-60558428D02*
X159521612Y-60558428D01*
X160664469Y-60558428D02*
X160664469Y-61772714D01*
X160664469Y-61772714D02*
X160593040Y-61915571D01*
X160593040Y-61915571D02*
X160521611Y-61987000D01*
X160521611Y-61987000D02*
X160378754Y-62058428D01*
X160378754Y-62058428D02*
X160164469Y-62058428D01*
X160164469Y-62058428D02*
X160021611Y-61987000D01*
X160664469Y-61487000D02*
X160521611Y-61558428D01*
X160521611Y-61558428D02*
X160235897Y-61558428D01*
X160235897Y-61558428D02*
X160093040Y-61487000D01*
X160093040Y-61487000D02*
X160021611Y-61415571D01*
X160021611Y-61415571D02*
X159950183Y-61272714D01*
X159950183Y-61272714D02*
X159950183Y-60844142D01*
X159950183Y-60844142D02*
X160021611Y-60701285D01*
X160021611Y-60701285D02*
X160093040Y-60629857D01*
X160093040Y-60629857D02*
X160235897Y-60558428D01*
X160235897Y-60558428D02*
X160521611Y-60558428D01*
X160521611Y-60558428D02*
X160664469Y-60629857D01*
X161378754Y-61558428D02*
X161378754Y-60558428D01*
X161378754Y-60058428D02*
X161307326Y-60129857D01*
X161307326Y-60129857D02*
X161378754Y-60201285D01*
X161378754Y-60201285D02*
X161450183Y-60129857D01*
X161450183Y-60129857D02*
X161378754Y-60058428D01*
X161378754Y-60058428D02*
X161378754Y-60201285D01*
X161950183Y-60558428D02*
X162735898Y-60558428D01*
X162735898Y-60558428D02*
X161950183Y-61558428D01*
X161950183Y-61558428D02*
X162735898Y-61558428D01*
X163307326Y-61558428D02*
X163307326Y-60558428D01*
X163307326Y-60058428D02*
X163235898Y-60129857D01*
X163235898Y-60129857D02*
X163307326Y-60201285D01*
X163307326Y-60201285D02*
X163378755Y-60129857D01*
X163378755Y-60129857D02*
X163307326Y-60058428D01*
X163307326Y-60058428D02*
X163307326Y-60201285D01*
X164021612Y-60558428D02*
X164021612Y-61558428D01*
X164021612Y-60701285D02*
X164093041Y-60629857D01*
X164093041Y-60629857D02*
X164235898Y-60558428D01*
X164235898Y-60558428D02*
X164450184Y-60558428D01*
X164450184Y-60558428D02*
X164593041Y-60629857D01*
X164593041Y-60629857D02*
X164664470Y-60772714D01*
X164664470Y-60772714D02*
X164664470Y-61558428D01*
X166021613Y-60558428D02*
X166021613Y-61772714D01*
X166021613Y-61772714D02*
X165950184Y-61915571D01*
X165950184Y-61915571D02*
X165878755Y-61987000D01*
X165878755Y-61987000D02*
X165735898Y-62058428D01*
X165735898Y-62058428D02*
X165521613Y-62058428D01*
X165521613Y-62058428D02*
X165378755Y-61987000D01*
X166021613Y-61487000D02*
X165878755Y-61558428D01*
X165878755Y-61558428D02*
X165593041Y-61558428D01*
X165593041Y-61558428D02*
X165450184Y-61487000D01*
X165450184Y-61487000D02*
X165378755Y-61415571D01*
X165378755Y-61415571D02*
X165307327Y-61272714D01*
X165307327Y-61272714D02*
X165307327Y-60844142D01*
X165307327Y-60844142D02*
X165378755Y-60701285D01*
X165378755Y-60701285D02*
X165450184Y-60629857D01*
X165450184Y-60629857D02*
X165593041Y-60558428D01*
X165593041Y-60558428D02*
X165878755Y-60558428D01*
X165878755Y-60558428D02*
X166021613Y-60629857D01*
X168521613Y-61487000D02*
X168378755Y-61558428D01*
X168378755Y-61558428D02*
X168093041Y-61558428D01*
X168093041Y-61558428D02*
X167950184Y-61487000D01*
X167950184Y-61487000D02*
X167878755Y-61415571D01*
X167878755Y-61415571D02*
X167807327Y-61272714D01*
X167807327Y-61272714D02*
X167807327Y-60844142D01*
X167807327Y-60844142D02*
X167878755Y-60701285D01*
X167878755Y-60701285D02*
X167950184Y-60629857D01*
X167950184Y-60629857D02*
X168093041Y-60558428D01*
X168093041Y-60558428D02*
X168378755Y-60558428D01*
X168378755Y-60558428D02*
X168521613Y-60629857D01*
X169378755Y-61558428D02*
X169235898Y-61487000D01*
X169235898Y-61487000D02*
X169164469Y-61415571D01*
X169164469Y-61415571D02*
X169093041Y-61272714D01*
X169093041Y-61272714D02*
X169093041Y-60844142D01*
X169093041Y-60844142D02*
X169164469Y-60701285D01*
X169164469Y-60701285D02*
X169235898Y-60629857D01*
X169235898Y-60629857D02*
X169378755Y-60558428D01*
X169378755Y-60558428D02*
X169593041Y-60558428D01*
X169593041Y-60558428D02*
X169735898Y-60629857D01*
X169735898Y-60629857D02*
X169807327Y-60701285D01*
X169807327Y-60701285D02*
X169878755Y-60844142D01*
X169878755Y-60844142D02*
X169878755Y-61272714D01*
X169878755Y-61272714D02*
X169807327Y-61415571D01*
X169807327Y-61415571D02*
X169735898Y-61487000D01*
X169735898Y-61487000D02*
X169593041Y-61558428D01*
X169593041Y-61558428D02*
X169378755Y-61558428D01*
X170521612Y-61558428D02*
X170521612Y-60558428D01*
X170521612Y-60058428D02*
X170450184Y-60129857D01*
X170450184Y-60129857D02*
X170521612Y-60201285D01*
X170521612Y-60201285D02*
X170593041Y-60129857D01*
X170593041Y-60129857D02*
X170521612Y-60058428D01*
X170521612Y-60058428D02*
X170521612Y-60201285D01*
X171450184Y-61558428D02*
X171307327Y-61487000D01*
X171307327Y-61487000D02*
X171235898Y-61344142D01*
X171235898Y-61344142D02*
X171235898Y-60058428D01*
X171950184Y-61487000D02*
X172093041Y-61558428D01*
X172093041Y-61558428D02*
X172378755Y-61558428D01*
X172378755Y-61558428D02*
X172521612Y-61487000D01*
X172521612Y-61487000D02*
X172593041Y-61344142D01*
X172593041Y-61344142D02*
X172593041Y-61272714D01*
X172593041Y-61272714D02*
X172521612Y-61129857D01*
X172521612Y-61129857D02*
X172378755Y-61058428D01*
X172378755Y-61058428D02*
X172164470Y-61058428D01*
X172164470Y-61058428D02*
X172021612Y-60987000D01*
X172021612Y-60987000D02*
X171950184Y-60844142D01*
X171950184Y-60844142D02*
X171950184Y-60772714D01*
X171950184Y-60772714D02*
X172021612Y-60629857D01*
X172021612Y-60629857D02*
X172164470Y-60558428D01*
X172164470Y-60558428D02*
X172378755Y-60558428D01*
X172378755Y-60558428D02*
X172521612Y-60629857D01*
D12*
X55931578Y-144042742D02*
X55931578Y-144842742D01*
X55645863Y-143585600D02*
X55360149Y-144442742D01*
X55360149Y-144442742D02*
X56103006Y-144442742D01*
X56560149Y-144385600D02*
X57474435Y-144385600D01*
X58217291Y-144842742D02*
X58103006Y-144785600D01*
X58103006Y-144785600D02*
X58045863Y-144671314D01*
X58045863Y-144671314D02*
X58045863Y-143642742D01*
X59188720Y-144842742D02*
X59188720Y-144214171D01*
X59188720Y-144214171D02*
X59131577Y-144099885D01*
X59131577Y-144099885D02*
X59017291Y-144042742D01*
X59017291Y-144042742D02*
X58788720Y-144042742D01*
X58788720Y-144042742D02*
X58674434Y-144099885D01*
X59188720Y-144785600D02*
X59074434Y-144842742D01*
X59074434Y-144842742D02*
X58788720Y-144842742D01*
X58788720Y-144842742D02*
X58674434Y-144785600D01*
X58674434Y-144785600D02*
X58617291Y-144671314D01*
X58617291Y-144671314D02*
X58617291Y-144557028D01*
X58617291Y-144557028D02*
X58674434Y-144442742D01*
X58674434Y-144442742D02*
X58788720Y-144385600D01*
X58788720Y-144385600D02*
X59074434Y-144385600D01*
X59074434Y-144385600D02*
X59188720Y-144328457D01*
X59645862Y-144042742D02*
X59931576Y-144842742D01*
X60217291Y-144042742D02*
X59931576Y-144842742D01*
X59931576Y-144842742D02*
X59817291Y-145128457D01*
X59817291Y-145128457D02*
X59760148Y-145185600D01*
X59760148Y-145185600D02*
X59645862Y-145242742D01*
X61131577Y-144785600D02*
X61017291Y-144842742D01*
X61017291Y-144842742D02*
X60788720Y-144842742D01*
X60788720Y-144842742D02*
X60674434Y-144785600D01*
X60674434Y-144785600D02*
X60617291Y-144671314D01*
X60617291Y-144671314D02*
X60617291Y-144214171D01*
X60617291Y-144214171D02*
X60674434Y-144099885D01*
X60674434Y-144099885D02*
X60788720Y-144042742D01*
X60788720Y-144042742D02*
X61017291Y-144042742D01*
X61017291Y-144042742D02*
X61131577Y-144099885D01*
X61131577Y-144099885D02*
X61188720Y-144214171D01*
X61188720Y-144214171D02*
X61188720Y-144328457D01*
X61188720Y-144328457D02*
X60617291Y-144442742D01*
X61703005Y-144842742D02*
X61703005Y-144042742D01*
X61703005Y-144271314D02*
X61760148Y-144157028D01*
X61760148Y-144157028D02*
X61817291Y-144099885D01*
X61817291Y-144099885D02*
X61931576Y-144042742D01*
X61931576Y-144042742D02*
X62045862Y-144042742D01*
X64674434Y-144214171D02*
X64274434Y-144214171D01*
X64274434Y-144842742D02*
X64274434Y-143642742D01*
X64274434Y-143642742D02*
X64845862Y-143642742D01*
X65303005Y-144728457D02*
X65360148Y-144785600D01*
X65360148Y-144785600D02*
X65303005Y-144842742D01*
X65303005Y-144842742D02*
X65245862Y-144785600D01*
X65245862Y-144785600D02*
X65303005Y-144728457D01*
X65303005Y-144728457D02*
X65303005Y-144842742D01*
X66560148Y-144728457D02*
X66503005Y-144785600D01*
X66503005Y-144785600D02*
X66331577Y-144842742D01*
X66331577Y-144842742D02*
X66217291Y-144842742D01*
X66217291Y-144842742D02*
X66045862Y-144785600D01*
X66045862Y-144785600D02*
X65931577Y-144671314D01*
X65931577Y-144671314D02*
X65874434Y-144557028D01*
X65874434Y-144557028D02*
X65817291Y-144328457D01*
X65817291Y-144328457D02*
X65817291Y-144157028D01*
X65817291Y-144157028D02*
X65874434Y-143928457D01*
X65874434Y-143928457D02*
X65931577Y-143814171D01*
X65931577Y-143814171D02*
X66045862Y-143699885D01*
X66045862Y-143699885D02*
X66217291Y-143642742D01*
X66217291Y-143642742D02*
X66331577Y-143642742D01*
X66331577Y-143642742D02*
X66503005Y-143699885D01*
X66503005Y-143699885D02*
X66560148Y-143757028D01*
X67588720Y-144042742D02*
X67588720Y-144842742D01*
X67074434Y-144042742D02*
X67074434Y-144671314D01*
X67074434Y-144671314D02*
X67131577Y-144785600D01*
X67131577Y-144785600D02*
X67245862Y-144842742D01*
X67245862Y-144842742D02*
X67417291Y-144842742D01*
X67417291Y-144842742D02*
X67531577Y-144785600D01*
X67531577Y-144785600D02*
X67588720Y-144728457D01*
X69017291Y-143757028D02*
X69074434Y-143699885D01*
X69074434Y-143699885D02*
X69188720Y-143642742D01*
X69188720Y-143642742D02*
X69474434Y-143642742D01*
X69474434Y-143642742D02*
X69588720Y-143699885D01*
X69588720Y-143699885D02*
X69645862Y-143757028D01*
X69645862Y-143757028D02*
X69703005Y-143871314D01*
X69703005Y-143871314D02*
X69703005Y-143985600D01*
X69703005Y-143985600D02*
X69645862Y-144157028D01*
X69645862Y-144157028D02*
X68960148Y-144842742D01*
X68960148Y-144842742D02*
X69703005Y-144842742D01*
X70388719Y-144842742D02*
X70274434Y-144785600D01*
X70274434Y-144785600D02*
X70217291Y-144728457D01*
X70217291Y-144728457D02*
X70160148Y-144614171D01*
X70160148Y-144614171D02*
X70160148Y-144271314D01*
X70160148Y-144271314D02*
X70217291Y-144157028D01*
X70217291Y-144157028D02*
X70274434Y-144099885D01*
X70274434Y-144099885D02*
X70388719Y-144042742D01*
X70388719Y-144042742D02*
X70560148Y-144042742D01*
X70560148Y-144042742D02*
X70674434Y-144099885D01*
X70674434Y-144099885D02*
X70731577Y-144157028D01*
X70731577Y-144157028D02*
X70788719Y-144271314D01*
X70788719Y-144271314D02*
X70788719Y-144614171D01*
X70788719Y-144614171D02*
X70731577Y-144728457D01*
X70731577Y-144728457D02*
X70674434Y-144785600D01*
X70674434Y-144785600D02*
X70560148Y-144842742D01*
X70560148Y-144842742D02*
X70388719Y-144842742D01*
X71188719Y-144042742D02*
X71817291Y-144042742D01*
X71817291Y-144042742D02*
X71188719Y-144842742D01*
X71188719Y-144842742D02*
X71817291Y-144842742D01*
X73131577Y-144785600D02*
X73245863Y-144842742D01*
X73245863Y-144842742D02*
X73474434Y-144842742D01*
X73474434Y-144842742D02*
X73588720Y-144785600D01*
X73588720Y-144785600D02*
X73645863Y-144671314D01*
X73645863Y-144671314D02*
X73645863Y-144614171D01*
X73645863Y-144614171D02*
X73588720Y-144499885D01*
X73588720Y-144499885D02*
X73474434Y-144442742D01*
X73474434Y-144442742D02*
X73303006Y-144442742D01*
X73303006Y-144442742D02*
X73188720Y-144385600D01*
X73188720Y-144385600D02*
X73131577Y-144271314D01*
X73131577Y-144271314D02*
X73131577Y-144214171D01*
X73131577Y-144214171D02*
X73188720Y-144099885D01*
X73188720Y-144099885D02*
X73303006Y-144042742D01*
X73303006Y-144042742D02*
X73474434Y-144042742D01*
X73474434Y-144042742D02*
X73588720Y-144099885D01*
X74160149Y-144842742D02*
X74160149Y-144042742D01*
X74160149Y-143642742D02*
X74103006Y-143699885D01*
X74103006Y-143699885D02*
X74160149Y-143757028D01*
X74160149Y-143757028D02*
X74217292Y-143699885D01*
X74217292Y-143699885D02*
X74160149Y-143642742D01*
X74160149Y-143642742D02*
X74160149Y-143757028D01*
X75245864Y-144042742D02*
X75245864Y-145014171D01*
X75245864Y-145014171D02*
X75188721Y-145128457D01*
X75188721Y-145128457D02*
X75131578Y-145185600D01*
X75131578Y-145185600D02*
X75017292Y-145242742D01*
X75017292Y-145242742D02*
X74845864Y-145242742D01*
X74845864Y-145242742D02*
X74731578Y-145185600D01*
X75245864Y-144785600D02*
X75131578Y-144842742D01*
X75131578Y-144842742D02*
X74903006Y-144842742D01*
X74903006Y-144842742D02*
X74788721Y-144785600D01*
X74788721Y-144785600D02*
X74731578Y-144728457D01*
X74731578Y-144728457D02*
X74674435Y-144614171D01*
X74674435Y-144614171D02*
X74674435Y-144271314D01*
X74674435Y-144271314D02*
X74731578Y-144157028D01*
X74731578Y-144157028D02*
X74788721Y-144099885D01*
X74788721Y-144099885D02*
X74903006Y-144042742D01*
X74903006Y-144042742D02*
X75131578Y-144042742D01*
X75131578Y-144042742D02*
X75245864Y-144099885D01*
X75817292Y-144042742D02*
X75817292Y-144842742D01*
X75817292Y-144157028D02*
X75874435Y-144099885D01*
X75874435Y-144099885D02*
X75988720Y-144042742D01*
X75988720Y-144042742D02*
X76160149Y-144042742D01*
X76160149Y-144042742D02*
X76274435Y-144099885D01*
X76274435Y-144099885D02*
X76331578Y-144214171D01*
X76331578Y-144214171D02*
X76331578Y-144842742D01*
X77417292Y-144842742D02*
X77417292Y-144214171D01*
X77417292Y-144214171D02*
X77360149Y-144099885D01*
X77360149Y-144099885D02*
X77245863Y-144042742D01*
X77245863Y-144042742D02*
X77017292Y-144042742D01*
X77017292Y-144042742D02*
X76903006Y-144099885D01*
X77417292Y-144785600D02*
X77303006Y-144842742D01*
X77303006Y-144842742D02*
X77017292Y-144842742D01*
X77017292Y-144842742D02*
X76903006Y-144785600D01*
X76903006Y-144785600D02*
X76845863Y-144671314D01*
X76845863Y-144671314D02*
X76845863Y-144557028D01*
X76845863Y-144557028D02*
X76903006Y-144442742D01*
X76903006Y-144442742D02*
X77017292Y-144385600D01*
X77017292Y-144385600D02*
X77303006Y-144385600D01*
X77303006Y-144385600D02*
X77417292Y-144328457D01*
X78160148Y-144842742D02*
X78045863Y-144785600D01*
X78045863Y-144785600D02*
X77988720Y-144671314D01*
X77988720Y-144671314D02*
X77988720Y-143642742D01*
X80388720Y-143585600D02*
X79360148Y-145128457D01*
X81703006Y-144842742D02*
X81703006Y-143642742D01*
X82274435Y-144042742D02*
X82274435Y-144842742D01*
X82274435Y-144157028D02*
X82331578Y-144099885D01*
X82331578Y-144099885D02*
X82445863Y-144042742D01*
X82445863Y-144042742D02*
X82617292Y-144042742D01*
X82617292Y-144042742D02*
X82731578Y-144099885D01*
X82731578Y-144099885D02*
X82788721Y-144214171D01*
X82788721Y-144214171D02*
X82788721Y-144842742D01*
X83988720Y-144842742D02*
X83303006Y-144842742D01*
X83645863Y-144842742D02*
X83645863Y-143642742D01*
X83645863Y-143642742D02*
X83531577Y-143814171D01*
X83531577Y-143814171D02*
X83417292Y-143928457D01*
X83417292Y-143928457D02*
X83303006Y-143985600D01*
X84503006Y-144728457D02*
X84560149Y-144785600D01*
X84560149Y-144785600D02*
X84503006Y-144842742D01*
X84503006Y-144842742D02*
X84445863Y-144785600D01*
X84445863Y-144785600D02*
X84503006Y-144728457D01*
X84503006Y-144728457D02*
X84503006Y-144842742D01*
X85760149Y-144728457D02*
X85703006Y-144785600D01*
X85703006Y-144785600D02*
X85531578Y-144842742D01*
X85531578Y-144842742D02*
X85417292Y-144842742D01*
X85417292Y-144842742D02*
X85245863Y-144785600D01*
X85245863Y-144785600D02*
X85131578Y-144671314D01*
X85131578Y-144671314D02*
X85074435Y-144557028D01*
X85074435Y-144557028D02*
X85017292Y-144328457D01*
X85017292Y-144328457D02*
X85017292Y-144157028D01*
X85017292Y-144157028D02*
X85074435Y-143928457D01*
X85074435Y-143928457D02*
X85131578Y-143814171D01*
X85131578Y-143814171D02*
X85245863Y-143699885D01*
X85245863Y-143699885D02*
X85417292Y-143642742D01*
X85417292Y-143642742D02*
X85531578Y-143642742D01*
X85531578Y-143642742D02*
X85703006Y-143699885D01*
X85703006Y-143699885D02*
X85760149Y-143757028D01*
X86788721Y-144042742D02*
X86788721Y-144842742D01*
X86274435Y-144042742D02*
X86274435Y-144671314D01*
X86274435Y-144671314D02*
X86331578Y-144785600D01*
X86331578Y-144785600D02*
X86445863Y-144842742D01*
X86445863Y-144842742D02*
X86617292Y-144842742D01*
X86617292Y-144842742D02*
X86731578Y-144785600D01*
X86731578Y-144785600D02*
X86788721Y-144728457D01*
X88903006Y-143699885D02*
X88788721Y-143642742D01*
X88788721Y-143642742D02*
X88617292Y-143642742D01*
X88617292Y-143642742D02*
X88445863Y-143699885D01*
X88445863Y-143699885D02*
X88331578Y-143814171D01*
X88331578Y-143814171D02*
X88274435Y-143928457D01*
X88274435Y-143928457D02*
X88217292Y-144157028D01*
X88217292Y-144157028D02*
X88217292Y-144328457D01*
X88217292Y-144328457D02*
X88274435Y-144557028D01*
X88274435Y-144557028D02*
X88331578Y-144671314D01*
X88331578Y-144671314D02*
X88445863Y-144785600D01*
X88445863Y-144785600D02*
X88617292Y-144842742D01*
X88617292Y-144842742D02*
X88731578Y-144842742D01*
X88731578Y-144842742D02*
X88903006Y-144785600D01*
X88903006Y-144785600D02*
X88960149Y-144728457D01*
X88960149Y-144728457D02*
X88960149Y-144328457D01*
X88960149Y-144328457D02*
X88731578Y-144328457D01*
X89474435Y-144842742D02*
X89474435Y-143642742D01*
X89474435Y-143642742D02*
X90160149Y-144842742D01*
X90160149Y-144842742D02*
X90160149Y-143642742D01*
X90731578Y-144842742D02*
X90731578Y-143642742D01*
X90731578Y-143642742D02*
X91017292Y-143642742D01*
X91017292Y-143642742D02*
X91188721Y-143699885D01*
X91188721Y-143699885D02*
X91303006Y-143814171D01*
X91303006Y-143814171D02*
X91360149Y-143928457D01*
X91360149Y-143928457D02*
X91417292Y-144157028D01*
X91417292Y-144157028D02*
X91417292Y-144328457D01*
X91417292Y-144328457D02*
X91360149Y-144557028D01*
X91360149Y-144557028D02*
X91303006Y-144671314D01*
X91303006Y-144671314D02*
X91188721Y-144785600D01*
X91188721Y-144785600D02*
X91017292Y-144842742D01*
X91017292Y-144842742D02*
X90731578Y-144842742D01*
X93703007Y-143585600D02*
X92674435Y-145128457D01*
X95017293Y-144842742D02*
X95017293Y-143642742D01*
X95588722Y-144042742D02*
X95588722Y-144842742D01*
X95588722Y-144157028D02*
X95645865Y-144099885D01*
X95645865Y-144099885D02*
X95760150Y-144042742D01*
X95760150Y-144042742D02*
X95931579Y-144042742D01*
X95931579Y-144042742D02*
X96045865Y-144099885D01*
X96045865Y-144099885D02*
X96103008Y-144214171D01*
X96103008Y-144214171D02*
X96103008Y-144842742D01*
X96617293Y-143757028D02*
X96674436Y-143699885D01*
X96674436Y-143699885D02*
X96788722Y-143642742D01*
X96788722Y-143642742D02*
X97074436Y-143642742D01*
X97074436Y-143642742D02*
X97188722Y-143699885D01*
X97188722Y-143699885D02*
X97245864Y-143757028D01*
X97245864Y-143757028D02*
X97303007Y-143871314D01*
X97303007Y-143871314D02*
X97303007Y-143985600D01*
X97303007Y-143985600D02*
X97245864Y-144157028D01*
X97245864Y-144157028D02*
X96560150Y-144842742D01*
X96560150Y-144842742D02*
X97303007Y-144842742D01*
X97817293Y-144728457D02*
X97874436Y-144785600D01*
X97874436Y-144785600D02*
X97817293Y-144842742D01*
X97817293Y-144842742D02*
X97760150Y-144785600D01*
X97760150Y-144785600D02*
X97817293Y-144728457D01*
X97817293Y-144728457D02*
X97817293Y-144842742D01*
X99074436Y-144728457D02*
X99017293Y-144785600D01*
X99017293Y-144785600D02*
X98845865Y-144842742D01*
X98845865Y-144842742D02*
X98731579Y-144842742D01*
X98731579Y-144842742D02*
X98560150Y-144785600D01*
X98560150Y-144785600D02*
X98445865Y-144671314D01*
X98445865Y-144671314D02*
X98388722Y-144557028D01*
X98388722Y-144557028D02*
X98331579Y-144328457D01*
X98331579Y-144328457D02*
X98331579Y-144157028D01*
X98331579Y-144157028D02*
X98388722Y-143928457D01*
X98388722Y-143928457D02*
X98445865Y-143814171D01*
X98445865Y-143814171D02*
X98560150Y-143699885D01*
X98560150Y-143699885D02*
X98731579Y-143642742D01*
X98731579Y-143642742D02*
X98845865Y-143642742D01*
X98845865Y-143642742D02*
X99017293Y-143699885D01*
X99017293Y-143699885D02*
X99074436Y-143757028D01*
X100103008Y-144042742D02*
X100103008Y-144842742D01*
X99588722Y-144042742D02*
X99588722Y-144671314D01*
X99588722Y-144671314D02*
X99645865Y-144785600D01*
X99645865Y-144785600D02*
X99760150Y-144842742D01*
X99760150Y-144842742D02*
X99931579Y-144842742D01*
X99931579Y-144842742D02*
X100045865Y-144785600D01*
X100045865Y-144785600D02*
X100103008Y-144728457D01*
X101588722Y-144842742D02*
X101588722Y-143642742D01*
X101588722Y-143642742D02*
X102045865Y-143642742D01*
X102045865Y-143642742D02*
X102160150Y-143699885D01*
X102160150Y-143699885D02*
X102217293Y-143757028D01*
X102217293Y-143757028D02*
X102274436Y-143871314D01*
X102274436Y-143871314D02*
X102274436Y-144042742D01*
X102274436Y-144042742D02*
X102217293Y-144157028D01*
X102217293Y-144157028D02*
X102160150Y-144214171D01*
X102160150Y-144214171D02*
X102045865Y-144271314D01*
X102045865Y-144271314D02*
X101588722Y-144271314D01*
X102674436Y-143642742D02*
X102960150Y-144842742D01*
X102960150Y-144842742D02*
X103188722Y-143985600D01*
X103188722Y-143985600D02*
X103417293Y-144842742D01*
X103417293Y-144842742D02*
X103703008Y-143642742D01*
X104845865Y-144842742D02*
X104445865Y-144271314D01*
X104160151Y-144842742D02*
X104160151Y-143642742D01*
X104160151Y-143642742D02*
X104617294Y-143642742D01*
X104617294Y-143642742D02*
X104731579Y-143699885D01*
X104731579Y-143699885D02*
X104788722Y-143757028D01*
X104788722Y-143757028D02*
X104845865Y-143871314D01*
X104845865Y-143871314D02*
X104845865Y-144042742D01*
X104845865Y-144042742D02*
X104788722Y-144157028D01*
X104788722Y-144157028D02*
X104731579Y-144214171D01*
X104731579Y-144214171D02*
X104617294Y-144271314D01*
X104617294Y-144271314D02*
X104160151Y-144271314D01*
X105074437Y-144957028D02*
X105988722Y-144957028D01*
X106274437Y-144842742D02*
X106274437Y-143642742D01*
X106274437Y-144214171D02*
X106960151Y-144214171D01*
X106960151Y-144842742D02*
X106960151Y-143642742D01*
X107531580Y-144842742D02*
X107531580Y-143642742D01*
X108731580Y-143699885D02*
X108617295Y-143642742D01*
X108617295Y-143642742D02*
X108445866Y-143642742D01*
X108445866Y-143642742D02*
X108274437Y-143699885D01*
X108274437Y-143699885D02*
X108160152Y-143814171D01*
X108160152Y-143814171D02*
X108103009Y-143928457D01*
X108103009Y-143928457D02*
X108045866Y-144157028D01*
X108045866Y-144157028D02*
X108045866Y-144328457D01*
X108045866Y-144328457D02*
X108103009Y-144557028D01*
X108103009Y-144557028D02*
X108160152Y-144671314D01*
X108160152Y-144671314D02*
X108274437Y-144785600D01*
X108274437Y-144785600D02*
X108445866Y-144842742D01*
X108445866Y-144842742D02*
X108560152Y-144842742D01*
X108560152Y-144842742D02*
X108731580Y-144785600D01*
X108731580Y-144785600D02*
X108788723Y-144728457D01*
X108788723Y-144728457D02*
X108788723Y-144328457D01*
X108788723Y-144328457D02*
X108560152Y-144328457D01*
X109303009Y-144842742D02*
X109303009Y-143642742D01*
X109303009Y-144214171D02*
X109988723Y-144214171D01*
X109988723Y-144842742D02*
X109988723Y-143642742D01*
X110274438Y-144957028D02*
X111188723Y-144957028D01*
X112160152Y-144728457D02*
X112103009Y-144785600D01*
X112103009Y-144785600D02*
X111931581Y-144842742D01*
X111931581Y-144842742D02*
X111817295Y-144842742D01*
X111817295Y-144842742D02*
X111645866Y-144785600D01*
X111645866Y-144785600D02*
X111531581Y-144671314D01*
X111531581Y-144671314D02*
X111474438Y-144557028D01*
X111474438Y-144557028D02*
X111417295Y-144328457D01*
X111417295Y-144328457D02*
X111417295Y-144157028D01*
X111417295Y-144157028D02*
X111474438Y-143928457D01*
X111474438Y-143928457D02*
X111531581Y-143814171D01*
X111531581Y-143814171D02*
X111645866Y-143699885D01*
X111645866Y-143699885D02*
X111817295Y-143642742D01*
X111817295Y-143642742D02*
X111931581Y-143642742D01*
X111931581Y-143642742D02*
X112103009Y-143699885D01*
X112103009Y-143699885D02*
X112160152Y-143757028D01*
X112674438Y-143642742D02*
X112674438Y-144614171D01*
X112674438Y-144614171D02*
X112731581Y-144728457D01*
X112731581Y-144728457D02*
X112788724Y-144785600D01*
X112788724Y-144785600D02*
X112903009Y-144842742D01*
X112903009Y-144842742D02*
X113131581Y-144842742D01*
X113131581Y-144842742D02*
X113245866Y-144785600D01*
X113245866Y-144785600D02*
X113303009Y-144728457D01*
X113303009Y-144728457D02*
X113360152Y-144614171D01*
X113360152Y-144614171D02*
X113360152Y-143642742D01*
X114617295Y-144842742D02*
X114217295Y-144271314D01*
X113931581Y-144842742D02*
X113931581Y-143642742D01*
X113931581Y-143642742D02*
X114388724Y-143642742D01*
X114388724Y-143642742D02*
X114503009Y-143699885D01*
X114503009Y-143699885D02*
X114560152Y-143757028D01*
X114560152Y-143757028D02*
X114617295Y-143871314D01*
X114617295Y-143871314D02*
X114617295Y-144042742D01*
X114617295Y-144042742D02*
X114560152Y-144157028D01*
X114560152Y-144157028D02*
X114503009Y-144214171D01*
X114503009Y-144214171D02*
X114388724Y-144271314D01*
X114388724Y-144271314D02*
X113931581Y-144271314D01*
X115817295Y-144842742D02*
X115417295Y-144271314D01*
X115131581Y-144842742D02*
X115131581Y-143642742D01*
X115131581Y-143642742D02*
X115588724Y-143642742D01*
X115588724Y-143642742D02*
X115703009Y-143699885D01*
X115703009Y-143699885D02*
X115760152Y-143757028D01*
X115760152Y-143757028D02*
X115817295Y-143871314D01*
X115817295Y-143871314D02*
X115817295Y-144042742D01*
X115817295Y-144042742D02*
X115760152Y-144157028D01*
X115760152Y-144157028D02*
X115703009Y-144214171D01*
X115703009Y-144214171D02*
X115588724Y-144271314D01*
X115588724Y-144271314D02*
X115131581Y-144271314D01*
X116331581Y-144214171D02*
X116731581Y-144214171D01*
X116903009Y-144842742D02*
X116331581Y-144842742D01*
X116331581Y-144842742D02*
X116331581Y-143642742D01*
X116331581Y-143642742D02*
X116903009Y-143642742D01*
X117417295Y-144842742D02*
X117417295Y-143642742D01*
X117417295Y-143642742D02*
X118103009Y-144842742D01*
X118103009Y-144842742D02*
X118103009Y-143642742D01*
X118503009Y-143642742D02*
X119188724Y-143642742D01*
X118845866Y-144842742D02*
X118845866Y-143642742D01*
X121360153Y-143585600D02*
X120331581Y-145128457D01*
X123074439Y-144214171D02*
X123245867Y-144271314D01*
X123245867Y-144271314D02*
X123303010Y-144328457D01*
X123303010Y-144328457D02*
X123360153Y-144442742D01*
X123360153Y-144442742D02*
X123360153Y-144614171D01*
X123360153Y-144614171D02*
X123303010Y-144728457D01*
X123303010Y-144728457D02*
X123245867Y-144785600D01*
X123245867Y-144785600D02*
X123131582Y-144842742D01*
X123131582Y-144842742D02*
X122674439Y-144842742D01*
X122674439Y-144842742D02*
X122674439Y-143642742D01*
X122674439Y-143642742D02*
X123074439Y-143642742D01*
X123074439Y-143642742D02*
X123188725Y-143699885D01*
X123188725Y-143699885D02*
X123245867Y-143757028D01*
X123245867Y-143757028D02*
X123303010Y-143871314D01*
X123303010Y-143871314D02*
X123303010Y-143985600D01*
X123303010Y-143985600D02*
X123245867Y-144099885D01*
X123245867Y-144099885D02*
X123188725Y-144157028D01*
X123188725Y-144157028D02*
X123074439Y-144214171D01*
X123074439Y-144214171D02*
X122674439Y-144214171D01*
X123874439Y-144728457D02*
X123931582Y-144785600D01*
X123931582Y-144785600D02*
X123874439Y-144842742D01*
X123874439Y-144842742D02*
X123817296Y-144785600D01*
X123817296Y-144785600D02*
X123874439Y-144728457D01*
X123874439Y-144728457D02*
X123874439Y-144842742D01*
X125131582Y-144728457D02*
X125074439Y-144785600D01*
X125074439Y-144785600D02*
X124903011Y-144842742D01*
X124903011Y-144842742D02*
X124788725Y-144842742D01*
X124788725Y-144842742D02*
X124617296Y-144785600D01*
X124617296Y-144785600D02*
X124503011Y-144671314D01*
X124503011Y-144671314D02*
X124445868Y-144557028D01*
X124445868Y-144557028D02*
X124388725Y-144328457D01*
X124388725Y-144328457D02*
X124388725Y-144157028D01*
X124388725Y-144157028D02*
X124445868Y-143928457D01*
X124445868Y-143928457D02*
X124503011Y-143814171D01*
X124503011Y-143814171D02*
X124617296Y-143699885D01*
X124617296Y-143699885D02*
X124788725Y-143642742D01*
X124788725Y-143642742D02*
X124903011Y-143642742D01*
X124903011Y-143642742D02*
X125074439Y-143699885D01*
X125074439Y-143699885D02*
X125131582Y-143757028D01*
X126160154Y-144042742D02*
X126160154Y-144842742D01*
X125645868Y-144042742D02*
X125645868Y-144671314D01*
X125645868Y-144671314D02*
X125703011Y-144785600D01*
X125703011Y-144785600D02*
X125817296Y-144842742D01*
X125817296Y-144842742D02*
X125988725Y-144842742D01*
X125988725Y-144842742D02*
X126103011Y-144785600D01*
X126103011Y-144785600D02*
X126160154Y-144728457D01*
X127588725Y-143757028D02*
X127645868Y-143699885D01*
X127645868Y-143699885D02*
X127760154Y-143642742D01*
X127760154Y-143642742D02*
X128045868Y-143642742D01*
X128045868Y-143642742D02*
X128160154Y-143699885D01*
X128160154Y-143699885D02*
X128217296Y-143757028D01*
X128217296Y-143757028D02*
X128274439Y-143871314D01*
X128274439Y-143871314D02*
X128274439Y-143985600D01*
X128274439Y-143985600D02*
X128217296Y-144157028D01*
X128217296Y-144157028D02*
X127531582Y-144842742D01*
X127531582Y-144842742D02*
X128274439Y-144842742D01*
X128960153Y-144842742D02*
X128845868Y-144785600D01*
X128845868Y-144785600D02*
X128788725Y-144728457D01*
X128788725Y-144728457D02*
X128731582Y-144614171D01*
X128731582Y-144614171D02*
X128731582Y-144271314D01*
X128731582Y-144271314D02*
X128788725Y-144157028D01*
X128788725Y-144157028D02*
X128845868Y-144099885D01*
X128845868Y-144099885D02*
X128960153Y-144042742D01*
X128960153Y-144042742D02*
X129131582Y-144042742D01*
X129131582Y-144042742D02*
X129245868Y-144099885D01*
X129245868Y-144099885D02*
X129303011Y-144157028D01*
X129303011Y-144157028D02*
X129360153Y-144271314D01*
X129360153Y-144271314D02*
X129360153Y-144614171D01*
X129360153Y-144614171D02*
X129303011Y-144728457D01*
X129303011Y-144728457D02*
X129245868Y-144785600D01*
X129245868Y-144785600D02*
X129131582Y-144842742D01*
X129131582Y-144842742D02*
X128960153Y-144842742D01*
X129760153Y-144042742D02*
X130388725Y-144042742D01*
X130388725Y-144042742D02*
X129760153Y-144842742D01*
X129760153Y-144842742D02*
X130388725Y-144842742D01*
X131703011Y-144785600D02*
X131817297Y-144842742D01*
X131817297Y-144842742D02*
X132045868Y-144842742D01*
X132045868Y-144842742D02*
X132160154Y-144785600D01*
X132160154Y-144785600D02*
X132217297Y-144671314D01*
X132217297Y-144671314D02*
X132217297Y-144614171D01*
X132217297Y-144614171D02*
X132160154Y-144499885D01*
X132160154Y-144499885D02*
X132045868Y-144442742D01*
X132045868Y-144442742D02*
X131874440Y-144442742D01*
X131874440Y-144442742D02*
X131760154Y-144385600D01*
X131760154Y-144385600D02*
X131703011Y-144271314D01*
X131703011Y-144271314D02*
X131703011Y-144214171D01*
X131703011Y-144214171D02*
X131760154Y-144099885D01*
X131760154Y-144099885D02*
X131874440Y-144042742D01*
X131874440Y-144042742D02*
X132045868Y-144042742D01*
X132045868Y-144042742D02*
X132160154Y-144099885D01*
X132731583Y-144842742D02*
X132731583Y-144042742D01*
X132731583Y-143642742D02*
X132674440Y-143699885D01*
X132674440Y-143699885D02*
X132731583Y-143757028D01*
X132731583Y-143757028D02*
X132788726Y-143699885D01*
X132788726Y-143699885D02*
X132731583Y-143642742D01*
X132731583Y-143642742D02*
X132731583Y-143757028D01*
X133817298Y-144042742D02*
X133817298Y-145014171D01*
X133817298Y-145014171D02*
X133760155Y-145128457D01*
X133760155Y-145128457D02*
X133703012Y-145185600D01*
X133703012Y-145185600D02*
X133588726Y-145242742D01*
X133588726Y-145242742D02*
X133417298Y-145242742D01*
X133417298Y-145242742D02*
X133303012Y-145185600D01*
X133817298Y-144785600D02*
X133703012Y-144842742D01*
X133703012Y-144842742D02*
X133474440Y-144842742D01*
X133474440Y-144842742D02*
X133360155Y-144785600D01*
X133360155Y-144785600D02*
X133303012Y-144728457D01*
X133303012Y-144728457D02*
X133245869Y-144614171D01*
X133245869Y-144614171D02*
X133245869Y-144271314D01*
X133245869Y-144271314D02*
X133303012Y-144157028D01*
X133303012Y-144157028D02*
X133360155Y-144099885D01*
X133360155Y-144099885D02*
X133474440Y-144042742D01*
X133474440Y-144042742D02*
X133703012Y-144042742D01*
X133703012Y-144042742D02*
X133817298Y-144099885D01*
X134388726Y-144042742D02*
X134388726Y-144842742D01*
X134388726Y-144157028D02*
X134445869Y-144099885D01*
X134445869Y-144099885D02*
X134560154Y-144042742D01*
X134560154Y-144042742D02*
X134731583Y-144042742D01*
X134731583Y-144042742D02*
X134845869Y-144099885D01*
X134845869Y-144099885D02*
X134903012Y-144214171D01*
X134903012Y-144214171D02*
X134903012Y-144842742D01*
X135988726Y-144842742D02*
X135988726Y-144214171D01*
X135988726Y-144214171D02*
X135931583Y-144099885D01*
X135931583Y-144099885D02*
X135817297Y-144042742D01*
X135817297Y-144042742D02*
X135588726Y-144042742D01*
X135588726Y-144042742D02*
X135474440Y-144099885D01*
X135988726Y-144785600D02*
X135874440Y-144842742D01*
X135874440Y-144842742D02*
X135588726Y-144842742D01*
X135588726Y-144842742D02*
X135474440Y-144785600D01*
X135474440Y-144785600D02*
X135417297Y-144671314D01*
X135417297Y-144671314D02*
X135417297Y-144557028D01*
X135417297Y-144557028D02*
X135474440Y-144442742D01*
X135474440Y-144442742D02*
X135588726Y-144385600D01*
X135588726Y-144385600D02*
X135874440Y-144385600D01*
X135874440Y-144385600D02*
X135988726Y-144328457D01*
X136731582Y-144842742D02*
X136617297Y-144785600D01*
X136617297Y-144785600D02*
X136560154Y-144671314D01*
X136560154Y-144671314D02*
X136560154Y-143642742D01*
X138103011Y-144385600D02*
X139017297Y-144385600D01*
X140503011Y-144214171D02*
X140903011Y-144214171D01*
X141074439Y-144842742D02*
X140503011Y-144842742D01*
X140503011Y-144842742D02*
X140503011Y-143642742D01*
X140503011Y-143642742D02*
X141074439Y-143642742D01*
X141588725Y-144842742D02*
X141588725Y-143642742D01*
X141588725Y-143642742D02*
X142274439Y-144842742D01*
X142274439Y-144842742D02*
X142274439Y-143642742D01*
X142845868Y-144842742D02*
X142845868Y-143642742D01*
X144045868Y-143699885D02*
X143931583Y-143642742D01*
X143931583Y-143642742D02*
X143760154Y-143642742D01*
X143760154Y-143642742D02*
X143588725Y-143699885D01*
X143588725Y-143699885D02*
X143474440Y-143814171D01*
X143474440Y-143814171D02*
X143417297Y-143928457D01*
X143417297Y-143928457D02*
X143360154Y-144157028D01*
X143360154Y-144157028D02*
X143360154Y-144328457D01*
X143360154Y-144328457D02*
X143417297Y-144557028D01*
X143417297Y-144557028D02*
X143474440Y-144671314D01*
X143474440Y-144671314D02*
X143588725Y-144785600D01*
X143588725Y-144785600D02*
X143760154Y-144842742D01*
X143760154Y-144842742D02*
X143874440Y-144842742D01*
X143874440Y-144842742D02*
X144045868Y-144785600D01*
X144045868Y-144785600D02*
X144103011Y-144728457D01*
X144103011Y-144728457D02*
X144103011Y-144328457D01*
X144103011Y-144328457D02*
X143874440Y-144328457D01*
X110068430Y-56246742D02*
X110068430Y-55046742D01*
X110582716Y-56189600D02*
X110754145Y-56246742D01*
X110754145Y-56246742D02*
X111039859Y-56246742D01*
X111039859Y-56246742D02*
X111154145Y-56189600D01*
X111154145Y-56189600D02*
X111211287Y-56132457D01*
X111211287Y-56132457D02*
X111268430Y-56018171D01*
X111268430Y-56018171D02*
X111268430Y-55903885D01*
X111268430Y-55903885D02*
X111211287Y-55789600D01*
X111211287Y-55789600D02*
X111154145Y-55732457D01*
X111154145Y-55732457D02*
X111039859Y-55675314D01*
X111039859Y-55675314D02*
X110811287Y-55618171D01*
X110811287Y-55618171D02*
X110697002Y-55561028D01*
X110697002Y-55561028D02*
X110639859Y-55503885D01*
X110639859Y-55503885D02*
X110582716Y-55389600D01*
X110582716Y-55389600D02*
X110582716Y-55275314D01*
X110582716Y-55275314D02*
X110639859Y-55161028D01*
X110639859Y-55161028D02*
X110697002Y-55103885D01*
X110697002Y-55103885D02*
X110811287Y-55046742D01*
X110811287Y-55046742D02*
X111097002Y-55046742D01*
X111097002Y-55046742D02*
X111268430Y-55103885D01*
X112011287Y-55046742D02*
X112239859Y-55046742D01*
X112239859Y-55046742D02*
X112354144Y-55103885D01*
X112354144Y-55103885D02*
X112468430Y-55218171D01*
X112468430Y-55218171D02*
X112525573Y-55446742D01*
X112525573Y-55446742D02*
X112525573Y-55846742D01*
X112525573Y-55846742D02*
X112468430Y-56075314D01*
X112468430Y-56075314D02*
X112354144Y-56189600D01*
X112354144Y-56189600D02*
X112239859Y-56246742D01*
X112239859Y-56246742D02*
X112011287Y-56246742D01*
X112011287Y-56246742D02*
X111897002Y-56189600D01*
X111897002Y-56189600D02*
X111782716Y-56075314D01*
X111782716Y-56075314D02*
X111725573Y-55846742D01*
X111725573Y-55846742D02*
X111725573Y-55446742D01*
X111725573Y-55446742D02*
X111782716Y-55218171D01*
X111782716Y-55218171D02*
X111897002Y-55103885D01*
X111897002Y-55103885D02*
X112011287Y-55046742D01*
X113839859Y-55046742D02*
X114639859Y-55046742D01*
X114639859Y-55046742D02*
X114125573Y-56246742D01*
X115325573Y-55046742D02*
X115439859Y-55046742D01*
X115439859Y-55046742D02*
X115554145Y-55103885D01*
X115554145Y-55103885D02*
X115611288Y-55161028D01*
X115611288Y-55161028D02*
X115668430Y-55275314D01*
X115668430Y-55275314D02*
X115725573Y-55503885D01*
X115725573Y-55503885D02*
X115725573Y-55789600D01*
X115725573Y-55789600D02*
X115668430Y-56018171D01*
X115668430Y-56018171D02*
X115611288Y-56132457D01*
X115611288Y-56132457D02*
X115554145Y-56189600D01*
X115554145Y-56189600D02*
X115439859Y-56246742D01*
X115439859Y-56246742D02*
X115325573Y-56246742D01*
X115325573Y-56246742D02*
X115211288Y-56189600D01*
X115211288Y-56189600D02*
X115154145Y-56132457D01*
X115154145Y-56132457D02*
X115097002Y-56018171D01*
X115097002Y-56018171D02*
X115039859Y-55789600D01*
X115039859Y-55789600D02*
X115039859Y-55503885D01*
X115039859Y-55503885D02*
X115097002Y-55275314D01*
X115097002Y-55275314D02*
X115154145Y-55161028D01*
X115154145Y-55161028D02*
X115211288Y-55103885D01*
X115211288Y-55103885D02*
X115325573Y-55046742D01*
X116868430Y-56246742D02*
X116182716Y-56246742D01*
X116525573Y-56246742D02*
X116525573Y-55046742D01*
X116525573Y-55046742D02*
X116411287Y-55218171D01*
X116411287Y-55218171D02*
X116297002Y-55332457D01*
X116297002Y-55332457D02*
X116182716Y-55389600D01*
X117611287Y-55046742D02*
X117725573Y-55046742D01*
X117725573Y-55046742D02*
X117839859Y-55103885D01*
X117839859Y-55103885D02*
X117897002Y-55161028D01*
X117897002Y-55161028D02*
X117954144Y-55275314D01*
X117954144Y-55275314D02*
X118011287Y-55503885D01*
X118011287Y-55503885D02*
X118011287Y-55789600D01*
X118011287Y-55789600D02*
X117954144Y-56018171D01*
X117954144Y-56018171D02*
X117897002Y-56132457D01*
X117897002Y-56132457D02*
X117839859Y-56189600D01*
X117839859Y-56189600D02*
X117725573Y-56246742D01*
X117725573Y-56246742D02*
X117611287Y-56246742D01*
X117611287Y-56246742D02*
X117497002Y-56189600D01*
X117497002Y-56189600D02*
X117439859Y-56132457D01*
X117439859Y-56132457D02*
X117382716Y-56018171D01*
X117382716Y-56018171D02*
X117325573Y-55789600D01*
X117325573Y-55789600D02*
X117325573Y-55503885D01*
X117325573Y-55503885D02*
X117382716Y-55275314D01*
X117382716Y-55275314D02*
X117439859Y-55161028D01*
X117439859Y-55161028D02*
X117497002Y-55103885D01*
X117497002Y-55103885D02*
X117611287Y-55046742D01*
X119325573Y-55046742D02*
X119611287Y-56246742D01*
X119611287Y-56246742D02*
X119839859Y-55389600D01*
X119839859Y-55389600D02*
X120068430Y-56246742D01*
X120068430Y-56246742D02*
X120354145Y-55046742D01*
X121039859Y-55046742D02*
X121154145Y-55046742D01*
X121154145Y-55046742D02*
X121268431Y-55103885D01*
X121268431Y-55103885D02*
X121325574Y-55161028D01*
X121325574Y-55161028D02*
X121382716Y-55275314D01*
X121382716Y-55275314D02*
X121439859Y-55503885D01*
X121439859Y-55503885D02*
X121439859Y-55789600D01*
X121439859Y-55789600D02*
X121382716Y-56018171D01*
X121382716Y-56018171D02*
X121325574Y-56132457D01*
X121325574Y-56132457D02*
X121268431Y-56189600D01*
X121268431Y-56189600D02*
X121154145Y-56246742D01*
X121154145Y-56246742D02*
X121039859Y-56246742D01*
X121039859Y-56246742D02*
X120925574Y-56189600D01*
X120925574Y-56189600D02*
X120868431Y-56132457D01*
X120868431Y-56132457D02*
X120811288Y-56018171D01*
X120811288Y-56018171D02*
X120754145Y-55789600D01*
X120754145Y-55789600D02*
X120754145Y-55503885D01*
X120754145Y-55503885D02*
X120811288Y-55275314D01*
X120811288Y-55275314D02*
X120868431Y-55161028D01*
X120868431Y-55161028D02*
X120925574Y-55103885D01*
X120925574Y-55103885D02*
X121039859Y-55046742D01*
X122182716Y-55046742D02*
X122297002Y-55046742D01*
X122297002Y-55046742D02*
X122411288Y-55103885D01*
X122411288Y-55103885D02*
X122468431Y-55161028D01*
X122468431Y-55161028D02*
X122525573Y-55275314D01*
X122525573Y-55275314D02*
X122582716Y-55503885D01*
X122582716Y-55503885D02*
X122582716Y-55789600D01*
X122582716Y-55789600D02*
X122525573Y-56018171D01*
X122525573Y-56018171D02*
X122468431Y-56132457D01*
X122468431Y-56132457D02*
X122411288Y-56189600D01*
X122411288Y-56189600D02*
X122297002Y-56246742D01*
X122297002Y-56246742D02*
X122182716Y-56246742D01*
X122182716Y-56246742D02*
X122068431Y-56189600D01*
X122068431Y-56189600D02*
X122011288Y-56132457D01*
X122011288Y-56132457D02*
X121954145Y-56018171D01*
X121954145Y-56018171D02*
X121897002Y-55789600D01*
X121897002Y-55789600D02*
X121897002Y-55503885D01*
X121897002Y-55503885D02*
X121954145Y-55275314D01*
X121954145Y-55275314D02*
X122011288Y-55161028D01*
X122011288Y-55161028D02*
X122068431Y-55103885D01*
X122068431Y-55103885D02*
X122182716Y-55046742D01*
X123611288Y-55046742D02*
X123382716Y-55046742D01*
X123382716Y-55046742D02*
X123268430Y-55103885D01*
X123268430Y-55103885D02*
X123211288Y-55161028D01*
X123211288Y-55161028D02*
X123097002Y-55332457D01*
X123097002Y-55332457D02*
X123039859Y-55561028D01*
X123039859Y-55561028D02*
X123039859Y-56018171D01*
X123039859Y-56018171D02*
X123097002Y-56132457D01*
X123097002Y-56132457D02*
X123154145Y-56189600D01*
X123154145Y-56189600D02*
X123268430Y-56246742D01*
X123268430Y-56246742D02*
X123497002Y-56246742D01*
X123497002Y-56246742D02*
X123611288Y-56189600D01*
X123611288Y-56189600D02*
X123668430Y-56132457D01*
X123668430Y-56132457D02*
X123725573Y-56018171D01*
X123725573Y-56018171D02*
X123725573Y-55732457D01*
X123725573Y-55732457D02*
X123668430Y-55618171D01*
X123668430Y-55618171D02*
X123611288Y-55561028D01*
X123611288Y-55561028D02*
X123497002Y-55503885D01*
X123497002Y-55503885D02*
X123268430Y-55503885D01*
X123268430Y-55503885D02*
X123154145Y-55561028D01*
X123154145Y-55561028D02*
X123097002Y-55618171D01*
X123097002Y-55618171D02*
X123039859Y-55732457D01*
X125154145Y-56246742D02*
X125154145Y-55446742D01*
X125154145Y-55561028D02*
X125211288Y-55503885D01*
X125211288Y-55503885D02*
X125325573Y-55446742D01*
X125325573Y-55446742D02*
X125497002Y-55446742D01*
X125497002Y-55446742D02*
X125611288Y-55503885D01*
X125611288Y-55503885D02*
X125668431Y-55618171D01*
X125668431Y-55618171D02*
X125668431Y-56246742D01*
X125668431Y-55618171D02*
X125725573Y-55503885D01*
X125725573Y-55503885D02*
X125839859Y-55446742D01*
X125839859Y-55446742D02*
X126011288Y-55446742D01*
X126011288Y-55446742D02*
X126125573Y-55503885D01*
X126125573Y-55503885D02*
X126182716Y-55618171D01*
X126182716Y-55618171D02*
X126182716Y-56246742D01*
X127268431Y-56246742D02*
X127268431Y-55618171D01*
X127268431Y-55618171D02*
X127211288Y-55503885D01*
X127211288Y-55503885D02*
X127097002Y-55446742D01*
X127097002Y-55446742D02*
X126868431Y-55446742D01*
X126868431Y-55446742D02*
X126754145Y-55503885D01*
X127268431Y-56189600D02*
X127154145Y-56246742D01*
X127154145Y-56246742D02*
X126868431Y-56246742D01*
X126868431Y-56246742D02*
X126754145Y-56189600D01*
X126754145Y-56189600D02*
X126697002Y-56075314D01*
X126697002Y-56075314D02*
X126697002Y-55961028D01*
X126697002Y-55961028D02*
X126754145Y-55846742D01*
X126754145Y-55846742D02*
X126868431Y-55789600D01*
X126868431Y-55789600D02*
X127154145Y-55789600D01*
X127154145Y-55789600D02*
X127268431Y-55732457D01*
X128354145Y-55446742D02*
X128354145Y-56418171D01*
X128354145Y-56418171D02*
X128297002Y-56532457D01*
X128297002Y-56532457D02*
X128239859Y-56589600D01*
X128239859Y-56589600D02*
X128125573Y-56646742D01*
X128125573Y-56646742D02*
X127954145Y-56646742D01*
X127954145Y-56646742D02*
X127839859Y-56589600D01*
X128354145Y-56189600D02*
X128239859Y-56246742D01*
X128239859Y-56246742D02*
X128011287Y-56246742D01*
X128011287Y-56246742D02*
X127897002Y-56189600D01*
X127897002Y-56189600D02*
X127839859Y-56132457D01*
X127839859Y-56132457D02*
X127782716Y-56018171D01*
X127782716Y-56018171D02*
X127782716Y-55675314D01*
X127782716Y-55675314D02*
X127839859Y-55561028D01*
X127839859Y-55561028D02*
X127897002Y-55503885D01*
X127897002Y-55503885D02*
X128011287Y-55446742D01*
X128011287Y-55446742D02*
X128239859Y-55446742D01*
X128239859Y-55446742D02*
X128354145Y-55503885D01*
X128925573Y-55446742D02*
X128925573Y-56246742D01*
X128925573Y-55561028D02*
X128982716Y-55503885D01*
X128982716Y-55503885D02*
X129097001Y-55446742D01*
X129097001Y-55446742D02*
X129268430Y-55446742D01*
X129268430Y-55446742D02*
X129382716Y-55503885D01*
X129382716Y-55503885D02*
X129439859Y-55618171D01*
X129439859Y-55618171D02*
X129439859Y-56246742D01*
X130468430Y-56189600D02*
X130354144Y-56246742D01*
X130354144Y-56246742D02*
X130125573Y-56246742D01*
X130125573Y-56246742D02*
X130011287Y-56189600D01*
X130011287Y-56189600D02*
X129954144Y-56075314D01*
X129954144Y-56075314D02*
X129954144Y-55618171D01*
X129954144Y-55618171D02*
X130011287Y-55503885D01*
X130011287Y-55503885D02*
X130125573Y-55446742D01*
X130125573Y-55446742D02*
X130354144Y-55446742D01*
X130354144Y-55446742D02*
X130468430Y-55503885D01*
X130468430Y-55503885D02*
X130525573Y-55618171D01*
X130525573Y-55618171D02*
X130525573Y-55732457D01*
X130525573Y-55732457D02*
X129954144Y-55846742D01*
X130868429Y-55446742D02*
X131325572Y-55446742D01*
X131039858Y-55046742D02*
X131039858Y-56075314D01*
X131039858Y-56075314D02*
X131097001Y-56189600D01*
X131097001Y-56189600D02*
X131211286Y-56246742D01*
X131211286Y-56246742D02*
X131325572Y-56246742D01*
X131725572Y-56246742D02*
X131725572Y-55446742D01*
X131725572Y-55046742D02*
X131668429Y-55103885D01*
X131668429Y-55103885D02*
X131725572Y-55161028D01*
X131725572Y-55161028D02*
X131782715Y-55103885D01*
X131782715Y-55103885D02*
X131725572Y-55046742D01*
X131725572Y-55046742D02*
X131725572Y-55161028D01*
X132811287Y-56189600D02*
X132697001Y-56246742D01*
X132697001Y-56246742D02*
X132468429Y-56246742D01*
X132468429Y-56246742D02*
X132354144Y-56189600D01*
X132354144Y-56189600D02*
X132297001Y-56132457D01*
X132297001Y-56132457D02*
X132239858Y-56018171D01*
X132239858Y-56018171D02*
X132239858Y-55675314D01*
X132239858Y-55675314D02*
X132297001Y-55561028D01*
X132297001Y-55561028D02*
X132354144Y-55503885D01*
X132354144Y-55503885D02*
X132468429Y-55446742D01*
X132468429Y-55446742D02*
X132697001Y-55446742D01*
X132697001Y-55446742D02*
X132811287Y-55503885D01*
X133325572Y-55789600D02*
X134239858Y-55789600D01*
X134639857Y-55446742D02*
X135097000Y-55446742D01*
X134811286Y-56246742D02*
X134811286Y-55218171D01*
X134811286Y-55218171D02*
X134868429Y-55103885D01*
X134868429Y-55103885D02*
X134982714Y-55046742D01*
X134982714Y-55046742D02*
X135097000Y-55046742D01*
X135497000Y-56246742D02*
X135497000Y-55446742D01*
X135497000Y-55046742D02*
X135439857Y-55103885D01*
X135439857Y-55103885D02*
X135497000Y-55161028D01*
X135497000Y-55161028D02*
X135554143Y-55103885D01*
X135554143Y-55103885D02*
X135497000Y-55046742D01*
X135497000Y-55046742D02*
X135497000Y-55161028D01*
X136525572Y-56189600D02*
X136411286Y-56246742D01*
X136411286Y-56246742D02*
X136182715Y-56246742D01*
X136182715Y-56246742D02*
X136068429Y-56189600D01*
X136068429Y-56189600D02*
X136011286Y-56075314D01*
X136011286Y-56075314D02*
X136011286Y-55618171D01*
X136011286Y-55618171D02*
X136068429Y-55503885D01*
X136068429Y-55503885D02*
X136182715Y-55446742D01*
X136182715Y-55446742D02*
X136411286Y-55446742D01*
X136411286Y-55446742D02*
X136525572Y-55503885D01*
X136525572Y-55503885D02*
X136582715Y-55618171D01*
X136582715Y-55618171D02*
X136582715Y-55732457D01*
X136582715Y-55732457D02*
X136011286Y-55846742D01*
X137268428Y-56246742D02*
X137154143Y-56189600D01*
X137154143Y-56189600D02*
X137097000Y-56075314D01*
X137097000Y-56075314D02*
X137097000Y-55046742D01*
X138239857Y-56246742D02*
X138239857Y-55046742D01*
X138239857Y-56189600D02*
X138125571Y-56246742D01*
X138125571Y-56246742D02*
X137896999Y-56246742D01*
X137896999Y-56246742D02*
X137782714Y-56189600D01*
X137782714Y-56189600D02*
X137725571Y-56132457D01*
X137725571Y-56132457D02*
X137668428Y-56018171D01*
X137668428Y-56018171D02*
X137668428Y-55675314D01*
X137668428Y-55675314D02*
X137725571Y-55561028D01*
X137725571Y-55561028D02*
X137782714Y-55503885D01*
X137782714Y-55503885D02*
X137896999Y-55446742D01*
X137896999Y-55446742D02*
X138125571Y-55446742D01*
X138125571Y-55446742D02*
X138239857Y-55503885D01*
X139611285Y-55446742D02*
X139839857Y-56246742D01*
X139839857Y-56246742D02*
X140068428Y-55675314D01*
X140068428Y-55675314D02*
X140296999Y-56246742D01*
X140296999Y-56246742D02*
X140525571Y-55446742D01*
X141497000Y-56246742D02*
X141497000Y-55618171D01*
X141497000Y-55618171D02*
X141439857Y-55503885D01*
X141439857Y-55503885D02*
X141325571Y-55446742D01*
X141325571Y-55446742D02*
X141097000Y-55446742D01*
X141097000Y-55446742D02*
X140982714Y-55503885D01*
X141497000Y-56189600D02*
X141382714Y-56246742D01*
X141382714Y-56246742D02*
X141097000Y-56246742D01*
X141097000Y-56246742D02*
X140982714Y-56189600D01*
X140982714Y-56189600D02*
X140925571Y-56075314D01*
X140925571Y-56075314D02*
X140925571Y-55961028D01*
X140925571Y-55961028D02*
X140982714Y-55846742D01*
X140982714Y-55846742D02*
X141097000Y-55789600D01*
X141097000Y-55789600D02*
X141382714Y-55789600D01*
X141382714Y-55789600D02*
X141497000Y-55732457D01*
X142068428Y-56246742D02*
X142068428Y-55446742D01*
X142068428Y-55675314D02*
X142125571Y-55561028D01*
X142125571Y-55561028D02*
X142182714Y-55503885D01*
X142182714Y-55503885D02*
X142296999Y-55446742D01*
X142296999Y-55446742D02*
X142411285Y-55446742D01*
X142811285Y-55446742D02*
X142811285Y-56246742D01*
X142811285Y-55561028D02*
X142868428Y-55503885D01*
X142868428Y-55503885D02*
X142982713Y-55446742D01*
X142982713Y-55446742D02*
X143154142Y-55446742D01*
X143154142Y-55446742D02*
X143268428Y-55503885D01*
X143268428Y-55503885D02*
X143325571Y-55618171D01*
X143325571Y-55618171D02*
X143325571Y-56246742D01*
X143896999Y-56246742D02*
X143896999Y-55446742D01*
X143896999Y-55046742D02*
X143839856Y-55103885D01*
X143839856Y-55103885D02*
X143896999Y-55161028D01*
X143896999Y-55161028D02*
X143954142Y-55103885D01*
X143954142Y-55103885D02*
X143896999Y-55046742D01*
X143896999Y-55046742D02*
X143896999Y-55161028D01*
X144468428Y-55446742D02*
X144468428Y-56246742D01*
X144468428Y-55561028D02*
X144525571Y-55503885D01*
X144525571Y-55503885D02*
X144639856Y-55446742D01*
X144639856Y-55446742D02*
X144811285Y-55446742D01*
X144811285Y-55446742D02*
X144925571Y-55503885D01*
X144925571Y-55503885D02*
X144982714Y-55618171D01*
X144982714Y-55618171D02*
X144982714Y-56246742D01*
X146068428Y-55446742D02*
X146068428Y-56418171D01*
X146068428Y-56418171D02*
X146011285Y-56532457D01*
X146011285Y-56532457D02*
X145954142Y-56589600D01*
X145954142Y-56589600D02*
X145839856Y-56646742D01*
X145839856Y-56646742D02*
X145668428Y-56646742D01*
X145668428Y-56646742D02*
X145554142Y-56589600D01*
X146068428Y-56189600D02*
X145954142Y-56246742D01*
X145954142Y-56246742D02*
X145725570Y-56246742D01*
X145725570Y-56246742D02*
X145611285Y-56189600D01*
X145611285Y-56189600D02*
X145554142Y-56132457D01*
X145554142Y-56132457D02*
X145496999Y-56018171D01*
X145496999Y-56018171D02*
X145496999Y-55675314D01*
X145496999Y-55675314D02*
X145554142Y-55561028D01*
X145554142Y-55561028D02*
X145611285Y-55503885D01*
X145611285Y-55503885D02*
X145725570Y-55446742D01*
X145725570Y-55446742D02*
X145954142Y-55446742D01*
X145954142Y-55446742D02*
X146068428Y-55503885D01*
X147725570Y-56246742D02*
X147611285Y-56189600D01*
X147611285Y-56189600D02*
X147554142Y-56075314D01*
X147554142Y-56075314D02*
X147554142Y-55046742D01*
X148696999Y-56246742D02*
X148696999Y-55618171D01*
X148696999Y-55618171D02*
X148639856Y-55503885D01*
X148639856Y-55503885D02*
X148525570Y-55446742D01*
X148525570Y-55446742D02*
X148296999Y-55446742D01*
X148296999Y-55446742D02*
X148182713Y-55503885D01*
X148696999Y-56189600D02*
X148582713Y-56246742D01*
X148582713Y-56246742D02*
X148296999Y-56246742D01*
X148296999Y-56246742D02*
X148182713Y-56189600D01*
X148182713Y-56189600D02*
X148125570Y-56075314D01*
X148125570Y-56075314D02*
X148125570Y-55961028D01*
X148125570Y-55961028D02*
X148182713Y-55846742D01*
X148182713Y-55846742D02*
X148296999Y-55789600D01*
X148296999Y-55789600D02*
X148582713Y-55789600D01*
X148582713Y-55789600D02*
X148696999Y-55732457D01*
X149268427Y-56246742D02*
X149268427Y-55046742D01*
X149268427Y-55503885D02*
X149382713Y-55446742D01*
X149382713Y-55446742D02*
X149611284Y-55446742D01*
X149611284Y-55446742D02*
X149725570Y-55503885D01*
X149725570Y-55503885D02*
X149782713Y-55561028D01*
X149782713Y-55561028D02*
X149839855Y-55675314D01*
X149839855Y-55675314D02*
X149839855Y-56018171D01*
X149839855Y-56018171D02*
X149782713Y-56132457D01*
X149782713Y-56132457D02*
X149725570Y-56189600D01*
X149725570Y-56189600D02*
X149611284Y-56246742D01*
X149611284Y-56246742D02*
X149382713Y-56246742D01*
X149382713Y-56246742D02*
X149268427Y-56189600D01*
X150811284Y-56189600D02*
X150696998Y-56246742D01*
X150696998Y-56246742D02*
X150468427Y-56246742D01*
X150468427Y-56246742D02*
X150354141Y-56189600D01*
X150354141Y-56189600D02*
X150296998Y-56075314D01*
X150296998Y-56075314D02*
X150296998Y-55618171D01*
X150296998Y-55618171D02*
X150354141Y-55503885D01*
X150354141Y-55503885D02*
X150468427Y-55446742D01*
X150468427Y-55446742D02*
X150696998Y-55446742D01*
X150696998Y-55446742D02*
X150811284Y-55503885D01*
X150811284Y-55503885D02*
X150868427Y-55618171D01*
X150868427Y-55618171D02*
X150868427Y-55732457D01*
X150868427Y-55732457D02*
X150296998Y-55846742D01*
X151554140Y-56246742D02*
X151439855Y-56189600D01*
X151439855Y-56189600D02*
X151382712Y-56075314D01*
X151382712Y-56075314D02*
X151382712Y-55046742D01*
X153439855Y-55446742D02*
X153439855Y-56418171D01*
X153439855Y-56418171D02*
X153382712Y-56532457D01*
X153382712Y-56532457D02*
X153325569Y-56589600D01*
X153325569Y-56589600D02*
X153211283Y-56646742D01*
X153211283Y-56646742D02*
X153039855Y-56646742D01*
X153039855Y-56646742D02*
X152925569Y-56589600D01*
X153439855Y-56189600D02*
X153325569Y-56246742D01*
X153325569Y-56246742D02*
X153096997Y-56246742D01*
X153096997Y-56246742D02*
X152982712Y-56189600D01*
X152982712Y-56189600D02*
X152925569Y-56132457D01*
X152925569Y-56132457D02*
X152868426Y-56018171D01*
X152868426Y-56018171D02*
X152868426Y-55675314D01*
X152868426Y-55675314D02*
X152925569Y-55561028D01*
X152925569Y-55561028D02*
X152982712Y-55503885D01*
X152982712Y-55503885D02*
X153096997Y-55446742D01*
X153096997Y-55446742D02*
X153325569Y-55446742D01*
X153325569Y-55446742D02*
X153439855Y-55503885D01*
X154182711Y-56246742D02*
X154068426Y-56189600D01*
X154068426Y-56189600D02*
X154011283Y-56132457D01*
X154011283Y-56132457D02*
X153954140Y-56018171D01*
X153954140Y-56018171D02*
X153954140Y-55675314D01*
X153954140Y-55675314D02*
X154011283Y-55561028D01*
X154011283Y-55561028D02*
X154068426Y-55503885D01*
X154068426Y-55503885D02*
X154182711Y-55446742D01*
X154182711Y-55446742D02*
X154354140Y-55446742D01*
X154354140Y-55446742D02*
X154468426Y-55503885D01*
X154468426Y-55503885D02*
X154525569Y-55561028D01*
X154525569Y-55561028D02*
X154582711Y-55675314D01*
X154582711Y-55675314D02*
X154582711Y-56018171D01*
X154582711Y-56018171D02*
X154525569Y-56132457D01*
X154525569Y-56132457D02*
X154468426Y-56189600D01*
X154468426Y-56189600D02*
X154354140Y-56246742D01*
X154354140Y-56246742D02*
X154182711Y-56246742D01*
X155554140Y-56189600D02*
X155439854Y-56246742D01*
X155439854Y-56246742D02*
X155211283Y-56246742D01*
X155211283Y-56246742D02*
X155096997Y-56189600D01*
X155096997Y-56189600D02*
X155039854Y-56075314D01*
X155039854Y-56075314D02*
X155039854Y-55618171D01*
X155039854Y-55618171D02*
X155096997Y-55503885D01*
X155096997Y-55503885D02*
X155211283Y-55446742D01*
X155211283Y-55446742D02*
X155439854Y-55446742D01*
X155439854Y-55446742D02*
X155554140Y-55503885D01*
X155554140Y-55503885D02*
X155611283Y-55618171D01*
X155611283Y-55618171D02*
X155611283Y-55732457D01*
X155611283Y-55732457D02*
X155039854Y-55846742D01*
X156068425Y-56189600D02*
X156182711Y-56246742D01*
X156182711Y-56246742D02*
X156411282Y-56246742D01*
X156411282Y-56246742D02*
X156525568Y-56189600D01*
X156525568Y-56189600D02*
X156582711Y-56075314D01*
X156582711Y-56075314D02*
X156582711Y-56018171D01*
X156582711Y-56018171D02*
X156525568Y-55903885D01*
X156525568Y-55903885D02*
X156411282Y-55846742D01*
X156411282Y-55846742D02*
X156239854Y-55846742D01*
X156239854Y-55846742D02*
X156125568Y-55789600D01*
X156125568Y-55789600D02*
X156068425Y-55675314D01*
X156068425Y-55675314D02*
X156068425Y-55618171D01*
X156068425Y-55618171D02*
X156125568Y-55503885D01*
X156125568Y-55503885D02*
X156239854Y-55446742D01*
X156239854Y-55446742D02*
X156411282Y-55446742D01*
X156411282Y-55446742D02*
X156525568Y-55503885D01*
X158011283Y-56246742D02*
X158011283Y-55046742D01*
X158525569Y-56246742D02*
X158525569Y-55618171D01*
X158525569Y-55618171D02*
X158468426Y-55503885D01*
X158468426Y-55503885D02*
X158354140Y-55446742D01*
X158354140Y-55446742D02*
X158182711Y-55446742D01*
X158182711Y-55446742D02*
X158068426Y-55503885D01*
X158068426Y-55503885D02*
X158011283Y-55561028D01*
X159554140Y-56189600D02*
X159439854Y-56246742D01*
X159439854Y-56246742D02*
X159211283Y-56246742D01*
X159211283Y-56246742D02*
X159096997Y-56189600D01*
X159096997Y-56189600D02*
X159039854Y-56075314D01*
X159039854Y-56075314D02*
X159039854Y-55618171D01*
X159039854Y-55618171D02*
X159096997Y-55503885D01*
X159096997Y-55503885D02*
X159211283Y-55446742D01*
X159211283Y-55446742D02*
X159439854Y-55446742D01*
X159439854Y-55446742D02*
X159554140Y-55503885D01*
X159554140Y-55503885D02*
X159611283Y-55618171D01*
X159611283Y-55618171D02*
X159611283Y-55732457D01*
X159611283Y-55732457D02*
X159039854Y-55846742D01*
X160125568Y-56246742D02*
X160125568Y-55446742D01*
X160125568Y-55675314D02*
X160182711Y-55561028D01*
X160182711Y-55561028D02*
X160239854Y-55503885D01*
X160239854Y-55503885D02*
X160354139Y-55446742D01*
X160354139Y-55446742D02*
X160468425Y-55446742D01*
X161325568Y-56189600D02*
X161211282Y-56246742D01*
X161211282Y-56246742D02*
X160982711Y-56246742D01*
X160982711Y-56246742D02*
X160868425Y-56189600D01*
X160868425Y-56189600D02*
X160811282Y-56075314D01*
X160811282Y-56075314D02*
X160811282Y-55618171D01*
X160811282Y-55618171D02*
X160868425Y-55503885D01*
X160868425Y-55503885D02*
X160982711Y-55446742D01*
X160982711Y-55446742D02*
X161211282Y-55446742D01*
X161211282Y-55446742D02*
X161325568Y-55503885D01*
X161325568Y-55503885D02*
X161382711Y-55618171D01*
X161382711Y-55618171D02*
X161382711Y-55732457D01*
X161382711Y-55732457D02*
X160811282Y-55846742D01*
X163154139Y-56703885D02*
X163096996Y-56646742D01*
X163096996Y-56646742D02*
X162982710Y-56475314D01*
X162982710Y-56475314D02*
X162925568Y-56361028D01*
X162925568Y-56361028D02*
X162868425Y-56189600D01*
X162868425Y-56189600D02*
X162811282Y-55903885D01*
X162811282Y-55903885D02*
X162811282Y-55675314D01*
X162811282Y-55675314D02*
X162868425Y-55389600D01*
X162868425Y-55389600D02*
X162925568Y-55218171D01*
X162925568Y-55218171D02*
X162982710Y-55103885D01*
X162982710Y-55103885D02*
X163096996Y-54932457D01*
X163096996Y-54932457D02*
X163154139Y-54875314D01*
X163554139Y-56189600D02*
X163668425Y-56246742D01*
X163668425Y-56246742D02*
X163896996Y-56246742D01*
X163896996Y-56246742D02*
X164011282Y-56189600D01*
X164011282Y-56189600D02*
X164068425Y-56075314D01*
X164068425Y-56075314D02*
X164068425Y-56018171D01*
X164068425Y-56018171D02*
X164011282Y-55903885D01*
X164011282Y-55903885D02*
X163896996Y-55846742D01*
X163896996Y-55846742D02*
X163725568Y-55846742D01*
X163725568Y-55846742D02*
X163611282Y-55789600D01*
X163611282Y-55789600D02*
X163554139Y-55675314D01*
X163554139Y-55675314D02*
X163554139Y-55618171D01*
X163554139Y-55618171D02*
X163611282Y-55503885D01*
X163611282Y-55503885D02*
X163725568Y-55446742D01*
X163725568Y-55446742D02*
X163896996Y-55446742D01*
X163896996Y-55446742D02*
X164011282Y-55503885D01*
X164582711Y-56246742D02*
X164582711Y-55446742D01*
X164582711Y-55046742D02*
X164525568Y-55103885D01*
X164525568Y-55103885D02*
X164582711Y-55161028D01*
X164582711Y-55161028D02*
X164639854Y-55103885D01*
X164639854Y-55103885D02*
X164582711Y-55046742D01*
X164582711Y-55046742D02*
X164582711Y-55161028D01*
X165325568Y-56246742D02*
X165211283Y-56189600D01*
X165211283Y-56189600D02*
X165154140Y-56075314D01*
X165154140Y-56075314D02*
X165154140Y-55046742D01*
X165782711Y-56246742D02*
X165782711Y-55046742D01*
X165896997Y-55789600D02*
X166239854Y-56246742D01*
X166239854Y-55446742D02*
X165782711Y-55903885D01*
X166696997Y-56189600D02*
X166811283Y-56246742D01*
X166811283Y-56246742D02*
X167039854Y-56246742D01*
X167039854Y-56246742D02*
X167154140Y-56189600D01*
X167154140Y-56189600D02*
X167211283Y-56075314D01*
X167211283Y-56075314D02*
X167211283Y-56018171D01*
X167211283Y-56018171D02*
X167154140Y-55903885D01*
X167154140Y-55903885D02*
X167039854Y-55846742D01*
X167039854Y-55846742D02*
X166868426Y-55846742D01*
X166868426Y-55846742D02*
X166754140Y-55789600D01*
X166754140Y-55789600D02*
X166696997Y-55675314D01*
X166696997Y-55675314D02*
X166696997Y-55618171D01*
X166696997Y-55618171D02*
X166754140Y-55503885D01*
X166754140Y-55503885D02*
X166868426Y-55446742D01*
X166868426Y-55446742D02*
X167039854Y-55446742D01*
X167039854Y-55446742D02*
X167154140Y-55503885D01*
X168239855Y-56189600D02*
X168125569Y-56246742D01*
X168125569Y-56246742D02*
X167896997Y-56246742D01*
X167896997Y-56246742D02*
X167782712Y-56189600D01*
X167782712Y-56189600D02*
X167725569Y-56132457D01*
X167725569Y-56132457D02*
X167668426Y-56018171D01*
X167668426Y-56018171D02*
X167668426Y-55675314D01*
X167668426Y-55675314D02*
X167725569Y-55561028D01*
X167725569Y-55561028D02*
X167782712Y-55503885D01*
X167782712Y-55503885D02*
X167896997Y-55446742D01*
X167896997Y-55446742D02*
X168125569Y-55446742D01*
X168125569Y-55446742D02*
X168239855Y-55503885D01*
X168754140Y-56246742D02*
X168754140Y-55446742D01*
X168754140Y-55675314D02*
X168811283Y-55561028D01*
X168811283Y-55561028D02*
X168868426Y-55503885D01*
X168868426Y-55503885D02*
X168982711Y-55446742D01*
X168982711Y-55446742D02*
X169096997Y-55446742D01*
X169954140Y-56189600D02*
X169839854Y-56246742D01*
X169839854Y-56246742D02*
X169611283Y-56246742D01*
X169611283Y-56246742D02*
X169496997Y-56189600D01*
X169496997Y-56189600D02*
X169439854Y-56075314D01*
X169439854Y-56075314D02*
X169439854Y-55618171D01*
X169439854Y-55618171D02*
X169496997Y-55503885D01*
X169496997Y-55503885D02*
X169611283Y-55446742D01*
X169611283Y-55446742D02*
X169839854Y-55446742D01*
X169839854Y-55446742D02*
X169954140Y-55503885D01*
X169954140Y-55503885D02*
X170011283Y-55618171D01*
X170011283Y-55618171D02*
X170011283Y-55732457D01*
X170011283Y-55732457D02*
X169439854Y-55846742D01*
X170982711Y-56189600D02*
X170868425Y-56246742D01*
X170868425Y-56246742D02*
X170639854Y-56246742D01*
X170639854Y-56246742D02*
X170525568Y-56189600D01*
X170525568Y-56189600D02*
X170468425Y-56075314D01*
X170468425Y-56075314D02*
X170468425Y-55618171D01*
X170468425Y-55618171D02*
X170525568Y-55503885D01*
X170525568Y-55503885D02*
X170639854Y-55446742D01*
X170639854Y-55446742D02*
X170868425Y-55446742D01*
X170868425Y-55446742D02*
X170982711Y-55503885D01*
X170982711Y-55503885D02*
X171039854Y-55618171D01*
X171039854Y-55618171D02*
X171039854Y-55732457D01*
X171039854Y-55732457D02*
X170468425Y-55846742D01*
X171554139Y-55446742D02*
X171554139Y-56246742D01*
X171554139Y-55561028D02*
X171611282Y-55503885D01*
X171611282Y-55503885D02*
X171725567Y-55446742D01*
X171725567Y-55446742D02*
X171896996Y-55446742D01*
X171896996Y-55446742D02*
X172011282Y-55503885D01*
X172011282Y-55503885D02*
X172068425Y-55618171D01*
X172068425Y-55618171D02*
X172068425Y-56246742D01*
X173725567Y-56246742D02*
X173611282Y-56189600D01*
X173611282Y-56189600D02*
X173554139Y-56132457D01*
X173554139Y-56132457D02*
X173496996Y-56018171D01*
X173496996Y-56018171D02*
X173496996Y-55675314D01*
X173496996Y-55675314D02*
X173554139Y-55561028D01*
X173554139Y-55561028D02*
X173611282Y-55503885D01*
X173611282Y-55503885D02*
X173725567Y-55446742D01*
X173725567Y-55446742D02*
X173896996Y-55446742D01*
X173896996Y-55446742D02*
X174011282Y-55503885D01*
X174011282Y-55503885D02*
X174068425Y-55561028D01*
X174068425Y-55561028D02*
X174125567Y-55675314D01*
X174125567Y-55675314D02*
X174125567Y-56018171D01*
X174125567Y-56018171D02*
X174068425Y-56132457D01*
X174068425Y-56132457D02*
X174011282Y-56189600D01*
X174011282Y-56189600D02*
X173896996Y-56246742D01*
X173896996Y-56246742D02*
X173725567Y-56246742D01*
X174639853Y-56246742D02*
X174639853Y-55446742D01*
X174639853Y-55675314D02*
X174696996Y-55561028D01*
X174696996Y-55561028D02*
X174754139Y-55503885D01*
X174754139Y-55503885D02*
X174868424Y-55446742D01*
X174868424Y-55446742D02*
X174982710Y-55446742D01*
X176296996Y-56246742D02*
X176296996Y-55446742D01*
X176296996Y-55561028D02*
X176354139Y-55503885D01*
X176354139Y-55503885D02*
X176468424Y-55446742D01*
X176468424Y-55446742D02*
X176639853Y-55446742D01*
X176639853Y-55446742D02*
X176754139Y-55503885D01*
X176754139Y-55503885D02*
X176811282Y-55618171D01*
X176811282Y-55618171D02*
X176811282Y-56246742D01*
X176811282Y-55618171D02*
X176868424Y-55503885D01*
X176868424Y-55503885D02*
X176982710Y-55446742D01*
X176982710Y-55446742D02*
X177154139Y-55446742D01*
X177154139Y-55446742D02*
X177268424Y-55503885D01*
X177268424Y-55503885D02*
X177325567Y-55618171D01*
X177325567Y-55618171D02*
X177325567Y-56246742D01*
X178354139Y-56189600D02*
X178239853Y-56246742D01*
X178239853Y-56246742D02*
X178011282Y-56246742D01*
X178011282Y-56246742D02*
X177896996Y-56189600D01*
X177896996Y-56189600D02*
X177839853Y-56075314D01*
X177839853Y-56075314D02*
X177839853Y-55618171D01*
X177839853Y-55618171D02*
X177896996Y-55503885D01*
X177896996Y-55503885D02*
X178011282Y-55446742D01*
X178011282Y-55446742D02*
X178239853Y-55446742D01*
X178239853Y-55446742D02*
X178354139Y-55503885D01*
X178354139Y-55503885D02*
X178411282Y-55618171D01*
X178411282Y-55618171D02*
X178411282Y-55732457D01*
X178411282Y-55732457D02*
X177839853Y-55846742D01*
X179439853Y-56189600D02*
X179325567Y-56246742D01*
X179325567Y-56246742D02*
X179096995Y-56246742D01*
X179096995Y-56246742D02*
X178982710Y-56189600D01*
X178982710Y-56189600D02*
X178925567Y-56132457D01*
X178925567Y-56132457D02*
X178868424Y-56018171D01*
X178868424Y-56018171D02*
X178868424Y-55675314D01*
X178868424Y-55675314D02*
X178925567Y-55561028D01*
X178925567Y-55561028D02*
X178982710Y-55503885D01*
X178982710Y-55503885D02*
X179096995Y-55446742D01*
X179096995Y-55446742D02*
X179325567Y-55446742D01*
X179325567Y-55446742D02*
X179439853Y-55503885D01*
X179954138Y-56246742D02*
X179954138Y-55046742D01*
X180468424Y-56246742D02*
X180468424Y-55618171D01*
X180468424Y-55618171D02*
X180411281Y-55503885D01*
X180411281Y-55503885D02*
X180296995Y-55446742D01*
X180296995Y-55446742D02*
X180125566Y-55446742D01*
X180125566Y-55446742D02*
X180011281Y-55503885D01*
X180011281Y-55503885D02*
X179954138Y-55561028D01*
X181554138Y-56246742D02*
X181554138Y-55618171D01*
X181554138Y-55618171D02*
X181496995Y-55503885D01*
X181496995Y-55503885D02*
X181382709Y-55446742D01*
X181382709Y-55446742D02*
X181154138Y-55446742D01*
X181154138Y-55446742D02*
X181039852Y-55503885D01*
X181554138Y-56189600D02*
X181439852Y-56246742D01*
X181439852Y-56246742D02*
X181154138Y-56246742D01*
X181154138Y-56246742D02*
X181039852Y-56189600D01*
X181039852Y-56189600D02*
X180982709Y-56075314D01*
X180982709Y-56075314D02*
X180982709Y-55961028D01*
X180982709Y-55961028D02*
X181039852Y-55846742D01*
X181039852Y-55846742D02*
X181154138Y-55789600D01*
X181154138Y-55789600D02*
X181439852Y-55789600D01*
X181439852Y-55789600D02*
X181554138Y-55732457D01*
X182125566Y-55446742D02*
X182125566Y-56246742D01*
X182125566Y-55561028D02*
X182182709Y-55503885D01*
X182182709Y-55503885D02*
X182296994Y-55446742D01*
X182296994Y-55446742D02*
X182468423Y-55446742D01*
X182468423Y-55446742D02*
X182582709Y-55503885D01*
X182582709Y-55503885D02*
X182639852Y-55618171D01*
X182639852Y-55618171D02*
X182639852Y-56246742D01*
X183211280Y-56246742D02*
X183211280Y-55446742D01*
X183211280Y-55046742D02*
X183154137Y-55103885D01*
X183154137Y-55103885D02*
X183211280Y-55161028D01*
X183211280Y-55161028D02*
X183268423Y-55103885D01*
X183268423Y-55103885D02*
X183211280Y-55046742D01*
X183211280Y-55046742D02*
X183211280Y-55161028D01*
X184296995Y-56189600D02*
X184182709Y-56246742D01*
X184182709Y-56246742D02*
X183954137Y-56246742D01*
X183954137Y-56246742D02*
X183839852Y-56189600D01*
X183839852Y-56189600D02*
X183782709Y-56132457D01*
X183782709Y-56132457D02*
X183725566Y-56018171D01*
X183725566Y-56018171D02*
X183725566Y-55675314D01*
X183725566Y-55675314D02*
X183782709Y-55561028D01*
X183782709Y-55561028D02*
X183839852Y-55503885D01*
X183839852Y-55503885D02*
X183954137Y-55446742D01*
X183954137Y-55446742D02*
X184182709Y-55446742D01*
X184182709Y-55446742D02*
X184296995Y-55503885D01*
X185325566Y-56246742D02*
X185325566Y-55618171D01*
X185325566Y-55618171D02*
X185268423Y-55503885D01*
X185268423Y-55503885D02*
X185154137Y-55446742D01*
X185154137Y-55446742D02*
X184925566Y-55446742D01*
X184925566Y-55446742D02*
X184811280Y-55503885D01*
X185325566Y-56189600D02*
X185211280Y-56246742D01*
X185211280Y-56246742D02*
X184925566Y-56246742D01*
X184925566Y-56246742D02*
X184811280Y-56189600D01*
X184811280Y-56189600D02*
X184754137Y-56075314D01*
X184754137Y-56075314D02*
X184754137Y-55961028D01*
X184754137Y-55961028D02*
X184811280Y-55846742D01*
X184811280Y-55846742D02*
X184925566Y-55789600D01*
X184925566Y-55789600D02*
X185211280Y-55789600D01*
X185211280Y-55789600D02*
X185325566Y-55732457D01*
X186068422Y-56246742D02*
X185954137Y-56189600D01*
X185954137Y-56189600D02*
X185896994Y-56075314D01*
X185896994Y-56075314D02*
X185896994Y-55046742D01*
X187954137Y-56246742D02*
X187954137Y-55046742D01*
X187954137Y-56189600D02*
X187839851Y-56246742D01*
X187839851Y-56246742D02*
X187611279Y-56246742D01*
X187611279Y-56246742D02*
X187496994Y-56189600D01*
X187496994Y-56189600D02*
X187439851Y-56132457D01*
X187439851Y-56132457D02*
X187382708Y-56018171D01*
X187382708Y-56018171D02*
X187382708Y-55675314D01*
X187382708Y-55675314D02*
X187439851Y-55561028D01*
X187439851Y-55561028D02*
X187496994Y-55503885D01*
X187496994Y-55503885D02*
X187611279Y-55446742D01*
X187611279Y-55446742D02*
X187839851Y-55446742D01*
X187839851Y-55446742D02*
X187954137Y-55503885D01*
X188525565Y-56246742D02*
X188525565Y-55446742D01*
X188525565Y-55675314D02*
X188582708Y-55561028D01*
X188582708Y-55561028D02*
X188639851Y-55503885D01*
X188639851Y-55503885D02*
X188754136Y-55446742D01*
X188754136Y-55446742D02*
X188868422Y-55446742D01*
X189782708Y-56246742D02*
X189782708Y-55618171D01*
X189782708Y-55618171D02*
X189725565Y-55503885D01*
X189725565Y-55503885D02*
X189611279Y-55446742D01*
X189611279Y-55446742D02*
X189382708Y-55446742D01*
X189382708Y-55446742D02*
X189268422Y-55503885D01*
X189782708Y-56189600D02*
X189668422Y-56246742D01*
X189668422Y-56246742D02*
X189382708Y-56246742D01*
X189382708Y-56246742D02*
X189268422Y-56189600D01*
X189268422Y-56189600D02*
X189211279Y-56075314D01*
X189211279Y-56075314D02*
X189211279Y-55961028D01*
X189211279Y-55961028D02*
X189268422Y-55846742D01*
X189268422Y-55846742D02*
X189382708Y-55789600D01*
X189382708Y-55789600D02*
X189668422Y-55789600D01*
X189668422Y-55789600D02*
X189782708Y-55732457D01*
X190239850Y-55446742D02*
X190468422Y-56246742D01*
X190468422Y-56246742D02*
X190696993Y-55675314D01*
X190696993Y-55675314D02*
X190925564Y-56246742D01*
X190925564Y-56246742D02*
X191154136Y-55446742D01*
X191611279Y-56246742D02*
X191611279Y-55446742D01*
X191611279Y-55046742D02*
X191554136Y-55103885D01*
X191554136Y-55103885D02*
X191611279Y-55161028D01*
X191611279Y-55161028D02*
X191668422Y-55103885D01*
X191668422Y-55103885D02*
X191611279Y-55046742D01*
X191611279Y-55046742D02*
X191611279Y-55161028D01*
X192182708Y-55446742D02*
X192182708Y-56246742D01*
X192182708Y-55561028D02*
X192239851Y-55503885D01*
X192239851Y-55503885D02*
X192354136Y-55446742D01*
X192354136Y-55446742D02*
X192525565Y-55446742D01*
X192525565Y-55446742D02*
X192639851Y-55503885D01*
X192639851Y-55503885D02*
X192696994Y-55618171D01*
X192696994Y-55618171D02*
X192696994Y-56246742D01*
X193782708Y-55446742D02*
X193782708Y-56418171D01*
X193782708Y-56418171D02*
X193725565Y-56532457D01*
X193725565Y-56532457D02*
X193668422Y-56589600D01*
X193668422Y-56589600D02*
X193554136Y-56646742D01*
X193554136Y-56646742D02*
X193382708Y-56646742D01*
X193382708Y-56646742D02*
X193268422Y-56589600D01*
X193782708Y-56189600D02*
X193668422Y-56246742D01*
X193668422Y-56246742D02*
X193439850Y-56246742D01*
X193439850Y-56246742D02*
X193325565Y-56189600D01*
X193325565Y-56189600D02*
X193268422Y-56132457D01*
X193268422Y-56132457D02*
X193211279Y-56018171D01*
X193211279Y-56018171D02*
X193211279Y-55675314D01*
X193211279Y-55675314D02*
X193268422Y-55561028D01*
X193268422Y-55561028D02*
X193325565Y-55503885D01*
X193325565Y-55503885D02*
X193439850Y-55446742D01*
X193439850Y-55446742D02*
X193668422Y-55446742D01*
X193668422Y-55446742D02*
X193782708Y-55503885D01*
X194239850Y-56703885D02*
X194296993Y-56646742D01*
X194296993Y-56646742D02*
X194411279Y-56475314D01*
X194411279Y-56475314D02*
X194468422Y-56361028D01*
X194468422Y-56361028D02*
X194525564Y-56189600D01*
X194525564Y-56189600D02*
X194582707Y-55903885D01*
X194582707Y-55903885D02*
X194582707Y-55675314D01*
X194582707Y-55675314D02*
X194525564Y-55389600D01*
X194525564Y-55389600D02*
X194468422Y-55218171D01*
X194468422Y-55218171D02*
X194411279Y-55103885D01*
X194411279Y-55103885D02*
X194296993Y-54932457D01*
X194296993Y-54932457D02*
X194239850Y-54875314D01*
M02*
