%TF.GenerationSoftware,KiCad,Pcbnew,10.0.5*%
%TF.CreationDate,2026-08-04T17:35:45-07:00*%
%TF.ProjectId,palpod-orb-real,70616c70-6f64-42d6-9f72-622d7265616c,A0*%
%TF.SameCoordinates,Original*%
%TF.FileFunction,Copper,L1,Top*%
%TF.FilePolarity,Positive*%
%FSLAX46Y46*%
G04 Gerber Fmt 4.6, Leading zero omitted, Abs format (unit mm)*
G04 Created by KiCad (PCBNEW 10.0.5) date 2026-08-04 17:35:45*
%MOMM*%
%LPD*%
G01*
G04 APERTURE LIST*
G04 Aperture macros list*
%AMRoundRect*
0 Rectangle with rounded corners*
0 $1 Rounding radius*
0 $2 $3 $4 $5 $6 $7 $8 $9 X,Y pos of 4 corners*
0 Add a 4 corners polygon primitive as box body*
4,1,4,$2,$3,$4,$5,$6,$7,$8,$9,$2,$3,0*
0 Add four circle primitives for the rounded corners*
1,1,$1+$1,$2,$3*
1,1,$1+$1,$4,$5*
1,1,$1+$1,$6,$7*
1,1,$1+$1,$8,$9*
0 Add four rect primitives between the rounded corners*
20,1,$1+$1,$2,$3,$4,$5,0*
20,1,$1+$1,$4,$5,$6,$7,0*
20,1,$1+$1,$6,$7,$8,$9,0*
20,1,$1+$1,$8,$9,$2,$3,0*%
G04 Aperture macros list end*
%TA.AperFunction,SMDPad,CuDef*%
%ADD10R,0.300000X1.000000*%
%TD*%
%TA.AperFunction,SMDPad,CuDef*%
%ADD11R,1.200000X1.600000*%
%TD*%
%TA.AperFunction,SMDPad,CuDef*%
%ADD12C,0.280000*%
%TD*%
%TA.AperFunction,SMDPad,CuDef*%
%ADD13C,0.400000*%
%TD*%
%TA.AperFunction,SMDPad,CuDef*%
%ADD14RoundRect,0.135000X-0.135000X-0.185000X0.135000X-0.185000X0.135000X0.185000X-0.135000X0.185000X0*%
%TD*%
%TA.AperFunction,SMDPad,CuDef*%
%ADD15R,0.500000X0.250000*%
%TD*%
%TA.AperFunction,SMDPad,CuDef*%
%ADD16R,0.250000X0.500000*%
%TD*%
%TA.AperFunction,ComponentPad*%
%ADD17R,0.700000X3.000000*%
%TD*%
%TA.AperFunction,SMDPad,CuDef*%
%ADD18R,3.000000X0.300000*%
%TD*%
%TA.AperFunction,ComponentPad*%
%ADD19C,2.600000*%
%TD*%
%TA.AperFunction,SMDPad,CuDef*%
%ADD20RoundRect,0.112500X0.112500X-0.187500X0.112500X0.187500X-0.112500X0.187500X-0.112500X-0.187500X0*%
%TD*%
%TA.AperFunction,SMDPad,CuDef*%
%ADD21RoundRect,0.140000X-0.140000X-0.170000X0.140000X-0.170000X0.140000X0.170000X-0.140000X0.170000X0*%
%TD*%
%TA.AperFunction,SMDPad,CuDef*%
%ADD22R,0.600000X0.900000*%
%TD*%
%TA.AperFunction,SMDPad,CuDef*%
%ADD23R,0.550000X0.200000*%
%TD*%
%TA.AperFunction,SMDPad,CuDef*%
%ADD24R,0.200000X0.550000*%
%TD*%
%TA.AperFunction,SMDPad,CuDef*%
%ADD25R,2.500000X2.500000*%
%TD*%
%TA.AperFunction,SMDPad,CuDef*%
%ADD26R,0.700000X0.250000*%
%TD*%
%TA.AperFunction,SMDPad,CuDef*%
%ADD27R,0.250000X0.700000*%
%TD*%
%TA.AperFunction,SMDPad,CuDef*%
%ADD28R,0.600000X0.200000*%
%TD*%
%TA.AperFunction,SMDPad,CuDef*%
%ADD29R,0.200000X0.600000*%
%TD*%
%TA.AperFunction,SMDPad,CuDef*%
%ADD30RoundRect,0.250000X-0.250000X-0.475000X0.250000X-0.475000X0.250000X0.475000X-0.250000X0.475000X0*%
%TD*%
%TA.AperFunction,SMDPad,CuDef*%
%ADD31RoundRect,0.250000X-0.375000X-1.075000X0.375000X-1.075000X0.375000X1.075000X-0.375000X1.075000X0*%
%TD*%
%TA.AperFunction,SMDPad,CuDef*%
%ADD32R,1.000000X0.300000*%
%TD*%
%TA.AperFunction,SMDPad,CuDef*%
%ADD33R,1.600000X1.200000*%
%TD*%
%TA.AperFunction,SMDPad,CuDef*%
%ADD34RoundRect,0.250000X-0.325000X-1.100000X0.325000X-1.100000X0.325000X1.100000X-0.325000X1.100000X0*%
%TD*%
%TA.AperFunction,ViaPad*%
%ADD35C,0.300000*%
%TD*%
%TA.AperFunction,ViaPad*%
%ADD36C,0.450000*%
%TD*%
%TA.AperFunction,ViaPad*%
%ADD37C,0.600000*%
%TD*%
%TA.AperFunction,ViaPad*%
%ADD38C,0.800000*%
%TD*%
%TA.AperFunction,ViaPad*%
%ADD39C,0.400000*%
%TD*%
%TA.AperFunction,Conductor*%
%ADD40C,0.100000*%
%TD*%
%TA.AperFunction,Conductor*%
%ADD41C,0.150000*%
%TD*%
%TA.AperFunction,Conductor*%
%ADD42C,0.400000*%
%TD*%
%TA.AperFunction,Conductor*%
%ADD43C,0.249800*%
%TD*%
%TA.AperFunction,Conductor*%
%ADD44C,0.279800*%
%TD*%
%TA.AperFunction,Conductor*%
%ADD45C,0.600000*%
%TD*%
%TA.AperFunction,Conductor*%
%ADD46C,0.140000*%
%TD*%
G04 APERTURE END LIST*
D10*
%TO.P,J5,1*%
%TO.N,CAM5_D0_N*%
X-6750000Y-39500000D03*
%TO.P,J5,2*%
%TO.N,CAM5_D0_P*%
X-6250000Y-39500000D03*
%TO.P,J5,3*%
%TO.N,GND*%
X-5750000Y-39500000D03*
%TO.P,J5,4*%
%TO.N,N/C*%
X-5250000Y-39500000D03*
%TO.P,J5,5*%
X-4750000Y-39500000D03*
%TO.P,J5,6*%
%TO.N,GND*%
X-4250000Y-39500000D03*
%TO.P,J5,7*%
%TO.N,N/C*%
X-3750000Y-39500000D03*
%TO.P,J5,8*%
X-3250000Y-39500000D03*
%TO.P,J5,9*%
%TO.N,GND*%
X-2750000Y-39500000D03*
%TO.P,J5,10*%
%TO.N,N/C*%
X-2250000Y-39500000D03*
%TO.P,J5,11*%
X-1750000Y-39500000D03*
%TO.P,J5,12*%
%TO.N,GND*%
X-1250000Y-39500000D03*
%TO.P,J5,13*%
%TO.N,CAM5_CLK_N*%
X-750000Y-39500000D03*
%TO.P,J5,14*%
%TO.N,CAM5_CLK_P*%
X-250000Y-39500000D03*
%TO.P,J5,15*%
%TO.N,GND*%
X250000Y-39500000D03*
%TO.P,J5,16*%
%TO.N,+3V3*%
X750000Y-39500000D03*
%TO.P,J5,17*%
X1250000Y-39500000D03*
%TO.P,J5,18*%
%TO.N,GND*%
X1750000Y-39500000D03*
%TO.P,J5,19*%
%TO.N,CAM5_MCLK*%
X2250000Y-39500000D03*
%TO.P,J5,20*%
%TO.N,N/C*%
X2750000Y-39500000D03*
%TO.P,J5,21*%
X3250000Y-39500000D03*
%TO.P,J5,22*%
%TO.N,CAM5_RESET_N*%
X3750000Y-39500000D03*
%TO.P,J5,23*%
%TO.N,CAM5_PWR_EN*%
X4250000Y-39500000D03*
%TO.P,J5,24*%
%TO.N,+3V3*%
X4750000Y-39500000D03*
%TO.P,J5,25*%
%TO.N,+1V8*%
X5250000Y-39500000D03*
%TO.P,J5,26*%
%TO.N,+1V2*%
X5750000Y-39500000D03*
%TO.P,J5,27*%
%TO.N,GND*%
X6250000Y-39500000D03*
%TO.P,J5,28*%
X6750000Y-39500000D03*
D11*
%TO.P,J5,MP1*%
%TO.N,N/C*%
X-8250000Y-39000000D03*
%TO.P,J5,MP2*%
X8250000Y-39000000D03*
%TD*%
D10*
%TO.P,J6,1*%
%TO.N,CAM6_D0_N*%
X17250000Y-39500000D03*
%TO.P,J6,2*%
%TO.N,CAM6_D0_P*%
X17750000Y-39500000D03*
%TO.P,J6,3*%
%TO.N,GND*%
X18250000Y-39500000D03*
%TO.P,J6,4*%
%TO.N,N/C*%
X18750000Y-39500000D03*
%TO.P,J6,5*%
X19250000Y-39500000D03*
%TO.P,J6,6*%
%TO.N,GND*%
X19750000Y-39500000D03*
%TO.P,J6,7*%
%TO.N,N/C*%
X20250000Y-39500000D03*
%TO.P,J6,8*%
X20750000Y-39500000D03*
%TO.P,J6,9*%
%TO.N,GND*%
X21250000Y-39500000D03*
%TO.P,J6,10*%
%TO.N,N/C*%
X21750000Y-39500000D03*
%TO.P,J6,11*%
X22250000Y-39500000D03*
%TO.P,J6,12*%
%TO.N,GND*%
X22750000Y-39500000D03*
%TO.P,J6,13*%
%TO.N,CAM6_CLK_N*%
X23250000Y-39500000D03*
%TO.P,J6,14*%
%TO.N,CAM6_CLK_P*%
X23750000Y-39500000D03*
%TO.P,J6,15*%
%TO.N,GND*%
X24250000Y-39500000D03*
%TO.P,J6,16*%
%TO.N,+3V3*%
X24750000Y-39500000D03*
%TO.P,J6,17*%
X25250000Y-39500000D03*
%TO.P,J6,18*%
%TO.N,GND*%
X25750000Y-39500000D03*
%TO.P,J6,19*%
%TO.N,CAM6_MCLK*%
X26250000Y-39500000D03*
%TO.P,J6,20*%
%TO.N,N/C*%
X26750000Y-39500000D03*
%TO.P,J6,21*%
X27250000Y-39500000D03*
%TO.P,J6,22*%
%TO.N,CAM6_RESET_N*%
X27750000Y-39500000D03*
%TO.P,J6,23*%
%TO.N,CAM6_PWR_EN*%
X28250000Y-39500000D03*
%TO.P,J6,24*%
%TO.N,+3V3*%
X28750000Y-39500000D03*
%TO.P,J6,25*%
%TO.N,+1V8*%
X29250000Y-39500000D03*
%TO.P,J6,26*%
%TO.N,+1V2*%
X29750000Y-39500000D03*
%TO.P,J6,27*%
%TO.N,GND*%
X30250000Y-39500000D03*
%TO.P,J6,28*%
X30750000Y-39500000D03*
D11*
%TO.P,J6,MP1*%
%TO.N,N/C*%
X15750000Y-39000000D03*
%TO.P,J6,MP2*%
X32250000Y-39000000D03*
%TD*%
D10*
%TO.P,J3,1*%
%TO.N,CAM3_D0_N*%
X17250000Y31500000D03*
%TO.P,J3,2*%
%TO.N,CAM3_D0_P*%
X17750000Y31500000D03*
%TO.P,J3,3*%
%TO.N,GND*%
X18250000Y31500000D03*
%TO.P,J3,4*%
%TO.N,N/C*%
X18750000Y31500000D03*
%TO.P,J3,5*%
X19250000Y31500000D03*
%TO.P,J3,6*%
%TO.N,GND*%
X19750000Y31500000D03*
%TO.P,J3,7*%
%TO.N,N/C*%
X20250000Y31500000D03*
%TO.P,J3,8*%
X20750000Y31500000D03*
%TO.P,J3,9*%
%TO.N,GND*%
X21250000Y31500000D03*
%TO.P,J3,10*%
%TO.N,N/C*%
X21750000Y31500000D03*
%TO.P,J3,11*%
X22250000Y31500000D03*
%TO.P,J3,12*%
%TO.N,GND*%
X22750000Y31500000D03*
%TO.P,J3,13*%
%TO.N,CAM3_CLK_N*%
X23250000Y31500000D03*
%TO.P,J3,14*%
%TO.N,CAM3_CLK_P*%
X23750000Y31500000D03*
%TO.P,J3,15*%
%TO.N,GND*%
X24250000Y31500000D03*
%TO.P,J3,16*%
%TO.N,+3V3*%
X24750000Y31500000D03*
%TO.P,J3,17*%
X25250000Y31500000D03*
%TO.P,J3,18*%
%TO.N,GND*%
X25750000Y31500000D03*
%TO.P,J3,19*%
%TO.N,CAM3_MCLK*%
X26250000Y31500000D03*
%TO.P,J3,20*%
%TO.N,N/C*%
X26750000Y31500000D03*
%TO.P,J3,21*%
X27250000Y31500000D03*
%TO.P,J3,22*%
%TO.N,CAM3_RESET_N*%
X27750000Y31500000D03*
%TO.P,J3,23*%
%TO.N,CAM3_PWR_EN*%
X28250000Y31500000D03*
%TO.P,J3,24*%
%TO.N,+3V3*%
X28750000Y31500000D03*
%TO.P,J3,25*%
%TO.N,+1V8*%
X29250000Y31500000D03*
%TO.P,J3,26*%
%TO.N,+1V2*%
X29750000Y31500000D03*
%TO.P,J3,27*%
%TO.N,GND*%
X30250000Y31500000D03*
%TO.P,J3,28*%
X30750000Y31500000D03*
D11*
%TO.P,J3,MP1*%
%TO.N,N/C*%
X15750000Y32000000D03*
%TO.P,J3,MP2*%
X32250000Y32000000D03*
%TD*%
D10*
%TO.P,J4,1*%
%TO.N,CAM4_D0_N*%
X-30750000Y-39500000D03*
%TO.P,J4,2*%
%TO.N,CAM4_D0_P*%
X-30250000Y-39500000D03*
%TO.P,J4,3*%
%TO.N,GND*%
X-29750000Y-39500000D03*
%TO.P,J4,4*%
%TO.N,N/C*%
X-29250000Y-39500000D03*
%TO.P,J4,5*%
X-28750000Y-39500000D03*
%TO.P,J4,6*%
%TO.N,GND*%
X-28250000Y-39500000D03*
%TO.P,J4,7*%
%TO.N,N/C*%
X-27750000Y-39500000D03*
%TO.P,J4,8*%
X-27250000Y-39500000D03*
%TO.P,J4,9*%
%TO.N,GND*%
X-26750000Y-39500000D03*
%TO.P,J4,10*%
%TO.N,N/C*%
X-26250000Y-39500000D03*
%TO.P,J4,11*%
X-25750000Y-39500000D03*
%TO.P,J4,12*%
%TO.N,GND*%
X-25250000Y-39500000D03*
%TO.P,J4,13*%
%TO.N,CAM4_CLK_N*%
X-24750000Y-39500000D03*
%TO.P,J4,14*%
%TO.N,CAM4_CLK_P*%
X-24250000Y-39500000D03*
%TO.P,J4,15*%
%TO.N,GND*%
X-23750000Y-39500000D03*
%TO.P,J4,16*%
%TO.N,+3V3*%
X-23250000Y-39500000D03*
%TO.P,J4,17*%
X-22750000Y-39500000D03*
%TO.P,J4,18*%
%TO.N,GND*%
X-22250000Y-39500000D03*
%TO.P,J4,19*%
%TO.N,CAM4_MCLK*%
X-21750000Y-39500000D03*
%TO.P,J4,20*%
%TO.N,N/C*%
X-21250000Y-39500000D03*
%TO.P,J4,21*%
X-20750000Y-39500000D03*
%TO.P,J4,22*%
%TO.N,CAM4_RESET_N*%
X-20250000Y-39500000D03*
%TO.P,J4,23*%
%TO.N,CAM4_PWR_EN*%
X-19750000Y-39500000D03*
%TO.P,J4,24*%
%TO.N,+3V3*%
X-19250000Y-39500000D03*
%TO.P,J4,25*%
%TO.N,+1V8*%
X-18750000Y-39500000D03*
%TO.P,J4,26*%
%TO.N,+1V2*%
X-18250000Y-39500000D03*
%TO.P,J4,27*%
%TO.N,GND*%
X-17750000Y-39500000D03*
%TO.P,J4,28*%
X-17250000Y-39500000D03*
D11*
%TO.P,J4,MP1*%
%TO.N,N/C*%
X-32250000Y-39000000D03*
%TO.P,J4,MP2*%
X-15750000Y-39000000D03*
%TD*%
D10*
%TO.P,J1,1*%
%TO.N,CAM1_D0_N*%
X-30750000Y31500000D03*
%TO.P,J1,2*%
%TO.N,CAM1_D0_P*%
X-30250000Y31500000D03*
%TO.P,J1,3*%
%TO.N,GND*%
X-29750000Y31500000D03*
%TO.P,J1,4*%
%TO.N,N/C*%
X-29250000Y31500000D03*
%TO.P,J1,5*%
X-28750000Y31500000D03*
%TO.P,J1,6*%
%TO.N,GND*%
X-28250000Y31500000D03*
%TO.P,J1,7*%
%TO.N,N/C*%
X-27750000Y31500000D03*
%TO.P,J1,8*%
X-27250000Y31500000D03*
%TO.P,J1,9*%
%TO.N,GND*%
X-26750000Y31500000D03*
%TO.P,J1,10*%
%TO.N,N/C*%
X-26250000Y31500000D03*
%TO.P,J1,11*%
X-25750000Y31500000D03*
%TO.P,J1,12*%
%TO.N,GND*%
X-25250000Y31500000D03*
%TO.P,J1,13*%
%TO.N,CAM1_CLK_N*%
X-24750000Y31500000D03*
%TO.P,J1,14*%
%TO.N,CAM1_CLK_P*%
X-24250000Y31500000D03*
%TO.P,J1,15*%
%TO.N,GND*%
X-23750000Y31500000D03*
%TO.P,J1,16*%
%TO.N,+3V3*%
X-23250000Y31500000D03*
%TO.P,J1,17*%
X-22750000Y31500000D03*
%TO.P,J1,18*%
%TO.N,GND*%
X-22250000Y31500000D03*
%TO.P,J1,19*%
%TO.N,CAM1_MCLK*%
X-21750000Y31500000D03*
%TO.P,J1,20*%
%TO.N,N/C*%
X-21250000Y31500000D03*
%TO.P,J1,21*%
X-20750000Y31500000D03*
%TO.P,J1,22*%
%TO.N,CAM1_RESET_N*%
X-20250000Y31500000D03*
%TO.P,J1,23*%
%TO.N,CAM1_PWR_EN*%
X-19750000Y31500000D03*
%TO.P,J1,24*%
%TO.N,+3V3*%
X-19250000Y31500000D03*
%TO.P,J1,25*%
%TO.N,+1V8*%
X-18750000Y31500000D03*
%TO.P,J1,26*%
%TO.N,+1V2*%
X-18250000Y31500000D03*
%TO.P,J1,27*%
%TO.N,GND*%
X-17750000Y31500000D03*
%TO.P,J1,28*%
X-17250000Y31500000D03*
D11*
%TO.P,J1,MP1*%
%TO.N,N/C*%
X-32250000Y32000000D03*
%TO.P,J1,MP2*%
X-15750000Y32000000D03*
%TD*%
D10*
%TO.P,J2,1*%
%TO.N,CAM2_D0_N*%
X-6750000Y31500000D03*
%TO.P,J2,2*%
%TO.N,CAM2_D0_P*%
X-6250000Y31500000D03*
%TO.P,J2,3*%
%TO.N,GND*%
X-5750000Y31500000D03*
%TO.P,J2,4*%
%TO.N,N/C*%
X-5250000Y31500000D03*
%TO.P,J2,5*%
X-4750000Y31500000D03*
%TO.P,J2,6*%
%TO.N,GND*%
X-4250000Y31500000D03*
%TO.P,J2,7*%
%TO.N,N/C*%
X-3750000Y31500000D03*
%TO.P,J2,8*%
X-3250000Y31500000D03*
%TO.P,J2,9*%
%TO.N,GND*%
X-2750000Y31500000D03*
%TO.P,J2,10*%
%TO.N,N/C*%
X-2250000Y31500000D03*
%TO.P,J2,11*%
X-1750000Y31500000D03*
%TO.P,J2,12*%
%TO.N,GND*%
X-1250000Y31500000D03*
%TO.P,J2,13*%
%TO.N,CAM2_CLK_N*%
X-750000Y31500000D03*
%TO.P,J2,14*%
%TO.N,CAM2_CLK_P*%
X-250000Y31500000D03*
%TO.P,J2,15*%
%TO.N,GND*%
X250000Y31500000D03*
%TO.P,J2,16*%
%TO.N,+3V3*%
X750000Y31500000D03*
%TO.P,J2,17*%
X1250000Y31500000D03*
%TO.P,J2,18*%
%TO.N,GND*%
X1750000Y31500000D03*
%TO.P,J2,19*%
%TO.N,CAM2_MCLK*%
X2250000Y31500000D03*
%TO.P,J2,20*%
%TO.N,N/C*%
X2750000Y31500000D03*
%TO.P,J2,21*%
X3250000Y31500000D03*
%TO.P,J2,22*%
%TO.N,CAM2_RESET_N*%
X3750000Y31500000D03*
%TO.P,J2,23*%
%TO.N,CAM2_PWR_EN*%
X4250000Y31500000D03*
%TO.P,J2,24*%
%TO.N,+3V3*%
X4750000Y31500000D03*
%TO.P,J2,25*%
%TO.N,+1V8*%
X5250000Y31500000D03*
%TO.P,J2,26*%
%TO.N,+1V2*%
X5750000Y31500000D03*
%TO.P,J2,27*%
%TO.N,GND*%
X6250000Y31500000D03*
%TO.P,J2,28*%
X6750000Y31500000D03*
D11*
%TO.P,J2,MP1*%
%TO.N,N/C*%
X-8250000Y32000000D03*
%TO.P,J2,MP2*%
X8250000Y32000000D03*
%TD*%
D12*
%TO.P,U2,A2*%
%TO.N,+1V2*%
X13250000Y2250000D03*
%TO.P,U2,A3*%
X13750000Y2250000D03*
%TO.P,U2,A4*%
X14250000Y2250000D03*
%TO.P,U2,A5*%
%TO.N,+1V8*%
X14750000Y2250000D03*
%TO.P,U2,A6*%
X15250000Y2250000D03*
%TO.P,U2,A7*%
X15750000Y2250000D03*
%TO.P,U2,A8*%
%TO.N,GND*%
X16250000Y2250000D03*
%TO.P,U2,A9*%
X16750000Y2250000D03*
%TO.P,U2,B1*%
%TO.N,N/C*%
X12750000Y1750000D03*
%TO.P,U2,B2*%
%TO.N,GND*%
X13250000Y1750000D03*
%TO.P,U2,B3*%
X13750000Y1750000D03*
%TO.P,U2,B4*%
X14250000Y1750000D03*
%TO.P,U2,B5*%
X14750000Y1750000D03*
%TO.P,U2,B6*%
X15250000Y1750000D03*
%TO.P,U2,B7*%
X15750000Y1750000D03*
%TO.P,U2,B8*%
%TO.N,N/C*%
X16250000Y1750000D03*
%TO.P,U2,B9*%
X16750000Y1750000D03*
%TO.P,U2,B10*%
X17250000Y1750000D03*
%TO.P,U2,C1*%
X12750000Y1250000D03*
%TO.P,U2,C2*%
X13250000Y1250000D03*
%TO.P,U2,C3*%
X13750000Y1250000D03*
%TO.P,U2,C4*%
X14250000Y1250000D03*
%TO.P,U2,C5*%
X14750000Y1250000D03*
%TO.P,U2,C6*%
X15250000Y1250000D03*
%TO.P,U2,C7*%
X15750000Y1250000D03*
%TO.P,U2,C8*%
X16250000Y1250000D03*
%TO.P,U2,C9*%
X16750000Y1250000D03*
%TO.P,U2,C10*%
X17250000Y1250000D03*
%TO.P,U2,D1*%
%TO.N,CSI_D0_P*%
X12750000Y750000D03*
%TO.P,U2,D2*%
%TO.N,CSI_D0_N*%
X13250000Y750000D03*
%TO.P,U2,D3*%
%TO.N,CSI_D1_P*%
X13750000Y750000D03*
%TO.P,U2,D4*%
%TO.N,CSI_D1_N*%
X14250000Y750000D03*
%TO.P,U2,D5*%
%TO.N,CSI_D2_P*%
X14750000Y750000D03*
%TO.P,U2,D6*%
%TO.N,CSI_D2_N*%
X15250000Y750000D03*
%TO.P,U2,D7*%
%TO.N,CSI_D3_P*%
X15750000Y750000D03*
%TO.P,U2,D8*%
%TO.N,CSI_D3_N*%
X16250000Y750000D03*
%TO.P,U2,D9*%
%TO.N,CSI_CLK_P*%
X16750000Y750000D03*
%TO.P,U2,D10*%
%TO.N,CSI_CLK_N*%
X17250000Y750000D03*
%TO.P,U2,E1*%
%TO.N,CAM1_D0_P*%
X12750000Y250000D03*
%TO.P,U2,E2*%
%TO.N,CAM1_D0_N*%
X13250000Y250000D03*
%TO.P,U2,E3*%
%TO.N,CAM1_CLK_P*%
X13750000Y250000D03*
%TO.P,U2,E4*%
%TO.N,CAM1_CLK_N*%
X14250000Y250000D03*
%TO.P,U2,E5*%
%TO.N,CAM2_D0_P*%
X14750000Y250000D03*
%TO.P,U2,E6*%
%TO.N,CAM2_D0_N*%
X15250000Y250000D03*
%TO.P,U2,E7*%
%TO.N,CAM2_CLK_P*%
X15750000Y250000D03*
%TO.P,U2,E8*%
%TO.N,CAM2_CLK_N*%
X16250000Y250000D03*
%TO.P,U2,E9*%
%TO.N,CAM3_D0_P*%
X16750000Y250000D03*
%TO.P,U2,E10*%
%TO.N,CAM3_D0_N*%
X17250000Y250000D03*
%TO.P,U2,F1*%
%TO.N,N/C*%
X12750000Y-250000D03*
%TO.P,U2,F2*%
X13250000Y-250000D03*
%TO.P,U2,F3*%
X13750000Y-250000D03*
%TO.P,U2,F4*%
X14250000Y-250000D03*
%TO.P,U2,F5*%
X14750000Y-250000D03*
%TO.P,U2,F6*%
X15250000Y-250000D03*
%TO.P,U2,F7*%
X15750000Y-250000D03*
%TO.P,U2,F8*%
X16250000Y-250000D03*
%TO.P,U2,F9*%
%TO.N,CAM4_D0_P*%
X16750000Y-250000D03*
%TO.P,U2,F10*%
%TO.N,CAM5_D0_P*%
X17250000Y-250000D03*
%TO.P,U2,G1*%
%TO.N,CAM6_D0_P*%
X12750000Y-750000D03*
%TO.P,U2,G2*%
%TO.N,N/C*%
X13250000Y-750000D03*
%TO.P,U2,G3*%
X13750000Y-750000D03*
%TO.P,U2,G4*%
X14250000Y-750000D03*
%TO.P,U2,G5*%
%TO.N,CAM4_D0_N*%
X14750000Y-750000D03*
%TO.P,U2,G6*%
%TO.N,CAM5_D0_N*%
X15250000Y-750000D03*
%TO.P,U2,G7*%
%TO.N,CAM6_D0_N*%
X15750000Y-750000D03*
%TO.P,U2,G8*%
%TO.N,N/C*%
X16250000Y-750000D03*
%TO.P,U2,G9*%
X16750000Y-750000D03*
%TO.P,U2,G10*%
%TO.N,CAM3_CLK_P*%
X17250000Y-750000D03*
%TO.P,U2,H1*%
%TO.N,CAM4_CLK_P*%
X12750000Y-1250000D03*
%TO.P,U2,H2*%
%TO.N,CAM5_CLK_P*%
X13250000Y-1250000D03*
%TO.P,U2,H3*%
%TO.N,CAM6_CLK_P*%
X13750000Y-1250000D03*
%TO.P,U2,H4*%
%TO.N,N/C*%
X14250000Y-1250000D03*
%TO.P,U2,H5*%
X14750000Y-1250000D03*
%TO.P,U2,H6*%
%TO.N,CAM3_CLK_N*%
X15250000Y-1250000D03*
%TO.P,U2,H7*%
%TO.N,CAM4_CLK_N*%
X15750000Y-1250000D03*
%TO.P,U2,H8*%
%TO.N,CAM5_CLK_N*%
X16250000Y-1250000D03*
%TO.P,U2,H9*%
%TO.N,CAM6_CLK_N*%
X16750000Y-1250000D03*
%TO.P,U2,H10*%
%TO.N,N/C*%
X17250000Y-1250000D03*
%TO.P,U2,J2*%
X13250000Y-1750000D03*
%TO.P,U2,J3*%
X13750000Y-1750000D03*
%TO.P,U2,J4*%
X14250000Y-1750000D03*
%TO.P,U2,J5*%
X14750000Y-1750000D03*
%TO.P,U2,J6*%
X15250000Y-1750000D03*
%TO.P,U2,J7*%
X15750000Y-1750000D03*
%TO.P,U2,J8*%
X16250000Y-1750000D03*
%TO.P,U2,J9*%
X16750000Y-1750000D03*
%TO.P,U2,K1*%
X12750000Y-2250000D03*
%TO.P,U2,K2*%
X13250000Y-2250000D03*
%TO.P,U2,K3*%
X13750000Y-2250000D03*
%TO.P,U2,K4*%
X14250000Y-2250000D03*
%TO.P,U2,K5*%
X14750000Y-2250000D03*
%TO.P,U2,K6*%
X15250000Y-2250000D03*
%TO.P,U2,K7*%
X15750000Y-2250000D03*
%TO.P,U2,K8*%
X16250000Y-2250000D03*
%TO.P,U2,K9*%
X16750000Y-2250000D03*
%TO.P,U2,K10*%
X17250000Y-2250000D03*
%TD*%
D13*
%TO.P,U6,A1*%
%TO.N,+3V3*%
X83600000Y4400000D03*
%TO.P,U6,A2*%
X84400000Y4400000D03*
%TO.P,U6,A3*%
X85200000Y4400000D03*
%TO.P,U6,A4*%
X86000000Y4400000D03*
%TO.P,U6,A5*%
%TO.N,+1V8*%
X86800000Y4400000D03*
%TO.P,U6,A6*%
X87600000Y4400000D03*
%TO.P,U6,A7*%
%TO.N,+5V*%
X88400000Y4400000D03*
%TO.P,U6,A8*%
X89200000Y4400000D03*
%TO.P,U6,A9*%
%TO.N,GND*%
X90000000Y4400000D03*
%TO.P,U6,A10*%
X90800000Y4400000D03*
%TO.P,U6,A11*%
X91600000Y4400000D03*
%TO.P,U6,A12*%
X92400000Y4400000D03*
%TO.P,U6,B1*%
X83600000Y3600000D03*
%TO.P,U6,B2*%
X84400000Y3600000D03*
%TO.P,U6,B3*%
X85200000Y3600000D03*
%TO.P,U6,B4*%
X86000000Y3600000D03*
%TO.P,U6,B5*%
%TO.N,N/C*%
X86800000Y3600000D03*
%TO.P,U6,B6*%
X87600000Y3600000D03*
%TO.P,U6,B7*%
X88400000Y3600000D03*
%TO.P,U6,B8*%
X89200000Y3600000D03*
%TO.P,U6,B9*%
X90000000Y3600000D03*
%TO.P,U6,B10*%
X90800000Y3600000D03*
%TO.P,U6,B11*%
X91600000Y3600000D03*
%TO.P,U6,B12*%
X92400000Y3600000D03*
%TO.P,U6,C1*%
X83600000Y2800000D03*
%TO.P,U6,C2*%
X84400000Y2800000D03*
%TO.P,U6,C3*%
X85200000Y2800000D03*
%TO.P,U6,C4*%
X86000000Y2800000D03*
%TO.P,U6,C5*%
X86800000Y2800000D03*
%TO.P,U6,C6*%
X87600000Y2800000D03*
%TO.P,U6,C7*%
X88400000Y2800000D03*
%TO.P,U6,C8*%
X89200000Y2800000D03*
%TO.P,U6,C9*%
X90000000Y2800000D03*
%TO.P,U6,C10*%
X90800000Y2800000D03*
%TO.P,U6,C11*%
X91600000Y2800000D03*
%TO.P,U6,C12*%
X92400000Y2800000D03*
%TO.P,U6,D1*%
X83600000Y2000000D03*
%TO.P,U6,D2*%
X84400000Y2000000D03*
%TO.P,U6,D3*%
X85200000Y2000000D03*
%TO.P,U6,D4*%
X86000000Y2000000D03*
%TO.P,U6,D5*%
X86800000Y2000000D03*
%TO.P,U6,D6*%
X87600000Y2000000D03*
%TO.P,U6,D7*%
X88400000Y2000000D03*
%TO.P,U6,D8*%
X89200000Y2000000D03*
%TO.P,U6,D9*%
X90000000Y2000000D03*
%TO.P,U6,D10*%
X90800000Y2000000D03*
%TO.P,U6,D11*%
X91600000Y2000000D03*
%TO.P,U6,D12*%
X92400000Y2000000D03*
%TO.P,U6,E1*%
X83600000Y1200000D03*
%TO.P,U6,E2*%
X84400000Y1200000D03*
%TO.P,U6,E3*%
X85200000Y1200000D03*
%TO.P,U6,E4*%
X86000000Y1200000D03*
%TO.P,U6,E5*%
X86800000Y1200000D03*
%TO.P,U6,E6*%
X87600000Y1200000D03*
%TO.P,U6,E7*%
X88400000Y1200000D03*
%TO.P,U6,E8*%
X89200000Y1200000D03*
%TO.P,U6,E9*%
X90000000Y1200000D03*
%TO.P,U6,E10*%
X90800000Y1200000D03*
%TO.P,U6,E11*%
X91600000Y1200000D03*
%TO.P,U6,E12*%
X92400000Y1200000D03*
%TO.P,U6,F1*%
X83600000Y400000D03*
%TO.P,U6,F2*%
X84400000Y400000D03*
%TO.P,U6,F3*%
X85200000Y400000D03*
%TO.P,U6,F4*%
X86000000Y400000D03*
%TO.P,U6,F5*%
X86800000Y400000D03*
%TO.P,U6,F6*%
X87600000Y400000D03*
%TO.P,U6,F7*%
X88400000Y400000D03*
%TO.P,U6,F8*%
X89200000Y400000D03*
%TO.P,U6,F9*%
X90000000Y400000D03*
%TO.P,U6,F10*%
X90800000Y400000D03*
%TO.P,U6,F11*%
X91600000Y400000D03*
%TO.P,U6,F12*%
X92400000Y400000D03*
%TO.P,U6,G1*%
X83600000Y-400000D03*
%TO.P,U6,G2*%
X84400000Y-400000D03*
%TO.P,U6,G3*%
X85200000Y-400000D03*
%TO.P,U6,G4*%
X86000000Y-400000D03*
%TO.P,U6,G5*%
X86800000Y-400000D03*
%TO.P,U6,G6*%
X87600000Y-400000D03*
%TO.P,U6,G7*%
X88400000Y-400000D03*
%TO.P,U6,G8*%
X89200000Y-400000D03*
%TO.P,U6,G9*%
X90000000Y-400000D03*
%TO.P,U6,G10*%
X90800000Y-400000D03*
%TO.P,U6,G11*%
X91600000Y-400000D03*
%TO.P,U6,G12*%
X92400000Y-400000D03*
%TO.P,U6,H1*%
X83600000Y-1200000D03*
%TO.P,U6,H2*%
X84400000Y-1200000D03*
%TO.P,U6,H3*%
X85200000Y-1200000D03*
%TO.P,U6,H4*%
X86000000Y-1200000D03*
%TO.P,U6,H5*%
X86800000Y-1200000D03*
%TO.P,U6,H6*%
X87600000Y-1200000D03*
%TO.P,U6,H7*%
X88400000Y-1200000D03*
%TO.P,U6,H8*%
X89200000Y-1200000D03*
%TO.P,U6,H9*%
X90000000Y-1200000D03*
%TO.P,U6,H10*%
X90800000Y-1200000D03*
%TO.P,U6,H11*%
X91600000Y-1200000D03*
%TO.P,U6,H12*%
X92400000Y-1200000D03*
%TO.P,U6,J1*%
X83600000Y-2000000D03*
%TO.P,U6,J2*%
X84400000Y-2000000D03*
%TO.P,U6,J3*%
X85200000Y-2000000D03*
%TO.P,U6,J4*%
X86000000Y-2000000D03*
%TO.P,U6,J5*%
X86800000Y-2000000D03*
%TO.P,U6,J6*%
X87600000Y-2000000D03*
%TO.P,U6,J7*%
X88400000Y-2000000D03*
%TO.P,U6,J8*%
X89200000Y-2000000D03*
%TO.P,U6,J9*%
X90000000Y-2000000D03*
%TO.P,U6,J10*%
X90800000Y-2000000D03*
%TO.P,U6,J11*%
X91600000Y-2000000D03*
%TO.P,U6,J12*%
X92400000Y-2000000D03*
%TO.P,U6,K1*%
X83600000Y-2800000D03*
%TO.P,U6,K2*%
X84400000Y-2800000D03*
%TO.P,U6,K3*%
X85200000Y-2800000D03*
%TO.P,U6,K4*%
X86000000Y-2800000D03*
%TO.P,U6,K5*%
X86800000Y-2800000D03*
%TO.P,U6,K6*%
X87600000Y-2800000D03*
%TO.P,U6,K7*%
X88400000Y-2800000D03*
%TO.P,U6,K8*%
X89200000Y-2800000D03*
%TO.P,U6,K9*%
X90000000Y-2800000D03*
%TO.P,U6,K10*%
X90800000Y-2800000D03*
%TO.P,U6,K11*%
X91600000Y-2800000D03*
%TO.P,U6,K12*%
X92400000Y-2800000D03*
%TO.P,U6,L1*%
X83600000Y-3600000D03*
%TO.P,U6,L2*%
X84400000Y-3600000D03*
%TO.P,U6,L3*%
X85200000Y-3600000D03*
%TO.P,U6,L4*%
X86000000Y-3600000D03*
%TO.P,U6,L5*%
X86800000Y-3600000D03*
%TO.P,U6,L6*%
X87600000Y-3600000D03*
%TO.P,U6,L7*%
X88400000Y-3600000D03*
%TO.P,U6,L8*%
X89200000Y-3600000D03*
%TO.P,U6,L9*%
X90000000Y-3600000D03*
%TO.P,U6,L10*%
X90800000Y-3600000D03*
%TO.P,U6,L11*%
X91600000Y-3600000D03*
%TO.P,U6,L12*%
X92400000Y-3600000D03*
%TO.P,U6,M1*%
X83600000Y-4400000D03*
%TO.P,U6,M2*%
X84400000Y-4400000D03*
%TO.P,U6,M3*%
X85200000Y-4400000D03*
%TO.P,U6,M4*%
X86000000Y-4400000D03*
%TO.P,U6,M5*%
X86800000Y-4400000D03*
%TO.P,U6,M6*%
X87600000Y-4400000D03*
%TO.P,U6,M7*%
X88400000Y-4400000D03*
%TO.P,U6,M8*%
X89200000Y-4400000D03*
%TO.P,U6,M9*%
X90000000Y-4400000D03*
%TO.P,U6,M10*%
X90800000Y-4400000D03*
%TO.P,U6,M11*%
X91600000Y-4400000D03*
%TO.P,U6,M12*%
X92400000Y-4400000D03*
%TD*%
D14*
%TO.P,R2,1*%
%TO.N,+3V3*%
X27490000Y12000000D03*
%TO.P,R2,2*%
X28510000Y12000000D03*
%TD*%
%TO.P,R1,1*%
%TO.N,+3V3*%
X23549500Y12000000D03*
%TO.P,R1,2*%
X24569500Y12000000D03*
%TD*%
D15*
%TO.P,U3,1*%
%TO.N,+3V3*%
X-2650000Y14250000D03*
%TO.P,U3,2*%
X-2650000Y14750000D03*
%TO.P,U3,3*%
%TO.N,GND*%
X-2650000Y15250000D03*
%TO.P,U3,4*%
X-2650000Y15750000D03*
D16*
%TO.P,U3,5*%
%TO.N,+1V8*%
X-750000Y12350000D03*
%TO.P,U3,6*%
%TO.N,N/C*%
X-250000Y12350000D03*
%TO.P,U3,7*%
X250000Y12350000D03*
%TO.P,U3,8*%
X750000Y12350000D03*
D15*
%TO.P,U3,9*%
%TO.N,+3V3*%
X2650000Y15750000D03*
%TO.P,U3,10*%
X2650000Y15250000D03*
%TO.P,U3,11*%
%TO.N,N/C*%
X2650000Y14750000D03*
%TO.P,U3,12*%
X2650000Y14250000D03*
D16*
%TO.P,U3,13*%
X750000Y17650000D03*
%TO.P,U3,14*%
X250000Y17650000D03*
%TO.P,U3,15*%
X-250000Y17650000D03*
%TO.P,U3,16*%
X-750000Y17650000D03*
%TD*%
D17*
%TO.P,J7,1*%
%TO.N,+5V*%
X-34500000Y8000000D03*
%TO.P,J7,2*%
%TO.N,GND*%
X-33500000Y8000000D03*
%TO.P,J7,3*%
%TO.N,LIDAR_UART_TX*%
X-32500000Y8000000D03*
%TO.P,J7,4*%
%TO.N,LIDAR_UART_RX*%
X-31500000Y8000000D03*
%TO.P,J7,5*%
%TO.N,LIDAR_MOTOR_PWM*%
X-30500000Y8000000D03*
%TO.P,J7,6*%
%TO.N,LIDAR_SYNC*%
X-29500000Y8000000D03*
%TO.P,J7,7*%
%TO.N,+3V3*%
X-28500000Y8000000D03*
%TO.P,J7,8*%
X-27500000Y8000000D03*
%TO.P,J7,9*%
%TO.N,N/C*%
X-26500000Y8000000D03*
%TO.P,J7,10*%
X-25500000Y8000000D03*
%TD*%
D18*
%TO.P,J8,1*%
%TO.N,GND*%
X16000000Y-40500000D03*
%TO.P,J8,2*%
X16000000Y-40000000D03*
%TO.P,J8,3*%
X16000000Y-39500000D03*
%TO.P,J8,4*%
X16000000Y-39000000D03*
%TO.P,J8,5*%
%TO.N,WIFI_CLKREQ_N*%
X16000000Y-38500000D03*
%TO.P,J8,6*%
%TO.N,+3V3*%
X16000000Y-38000000D03*
%TO.P,J8,7*%
%TO.N,WIFI_DISABLE1_N*%
X16000000Y-37500000D03*
%TO.P,J8,8*%
%TO.N,+3V3*%
X16000000Y-37000000D03*
%TO.P,J8,9*%
%TO.N,WIFI_DISABLE2_N*%
X16000000Y-36500000D03*
%TO.P,J8,10*%
%TO.N,WIFI_USB_DP*%
X16000000Y-36000000D03*
%TO.P,J8,11*%
%TO.N,N/C*%
X16000000Y-35500000D03*
%TO.P,J8,12*%
%TO.N,WIFI_USB_DN*%
X16000000Y-35000000D03*
%TO.P,J8,13*%
%TO.N,N/C*%
X16000000Y-34500000D03*
%TO.P,J8,14*%
X16000000Y-34000000D03*
%TO.P,J8,15*%
X16000000Y-33500000D03*
%TO.P,J8,16*%
X16000000Y-33000000D03*
%TO.P,J8,17*%
X16000000Y-32500000D03*
%TO.P,J8,18*%
X16000000Y-32000000D03*
%TO.P,J8,19*%
X16000000Y-31500000D03*
%TO.P,J8,20*%
X16000000Y-31000000D03*
%TO.P,J8,21*%
X16000000Y-30500000D03*
%TO.P,J8,22*%
X16000000Y-30000000D03*
%TO.P,J8,23*%
X16000000Y-29500000D03*
%TO.P,J8,24*%
X16000000Y-29000000D03*
%TO.P,J8,25*%
X16000000Y-28500000D03*
%TO.P,J8,26*%
%TO.N,WIFI_UART_RX*%
X16000000Y-28000000D03*
%TO.P,J8,27*%
%TO.N,N/C*%
X16000000Y-27500000D03*
%TO.P,J8,28*%
%TO.N,WIFI_UART_TX*%
X16000000Y-27000000D03*
%TO.P,J8,29*%
%TO.N,N/C*%
X16000000Y-26500000D03*
%TO.P,J8,30*%
%TO.N,WIFI_WAKE_N*%
X16000000Y-26000000D03*
%TO.P,J8,31*%
%TO.N,N/C*%
X16000000Y-25500000D03*
%TO.P,J8,32*%
%TO.N,WIFI_PERST_N*%
X16000000Y-25000000D03*
%TO.P,J8,33*%
%TO.N,N/C*%
X16000000Y-24500000D03*
%TO.P,J8,34*%
X16000000Y-24000000D03*
%TO.P,J8,35*%
X16000000Y-23500000D03*
%TO.P,J8,36*%
X16000000Y-23000000D03*
%TO.P,J8,37*%
X16000000Y-22500000D03*
%TO.P,J8,38*%
X16000000Y-22000000D03*
%TO.P,J8,39*%
X16000000Y-21500000D03*
%TO.P,J8,40*%
X16000000Y-21000000D03*
%TO.P,J8,41*%
X16000000Y-20500000D03*
%TO.P,J8,42*%
X16000000Y-20000000D03*
%TO.P,J8,43*%
X16000000Y-19500000D03*
%TO.P,J8,44*%
X16000000Y-19000000D03*
%TO.P,J8,45*%
X16000000Y-18500000D03*
%TO.P,J8,46*%
X16000000Y-18000000D03*
%TO.P,J8,47*%
X16000000Y-17500000D03*
%TO.P,J8,48*%
X16000000Y-17000000D03*
%TO.P,J8,49*%
X16000000Y-16500000D03*
%TO.P,J8,50*%
X16000000Y-16000000D03*
%TO.P,J8,51*%
X16000000Y-15500000D03*
%TO.P,J8,52*%
X16000000Y-15000000D03*
%TO.P,J8,53*%
X16000000Y-14500000D03*
%TO.P,J8,54*%
X16000000Y-14000000D03*
%TO.P,J8,55*%
X16000000Y-13500000D03*
%TO.P,J8,56*%
X16000000Y-13000000D03*
%TO.P,J8,57*%
X16000000Y-12500000D03*
%TO.P,J8,58*%
X16000000Y-12000000D03*
%TO.P,J8,59*%
X16000000Y-11500000D03*
%TO.P,J8,60*%
X16000000Y-11000000D03*
%TO.P,J8,61*%
X16000000Y-10500000D03*
%TO.P,J8,62*%
X16000000Y-10000000D03*
%TO.P,J8,63*%
X16000000Y-9500000D03*
%TO.P,J8,64*%
X16000000Y-9000000D03*
%TO.P,J8,65*%
X16000000Y-8500000D03*
%TO.P,J8,66*%
X16000000Y-8000000D03*
%TO.P,J8,67*%
X16000000Y-7500000D03*
%TO.P,J8,68*%
X16000000Y-7000000D03*
%TO.P,J8,69*%
X16000000Y-6500000D03*
%TO.P,J8,70*%
X16000000Y-6000000D03*
%TO.P,J8,71*%
X16000000Y-5500000D03*
%TO.P,J8,72*%
%TO.N,+3V3*%
X16000000Y-5000000D03*
%TO.P,J8,73*%
%TO.N,N/C*%
X16000000Y-4500000D03*
%TO.P,J8,74*%
%TO.N,+3V3*%
X16000000Y-4000000D03*
%TO.P,J8,75*%
%TO.N,N/C*%
X16000000Y-3500000D03*
D19*
%TO.P,J8,MTG*%
X34000000Y-22000000D03*
%TD*%
D20*
%TO.P,D4,1*%
%TO.N,GND*%
X-16000000Y8950000D03*
%TO.P,D4,2*%
%TO.N,COIL_AC2*%
X-16000000Y11050000D03*
%TD*%
%TO.P,D1,1*%
%TO.N,VRECT*%
X-18272000Y20751800D03*
%TO.P,D1,2*%
%TO.N,COIL_AC1*%
X-18272000Y22851800D03*
%TD*%
%TO.P,D2,1*%
%TO.N,VRECT*%
X-18526700Y8950000D03*
%TO.P,D2,2*%
%TO.N,COIL_AC2*%
X-18526700Y11050000D03*
%TD*%
%TO.P,D3,1*%
%TO.N,GND*%
X-16000000Y17557100D03*
%TO.P,D3,2*%
%TO.N,COIL_AC1*%
X-16000000Y19657100D03*
%TD*%
D21*
%TO.P,C2,1*%
%TO.N,+1V2*%
X-8480000Y0D03*
%TO.P,C2,2*%
%TO.N,GND*%
X-7520000Y0D03*
%TD*%
%TO.P,C5,1*%
%TO.N,+1V8*%
X7520000Y-841700D03*
%TO.P,C5,2*%
%TO.N,GND*%
X8480000Y-841700D03*
%TD*%
%TO.P,C6,1*%
%TO.N,+3V3*%
X7520000Y8000000D03*
%TO.P,C6,2*%
%TO.N,GND*%
X8480000Y8000000D03*
%TD*%
%TO.P,C3,1*%
%TO.N,+5V*%
X-8480000Y-5000000D03*
%TO.P,C3,2*%
%TO.N,GND*%
X-7520000Y-5000000D03*
%TD*%
%TO.P,C4,1*%
%TO.N,+1V8*%
X-480000Y-8000000D03*
%TO.P,C4,2*%
%TO.N,GND*%
X480000Y-8000000D03*
%TD*%
%TO.P,C10,1*%
%TO.N,+3V3*%
X-3218100Y8643500D03*
%TO.P,C10,2*%
%TO.N,GND*%
X-2258100Y8643500D03*
%TD*%
%TO.P,C11,1*%
%TO.N,+1V8*%
X2151000Y8643500D03*
%TO.P,C11,2*%
%TO.N,GND*%
X3111000Y8643500D03*
%TD*%
%TO.P,C12,1*%
%TO.N,+3V3*%
X9520000Y12516500D03*
%TO.P,C12,2*%
%TO.N,GND*%
X10480000Y12516500D03*
%TD*%
%TO.P,C1,1*%
%TO.N,+1V2*%
X-8480000Y5000000D03*
%TO.P,C1,2*%
%TO.N,GND*%
X-7520000Y5000000D03*
%TD*%
%TO.P,C9,1*%
%TO.N,+1V8*%
X21520000Y-841700D03*
%TO.P,C9,2*%
%TO.N,GND*%
X22480000Y-841700D03*
%TD*%
%TO.P,C7,1*%
%TO.N,+1V2*%
X14520000Y-3340000D03*
%TO.P,C7,2*%
%TO.N,GND*%
X15480000Y-3340000D03*
%TD*%
%TO.P,C8,1*%
%TO.N,+1V2*%
X21520000Y3674800D03*
%TO.P,C8,2*%
%TO.N,GND*%
X22480000Y3674800D03*
%TD*%
D22*
%TO.P,U7,1*%
%TO.N,+3V3*%
X-30950000Y-23900000D03*
%TO.P,U7,2*%
%TO.N,GND*%
X-30000000Y-23900000D03*
%TO.P,U7,3*%
%TO.N,HALL1_OUT*%
X-29050000Y-23900000D03*
%TO.P,U7,4*%
%TO.N,HALL1_SLEEP*%
X-29050000Y-26100000D03*
%TO.P,U7,5*%
%TO.N,HALL1_TEMP*%
X-30950000Y-26100000D03*
%TD*%
%TO.P,U8,1*%
%TO.N,+3V3*%
X-950000Y-28900000D03*
%TO.P,U8,2*%
%TO.N,GND*%
X0Y-28900000D03*
%TO.P,U8,3*%
%TO.N,HALL2_OUT*%
X950000Y-28900000D03*
%TO.P,U8,4*%
%TO.N,HALL2_SLEEP*%
X950000Y-31100000D03*
%TO.P,U8,5*%
%TO.N,HALL2_TEMP*%
X-950000Y-31100000D03*
%TD*%
%TO.P,U9,1*%
%TO.N,+3V3*%
X29050000Y-23900000D03*
%TO.P,U9,2*%
%TO.N,GND*%
X30000000Y-23900000D03*
%TO.P,U9,3*%
%TO.N,HALL3_OUT*%
X30950000Y-23900000D03*
%TO.P,U9,4*%
%TO.N,HALL3_SLEEP*%
X30950000Y-26100000D03*
%TO.P,U9,5*%
%TO.N,HALL3_TEMP*%
X29050000Y-26100000D03*
%TD*%
%TO.P,U10,1*%
%TO.N,+3V3*%
X31050000Y1100000D03*
%TO.P,U10,2*%
%TO.N,GND*%
X32000000Y1100000D03*
%TO.P,U10,3*%
%TO.N,HALL4_OUT*%
X32950000Y1100000D03*
%TO.P,U10,4*%
%TO.N,HALL4_SLEEP*%
X32950000Y-1100000D03*
%TO.P,U10,5*%
%TO.N,HALL4_TEMP*%
X31050000Y-1100000D03*
%TD*%
D23*
%TO.P,U4,1*%
%TO.N,VRECT*%
X-26800000Y23800000D03*
%TO.P,U4,2*%
X-26800000Y24200000D03*
%TO.P,U4,3*%
%TO.N,GND*%
X-26800000Y24600000D03*
%TO.P,U4,4*%
X-26800000Y25000000D03*
%TO.P,U4,5*%
%TO.N,N/C*%
X-26800000Y25400000D03*
%TO.P,U4,6*%
X-26800000Y25800000D03*
%TO.P,U4,7*%
%TO.N,+3V3*%
X-26800000Y26200000D03*
D24*
%TO.P,U4,8*%
X-26200000Y23200000D03*
%TO.P,U4,9*%
%TO.N,N/C*%
X-25800000Y23200000D03*
%TO.P,U4,10*%
X-25400000Y23200000D03*
%TO.P,U4,11*%
X-25000000Y23200000D03*
%TO.P,U4,12*%
X-24600000Y23200000D03*
%TO.P,U4,13*%
X-24200000Y23200000D03*
%TO.P,U4,14*%
X-23800000Y23200000D03*
D23*
%TO.P,U4,15*%
%TO.N,BQ_SW1*%
X-23200000Y26200000D03*
%TO.P,U4,16*%
%TO.N,BQ_SW2*%
X-23200000Y25800000D03*
%TO.P,U4,17*%
%TO.N,+5V*%
X-23200000Y25400000D03*
%TO.P,U4,18*%
X-23200000Y25000000D03*
%TO.P,U4,19*%
%TO.N,+BATT*%
X-23200000Y24600000D03*
%TO.P,U4,20*%
X-23200000Y24200000D03*
%TO.P,U4,21*%
%TO.N,N/C*%
X-23200000Y23800000D03*
D24*
%TO.P,U4,22*%
X-23800000Y26800000D03*
%TO.P,U4,23*%
%TO.N,BQ_BTST1*%
X-24200000Y26800000D03*
%TO.P,U4,24*%
%TO.N,BQ_BTST2*%
X-24600000Y26800000D03*
%TO.P,U4,25*%
%TO.N,BQ_REGN*%
X-25000000Y26800000D03*
%TO.P,U4,26*%
X-25400000Y26800000D03*
%TO.P,U4,27*%
%TO.N,GND*%
X-25800000Y26800000D03*
%TO.P,U4,28*%
X-26200000Y26800000D03*
D25*
%TO.P,U4,29*%
X-25000000Y25000000D03*
%TD*%
D26*
%TO.P,U5,1*%
%TO.N,VRECT*%
X-27800000Y9750000D03*
%TO.P,U5,2*%
X-27800000Y10250000D03*
%TO.P,U5,3*%
%TO.N,GND*%
X-27800000Y10750000D03*
%TO.P,U5,4*%
X-27800000Y11250000D03*
%TO.P,U5,5*%
X-27800000Y11750000D03*
%TO.P,U5,6*%
X-27800000Y12250000D03*
%TO.P,U5,7*%
%TO.N,COIL_AC1*%
X-27800000Y12750000D03*
%TO.P,U5,8*%
%TO.N,COIL_AC2*%
X-27800000Y13250000D03*
%TO.P,U5,9*%
%TO.N,CLAMP1*%
X-27800000Y13750000D03*
%TO.P,U5,10*%
%TO.N,CLAMP2*%
X-27800000Y14250000D03*
D27*
%TO.P,U5,11*%
%TO.N,BOOT1*%
X-27250000Y9200000D03*
%TO.P,U5,12*%
%TO.N,BOOT2*%
X-26750000Y9200000D03*
%TO.P,U5,13*%
%TO.N,VRECT*%
X-26250000Y9200000D03*
%TO.P,U5,14*%
X-25750000Y9200000D03*
%TO.P,U5,15*%
%TO.N,+5V*%
X-25250000Y9200000D03*
%TO.P,U5,16*%
X-24750000Y9200000D03*
%TO.P,U5,17*%
%TO.N,+3V3*%
X-24250000Y9200000D03*
%TO.P,U5,18*%
X-23750000Y9200000D03*
%TO.P,U5,19*%
%TO.N,N/C*%
X-23250000Y9200000D03*
%TO.P,U5,20*%
X-22750000Y9200000D03*
D26*
%TO.P,U5,21*%
X-22200000Y14250000D03*
%TO.P,U5,22*%
X-22200000Y13750000D03*
%TO.P,U5,23*%
X-22200000Y13250000D03*
%TO.P,U5,24*%
X-22200000Y12750000D03*
%TO.P,U5,25*%
X-22200000Y12250000D03*
%TO.P,U5,26*%
X-22200000Y11750000D03*
%TO.P,U5,27*%
X-22200000Y11250000D03*
%TO.P,U5,28*%
X-22200000Y10750000D03*
%TO.P,U5,29*%
X-22200000Y10250000D03*
%TO.P,U5,30*%
X-22200000Y9750000D03*
D27*
%TO.P,U5,31*%
X-22750000Y14800000D03*
%TO.P,U5,32*%
X-23250000Y14800000D03*
%TO.P,U5,33*%
X-23750000Y14800000D03*
%TO.P,U5,34*%
X-24250000Y14800000D03*
%TO.P,U5,35*%
X-24750000Y14800000D03*
%TO.P,U5,36*%
X-25250000Y14800000D03*
%TO.P,U5,37*%
X-25750000Y14800000D03*
%TO.P,U5,38*%
X-26250000Y14800000D03*
%TO.P,U5,39*%
X-26750000Y14800000D03*
%TO.P,U5,40*%
X-27250000Y14800000D03*
%TD*%
D28*
%TO.P,U1,1*%
%TO.N,+1V2*%
X-3300000Y-3600000D03*
%TO.P,U1,2*%
X-3300000Y-3200000D03*
%TO.P,U1,3*%
X-3300000Y-2800000D03*
%TO.P,U1,4*%
X-3300000Y-2400000D03*
%TO.P,U1,5*%
X-3300000Y-2000000D03*
%TO.P,U1,6*%
X-3300000Y-1600000D03*
%TO.P,U1,7*%
%TO.N,+5V*%
X-3300000Y-1200000D03*
%TO.P,U1,8*%
X-3300000Y-800000D03*
%TO.P,U1,9*%
X-3300000Y-400000D03*
%TO.P,U1,10*%
%TO.N,+1V8*%
X-3300000Y0D03*
%TO.P,U1,11*%
X-3300000Y400000D03*
%TO.P,U1,12*%
X-3300000Y800000D03*
%TO.P,U1,13*%
X-3300000Y1200000D03*
%TO.P,U1,14*%
%TO.N,GND*%
X-3300000Y1600000D03*
%TO.P,U1,15*%
X-3300000Y2000000D03*
%TO.P,U1,16*%
X-3300000Y2400000D03*
%TO.P,U1,17*%
X-3300000Y2800000D03*
%TO.P,U1,18*%
X-3300000Y3200000D03*
%TO.P,U1,19*%
X-3300000Y3600000D03*
D29*
%TO.P,U1,20*%
X-3600000Y-3300000D03*
%TO.P,U1,21*%
X-3200000Y-3300000D03*
%TO.P,U1,22*%
%TO.N,N/C*%
X-2800000Y-3300000D03*
%TO.P,U1,23*%
X-2400000Y-3300000D03*
%TO.P,U1,24*%
X-2000000Y-3300000D03*
%TO.P,U1,25*%
X-1600000Y-3300000D03*
%TO.P,U1,26*%
X-1200000Y-3300000D03*
%TO.P,U1,27*%
%TO.N,CSI_D0_P*%
X-800000Y-3300000D03*
%TO.P,U1,28*%
%TO.N,CSI_D0_N*%
X-400000Y-3300000D03*
%TO.P,U1,29*%
%TO.N,CSI_D1_P*%
X0Y-3300000D03*
%TO.P,U1,30*%
%TO.N,CSI_D1_N*%
X400000Y-3300000D03*
%TO.P,U1,31*%
%TO.N,CSI_D2_P*%
X800000Y-3300000D03*
%TO.P,U1,32*%
%TO.N,CSI_D2_N*%
X1200000Y-3300000D03*
%TO.P,U1,33*%
%TO.N,CSI_D3_P*%
X1600000Y-3300000D03*
%TO.P,U1,34*%
%TO.N,CSI_D3_N*%
X2000000Y-3300000D03*
%TO.P,U1,35*%
%TO.N,CSI_CLK_P*%
X2400000Y-3300000D03*
%TO.P,U1,36*%
%TO.N,CSI_CLK_N*%
X2800000Y-3300000D03*
%TO.P,U1,37*%
%TO.N,DSI_D0_P*%
X3200000Y-3300000D03*
%TO.P,U1,38*%
%TO.N,DSI_D0_N*%
X3600000Y-3300000D03*
D28*
%TO.P,U1,39*%
%TO.N,DSI_D1_P*%
X3300000Y3600000D03*
%TO.P,U1,40*%
%TO.N,DSI_D1_N*%
X3300000Y3200000D03*
%TO.P,U1,41*%
%TO.N,DSI_D2_P*%
X3300000Y2800000D03*
%TO.P,U1,42*%
%TO.N,DSI_D2_N*%
X3300000Y2400000D03*
%TO.P,U1,43*%
%TO.N,DSI_D3_P*%
X3300000Y2000000D03*
%TO.P,U1,44*%
%TO.N,DSI_D3_N*%
X3300000Y1600000D03*
%TO.P,U1,45*%
%TO.N,DSI_CLK_P*%
X3300000Y1200000D03*
%TO.P,U1,46*%
%TO.N,DSI_CLK_N*%
X3300000Y800000D03*
%TO.P,U1,47*%
%TO.N,WIFI_UART_TX*%
X3300000Y400000D03*
%TO.P,U1,48*%
%TO.N,WIFI_UART_RX*%
X3300000Y0D03*
%TO.P,U1,49*%
%TO.N,WIFI_WAKE_N*%
X3300000Y-400000D03*
%TO.P,U1,50*%
%TO.N,WIFI_PERST_N*%
X3300000Y-800000D03*
%TO.P,U1,51*%
%TO.N,WIFI_DISABLE1_N*%
X3300000Y-1200000D03*
%TO.P,U1,52*%
%TO.N,LIDAR_UART_TX*%
X3300000Y-1600000D03*
%TO.P,U1,53*%
%TO.N,LIDAR_UART_RX*%
X3300000Y-2000000D03*
%TO.P,U1,54*%
%TO.N,LIDAR_MOTOR_PWM*%
X3300000Y-2400000D03*
%TO.P,U1,55*%
%TO.N,LIDAR_SYNC*%
X3300000Y-2800000D03*
%TO.P,U1,56*%
%TO.N,N/C*%
X3300000Y-3200000D03*
%TO.P,U1,57*%
X3300000Y-3600000D03*
D29*
%TO.P,U1,58*%
X3600000Y3300000D03*
%TO.P,U1,59*%
%TO.N,+3V3*%
X3200000Y3300000D03*
%TO.P,U1,60*%
X2800000Y3300000D03*
%TO.P,U1,61*%
%TO.N,HALL_SPI_MOSI*%
X2400000Y3300000D03*
%TO.P,U1,62*%
%TO.N,HALL_SPI_MISO*%
X2000000Y3300000D03*
%TO.P,U1,63*%
%TO.N,HALL_SPI_SCK*%
X1600000Y3300000D03*
%TO.P,U1,64*%
%TO.N,HALL_SPI_CS*%
X1200000Y3300000D03*
%TO.P,U1,65*%
%TO.N,N/C*%
X800000Y3300000D03*
%TO.P,U1,66*%
X400000Y3300000D03*
%TO.P,U1,67*%
X0Y3300000D03*
%TO.P,U1,68*%
X-400000Y3300000D03*
%TO.P,U1,69*%
X-800000Y3300000D03*
%TO.P,U1,70*%
X-1200000Y3300000D03*
%TO.P,U1,71*%
X-1600000Y3300000D03*
%TO.P,U1,72*%
X-2000000Y3300000D03*
%TO.P,U1,73*%
X-2400000Y3300000D03*
%TO.P,U1,74*%
X-2800000Y3300000D03*
%TO.P,U1,75*%
X-3200000Y3300000D03*
%TO.P,U1,76*%
X-3600000Y3300000D03*
%TD*%
D30*
%TO.P,C23,1*%
%TO.N,+1V2*%
X-11743400Y20000000D03*
%TO.P,C23,2*%
%TO.N,GND*%
X-9843400Y20000000D03*
%TD*%
%TO.P,C21,1*%
%TO.N,+3V3*%
X-17689900Y20000000D03*
%TO.P,C21,2*%
%TO.N,GND*%
X-15789900Y20000000D03*
%TD*%
%TO.P,C20,1*%
%TO.N,+5V*%
X-19366700Y25789000D03*
%TO.P,C20,2*%
%TO.N,GND*%
X-17466700Y25789000D03*
%TD*%
%TO.P,C22,1*%
%TO.N,+1V8*%
X-14950000Y25789000D03*
%TO.P,C22,2*%
%TO.N,GND*%
X-13050000Y25789000D03*
%TD*%
D31*
%TO.P,L1,1*%
%TO.N,+5V*%
X-34400000Y20000000D03*
%TO.P,L1,2*%
%TO.N,BQ_SW1*%
X-31600000Y20000000D03*
%TD*%
D32*
%TO.P,J9,1*%
%TO.N,N/C*%
X108500000Y-9750000D03*
%TO.P,J9,2*%
X108500000Y-9250000D03*
%TO.P,J9,3*%
%TO.N,GND*%
X108500000Y-8750000D03*
%TO.P,J9,4*%
%TO.N,DSI_D0_N*%
X108500000Y-8250000D03*
%TO.P,J9,5*%
%TO.N,DSI_D0_P*%
X108500000Y-7750000D03*
%TO.P,J9,6*%
%TO.N,GND*%
X108500000Y-7250000D03*
%TO.P,J9,7*%
%TO.N,DSI_D1_N*%
X108500000Y-6750000D03*
%TO.P,J9,8*%
%TO.N,DSI_D1_P*%
X108500000Y-6250000D03*
%TO.P,J9,9*%
%TO.N,GND*%
X108500000Y-5750000D03*
%TO.P,J9,10*%
%TO.N,DSI_CLK_N*%
X108500000Y-5250000D03*
%TO.P,J9,11*%
%TO.N,DSI_CLK_P*%
X108500000Y-4750000D03*
%TO.P,J9,12*%
%TO.N,GND*%
X108500000Y-4250000D03*
%TO.P,J9,13*%
%TO.N,DSI_D2_N*%
X108500000Y-3750000D03*
%TO.P,J9,14*%
%TO.N,DSI_D2_P*%
X108500000Y-3250000D03*
%TO.P,J9,15*%
%TO.N,GND*%
X108500000Y-2750000D03*
%TO.P,J9,16*%
%TO.N,DSI_D3_N*%
X108500000Y-2250000D03*
%TO.P,J9,17*%
%TO.N,DSI_D3_P*%
X108500000Y-1750000D03*
%TO.P,J9,18*%
%TO.N,GND*%
X108500000Y-1250000D03*
%TO.P,J9,19*%
%TO.N,OLED_RESET_N*%
X108500000Y-750000D03*
%TO.P,J9,20*%
%TO.N,N/C*%
X108500000Y-250000D03*
%TO.P,J9,21*%
%TO.N,+3V3*%
X108500000Y250000D03*
%TO.P,J9,22*%
X108500000Y750000D03*
%TO.P,J9,23*%
%TO.N,OLED_INT_N*%
X108500000Y1250000D03*
%TO.P,J9,24*%
%TO.N,+1V8*%
X108500000Y1750000D03*
%TO.P,J9,25*%
%TO.N,+3V3*%
X108500000Y2250000D03*
%TO.P,J9,26*%
%TO.N,N/C*%
X108500000Y2750000D03*
%TO.P,J9,27*%
X108500000Y3250000D03*
%TO.P,J9,28*%
%TO.N,GND*%
X108500000Y3750000D03*
%TO.P,J9,29*%
%TO.N,N/C*%
X108500000Y4250000D03*
%TO.P,J9,30*%
X108500000Y4750000D03*
%TO.P,J9,31*%
X108500000Y5250000D03*
%TO.P,J9,32*%
X108500000Y5750000D03*
%TO.P,J9,33*%
%TO.N,GND*%
X108500000Y6250000D03*
%TO.P,J9,34*%
%TO.N,N/C*%
X108500000Y6750000D03*
%TO.P,J9,35*%
X108500000Y7250000D03*
%TO.P,J9,36*%
X108500000Y7750000D03*
%TO.P,J9,37*%
X108500000Y8250000D03*
%TO.P,J9,38*%
%TO.N,GND*%
X108500000Y8750000D03*
%TO.P,J9,39*%
%TO.N,N/C*%
X108500000Y9250000D03*
%TO.P,J9,40*%
X108500000Y9750000D03*
D33*
%TO.P,J9,MP1*%
X108000000Y-11250000D03*
%TO.P,J9,MP2*%
X108000000Y11250000D03*
%TD*%
D34*
%TO.P,C25,1*%
%TO.N,+BATT*%
X-32939300Y26003500D03*
%TO.P,C25,2*%
%TO.N,GND*%
X-29989300Y26003500D03*
%TD*%
%TO.P,C24,1*%
%TO.N,VRECT*%
X-22375000Y2398200D03*
%TO.P,C24,2*%
%TO.N,GND*%
X-19425000Y2398200D03*
%TD*%
D35*
%TO.N,CAM6_D0_P*%
X18127300Y-38389300D03*
X12374800Y3000D03*
D36*
%TO.N,GND*%
X13969600Y-37139800D03*
X17892700Y-37637500D03*
D37*
%TO.N,+3V3*%
X-24280000Y8303700D03*
%TO.N,+1V8*%
X7024300Y-2253400D03*
X6734700Y9355700D03*
X15500300Y2915600D03*
D35*
%TO.N,CAM3_D0_N*%
X16847000Y32151700D03*
X17647100Y-110700D03*
%TO.N,CAM3_CLK_P*%
X17866400Y-641300D03*
X18112900Y30201400D03*
D37*
%TO.N,+5V*%
X-26552800Y11348400D03*
D36*
%TO.N,LIDAR_UART_TX*%
X-2150300Y-1540700D03*
%TO.N,LIDAR_UART_RX*%
X-2546500Y-2000000D03*
%TO.N,LIDAR_MOTOR_PWM*%
X-2156100Y-2461200D03*
%TO.N,WIFI_UART_RX*%
X4170600Y-28000000D03*
X2040200Y-742200D03*
%TO.N,WIFI_UART_TX*%
X2613800Y400000D03*
X4513900Y-27000000D03*
%TO.N,WIFI_WAKE_N*%
X6482800Y-25990600D03*
X4706500Y-332700D03*
%TO.N,WIFI_PERST_N*%
X4066400Y-800000D03*
X5754200Y-25000000D03*
D38*
%TO.N,COIL_AC2*%
X-20022800Y11348400D03*
X-23152700Y13250000D03*
D36*
%TO.N,+BATT*%
X-31984100Y26003500D03*
X-22534900Y24440000D03*
D39*
%TO.N,DSI_CLK_P*%
X17867400Y-6057700D03*
X10616100Y1200000D03*
%TO.N,DSI_CLK_N*%
X10857700Y362000D03*
X17869600Y-6841600D03*
%TD*%
%TO.N,CAM6_D0_P*%
D40*
X17750000Y-38766600D02*
X18127300Y-38389300D01*
X12374800Y-374800D02*
X12374800Y3000D01*
X17750000Y-39500000D02*
X17750000Y-38766600D01*
X12750000Y-750000D02*
X12374800Y-374800D01*
%TO.N,GND*%
D41*
X8480000Y-841700D02*
X10302800Y-2664500D01*
X-2973200Y2000000D02*
X-3300000Y2000000D01*
X-33500000Y6273300D02*
X-33432500Y6205800D01*
X-26200000Y26800000D02*
X-26200000Y27301700D01*
X8480000Y8000000D02*
X8480000Y7413400D01*
X-2751500Y-38773300D02*
X-4250000Y-38773300D01*
X24300000Y32276700D02*
X24250000Y32226700D01*
X23191700Y32668400D02*
X22750000Y32226700D01*
X-25250000Y-38849100D02*
X-25250000Y-38774800D01*
X17915400Y-37637500D02*
X17892700Y-37637500D01*
X300000Y30723300D02*
X250000Y30773300D01*
X-25987500Y27656900D02*
X-25987500Y27301700D01*
X16250000Y2250000D02*
X16750000Y2250000D01*
X8480000Y7413400D02*
X8447800Y7381200D01*
X-26750000Y32226700D02*
X-27993900Y32226700D01*
X-27511600Y11250000D02*
X-27443700Y11250000D01*
X-28057300Y30774800D02*
X-28248500Y30774800D01*
X1750000Y-39500000D02*
X1750000Y-38773300D01*
X25750000Y-38723300D02*
X24300000Y-38723300D01*
X30750000Y-39500000D02*
X30750000Y-38773300D01*
X-29750000Y-39500000D02*
X-29750000Y-38773300D01*
X25750000Y-38773300D02*
X25750000Y-38723300D01*
X-17250000Y-38773300D02*
X-16412800Y-37936100D01*
X-28250000Y-38774800D02*
X-28250000Y-38773300D01*
X-19187100Y9540600D02*
X-16590600Y9540600D01*
X-14105100Y24733900D02*
X-16411600Y24733900D01*
X-4250000Y-38774800D02*
X-4250000Y-38773300D01*
X30750000Y32226700D02*
X30250000Y32226700D01*
X19807000Y-280800D02*
X17276100Y2250000D01*
X-8136800Y-4383200D02*
X-7520000Y-5000000D01*
X-16590600Y9540600D02*
X-16000000Y8950000D01*
X-28026400Y30805700D02*
X-28057300Y30774800D01*
X-33500000Y8000000D02*
X-33500000Y6273300D01*
X18741400Y7413400D02*
X22480000Y3674800D01*
X-28250000Y-38774800D02*
X-28251500Y-38773300D01*
X-25250000Y-38773300D02*
X-26750000Y-38773300D01*
X6568400Y30773300D02*
X6250000Y30773300D01*
X3111000Y8643500D02*
X3111000Y8005400D01*
X-28250000Y30774800D02*
X-28250000Y30773300D01*
X-2650000Y15250000D02*
X-3126700Y15250000D01*
X-2750000Y30774800D02*
X-2751500Y30773300D01*
X84400000Y3600000D02*
X83600000Y3600000D01*
X8447800Y7381200D02*
X3735200Y7381200D01*
X13969600Y-37139800D02*
X7883500Y-37139800D01*
X-16000000Y8950000D02*
X-16000000Y5823200D01*
X-31976700Y11250000D02*
X-33500000Y9726700D01*
X1750000Y-38692800D02*
X1750000Y-38773300D01*
X-2520000Y-5000000D02*
X480000Y-8000000D01*
X19750000Y-39500000D02*
X19750000Y-38773300D01*
X24300000Y-38723300D02*
X24250000Y-38773300D01*
X-27223300Y11029600D02*
X-27223300Y10750000D01*
X-26298300Y25000000D02*
X-26298300Y24600000D01*
X18538800Y-38773300D02*
X18538800Y-38260900D01*
X6169500Y-38692800D02*
X6250000Y-38773300D01*
X-8136800Y-616800D02*
X-8136800Y-4383200D01*
X19750000Y32150900D02*
X19750000Y32225200D01*
X6750000Y31500000D02*
X6750000Y31136700D01*
X-27443700Y11750000D02*
X-27223300Y11529600D01*
X22480000Y-841700D02*
X22480000Y367300D01*
X-1250000Y-39500000D02*
X-1250000Y-38773300D01*
X-28026400Y30805800D02*
X-28026400Y30805700D01*
X30250000Y-38773300D02*
X30250000Y-39500000D01*
X17423300Y-2664500D02*
X19807000Y-280800D01*
X30000000Y-23900000D02*
X30000000Y-24576700D01*
X-26298300Y25000000D02*
X-26800000Y25000000D01*
X24250000Y-38849100D02*
X24250000Y-38774800D01*
X-27223300Y12250000D02*
X-27223300Y11750000D01*
X24248500Y-38773300D02*
X22751500Y-38773300D01*
X-26751500Y-38773300D02*
X-28250000Y-38773300D01*
X-17250000Y-38773300D02*
X-17750000Y-38773300D01*
X-17804400Y30718900D02*
X-22250000Y30718900D01*
X-25987500Y30773300D02*
X-26750000Y30773300D01*
X24250000Y-38774800D02*
X24248500Y-38773300D01*
X-2750000Y31500000D02*
X-2750000Y30849200D01*
X-5750000Y30849200D02*
X-5750000Y30774800D01*
X-25800000Y26800000D02*
X-25800000Y27301700D01*
X-25250000Y-38774800D02*
X-25250000Y-38774000D01*
X23849700Y32668400D02*
X23191700Y32668400D01*
X8480000Y7413400D02*
X18741400Y7413400D01*
X-33432500Y6205800D02*
X-22521900Y6205800D01*
X-28126700Y32093900D02*
X-28126700Y30906100D01*
X19750000Y-38773300D02*
X21250000Y-38773300D01*
X-25250000Y-39500000D02*
X-25250000Y-38849100D01*
X-17750000Y-38824100D02*
X-17750000Y-38773300D01*
X18250000Y31787500D02*
X18250000Y32226700D01*
X-22250000Y30718900D02*
X-22250000Y30773300D01*
X25750000Y31500000D02*
X25750000Y32226700D01*
X-5901600Y5000000D02*
X-7520000Y5000000D01*
X24250000Y-39500000D02*
X24250000Y-38849100D01*
X24250000Y32268100D02*
X23849700Y32668400D01*
X-17750000Y30773300D02*
X-17250000Y30773300D01*
X6250000Y31500000D02*
X6250000Y30773300D01*
X-28250000Y-39500000D02*
X-28250000Y-38849100D01*
X30250000Y-38773300D02*
X30200000Y-38723300D01*
X-16412800Y-37936100D02*
X-6587200Y-37936100D01*
X-2888300Y15750000D02*
X-3126700Y15750000D01*
X-26750000Y-39500000D02*
X-26750000Y-38849100D01*
X-26750000Y30774800D02*
X-26750000Y30773300D01*
X-17750000Y30773300D02*
X-17804400Y30718900D01*
X18538800Y-38773300D02*
X19750000Y-38773300D01*
X6750000Y30773300D02*
X18250000Y30773300D01*
X-27800000Y11250000D02*
X-31976700Y11250000D01*
X6250000Y30773300D02*
X6200000Y30723300D01*
X-23700000Y-38487100D02*
X-23700000Y-38723300D01*
X-28250000Y31500000D02*
X-28250000Y32226700D01*
X30200000Y-38723300D02*
X30000000Y-38723300D01*
X-6587200Y-37936100D02*
X-5750000Y-38773300D01*
X1750000Y-38692800D02*
X6169500Y-38692800D01*
X-4250000Y30774800D02*
X-4250000Y30773300D01*
X-2750000Y30774800D02*
X-2750000Y30773300D01*
X-11700200Y22329000D02*
X-11700200Y21856900D01*
X-27800000Y10750000D02*
X-27223300Y10750000D01*
X-22250000Y31500000D02*
X-22250000Y30773300D01*
X-14105100Y24733900D02*
X-11700200Y22329000D01*
X-17750000Y31500000D02*
X-17750000Y30773300D01*
X10302800Y-2664500D02*
X17423300Y-2664500D01*
X-2256200Y16262900D02*
X6733600Y16262900D01*
X-10735100Y25789000D02*
X-13050000Y25789000D01*
X-25000000Y25000000D02*
X-26298300Y25000000D01*
X31944000Y367300D02*
X22480000Y367300D01*
X-30000000Y-23223300D02*
X-5000000Y-23223300D01*
X30200000Y32276700D02*
X25750000Y32276700D01*
X19748500Y32226700D02*
X18250000Y32226700D01*
X30750000Y-38773300D02*
X30250000Y-38773300D01*
X25750000Y-39500000D02*
X25750000Y-38773300D01*
X-11700200Y21856900D02*
X-16000000Y17557100D01*
X18250000Y-38773300D02*
X18538800Y-38773300D01*
X1750000Y30723300D02*
X300000Y30723300D01*
X-5750000Y30774800D02*
X-5750000Y30774100D01*
X30000000Y-24576700D02*
X30000000Y-38723300D01*
X13750000Y1750000D02*
X13250000Y1750000D01*
X91600000Y4400000D02*
X90800000Y4400000D01*
X22750000Y-39500000D02*
X22750000Y-38774800D01*
X22750000Y31500000D02*
X22750000Y32226700D01*
X-26750000Y31500000D02*
X-26750000Y32226700D01*
X-16411600Y24733900D02*
X-17466700Y25789000D01*
X-28250000Y32226700D02*
X-29750000Y32226700D01*
X1750000Y30723300D02*
X1750000Y30773300D01*
X14250000Y1750000D02*
X13750000Y1750000D01*
X-5750000Y30774100D02*
X-10735100Y25789000D01*
X-2769100Y15750000D02*
X-2256200Y16262900D01*
X-2750000Y30849200D02*
X-2750000Y30774800D01*
X-4250000Y30774800D02*
X-4251500Y30773300D01*
X18250000Y-39500000D02*
X18250000Y-38773300D01*
X90800000Y4400000D02*
X90000000Y4400000D01*
X6750000Y-38273300D02*
X6750000Y-38773300D01*
X1750000Y31500000D02*
X1750000Y30773300D01*
X-26200000Y27301700D02*
X-25987500Y27301700D01*
X-23700000Y-38723300D02*
X-23750000Y-38773300D01*
X-27223300Y11529600D02*
X-27223300Y11250000D01*
X25750000Y32276700D02*
X25750000Y32226700D01*
X22751500Y-38773300D02*
X22750000Y-38774800D01*
X6750000Y-39500000D02*
X6750000Y-38773300D01*
X-27443700Y11750000D02*
X-27223300Y11750000D01*
X22750000Y-38774800D02*
X22750000Y-38773300D01*
X19750000Y31500000D02*
X19750000Y32150900D01*
X-17250000Y-39500000D02*
X-17250000Y-38824100D01*
X-22250000Y30718900D02*
X-23695600Y30718900D01*
X21250000Y-39500000D02*
X21250000Y-38773300D01*
X-26750000Y-38849100D02*
X-26750000Y-38774800D01*
X30000000Y-38723300D02*
X25750000Y-38723300D01*
X14750000Y1750000D02*
X14250000Y1750000D01*
X-7520000Y-5000000D02*
X-2520000Y-5000000D01*
X-26750000Y-38774800D02*
X-26751500Y-38773300D01*
X-23750000Y30773300D02*
X-25250000Y30773300D01*
X6250000Y-38824100D02*
X6250000Y-38773300D01*
X21823400Y-1498300D02*
X22480000Y-841700D01*
X-25250000Y30773300D02*
X-25987500Y30773300D01*
X-2773300Y1600000D02*
X-2773300Y1800100D01*
X-5750000Y-39500000D02*
X-5750000Y-38773300D01*
X-28250000Y30774800D02*
X-28250000Y31500000D01*
X-2650000Y15750000D02*
X-2769100Y15750000D01*
X-23695600Y30718900D02*
X-23750000Y30773300D01*
X-5750000Y31500000D02*
X-5750000Y30849200D01*
X6750000Y30954900D02*
X6750000Y30773300D01*
X18250000Y31500000D02*
X18250000Y30773300D01*
X24250000Y31500000D02*
X24250000Y32226700D01*
X-4250000Y30849200D02*
X-4250000Y30774800D01*
X-2751500Y30773300D02*
X-4250000Y30773300D01*
X6750000Y-38773300D02*
X6250000Y-38773300D01*
X-29192800Y26800000D02*
X-26200000Y26800000D01*
X-26800000Y24600000D02*
X-26298300Y24600000D01*
X-2258100Y8643500D02*
X-5901600Y5000000D01*
X21250000Y-38773300D02*
X22750000Y-38773300D01*
X-4251500Y-38773300D02*
X-5750000Y-38773300D01*
X6750000Y31136700D02*
X6750000Y30954900D01*
X-2769100Y15750000D02*
X-2888300Y15750000D01*
X-2750000Y-38849100D02*
X-2750000Y-38774800D01*
X-25250000Y-38774000D02*
X-25250000Y-38773300D01*
X-17750000Y-38773300D02*
X-17800000Y-38723300D01*
X-1250000Y-38773300D02*
X-2750000Y-38773300D01*
X85200000Y3600000D02*
X84400000Y3600000D01*
X-25987500Y27301700D02*
X-25800000Y27301700D01*
X-30000000Y-23900000D02*
X-30000000Y-23223300D01*
X-2973200Y2000000D02*
X-2773300Y2000000D01*
X-27800000Y12250000D02*
X-27223300Y12250000D01*
X250000Y-38773300D02*
X-1250000Y-38773300D01*
X21250000Y32226700D02*
X19750000Y32226700D01*
X-2750000Y-38774800D02*
X-2751500Y-38773300D01*
X-1250000Y30773300D02*
X-2750000Y30773300D01*
X-19425000Y2398200D02*
X-16410000Y-616800D01*
X-16000000Y5823200D02*
X-19425000Y2398200D01*
X-2750000Y-38774800D02*
X-2750000Y-38773300D01*
X18538800Y-38260900D02*
X17915400Y-37637500D01*
X-27443700Y11250000D02*
X-27223300Y11029600D01*
X-22521900Y6205800D02*
X-19187100Y9540600D01*
X-1620000Y8005400D02*
X-2258100Y8643500D01*
X17276100Y2250000D02*
X16750000Y2250000D01*
X-28248500Y30774800D02*
X-28250000Y30773300D01*
X-17250000Y30773300D02*
X-17250000Y31187500D01*
X-22200000Y-38723300D02*
X-22250000Y-38773300D01*
X6750000Y30954900D02*
X6568400Y30773300D01*
X-28126700Y30906100D02*
X-28026400Y30805800D01*
X-23750000Y-39500000D02*
X-23750000Y-38773300D01*
X21250000Y31500000D02*
X21250000Y32226700D01*
X-1250000Y31500000D02*
X-1250000Y30773300D01*
X6250000Y-39500000D02*
X6250000Y-38824100D01*
X-27993900Y32226700D02*
X-28126700Y32093900D01*
X-5000000Y-23223300D02*
X0Y-28223300D01*
X-27655800Y11250000D02*
X-27800000Y11250000D01*
X-7376700Y20000000D02*
X-3126700Y15750000D01*
X24250000Y32226700D02*
X24250000Y32268100D01*
X32000000Y423300D02*
X31944000Y367300D01*
X21024400Y-1498300D02*
X21823400Y-1498300D01*
X-27800000Y11750000D02*
X-27511600Y11750000D01*
X19750000Y32225200D02*
X19748500Y32226700D01*
X-25987500Y27656900D02*
X-19334600Y27656900D01*
X30250000Y31500000D02*
X30250000Y32175900D01*
X92400000Y4400000D02*
X91600000Y4400000D01*
X250000Y-39500000D02*
X250000Y-38773300D01*
X-9843400Y20000000D02*
X-7376700Y20000000D01*
X-19334600Y27656900D02*
X-17466700Y25789000D01*
X-3300000Y2400000D02*
X-2773300Y2400000D01*
X-17800000Y-38723300D02*
X-22200000Y-38723300D01*
X24250000Y-38774800D02*
X24250000Y-38773300D01*
X-33500000Y8787500D02*
X-33500000Y9726700D01*
X-26750000Y-38774800D02*
X-26750000Y-38773300D01*
X250000Y30773300D02*
X-1250000Y30773300D01*
X-2888300Y15750000D02*
X-3126700Y15511600D01*
X-25987500Y30773300D02*
X-25987500Y27656900D01*
X-23750000Y31500000D02*
X-23750000Y30773300D01*
X25750000Y32276700D02*
X24300000Y32276700D01*
X-17250000Y31500000D02*
X-17250000Y31187500D01*
X30250000Y32226700D02*
X30200000Y32276700D01*
X-4250000Y-39500000D02*
X-4250000Y-38849100D01*
X7883500Y-37139800D02*
X6750000Y-38273300D01*
X30250000Y32175900D02*
X30250000Y32226700D01*
X6200000Y30723300D02*
X1750000Y30723300D01*
X-13050000Y25789000D02*
X-14105100Y24733900D01*
X-27655800Y11250000D02*
X-27511600Y11250000D01*
X19750000Y32225200D02*
X19750000Y32226700D01*
X-27443700Y11250000D02*
X-27223300Y11250000D01*
X3111000Y8005400D02*
X-1620000Y8005400D01*
X22750000Y32226700D02*
X21250000Y32226700D01*
X-24064700Y-38122400D02*
X-23700000Y-38487100D01*
X-5750000Y30774100D02*
X-5750000Y30773300D01*
X30750000Y31500000D02*
X30750000Y32226700D01*
X-4250000Y31500000D02*
X-4250000Y30849200D01*
X330500Y-38692800D02*
X250000Y-38773300D01*
X-2773300Y2000000D02*
X-2773300Y2400000D01*
X-2773300Y1800100D02*
X-2973200Y2000000D01*
X-3300000Y1600000D02*
X-2773300Y1600000D01*
X-4251500Y30773300D02*
X-5750000Y30773300D01*
X-33500000Y8787500D02*
X-33500000Y8000000D01*
X-16410000Y-616800D02*
X-8136800Y-616800D01*
X-25250000Y31500000D02*
X-25250000Y30773300D01*
X250000Y31500000D02*
X250000Y30773300D01*
X-26750000Y30774800D02*
X-26750000Y31500000D01*
X-27511600Y11750000D02*
X-27443700Y11750000D01*
X-22250000Y-39500000D02*
X-22250000Y-38773300D01*
X-11700200Y21856900D02*
X-9843400Y20000000D01*
X-25250000Y-38773300D02*
X-24599100Y-38122400D01*
X19807000Y-280800D02*
X21024400Y-1498300D01*
X-17750000Y-39500000D02*
X-17750000Y-38824100D01*
X86000000Y3600000D02*
X85200000Y3600000D01*
X18250000Y31787500D02*
X18250000Y31500000D01*
X22480000Y367300D02*
X22480000Y3674800D01*
X-22300000Y-38723300D02*
X-23700000Y-38723300D01*
X-2750000Y-39500000D02*
X-2750000Y-38849100D01*
X-8136800Y-616800D02*
X-7520000Y0D01*
X15750000Y1750000D02*
X15250000Y1750000D01*
X6733600Y16262900D02*
X10480000Y12516500D01*
X32000000Y1100000D02*
X32000000Y423300D01*
X3735200Y7381200D02*
X3111000Y8005400D01*
X0Y-28900000D02*
X0Y-28223300D01*
X1750000Y-38692800D02*
X330500Y-38692800D01*
X-22250000Y-38773300D02*
X-22300000Y-38723300D01*
X-4250000Y-38849100D02*
X-4250000Y-38774800D01*
X-17250000Y-38824100D02*
X-17250000Y-38773300D01*
X-4250000Y-38774800D02*
X-4251500Y-38773300D01*
X15250000Y1750000D02*
X14750000Y1750000D01*
X-29750000Y31500000D02*
X-29750000Y32226700D01*
X-28250000Y-38849100D02*
X-28250000Y-38774800D01*
X-28251500Y-38773300D02*
X-29750000Y-38773300D01*
X-3126700Y15511600D02*
X-3126700Y15250000D01*
X-24599100Y-38122400D02*
X-24064700Y-38122400D01*
X-29989300Y26003500D02*
X-29192800Y26800000D01*
%TO.N,+3V3*%
D42*
X31050000Y1525900D02*
X31050000Y1951700D01*
X-2650000Y14250000D02*
X-3301700Y14250000D01*
X23549500Y12000000D02*
X24569500Y12000000D01*
X9520000Y12391500D02*
X10153200Y11758300D01*
X28510000Y12000000D02*
X27490000Y12000000D01*
D43*
X2938300Y15275200D02*
X2650000Y15563500D01*
D42*
X-950000Y-28625000D02*
X-950000Y-28048300D01*
X28510000Y4491700D02*
X28510000Y12000000D01*
X-2650000Y14250000D02*
X-2176900Y14250000D01*
D43*
X-24250000Y9200000D02*
X-24250000Y8523400D01*
D42*
X-17689900Y20000000D02*
X-21395100Y16294800D01*
X-30950000Y-23900000D02*
X-30950000Y-24751700D01*
X24569500Y12000000D02*
X27490000Y12000000D01*
X-21395100Y9485700D02*
X-22432500Y8448300D01*
D43*
X-24250000Y9200000D02*
X-24250000Y9876600D01*
D42*
X-950000Y-28775100D02*
X-950000Y-28650200D01*
X-2176900Y14250000D02*
X-863400Y15563500D01*
D43*
X-24224800Y8448100D02*
X-24224800Y8448300D01*
X-24250000Y9876600D02*
X-23750000Y9876600D01*
D42*
X-4246600Y-24751700D02*
X-30950000Y-24751700D01*
D43*
X-23750000Y9200000D02*
X-23750000Y9876600D01*
D42*
X-24224800Y8448100D02*
X-24224800Y8358900D01*
D43*
X-2650000Y14723100D02*
X-2650000Y14750000D01*
D42*
X7520000Y9125100D02*
X7520000Y8000000D01*
D43*
X2938300Y15250000D02*
X2938300Y15275200D01*
X-24224800Y8448300D02*
X-24224800Y8498200D01*
D42*
X84400000Y4400000D02*
X85200000Y4400000D01*
X-24224800Y8498200D02*
X-24250000Y8523400D01*
X85200000Y4400000D02*
X86000000Y4400000D01*
X2650000Y15563500D02*
X2650000Y15750000D01*
X-950000Y-28775100D02*
X-950000Y-28900000D01*
D43*
X2650000Y15250000D02*
X2938300Y15250000D01*
D42*
X83600000Y4400000D02*
X84400000Y4400000D01*
D43*
X3301900Y15275200D02*
X3251800Y15275200D01*
D42*
X-2650000Y14723100D02*
X-2176900Y14250000D01*
X-3301700Y9460800D02*
X-3218100Y9377200D01*
X9520000Y12516500D02*
X9520000Y12391500D01*
X6761300Y15275200D02*
X3301900Y15275200D01*
X-22432500Y8448300D02*
X-24224800Y8448300D01*
X31050000Y1951700D02*
X28510000Y4491700D01*
X-863400Y15563500D02*
X2650000Y15563500D01*
X-27500000Y8000000D02*
X-28500000Y8000000D01*
X-950000Y-28625000D02*
X-950000Y-28650200D01*
D43*
X3251800Y15275200D02*
X3226600Y15250000D01*
D42*
X9520000Y12516500D02*
X6761300Y15275200D01*
X10153200Y11758300D02*
X23307800Y11758300D01*
D43*
X2938300Y15250000D02*
X3226600Y15250000D01*
D42*
X-21395100Y16294800D02*
X-21395100Y9485700D01*
X-3301700Y14250000D02*
X-3301700Y9460800D01*
X-3218100Y9377200D02*
X-3218100Y8643500D01*
X23307800Y11758300D02*
X23549500Y12000000D01*
X31050000Y1525900D02*
X31050000Y1100000D01*
X10153200Y11758300D02*
X7520000Y9125100D01*
X-950000Y-28048300D02*
X-4246600Y-24751700D01*
X-24224800Y8358900D02*
X-24280000Y8303700D01*
%TO.N,+1V8*%
X1165400Y-8397800D02*
X844200Y-8719000D01*
X87523800Y4323900D02*
X87599900Y4400000D01*
D44*
X15709800Y2606000D02*
X15709800Y2500700D01*
D42*
X-3300000Y400000D02*
X-4001700Y400000D01*
X15759900Y2656100D02*
X15500300Y2915600D01*
X17856400Y2821900D02*
X21520000Y-841700D01*
D44*
X15383200Y2383200D02*
X15316600Y2316600D01*
D42*
X15250000Y2316600D02*
X14816600Y2316600D01*
X86801700Y4398500D02*
X86951000Y4398500D01*
D44*
X15709800Y2500700D02*
X15709800Y2290200D01*
D42*
X86800200Y4400000D02*
X86801700Y4398500D01*
X7024300Y-2253400D02*
X7520000Y-1757700D01*
X-480000Y-8155500D02*
X-480000Y-8000000D01*
X1165400Y-4524800D02*
X-1275200Y-4524800D01*
D43*
X-775200Y11698100D02*
X-775200Y11748200D01*
D42*
X-4103600Y-3788500D02*
X-4103600Y298100D01*
X15316600Y2316600D02*
X15250000Y2316600D01*
D44*
X14816600Y2316600D02*
X14750000Y2250000D01*
D42*
X83500Y-8719000D02*
X-480000Y-8155500D01*
X4752900Y-4524800D02*
X7024300Y-2253400D01*
X15500700Y2500700D02*
X15383200Y2383200D01*
X2732000Y9355700D02*
X6734700Y9355700D01*
X15759900Y2656100D02*
X15925700Y2821900D01*
X-4103600Y298100D02*
X-4001700Y400000D01*
D43*
X-750000Y12350000D02*
X-750000Y11773400D01*
D42*
X7520000Y-1757700D02*
X7520000Y-841700D01*
X1165400Y-4524800D02*
X1165400Y-8397800D01*
X2151000Y8774700D02*
X2732000Y9355700D01*
D44*
X15250000Y2316600D02*
X15250000Y2250000D01*
D42*
X15925700Y2821900D02*
X17856400Y2821900D01*
X2151000Y8643500D02*
X-775200Y11569700D01*
X-775200Y11569700D02*
X-775200Y11698100D01*
D44*
X15709800Y2290200D02*
X15750000Y2250000D01*
D42*
X86951000Y4398500D02*
X87025600Y4323900D01*
X87025600Y4323900D02*
X87523800Y4323900D01*
X-3300000Y400000D02*
X-3300000Y800000D01*
X-3579600Y-4312500D02*
X-4103600Y-3788500D01*
X15709800Y2500700D02*
X15500700Y2500700D01*
X2151000Y8643500D02*
X2151000Y8774700D01*
X1165400Y-4524800D02*
X4752900Y-4524800D01*
X-1275200Y-4524800D02*
X-1487500Y-4312500D01*
X87599900Y4400000D02*
X87600000Y4400000D01*
D43*
X-775200Y11748200D02*
X-750000Y11773400D01*
D42*
X844200Y-8719000D02*
X83500Y-8719000D01*
X15709800Y2606000D02*
X15759900Y2656100D01*
X86800000Y4400000D02*
X86800200Y4400000D01*
X-1487500Y-4312500D02*
X-3579600Y-4312500D01*
%TO.N,+1V2*%
X-3300000Y-2400000D02*
X-3300000Y-2000000D01*
X15173400Y3674800D02*
X14209800Y2711200D01*
D44*
X13750000Y2250000D02*
X13250000Y2250000D01*
D42*
X-11743400Y8263400D02*
X-8480000Y5000000D01*
D44*
X13750000Y2250000D02*
X14250000Y2250000D01*
X14209800Y2290200D02*
X14250000Y2250000D01*
D42*
X21520000Y3674800D02*
X15173400Y3674800D01*
D44*
X14209800Y2711200D02*
X14209800Y2290200D01*
D42*
X-11743400Y20000000D02*
X-11743400Y8263400D01*
X14209800Y2711200D02*
X12819300Y4101700D01*
X-8480000Y5000000D02*
X-8480000Y4101700D01*
X12819300Y4101700D02*
X-8480000Y4101700D01*
X-8480000Y4101700D02*
X-8480000Y0D01*
%TO.N,CAM3_D0_N*%
D40*
X17647100Y-110700D02*
X17286400Y250000D01*
X17250000Y32151700D02*
X16847000Y32151700D01*
X17286400Y250000D02*
X17250000Y250000D01*
X17250000Y31500000D02*
X17250000Y32151700D01*
%TO.N,CAM3_CLK_P*%
X23750000Y31500000D02*
X23750000Y30848300D01*
X23750000Y30848300D02*
X23103100Y30201400D01*
X17866400Y-641300D02*
X17358700Y-641300D01*
X23103100Y30201400D02*
X18112900Y30201400D01*
X17358700Y-641300D02*
X17250000Y-750000D01*
%TO.N,CSI_D0_P*%
D41*
X6232500Y-1367400D02*
X6138200Y-1273100D01*
X-650700Y-3976000D02*
X3668400Y-3976000D01*
X11130500Y-107400D02*
X11987900Y750000D01*
X4283800Y-3360600D02*
X4372100Y-3449000D01*
X5638200Y-2006200D02*
X5967900Y-2006200D01*
X-800000Y-3300000D02*
X-800000Y-3826700D01*
X6138200Y-1270000D02*
X7300800Y-107400D01*
X7300800Y-107400D02*
X11130500Y-107400D01*
X4781200Y-2863200D02*
X5638200Y-2006200D01*
X4372100Y-3449000D02*
X4622100Y-3449000D01*
X6232500Y-1741600D02*
X6232500Y-1367400D01*
X11987900Y750000D02*
X12750000Y750000D01*
X4622100Y-3449000D02*
X4869500Y-3201600D01*
X3668400Y-3976000D02*
X4283800Y-3360600D01*
X6138200Y-1273100D02*
X6138200Y-1270000D01*
X4869500Y-3201600D02*
X4869500Y-2951600D01*
X4869500Y-2951600D02*
X4781200Y-2863200D01*
X-800000Y-3826700D02*
X-650700Y-3976000D01*
X5967900Y-2006200D02*
X6232500Y-1741600D01*
%TO.N,+5V*%
D42*
X-25050000Y9950200D02*
X-26448200Y11348400D01*
X-34500000Y8000000D02*
X-34500000Y6098300D01*
X-34500000Y18123700D02*
X-34400000Y18223700D01*
D43*
X-25050000Y9950200D02*
X-24976400Y9876600D01*
X-24750000Y9200000D02*
X-24750000Y9876600D01*
D42*
X-26932000Y18223700D02*
X-19366700Y25789000D01*
X-34400000Y20000000D02*
X-34400000Y18223700D01*
X-34400000Y18223700D02*
X-26932000Y18223700D01*
X-34500000Y8000000D02*
X-34500000Y18123700D01*
X-8480000Y-5000000D02*
X-23401700Y-5000000D01*
X-26448200Y11348400D02*
X-26552800Y11348400D01*
D43*
X-24976400Y9876600D02*
X-24750000Y9876600D01*
D42*
X89200000Y4400000D02*
X88400000Y4400000D01*
X-23401700Y-5000000D02*
X-34500000Y6098300D01*
%TO.N,LIDAR_UART_TX*%
D41*
X3300000Y-1600000D02*
X-2091000Y-1600000D01*
X-2091000Y-1600000D02*
X-2150300Y-1540700D01*
%TO.N,LIDAR_UART_RX*%
X3300000Y-2000000D02*
X-2546500Y-2000000D01*
%TO.N,LIDAR_MOTOR_PWM*%
X3300000Y-2400000D02*
X-2094900Y-2400000D01*
X-2094900Y-2400000D02*
X-2156100Y-2461200D01*
%TO.N,WIFI_UART_RX*%
X3300000Y0D02*
X2862600Y0D01*
X4170600Y-28000000D02*
X16000000Y-28000000D01*
X2862600Y0D02*
X2120400Y-742200D01*
X2120400Y-742200D02*
X2040200Y-742200D01*
%TO.N,WIFI_UART_TX*%
X16000000Y-27000000D02*
X4513900Y-27000000D01*
X3300000Y400000D02*
X2613800Y400000D01*
%TO.N,WIFI_WAKE_N*%
X14263900Y-25990600D02*
X6482800Y-25990600D01*
X3826700Y-400000D02*
X3894000Y-332700D01*
X3300000Y-400000D02*
X3826700Y-400000D01*
X14273300Y-26000000D02*
X14263900Y-25990600D01*
X16000000Y-26000000D02*
X14273300Y-26000000D01*
X3894000Y-332700D02*
X4706500Y-332700D01*
%TO.N,WIFI_PERST_N*%
X5754200Y-25000000D02*
X16000000Y-25000000D01*
X3300000Y-800000D02*
X4066400Y-800000D01*
%TO.N,COIL_AC2*%
D45*
X-20022800Y11348400D02*
X-18825100Y11348400D01*
X-26948100Y13250000D02*
X-23152700Y13250000D01*
X-18825100Y11348400D02*
X-18526700Y11050000D01*
X-16000000Y11050000D02*
X-18526700Y11050000D01*
D43*
X-26948100Y13250000D02*
X-27800000Y13250000D01*
%TO.N,VRECT*%
D42*
X-18526700Y6246500D02*
X-18526700Y8950000D01*
X-22375000Y2398200D02*
X-18526700Y6246500D01*
%TO.N,COIL_AC1*%
D45*
X-20452700Y22851800D02*
X-18272000Y22851800D01*
X-28651700Y12751500D02*
X-28651700Y14652800D01*
D43*
X-28650200Y12750000D02*
X-27800000Y12750000D01*
D45*
X-28650200Y12750000D02*
X-28651700Y12751500D01*
X-28651700Y14652800D02*
X-20452700Y22851800D01*
%TO.N,BQ_SW1*%
D41*
X-22698300Y26200000D02*
X-22079600Y25581300D01*
X-26247700Y20000000D02*
X-31600000Y20000000D01*
X-22079600Y25581300D02*
X-22079600Y24168100D01*
X-22079600Y24168100D02*
X-26247700Y20000000D01*
X-23200000Y26200000D02*
X-22698300Y26200000D01*
%TO.N,+BATT*%
X-22749100Y24600000D02*
X-22698300Y24549200D01*
X-22698300Y24549200D02*
X-22698300Y24440000D01*
X-23200000Y24200000D02*
X-22698300Y24200000D01*
X-32939300Y26003500D02*
X-31984100Y26003500D01*
X-22534900Y24440000D02*
X-22698300Y24440000D01*
X-22698300Y24440000D02*
X-22698300Y24200000D01*
X-23200000Y24600000D02*
X-22749100Y24600000D01*
%TO.N,BQ_REGN*%
X-25400000Y26800000D02*
X-25400000Y27301700D01*
X-25400000Y27301700D02*
X-25000000Y27301700D01*
X-25000000Y26800000D02*
X-25000000Y27301700D01*
%TO.N,DSI_CLK_P*%
D46*
X107778300Y-4750000D02*
X106470600Y-6057700D01*
X108500000Y-4750000D02*
X107778300Y-4750000D01*
X3300000Y1200000D02*
X10616100Y1200000D01*
X106470600Y-6057700D02*
X17867400Y-6057700D01*
%TO.N,DSI_CLK_N*%
X10857700Y362000D02*
X4259700Y362000D01*
X108500000Y-5250000D02*
X107778300Y-5250000D01*
X4259700Y362000D02*
X3821700Y800000D01*
X3300000Y800000D02*
X3821700Y800000D01*
X106186700Y-6841600D02*
X17869600Y-6841600D01*
X107778300Y-5250000D02*
X106186700Y-6841600D01*
%TD*%
M02*
