%TF.GenerationSoftware,KiCad,Pcbnew,10.0.5*%
%TF.CreationDate,2026-08-04T17:35:45-07:00*%
%TF.ProjectId,palpod-orb-real,70616c70-6f64-42d6-9f72-622d7265616c,A0*%
%TF.SameCoordinates,Original*%
%TF.FileFunction,AssemblyDrawing,Top*%
%FSLAX46Y46*%
G04 Gerber Fmt 4.6, Leading zero omitted, Abs format (unit mm)*
G04 Created by KiCad (PCBNEW 10.0.5) date 2026-08-04 17:35:45*
%MOMM*%
%LPD*%
G01*
G04 APERTURE LIST*
%ADD10C,0.150000*%
%ADD11C,0.040000*%
%ADD12C,0.080000*%
%ADD13C,0.120000*%
%ADD14C,0.100000*%
G04 APERTURE END LIST*
D10*
X-4833332Y-40954819D02*
X-4833332Y-39954819D01*
X-4357142Y-40954819D02*
X-4357142Y-39954819D01*
X-4357142Y-39954819D02*
X-4023809Y-40669104D01*
X-4023809Y-40669104D02*
X-3690476Y-39954819D01*
X-3690476Y-39954819D02*
X-3690476Y-40954819D01*
X-3309523Y-39954819D02*
X-2642857Y-40954819D01*
X-2642857Y-39954819D02*
X-3309523Y-40954819D01*
X-1833333Y-40288152D02*
X-1833333Y-40954819D01*
X-2071428Y-39907200D02*
X-2309523Y-40621485D01*
X-2309523Y-40621485D02*
X-1690476Y-40621485D01*
X-785714Y-40954819D02*
X-1357142Y-40954819D01*
X-1071428Y-40954819D02*
X-1071428Y-39954819D01*
X-1071428Y-39954819D02*
X-1166666Y-40097676D01*
X-1166666Y-40097676D02*
X-1261904Y-40192914D01*
X-1261904Y-40192914D02*
X-1357142Y-40240533D01*
X119047Y-39954819D02*
X-357142Y-39954819D01*
X-357142Y-39954819D02*
X-404761Y-40431009D01*
X-404761Y-40431009D02*
X-357142Y-40383390D01*
X-357142Y-40383390D02*
X-261904Y-40335771D01*
X-261904Y-40335771D02*
X-23809Y-40335771D01*
X-23809Y-40335771D02*
X71428Y-40383390D01*
X71428Y-40383390D02*
X119047Y-40431009D01*
X119047Y-40431009D02*
X166666Y-40526247D01*
X166666Y-40526247D02*
X166666Y-40764342D01*
X166666Y-40764342D02*
X119047Y-40859580D01*
X119047Y-40859580D02*
X71428Y-40907200D01*
X71428Y-40907200D02*
X-23809Y-40954819D01*
X-23809Y-40954819D02*
X-261904Y-40954819D01*
X-261904Y-40954819D02*
X-357142Y-40907200D01*
X-357142Y-40907200D02*
X-404761Y-40859580D01*
X357143Y-41050057D02*
X1119047Y-41050057D01*
X1928571Y-40859580D02*
X1880952Y-40907200D01*
X1880952Y-40907200D02*
X1738095Y-40954819D01*
X1738095Y-40954819D02*
X1642857Y-40954819D01*
X1642857Y-40954819D02*
X1500000Y-40907200D01*
X1500000Y-40907200D02*
X1404762Y-40811961D01*
X1404762Y-40811961D02*
X1357143Y-40716723D01*
X1357143Y-40716723D02*
X1309524Y-40526247D01*
X1309524Y-40526247D02*
X1309524Y-40383390D01*
X1309524Y-40383390D02*
X1357143Y-40192914D01*
X1357143Y-40192914D02*
X1404762Y-40097676D01*
X1404762Y-40097676D02*
X1500000Y-40002438D01*
X1500000Y-40002438D02*
X1642857Y-39954819D01*
X1642857Y-39954819D02*
X1738095Y-39954819D01*
X1738095Y-39954819D02*
X1880952Y-40002438D01*
X1880952Y-40002438D02*
X1928571Y-40050057D01*
X2309524Y-40669104D02*
X2785714Y-40669104D01*
X2214286Y-40954819D02*
X2547619Y-39954819D01*
X2547619Y-39954819D02*
X2880952Y-40954819D01*
X3214286Y-40954819D02*
X3214286Y-39954819D01*
X3214286Y-39954819D02*
X3547619Y-40669104D01*
X3547619Y-40669104D02*
X3880952Y-39954819D01*
X3880952Y-39954819D02*
X3880952Y-40954819D01*
X4833333Y-39954819D02*
X4357143Y-39954819D01*
X4357143Y-39954819D02*
X4309524Y-40431009D01*
X4309524Y-40431009D02*
X4357143Y-40383390D01*
X4357143Y-40383390D02*
X4452381Y-40335771D01*
X4452381Y-40335771D02*
X4690476Y-40335771D01*
X4690476Y-40335771D02*
X4785714Y-40383390D01*
X4785714Y-40383390D02*
X4833333Y-40431009D01*
X4833333Y-40431009D02*
X4880952Y-40526247D01*
X4880952Y-40526247D02*
X4880952Y-40764342D01*
X4880952Y-40764342D02*
X4833333Y-40859580D01*
X4833333Y-40859580D02*
X4785714Y-40907200D01*
X4785714Y-40907200D02*
X4690476Y-40954819D01*
X4690476Y-40954819D02*
X4452381Y-40954819D01*
X4452381Y-40954819D02*
X4357143Y-40907200D01*
X4357143Y-40907200D02*
X4309524Y-40859580D01*
X19166667Y-40954819D02*
X19166667Y-39954819D01*
X19642857Y-40954819D02*
X19642857Y-39954819D01*
X19642857Y-39954819D02*
X19976190Y-40669104D01*
X19976190Y-40669104D02*
X20309523Y-39954819D01*
X20309523Y-39954819D02*
X20309523Y-40954819D01*
X20690476Y-39954819D02*
X21357142Y-40954819D01*
X21357142Y-39954819D02*
X20690476Y-40954819D01*
X22166666Y-40288152D02*
X22166666Y-40954819D01*
X21928571Y-39907200D02*
X21690476Y-40621485D01*
X21690476Y-40621485D02*
X22309523Y-40621485D01*
X23214285Y-40954819D02*
X22642857Y-40954819D01*
X22928571Y-40954819D02*
X22928571Y-39954819D01*
X22928571Y-39954819D02*
X22833333Y-40097676D01*
X22833333Y-40097676D02*
X22738095Y-40192914D01*
X22738095Y-40192914D02*
X22642857Y-40240533D01*
X24119047Y-39954819D02*
X23642857Y-39954819D01*
X23642857Y-39954819D02*
X23595238Y-40431009D01*
X23595238Y-40431009D02*
X23642857Y-40383390D01*
X23642857Y-40383390D02*
X23738095Y-40335771D01*
X23738095Y-40335771D02*
X23976190Y-40335771D01*
X23976190Y-40335771D02*
X24071428Y-40383390D01*
X24071428Y-40383390D02*
X24119047Y-40431009D01*
X24119047Y-40431009D02*
X24166666Y-40526247D01*
X24166666Y-40526247D02*
X24166666Y-40764342D01*
X24166666Y-40764342D02*
X24119047Y-40859580D01*
X24119047Y-40859580D02*
X24071428Y-40907200D01*
X24071428Y-40907200D02*
X23976190Y-40954819D01*
X23976190Y-40954819D02*
X23738095Y-40954819D01*
X23738095Y-40954819D02*
X23642857Y-40907200D01*
X23642857Y-40907200D02*
X23595238Y-40859580D01*
X24357143Y-41050057D02*
X25119047Y-41050057D01*
X25928571Y-40859580D02*
X25880952Y-40907200D01*
X25880952Y-40907200D02*
X25738095Y-40954819D01*
X25738095Y-40954819D02*
X25642857Y-40954819D01*
X25642857Y-40954819D02*
X25500000Y-40907200D01*
X25500000Y-40907200D02*
X25404762Y-40811961D01*
X25404762Y-40811961D02*
X25357143Y-40716723D01*
X25357143Y-40716723D02*
X25309524Y-40526247D01*
X25309524Y-40526247D02*
X25309524Y-40383390D01*
X25309524Y-40383390D02*
X25357143Y-40192914D01*
X25357143Y-40192914D02*
X25404762Y-40097676D01*
X25404762Y-40097676D02*
X25500000Y-40002438D01*
X25500000Y-40002438D02*
X25642857Y-39954819D01*
X25642857Y-39954819D02*
X25738095Y-39954819D01*
X25738095Y-39954819D02*
X25880952Y-40002438D01*
X25880952Y-40002438D02*
X25928571Y-40050057D01*
X26309524Y-40669104D02*
X26785714Y-40669104D01*
X26214286Y-40954819D02*
X26547619Y-39954819D01*
X26547619Y-39954819D02*
X26880952Y-40954819D01*
X27214286Y-40954819D02*
X27214286Y-39954819D01*
X27214286Y-39954819D02*
X27547619Y-40669104D01*
X27547619Y-40669104D02*
X27880952Y-39954819D01*
X27880952Y-39954819D02*
X27880952Y-40954819D01*
X28785714Y-39954819D02*
X28595238Y-39954819D01*
X28595238Y-39954819D02*
X28500000Y-40002438D01*
X28500000Y-40002438D02*
X28452381Y-40050057D01*
X28452381Y-40050057D02*
X28357143Y-40192914D01*
X28357143Y-40192914D02*
X28309524Y-40383390D01*
X28309524Y-40383390D02*
X28309524Y-40764342D01*
X28309524Y-40764342D02*
X28357143Y-40859580D01*
X28357143Y-40859580D02*
X28404762Y-40907200D01*
X28404762Y-40907200D02*
X28500000Y-40954819D01*
X28500000Y-40954819D02*
X28690476Y-40954819D01*
X28690476Y-40954819D02*
X28785714Y-40907200D01*
X28785714Y-40907200D02*
X28833333Y-40859580D01*
X28833333Y-40859580D02*
X28880952Y-40764342D01*
X28880952Y-40764342D02*
X28880952Y-40526247D01*
X28880952Y-40526247D02*
X28833333Y-40431009D01*
X28833333Y-40431009D02*
X28785714Y-40383390D01*
X28785714Y-40383390D02*
X28690476Y-40335771D01*
X28690476Y-40335771D02*
X28500000Y-40335771D01*
X28500000Y-40335771D02*
X28404762Y-40383390D01*
X28404762Y-40383390D02*
X28357143Y-40431009D01*
X28357143Y-40431009D02*
X28309524Y-40526247D01*
X19166667Y30045180D02*
X19166667Y31045180D01*
X19642857Y30045180D02*
X19642857Y31045180D01*
X19642857Y31045180D02*
X19976190Y30330895D01*
X19976190Y30330895D02*
X20309523Y31045180D01*
X20309523Y31045180D02*
X20309523Y30045180D01*
X20690476Y31045180D02*
X21357142Y30045180D01*
X21357142Y31045180D02*
X20690476Y30045180D01*
X22166666Y30711847D02*
X22166666Y30045180D01*
X21928571Y31092800D02*
X21690476Y30378514D01*
X21690476Y30378514D02*
X22309523Y30378514D01*
X23214285Y30045180D02*
X22642857Y30045180D01*
X22928571Y30045180D02*
X22928571Y31045180D01*
X22928571Y31045180D02*
X22833333Y30902323D01*
X22833333Y30902323D02*
X22738095Y30807085D01*
X22738095Y30807085D02*
X22642857Y30759466D01*
X24119047Y31045180D02*
X23642857Y31045180D01*
X23642857Y31045180D02*
X23595238Y30568990D01*
X23595238Y30568990D02*
X23642857Y30616609D01*
X23642857Y30616609D02*
X23738095Y30664228D01*
X23738095Y30664228D02*
X23976190Y30664228D01*
X23976190Y30664228D02*
X24071428Y30616609D01*
X24071428Y30616609D02*
X24119047Y30568990D01*
X24119047Y30568990D02*
X24166666Y30473752D01*
X24166666Y30473752D02*
X24166666Y30235657D01*
X24166666Y30235657D02*
X24119047Y30140419D01*
X24119047Y30140419D02*
X24071428Y30092800D01*
X24071428Y30092800D02*
X23976190Y30045180D01*
X23976190Y30045180D02*
X23738095Y30045180D01*
X23738095Y30045180D02*
X23642857Y30092800D01*
X23642857Y30092800D02*
X23595238Y30140419D01*
X24357143Y29949942D02*
X25119047Y29949942D01*
X25928571Y30140419D02*
X25880952Y30092800D01*
X25880952Y30092800D02*
X25738095Y30045180D01*
X25738095Y30045180D02*
X25642857Y30045180D01*
X25642857Y30045180D02*
X25500000Y30092800D01*
X25500000Y30092800D02*
X25404762Y30188038D01*
X25404762Y30188038D02*
X25357143Y30283276D01*
X25357143Y30283276D02*
X25309524Y30473752D01*
X25309524Y30473752D02*
X25309524Y30616609D01*
X25309524Y30616609D02*
X25357143Y30807085D01*
X25357143Y30807085D02*
X25404762Y30902323D01*
X25404762Y30902323D02*
X25500000Y30997561D01*
X25500000Y30997561D02*
X25642857Y31045180D01*
X25642857Y31045180D02*
X25738095Y31045180D01*
X25738095Y31045180D02*
X25880952Y30997561D01*
X25880952Y30997561D02*
X25928571Y30949942D01*
X26309524Y30330895D02*
X26785714Y30330895D01*
X26214286Y30045180D02*
X26547619Y31045180D01*
X26547619Y31045180D02*
X26880952Y30045180D01*
X27214286Y30045180D02*
X27214286Y31045180D01*
X27214286Y31045180D02*
X27547619Y30330895D01*
X27547619Y30330895D02*
X27880952Y31045180D01*
X27880952Y31045180D02*
X27880952Y30045180D01*
X28261905Y31045180D02*
X28880952Y31045180D01*
X28880952Y31045180D02*
X28547619Y30664228D01*
X28547619Y30664228D02*
X28690476Y30664228D01*
X28690476Y30664228D02*
X28785714Y30616609D01*
X28785714Y30616609D02*
X28833333Y30568990D01*
X28833333Y30568990D02*
X28880952Y30473752D01*
X28880952Y30473752D02*
X28880952Y30235657D01*
X28880952Y30235657D02*
X28833333Y30140419D01*
X28833333Y30140419D02*
X28785714Y30092800D01*
X28785714Y30092800D02*
X28690476Y30045180D01*
X28690476Y30045180D02*
X28404762Y30045180D01*
X28404762Y30045180D02*
X28309524Y30092800D01*
X28309524Y30092800D02*
X28261905Y30140419D01*
X-28833332Y-40954819D02*
X-28833332Y-39954819D01*
X-28357142Y-40954819D02*
X-28357142Y-39954819D01*
X-28357142Y-39954819D02*
X-28023809Y-40669104D01*
X-28023809Y-40669104D02*
X-27690476Y-39954819D01*
X-27690476Y-39954819D02*
X-27690476Y-40954819D01*
X-27309523Y-39954819D02*
X-26642857Y-40954819D01*
X-26642857Y-39954819D02*
X-27309523Y-40954819D01*
X-25833333Y-40288152D02*
X-25833333Y-40954819D01*
X-26071428Y-39907200D02*
X-26309523Y-40621485D01*
X-26309523Y-40621485D02*
X-25690476Y-40621485D01*
X-24785714Y-40954819D02*
X-25357142Y-40954819D01*
X-25071428Y-40954819D02*
X-25071428Y-39954819D01*
X-25071428Y-39954819D02*
X-25166666Y-40097676D01*
X-25166666Y-40097676D02*
X-25261904Y-40192914D01*
X-25261904Y-40192914D02*
X-25357142Y-40240533D01*
X-23880952Y-39954819D02*
X-24357142Y-39954819D01*
X-24357142Y-39954819D02*
X-24404761Y-40431009D01*
X-24404761Y-40431009D02*
X-24357142Y-40383390D01*
X-24357142Y-40383390D02*
X-24261904Y-40335771D01*
X-24261904Y-40335771D02*
X-24023809Y-40335771D01*
X-24023809Y-40335771D02*
X-23928571Y-40383390D01*
X-23928571Y-40383390D02*
X-23880952Y-40431009D01*
X-23880952Y-40431009D02*
X-23833333Y-40526247D01*
X-23833333Y-40526247D02*
X-23833333Y-40764342D01*
X-23833333Y-40764342D02*
X-23880952Y-40859580D01*
X-23880952Y-40859580D02*
X-23928571Y-40907200D01*
X-23928571Y-40907200D02*
X-24023809Y-40954819D01*
X-24023809Y-40954819D02*
X-24261904Y-40954819D01*
X-24261904Y-40954819D02*
X-24357142Y-40907200D01*
X-24357142Y-40907200D02*
X-24404761Y-40859580D01*
X-23642857Y-41050057D02*
X-22880952Y-41050057D01*
X-22071428Y-40859580D02*
X-22119047Y-40907200D01*
X-22119047Y-40907200D02*
X-22261904Y-40954819D01*
X-22261904Y-40954819D02*
X-22357142Y-40954819D01*
X-22357142Y-40954819D02*
X-22499999Y-40907200D01*
X-22499999Y-40907200D02*
X-22595237Y-40811961D01*
X-22595237Y-40811961D02*
X-22642856Y-40716723D01*
X-22642856Y-40716723D02*
X-22690475Y-40526247D01*
X-22690475Y-40526247D02*
X-22690475Y-40383390D01*
X-22690475Y-40383390D02*
X-22642856Y-40192914D01*
X-22642856Y-40192914D02*
X-22595237Y-40097676D01*
X-22595237Y-40097676D02*
X-22499999Y-40002438D01*
X-22499999Y-40002438D02*
X-22357142Y-39954819D01*
X-22357142Y-39954819D02*
X-22261904Y-39954819D01*
X-22261904Y-39954819D02*
X-22119047Y-40002438D01*
X-22119047Y-40002438D02*
X-22071428Y-40050057D01*
X-21690475Y-40669104D02*
X-21214285Y-40669104D01*
X-21785713Y-40954819D02*
X-21452380Y-39954819D01*
X-21452380Y-39954819D02*
X-21119047Y-40954819D01*
X-20785713Y-40954819D02*
X-20785713Y-39954819D01*
X-20785713Y-39954819D02*
X-20452380Y-40669104D01*
X-20452380Y-40669104D02*
X-20119047Y-39954819D01*
X-20119047Y-39954819D02*
X-20119047Y-40954819D01*
X-19214285Y-40288152D02*
X-19214285Y-40954819D01*
X-19452380Y-39907200D02*
X-19690475Y-40621485D01*
X-19690475Y-40621485D02*
X-19071428Y-40621485D01*
X-28833332Y30045180D02*
X-28833332Y31045180D01*
X-28357142Y30045180D02*
X-28357142Y31045180D01*
X-28357142Y31045180D02*
X-28023809Y30330895D01*
X-28023809Y30330895D02*
X-27690476Y31045180D01*
X-27690476Y31045180D02*
X-27690476Y30045180D01*
X-27309523Y31045180D02*
X-26642857Y30045180D01*
X-26642857Y31045180D02*
X-27309523Y30045180D01*
X-25833333Y30711847D02*
X-25833333Y30045180D01*
X-26071428Y31092800D02*
X-26309523Y30378514D01*
X-26309523Y30378514D02*
X-25690476Y30378514D01*
X-24785714Y30045180D02*
X-25357142Y30045180D01*
X-25071428Y30045180D02*
X-25071428Y31045180D01*
X-25071428Y31045180D02*
X-25166666Y30902323D01*
X-25166666Y30902323D02*
X-25261904Y30807085D01*
X-25261904Y30807085D02*
X-25357142Y30759466D01*
X-23880952Y31045180D02*
X-24357142Y31045180D01*
X-24357142Y31045180D02*
X-24404761Y30568990D01*
X-24404761Y30568990D02*
X-24357142Y30616609D01*
X-24357142Y30616609D02*
X-24261904Y30664228D01*
X-24261904Y30664228D02*
X-24023809Y30664228D01*
X-24023809Y30664228D02*
X-23928571Y30616609D01*
X-23928571Y30616609D02*
X-23880952Y30568990D01*
X-23880952Y30568990D02*
X-23833333Y30473752D01*
X-23833333Y30473752D02*
X-23833333Y30235657D01*
X-23833333Y30235657D02*
X-23880952Y30140419D01*
X-23880952Y30140419D02*
X-23928571Y30092800D01*
X-23928571Y30092800D02*
X-24023809Y30045180D01*
X-24023809Y30045180D02*
X-24261904Y30045180D01*
X-24261904Y30045180D02*
X-24357142Y30092800D01*
X-24357142Y30092800D02*
X-24404761Y30140419D01*
X-23642857Y29949942D02*
X-22880952Y29949942D01*
X-22071428Y30140419D02*
X-22119047Y30092800D01*
X-22119047Y30092800D02*
X-22261904Y30045180D01*
X-22261904Y30045180D02*
X-22357142Y30045180D01*
X-22357142Y30045180D02*
X-22499999Y30092800D01*
X-22499999Y30092800D02*
X-22595237Y30188038D01*
X-22595237Y30188038D02*
X-22642856Y30283276D01*
X-22642856Y30283276D02*
X-22690475Y30473752D01*
X-22690475Y30473752D02*
X-22690475Y30616609D01*
X-22690475Y30616609D02*
X-22642856Y30807085D01*
X-22642856Y30807085D02*
X-22595237Y30902323D01*
X-22595237Y30902323D02*
X-22499999Y30997561D01*
X-22499999Y30997561D02*
X-22357142Y31045180D01*
X-22357142Y31045180D02*
X-22261904Y31045180D01*
X-22261904Y31045180D02*
X-22119047Y30997561D01*
X-22119047Y30997561D02*
X-22071428Y30949942D01*
X-21690475Y30330895D02*
X-21214285Y30330895D01*
X-21785713Y30045180D02*
X-21452380Y31045180D01*
X-21452380Y31045180D02*
X-21119047Y30045180D01*
X-20785713Y30045180D02*
X-20785713Y31045180D01*
X-20785713Y31045180D02*
X-20452380Y30330895D01*
X-20452380Y30330895D02*
X-20119047Y31045180D01*
X-20119047Y31045180D02*
X-20119047Y30045180D01*
X-19119047Y30045180D02*
X-19690475Y30045180D01*
X-19404761Y30045180D02*
X-19404761Y31045180D01*
X-19404761Y31045180D02*
X-19499999Y30902323D01*
X-19499999Y30902323D02*
X-19595237Y30807085D01*
X-19595237Y30807085D02*
X-19690475Y30759466D01*
X-4833332Y30045180D02*
X-4833332Y31045180D01*
X-4357142Y30045180D02*
X-4357142Y31045180D01*
X-4357142Y31045180D02*
X-4023809Y30330895D01*
X-4023809Y30330895D02*
X-3690476Y31045180D01*
X-3690476Y31045180D02*
X-3690476Y30045180D01*
X-3309523Y31045180D02*
X-2642857Y30045180D01*
X-2642857Y31045180D02*
X-3309523Y30045180D01*
X-1833333Y30711847D02*
X-1833333Y30045180D01*
X-2071428Y31092800D02*
X-2309523Y30378514D01*
X-2309523Y30378514D02*
X-1690476Y30378514D01*
X-785714Y30045180D02*
X-1357142Y30045180D01*
X-1071428Y30045180D02*
X-1071428Y31045180D01*
X-1071428Y31045180D02*
X-1166666Y30902323D01*
X-1166666Y30902323D02*
X-1261904Y30807085D01*
X-1261904Y30807085D02*
X-1357142Y30759466D01*
X119047Y31045180D02*
X-357142Y31045180D01*
X-357142Y31045180D02*
X-404761Y30568990D01*
X-404761Y30568990D02*
X-357142Y30616609D01*
X-357142Y30616609D02*
X-261904Y30664228D01*
X-261904Y30664228D02*
X-23809Y30664228D01*
X-23809Y30664228D02*
X71428Y30616609D01*
X71428Y30616609D02*
X119047Y30568990D01*
X119047Y30568990D02*
X166666Y30473752D01*
X166666Y30473752D02*
X166666Y30235657D01*
X166666Y30235657D02*
X119047Y30140419D01*
X119047Y30140419D02*
X71428Y30092800D01*
X71428Y30092800D02*
X-23809Y30045180D01*
X-23809Y30045180D02*
X-261904Y30045180D01*
X-261904Y30045180D02*
X-357142Y30092800D01*
X-357142Y30092800D02*
X-404761Y30140419D01*
X357143Y29949942D02*
X1119047Y29949942D01*
X1928571Y30140419D02*
X1880952Y30092800D01*
X1880952Y30092800D02*
X1738095Y30045180D01*
X1738095Y30045180D02*
X1642857Y30045180D01*
X1642857Y30045180D02*
X1500000Y30092800D01*
X1500000Y30092800D02*
X1404762Y30188038D01*
X1404762Y30188038D02*
X1357143Y30283276D01*
X1357143Y30283276D02*
X1309524Y30473752D01*
X1309524Y30473752D02*
X1309524Y30616609D01*
X1309524Y30616609D02*
X1357143Y30807085D01*
X1357143Y30807085D02*
X1404762Y30902323D01*
X1404762Y30902323D02*
X1500000Y30997561D01*
X1500000Y30997561D02*
X1642857Y31045180D01*
X1642857Y31045180D02*
X1738095Y31045180D01*
X1738095Y31045180D02*
X1880952Y30997561D01*
X1880952Y30997561D02*
X1928571Y30949942D01*
X2309524Y30330895D02*
X2785714Y30330895D01*
X2214286Y30045180D02*
X2547619Y31045180D01*
X2547619Y31045180D02*
X2880952Y30045180D01*
X3214286Y30045180D02*
X3214286Y31045180D01*
X3214286Y31045180D02*
X3547619Y30330895D01*
X3547619Y30330895D02*
X3880952Y31045180D01*
X3880952Y31045180D02*
X3880952Y30045180D01*
X4309524Y30949942D02*
X4357143Y30997561D01*
X4357143Y30997561D02*
X4452381Y31045180D01*
X4452381Y31045180D02*
X4690476Y31045180D01*
X4690476Y31045180D02*
X4785714Y30997561D01*
X4785714Y30997561D02*
X4833333Y30949942D01*
X4833333Y30949942D02*
X4880952Y30854704D01*
X4880952Y30854704D02*
X4880952Y30759466D01*
X4880952Y30759466D02*
X4833333Y30616609D01*
X4833333Y30616609D02*
X4261905Y30045180D01*
X4261905Y30045180D02*
X4880952Y30045180D01*
X11357143Y-3954819D02*
X11928571Y-3954819D01*
X11642857Y-4954819D02*
X11642857Y-3954819D01*
X12833333Y-4859580D02*
X12785714Y-4907200D01*
X12785714Y-4907200D02*
X12642857Y-4954819D01*
X12642857Y-4954819D02*
X12547619Y-4954819D01*
X12547619Y-4954819D02*
X12404762Y-4907200D01*
X12404762Y-4907200D02*
X12309524Y-4811961D01*
X12309524Y-4811961D02*
X12261905Y-4716723D01*
X12261905Y-4716723D02*
X12214286Y-4526247D01*
X12214286Y-4526247D02*
X12214286Y-4383390D01*
X12214286Y-4383390D02*
X12261905Y-4192914D01*
X12261905Y-4192914D02*
X12309524Y-4097676D01*
X12309524Y-4097676D02*
X12404762Y-4002438D01*
X12404762Y-4002438D02*
X12547619Y-3954819D01*
X12547619Y-3954819D02*
X12642857Y-3954819D01*
X12642857Y-3954819D02*
X12785714Y-4002438D01*
X12785714Y-4002438D02*
X12833333Y-4050057D01*
X13166667Y-3954819D02*
X13785714Y-3954819D01*
X13785714Y-3954819D02*
X13452381Y-4335771D01*
X13452381Y-4335771D02*
X13595238Y-4335771D01*
X13595238Y-4335771D02*
X13690476Y-4383390D01*
X13690476Y-4383390D02*
X13738095Y-4431009D01*
X13738095Y-4431009D02*
X13785714Y-4526247D01*
X13785714Y-4526247D02*
X13785714Y-4764342D01*
X13785714Y-4764342D02*
X13738095Y-4859580D01*
X13738095Y-4859580D02*
X13690476Y-4907200D01*
X13690476Y-4907200D02*
X13595238Y-4954819D01*
X13595238Y-4954819D02*
X13309524Y-4954819D01*
X13309524Y-4954819D02*
X13214286Y-4907200D01*
X13214286Y-4907200D02*
X13166667Y-4859580D01*
X14690476Y-3954819D02*
X14214286Y-3954819D01*
X14214286Y-3954819D02*
X14166667Y-4431009D01*
X14166667Y-4431009D02*
X14214286Y-4383390D01*
X14214286Y-4383390D02*
X14309524Y-4335771D01*
X14309524Y-4335771D02*
X14547619Y-4335771D01*
X14547619Y-4335771D02*
X14642857Y-4383390D01*
X14642857Y-4383390D02*
X14690476Y-4431009D01*
X14690476Y-4431009D02*
X14738095Y-4526247D01*
X14738095Y-4526247D02*
X14738095Y-4764342D01*
X14738095Y-4764342D02*
X14690476Y-4859580D01*
X14690476Y-4859580D02*
X14642857Y-4907200D01*
X14642857Y-4907200D02*
X14547619Y-4954819D01*
X14547619Y-4954819D02*
X14309524Y-4954819D01*
X14309524Y-4954819D02*
X14214286Y-4907200D01*
X14214286Y-4907200D02*
X14166667Y-4859580D01*
X15309524Y-4383390D02*
X15214286Y-4335771D01*
X15214286Y-4335771D02*
X15166667Y-4288152D01*
X15166667Y-4288152D02*
X15119048Y-4192914D01*
X15119048Y-4192914D02*
X15119048Y-4145295D01*
X15119048Y-4145295D02*
X15166667Y-4050057D01*
X15166667Y-4050057D02*
X15214286Y-4002438D01*
X15214286Y-4002438D02*
X15309524Y-3954819D01*
X15309524Y-3954819D02*
X15500000Y-3954819D01*
X15500000Y-3954819D02*
X15595238Y-4002438D01*
X15595238Y-4002438D02*
X15642857Y-4050057D01*
X15642857Y-4050057D02*
X15690476Y-4145295D01*
X15690476Y-4145295D02*
X15690476Y-4192914D01*
X15690476Y-4192914D02*
X15642857Y-4288152D01*
X15642857Y-4288152D02*
X15595238Y-4335771D01*
X15595238Y-4335771D02*
X15500000Y-4383390D01*
X15500000Y-4383390D02*
X15309524Y-4383390D01*
X15309524Y-4383390D02*
X15214286Y-4431009D01*
X15214286Y-4431009D02*
X15166667Y-4478628D01*
X15166667Y-4478628D02*
X15119048Y-4573866D01*
X15119048Y-4573866D02*
X15119048Y-4764342D01*
X15119048Y-4764342D02*
X15166667Y-4859580D01*
X15166667Y-4859580D02*
X15214286Y-4907200D01*
X15214286Y-4907200D02*
X15309524Y-4954819D01*
X15309524Y-4954819D02*
X15500000Y-4954819D01*
X15500000Y-4954819D02*
X15595238Y-4907200D01*
X15595238Y-4907200D02*
X15642857Y-4859580D01*
X15642857Y-4859580D02*
X15690476Y-4764342D01*
X15690476Y-4764342D02*
X15690476Y-4573866D01*
X15690476Y-4573866D02*
X15642857Y-4478628D01*
X15642857Y-4478628D02*
X15595238Y-4431009D01*
X15595238Y-4431009D02*
X15500000Y-4383390D01*
X16023810Y-3954819D02*
X16690476Y-3954819D01*
X16690476Y-3954819D02*
X16261905Y-4954819D01*
X17500000Y-4288152D02*
X17500000Y-4954819D01*
X17261905Y-3907200D02*
X17023810Y-4621485D01*
X17023810Y-4621485D02*
X17642857Y-4621485D01*
X18166667Y-4383390D02*
X18071429Y-4335771D01*
X18071429Y-4335771D02*
X18023810Y-4288152D01*
X18023810Y-4288152D02*
X17976191Y-4192914D01*
X17976191Y-4192914D02*
X17976191Y-4145295D01*
X17976191Y-4145295D02*
X18023810Y-4050057D01*
X18023810Y-4050057D02*
X18071429Y-4002438D01*
X18071429Y-4002438D02*
X18166667Y-3954819D01*
X18166667Y-3954819D02*
X18357143Y-3954819D01*
X18357143Y-3954819D02*
X18452381Y-4002438D01*
X18452381Y-4002438D02*
X18500000Y-4050057D01*
X18500000Y-4050057D02*
X18547619Y-4145295D01*
X18547619Y-4145295D02*
X18547619Y-4192914D01*
X18547619Y-4192914D02*
X18500000Y-4288152D01*
X18500000Y-4288152D02*
X18452381Y-4335771D01*
X18452381Y-4335771D02*
X18357143Y-4383390D01*
X18357143Y-4383390D02*
X18166667Y-4383390D01*
X18166667Y-4383390D02*
X18071429Y-4431009D01*
X18071429Y-4431009D02*
X18023810Y-4478628D01*
X18023810Y-4478628D02*
X17976191Y-4573866D01*
X17976191Y-4573866D02*
X17976191Y-4764342D01*
X17976191Y-4764342D02*
X18023810Y-4859580D01*
X18023810Y-4859580D02*
X18071429Y-4907200D01*
X18071429Y-4907200D02*
X18166667Y-4954819D01*
X18166667Y-4954819D02*
X18357143Y-4954819D01*
X18357143Y-4954819D02*
X18452381Y-4907200D01*
X18452381Y-4907200D02*
X18500000Y-4859580D01*
X18500000Y-4859580D02*
X18547619Y-4764342D01*
X18547619Y-4764342D02*
X18547619Y-4573866D01*
X18547619Y-4573866D02*
X18500000Y-4478628D01*
X18500000Y-4478628D02*
X18452381Y-4431009D01*
X18452381Y-4431009D02*
X18357143Y-4383390D01*
X84833333Y-7507200D02*
X84976190Y-7554819D01*
X84976190Y-7554819D02*
X85214285Y-7554819D01*
X85214285Y-7554819D02*
X85309523Y-7507200D01*
X85309523Y-7507200D02*
X85357142Y-7459580D01*
X85357142Y-7459580D02*
X85404761Y-7364342D01*
X85404761Y-7364342D02*
X85404761Y-7269104D01*
X85404761Y-7269104D02*
X85357142Y-7173866D01*
X85357142Y-7173866D02*
X85309523Y-7126247D01*
X85309523Y-7126247D02*
X85214285Y-7078628D01*
X85214285Y-7078628D02*
X85023809Y-7031009D01*
X85023809Y-7031009D02*
X84928571Y-6983390D01*
X84928571Y-6983390D02*
X84880952Y-6935771D01*
X84880952Y-6935771D02*
X84833333Y-6840533D01*
X84833333Y-6840533D02*
X84833333Y-6745295D01*
X84833333Y-6745295D02*
X84880952Y-6650057D01*
X84880952Y-6650057D02*
X84928571Y-6602438D01*
X84928571Y-6602438D02*
X85023809Y-6554819D01*
X85023809Y-6554819D02*
X85261904Y-6554819D01*
X85261904Y-6554819D02*
X85404761Y-6602438D01*
X85785714Y-7507200D02*
X85928571Y-7554819D01*
X85928571Y-7554819D02*
X86166666Y-7554819D01*
X86166666Y-7554819D02*
X86261904Y-7507200D01*
X86261904Y-7507200D02*
X86309523Y-7459580D01*
X86309523Y-7459580D02*
X86357142Y-7364342D01*
X86357142Y-7364342D02*
X86357142Y-7269104D01*
X86357142Y-7269104D02*
X86309523Y-7173866D01*
X86309523Y-7173866D02*
X86261904Y-7126247D01*
X86261904Y-7126247D02*
X86166666Y-7078628D01*
X86166666Y-7078628D02*
X85976190Y-7031009D01*
X85976190Y-7031009D02*
X85880952Y-6983390D01*
X85880952Y-6983390D02*
X85833333Y-6935771D01*
X85833333Y-6935771D02*
X85785714Y-6840533D01*
X85785714Y-6840533D02*
X85785714Y-6745295D01*
X85785714Y-6745295D02*
X85833333Y-6650057D01*
X85833333Y-6650057D02*
X85880952Y-6602438D01*
X85880952Y-6602438D02*
X85976190Y-6554819D01*
X85976190Y-6554819D02*
X86214285Y-6554819D01*
X86214285Y-6554819D02*
X86357142Y-6602438D01*
X86785714Y-7554819D02*
X86785714Y-6554819D01*
X86785714Y-6554819D02*
X87023809Y-6554819D01*
X87023809Y-6554819D02*
X87166666Y-6602438D01*
X87166666Y-6602438D02*
X87261904Y-6697676D01*
X87261904Y-6697676D02*
X87309523Y-6792914D01*
X87309523Y-6792914D02*
X87357142Y-6983390D01*
X87357142Y-6983390D02*
X87357142Y-7126247D01*
X87357142Y-7126247D02*
X87309523Y-7316723D01*
X87309523Y-7316723D02*
X87261904Y-7411961D01*
X87261904Y-7411961D02*
X87166666Y-7507200D01*
X87166666Y-7507200D02*
X87023809Y-7554819D01*
X87023809Y-7554819D02*
X86785714Y-7554819D01*
X88309523Y-7554819D02*
X87738095Y-7554819D01*
X88023809Y-7554819D02*
X88023809Y-6554819D01*
X88023809Y-6554819D02*
X87928571Y-6697676D01*
X87928571Y-6697676D02*
X87833333Y-6792914D01*
X87833333Y-6792914D02*
X87738095Y-6840533D01*
X88785714Y-7554819D02*
X88976190Y-7554819D01*
X88976190Y-7554819D02*
X89071428Y-7507200D01*
X89071428Y-7507200D02*
X89119047Y-7459580D01*
X89119047Y-7459580D02*
X89214285Y-7316723D01*
X89214285Y-7316723D02*
X89261904Y-7126247D01*
X89261904Y-7126247D02*
X89261904Y-6745295D01*
X89261904Y-6745295D02*
X89214285Y-6650057D01*
X89214285Y-6650057D02*
X89166666Y-6602438D01*
X89166666Y-6602438D02*
X89071428Y-6554819D01*
X89071428Y-6554819D02*
X88880952Y-6554819D01*
X88880952Y-6554819D02*
X88785714Y-6602438D01*
X88785714Y-6602438D02*
X88738095Y-6650057D01*
X88738095Y-6650057D02*
X88690476Y-6745295D01*
X88690476Y-6745295D02*
X88690476Y-6983390D01*
X88690476Y-6983390D02*
X88738095Y-7078628D01*
X88738095Y-7078628D02*
X88785714Y-7126247D01*
X88785714Y-7126247D02*
X88880952Y-7173866D01*
X88880952Y-7173866D02*
X89071428Y-7173866D01*
X89071428Y-7173866D02*
X89166666Y-7126247D01*
X89166666Y-7126247D02*
X89214285Y-7078628D01*
X89214285Y-7078628D02*
X89261904Y-6983390D01*
X90119047Y-6554819D02*
X89928571Y-6554819D01*
X89928571Y-6554819D02*
X89833333Y-6602438D01*
X89833333Y-6602438D02*
X89785714Y-6650057D01*
X89785714Y-6650057D02*
X89690476Y-6792914D01*
X89690476Y-6792914D02*
X89642857Y-6983390D01*
X89642857Y-6983390D02*
X89642857Y-7364342D01*
X89642857Y-7364342D02*
X89690476Y-7459580D01*
X89690476Y-7459580D02*
X89738095Y-7507200D01*
X89738095Y-7507200D02*
X89833333Y-7554819D01*
X89833333Y-7554819D02*
X90023809Y-7554819D01*
X90023809Y-7554819D02*
X90119047Y-7507200D01*
X90119047Y-7507200D02*
X90166666Y-7459580D01*
X90166666Y-7459580D02*
X90214285Y-7364342D01*
X90214285Y-7364342D02*
X90214285Y-7126247D01*
X90214285Y-7126247D02*
X90166666Y-7031009D01*
X90166666Y-7031009D02*
X90119047Y-6983390D01*
X90119047Y-6983390D02*
X90023809Y-6935771D01*
X90023809Y-6935771D02*
X89833333Y-6935771D01*
X89833333Y-6935771D02*
X89738095Y-6983390D01*
X89738095Y-6983390D02*
X89690476Y-7031009D01*
X89690476Y-7031009D02*
X89642857Y-7126247D01*
X90547619Y-6554819D02*
X91166666Y-6554819D01*
X91166666Y-6554819D02*
X90833333Y-6935771D01*
X90833333Y-6935771D02*
X90976190Y-6935771D01*
X90976190Y-6935771D02*
X91071428Y-6983390D01*
X91071428Y-6983390D02*
X91119047Y-7031009D01*
X91119047Y-7031009D02*
X91166666Y-7126247D01*
X91166666Y-7126247D02*
X91166666Y-7364342D01*
X91166666Y-7364342D02*
X91119047Y-7459580D01*
X91119047Y-7459580D02*
X91071428Y-7507200D01*
X91071428Y-7507200D02*
X90976190Y-7554819D01*
X90976190Y-7554819D02*
X90690476Y-7554819D01*
X90690476Y-7554819D02*
X90595238Y-7507200D01*
X90595238Y-7507200D02*
X90547619Y-7459580D01*
X27071428Y11041847D02*
X27071428Y10375180D01*
X26833333Y11422800D02*
X26595238Y10708514D01*
X26595238Y10708514D02*
X27214285Y10708514D01*
X27595238Y10470419D02*
X27642857Y10422800D01*
X27642857Y10422800D02*
X27595238Y10375180D01*
X27595238Y10375180D02*
X27547619Y10422800D01*
X27547619Y10422800D02*
X27595238Y10470419D01*
X27595238Y10470419D02*
X27595238Y10375180D01*
X27976190Y11375180D02*
X28642856Y11375180D01*
X28642856Y11375180D02*
X28214285Y10375180D01*
X29023809Y10375180D02*
X29023809Y11375180D01*
X29119047Y10756133D02*
X29404761Y10375180D01*
X29404761Y11041847D02*
X29023809Y10660895D01*
D11*
X27956667Y11881799D02*
X27870000Y12005608D01*
X27808095Y11881799D02*
X27808095Y12141799D01*
X27808095Y12141799D02*
X27907143Y12141799D01*
X27907143Y12141799D02*
X27931905Y12129418D01*
X27931905Y12129418D02*
X27944286Y12117037D01*
X27944286Y12117037D02*
X27956667Y12092275D01*
X27956667Y12092275D02*
X27956667Y12055132D01*
X27956667Y12055132D02*
X27944286Y12030370D01*
X27944286Y12030370D02*
X27931905Y12017989D01*
X27931905Y12017989D02*
X27907143Y12005608D01*
X27907143Y12005608D02*
X27808095Y12005608D01*
X28055714Y12117037D02*
X28068095Y12129418D01*
X28068095Y12129418D02*
X28092857Y12141799D01*
X28092857Y12141799D02*
X28154762Y12141799D01*
X28154762Y12141799D02*
X28179524Y12129418D01*
X28179524Y12129418D02*
X28191905Y12117037D01*
X28191905Y12117037D02*
X28204286Y12092275D01*
X28204286Y12092275D02*
X28204286Y12067513D01*
X28204286Y12067513D02*
X28191905Y12030370D01*
X28191905Y12030370D02*
X28043333Y11881799D01*
X28043333Y11881799D02*
X28204286Y11881799D01*
D10*
X23130928Y11041847D02*
X23130928Y10375180D01*
X22892833Y11422800D02*
X22654738Y10708514D01*
X22654738Y10708514D02*
X23273785Y10708514D01*
X23654738Y10470419D02*
X23702357Y10422800D01*
X23702357Y10422800D02*
X23654738Y10375180D01*
X23654738Y10375180D02*
X23607119Y10422800D01*
X23607119Y10422800D02*
X23654738Y10470419D01*
X23654738Y10470419D02*
X23654738Y10375180D01*
X24035690Y11375180D02*
X24702356Y11375180D01*
X24702356Y11375180D02*
X24273785Y10375180D01*
X25083309Y10375180D02*
X25083309Y11375180D01*
X25178547Y10756133D02*
X25464261Y10375180D01*
X25464261Y11041847D02*
X25083309Y10660895D01*
D11*
X24016167Y11881799D02*
X23929500Y12005608D01*
X23867595Y11881799D02*
X23867595Y12141799D01*
X23867595Y12141799D02*
X23966643Y12141799D01*
X23966643Y12141799D02*
X23991405Y12129418D01*
X23991405Y12129418D02*
X24003786Y12117037D01*
X24003786Y12117037D02*
X24016167Y12092275D01*
X24016167Y12092275D02*
X24016167Y12055132D01*
X24016167Y12055132D02*
X24003786Y12030370D01*
X24003786Y12030370D02*
X23991405Y12017989D01*
X23991405Y12017989D02*
X23966643Y12005608D01*
X23966643Y12005608D02*
X23867595Y12005608D01*
X24263786Y11881799D02*
X24115214Y11881799D01*
X24189500Y11881799D02*
X24189500Y12141799D01*
X24189500Y12141799D02*
X24164738Y12104656D01*
X24164738Y12104656D02*
X24139976Y12079894D01*
X24139976Y12079894D02*
X24115214Y12067513D01*
D10*
X-2571428Y12545180D02*
X-2238095Y11545180D01*
X-2238095Y11545180D02*
X-1904762Y12545180D01*
X-1095238Y11545180D02*
X-1571428Y11545180D01*
X-1571428Y11545180D02*
X-1571428Y12545180D01*
X-285714Y12545180D02*
X-761904Y12545180D01*
X-761904Y12545180D02*
X-809523Y12068990D01*
X-809523Y12068990D02*
X-761904Y12116609D01*
X-761904Y12116609D02*
X-666666Y12164228D01*
X-666666Y12164228D02*
X-428571Y12164228D01*
X-428571Y12164228D02*
X-333333Y12116609D01*
X-333333Y12116609D02*
X-285714Y12068990D01*
X-285714Y12068990D02*
X-238095Y11973752D01*
X-238095Y11973752D02*
X-238095Y11735657D01*
X-238095Y11735657D02*
X-285714Y11640419D01*
X-285714Y11640419D02*
X-333333Y11592800D01*
X-333333Y11592800D02*
X-428571Y11545180D01*
X-428571Y11545180D02*
X-666666Y11545180D01*
X-666666Y11545180D02*
X-761904Y11592800D01*
X-761904Y11592800D02*
X-809523Y11640419D01*
X95238Y12545180D02*
X714285Y12545180D01*
X714285Y12545180D02*
X380952Y12164228D01*
X380952Y12164228D02*
X523809Y12164228D01*
X523809Y12164228D02*
X619047Y12116609D01*
X619047Y12116609D02*
X666666Y12068990D01*
X666666Y12068990D02*
X714285Y11973752D01*
X714285Y11973752D02*
X714285Y11735657D01*
X714285Y11735657D02*
X666666Y11640419D01*
X666666Y11640419D02*
X619047Y11592800D01*
X619047Y11592800D02*
X523809Y11545180D01*
X523809Y11545180D02*
X238095Y11545180D01*
X238095Y11545180D02*
X142857Y11592800D01*
X142857Y11592800D02*
X95238Y11640419D01*
X1619047Y11545180D02*
X1142857Y11545180D01*
X1142857Y11545180D02*
X1142857Y12545180D01*
X2095238Y12116609D02*
X2000000Y12164228D01*
X2000000Y12164228D02*
X1952381Y12211847D01*
X1952381Y12211847D02*
X1904762Y12307085D01*
X1904762Y12307085D02*
X1904762Y12354704D01*
X1904762Y12354704D02*
X1952381Y12449942D01*
X1952381Y12449942D02*
X2000000Y12497561D01*
X2000000Y12497561D02*
X2095238Y12545180D01*
X2095238Y12545180D02*
X2285714Y12545180D01*
X2285714Y12545180D02*
X2380952Y12497561D01*
X2380952Y12497561D02*
X2428571Y12449942D01*
X2428571Y12449942D02*
X2476190Y12354704D01*
X2476190Y12354704D02*
X2476190Y12307085D01*
X2476190Y12307085D02*
X2428571Y12211847D01*
X2428571Y12211847D02*
X2380952Y12164228D01*
X2380952Y12164228D02*
X2285714Y12116609D01*
X2285714Y12116609D02*
X2095238Y12116609D01*
X2095238Y12116609D02*
X2000000Y12068990D01*
X2000000Y12068990D02*
X1952381Y12021371D01*
X1952381Y12021371D02*
X1904762Y11926133D01*
X1904762Y11926133D02*
X1904762Y11735657D01*
X1904762Y11735657D02*
X1952381Y11640419D01*
X1952381Y11640419D02*
X2000000Y11592800D01*
X2000000Y11592800D02*
X2095238Y11545180D01*
X2095238Y11545180D02*
X2285714Y11545180D01*
X2285714Y11545180D02*
X2380952Y11592800D01*
X2380952Y11592800D02*
X2428571Y11640419D01*
X2428571Y11640419D02*
X2476190Y11735657D01*
X2476190Y11735657D02*
X2476190Y11926133D01*
X2476190Y11926133D02*
X2428571Y12021371D01*
X2428571Y12021371D02*
X2380952Y12068990D01*
X2380952Y12068990D02*
X2285714Y12116609D01*
X-33214285Y2092800D02*
X-33071428Y2045180D01*
X-33071428Y2045180D02*
X-32833333Y2045180D01*
X-32833333Y2045180D02*
X-32738095Y2092800D01*
X-32738095Y2092800D02*
X-32690476Y2140419D01*
X-32690476Y2140419D02*
X-32642857Y2235657D01*
X-32642857Y2235657D02*
X-32642857Y2330895D01*
X-32642857Y2330895D02*
X-32690476Y2426133D01*
X-32690476Y2426133D02*
X-32738095Y2473752D01*
X-32738095Y2473752D02*
X-32833333Y2521371D01*
X-32833333Y2521371D02*
X-33023809Y2568990D01*
X-33023809Y2568990D02*
X-33119047Y2616609D01*
X-33119047Y2616609D02*
X-33166666Y2664228D01*
X-33166666Y2664228D02*
X-33214285Y2759466D01*
X-33214285Y2759466D02*
X-33214285Y2854704D01*
X-33214285Y2854704D02*
X-33166666Y2949942D01*
X-33166666Y2949942D02*
X-33119047Y2997561D01*
X-33119047Y2997561D02*
X-33023809Y3045180D01*
X-33023809Y3045180D02*
X-32785714Y3045180D01*
X-32785714Y3045180D02*
X-32642857Y2997561D01*
X-32309523Y3045180D02*
X-31690476Y3045180D01*
X-31690476Y3045180D02*
X-32023809Y2664228D01*
X-32023809Y2664228D02*
X-31880952Y2664228D01*
X-31880952Y2664228D02*
X-31785714Y2616609D01*
X-31785714Y2616609D02*
X-31738095Y2568990D01*
X-31738095Y2568990D02*
X-31690476Y2473752D01*
X-31690476Y2473752D02*
X-31690476Y2235657D01*
X-31690476Y2235657D02*
X-31738095Y2140419D01*
X-31738095Y2140419D02*
X-31785714Y2092800D01*
X-31785714Y2092800D02*
X-31880952Y2045180D01*
X-31880952Y2045180D02*
X-32166666Y2045180D01*
X-32166666Y2045180D02*
X-32261904Y2092800D01*
X-32261904Y2092800D02*
X-32309523Y2140419D01*
X-31500000Y1949942D02*
X-30738095Y1949942D01*
X-30023809Y2045180D02*
X-30499999Y2045180D01*
X-30499999Y2045180D02*
X-30499999Y3045180D01*
X-29690475Y2045180D02*
X-29690475Y3045180D01*
X-29214285Y2045180D02*
X-29214285Y3045180D01*
X-29214285Y3045180D02*
X-28976190Y3045180D01*
X-28976190Y3045180D02*
X-28833333Y2997561D01*
X-28833333Y2997561D02*
X-28738095Y2902323D01*
X-28738095Y2902323D02*
X-28690476Y2807085D01*
X-28690476Y2807085D02*
X-28642857Y2616609D01*
X-28642857Y2616609D02*
X-28642857Y2473752D01*
X-28642857Y2473752D02*
X-28690476Y2283276D01*
X-28690476Y2283276D02*
X-28738095Y2188038D01*
X-28738095Y2188038D02*
X-28833333Y2092800D01*
X-28833333Y2092800D02*
X-28976190Y2045180D01*
X-28976190Y2045180D02*
X-29214285Y2045180D01*
X-28261904Y2330895D02*
X-27785714Y2330895D01*
X-28357142Y2045180D02*
X-28023809Y3045180D01*
X-28023809Y3045180D02*
X-27690476Y2045180D01*
X-26785714Y2045180D02*
X-27119047Y2521371D01*
X-27357142Y2045180D02*
X-27357142Y3045180D01*
X-27357142Y3045180D02*
X-26976190Y3045180D01*
X-26976190Y3045180D02*
X-26880952Y2997561D01*
X-26880952Y2997561D02*
X-26833333Y2949942D01*
X-26833333Y2949942D02*
X-26785714Y2854704D01*
X-26785714Y2854704D02*
X-26785714Y2711847D01*
X-26785714Y2711847D02*
X-26833333Y2616609D01*
X-26833333Y2616609D02*
X-26880952Y2568990D01*
X-26880952Y2568990D02*
X-26976190Y2521371D01*
X-26976190Y2521371D02*
X-27357142Y2521371D01*
X37954819Y-25238094D02*
X38954819Y-24999999D01*
X38954819Y-24999999D02*
X38240533Y-24809523D01*
X38240533Y-24809523D02*
X38954819Y-24619047D01*
X38954819Y-24619047D02*
X37954819Y-24380952D01*
X38954819Y-23999999D02*
X38288152Y-23999999D01*
X37954819Y-23999999D02*
X38002438Y-24047618D01*
X38002438Y-24047618D02*
X38050057Y-23999999D01*
X38050057Y-23999999D02*
X38002438Y-23952380D01*
X38002438Y-23952380D02*
X37954819Y-23999999D01*
X37954819Y-23999999D02*
X38050057Y-23999999D01*
X38431009Y-23190476D02*
X38431009Y-23523809D01*
X38954819Y-23523809D02*
X37954819Y-23523809D01*
X37954819Y-23523809D02*
X37954819Y-23047619D01*
X38954819Y-22666666D02*
X38288152Y-22666666D01*
X37954819Y-22666666D02*
X38002438Y-22714285D01*
X38002438Y-22714285D02*
X38050057Y-22666666D01*
X38050057Y-22666666D02*
X38002438Y-22619047D01*
X38002438Y-22619047D02*
X37954819Y-22666666D01*
X37954819Y-22666666D02*
X38050057Y-22666666D01*
X37954819Y-22285714D02*
X37954819Y-21619048D01*
X37954819Y-21619048D02*
X38954819Y-22047619D01*
X39050057Y-21476191D02*
X39050057Y-20714286D01*
X38954819Y-20476190D02*
X37954819Y-20476190D01*
X37954819Y-20476190D02*
X38669104Y-20142857D01*
X38669104Y-20142857D02*
X37954819Y-19809524D01*
X37954819Y-19809524D02*
X38954819Y-19809524D01*
X38050057Y-19380952D02*
X38002438Y-19333333D01*
X38002438Y-19333333D02*
X37954819Y-19238095D01*
X37954819Y-19238095D02*
X37954819Y-19000000D01*
X37954819Y-19000000D02*
X38002438Y-18904762D01*
X38002438Y-18904762D02*
X38050057Y-18857143D01*
X38050057Y-18857143D02*
X38145295Y-18809524D01*
X38145295Y-18809524D02*
X38240533Y-18809524D01*
X38240533Y-18809524D02*
X38383390Y-18857143D01*
X38383390Y-18857143D02*
X38954819Y-19428571D01*
X38954819Y-19428571D02*
X38954819Y-18809524D01*
X-13645180Y6409524D02*
X-14645180Y6409524D01*
X-14645180Y6409524D02*
X-14645180Y6790476D01*
X-14645180Y6790476D02*
X-14597561Y6885714D01*
X-14597561Y6885714D02*
X-14549942Y6933333D01*
X-14549942Y6933333D02*
X-14454704Y6980952D01*
X-14454704Y6980952D02*
X-14311847Y6980952D01*
X-14311847Y6980952D02*
X-14216609Y6933333D01*
X-14216609Y6933333D02*
X-14168990Y6885714D01*
X-14168990Y6885714D02*
X-14121371Y6790476D01*
X-14121371Y6790476D02*
X-14121371Y6409524D01*
X-13645180Y7409524D02*
X-14645180Y7409524D01*
X-14645180Y7409524D02*
X-13930895Y7742857D01*
X-13930895Y7742857D02*
X-14645180Y8076190D01*
X-14645180Y8076190D02*
X-13645180Y8076190D01*
X-14168990Y8552381D02*
X-14168990Y8885714D01*
X-13645180Y9028571D02*
X-13645180Y8552381D01*
X-13645180Y8552381D02*
X-14645180Y8552381D01*
X-14645180Y8552381D02*
X-14645180Y9028571D01*
X-14597561Y9980952D02*
X-14645180Y9885714D01*
X-14645180Y9885714D02*
X-14645180Y9742857D01*
X-14645180Y9742857D02*
X-14597561Y9600000D01*
X-14597561Y9600000D02*
X-14502323Y9504762D01*
X-14502323Y9504762D02*
X-14407085Y9457143D01*
X-14407085Y9457143D02*
X-14216609Y9409524D01*
X-14216609Y9409524D02*
X-14073752Y9409524D01*
X-14073752Y9409524D02*
X-13883276Y9457143D01*
X-13883276Y9457143D02*
X-13788038Y9504762D01*
X-13788038Y9504762D02*
X-13692800Y9600000D01*
X-13692800Y9600000D02*
X-13645180Y9742857D01*
X-13645180Y9742857D02*
X-13645180Y9838095D01*
X-13645180Y9838095D02*
X-13692800Y9980952D01*
X-13692800Y9980952D02*
X-13740419Y10028571D01*
X-13740419Y10028571D02*
X-14073752Y10028571D01*
X-14073752Y10028571D02*
X-14073752Y9838095D01*
X-14645180Y10361905D02*
X-14645180Y10980952D01*
X-14645180Y10980952D02*
X-14264228Y10647619D01*
X-14264228Y10647619D02*
X-14264228Y10790476D01*
X-14264228Y10790476D02*
X-14216609Y10885714D01*
X-14216609Y10885714D02*
X-14168990Y10933333D01*
X-14168990Y10933333D02*
X-14073752Y10980952D01*
X-14073752Y10980952D02*
X-13835657Y10980952D01*
X-13835657Y10980952D02*
X-13740419Y10933333D01*
X-13740419Y10933333D02*
X-13692800Y10885714D01*
X-13692800Y10885714D02*
X-13645180Y10790476D01*
X-13645180Y10790476D02*
X-13645180Y10504762D01*
X-13645180Y10504762D02*
X-13692800Y10409524D01*
X-13692800Y10409524D02*
X-13740419Y10361905D01*
X-14645180Y11600000D02*
X-14645180Y11695238D01*
X-14645180Y11695238D02*
X-14597561Y11790476D01*
X-14597561Y11790476D02*
X-14549942Y11838095D01*
X-14549942Y11838095D02*
X-14454704Y11885714D01*
X-14454704Y11885714D02*
X-14264228Y11933333D01*
X-14264228Y11933333D02*
X-14026133Y11933333D01*
X-14026133Y11933333D02*
X-13835657Y11885714D01*
X-13835657Y11885714D02*
X-13740419Y11838095D01*
X-13740419Y11838095D02*
X-13692800Y11790476D01*
X-13692800Y11790476D02*
X-13645180Y11695238D01*
X-13645180Y11695238D02*
X-13645180Y11600000D01*
X-13645180Y11600000D02*
X-13692800Y11504762D01*
X-13692800Y11504762D02*
X-13740419Y11457143D01*
X-13740419Y11457143D02*
X-13835657Y11409524D01*
X-13835657Y11409524D02*
X-14026133Y11361905D01*
X-14026133Y11361905D02*
X-14264228Y11361905D01*
X-14264228Y11361905D02*
X-14454704Y11409524D01*
X-14454704Y11409524D02*
X-14549942Y11457143D01*
X-14549942Y11457143D02*
X-14597561Y11504762D01*
X-14597561Y11504762D02*
X-14645180Y11600000D01*
X-14549942Y12314286D02*
X-14597561Y12361905D01*
X-14597561Y12361905D02*
X-14645180Y12457143D01*
X-14645180Y12457143D02*
X-14645180Y12695238D01*
X-14645180Y12695238D02*
X-14597561Y12790476D01*
X-14597561Y12790476D02*
X-14549942Y12838095D01*
X-14549942Y12838095D02*
X-14454704Y12885714D01*
X-14454704Y12885714D02*
X-14359466Y12885714D01*
X-14359466Y12885714D02*
X-14216609Y12838095D01*
X-14216609Y12838095D02*
X-13645180Y12266667D01*
X-13645180Y12266667D02*
X-13645180Y12885714D01*
X-14645180Y13504762D02*
X-14645180Y13600000D01*
X-14645180Y13600000D02*
X-14597561Y13695238D01*
X-14597561Y13695238D02*
X-14549942Y13742857D01*
X-14549942Y13742857D02*
X-14454704Y13790476D01*
X-14454704Y13790476D02*
X-14264228Y13838095D01*
X-14264228Y13838095D02*
X-14026133Y13838095D01*
X-14026133Y13838095D02*
X-13835657Y13790476D01*
X-13835657Y13790476D02*
X-13740419Y13742857D01*
X-13740419Y13742857D02*
X-13692800Y13695238D01*
X-13692800Y13695238D02*
X-13645180Y13600000D01*
X-13645180Y13600000D02*
X-13645180Y13504762D01*
X-13645180Y13504762D02*
X-13692800Y13409524D01*
X-13692800Y13409524D02*
X-13740419Y13361905D01*
X-13740419Y13361905D02*
X-13835657Y13314286D01*
X-13835657Y13314286D02*
X-14026133Y13266667D01*
X-14026133Y13266667D02*
X-14264228Y13266667D01*
X-14264228Y13266667D02*
X-14454704Y13314286D01*
X-14454704Y13314286D02*
X-14549942Y13361905D01*
X-14549942Y13361905D02*
X-14597561Y13409524D01*
X-14597561Y13409524D02*
X-14645180Y13504762D01*
X-17395180Y9261905D02*
X-18395180Y9261905D01*
X-18395180Y9261905D02*
X-18395180Y9500000D01*
X-18395180Y9500000D02*
X-18347561Y9642857D01*
X-18347561Y9642857D02*
X-18252323Y9738095D01*
X-18252323Y9738095D02*
X-18157085Y9785714D01*
X-18157085Y9785714D02*
X-17966609Y9833333D01*
X-17966609Y9833333D02*
X-17823752Y9833333D01*
X-17823752Y9833333D02*
X-17633276Y9785714D01*
X-17633276Y9785714D02*
X-17538038Y9738095D01*
X-17538038Y9738095D02*
X-17442800Y9642857D01*
X-17442800Y9642857D02*
X-17395180Y9500000D01*
X-17395180Y9500000D02*
X-17395180Y9261905D01*
X-18061847Y10690476D02*
X-17395180Y10690476D01*
X-18442800Y10452381D02*
X-17728514Y10214286D01*
X-17728514Y10214286D02*
X-17728514Y10833333D01*
X-15917180Y18211324D02*
X-16917180Y18211324D01*
X-16917180Y18211324D02*
X-16917180Y18592276D01*
X-16917180Y18592276D02*
X-16869561Y18687514D01*
X-16869561Y18687514D02*
X-16821942Y18735133D01*
X-16821942Y18735133D02*
X-16726704Y18782752D01*
X-16726704Y18782752D02*
X-16583847Y18782752D01*
X-16583847Y18782752D02*
X-16488609Y18735133D01*
X-16488609Y18735133D02*
X-16440990Y18687514D01*
X-16440990Y18687514D02*
X-16393371Y18592276D01*
X-16393371Y18592276D02*
X-16393371Y18211324D01*
X-15917180Y19211324D02*
X-16917180Y19211324D01*
X-16917180Y19211324D02*
X-16202895Y19544657D01*
X-16202895Y19544657D02*
X-16917180Y19877990D01*
X-16917180Y19877990D02*
X-15917180Y19877990D01*
X-16440990Y20354181D02*
X-16440990Y20687514D01*
X-15917180Y20830371D02*
X-15917180Y20354181D01*
X-15917180Y20354181D02*
X-16917180Y20354181D01*
X-16917180Y20354181D02*
X-16917180Y20830371D01*
X-16869561Y21782752D02*
X-16917180Y21687514D01*
X-16917180Y21687514D02*
X-16917180Y21544657D01*
X-16917180Y21544657D02*
X-16869561Y21401800D01*
X-16869561Y21401800D02*
X-16774323Y21306562D01*
X-16774323Y21306562D02*
X-16679085Y21258943D01*
X-16679085Y21258943D02*
X-16488609Y21211324D01*
X-16488609Y21211324D02*
X-16345752Y21211324D01*
X-16345752Y21211324D02*
X-16155276Y21258943D01*
X-16155276Y21258943D02*
X-16060038Y21306562D01*
X-16060038Y21306562D02*
X-15964800Y21401800D01*
X-15964800Y21401800D02*
X-15917180Y21544657D01*
X-15917180Y21544657D02*
X-15917180Y21639895D01*
X-15917180Y21639895D02*
X-15964800Y21782752D01*
X-15964800Y21782752D02*
X-16012419Y21830371D01*
X-16012419Y21830371D02*
X-16345752Y21830371D01*
X-16345752Y21830371D02*
X-16345752Y21639895D01*
X-16917180Y22163705D02*
X-16917180Y22782752D01*
X-16917180Y22782752D02*
X-16536228Y22449419D01*
X-16536228Y22449419D02*
X-16536228Y22592276D01*
X-16536228Y22592276D02*
X-16488609Y22687514D01*
X-16488609Y22687514D02*
X-16440990Y22735133D01*
X-16440990Y22735133D02*
X-16345752Y22782752D01*
X-16345752Y22782752D02*
X-16107657Y22782752D01*
X-16107657Y22782752D02*
X-16012419Y22735133D01*
X-16012419Y22735133D02*
X-15964800Y22687514D01*
X-15964800Y22687514D02*
X-15917180Y22592276D01*
X-15917180Y22592276D02*
X-15917180Y22306562D01*
X-15917180Y22306562D02*
X-15964800Y22211324D01*
X-15964800Y22211324D02*
X-16012419Y22163705D01*
X-16917180Y23401800D02*
X-16917180Y23497038D01*
X-16917180Y23497038D02*
X-16869561Y23592276D01*
X-16869561Y23592276D02*
X-16821942Y23639895D01*
X-16821942Y23639895D02*
X-16726704Y23687514D01*
X-16726704Y23687514D02*
X-16536228Y23735133D01*
X-16536228Y23735133D02*
X-16298133Y23735133D01*
X-16298133Y23735133D02*
X-16107657Y23687514D01*
X-16107657Y23687514D02*
X-16012419Y23639895D01*
X-16012419Y23639895D02*
X-15964800Y23592276D01*
X-15964800Y23592276D02*
X-15917180Y23497038D01*
X-15917180Y23497038D02*
X-15917180Y23401800D01*
X-15917180Y23401800D02*
X-15964800Y23306562D01*
X-15964800Y23306562D02*
X-16012419Y23258943D01*
X-16012419Y23258943D02*
X-16107657Y23211324D01*
X-16107657Y23211324D02*
X-16298133Y23163705D01*
X-16298133Y23163705D02*
X-16536228Y23163705D01*
X-16536228Y23163705D02*
X-16726704Y23211324D01*
X-16726704Y23211324D02*
X-16821942Y23258943D01*
X-16821942Y23258943D02*
X-16869561Y23306562D01*
X-16869561Y23306562D02*
X-16917180Y23401800D01*
X-16821942Y24116086D02*
X-16869561Y24163705D01*
X-16869561Y24163705D02*
X-16917180Y24258943D01*
X-16917180Y24258943D02*
X-16917180Y24497038D01*
X-16917180Y24497038D02*
X-16869561Y24592276D01*
X-16869561Y24592276D02*
X-16821942Y24639895D01*
X-16821942Y24639895D02*
X-16726704Y24687514D01*
X-16726704Y24687514D02*
X-16631466Y24687514D01*
X-16631466Y24687514D02*
X-16488609Y24639895D01*
X-16488609Y24639895D02*
X-15917180Y24068467D01*
X-15917180Y24068467D02*
X-15917180Y24687514D01*
X-16917180Y25306562D02*
X-16917180Y25401800D01*
X-16917180Y25401800D02*
X-16869561Y25497038D01*
X-16869561Y25497038D02*
X-16821942Y25544657D01*
X-16821942Y25544657D02*
X-16726704Y25592276D01*
X-16726704Y25592276D02*
X-16536228Y25639895D01*
X-16536228Y25639895D02*
X-16298133Y25639895D01*
X-16298133Y25639895D02*
X-16107657Y25592276D01*
X-16107657Y25592276D02*
X-16012419Y25544657D01*
X-16012419Y25544657D02*
X-15964800Y25497038D01*
X-15964800Y25497038D02*
X-15917180Y25401800D01*
X-15917180Y25401800D02*
X-15917180Y25306562D01*
X-15917180Y25306562D02*
X-15964800Y25211324D01*
X-15964800Y25211324D02*
X-16012419Y25163705D01*
X-16012419Y25163705D02*
X-16107657Y25116086D01*
X-16107657Y25116086D02*
X-16298133Y25068467D01*
X-16298133Y25068467D02*
X-16536228Y25068467D01*
X-16536228Y25068467D02*
X-16726704Y25116086D01*
X-16726704Y25116086D02*
X-16821942Y25163705D01*
X-16821942Y25163705D02*
X-16869561Y25211324D01*
X-16869561Y25211324D02*
X-16917180Y25306562D01*
X-19667180Y21063705D02*
X-20667180Y21063705D01*
X-20667180Y21063705D02*
X-20667180Y21301800D01*
X-20667180Y21301800D02*
X-20619561Y21444657D01*
X-20619561Y21444657D02*
X-20524323Y21539895D01*
X-20524323Y21539895D02*
X-20429085Y21587514D01*
X-20429085Y21587514D02*
X-20238609Y21635133D01*
X-20238609Y21635133D02*
X-20095752Y21635133D01*
X-20095752Y21635133D02*
X-19905276Y21587514D01*
X-19905276Y21587514D02*
X-19810038Y21539895D01*
X-19810038Y21539895D02*
X-19714800Y21444657D01*
X-19714800Y21444657D02*
X-19667180Y21301800D01*
X-19667180Y21301800D02*
X-19667180Y21063705D01*
X-19667180Y22587514D02*
X-19667180Y22016086D01*
X-19667180Y22301800D02*
X-20667180Y22301800D01*
X-20667180Y22301800D02*
X-20524323Y22206562D01*
X-20524323Y22206562D02*
X-20429085Y22111324D01*
X-20429085Y22111324D02*
X-20381466Y22016086D01*
X-16171880Y6409524D02*
X-17171880Y6409524D01*
X-17171880Y6409524D02*
X-17171880Y6790476D01*
X-17171880Y6790476D02*
X-17124261Y6885714D01*
X-17124261Y6885714D02*
X-17076642Y6933333D01*
X-17076642Y6933333D02*
X-16981404Y6980952D01*
X-16981404Y6980952D02*
X-16838547Y6980952D01*
X-16838547Y6980952D02*
X-16743309Y6933333D01*
X-16743309Y6933333D02*
X-16695690Y6885714D01*
X-16695690Y6885714D02*
X-16648071Y6790476D01*
X-16648071Y6790476D02*
X-16648071Y6409524D01*
X-16171880Y7409524D02*
X-17171880Y7409524D01*
X-17171880Y7409524D02*
X-16457595Y7742857D01*
X-16457595Y7742857D02*
X-17171880Y8076190D01*
X-17171880Y8076190D02*
X-16171880Y8076190D01*
X-16695690Y8552381D02*
X-16695690Y8885714D01*
X-16171880Y9028571D02*
X-16171880Y8552381D01*
X-16171880Y8552381D02*
X-17171880Y8552381D01*
X-17171880Y8552381D02*
X-17171880Y9028571D01*
X-17124261Y9980952D02*
X-17171880Y9885714D01*
X-17171880Y9885714D02*
X-17171880Y9742857D01*
X-17171880Y9742857D02*
X-17124261Y9600000D01*
X-17124261Y9600000D02*
X-17029023Y9504762D01*
X-17029023Y9504762D02*
X-16933785Y9457143D01*
X-16933785Y9457143D02*
X-16743309Y9409524D01*
X-16743309Y9409524D02*
X-16600452Y9409524D01*
X-16600452Y9409524D02*
X-16409976Y9457143D01*
X-16409976Y9457143D02*
X-16314738Y9504762D01*
X-16314738Y9504762D02*
X-16219500Y9600000D01*
X-16219500Y9600000D02*
X-16171880Y9742857D01*
X-16171880Y9742857D02*
X-16171880Y9838095D01*
X-16171880Y9838095D02*
X-16219500Y9980952D01*
X-16219500Y9980952D02*
X-16267119Y10028571D01*
X-16267119Y10028571D02*
X-16600452Y10028571D01*
X-16600452Y10028571D02*
X-16600452Y9838095D01*
X-17171880Y10361905D02*
X-17171880Y10980952D01*
X-17171880Y10980952D02*
X-16790928Y10647619D01*
X-16790928Y10647619D02*
X-16790928Y10790476D01*
X-16790928Y10790476D02*
X-16743309Y10885714D01*
X-16743309Y10885714D02*
X-16695690Y10933333D01*
X-16695690Y10933333D02*
X-16600452Y10980952D01*
X-16600452Y10980952D02*
X-16362357Y10980952D01*
X-16362357Y10980952D02*
X-16267119Y10933333D01*
X-16267119Y10933333D02*
X-16219500Y10885714D01*
X-16219500Y10885714D02*
X-16171880Y10790476D01*
X-16171880Y10790476D02*
X-16171880Y10504762D01*
X-16171880Y10504762D02*
X-16219500Y10409524D01*
X-16219500Y10409524D02*
X-16267119Y10361905D01*
X-17171880Y11600000D02*
X-17171880Y11695238D01*
X-17171880Y11695238D02*
X-17124261Y11790476D01*
X-17124261Y11790476D02*
X-17076642Y11838095D01*
X-17076642Y11838095D02*
X-16981404Y11885714D01*
X-16981404Y11885714D02*
X-16790928Y11933333D01*
X-16790928Y11933333D02*
X-16552833Y11933333D01*
X-16552833Y11933333D02*
X-16362357Y11885714D01*
X-16362357Y11885714D02*
X-16267119Y11838095D01*
X-16267119Y11838095D02*
X-16219500Y11790476D01*
X-16219500Y11790476D02*
X-16171880Y11695238D01*
X-16171880Y11695238D02*
X-16171880Y11600000D01*
X-16171880Y11600000D02*
X-16219500Y11504762D01*
X-16219500Y11504762D02*
X-16267119Y11457143D01*
X-16267119Y11457143D02*
X-16362357Y11409524D01*
X-16362357Y11409524D02*
X-16552833Y11361905D01*
X-16552833Y11361905D02*
X-16790928Y11361905D01*
X-16790928Y11361905D02*
X-16981404Y11409524D01*
X-16981404Y11409524D02*
X-17076642Y11457143D01*
X-17076642Y11457143D02*
X-17124261Y11504762D01*
X-17124261Y11504762D02*
X-17171880Y11600000D01*
X-17076642Y12314286D02*
X-17124261Y12361905D01*
X-17124261Y12361905D02*
X-17171880Y12457143D01*
X-17171880Y12457143D02*
X-17171880Y12695238D01*
X-17171880Y12695238D02*
X-17124261Y12790476D01*
X-17124261Y12790476D02*
X-17076642Y12838095D01*
X-17076642Y12838095D02*
X-16981404Y12885714D01*
X-16981404Y12885714D02*
X-16886166Y12885714D01*
X-16886166Y12885714D02*
X-16743309Y12838095D01*
X-16743309Y12838095D02*
X-16171880Y12266667D01*
X-16171880Y12266667D02*
X-16171880Y12885714D01*
X-17171880Y13504762D02*
X-17171880Y13600000D01*
X-17171880Y13600000D02*
X-17124261Y13695238D01*
X-17124261Y13695238D02*
X-17076642Y13742857D01*
X-17076642Y13742857D02*
X-16981404Y13790476D01*
X-16981404Y13790476D02*
X-16790928Y13838095D01*
X-16790928Y13838095D02*
X-16552833Y13838095D01*
X-16552833Y13838095D02*
X-16362357Y13790476D01*
X-16362357Y13790476D02*
X-16267119Y13742857D01*
X-16267119Y13742857D02*
X-16219500Y13695238D01*
X-16219500Y13695238D02*
X-16171880Y13600000D01*
X-16171880Y13600000D02*
X-16171880Y13504762D01*
X-16171880Y13504762D02*
X-16219500Y13409524D01*
X-16219500Y13409524D02*
X-16267119Y13361905D01*
X-16267119Y13361905D02*
X-16362357Y13314286D01*
X-16362357Y13314286D02*
X-16552833Y13266667D01*
X-16552833Y13266667D02*
X-16790928Y13266667D01*
X-16790928Y13266667D02*
X-16981404Y13314286D01*
X-16981404Y13314286D02*
X-17076642Y13361905D01*
X-17076642Y13361905D02*
X-17124261Y13409524D01*
X-17124261Y13409524D02*
X-17171880Y13504762D01*
X-19921880Y9261905D02*
X-20921880Y9261905D01*
X-20921880Y9261905D02*
X-20921880Y9500000D01*
X-20921880Y9500000D02*
X-20874261Y9642857D01*
X-20874261Y9642857D02*
X-20779023Y9738095D01*
X-20779023Y9738095D02*
X-20683785Y9785714D01*
X-20683785Y9785714D02*
X-20493309Y9833333D01*
X-20493309Y9833333D02*
X-20350452Y9833333D01*
X-20350452Y9833333D02*
X-20159976Y9785714D01*
X-20159976Y9785714D02*
X-20064738Y9738095D01*
X-20064738Y9738095D02*
X-19969500Y9642857D01*
X-19969500Y9642857D02*
X-19921880Y9500000D01*
X-19921880Y9500000D02*
X-19921880Y9261905D01*
X-20826642Y10214286D02*
X-20874261Y10261905D01*
X-20874261Y10261905D02*
X-20921880Y10357143D01*
X-20921880Y10357143D02*
X-20921880Y10595238D01*
X-20921880Y10595238D02*
X-20874261Y10690476D01*
X-20874261Y10690476D02*
X-20826642Y10738095D01*
X-20826642Y10738095D02*
X-20731404Y10785714D01*
X-20731404Y10785714D02*
X-20636166Y10785714D01*
X-20636166Y10785714D02*
X-20493309Y10738095D01*
X-20493309Y10738095D02*
X-19921880Y10166667D01*
X-19921880Y10166667D02*
X-19921880Y10785714D01*
X-13645180Y15016624D02*
X-14645180Y15016624D01*
X-14645180Y15016624D02*
X-14645180Y15397576D01*
X-14645180Y15397576D02*
X-14597561Y15492814D01*
X-14597561Y15492814D02*
X-14549942Y15540433D01*
X-14549942Y15540433D02*
X-14454704Y15588052D01*
X-14454704Y15588052D02*
X-14311847Y15588052D01*
X-14311847Y15588052D02*
X-14216609Y15540433D01*
X-14216609Y15540433D02*
X-14168990Y15492814D01*
X-14168990Y15492814D02*
X-14121371Y15397576D01*
X-14121371Y15397576D02*
X-14121371Y15016624D01*
X-13645180Y16016624D02*
X-14645180Y16016624D01*
X-14645180Y16016624D02*
X-13930895Y16349957D01*
X-13930895Y16349957D02*
X-14645180Y16683290D01*
X-14645180Y16683290D02*
X-13645180Y16683290D01*
X-14168990Y17159481D02*
X-14168990Y17492814D01*
X-13645180Y17635671D02*
X-13645180Y17159481D01*
X-13645180Y17159481D02*
X-14645180Y17159481D01*
X-14645180Y17159481D02*
X-14645180Y17635671D01*
X-14597561Y18588052D02*
X-14645180Y18492814D01*
X-14645180Y18492814D02*
X-14645180Y18349957D01*
X-14645180Y18349957D02*
X-14597561Y18207100D01*
X-14597561Y18207100D02*
X-14502323Y18111862D01*
X-14502323Y18111862D02*
X-14407085Y18064243D01*
X-14407085Y18064243D02*
X-14216609Y18016624D01*
X-14216609Y18016624D02*
X-14073752Y18016624D01*
X-14073752Y18016624D02*
X-13883276Y18064243D01*
X-13883276Y18064243D02*
X-13788038Y18111862D01*
X-13788038Y18111862D02*
X-13692800Y18207100D01*
X-13692800Y18207100D02*
X-13645180Y18349957D01*
X-13645180Y18349957D02*
X-13645180Y18445195D01*
X-13645180Y18445195D02*
X-13692800Y18588052D01*
X-13692800Y18588052D02*
X-13740419Y18635671D01*
X-13740419Y18635671D02*
X-14073752Y18635671D01*
X-14073752Y18635671D02*
X-14073752Y18445195D01*
X-14645180Y18969005D02*
X-14645180Y19588052D01*
X-14645180Y19588052D02*
X-14264228Y19254719D01*
X-14264228Y19254719D02*
X-14264228Y19397576D01*
X-14264228Y19397576D02*
X-14216609Y19492814D01*
X-14216609Y19492814D02*
X-14168990Y19540433D01*
X-14168990Y19540433D02*
X-14073752Y19588052D01*
X-14073752Y19588052D02*
X-13835657Y19588052D01*
X-13835657Y19588052D02*
X-13740419Y19540433D01*
X-13740419Y19540433D02*
X-13692800Y19492814D01*
X-13692800Y19492814D02*
X-13645180Y19397576D01*
X-13645180Y19397576D02*
X-13645180Y19111862D01*
X-13645180Y19111862D02*
X-13692800Y19016624D01*
X-13692800Y19016624D02*
X-13740419Y18969005D01*
X-14645180Y20207100D02*
X-14645180Y20302338D01*
X-14645180Y20302338D02*
X-14597561Y20397576D01*
X-14597561Y20397576D02*
X-14549942Y20445195D01*
X-14549942Y20445195D02*
X-14454704Y20492814D01*
X-14454704Y20492814D02*
X-14264228Y20540433D01*
X-14264228Y20540433D02*
X-14026133Y20540433D01*
X-14026133Y20540433D02*
X-13835657Y20492814D01*
X-13835657Y20492814D02*
X-13740419Y20445195D01*
X-13740419Y20445195D02*
X-13692800Y20397576D01*
X-13692800Y20397576D02*
X-13645180Y20302338D01*
X-13645180Y20302338D02*
X-13645180Y20207100D01*
X-13645180Y20207100D02*
X-13692800Y20111862D01*
X-13692800Y20111862D02*
X-13740419Y20064243D01*
X-13740419Y20064243D02*
X-13835657Y20016624D01*
X-13835657Y20016624D02*
X-14026133Y19969005D01*
X-14026133Y19969005D02*
X-14264228Y19969005D01*
X-14264228Y19969005D02*
X-14454704Y20016624D01*
X-14454704Y20016624D02*
X-14549942Y20064243D01*
X-14549942Y20064243D02*
X-14597561Y20111862D01*
X-14597561Y20111862D02*
X-14645180Y20207100D01*
X-14549942Y20921386D02*
X-14597561Y20969005D01*
X-14597561Y20969005D02*
X-14645180Y21064243D01*
X-14645180Y21064243D02*
X-14645180Y21302338D01*
X-14645180Y21302338D02*
X-14597561Y21397576D01*
X-14597561Y21397576D02*
X-14549942Y21445195D01*
X-14549942Y21445195D02*
X-14454704Y21492814D01*
X-14454704Y21492814D02*
X-14359466Y21492814D01*
X-14359466Y21492814D02*
X-14216609Y21445195D01*
X-14216609Y21445195D02*
X-13645180Y20873767D01*
X-13645180Y20873767D02*
X-13645180Y21492814D01*
X-14645180Y22111862D02*
X-14645180Y22207100D01*
X-14645180Y22207100D02*
X-14597561Y22302338D01*
X-14597561Y22302338D02*
X-14549942Y22349957D01*
X-14549942Y22349957D02*
X-14454704Y22397576D01*
X-14454704Y22397576D02*
X-14264228Y22445195D01*
X-14264228Y22445195D02*
X-14026133Y22445195D01*
X-14026133Y22445195D02*
X-13835657Y22397576D01*
X-13835657Y22397576D02*
X-13740419Y22349957D01*
X-13740419Y22349957D02*
X-13692800Y22302338D01*
X-13692800Y22302338D02*
X-13645180Y22207100D01*
X-13645180Y22207100D02*
X-13645180Y22111862D01*
X-13645180Y22111862D02*
X-13692800Y22016624D01*
X-13692800Y22016624D02*
X-13740419Y21969005D01*
X-13740419Y21969005D02*
X-13835657Y21921386D01*
X-13835657Y21921386D02*
X-14026133Y21873767D01*
X-14026133Y21873767D02*
X-14264228Y21873767D01*
X-14264228Y21873767D02*
X-14454704Y21921386D01*
X-14454704Y21921386D02*
X-14549942Y21969005D01*
X-14549942Y21969005D02*
X-14597561Y22016624D01*
X-14597561Y22016624D02*
X-14645180Y22111862D01*
X-17395180Y17869005D02*
X-18395180Y17869005D01*
X-18395180Y17869005D02*
X-18395180Y18107100D01*
X-18395180Y18107100D02*
X-18347561Y18249957D01*
X-18347561Y18249957D02*
X-18252323Y18345195D01*
X-18252323Y18345195D02*
X-18157085Y18392814D01*
X-18157085Y18392814D02*
X-17966609Y18440433D01*
X-17966609Y18440433D02*
X-17823752Y18440433D01*
X-17823752Y18440433D02*
X-17633276Y18392814D01*
X-17633276Y18392814D02*
X-17538038Y18345195D01*
X-17538038Y18345195D02*
X-17442800Y18249957D01*
X-17442800Y18249957D02*
X-17395180Y18107100D01*
X-17395180Y18107100D02*
X-17395180Y17869005D01*
X-18395180Y18773767D02*
X-18395180Y19392814D01*
X-18395180Y19392814D02*
X-18014228Y19059481D01*
X-18014228Y19059481D02*
X-18014228Y19202338D01*
X-18014228Y19202338D02*
X-17966609Y19297576D01*
X-17966609Y19297576D02*
X-17918990Y19345195D01*
X-17918990Y19345195D02*
X-17823752Y19392814D01*
X-17823752Y19392814D02*
X-17585657Y19392814D01*
X-17585657Y19392814D02*
X-17490419Y19345195D01*
X-17490419Y19345195D02*
X-17442800Y19297576D01*
X-17442800Y19297576D02*
X-17395180Y19202338D01*
X-17395180Y19202338D02*
X-17395180Y18916624D01*
X-17395180Y18916624D02*
X-17442800Y18821386D01*
X-17442800Y18821386D02*
X-17490419Y18773767D01*
X-9547619Y-1614819D02*
X-10119047Y-1614819D01*
X-9833333Y-1614819D02*
X-9833333Y-614819D01*
X-9833333Y-614819D02*
X-9928571Y-757676D01*
X-9928571Y-757676D02*
X-10023809Y-852914D01*
X-10023809Y-852914D02*
X-10119047Y-900533D01*
X-8928571Y-614819D02*
X-8833333Y-614819D01*
X-8833333Y-614819D02*
X-8738095Y-662438D01*
X-8738095Y-662438D02*
X-8690476Y-710057D01*
X-8690476Y-710057D02*
X-8642857Y-805295D01*
X-8642857Y-805295D02*
X-8595238Y-995771D01*
X-8595238Y-995771D02*
X-8595238Y-1233866D01*
X-8595238Y-1233866D02*
X-8642857Y-1424342D01*
X-8642857Y-1424342D02*
X-8690476Y-1519580D01*
X-8690476Y-1519580D02*
X-8738095Y-1567200D01*
X-8738095Y-1567200D02*
X-8833333Y-1614819D01*
X-8833333Y-1614819D02*
X-8928571Y-1614819D01*
X-8928571Y-1614819D02*
X-9023809Y-1567200D01*
X-9023809Y-1567200D02*
X-9071428Y-1519580D01*
X-9071428Y-1519580D02*
X-9119047Y-1424342D01*
X-9119047Y-1424342D02*
X-9166666Y-1233866D01*
X-9166666Y-1233866D02*
X-9166666Y-995771D01*
X-9166666Y-995771D02*
X-9119047Y-805295D01*
X-9119047Y-805295D02*
X-9071428Y-710057D01*
X-9071428Y-710057D02*
X-9023809Y-662438D01*
X-9023809Y-662438D02*
X-8928571Y-614819D01*
X-7976190Y-614819D02*
X-7880952Y-614819D01*
X-7880952Y-614819D02*
X-7785714Y-662438D01*
X-7785714Y-662438D02*
X-7738095Y-710057D01*
X-7738095Y-710057D02*
X-7690476Y-805295D01*
X-7690476Y-805295D02*
X-7642857Y-995771D01*
X-7642857Y-995771D02*
X-7642857Y-1233866D01*
X-7642857Y-1233866D02*
X-7690476Y-1424342D01*
X-7690476Y-1424342D02*
X-7738095Y-1519580D01*
X-7738095Y-1519580D02*
X-7785714Y-1567200D01*
X-7785714Y-1567200D02*
X-7880952Y-1614819D01*
X-7880952Y-1614819D02*
X-7976190Y-1614819D01*
X-7976190Y-1614819D02*
X-8071428Y-1567200D01*
X-8071428Y-1567200D02*
X-8119047Y-1519580D01*
X-8119047Y-1519580D02*
X-8166666Y-1424342D01*
X-8166666Y-1424342D02*
X-8214285Y-1233866D01*
X-8214285Y-1233866D02*
X-8214285Y-995771D01*
X-8214285Y-995771D02*
X-8166666Y-805295D01*
X-8166666Y-805295D02*
X-8119047Y-710057D01*
X-8119047Y-710057D02*
X-8071428Y-662438D01*
X-8071428Y-662438D02*
X-7976190Y-614819D01*
X-7214285Y-948152D02*
X-7214285Y-1614819D01*
X-7214285Y-1043390D02*
X-7166666Y-995771D01*
X-7166666Y-995771D02*
X-7071428Y-948152D01*
X-7071428Y-948152D02*
X-6928571Y-948152D01*
X-6928571Y-948152D02*
X-6833333Y-995771D01*
X-6833333Y-995771D02*
X-6785714Y-1091009D01*
X-6785714Y-1091009D02*
X-6785714Y-1614819D01*
X-5976190Y-1091009D02*
X-6309523Y-1091009D01*
X-6309523Y-1614819D02*
X-6309523Y-614819D01*
X-6309523Y-614819D02*
X-5833333Y-614819D01*
D11*
X-8041666Y-89765D02*
X-8053570Y-101670D01*
X-8053570Y-101670D02*
X-8089285Y-113574D01*
X-8089285Y-113574D02*
X-8113094Y-113574D01*
X-8113094Y-113574D02*
X-8148808Y-101670D01*
X-8148808Y-101670D02*
X-8172618Y-77860D01*
X-8172618Y-77860D02*
X-8184523Y-54050D01*
X-8184523Y-54050D02*
X-8196427Y-6431D01*
X-8196427Y-6431D02*
X-8196427Y29282D01*
X-8196427Y29282D02*
X-8184523Y76901D01*
X-8184523Y76901D02*
X-8172618Y100710D01*
X-8172618Y100710D02*
X-8148808Y124520D01*
X-8148808Y124520D02*
X-8113094Y136425D01*
X-8113094Y136425D02*
X-8089285Y136425D01*
X-8089285Y136425D02*
X-8053570Y124520D01*
X-8053570Y124520D02*
X-8041666Y112615D01*
X-7946427Y112615D02*
X-7934523Y124520D01*
X-7934523Y124520D02*
X-7910713Y136425D01*
X-7910713Y136425D02*
X-7851189Y136425D01*
X-7851189Y136425D02*
X-7827380Y124520D01*
X-7827380Y124520D02*
X-7815475Y112615D01*
X-7815475Y112615D02*
X-7803570Y88806D01*
X-7803570Y88806D02*
X-7803570Y64996D01*
X-7803570Y64996D02*
X-7815475Y29282D01*
X-7815475Y29282D02*
X-7958332Y-113574D01*
X-7958332Y-113574D02*
X-7803570Y-113574D01*
D10*
X6452380Y-2456519D02*
X5880952Y-2456519D01*
X6166666Y-2456519D02*
X6166666Y-1456519D01*
X6166666Y-1456519D02*
X6071428Y-1599376D01*
X6071428Y-1599376D02*
X5976190Y-1694614D01*
X5976190Y-1694614D02*
X5880952Y-1742233D01*
X7071428Y-1456519D02*
X7166666Y-1456519D01*
X7166666Y-1456519D02*
X7261904Y-1504138D01*
X7261904Y-1504138D02*
X7309523Y-1551757D01*
X7309523Y-1551757D02*
X7357142Y-1646995D01*
X7357142Y-1646995D02*
X7404761Y-1837471D01*
X7404761Y-1837471D02*
X7404761Y-2075566D01*
X7404761Y-2075566D02*
X7357142Y-2266042D01*
X7357142Y-2266042D02*
X7309523Y-2361280D01*
X7309523Y-2361280D02*
X7261904Y-2408900D01*
X7261904Y-2408900D02*
X7166666Y-2456519D01*
X7166666Y-2456519D02*
X7071428Y-2456519D01*
X7071428Y-2456519D02*
X6976190Y-2408900D01*
X6976190Y-2408900D02*
X6928571Y-2361280D01*
X6928571Y-2361280D02*
X6880952Y-2266042D01*
X6880952Y-2266042D02*
X6833333Y-2075566D01*
X6833333Y-2075566D02*
X6833333Y-1837471D01*
X6833333Y-1837471D02*
X6880952Y-1646995D01*
X6880952Y-1646995D02*
X6928571Y-1551757D01*
X6928571Y-1551757D02*
X6976190Y-1504138D01*
X6976190Y-1504138D02*
X7071428Y-1456519D01*
X8023809Y-1456519D02*
X8119047Y-1456519D01*
X8119047Y-1456519D02*
X8214285Y-1504138D01*
X8214285Y-1504138D02*
X8261904Y-1551757D01*
X8261904Y-1551757D02*
X8309523Y-1646995D01*
X8309523Y-1646995D02*
X8357142Y-1837471D01*
X8357142Y-1837471D02*
X8357142Y-2075566D01*
X8357142Y-2075566D02*
X8309523Y-2266042D01*
X8309523Y-2266042D02*
X8261904Y-2361280D01*
X8261904Y-2361280D02*
X8214285Y-2408900D01*
X8214285Y-2408900D02*
X8119047Y-2456519D01*
X8119047Y-2456519D02*
X8023809Y-2456519D01*
X8023809Y-2456519D02*
X7928571Y-2408900D01*
X7928571Y-2408900D02*
X7880952Y-2361280D01*
X7880952Y-2361280D02*
X7833333Y-2266042D01*
X7833333Y-2266042D02*
X7785714Y-2075566D01*
X7785714Y-2075566D02*
X7785714Y-1837471D01*
X7785714Y-1837471D02*
X7833333Y-1646995D01*
X7833333Y-1646995D02*
X7880952Y-1551757D01*
X7880952Y-1551757D02*
X7928571Y-1504138D01*
X7928571Y-1504138D02*
X8023809Y-1456519D01*
X8785714Y-1789852D02*
X8785714Y-2456519D01*
X8785714Y-1885090D02*
X8833333Y-1837471D01*
X8833333Y-1837471D02*
X8928571Y-1789852D01*
X8928571Y-1789852D02*
X9071428Y-1789852D01*
X9071428Y-1789852D02*
X9166666Y-1837471D01*
X9166666Y-1837471D02*
X9214285Y-1932709D01*
X9214285Y-1932709D02*
X9214285Y-2456519D01*
X10023809Y-1932709D02*
X9690476Y-1932709D01*
X9690476Y-2456519D02*
X9690476Y-1456519D01*
X9690476Y-1456519D02*
X10166666Y-1456519D01*
D11*
X7958333Y-931465D02*
X7946429Y-943370D01*
X7946429Y-943370D02*
X7910714Y-955274D01*
X7910714Y-955274D02*
X7886905Y-955274D01*
X7886905Y-955274D02*
X7851191Y-943370D01*
X7851191Y-943370D02*
X7827381Y-919560D01*
X7827381Y-919560D02*
X7815476Y-895750D01*
X7815476Y-895750D02*
X7803572Y-848131D01*
X7803572Y-848131D02*
X7803572Y-812417D01*
X7803572Y-812417D02*
X7815476Y-764798D01*
X7815476Y-764798D02*
X7827381Y-740989D01*
X7827381Y-740989D02*
X7851191Y-717179D01*
X7851191Y-717179D02*
X7886905Y-705274D01*
X7886905Y-705274D02*
X7910714Y-705274D01*
X7910714Y-705274D02*
X7946429Y-717179D01*
X7946429Y-717179D02*
X7958333Y-729084D01*
X8184524Y-705274D02*
X8065476Y-705274D01*
X8065476Y-705274D02*
X8053572Y-824322D01*
X8053572Y-824322D02*
X8065476Y-812417D01*
X8065476Y-812417D02*
X8089286Y-800512D01*
X8089286Y-800512D02*
X8148810Y-800512D01*
X8148810Y-800512D02*
X8172619Y-812417D01*
X8172619Y-812417D02*
X8184524Y-824322D01*
X8184524Y-824322D02*
X8196429Y-848131D01*
X8196429Y-848131D02*
X8196429Y-907655D01*
X8196429Y-907655D02*
X8184524Y-931465D01*
X8184524Y-931465D02*
X8172619Y-943370D01*
X8172619Y-943370D02*
X8148810Y-955274D01*
X8148810Y-955274D02*
X8089286Y-955274D01*
X8089286Y-955274D02*
X8065476Y-943370D01*
X8065476Y-943370D02*
X8053572Y-931465D01*
D10*
X6452380Y6385180D02*
X5880952Y6385180D01*
X6166666Y6385180D02*
X6166666Y7385180D01*
X6166666Y7385180D02*
X6071428Y7242323D01*
X6071428Y7242323D02*
X5976190Y7147085D01*
X5976190Y7147085D02*
X5880952Y7099466D01*
X7071428Y7385180D02*
X7166666Y7385180D01*
X7166666Y7385180D02*
X7261904Y7337561D01*
X7261904Y7337561D02*
X7309523Y7289942D01*
X7309523Y7289942D02*
X7357142Y7194704D01*
X7357142Y7194704D02*
X7404761Y7004228D01*
X7404761Y7004228D02*
X7404761Y6766133D01*
X7404761Y6766133D02*
X7357142Y6575657D01*
X7357142Y6575657D02*
X7309523Y6480419D01*
X7309523Y6480419D02*
X7261904Y6432800D01*
X7261904Y6432800D02*
X7166666Y6385180D01*
X7166666Y6385180D02*
X7071428Y6385180D01*
X7071428Y6385180D02*
X6976190Y6432800D01*
X6976190Y6432800D02*
X6928571Y6480419D01*
X6928571Y6480419D02*
X6880952Y6575657D01*
X6880952Y6575657D02*
X6833333Y6766133D01*
X6833333Y6766133D02*
X6833333Y7004228D01*
X6833333Y7004228D02*
X6880952Y7194704D01*
X6880952Y7194704D02*
X6928571Y7289942D01*
X6928571Y7289942D02*
X6976190Y7337561D01*
X6976190Y7337561D02*
X7071428Y7385180D01*
X8023809Y7385180D02*
X8119047Y7385180D01*
X8119047Y7385180D02*
X8214285Y7337561D01*
X8214285Y7337561D02*
X8261904Y7289942D01*
X8261904Y7289942D02*
X8309523Y7194704D01*
X8309523Y7194704D02*
X8357142Y7004228D01*
X8357142Y7004228D02*
X8357142Y6766133D01*
X8357142Y6766133D02*
X8309523Y6575657D01*
X8309523Y6575657D02*
X8261904Y6480419D01*
X8261904Y6480419D02*
X8214285Y6432800D01*
X8214285Y6432800D02*
X8119047Y6385180D01*
X8119047Y6385180D02*
X8023809Y6385180D01*
X8023809Y6385180D02*
X7928571Y6432800D01*
X7928571Y6432800D02*
X7880952Y6480419D01*
X7880952Y6480419D02*
X7833333Y6575657D01*
X7833333Y6575657D02*
X7785714Y6766133D01*
X7785714Y6766133D02*
X7785714Y7004228D01*
X7785714Y7004228D02*
X7833333Y7194704D01*
X7833333Y7194704D02*
X7880952Y7289942D01*
X7880952Y7289942D02*
X7928571Y7337561D01*
X7928571Y7337561D02*
X8023809Y7385180D01*
X8785714Y7051847D02*
X8785714Y6385180D01*
X8785714Y6956609D02*
X8833333Y7004228D01*
X8833333Y7004228D02*
X8928571Y7051847D01*
X8928571Y7051847D02*
X9071428Y7051847D01*
X9071428Y7051847D02*
X9166666Y7004228D01*
X9166666Y7004228D02*
X9214285Y6908990D01*
X9214285Y6908990D02*
X9214285Y6385180D01*
X10023809Y6908990D02*
X9690476Y6908990D01*
X9690476Y6385180D02*
X9690476Y7385180D01*
X9690476Y7385180D02*
X10166666Y7385180D01*
D11*
X7958333Y7910234D02*
X7946429Y7898330D01*
X7946429Y7898330D02*
X7910714Y7886425D01*
X7910714Y7886425D02*
X7886905Y7886425D01*
X7886905Y7886425D02*
X7851191Y7898330D01*
X7851191Y7898330D02*
X7827381Y7922139D01*
X7827381Y7922139D02*
X7815476Y7945949D01*
X7815476Y7945949D02*
X7803572Y7993568D01*
X7803572Y7993568D02*
X7803572Y8029282D01*
X7803572Y8029282D02*
X7815476Y8076901D01*
X7815476Y8076901D02*
X7827381Y8100710D01*
X7827381Y8100710D02*
X7851191Y8124520D01*
X7851191Y8124520D02*
X7886905Y8136425D01*
X7886905Y8136425D02*
X7910714Y8136425D01*
X7910714Y8136425D02*
X7946429Y8124520D01*
X7946429Y8124520D02*
X7958333Y8112615D01*
X8172619Y8136425D02*
X8125000Y8136425D01*
X8125000Y8136425D02*
X8101191Y8124520D01*
X8101191Y8124520D02*
X8089286Y8112615D01*
X8089286Y8112615D02*
X8065476Y8076901D01*
X8065476Y8076901D02*
X8053572Y8029282D01*
X8053572Y8029282D02*
X8053572Y7934044D01*
X8053572Y7934044D02*
X8065476Y7910234D01*
X8065476Y7910234D02*
X8077381Y7898330D01*
X8077381Y7898330D02*
X8101191Y7886425D01*
X8101191Y7886425D02*
X8148810Y7886425D01*
X8148810Y7886425D02*
X8172619Y7898330D01*
X8172619Y7898330D02*
X8184524Y7910234D01*
X8184524Y7910234D02*
X8196429Y7934044D01*
X8196429Y7934044D02*
X8196429Y7993568D01*
X8196429Y7993568D02*
X8184524Y8017377D01*
X8184524Y8017377D02*
X8172619Y8029282D01*
X8172619Y8029282D02*
X8148810Y8041187D01*
X8148810Y8041187D02*
X8101191Y8041187D01*
X8101191Y8041187D02*
X8077381Y8029282D01*
X8077381Y8029282D02*
X8065476Y8017377D01*
X8065476Y8017377D02*
X8053572Y7993568D01*
D10*
X-9547619Y-6614819D02*
X-10119047Y-6614819D01*
X-9833333Y-6614819D02*
X-9833333Y-5614819D01*
X-9833333Y-5614819D02*
X-9928571Y-5757676D01*
X-9928571Y-5757676D02*
X-10023809Y-5852914D01*
X-10023809Y-5852914D02*
X-10119047Y-5900533D01*
X-8928571Y-5614819D02*
X-8833333Y-5614819D01*
X-8833333Y-5614819D02*
X-8738095Y-5662438D01*
X-8738095Y-5662438D02*
X-8690476Y-5710057D01*
X-8690476Y-5710057D02*
X-8642857Y-5805295D01*
X-8642857Y-5805295D02*
X-8595238Y-5995771D01*
X-8595238Y-5995771D02*
X-8595238Y-6233866D01*
X-8595238Y-6233866D02*
X-8642857Y-6424342D01*
X-8642857Y-6424342D02*
X-8690476Y-6519580D01*
X-8690476Y-6519580D02*
X-8738095Y-6567200D01*
X-8738095Y-6567200D02*
X-8833333Y-6614819D01*
X-8833333Y-6614819D02*
X-8928571Y-6614819D01*
X-8928571Y-6614819D02*
X-9023809Y-6567200D01*
X-9023809Y-6567200D02*
X-9071428Y-6519580D01*
X-9071428Y-6519580D02*
X-9119047Y-6424342D01*
X-9119047Y-6424342D02*
X-9166666Y-6233866D01*
X-9166666Y-6233866D02*
X-9166666Y-5995771D01*
X-9166666Y-5995771D02*
X-9119047Y-5805295D01*
X-9119047Y-5805295D02*
X-9071428Y-5710057D01*
X-9071428Y-5710057D02*
X-9023809Y-5662438D01*
X-9023809Y-5662438D02*
X-8928571Y-5614819D01*
X-7976190Y-5614819D02*
X-7880952Y-5614819D01*
X-7880952Y-5614819D02*
X-7785714Y-5662438D01*
X-7785714Y-5662438D02*
X-7738095Y-5710057D01*
X-7738095Y-5710057D02*
X-7690476Y-5805295D01*
X-7690476Y-5805295D02*
X-7642857Y-5995771D01*
X-7642857Y-5995771D02*
X-7642857Y-6233866D01*
X-7642857Y-6233866D02*
X-7690476Y-6424342D01*
X-7690476Y-6424342D02*
X-7738095Y-6519580D01*
X-7738095Y-6519580D02*
X-7785714Y-6567200D01*
X-7785714Y-6567200D02*
X-7880952Y-6614819D01*
X-7880952Y-6614819D02*
X-7976190Y-6614819D01*
X-7976190Y-6614819D02*
X-8071428Y-6567200D01*
X-8071428Y-6567200D02*
X-8119047Y-6519580D01*
X-8119047Y-6519580D02*
X-8166666Y-6424342D01*
X-8166666Y-6424342D02*
X-8214285Y-6233866D01*
X-8214285Y-6233866D02*
X-8214285Y-5995771D01*
X-8214285Y-5995771D02*
X-8166666Y-5805295D01*
X-8166666Y-5805295D02*
X-8119047Y-5710057D01*
X-8119047Y-5710057D02*
X-8071428Y-5662438D01*
X-8071428Y-5662438D02*
X-7976190Y-5614819D01*
X-7214285Y-5948152D02*
X-7214285Y-6614819D01*
X-7214285Y-6043390D02*
X-7166666Y-5995771D01*
X-7166666Y-5995771D02*
X-7071428Y-5948152D01*
X-7071428Y-5948152D02*
X-6928571Y-5948152D01*
X-6928571Y-5948152D02*
X-6833333Y-5995771D01*
X-6833333Y-5995771D02*
X-6785714Y-6091009D01*
X-6785714Y-6091009D02*
X-6785714Y-6614819D01*
X-5976190Y-6091009D02*
X-6309523Y-6091009D01*
X-6309523Y-6614819D02*
X-6309523Y-5614819D01*
X-6309523Y-5614819D02*
X-5833333Y-5614819D01*
D11*
X-8041666Y-5089765D02*
X-8053570Y-5101670D01*
X-8053570Y-5101670D02*
X-8089285Y-5113574D01*
X-8089285Y-5113574D02*
X-8113094Y-5113574D01*
X-8113094Y-5113574D02*
X-8148808Y-5101670D01*
X-8148808Y-5101670D02*
X-8172618Y-5077860D01*
X-8172618Y-5077860D02*
X-8184523Y-5054050D01*
X-8184523Y-5054050D02*
X-8196427Y-5006431D01*
X-8196427Y-5006431D02*
X-8196427Y-4970717D01*
X-8196427Y-4970717D02*
X-8184523Y-4923098D01*
X-8184523Y-4923098D02*
X-8172618Y-4899289D01*
X-8172618Y-4899289D02*
X-8148808Y-4875479D01*
X-8148808Y-4875479D02*
X-8113094Y-4863574D01*
X-8113094Y-4863574D02*
X-8089285Y-4863574D01*
X-8089285Y-4863574D02*
X-8053570Y-4875479D01*
X-8053570Y-4875479D02*
X-8041666Y-4887384D01*
X-7958332Y-4863574D02*
X-7803570Y-4863574D01*
X-7803570Y-4863574D02*
X-7886904Y-4958812D01*
X-7886904Y-4958812D02*
X-7851189Y-4958812D01*
X-7851189Y-4958812D02*
X-7827380Y-4970717D01*
X-7827380Y-4970717D02*
X-7815475Y-4982622D01*
X-7815475Y-4982622D02*
X-7803570Y-5006431D01*
X-7803570Y-5006431D02*
X-7803570Y-5065955D01*
X-7803570Y-5065955D02*
X-7815475Y-5089765D01*
X-7815475Y-5089765D02*
X-7827380Y-5101670D01*
X-7827380Y-5101670D02*
X-7851189Y-5113574D01*
X-7851189Y-5113574D02*
X-7922618Y-5113574D01*
X-7922618Y-5113574D02*
X-7946427Y-5101670D01*
X-7946427Y-5101670D02*
X-7958332Y-5089765D01*
D10*
X-1547619Y-9614819D02*
X-2119047Y-9614819D01*
X-1833333Y-9614819D02*
X-1833333Y-8614819D01*
X-1833333Y-8614819D02*
X-1928571Y-8757676D01*
X-1928571Y-8757676D02*
X-2023809Y-8852914D01*
X-2023809Y-8852914D02*
X-2119047Y-8900533D01*
X-928571Y-8614819D02*
X-833333Y-8614819D01*
X-833333Y-8614819D02*
X-738095Y-8662438D01*
X-738095Y-8662438D02*
X-690476Y-8710057D01*
X-690476Y-8710057D02*
X-642857Y-8805295D01*
X-642857Y-8805295D02*
X-595238Y-8995771D01*
X-595238Y-8995771D02*
X-595238Y-9233866D01*
X-595238Y-9233866D02*
X-642857Y-9424342D01*
X-642857Y-9424342D02*
X-690476Y-9519580D01*
X-690476Y-9519580D02*
X-738095Y-9567200D01*
X-738095Y-9567200D02*
X-833333Y-9614819D01*
X-833333Y-9614819D02*
X-928571Y-9614819D01*
X-928571Y-9614819D02*
X-1023809Y-9567200D01*
X-1023809Y-9567200D02*
X-1071428Y-9519580D01*
X-1071428Y-9519580D02*
X-1119047Y-9424342D01*
X-1119047Y-9424342D02*
X-1166666Y-9233866D01*
X-1166666Y-9233866D02*
X-1166666Y-8995771D01*
X-1166666Y-8995771D02*
X-1119047Y-8805295D01*
X-1119047Y-8805295D02*
X-1071428Y-8710057D01*
X-1071428Y-8710057D02*
X-1023809Y-8662438D01*
X-1023809Y-8662438D02*
X-928571Y-8614819D01*
X23809Y-8614819D02*
X119047Y-8614819D01*
X119047Y-8614819D02*
X214285Y-8662438D01*
X214285Y-8662438D02*
X261904Y-8710057D01*
X261904Y-8710057D02*
X309523Y-8805295D01*
X309523Y-8805295D02*
X357142Y-8995771D01*
X357142Y-8995771D02*
X357142Y-9233866D01*
X357142Y-9233866D02*
X309523Y-9424342D01*
X309523Y-9424342D02*
X261904Y-9519580D01*
X261904Y-9519580D02*
X214285Y-9567200D01*
X214285Y-9567200D02*
X119047Y-9614819D01*
X119047Y-9614819D02*
X23809Y-9614819D01*
X23809Y-9614819D02*
X-71428Y-9567200D01*
X-71428Y-9567200D02*
X-119047Y-9519580D01*
X-119047Y-9519580D02*
X-166666Y-9424342D01*
X-166666Y-9424342D02*
X-214285Y-9233866D01*
X-214285Y-9233866D02*
X-214285Y-8995771D01*
X-214285Y-8995771D02*
X-166666Y-8805295D01*
X-166666Y-8805295D02*
X-119047Y-8710057D01*
X-119047Y-8710057D02*
X-71428Y-8662438D01*
X-71428Y-8662438D02*
X23809Y-8614819D01*
X785714Y-8948152D02*
X785714Y-9614819D01*
X785714Y-9043390D02*
X833333Y-8995771D01*
X833333Y-8995771D02*
X928571Y-8948152D01*
X928571Y-8948152D02*
X1071428Y-8948152D01*
X1071428Y-8948152D02*
X1166666Y-8995771D01*
X1166666Y-8995771D02*
X1214285Y-9091009D01*
X1214285Y-9091009D02*
X1214285Y-9614819D01*
X2023809Y-9091009D02*
X1690476Y-9091009D01*
X1690476Y-9614819D02*
X1690476Y-8614819D01*
X1690476Y-8614819D02*
X2166666Y-8614819D01*
D11*
X-41666Y-8089765D02*
X-53570Y-8101670D01*
X-53570Y-8101670D02*
X-89285Y-8113574D01*
X-89285Y-8113574D02*
X-113094Y-8113574D01*
X-113094Y-8113574D02*
X-148808Y-8101670D01*
X-148808Y-8101670D02*
X-172618Y-8077860D01*
X-172618Y-8077860D02*
X-184523Y-8054050D01*
X-184523Y-8054050D02*
X-196427Y-8006431D01*
X-196427Y-8006431D02*
X-196427Y-7970717D01*
X-196427Y-7970717D02*
X-184523Y-7923098D01*
X-184523Y-7923098D02*
X-172618Y-7899289D01*
X-172618Y-7899289D02*
X-148808Y-7875479D01*
X-148808Y-7875479D02*
X-113094Y-7863574D01*
X-113094Y-7863574D02*
X-89285Y-7863574D01*
X-89285Y-7863574D02*
X-53570Y-7875479D01*
X-53570Y-7875479D02*
X-41666Y-7887384D01*
X172619Y-7946908D02*
X172619Y-8113574D01*
X113095Y-7851670D02*
X53572Y-8030241D01*
X53572Y-8030241D02*
X208333Y-8030241D01*
D10*
X-4285719Y7028680D02*
X-4857147Y7028680D01*
X-4571433Y7028680D02*
X-4571433Y8028680D01*
X-4571433Y8028680D02*
X-4666671Y7885823D01*
X-4666671Y7885823D02*
X-4761909Y7790585D01*
X-4761909Y7790585D02*
X-4857147Y7742966D01*
X-3666671Y8028680D02*
X-3571433Y8028680D01*
X-3571433Y8028680D02*
X-3476195Y7981061D01*
X-3476195Y7981061D02*
X-3428576Y7933442D01*
X-3428576Y7933442D02*
X-3380957Y7838204D01*
X-3380957Y7838204D02*
X-3333338Y7647728D01*
X-3333338Y7647728D02*
X-3333338Y7409633D01*
X-3333338Y7409633D02*
X-3380957Y7219157D01*
X-3380957Y7219157D02*
X-3428576Y7123919D01*
X-3428576Y7123919D02*
X-3476195Y7076300D01*
X-3476195Y7076300D02*
X-3571433Y7028680D01*
X-3571433Y7028680D02*
X-3666671Y7028680D01*
X-3666671Y7028680D02*
X-3761909Y7076300D01*
X-3761909Y7076300D02*
X-3809528Y7123919D01*
X-3809528Y7123919D02*
X-3857147Y7219157D01*
X-3857147Y7219157D02*
X-3904766Y7409633D01*
X-3904766Y7409633D02*
X-3904766Y7647728D01*
X-3904766Y7647728D02*
X-3857147Y7838204D01*
X-3857147Y7838204D02*
X-3809528Y7933442D01*
X-3809528Y7933442D02*
X-3761909Y7981061D01*
X-3761909Y7981061D02*
X-3666671Y8028680D01*
X-2714290Y8028680D02*
X-2619052Y8028680D01*
X-2619052Y8028680D02*
X-2523814Y7981061D01*
X-2523814Y7981061D02*
X-2476195Y7933442D01*
X-2476195Y7933442D02*
X-2428576Y7838204D01*
X-2428576Y7838204D02*
X-2380957Y7647728D01*
X-2380957Y7647728D02*
X-2380957Y7409633D01*
X-2380957Y7409633D02*
X-2428576Y7219157D01*
X-2428576Y7219157D02*
X-2476195Y7123919D01*
X-2476195Y7123919D02*
X-2523814Y7076300D01*
X-2523814Y7076300D02*
X-2619052Y7028680D01*
X-2619052Y7028680D02*
X-2714290Y7028680D01*
X-2714290Y7028680D02*
X-2809528Y7076300D01*
X-2809528Y7076300D02*
X-2857147Y7123919D01*
X-2857147Y7123919D02*
X-2904766Y7219157D01*
X-2904766Y7219157D02*
X-2952385Y7409633D01*
X-2952385Y7409633D02*
X-2952385Y7647728D01*
X-2952385Y7647728D02*
X-2904766Y7838204D01*
X-2904766Y7838204D02*
X-2857147Y7933442D01*
X-2857147Y7933442D02*
X-2809528Y7981061D01*
X-2809528Y7981061D02*
X-2714290Y8028680D01*
X-1952385Y7695347D02*
X-1952385Y7028680D01*
X-1952385Y7600109D02*
X-1904766Y7647728D01*
X-1904766Y7647728D02*
X-1809528Y7695347D01*
X-1809528Y7695347D02*
X-1666671Y7695347D01*
X-1666671Y7695347D02*
X-1571433Y7647728D01*
X-1571433Y7647728D02*
X-1523814Y7552490D01*
X-1523814Y7552490D02*
X-1523814Y7028680D01*
X-714290Y7552490D02*
X-1047623Y7552490D01*
X-1047623Y7028680D02*
X-1047623Y8028680D01*
X-1047623Y8028680D02*
X-571433Y8028680D01*
D11*
X-2898814Y8553734D02*
X-2910718Y8541830D01*
X-2910718Y8541830D02*
X-2946433Y8529925D01*
X-2946433Y8529925D02*
X-2970242Y8529925D01*
X-2970242Y8529925D02*
X-3005956Y8541830D01*
X-3005956Y8541830D02*
X-3029766Y8565639D01*
X-3029766Y8565639D02*
X-3041671Y8589449D01*
X-3041671Y8589449D02*
X-3053575Y8637068D01*
X-3053575Y8637068D02*
X-3053575Y8672782D01*
X-3053575Y8672782D02*
X-3041671Y8720401D01*
X-3041671Y8720401D02*
X-3029766Y8744210D01*
X-3029766Y8744210D02*
X-3005956Y8768020D01*
X-3005956Y8768020D02*
X-2970242Y8779925D01*
X-2970242Y8779925D02*
X-2946433Y8779925D01*
X-2946433Y8779925D02*
X-2910718Y8768020D01*
X-2910718Y8768020D02*
X-2898814Y8756115D01*
X-2660718Y8529925D02*
X-2803575Y8529925D01*
X-2732147Y8529925D02*
X-2732147Y8779925D01*
X-2732147Y8779925D02*
X-2755956Y8744210D01*
X-2755956Y8744210D02*
X-2779766Y8720401D01*
X-2779766Y8720401D02*
X-2803575Y8708496D01*
X-2505957Y8779925D02*
X-2482147Y8779925D01*
X-2482147Y8779925D02*
X-2458338Y8768020D01*
X-2458338Y8768020D02*
X-2446433Y8756115D01*
X-2446433Y8756115D02*
X-2434528Y8732306D01*
X-2434528Y8732306D02*
X-2422623Y8684687D01*
X-2422623Y8684687D02*
X-2422623Y8625163D01*
X-2422623Y8625163D02*
X-2434528Y8577544D01*
X-2434528Y8577544D02*
X-2446433Y8553734D01*
X-2446433Y8553734D02*
X-2458338Y8541830D01*
X-2458338Y8541830D02*
X-2482147Y8529925D01*
X-2482147Y8529925D02*
X-2505957Y8529925D01*
X-2505957Y8529925D02*
X-2529766Y8541830D01*
X-2529766Y8541830D02*
X-2541671Y8553734D01*
X-2541671Y8553734D02*
X-2553576Y8577544D01*
X-2553576Y8577544D02*
X-2565480Y8625163D01*
X-2565480Y8625163D02*
X-2565480Y8684687D01*
X-2565480Y8684687D02*
X-2553576Y8732306D01*
X-2553576Y8732306D02*
X-2541671Y8756115D01*
X-2541671Y8756115D02*
X-2529766Y8768020D01*
X-2529766Y8768020D02*
X-2505957Y8779925D01*
D10*
X1083380Y7028680D02*
X511952Y7028680D01*
X797666Y7028680D02*
X797666Y8028680D01*
X797666Y8028680D02*
X702428Y7885823D01*
X702428Y7885823D02*
X607190Y7790585D01*
X607190Y7790585D02*
X511952Y7742966D01*
X1702428Y8028680D02*
X1797666Y8028680D01*
X1797666Y8028680D02*
X1892904Y7981061D01*
X1892904Y7981061D02*
X1940523Y7933442D01*
X1940523Y7933442D02*
X1988142Y7838204D01*
X1988142Y7838204D02*
X2035761Y7647728D01*
X2035761Y7647728D02*
X2035761Y7409633D01*
X2035761Y7409633D02*
X1988142Y7219157D01*
X1988142Y7219157D02*
X1940523Y7123919D01*
X1940523Y7123919D02*
X1892904Y7076300D01*
X1892904Y7076300D02*
X1797666Y7028680D01*
X1797666Y7028680D02*
X1702428Y7028680D01*
X1702428Y7028680D02*
X1607190Y7076300D01*
X1607190Y7076300D02*
X1559571Y7123919D01*
X1559571Y7123919D02*
X1511952Y7219157D01*
X1511952Y7219157D02*
X1464333Y7409633D01*
X1464333Y7409633D02*
X1464333Y7647728D01*
X1464333Y7647728D02*
X1511952Y7838204D01*
X1511952Y7838204D02*
X1559571Y7933442D01*
X1559571Y7933442D02*
X1607190Y7981061D01*
X1607190Y7981061D02*
X1702428Y8028680D01*
X2654809Y8028680D02*
X2750047Y8028680D01*
X2750047Y8028680D02*
X2845285Y7981061D01*
X2845285Y7981061D02*
X2892904Y7933442D01*
X2892904Y7933442D02*
X2940523Y7838204D01*
X2940523Y7838204D02*
X2988142Y7647728D01*
X2988142Y7647728D02*
X2988142Y7409633D01*
X2988142Y7409633D02*
X2940523Y7219157D01*
X2940523Y7219157D02*
X2892904Y7123919D01*
X2892904Y7123919D02*
X2845285Y7076300D01*
X2845285Y7076300D02*
X2750047Y7028680D01*
X2750047Y7028680D02*
X2654809Y7028680D01*
X2654809Y7028680D02*
X2559571Y7076300D01*
X2559571Y7076300D02*
X2511952Y7123919D01*
X2511952Y7123919D02*
X2464333Y7219157D01*
X2464333Y7219157D02*
X2416714Y7409633D01*
X2416714Y7409633D02*
X2416714Y7647728D01*
X2416714Y7647728D02*
X2464333Y7838204D01*
X2464333Y7838204D02*
X2511952Y7933442D01*
X2511952Y7933442D02*
X2559571Y7981061D01*
X2559571Y7981061D02*
X2654809Y8028680D01*
X3416714Y7695347D02*
X3416714Y7028680D01*
X3416714Y7600109D02*
X3464333Y7647728D01*
X3464333Y7647728D02*
X3559571Y7695347D01*
X3559571Y7695347D02*
X3702428Y7695347D01*
X3702428Y7695347D02*
X3797666Y7647728D01*
X3797666Y7647728D02*
X3845285Y7552490D01*
X3845285Y7552490D02*
X3845285Y7028680D01*
X4654809Y7552490D02*
X4321476Y7552490D01*
X4321476Y7028680D02*
X4321476Y8028680D01*
X4321476Y8028680D02*
X4797666Y8028680D01*
D11*
X2470285Y8553734D02*
X2458381Y8541830D01*
X2458381Y8541830D02*
X2422666Y8529925D01*
X2422666Y8529925D02*
X2398857Y8529925D01*
X2398857Y8529925D02*
X2363143Y8541830D01*
X2363143Y8541830D02*
X2339333Y8565639D01*
X2339333Y8565639D02*
X2327428Y8589449D01*
X2327428Y8589449D02*
X2315524Y8637068D01*
X2315524Y8637068D02*
X2315524Y8672782D01*
X2315524Y8672782D02*
X2327428Y8720401D01*
X2327428Y8720401D02*
X2339333Y8744210D01*
X2339333Y8744210D02*
X2363143Y8768020D01*
X2363143Y8768020D02*
X2398857Y8779925D01*
X2398857Y8779925D02*
X2422666Y8779925D01*
X2422666Y8779925D02*
X2458381Y8768020D01*
X2458381Y8768020D02*
X2470285Y8756115D01*
X2708381Y8529925D02*
X2565524Y8529925D01*
X2636952Y8529925D02*
X2636952Y8779925D01*
X2636952Y8779925D02*
X2613143Y8744210D01*
X2613143Y8744210D02*
X2589333Y8720401D01*
X2589333Y8720401D02*
X2565524Y8708496D01*
X2946476Y8529925D02*
X2803619Y8529925D01*
X2875047Y8529925D02*
X2875047Y8779925D01*
X2875047Y8779925D02*
X2851238Y8744210D01*
X2851238Y8744210D02*
X2827428Y8720401D01*
X2827428Y8720401D02*
X2803619Y8708496D01*
D10*
X8452380Y10901680D02*
X7880952Y10901680D01*
X8166666Y10901680D02*
X8166666Y11901680D01*
X8166666Y11901680D02*
X8071428Y11758823D01*
X8071428Y11758823D02*
X7976190Y11663585D01*
X7976190Y11663585D02*
X7880952Y11615966D01*
X9071428Y11901680D02*
X9166666Y11901680D01*
X9166666Y11901680D02*
X9261904Y11854061D01*
X9261904Y11854061D02*
X9309523Y11806442D01*
X9309523Y11806442D02*
X9357142Y11711204D01*
X9357142Y11711204D02*
X9404761Y11520728D01*
X9404761Y11520728D02*
X9404761Y11282633D01*
X9404761Y11282633D02*
X9357142Y11092157D01*
X9357142Y11092157D02*
X9309523Y10996919D01*
X9309523Y10996919D02*
X9261904Y10949300D01*
X9261904Y10949300D02*
X9166666Y10901680D01*
X9166666Y10901680D02*
X9071428Y10901680D01*
X9071428Y10901680D02*
X8976190Y10949300D01*
X8976190Y10949300D02*
X8928571Y10996919D01*
X8928571Y10996919D02*
X8880952Y11092157D01*
X8880952Y11092157D02*
X8833333Y11282633D01*
X8833333Y11282633D02*
X8833333Y11520728D01*
X8833333Y11520728D02*
X8880952Y11711204D01*
X8880952Y11711204D02*
X8928571Y11806442D01*
X8928571Y11806442D02*
X8976190Y11854061D01*
X8976190Y11854061D02*
X9071428Y11901680D01*
X10023809Y11901680D02*
X10119047Y11901680D01*
X10119047Y11901680D02*
X10214285Y11854061D01*
X10214285Y11854061D02*
X10261904Y11806442D01*
X10261904Y11806442D02*
X10309523Y11711204D01*
X10309523Y11711204D02*
X10357142Y11520728D01*
X10357142Y11520728D02*
X10357142Y11282633D01*
X10357142Y11282633D02*
X10309523Y11092157D01*
X10309523Y11092157D02*
X10261904Y10996919D01*
X10261904Y10996919D02*
X10214285Y10949300D01*
X10214285Y10949300D02*
X10119047Y10901680D01*
X10119047Y10901680D02*
X10023809Y10901680D01*
X10023809Y10901680D02*
X9928571Y10949300D01*
X9928571Y10949300D02*
X9880952Y10996919D01*
X9880952Y10996919D02*
X9833333Y11092157D01*
X9833333Y11092157D02*
X9785714Y11282633D01*
X9785714Y11282633D02*
X9785714Y11520728D01*
X9785714Y11520728D02*
X9833333Y11711204D01*
X9833333Y11711204D02*
X9880952Y11806442D01*
X9880952Y11806442D02*
X9928571Y11854061D01*
X9928571Y11854061D02*
X10023809Y11901680D01*
X10785714Y11568347D02*
X10785714Y10901680D01*
X10785714Y11473109D02*
X10833333Y11520728D01*
X10833333Y11520728D02*
X10928571Y11568347D01*
X10928571Y11568347D02*
X11071428Y11568347D01*
X11071428Y11568347D02*
X11166666Y11520728D01*
X11166666Y11520728D02*
X11214285Y11425490D01*
X11214285Y11425490D02*
X11214285Y10901680D01*
X12023809Y11425490D02*
X11690476Y11425490D01*
X11690476Y10901680D02*
X11690476Y11901680D01*
X11690476Y11901680D02*
X12166666Y11901680D01*
D11*
X9839285Y12426734D02*
X9827381Y12414830D01*
X9827381Y12414830D02*
X9791666Y12402925D01*
X9791666Y12402925D02*
X9767857Y12402925D01*
X9767857Y12402925D02*
X9732143Y12414830D01*
X9732143Y12414830D02*
X9708333Y12438639D01*
X9708333Y12438639D02*
X9696428Y12462449D01*
X9696428Y12462449D02*
X9684524Y12510068D01*
X9684524Y12510068D02*
X9684524Y12545782D01*
X9684524Y12545782D02*
X9696428Y12593401D01*
X9696428Y12593401D02*
X9708333Y12617210D01*
X9708333Y12617210D02*
X9732143Y12641020D01*
X9732143Y12641020D02*
X9767857Y12652925D01*
X9767857Y12652925D02*
X9791666Y12652925D01*
X9791666Y12652925D02*
X9827381Y12641020D01*
X9827381Y12641020D02*
X9839285Y12629115D01*
X10077381Y12402925D02*
X9934524Y12402925D01*
X10005952Y12402925D02*
X10005952Y12652925D01*
X10005952Y12652925D02*
X9982143Y12617210D01*
X9982143Y12617210D02*
X9958333Y12593401D01*
X9958333Y12593401D02*
X9934524Y12581496D01*
X10172619Y12629115D02*
X10184523Y12641020D01*
X10184523Y12641020D02*
X10208333Y12652925D01*
X10208333Y12652925D02*
X10267857Y12652925D01*
X10267857Y12652925D02*
X10291666Y12641020D01*
X10291666Y12641020D02*
X10303571Y12629115D01*
X10303571Y12629115D02*
X10315476Y12605306D01*
X10315476Y12605306D02*
X10315476Y12581496D01*
X10315476Y12581496D02*
X10303571Y12545782D01*
X10303571Y12545782D02*
X10160714Y12402925D01*
X10160714Y12402925D02*
X10315476Y12402925D01*
D10*
X-9547619Y3385180D02*
X-10119047Y3385180D01*
X-9833333Y3385180D02*
X-9833333Y4385180D01*
X-9833333Y4385180D02*
X-9928571Y4242323D01*
X-9928571Y4242323D02*
X-10023809Y4147085D01*
X-10023809Y4147085D02*
X-10119047Y4099466D01*
X-8928571Y4385180D02*
X-8833333Y4385180D01*
X-8833333Y4385180D02*
X-8738095Y4337561D01*
X-8738095Y4337561D02*
X-8690476Y4289942D01*
X-8690476Y4289942D02*
X-8642857Y4194704D01*
X-8642857Y4194704D02*
X-8595238Y4004228D01*
X-8595238Y4004228D02*
X-8595238Y3766133D01*
X-8595238Y3766133D02*
X-8642857Y3575657D01*
X-8642857Y3575657D02*
X-8690476Y3480419D01*
X-8690476Y3480419D02*
X-8738095Y3432800D01*
X-8738095Y3432800D02*
X-8833333Y3385180D01*
X-8833333Y3385180D02*
X-8928571Y3385180D01*
X-8928571Y3385180D02*
X-9023809Y3432800D01*
X-9023809Y3432800D02*
X-9071428Y3480419D01*
X-9071428Y3480419D02*
X-9119047Y3575657D01*
X-9119047Y3575657D02*
X-9166666Y3766133D01*
X-9166666Y3766133D02*
X-9166666Y4004228D01*
X-9166666Y4004228D02*
X-9119047Y4194704D01*
X-9119047Y4194704D02*
X-9071428Y4289942D01*
X-9071428Y4289942D02*
X-9023809Y4337561D01*
X-9023809Y4337561D02*
X-8928571Y4385180D01*
X-7976190Y4385180D02*
X-7880952Y4385180D01*
X-7880952Y4385180D02*
X-7785714Y4337561D01*
X-7785714Y4337561D02*
X-7738095Y4289942D01*
X-7738095Y4289942D02*
X-7690476Y4194704D01*
X-7690476Y4194704D02*
X-7642857Y4004228D01*
X-7642857Y4004228D02*
X-7642857Y3766133D01*
X-7642857Y3766133D02*
X-7690476Y3575657D01*
X-7690476Y3575657D02*
X-7738095Y3480419D01*
X-7738095Y3480419D02*
X-7785714Y3432800D01*
X-7785714Y3432800D02*
X-7880952Y3385180D01*
X-7880952Y3385180D02*
X-7976190Y3385180D01*
X-7976190Y3385180D02*
X-8071428Y3432800D01*
X-8071428Y3432800D02*
X-8119047Y3480419D01*
X-8119047Y3480419D02*
X-8166666Y3575657D01*
X-8166666Y3575657D02*
X-8214285Y3766133D01*
X-8214285Y3766133D02*
X-8214285Y4004228D01*
X-8214285Y4004228D02*
X-8166666Y4194704D01*
X-8166666Y4194704D02*
X-8119047Y4289942D01*
X-8119047Y4289942D02*
X-8071428Y4337561D01*
X-8071428Y4337561D02*
X-7976190Y4385180D01*
X-7214285Y4051847D02*
X-7214285Y3385180D01*
X-7214285Y3956609D02*
X-7166666Y4004228D01*
X-7166666Y4004228D02*
X-7071428Y4051847D01*
X-7071428Y4051847D02*
X-6928571Y4051847D01*
X-6928571Y4051847D02*
X-6833333Y4004228D01*
X-6833333Y4004228D02*
X-6785714Y3908990D01*
X-6785714Y3908990D02*
X-6785714Y3385180D01*
X-5976190Y3908990D02*
X-6309523Y3908990D01*
X-6309523Y3385180D02*
X-6309523Y4385180D01*
X-6309523Y4385180D02*
X-5833333Y4385180D01*
D11*
X-8041666Y4910234D02*
X-8053570Y4898330D01*
X-8053570Y4898330D02*
X-8089285Y4886425D01*
X-8089285Y4886425D02*
X-8113094Y4886425D01*
X-8113094Y4886425D02*
X-8148808Y4898330D01*
X-8148808Y4898330D02*
X-8172618Y4922139D01*
X-8172618Y4922139D02*
X-8184523Y4945949D01*
X-8184523Y4945949D02*
X-8196427Y4993568D01*
X-8196427Y4993568D02*
X-8196427Y5029282D01*
X-8196427Y5029282D02*
X-8184523Y5076901D01*
X-8184523Y5076901D02*
X-8172618Y5100710D01*
X-8172618Y5100710D02*
X-8148808Y5124520D01*
X-8148808Y5124520D02*
X-8113094Y5136425D01*
X-8113094Y5136425D02*
X-8089285Y5136425D01*
X-8089285Y5136425D02*
X-8053570Y5124520D01*
X-8053570Y5124520D02*
X-8041666Y5112615D01*
X-7803570Y4886425D02*
X-7946427Y4886425D01*
X-7874999Y4886425D02*
X-7874999Y5136425D01*
X-7874999Y5136425D02*
X-7898808Y5100710D01*
X-7898808Y5100710D02*
X-7922618Y5076901D01*
X-7922618Y5076901D02*
X-7946427Y5064996D01*
D10*
X20452380Y-2456519D02*
X19880952Y-2456519D01*
X20166666Y-2456519D02*
X20166666Y-1456519D01*
X20166666Y-1456519D02*
X20071428Y-1599376D01*
X20071428Y-1599376D02*
X19976190Y-1694614D01*
X19976190Y-1694614D02*
X19880952Y-1742233D01*
X21071428Y-1456519D02*
X21166666Y-1456519D01*
X21166666Y-1456519D02*
X21261904Y-1504138D01*
X21261904Y-1504138D02*
X21309523Y-1551757D01*
X21309523Y-1551757D02*
X21357142Y-1646995D01*
X21357142Y-1646995D02*
X21404761Y-1837471D01*
X21404761Y-1837471D02*
X21404761Y-2075566D01*
X21404761Y-2075566D02*
X21357142Y-2266042D01*
X21357142Y-2266042D02*
X21309523Y-2361280D01*
X21309523Y-2361280D02*
X21261904Y-2408900D01*
X21261904Y-2408900D02*
X21166666Y-2456519D01*
X21166666Y-2456519D02*
X21071428Y-2456519D01*
X21071428Y-2456519D02*
X20976190Y-2408900D01*
X20976190Y-2408900D02*
X20928571Y-2361280D01*
X20928571Y-2361280D02*
X20880952Y-2266042D01*
X20880952Y-2266042D02*
X20833333Y-2075566D01*
X20833333Y-2075566D02*
X20833333Y-1837471D01*
X20833333Y-1837471D02*
X20880952Y-1646995D01*
X20880952Y-1646995D02*
X20928571Y-1551757D01*
X20928571Y-1551757D02*
X20976190Y-1504138D01*
X20976190Y-1504138D02*
X21071428Y-1456519D01*
X22023809Y-1456519D02*
X22119047Y-1456519D01*
X22119047Y-1456519D02*
X22214285Y-1504138D01*
X22214285Y-1504138D02*
X22261904Y-1551757D01*
X22261904Y-1551757D02*
X22309523Y-1646995D01*
X22309523Y-1646995D02*
X22357142Y-1837471D01*
X22357142Y-1837471D02*
X22357142Y-2075566D01*
X22357142Y-2075566D02*
X22309523Y-2266042D01*
X22309523Y-2266042D02*
X22261904Y-2361280D01*
X22261904Y-2361280D02*
X22214285Y-2408900D01*
X22214285Y-2408900D02*
X22119047Y-2456519D01*
X22119047Y-2456519D02*
X22023809Y-2456519D01*
X22023809Y-2456519D02*
X21928571Y-2408900D01*
X21928571Y-2408900D02*
X21880952Y-2361280D01*
X21880952Y-2361280D02*
X21833333Y-2266042D01*
X21833333Y-2266042D02*
X21785714Y-2075566D01*
X21785714Y-2075566D02*
X21785714Y-1837471D01*
X21785714Y-1837471D02*
X21833333Y-1646995D01*
X21833333Y-1646995D02*
X21880952Y-1551757D01*
X21880952Y-1551757D02*
X21928571Y-1504138D01*
X21928571Y-1504138D02*
X22023809Y-1456519D01*
X22785714Y-1789852D02*
X22785714Y-2456519D01*
X22785714Y-1885090D02*
X22833333Y-1837471D01*
X22833333Y-1837471D02*
X22928571Y-1789852D01*
X22928571Y-1789852D02*
X23071428Y-1789852D01*
X23071428Y-1789852D02*
X23166666Y-1837471D01*
X23166666Y-1837471D02*
X23214285Y-1932709D01*
X23214285Y-1932709D02*
X23214285Y-2456519D01*
X24023809Y-1932709D02*
X23690476Y-1932709D01*
X23690476Y-2456519D02*
X23690476Y-1456519D01*
X23690476Y-1456519D02*
X24166666Y-1456519D01*
D11*
X21958333Y-931465D02*
X21946429Y-943370D01*
X21946429Y-943370D02*
X21910714Y-955274D01*
X21910714Y-955274D02*
X21886905Y-955274D01*
X21886905Y-955274D02*
X21851191Y-943370D01*
X21851191Y-943370D02*
X21827381Y-919560D01*
X21827381Y-919560D02*
X21815476Y-895750D01*
X21815476Y-895750D02*
X21803572Y-848131D01*
X21803572Y-848131D02*
X21803572Y-812417D01*
X21803572Y-812417D02*
X21815476Y-764798D01*
X21815476Y-764798D02*
X21827381Y-740989D01*
X21827381Y-740989D02*
X21851191Y-717179D01*
X21851191Y-717179D02*
X21886905Y-705274D01*
X21886905Y-705274D02*
X21910714Y-705274D01*
X21910714Y-705274D02*
X21946429Y-717179D01*
X21946429Y-717179D02*
X21958333Y-729084D01*
X22077381Y-955274D02*
X22125000Y-955274D01*
X22125000Y-955274D02*
X22148810Y-943370D01*
X22148810Y-943370D02*
X22160714Y-931465D01*
X22160714Y-931465D02*
X22184524Y-895750D01*
X22184524Y-895750D02*
X22196429Y-848131D01*
X22196429Y-848131D02*
X22196429Y-752893D01*
X22196429Y-752893D02*
X22184524Y-729084D01*
X22184524Y-729084D02*
X22172619Y-717179D01*
X22172619Y-717179D02*
X22148810Y-705274D01*
X22148810Y-705274D02*
X22101191Y-705274D01*
X22101191Y-705274D02*
X22077381Y-717179D01*
X22077381Y-717179D02*
X22065476Y-729084D01*
X22065476Y-729084D02*
X22053572Y-752893D01*
X22053572Y-752893D02*
X22053572Y-812417D01*
X22053572Y-812417D02*
X22065476Y-836227D01*
X22065476Y-836227D02*
X22077381Y-848131D01*
X22077381Y-848131D02*
X22101191Y-860036D01*
X22101191Y-860036D02*
X22148810Y-860036D01*
X22148810Y-860036D02*
X22172619Y-848131D01*
X22172619Y-848131D02*
X22184524Y-836227D01*
X22184524Y-836227D02*
X22196429Y-812417D01*
D10*
X13452380Y-4954819D02*
X12880952Y-4954819D01*
X13166666Y-4954819D02*
X13166666Y-3954819D01*
X13166666Y-3954819D02*
X13071428Y-4097676D01*
X13071428Y-4097676D02*
X12976190Y-4192914D01*
X12976190Y-4192914D02*
X12880952Y-4240533D01*
X14071428Y-3954819D02*
X14166666Y-3954819D01*
X14166666Y-3954819D02*
X14261904Y-4002438D01*
X14261904Y-4002438D02*
X14309523Y-4050057D01*
X14309523Y-4050057D02*
X14357142Y-4145295D01*
X14357142Y-4145295D02*
X14404761Y-4335771D01*
X14404761Y-4335771D02*
X14404761Y-4573866D01*
X14404761Y-4573866D02*
X14357142Y-4764342D01*
X14357142Y-4764342D02*
X14309523Y-4859580D01*
X14309523Y-4859580D02*
X14261904Y-4907200D01*
X14261904Y-4907200D02*
X14166666Y-4954819D01*
X14166666Y-4954819D02*
X14071428Y-4954819D01*
X14071428Y-4954819D02*
X13976190Y-4907200D01*
X13976190Y-4907200D02*
X13928571Y-4859580D01*
X13928571Y-4859580D02*
X13880952Y-4764342D01*
X13880952Y-4764342D02*
X13833333Y-4573866D01*
X13833333Y-4573866D02*
X13833333Y-4335771D01*
X13833333Y-4335771D02*
X13880952Y-4145295D01*
X13880952Y-4145295D02*
X13928571Y-4050057D01*
X13928571Y-4050057D02*
X13976190Y-4002438D01*
X13976190Y-4002438D02*
X14071428Y-3954819D01*
X15023809Y-3954819D02*
X15119047Y-3954819D01*
X15119047Y-3954819D02*
X15214285Y-4002438D01*
X15214285Y-4002438D02*
X15261904Y-4050057D01*
X15261904Y-4050057D02*
X15309523Y-4145295D01*
X15309523Y-4145295D02*
X15357142Y-4335771D01*
X15357142Y-4335771D02*
X15357142Y-4573866D01*
X15357142Y-4573866D02*
X15309523Y-4764342D01*
X15309523Y-4764342D02*
X15261904Y-4859580D01*
X15261904Y-4859580D02*
X15214285Y-4907200D01*
X15214285Y-4907200D02*
X15119047Y-4954819D01*
X15119047Y-4954819D02*
X15023809Y-4954819D01*
X15023809Y-4954819D02*
X14928571Y-4907200D01*
X14928571Y-4907200D02*
X14880952Y-4859580D01*
X14880952Y-4859580D02*
X14833333Y-4764342D01*
X14833333Y-4764342D02*
X14785714Y-4573866D01*
X14785714Y-4573866D02*
X14785714Y-4335771D01*
X14785714Y-4335771D02*
X14833333Y-4145295D01*
X14833333Y-4145295D02*
X14880952Y-4050057D01*
X14880952Y-4050057D02*
X14928571Y-4002438D01*
X14928571Y-4002438D02*
X15023809Y-3954819D01*
X15785714Y-4288152D02*
X15785714Y-4954819D01*
X15785714Y-4383390D02*
X15833333Y-4335771D01*
X15833333Y-4335771D02*
X15928571Y-4288152D01*
X15928571Y-4288152D02*
X16071428Y-4288152D01*
X16071428Y-4288152D02*
X16166666Y-4335771D01*
X16166666Y-4335771D02*
X16214285Y-4431009D01*
X16214285Y-4431009D02*
X16214285Y-4954819D01*
X17023809Y-4431009D02*
X16690476Y-4431009D01*
X16690476Y-4954819D02*
X16690476Y-3954819D01*
X16690476Y-3954819D02*
X17166666Y-3954819D01*
D11*
X14958333Y-3429765D02*
X14946429Y-3441670D01*
X14946429Y-3441670D02*
X14910714Y-3453574D01*
X14910714Y-3453574D02*
X14886905Y-3453574D01*
X14886905Y-3453574D02*
X14851191Y-3441670D01*
X14851191Y-3441670D02*
X14827381Y-3417860D01*
X14827381Y-3417860D02*
X14815476Y-3394050D01*
X14815476Y-3394050D02*
X14803572Y-3346431D01*
X14803572Y-3346431D02*
X14803572Y-3310717D01*
X14803572Y-3310717D02*
X14815476Y-3263098D01*
X14815476Y-3263098D02*
X14827381Y-3239289D01*
X14827381Y-3239289D02*
X14851191Y-3215479D01*
X14851191Y-3215479D02*
X14886905Y-3203574D01*
X14886905Y-3203574D02*
X14910714Y-3203574D01*
X14910714Y-3203574D02*
X14946429Y-3215479D01*
X14946429Y-3215479D02*
X14958333Y-3227384D01*
X15041667Y-3203574D02*
X15208333Y-3203574D01*
X15208333Y-3203574D02*
X15101191Y-3453574D01*
D10*
X20452380Y2059980D02*
X19880952Y2059980D01*
X20166666Y2059980D02*
X20166666Y3059980D01*
X20166666Y3059980D02*
X20071428Y2917123D01*
X20071428Y2917123D02*
X19976190Y2821885D01*
X19976190Y2821885D02*
X19880952Y2774266D01*
X21071428Y3059980D02*
X21166666Y3059980D01*
X21166666Y3059980D02*
X21261904Y3012361D01*
X21261904Y3012361D02*
X21309523Y2964742D01*
X21309523Y2964742D02*
X21357142Y2869504D01*
X21357142Y2869504D02*
X21404761Y2679028D01*
X21404761Y2679028D02*
X21404761Y2440933D01*
X21404761Y2440933D02*
X21357142Y2250457D01*
X21357142Y2250457D02*
X21309523Y2155219D01*
X21309523Y2155219D02*
X21261904Y2107600D01*
X21261904Y2107600D02*
X21166666Y2059980D01*
X21166666Y2059980D02*
X21071428Y2059980D01*
X21071428Y2059980D02*
X20976190Y2107600D01*
X20976190Y2107600D02*
X20928571Y2155219D01*
X20928571Y2155219D02*
X20880952Y2250457D01*
X20880952Y2250457D02*
X20833333Y2440933D01*
X20833333Y2440933D02*
X20833333Y2679028D01*
X20833333Y2679028D02*
X20880952Y2869504D01*
X20880952Y2869504D02*
X20928571Y2964742D01*
X20928571Y2964742D02*
X20976190Y3012361D01*
X20976190Y3012361D02*
X21071428Y3059980D01*
X22023809Y3059980D02*
X22119047Y3059980D01*
X22119047Y3059980D02*
X22214285Y3012361D01*
X22214285Y3012361D02*
X22261904Y2964742D01*
X22261904Y2964742D02*
X22309523Y2869504D01*
X22309523Y2869504D02*
X22357142Y2679028D01*
X22357142Y2679028D02*
X22357142Y2440933D01*
X22357142Y2440933D02*
X22309523Y2250457D01*
X22309523Y2250457D02*
X22261904Y2155219D01*
X22261904Y2155219D02*
X22214285Y2107600D01*
X22214285Y2107600D02*
X22119047Y2059980D01*
X22119047Y2059980D02*
X22023809Y2059980D01*
X22023809Y2059980D02*
X21928571Y2107600D01*
X21928571Y2107600D02*
X21880952Y2155219D01*
X21880952Y2155219D02*
X21833333Y2250457D01*
X21833333Y2250457D02*
X21785714Y2440933D01*
X21785714Y2440933D02*
X21785714Y2679028D01*
X21785714Y2679028D02*
X21833333Y2869504D01*
X21833333Y2869504D02*
X21880952Y2964742D01*
X21880952Y2964742D02*
X21928571Y3012361D01*
X21928571Y3012361D02*
X22023809Y3059980D01*
X22785714Y2726647D02*
X22785714Y2059980D01*
X22785714Y2631409D02*
X22833333Y2679028D01*
X22833333Y2679028D02*
X22928571Y2726647D01*
X22928571Y2726647D02*
X23071428Y2726647D01*
X23071428Y2726647D02*
X23166666Y2679028D01*
X23166666Y2679028D02*
X23214285Y2583790D01*
X23214285Y2583790D02*
X23214285Y2059980D01*
X24023809Y2583790D02*
X23690476Y2583790D01*
X23690476Y2059980D02*
X23690476Y3059980D01*
X23690476Y3059980D02*
X24166666Y3059980D01*
D11*
X21958333Y3585034D02*
X21946429Y3573130D01*
X21946429Y3573130D02*
X21910714Y3561225D01*
X21910714Y3561225D02*
X21886905Y3561225D01*
X21886905Y3561225D02*
X21851191Y3573130D01*
X21851191Y3573130D02*
X21827381Y3596939D01*
X21827381Y3596939D02*
X21815476Y3620749D01*
X21815476Y3620749D02*
X21803572Y3668368D01*
X21803572Y3668368D02*
X21803572Y3704082D01*
X21803572Y3704082D02*
X21815476Y3751701D01*
X21815476Y3751701D02*
X21827381Y3775510D01*
X21827381Y3775510D02*
X21851191Y3799320D01*
X21851191Y3799320D02*
X21886905Y3811225D01*
X21886905Y3811225D02*
X21910714Y3811225D01*
X21910714Y3811225D02*
X21946429Y3799320D01*
X21946429Y3799320D02*
X21958333Y3787415D01*
X22101191Y3704082D02*
X22077381Y3715987D01*
X22077381Y3715987D02*
X22065476Y3727891D01*
X22065476Y3727891D02*
X22053572Y3751701D01*
X22053572Y3751701D02*
X22053572Y3763606D01*
X22053572Y3763606D02*
X22065476Y3787415D01*
X22065476Y3787415D02*
X22077381Y3799320D01*
X22077381Y3799320D02*
X22101191Y3811225D01*
X22101191Y3811225D02*
X22148810Y3811225D01*
X22148810Y3811225D02*
X22172619Y3799320D01*
X22172619Y3799320D02*
X22184524Y3787415D01*
X22184524Y3787415D02*
X22196429Y3763606D01*
X22196429Y3763606D02*
X22196429Y3751701D01*
X22196429Y3751701D02*
X22184524Y3727891D01*
X22184524Y3727891D02*
X22172619Y3715987D01*
X22172619Y3715987D02*
X22148810Y3704082D01*
X22148810Y3704082D02*
X22101191Y3704082D01*
X22101191Y3704082D02*
X22077381Y3692177D01*
X22077381Y3692177D02*
X22065476Y3680272D01*
X22065476Y3680272D02*
X22053572Y3656463D01*
X22053572Y3656463D02*
X22053572Y3608844D01*
X22053572Y3608844D02*
X22065476Y3585034D01*
X22065476Y3585034D02*
X22077381Y3573130D01*
X22077381Y3573130D02*
X22101191Y3561225D01*
X22101191Y3561225D02*
X22148810Y3561225D01*
X22148810Y3561225D02*
X22172619Y3573130D01*
X22172619Y3573130D02*
X22184524Y3585034D01*
X22184524Y3585034D02*
X22196429Y3608844D01*
X22196429Y3608844D02*
X22196429Y3656463D01*
X22196429Y3656463D02*
X22184524Y3680272D01*
X22184524Y3680272D02*
X22172619Y3692177D01*
X22172619Y3692177D02*
X22148810Y3704082D01*
D10*
X-33261904Y-27454819D02*
X-32690476Y-27454819D01*
X-32976190Y-28454819D02*
X-32976190Y-27454819D01*
X-32357142Y-28454819D02*
X-32357142Y-27454819D01*
X-32357142Y-27454819D02*
X-32023809Y-28169104D01*
X-32023809Y-28169104D02*
X-31690476Y-27454819D01*
X-31690476Y-27454819D02*
X-31690476Y-28454819D01*
X-30642857Y-28454819D02*
X-30976190Y-27978628D01*
X-31214285Y-28454819D02*
X-31214285Y-27454819D01*
X-31214285Y-27454819D02*
X-30833333Y-27454819D01*
X-30833333Y-27454819D02*
X-30738095Y-27502438D01*
X-30738095Y-27502438D02*
X-30690476Y-27550057D01*
X-30690476Y-27550057D02*
X-30642857Y-27645295D01*
X-30642857Y-27645295D02*
X-30642857Y-27788152D01*
X-30642857Y-27788152D02*
X-30690476Y-27883390D01*
X-30690476Y-27883390D02*
X-30738095Y-27931009D01*
X-30738095Y-27931009D02*
X-30833333Y-27978628D01*
X-30833333Y-27978628D02*
X-31214285Y-27978628D01*
X-30261904Y-27550057D02*
X-30214285Y-27502438D01*
X-30214285Y-27502438D02*
X-30119047Y-27454819D01*
X-30119047Y-27454819D02*
X-29880952Y-27454819D01*
X-29880952Y-27454819D02*
X-29785714Y-27502438D01*
X-29785714Y-27502438D02*
X-29738095Y-27550057D01*
X-29738095Y-27550057D02*
X-29690476Y-27645295D01*
X-29690476Y-27645295D02*
X-29690476Y-27740533D01*
X-29690476Y-27740533D02*
X-29738095Y-27883390D01*
X-29738095Y-27883390D02*
X-30309523Y-28454819D01*
X-30309523Y-28454819D02*
X-29690476Y-28454819D01*
X-29357142Y-27454819D02*
X-28738095Y-27454819D01*
X-28738095Y-27454819D02*
X-29071428Y-27835771D01*
X-29071428Y-27835771D02*
X-28928571Y-27835771D01*
X-28928571Y-27835771D02*
X-28833333Y-27883390D01*
X-28833333Y-27883390D02*
X-28785714Y-27931009D01*
X-28785714Y-27931009D02*
X-28738095Y-28026247D01*
X-28738095Y-28026247D02*
X-28738095Y-28264342D01*
X-28738095Y-28264342D02*
X-28785714Y-28359580D01*
X-28785714Y-28359580D02*
X-28833333Y-28407200D01*
X-28833333Y-28407200D02*
X-28928571Y-28454819D01*
X-28928571Y-28454819D02*
X-29214285Y-28454819D01*
X-29214285Y-28454819D02*
X-29309523Y-28407200D01*
X-29309523Y-28407200D02*
X-29357142Y-28359580D01*
X-28119047Y-27454819D02*
X-28023809Y-27454819D01*
X-28023809Y-27454819D02*
X-27928571Y-27502438D01*
X-27928571Y-27502438D02*
X-27880952Y-27550057D01*
X-27880952Y-27550057D02*
X-27833333Y-27645295D01*
X-27833333Y-27645295D02*
X-27785714Y-27835771D01*
X-27785714Y-27835771D02*
X-27785714Y-28073866D01*
X-27785714Y-28073866D02*
X-27833333Y-28264342D01*
X-27833333Y-28264342D02*
X-27880952Y-28359580D01*
X-27880952Y-28359580D02*
X-27928571Y-28407200D01*
X-27928571Y-28407200D02*
X-28023809Y-28454819D01*
X-28023809Y-28454819D02*
X-28119047Y-28454819D01*
X-28119047Y-28454819D02*
X-28214285Y-28407200D01*
X-28214285Y-28407200D02*
X-28261904Y-28359580D01*
X-28261904Y-28359580D02*
X-28309523Y-28264342D01*
X-28309523Y-28264342D02*
X-28357142Y-28073866D01*
X-28357142Y-28073866D02*
X-28357142Y-27835771D01*
X-28357142Y-27835771D02*
X-28309523Y-27645295D01*
X-28309523Y-27645295D02*
X-28261904Y-27550057D01*
X-28261904Y-27550057D02*
X-28214285Y-27502438D01*
X-28214285Y-27502438D02*
X-28119047Y-27454819D01*
X-26880952Y-27454819D02*
X-27357142Y-27454819D01*
X-27357142Y-27454819D02*
X-27404761Y-27931009D01*
X-27404761Y-27931009D02*
X-27357142Y-27883390D01*
X-27357142Y-27883390D02*
X-27261904Y-27835771D01*
X-27261904Y-27835771D02*
X-27023809Y-27835771D01*
X-27023809Y-27835771D02*
X-26928571Y-27883390D01*
X-26928571Y-27883390D02*
X-26880952Y-27931009D01*
X-26880952Y-27931009D02*
X-26833333Y-28026247D01*
X-26833333Y-28026247D02*
X-26833333Y-28264342D01*
X-26833333Y-28264342D02*
X-26880952Y-28359580D01*
X-26880952Y-28359580D02*
X-26928571Y-28407200D01*
X-26928571Y-28407200D02*
X-27023809Y-28454819D01*
X-27023809Y-28454819D02*
X-27261904Y-28454819D01*
X-27261904Y-28454819D02*
X-27357142Y-28407200D01*
X-27357142Y-28407200D02*
X-27404761Y-28359580D01*
X-3261904Y-32454819D02*
X-2690476Y-32454819D01*
X-2976190Y-33454819D02*
X-2976190Y-32454819D01*
X-2357142Y-33454819D02*
X-2357142Y-32454819D01*
X-2357142Y-32454819D02*
X-2023809Y-33169104D01*
X-2023809Y-33169104D02*
X-1690476Y-32454819D01*
X-1690476Y-32454819D02*
X-1690476Y-33454819D01*
X-642857Y-33454819D02*
X-976190Y-32978628D01*
X-1214285Y-33454819D02*
X-1214285Y-32454819D01*
X-1214285Y-32454819D02*
X-833333Y-32454819D01*
X-833333Y-32454819D02*
X-738095Y-32502438D01*
X-738095Y-32502438D02*
X-690476Y-32550057D01*
X-690476Y-32550057D02*
X-642857Y-32645295D01*
X-642857Y-32645295D02*
X-642857Y-32788152D01*
X-642857Y-32788152D02*
X-690476Y-32883390D01*
X-690476Y-32883390D02*
X-738095Y-32931009D01*
X-738095Y-32931009D02*
X-833333Y-32978628D01*
X-833333Y-32978628D02*
X-1214285Y-32978628D01*
X-261904Y-32550057D02*
X-214285Y-32502438D01*
X-214285Y-32502438D02*
X-119047Y-32454819D01*
X-119047Y-32454819D02*
X119047Y-32454819D01*
X119047Y-32454819D02*
X214285Y-32502438D01*
X214285Y-32502438D02*
X261904Y-32550057D01*
X261904Y-32550057D02*
X309523Y-32645295D01*
X309523Y-32645295D02*
X309523Y-32740533D01*
X309523Y-32740533D02*
X261904Y-32883390D01*
X261904Y-32883390D02*
X-309523Y-33454819D01*
X-309523Y-33454819D02*
X309523Y-33454819D01*
X642857Y-32454819D02*
X1261904Y-32454819D01*
X1261904Y-32454819D02*
X928571Y-32835771D01*
X928571Y-32835771D02*
X1071428Y-32835771D01*
X1071428Y-32835771D02*
X1166666Y-32883390D01*
X1166666Y-32883390D02*
X1214285Y-32931009D01*
X1214285Y-32931009D02*
X1261904Y-33026247D01*
X1261904Y-33026247D02*
X1261904Y-33264342D01*
X1261904Y-33264342D02*
X1214285Y-33359580D01*
X1214285Y-33359580D02*
X1166666Y-33407200D01*
X1166666Y-33407200D02*
X1071428Y-33454819D01*
X1071428Y-33454819D02*
X785714Y-33454819D01*
X785714Y-33454819D02*
X690476Y-33407200D01*
X690476Y-33407200D02*
X642857Y-33359580D01*
X1880952Y-32454819D02*
X1976190Y-32454819D01*
X1976190Y-32454819D02*
X2071428Y-32502438D01*
X2071428Y-32502438D02*
X2119047Y-32550057D01*
X2119047Y-32550057D02*
X2166666Y-32645295D01*
X2166666Y-32645295D02*
X2214285Y-32835771D01*
X2214285Y-32835771D02*
X2214285Y-33073866D01*
X2214285Y-33073866D02*
X2166666Y-33264342D01*
X2166666Y-33264342D02*
X2119047Y-33359580D01*
X2119047Y-33359580D02*
X2071428Y-33407200D01*
X2071428Y-33407200D02*
X1976190Y-33454819D01*
X1976190Y-33454819D02*
X1880952Y-33454819D01*
X1880952Y-33454819D02*
X1785714Y-33407200D01*
X1785714Y-33407200D02*
X1738095Y-33359580D01*
X1738095Y-33359580D02*
X1690476Y-33264342D01*
X1690476Y-33264342D02*
X1642857Y-33073866D01*
X1642857Y-33073866D02*
X1642857Y-32835771D01*
X1642857Y-32835771D02*
X1690476Y-32645295D01*
X1690476Y-32645295D02*
X1738095Y-32550057D01*
X1738095Y-32550057D02*
X1785714Y-32502438D01*
X1785714Y-32502438D02*
X1880952Y-32454819D01*
X3119047Y-32454819D02*
X2642857Y-32454819D01*
X2642857Y-32454819D02*
X2595238Y-32931009D01*
X2595238Y-32931009D02*
X2642857Y-32883390D01*
X2642857Y-32883390D02*
X2738095Y-32835771D01*
X2738095Y-32835771D02*
X2976190Y-32835771D01*
X2976190Y-32835771D02*
X3071428Y-32883390D01*
X3071428Y-32883390D02*
X3119047Y-32931009D01*
X3119047Y-32931009D02*
X3166666Y-33026247D01*
X3166666Y-33026247D02*
X3166666Y-33264342D01*
X3166666Y-33264342D02*
X3119047Y-33359580D01*
X3119047Y-33359580D02*
X3071428Y-33407200D01*
X3071428Y-33407200D02*
X2976190Y-33454819D01*
X2976190Y-33454819D02*
X2738095Y-33454819D01*
X2738095Y-33454819D02*
X2642857Y-33407200D01*
X2642857Y-33407200D02*
X2595238Y-33359580D01*
X26738095Y-27454819D02*
X27309523Y-27454819D01*
X27023809Y-28454819D02*
X27023809Y-27454819D01*
X27642857Y-28454819D02*
X27642857Y-27454819D01*
X27642857Y-27454819D02*
X27976190Y-28169104D01*
X27976190Y-28169104D02*
X28309523Y-27454819D01*
X28309523Y-27454819D02*
X28309523Y-28454819D01*
X29357142Y-28454819D02*
X29023809Y-27978628D01*
X28785714Y-28454819D02*
X28785714Y-27454819D01*
X28785714Y-27454819D02*
X29166666Y-27454819D01*
X29166666Y-27454819D02*
X29261904Y-27502438D01*
X29261904Y-27502438D02*
X29309523Y-27550057D01*
X29309523Y-27550057D02*
X29357142Y-27645295D01*
X29357142Y-27645295D02*
X29357142Y-27788152D01*
X29357142Y-27788152D02*
X29309523Y-27883390D01*
X29309523Y-27883390D02*
X29261904Y-27931009D01*
X29261904Y-27931009D02*
X29166666Y-27978628D01*
X29166666Y-27978628D02*
X28785714Y-27978628D01*
X29738095Y-27550057D02*
X29785714Y-27502438D01*
X29785714Y-27502438D02*
X29880952Y-27454819D01*
X29880952Y-27454819D02*
X30119047Y-27454819D01*
X30119047Y-27454819D02*
X30214285Y-27502438D01*
X30214285Y-27502438D02*
X30261904Y-27550057D01*
X30261904Y-27550057D02*
X30309523Y-27645295D01*
X30309523Y-27645295D02*
X30309523Y-27740533D01*
X30309523Y-27740533D02*
X30261904Y-27883390D01*
X30261904Y-27883390D02*
X29690476Y-28454819D01*
X29690476Y-28454819D02*
X30309523Y-28454819D01*
X30642857Y-27454819D02*
X31261904Y-27454819D01*
X31261904Y-27454819D02*
X30928571Y-27835771D01*
X30928571Y-27835771D02*
X31071428Y-27835771D01*
X31071428Y-27835771D02*
X31166666Y-27883390D01*
X31166666Y-27883390D02*
X31214285Y-27931009D01*
X31214285Y-27931009D02*
X31261904Y-28026247D01*
X31261904Y-28026247D02*
X31261904Y-28264342D01*
X31261904Y-28264342D02*
X31214285Y-28359580D01*
X31214285Y-28359580D02*
X31166666Y-28407200D01*
X31166666Y-28407200D02*
X31071428Y-28454819D01*
X31071428Y-28454819D02*
X30785714Y-28454819D01*
X30785714Y-28454819D02*
X30690476Y-28407200D01*
X30690476Y-28407200D02*
X30642857Y-28359580D01*
X31880952Y-27454819D02*
X31976190Y-27454819D01*
X31976190Y-27454819D02*
X32071428Y-27502438D01*
X32071428Y-27502438D02*
X32119047Y-27550057D01*
X32119047Y-27550057D02*
X32166666Y-27645295D01*
X32166666Y-27645295D02*
X32214285Y-27835771D01*
X32214285Y-27835771D02*
X32214285Y-28073866D01*
X32214285Y-28073866D02*
X32166666Y-28264342D01*
X32166666Y-28264342D02*
X32119047Y-28359580D01*
X32119047Y-28359580D02*
X32071428Y-28407200D01*
X32071428Y-28407200D02*
X31976190Y-28454819D01*
X31976190Y-28454819D02*
X31880952Y-28454819D01*
X31880952Y-28454819D02*
X31785714Y-28407200D01*
X31785714Y-28407200D02*
X31738095Y-28359580D01*
X31738095Y-28359580D02*
X31690476Y-28264342D01*
X31690476Y-28264342D02*
X31642857Y-28073866D01*
X31642857Y-28073866D02*
X31642857Y-27835771D01*
X31642857Y-27835771D02*
X31690476Y-27645295D01*
X31690476Y-27645295D02*
X31738095Y-27550057D01*
X31738095Y-27550057D02*
X31785714Y-27502438D01*
X31785714Y-27502438D02*
X31880952Y-27454819D01*
X33119047Y-27454819D02*
X32642857Y-27454819D01*
X32642857Y-27454819D02*
X32595238Y-27931009D01*
X32595238Y-27931009D02*
X32642857Y-27883390D01*
X32642857Y-27883390D02*
X32738095Y-27835771D01*
X32738095Y-27835771D02*
X32976190Y-27835771D01*
X32976190Y-27835771D02*
X33071428Y-27883390D01*
X33071428Y-27883390D02*
X33119047Y-27931009D01*
X33119047Y-27931009D02*
X33166666Y-28026247D01*
X33166666Y-28026247D02*
X33166666Y-28264342D01*
X33166666Y-28264342D02*
X33119047Y-28359580D01*
X33119047Y-28359580D02*
X33071428Y-28407200D01*
X33071428Y-28407200D02*
X32976190Y-28454819D01*
X32976190Y-28454819D02*
X32738095Y-28454819D01*
X32738095Y-28454819D02*
X32642857Y-28407200D01*
X32642857Y-28407200D02*
X32595238Y-28359580D01*
X28738095Y-2454819D02*
X29309523Y-2454819D01*
X29023809Y-3454819D02*
X29023809Y-2454819D01*
X29642857Y-3454819D02*
X29642857Y-2454819D01*
X29642857Y-2454819D02*
X29976190Y-3169104D01*
X29976190Y-3169104D02*
X30309523Y-2454819D01*
X30309523Y-2454819D02*
X30309523Y-3454819D01*
X31357142Y-3454819D02*
X31023809Y-2978628D01*
X30785714Y-3454819D02*
X30785714Y-2454819D01*
X30785714Y-2454819D02*
X31166666Y-2454819D01*
X31166666Y-2454819D02*
X31261904Y-2502438D01*
X31261904Y-2502438D02*
X31309523Y-2550057D01*
X31309523Y-2550057D02*
X31357142Y-2645295D01*
X31357142Y-2645295D02*
X31357142Y-2788152D01*
X31357142Y-2788152D02*
X31309523Y-2883390D01*
X31309523Y-2883390D02*
X31261904Y-2931009D01*
X31261904Y-2931009D02*
X31166666Y-2978628D01*
X31166666Y-2978628D02*
X30785714Y-2978628D01*
X31738095Y-2550057D02*
X31785714Y-2502438D01*
X31785714Y-2502438D02*
X31880952Y-2454819D01*
X31880952Y-2454819D02*
X32119047Y-2454819D01*
X32119047Y-2454819D02*
X32214285Y-2502438D01*
X32214285Y-2502438D02*
X32261904Y-2550057D01*
X32261904Y-2550057D02*
X32309523Y-2645295D01*
X32309523Y-2645295D02*
X32309523Y-2740533D01*
X32309523Y-2740533D02*
X32261904Y-2883390D01*
X32261904Y-2883390D02*
X31690476Y-3454819D01*
X31690476Y-3454819D02*
X32309523Y-3454819D01*
X32642857Y-2454819D02*
X33261904Y-2454819D01*
X33261904Y-2454819D02*
X32928571Y-2835771D01*
X32928571Y-2835771D02*
X33071428Y-2835771D01*
X33071428Y-2835771D02*
X33166666Y-2883390D01*
X33166666Y-2883390D02*
X33214285Y-2931009D01*
X33214285Y-2931009D02*
X33261904Y-3026247D01*
X33261904Y-3026247D02*
X33261904Y-3264342D01*
X33261904Y-3264342D02*
X33214285Y-3359580D01*
X33214285Y-3359580D02*
X33166666Y-3407200D01*
X33166666Y-3407200D02*
X33071428Y-3454819D01*
X33071428Y-3454819D02*
X32785714Y-3454819D01*
X32785714Y-3454819D02*
X32690476Y-3407200D01*
X32690476Y-3407200D02*
X32642857Y-3359580D01*
X33880952Y-2454819D02*
X33976190Y-2454819D01*
X33976190Y-2454819D02*
X34071428Y-2502438D01*
X34071428Y-2502438D02*
X34119047Y-2550057D01*
X34119047Y-2550057D02*
X34166666Y-2645295D01*
X34166666Y-2645295D02*
X34214285Y-2835771D01*
X34214285Y-2835771D02*
X34214285Y-3073866D01*
X34214285Y-3073866D02*
X34166666Y-3264342D01*
X34166666Y-3264342D02*
X34119047Y-3359580D01*
X34119047Y-3359580D02*
X34071428Y-3407200D01*
X34071428Y-3407200D02*
X33976190Y-3454819D01*
X33976190Y-3454819D02*
X33880952Y-3454819D01*
X33880952Y-3454819D02*
X33785714Y-3407200D01*
X33785714Y-3407200D02*
X33738095Y-3359580D01*
X33738095Y-3359580D02*
X33690476Y-3264342D01*
X33690476Y-3264342D02*
X33642857Y-3073866D01*
X33642857Y-3073866D02*
X33642857Y-2835771D01*
X33642857Y-2835771D02*
X33690476Y-2645295D01*
X33690476Y-2645295D02*
X33738095Y-2550057D01*
X33738095Y-2550057D02*
X33785714Y-2502438D01*
X33785714Y-2502438D02*
X33880952Y-2454819D01*
X35119047Y-2454819D02*
X34642857Y-2454819D01*
X34642857Y-2454819D02*
X34595238Y-2931009D01*
X34595238Y-2931009D02*
X34642857Y-2883390D01*
X34642857Y-2883390D02*
X34738095Y-2835771D01*
X34738095Y-2835771D02*
X34976190Y-2835771D01*
X34976190Y-2835771D02*
X35071428Y-2883390D01*
X35071428Y-2883390D02*
X35119047Y-2931009D01*
X35119047Y-2931009D02*
X35166666Y-3026247D01*
X35166666Y-3026247D02*
X35166666Y-3264342D01*
X35166666Y-3264342D02*
X35119047Y-3359580D01*
X35119047Y-3359580D02*
X35071428Y-3407200D01*
X35071428Y-3407200D02*
X34976190Y-3454819D01*
X34976190Y-3454819D02*
X34738095Y-3454819D01*
X34738095Y-3454819D02*
X34642857Y-3407200D01*
X34642857Y-3407200D02*
X34595238Y-3359580D01*
X-27833333Y21568990D02*
X-27690476Y21521371D01*
X-27690476Y21521371D02*
X-27642857Y21473752D01*
X-27642857Y21473752D02*
X-27595238Y21378514D01*
X-27595238Y21378514D02*
X-27595238Y21235657D01*
X-27595238Y21235657D02*
X-27642857Y21140419D01*
X-27642857Y21140419D02*
X-27690476Y21092800D01*
X-27690476Y21092800D02*
X-27785714Y21045180D01*
X-27785714Y21045180D02*
X-28166666Y21045180D01*
X-28166666Y21045180D02*
X-28166666Y22045180D01*
X-28166666Y22045180D02*
X-27833333Y22045180D01*
X-27833333Y22045180D02*
X-27738095Y21997561D01*
X-27738095Y21997561D02*
X-27690476Y21949942D01*
X-27690476Y21949942D02*
X-27642857Y21854704D01*
X-27642857Y21854704D02*
X-27642857Y21759466D01*
X-27642857Y21759466D02*
X-27690476Y21664228D01*
X-27690476Y21664228D02*
X-27738095Y21616609D01*
X-27738095Y21616609D02*
X-27833333Y21568990D01*
X-27833333Y21568990D02*
X-28166666Y21568990D01*
X-26500000Y20949942D02*
X-26595238Y20997561D01*
X-26595238Y20997561D02*
X-26690476Y21092800D01*
X-26690476Y21092800D02*
X-26833333Y21235657D01*
X-26833333Y21235657D02*
X-26928571Y21283276D01*
X-26928571Y21283276D02*
X-27023809Y21283276D01*
X-26976190Y21045180D02*
X-27071428Y21092800D01*
X-27071428Y21092800D02*
X-27166666Y21188038D01*
X-27166666Y21188038D02*
X-27214285Y21378514D01*
X-27214285Y21378514D02*
X-27214285Y21711847D01*
X-27214285Y21711847D02*
X-27166666Y21902323D01*
X-27166666Y21902323D02*
X-27071428Y21997561D01*
X-27071428Y21997561D02*
X-26976190Y22045180D01*
X-26976190Y22045180D02*
X-26785714Y22045180D01*
X-26785714Y22045180D02*
X-26690476Y21997561D01*
X-26690476Y21997561D02*
X-26595238Y21902323D01*
X-26595238Y21902323D02*
X-26547619Y21711847D01*
X-26547619Y21711847D02*
X-26547619Y21378514D01*
X-26547619Y21378514D02*
X-26595238Y21188038D01*
X-26595238Y21188038D02*
X-26690476Y21092800D01*
X-26690476Y21092800D02*
X-26785714Y21045180D01*
X-26785714Y21045180D02*
X-26976190Y21045180D01*
X-26166666Y21949942D02*
X-26119047Y21997561D01*
X-26119047Y21997561D02*
X-26023809Y22045180D01*
X-26023809Y22045180D02*
X-25785714Y22045180D01*
X-25785714Y22045180D02*
X-25690476Y21997561D01*
X-25690476Y21997561D02*
X-25642857Y21949942D01*
X-25642857Y21949942D02*
X-25595238Y21854704D01*
X-25595238Y21854704D02*
X-25595238Y21759466D01*
X-25595238Y21759466D02*
X-25642857Y21616609D01*
X-25642857Y21616609D02*
X-26214285Y21045180D01*
X-26214285Y21045180D02*
X-25595238Y21045180D01*
X-24690476Y22045180D02*
X-25166666Y22045180D01*
X-25166666Y22045180D02*
X-25214285Y21568990D01*
X-25214285Y21568990D02*
X-25166666Y21616609D01*
X-25166666Y21616609D02*
X-25071428Y21664228D01*
X-25071428Y21664228D02*
X-24833333Y21664228D01*
X-24833333Y21664228D02*
X-24738095Y21616609D01*
X-24738095Y21616609D02*
X-24690476Y21568990D01*
X-24690476Y21568990D02*
X-24642857Y21473752D01*
X-24642857Y21473752D02*
X-24642857Y21235657D01*
X-24642857Y21235657D02*
X-24690476Y21140419D01*
X-24690476Y21140419D02*
X-24738095Y21092800D01*
X-24738095Y21092800D02*
X-24833333Y21045180D01*
X-24833333Y21045180D02*
X-25071428Y21045180D01*
X-25071428Y21045180D02*
X-25166666Y21092800D01*
X-25166666Y21092800D02*
X-25214285Y21140419D01*
X-24309523Y22045180D02*
X-23642857Y22045180D01*
X-23642857Y22045180D02*
X-24071428Y21045180D01*
X-23214285Y21045180D02*
X-23023809Y21045180D01*
X-23023809Y21045180D02*
X-22928571Y21092800D01*
X-22928571Y21092800D02*
X-22880952Y21140419D01*
X-22880952Y21140419D02*
X-22785714Y21283276D01*
X-22785714Y21283276D02*
X-22738095Y21473752D01*
X-22738095Y21473752D02*
X-22738095Y21854704D01*
X-22738095Y21854704D02*
X-22785714Y21949942D01*
X-22785714Y21949942D02*
X-22833333Y21997561D01*
X-22833333Y21997561D02*
X-22928571Y22045180D01*
X-22928571Y22045180D02*
X-23119047Y22045180D01*
X-23119047Y22045180D02*
X-23214285Y21997561D01*
X-23214285Y21997561D02*
X-23261904Y21949942D01*
X-23261904Y21949942D02*
X-23309523Y21854704D01*
X-23309523Y21854704D02*
X-23309523Y21616609D01*
X-23309523Y21616609D02*
X-23261904Y21521371D01*
X-23261904Y21521371D02*
X-23214285Y21473752D01*
X-23214285Y21473752D02*
X-23119047Y21426133D01*
X-23119047Y21426133D02*
X-22928571Y21426133D01*
X-22928571Y21426133D02*
X-22833333Y21473752D01*
X-22833333Y21473752D02*
X-22785714Y21521371D01*
X-22785714Y21521371D02*
X-22738095Y21616609D01*
X-22166666Y21616609D02*
X-22261904Y21664228D01*
X-22261904Y21664228D02*
X-22309523Y21711847D01*
X-22309523Y21711847D02*
X-22357142Y21807085D01*
X-22357142Y21807085D02*
X-22357142Y21854704D01*
X-22357142Y21854704D02*
X-22309523Y21949942D01*
X-22309523Y21949942D02*
X-22261904Y21997561D01*
X-22261904Y21997561D02*
X-22166666Y22045180D01*
X-22166666Y22045180D02*
X-21976190Y22045180D01*
X-21976190Y22045180D02*
X-21880952Y21997561D01*
X-21880952Y21997561D02*
X-21833333Y21949942D01*
X-21833333Y21949942D02*
X-21785714Y21854704D01*
X-21785714Y21854704D02*
X-21785714Y21807085D01*
X-21785714Y21807085D02*
X-21833333Y21711847D01*
X-21833333Y21711847D02*
X-21880952Y21664228D01*
X-21880952Y21664228D02*
X-21976190Y21616609D01*
X-21976190Y21616609D02*
X-22166666Y21616609D01*
X-22166666Y21616609D02*
X-22261904Y21568990D01*
X-22261904Y21568990D02*
X-22309523Y21521371D01*
X-22309523Y21521371D02*
X-22357142Y21426133D01*
X-22357142Y21426133D02*
X-22357142Y21235657D01*
X-22357142Y21235657D02*
X-22309523Y21140419D01*
X-22309523Y21140419D02*
X-22261904Y21092800D01*
X-22261904Y21092800D02*
X-22166666Y21045180D01*
X-22166666Y21045180D02*
X-21976190Y21045180D01*
X-21976190Y21045180D02*
X-21880952Y21092800D01*
X-21880952Y21092800D02*
X-21833333Y21140419D01*
X-21833333Y21140419D02*
X-21785714Y21235657D01*
X-21785714Y21235657D02*
X-21785714Y21426133D01*
X-21785714Y21426133D02*
X-21833333Y21521371D01*
X-21833333Y21521371D02*
X-21880952Y21568990D01*
X-21880952Y21568990D02*
X-21976190Y21616609D01*
X-27166666Y7045180D02*
X-27166666Y8045180D01*
X-27166666Y8045180D02*
X-26785714Y8045180D01*
X-26785714Y8045180D02*
X-26690476Y7997561D01*
X-26690476Y7997561D02*
X-26642857Y7949942D01*
X-26642857Y7949942D02*
X-26595238Y7854704D01*
X-26595238Y7854704D02*
X-26595238Y7711847D01*
X-26595238Y7711847D02*
X-26642857Y7616609D01*
X-26642857Y7616609D02*
X-26690476Y7568990D01*
X-26690476Y7568990D02*
X-26785714Y7521371D01*
X-26785714Y7521371D02*
X-27166666Y7521371D01*
X-26119047Y7045180D02*
X-25928571Y7045180D01*
X-25928571Y7045180D02*
X-25833333Y7092800D01*
X-25833333Y7092800D02*
X-25785714Y7140419D01*
X-25785714Y7140419D02*
X-25690476Y7283276D01*
X-25690476Y7283276D02*
X-25642857Y7473752D01*
X-25642857Y7473752D02*
X-25642857Y7854704D01*
X-25642857Y7854704D02*
X-25690476Y7949942D01*
X-25690476Y7949942D02*
X-25738095Y7997561D01*
X-25738095Y7997561D02*
X-25833333Y8045180D01*
X-25833333Y8045180D02*
X-26023809Y8045180D01*
X-26023809Y8045180D02*
X-26119047Y7997561D01*
X-26119047Y7997561D02*
X-26166666Y7949942D01*
X-26166666Y7949942D02*
X-26214285Y7854704D01*
X-26214285Y7854704D02*
X-26214285Y7616609D01*
X-26214285Y7616609D02*
X-26166666Y7521371D01*
X-26166666Y7521371D02*
X-26119047Y7473752D01*
X-26119047Y7473752D02*
X-26023809Y7426133D01*
X-26023809Y7426133D02*
X-25833333Y7426133D01*
X-25833333Y7426133D02*
X-25738095Y7473752D01*
X-25738095Y7473752D02*
X-25690476Y7521371D01*
X-25690476Y7521371D02*
X-25642857Y7616609D01*
X-24785714Y7711847D02*
X-24785714Y7045180D01*
X-25023809Y8092800D02*
X-25261904Y7378514D01*
X-25261904Y7378514D02*
X-24642857Y7378514D01*
X-23738095Y7045180D02*
X-24309523Y7045180D01*
X-24023809Y7045180D02*
X-24023809Y8045180D01*
X-24023809Y8045180D02*
X-24119047Y7902323D01*
X-24119047Y7902323D02*
X-24214285Y7807085D01*
X-24214285Y7807085D02*
X-24309523Y7759466D01*
X-23166666Y7616609D02*
X-23261904Y7664228D01*
X-23261904Y7664228D02*
X-23309523Y7711847D01*
X-23309523Y7711847D02*
X-23357142Y7807085D01*
X-23357142Y7807085D02*
X-23357142Y7854704D01*
X-23357142Y7854704D02*
X-23309523Y7949942D01*
X-23309523Y7949942D02*
X-23261904Y7997561D01*
X-23261904Y7997561D02*
X-23166666Y8045180D01*
X-23166666Y8045180D02*
X-22976190Y8045180D01*
X-22976190Y8045180D02*
X-22880952Y7997561D01*
X-22880952Y7997561D02*
X-22833333Y7949942D01*
X-22833333Y7949942D02*
X-22785714Y7854704D01*
X-22785714Y7854704D02*
X-22785714Y7807085D01*
X-22785714Y7807085D02*
X-22833333Y7711847D01*
X-22833333Y7711847D02*
X-22880952Y7664228D01*
X-22880952Y7664228D02*
X-22976190Y7616609D01*
X-22976190Y7616609D02*
X-23166666Y7616609D01*
X-23166666Y7616609D02*
X-23261904Y7568990D01*
X-23261904Y7568990D02*
X-23309523Y7521371D01*
X-23309523Y7521371D02*
X-23357142Y7426133D01*
X-23357142Y7426133D02*
X-23357142Y7235657D01*
X-23357142Y7235657D02*
X-23309523Y7140419D01*
X-23309523Y7140419D02*
X-23261904Y7092800D01*
X-23261904Y7092800D02*
X-23166666Y7045180D01*
X-23166666Y7045180D02*
X-22976190Y7045180D01*
X-22976190Y7045180D02*
X-22880952Y7092800D01*
X-22880952Y7092800D02*
X-22833333Y7140419D01*
X-22833333Y7140419D02*
X-22785714Y7235657D01*
X-22785714Y7235657D02*
X-22785714Y7426133D01*
X-22785714Y7426133D02*
X-22833333Y7521371D01*
X-22833333Y7521371D02*
X-22880952Y7568990D01*
X-22880952Y7568990D02*
X-22976190Y7616609D01*
X-3571428Y-4788152D02*
X-3571428Y-5454819D01*
X-3571428Y-4883390D02*
X-3523809Y-4835771D01*
X-3523809Y-4835771D02*
X-3428571Y-4788152D01*
X-3428571Y-4788152D02*
X-3285714Y-4788152D01*
X-3285714Y-4788152D02*
X-3190476Y-4835771D01*
X-3190476Y-4835771D02*
X-3142857Y-4931009D01*
X-3142857Y-4931009D02*
X-3142857Y-5454819D01*
X-2095238Y-5454819D02*
X-2428571Y-4978628D01*
X-2666666Y-5454819D02*
X-2666666Y-4454819D01*
X-2666666Y-4454819D02*
X-2285714Y-4454819D01*
X-2285714Y-4454819D02*
X-2190476Y-4502438D01*
X-2190476Y-4502438D02*
X-2142857Y-4550057D01*
X-2142857Y-4550057D02*
X-2095238Y-4645295D01*
X-2095238Y-4645295D02*
X-2095238Y-4788152D01*
X-2095238Y-4788152D02*
X-2142857Y-4883390D01*
X-2142857Y-4883390D02*
X-2190476Y-4931009D01*
X-2190476Y-4931009D02*
X-2285714Y-4978628D01*
X-2285714Y-4978628D02*
X-2666666Y-4978628D01*
X-1333333Y-4931009D02*
X-1666666Y-4931009D01*
X-1666666Y-5454819D02*
X-1666666Y-4454819D01*
X-1666666Y-4454819D02*
X-1190476Y-4454819D01*
X-333333Y-4454819D02*
X-809523Y-4454819D01*
X-809523Y-4454819D02*
X-857142Y-4931009D01*
X-857142Y-4931009D02*
X-809523Y-4883390D01*
X-809523Y-4883390D02*
X-714285Y-4835771D01*
X-714285Y-4835771D02*
X-476190Y-4835771D01*
X-476190Y-4835771D02*
X-380952Y-4883390D01*
X-380952Y-4883390D02*
X-333333Y-4931009D01*
X-333333Y-4931009D02*
X-285714Y-5026247D01*
X-285714Y-5026247D02*
X-285714Y-5264342D01*
X-285714Y-5264342D02*
X-333333Y-5359580D01*
X-333333Y-5359580D02*
X-380952Y-5407200D01*
X-380952Y-5407200D02*
X-476190Y-5454819D01*
X-476190Y-5454819D02*
X-714285Y-5454819D01*
X-714285Y-5454819D02*
X-809523Y-5407200D01*
X-809523Y-5407200D02*
X-857142Y-5359580D01*
X571428Y-4788152D02*
X571428Y-5454819D01*
X333333Y-4407200D02*
X95238Y-5121485D01*
X95238Y-5121485D02*
X714285Y-5121485D01*
X1095238Y-5454819D02*
X1095238Y-4454819D01*
X1095238Y-4931009D02*
X1666666Y-4931009D01*
X1666666Y-5454819D02*
X1666666Y-4454819D01*
X2095238Y-4550057D02*
X2142857Y-4502438D01*
X2142857Y-4502438D02*
X2238095Y-4454819D01*
X2238095Y-4454819D02*
X2476190Y-4454819D01*
X2476190Y-4454819D02*
X2571428Y-4502438D01*
X2571428Y-4502438D02*
X2619047Y-4550057D01*
X2619047Y-4550057D02*
X2666666Y-4645295D01*
X2666666Y-4645295D02*
X2666666Y-4740533D01*
X2666666Y-4740533D02*
X2619047Y-4883390D01*
X2619047Y-4883390D02*
X2047619Y-5454819D01*
X2047619Y-5454819D02*
X2666666Y-5454819D01*
X3285714Y-4454819D02*
X3380952Y-4454819D01*
X3380952Y-4454819D02*
X3476190Y-4502438D01*
X3476190Y-4502438D02*
X3523809Y-4550057D01*
X3523809Y-4550057D02*
X3571428Y-4645295D01*
X3571428Y-4645295D02*
X3619047Y-4835771D01*
X3619047Y-4835771D02*
X3619047Y-5073866D01*
X3619047Y-5073866D02*
X3571428Y-5264342D01*
X3571428Y-5264342D02*
X3523809Y-5359580D01*
X3523809Y-5359580D02*
X3476190Y-5407200D01*
X3476190Y-5407200D02*
X3380952Y-5454819D01*
X3380952Y-5454819D02*
X3285714Y-5454819D01*
X3285714Y-5454819D02*
X3190476Y-5407200D01*
X3190476Y-5407200D02*
X3142857Y-5359580D01*
X3142857Y-5359580D02*
X3095238Y-5264342D01*
X3095238Y-5264342D02*
X3047619Y-5073866D01*
X3047619Y-5073866D02*
X3047619Y-4835771D01*
X3047619Y-4835771D02*
X3095238Y-4645295D01*
X3095238Y-4645295D02*
X3142857Y-4550057D01*
X3142857Y-4550057D02*
X3190476Y-4502438D01*
X3190476Y-4502438D02*
X3285714Y-4454819D01*
X-11864828Y17865180D02*
X-12436256Y17865180D01*
X-12150542Y17865180D02*
X-12150542Y18865180D01*
X-12150542Y18865180D02*
X-12245780Y18722323D01*
X-12245780Y18722323D02*
X-12341018Y18627085D01*
X-12341018Y18627085D02*
X-12436256Y18579466D01*
X-11245780Y18865180D02*
X-11150542Y18865180D01*
X-11150542Y18865180D02*
X-11055304Y18817561D01*
X-11055304Y18817561D02*
X-11007685Y18769942D01*
X-11007685Y18769942D02*
X-10960066Y18674704D01*
X-10960066Y18674704D02*
X-10912447Y18484228D01*
X-10912447Y18484228D02*
X-10912447Y18246133D01*
X-10912447Y18246133D02*
X-10960066Y18055657D01*
X-10960066Y18055657D02*
X-11007685Y17960419D01*
X-11007685Y17960419D02*
X-11055304Y17912800D01*
X-11055304Y17912800D02*
X-11150542Y17865180D01*
X-11150542Y17865180D02*
X-11245780Y17865180D01*
X-11245780Y17865180D02*
X-11341018Y17912800D01*
X-11341018Y17912800D02*
X-11388637Y17960419D01*
X-11388637Y17960419D02*
X-11436256Y18055657D01*
X-11436256Y18055657D02*
X-11483875Y18246133D01*
X-11483875Y18246133D02*
X-11483875Y18484228D01*
X-11483875Y18484228D02*
X-11436256Y18674704D01*
X-11436256Y18674704D02*
X-11388637Y18769942D01*
X-11388637Y18769942D02*
X-11341018Y18817561D01*
X-11341018Y18817561D02*
X-11245780Y18865180D01*
X-10055304Y18531847D02*
X-10055304Y17865180D01*
X-10483875Y18531847D02*
X-10483875Y18008038D01*
X-10483875Y18008038D02*
X-10436256Y17912800D01*
X-10436256Y17912800D02*
X-10341018Y17865180D01*
X-10341018Y17865180D02*
X-10198161Y17865180D01*
X-10198161Y17865180D02*
X-10102923Y17912800D01*
X-10102923Y17912800D02*
X-10055304Y17960419D01*
X-9245780Y18388990D02*
X-9579113Y18388990D01*
X-9579113Y17865180D02*
X-9579113Y18865180D01*
X-9579113Y18865180D02*
X-9102923Y18865180D01*
D12*
X-11114828Y19820469D02*
X-11138637Y19796660D01*
X-11138637Y19796660D02*
X-11210066Y19772850D01*
X-11210066Y19772850D02*
X-11257685Y19772850D01*
X-11257685Y19772850D02*
X-11329113Y19796660D01*
X-11329113Y19796660D02*
X-11376732Y19844279D01*
X-11376732Y19844279D02*
X-11400542Y19891898D01*
X-11400542Y19891898D02*
X-11424351Y19987136D01*
X-11424351Y19987136D02*
X-11424351Y20058564D01*
X-11424351Y20058564D02*
X-11400542Y20153802D01*
X-11400542Y20153802D02*
X-11376732Y20201421D01*
X-11376732Y20201421D02*
X-11329113Y20249040D01*
X-11329113Y20249040D02*
X-11257685Y20272850D01*
X-11257685Y20272850D02*
X-11210066Y20272850D01*
X-11210066Y20272850D02*
X-11138637Y20249040D01*
X-11138637Y20249040D02*
X-11114828Y20225231D01*
X-10924351Y20225231D02*
X-10900542Y20249040D01*
X-10900542Y20249040D02*
X-10852923Y20272850D01*
X-10852923Y20272850D02*
X-10733875Y20272850D01*
X-10733875Y20272850D02*
X-10686256Y20249040D01*
X-10686256Y20249040D02*
X-10662447Y20225231D01*
X-10662447Y20225231D02*
X-10638637Y20177612D01*
X-10638637Y20177612D02*
X-10638637Y20129993D01*
X-10638637Y20129993D02*
X-10662447Y20058564D01*
X-10662447Y20058564D02*
X-10948161Y19772850D01*
X-10948161Y19772850D02*
X-10638637Y19772850D01*
X-10471971Y20272850D02*
X-10162447Y20272850D01*
X-10162447Y20272850D02*
X-10329114Y20082374D01*
X-10329114Y20082374D02*
X-10257685Y20082374D01*
X-10257685Y20082374D02*
X-10210066Y20058564D01*
X-10210066Y20058564D02*
X-10186257Y20034755D01*
X-10186257Y20034755D02*
X-10162447Y19987136D01*
X-10162447Y19987136D02*
X-10162447Y19868088D01*
X-10162447Y19868088D02*
X-10186257Y19820469D01*
X-10186257Y19820469D02*
X-10210066Y19796660D01*
X-10210066Y19796660D02*
X-10257685Y19772850D01*
X-10257685Y19772850D02*
X-10400542Y19772850D01*
X-10400542Y19772850D02*
X-10448161Y19796660D01*
X-10448161Y19796660D02*
X-10471971Y19820469D01*
D10*
X-17811328Y17865180D02*
X-18382756Y17865180D01*
X-18097042Y17865180D02*
X-18097042Y18865180D01*
X-18097042Y18865180D02*
X-18192280Y18722323D01*
X-18192280Y18722323D02*
X-18287518Y18627085D01*
X-18287518Y18627085D02*
X-18382756Y18579466D01*
X-17192280Y18865180D02*
X-17097042Y18865180D01*
X-17097042Y18865180D02*
X-17001804Y18817561D01*
X-17001804Y18817561D02*
X-16954185Y18769942D01*
X-16954185Y18769942D02*
X-16906566Y18674704D01*
X-16906566Y18674704D02*
X-16858947Y18484228D01*
X-16858947Y18484228D02*
X-16858947Y18246133D01*
X-16858947Y18246133D02*
X-16906566Y18055657D01*
X-16906566Y18055657D02*
X-16954185Y17960419D01*
X-16954185Y17960419D02*
X-17001804Y17912800D01*
X-17001804Y17912800D02*
X-17097042Y17865180D01*
X-17097042Y17865180D02*
X-17192280Y17865180D01*
X-17192280Y17865180D02*
X-17287518Y17912800D01*
X-17287518Y17912800D02*
X-17335137Y17960419D01*
X-17335137Y17960419D02*
X-17382756Y18055657D01*
X-17382756Y18055657D02*
X-17430375Y18246133D01*
X-17430375Y18246133D02*
X-17430375Y18484228D01*
X-17430375Y18484228D02*
X-17382756Y18674704D01*
X-17382756Y18674704D02*
X-17335137Y18769942D01*
X-17335137Y18769942D02*
X-17287518Y18817561D01*
X-17287518Y18817561D02*
X-17192280Y18865180D01*
X-16001804Y18531847D02*
X-16001804Y17865180D01*
X-16430375Y18531847D02*
X-16430375Y18008038D01*
X-16430375Y18008038D02*
X-16382756Y17912800D01*
X-16382756Y17912800D02*
X-16287518Y17865180D01*
X-16287518Y17865180D02*
X-16144661Y17865180D01*
X-16144661Y17865180D02*
X-16049423Y17912800D01*
X-16049423Y17912800D02*
X-16001804Y17960419D01*
X-15192280Y18388990D02*
X-15525613Y18388990D01*
X-15525613Y17865180D02*
X-15525613Y18865180D01*
X-15525613Y18865180D02*
X-15049423Y18865180D01*
D12*
X-17061328Y19820469D02*
X-17085137Y19796660D01*
X-17085137Y19796660D02*
X-17156566Y19772850D01*
X-17156566Y19772850D02*
X-17204185Y19772850D01*
X-17204185Y19772850D02*
X-17275613Y19796660D01*
X-17275613Y19796660D02*
X-17323232Y19844279D01*
X-17323232Y19844279D02*
X-17347042Y19891898D01*
X-17347042Y19891898D02*
X-17370851Y19987136D01*
X-17370851Y19987136D02*
X-17370851Y20058564D01*
X-17370851Y20058564D02*
X-17347042Y20153802D01*
X-17347042Y20153802D02*
X-17323232Y20201421D01*
X-17323232Y20201421D02*
X-17275613Y20249040D01*
X-17275613Y20249040D02*
X-17204185Y20272850D01*
X-17204185Y20272850D02*
X-17156566Y20272850D01*
X-17156566Y20272850D02*
X-17085137Y20249040D01*
X-17085137Y20249040D02*
X-17061328Y20225231D01*
X-16870851Y20225231D02*
X-16847042Y20249040D01*
X-16847042Y20249040D02*
X-16799423Y20272850D01*
X-16799423Y20272850D02*
X-16680375Y20272850D01*
X-16680375Y20272850D02*
X-16632756Y20249040D01*
X-16632756Y20249040D02*
X-16608947Y20225231D01*
X-16608947Y20225231D02*
X-16585137Y20177612D01*
X-16585137Y20177612D02*
X-16585137Y20129993D01*
X-16585137Y20129993D02*
X-16608947Y20058564D01*
X-16608947Y20058564D02*
X-16894661Y19772850D01*
X-16894661Y19772850D02*
X-16585137Y19772850D01*
X-16108947Y19772850D02*
X-16394661Y19772850D01*
X-16251804Y19772850D02*
X-16251804Y20272850D01*
X-16251804Y20272850D02*
X-16299423Y20201421D01*
X-16299423Y20201421D02*
X-16347042Y20153802D01*
X-16347042Y20153802D02*
X-16394661Y20129993D01*
D10*
X-19488128Y23654180D02*
X-20059556Y23654180D01*
X-19773842Y23654180D02*
X-19773842Y24654180D01*
X-19773842Y24654180D02*
X-19869080Y24511323D01*
X-19869080Y24511323D02*
X-19964318Y24416085D01*
X-19964318Y24416085D02*
X-20059556Y24368466D01*
X-18869080Y24654180D02*
X-18773842Y24654180D01*
X-18773842Y24654180D02*
X-18678604Y24606561D01*
X-18678604Y24606561D02*
X-18630985Y24558942D01*
X-18630985Y24558942D02*
X-18583366Y24463704D01*
X-18583366Y24463704D02*
X-18535747Y24273228D01*
X-18535747Y24273228D02*
X-18535747Y24035133D01*
X-18535747Y24035133D02*
X-18583366Y23844657D01*
X-18583366Y23844657D02*
X-18630985Y23749419D01*
X-18630985Y23749419D02*
X-18678604Y23701800D01*
X-18678604Y23701800D02*
X-18773842Y23654180D01*
X-18773842Y23654180D02*
X-18869080Y23654180D01*
X-18869080Y23654180D02*
X-18964318Y23701800D01*
X-18964318Y23701800D02*
X-19011937Y23749419D01*
X-19011937Y23749419D02*
X-19059556Y23844657D01*
X-19059556Y23844657D02*
X-19107175Y24035133D01*
X-19107175Y24035133D02*
X-19107175Y24273228D01*
X-19107175Y24273228D02*
X-19059556Y24463704D01*
X-19059556Y24463704D02*
X-19011937Y24558942D01*
X-19011937Y24558942D02*
X-18964318Y24606561D01*
X-18964318Y24606561D02*
X-18869080Y24654180D01*
X-17678604Y24320847D02*
X-17678604Y23654180D01*
X-18107175Y24320847D02*
X-18107175Y23797038D01*
X-18107175Y23797038D02*
X-18059556Y23701800D01*
X-18059556Y23701800D02*
X-17964318Y23654180D01*
X-17964318Y23654180D02*
X-17821461Y23654180D01*
X-17821461Y23654180D02*
X-17726223Y23701800D01*
X-17726223Y23701800D02*
X-17678604Y23749419D01*
X-16869080Y24177990D02*
X-17202413Y24177990D01*
X-17202413Y23654180D02*
X-17202413Y24654180D01*
X-17202413Y24654180D02*
X-16726223Y24654180D01*
D12*
X-18738128Y25609469D02*
X-18761937Y25585660D01*
X-18761937Y25585660D02*
X-18833366Y25561850D01*
X-18833366Y25561850D02*
X-18880985Y25561850D01*
X-18880985Y25561850D02*
X-18952413Y25585660D01*
X-18952413Y25585660D02*
X-19000032Y25633279D01*
X-19000032Y25633279D02*
X-19023842Y25680898D01*
X-19023842Y25680898D02*
X-19047651Y25776136D01*
X-19047651Y25776136D02*
X-19047651Y25847564D01*
X-19047651Y25847564D02*
X-19023842Y25942802D01*
X-19023842Y25942802D02*
X-19000032Y25990421D01*
X-19000032Y25990421D02*
X-18952413Y26038040D01*
X-18952413Y26038040D02*
X-18880985Y26061850D01*
X-18880985Y26061850D02*
X-18833366Y26061850D01*
X-18833366Y26061850D02*
X-18761937Y26038040D01*
X-18761937Y26038040D02*
X-18738128Y26014231D01*
X-18547651Y26014231D02*
X-18523842Y26038040D01*
X-18523842Y26038040D02*
X-18476223Y26061850D01*
X-18476223Y26061850D02*
X-18357175Y26061850D01*
X-18357175Y26061850D02*
X-18309556Y26038040D01*
X-18309556Y26038040D02*
X-18285747Y26014231D01*
X-18285747Y26014231D02*
X-18261937Y25966612D01*
X-18261937Y25966612D02*
X-18261937Y25918993D01*
X-18261937Y25918993D02*
X-18285747Y25847564D01*
X-18285747Y25847564D02*
X-18571461Y25561850D01*
X-18571461Y25561850D02*
X-18261937Y25561850D01*
X-17952414Y26061850D02*
X-17904795Y26061850D01*
X-17904795Y26061850D02*
X-17857176Y26038040D01*
X-17857176Y26038040D02*
X-17833366Y26014231D01*
X-17833366Y26014231D02*
X-17809557Y25966612D01*
X-17809557Y25966612D02*
X-17785747Y25871374D01*
X-17785747Y25871374D02*
X-17785747Y25752326D01*
X-17785747Y25752326D02*
X-17809557Y25657088D01*
X-17809557Y25657088D02*
X-17833366Y25609469D01*
X-17833366Y25609469D02*
X-17857176Y25585660D01*
X-17857176Y25585660D02*
X-17904795Y25561850D01*
X-17904795Y25561850D02*
X-17952414Y25561850D01*
X-17952414Y25561850D02*
X-18000033Y25585660D01*
X-18000033Y25585660D02*
X-18023842Y25609469D01*
X-18023842Y25609469D02*
X-18047652Y25657088D01*
X-18047652Y25657088D02*
X-18071461Y25752326D01*
X-18071461Y25752326D02*
X-18071461Y25871374D01*
X-18071461Y25871374D02*
X-18047652Y25966612D01*
X-18047652Y25966612D02*
X-18023842Y26014231D01*
X-18023842Y26014231D02*
X-18000033Y26038040D01*
X-18000033Y26038040D02*
X-17952414Y26061850D01*
D10*
X-15071428Y23654180D02*
X-15642856Y23654180D01*
X-15357142Y23654180D02*
X-15357142Y24654180D01*
X-15357142Y24654180D02*
X-15452380Y24511323D01*
X-15452380Y24511323D02*
X-15547618Y24416085D01*
X-15547618Y24416085D02*
X-15642856Y24368466D01*
X-14452380Y24654180D02*
X-14357142Y24654180D01*
X-14357142Y24654180D02*
X-14261904Y24606561D01*
X-14261904Y24606561D02*
X-14214285Y24558942D01*
X-14214285Y24558942D02*
X-14166666Y24463704D01*
X-14166666Y24463704D02*
X-14119047Y24273228D01*
X-14119047Y24273228D02*
X-14119047Y24035133D01*
X-14119047Y24035133D02*
X-14166666Y23844657D01*
X-14166666Y23844657D02*
X-14214285Y23749419D01*
X-14214285Y23749419D02*
X-14261904Y23701800D01*
X-14261904Y23701800D02*
X-14357142Y23654180D01*
X-14357142Y23654180D02*
X-14452380Y23654180D01*
X-14452380Y23654180D02*
X-14547618Y23701800D01*
X-14547618Y23701800D02*
X-14595237Y23749419D01*
X-14595237Y23749419D02*
X-14642856Y23844657D01*
X-14642856Y23844657D02*
X-14690475Y24035133D01*
X-14690475Y24035133D02*
X-14690475Y24273228D01*
X-14690475Y24273228D02*
X-14642856Y24463704D01*
X-14642856Y24463704D02*
X-14595237Y24558942D01*
X-14595237Y24558942D02*
X-14547618Y24606561D01*
X-14547618Y24606561D02*
X-14452380Y24654180D01*
X-13261904Y24320847D02*
X-13261904Y23654180D01*
X-13690475Y24320847D02*
X-13690475Y23797038D01*
X-13690475Y23797038D02*
X-13642856Y23701800D01*
X-13642856Y23701800D02*
X-13547618Y23654180D01*
X-13547618Y23654180D02*
X-13404761Y23654180D01*
X-13404761Y23654180D02*
X-13309523Y23701800D01*
X-13309523Y23701800D02*
X-13261904Y23749419D01*
X-12452380Y24177990D02*
X-12785713Y24177990D01*
X-12785713Y23654180D02*
X-12785713Y24654180D01*
X-12785713Y24654180D02*
X-12309523Y24654180D01*
D12*
X-14321428Y25609469D02*
X-14345237Y25585660D01*
X-14345237Y25585660D02*
X-14416666Y25561850D01*
X-14416666Y25561850D02*
X-14464285Y25561850D01*
X-14464285Y25561850D02*
X-14535713Y25585660D01*
X-14535713Y25585660D02*
X-14583332Y25633279D01*
X-14583332Y25633279D02*
X-14607142Y25680898D01*
X-14607142Y25680898D02*
X-14630951Y25776136D01*
X-14630951Y25776136D02*
X-14630951Y25847564D01*
X-14630951Y25847564D02*
X-14607142Y25942802D01*
X-14607142Y25942802D02*
X-14583332Y25990421D01*
X-14583332Y25990421D02*
X-14535713Y26038040D01*
X-14535713Y26038040D02*
X-14464285Y26061850D01*
X-14464285Y26061850D02*
X-14416666Y26061850D01*
X-14416666Y26061850D02*
X-14345237Y26038040D01*
X-14345237Y26038040D02*
X-14321428Y26014231D01*
X-14130951Y26014231D02*
X-14107142Y26038040D01*
X-14107142Y26038040D02*
X-14059523Y26061850D01*
X-14059523Y26061850D02*
X-13940475Y26061850D01*
X-13940475Y26061850D02*
X-13892856Y26038040D01*
X-13892856Y26038040D02*
X-13869047Y26014231D01*
X-13869047Y26014231D02*
X-13845237Y25966612D01*
X-13845237Y25966612D02*
X-13845237Y25918993D01*
X-13845237Y25918993D02*
X-13869047Y25847564D01*
X-13869047Y25847564D02*
X-14154761Y25561850D01*
X-14154761Y25561850D02*
X-13845237Y25561850D01*
X-13654761Y26014231D02*
X-13630952Y26038040D01*
X-13630952Y26038040D02*
X-13583333Y26061850D01*
X-13583333Y26061850D02*
X-13464285Y26061850D01*
X-13464285Y26061850D02*
X-13416666Y26038040D01*
X-13416666Y26038040D02*
X-13392857Y26014231D01*
X-13392857Y26014231D02*
X-13369047Y25966612D01*
X-13369047Y25966612D02*
X-13369047Y25918993D01*
X-13369047Y25918993D02*
X-13392857Y25847564D01*
X-13392857Y25847564D02*
X-13678571Y25561850D01*
X-13678571Y25561850D02*
X-13369047Y25561850D01*
D10*
X-34166666Y17265180D02*
X-34738094Y17265180D01*
X-34452380Y17265180D02*
X-34452380Y18265180D01*
X-34452380Y18265180D02*
X-34547618Y18122323D01*
X-34547618Y18122323D02*
X-34642856Y18027085D01*
X-34642856Y18027085D02*
X-34738094Y17979466D01*
X-33547618Y18265180D02*
X-33452380Y18265180D01*
X-33452380Y18265180D02*
X-33357142Y18217561D01*
X-33357142Y18217561D02*
X-33309523Y18169942D01*
X-33309523Y18169942D02*
X-33261904Y18074704D01*
X-33261904Y18074704D02*
X-33214285Y17884228D01*
X-33214285Y17884228D02*
X-33214285Y17646133D01*
X-33214285Y17646133D02*
X-33261904Y17455657D01*
X-33261904Y17455657D02*
X-33309523Y17360419D01*
X-33309523Y17360419D02*
X-33357142Y17312800D01*
X-33357142Y17312800D02*
X-33452380Y17265180D01*
X-33452380Y17265180D02*
X-33547618Y17265180D01*
X-33547618Y17265180D02*
X-33642856Y17312800D01*
X-33642856Y17312800D02*
X-33690475Y17360419D01*
X-33690475Y17360419D02*
X-33738094Y17455657D01*
X-33738094Y17455657D02*
X-33785713Y17646133D01*
X-33785713Y17646133D02*
X-33785713Y17884228D01*
X-33785713Y17884228D02*
X-33738094Y18074704D01*
X-33738094Y18074704D02*
X-33690475Y18169942D01*
X-33690475Y18169942D02*
X-33642856Y18217561D01*
X-33642856Y18217561D02*
X-33547618Y18265180D01*
X-32357142Y17931847D02*
X-32357142Y17265180D01*
X-32785713Y17931847D02*
X-32785713Y17408038D01*
X-32785713Y17408038D02*
X-32738094Y17312800D01*
X-32738094Y17312800D02*
X-32642856Y17265180D01*
X-32642856Y17265180D02*
X-32499999Y17265180D01*
X-32499999Y17265180D02*
X-32404761Y17312800D01*
X-32404761Y17312800D02*
X-32357142Y17360419D01*
X-31880951Y17265180D02*
X-31880951Y18265180D01*
X-31880951Y17788990D02*
X-31309523Y17788990D01*
X-31309523Y17265180D02*
X-31309523Y18265180D01*
D13*
X-33133333Y19636144D02*
X-33514285Y19636144D01*
X-33514285Y19636144D02*
X-33514285Y20436144D01*
X-32447619Y19636144D02*
X-32904762Y19636144D01*
X-32676190Y19636144D02*
X-32676190Y20436144D01*
X-32676190Y20436144D02*
X-32752381Y20321859D01*
X-32752381Y20321859D02*
X-32828571Y20245668D01*
X-32828571Y20245668D02*
X-32904762Y20207573D01*
D10*
X108954819Y-3261904D02*
X108954819Y-3071428D01*
X108954819Y-3071428D02*
X109002438Y-2976190D01*
X109002438Y-2976190D02*
X109097676Y-2880952D01*
X109097676Y-2880952D02*
X109288152Y-2833333D01*
X109288152Y-2833333D02*
X109621485Y-2833333D01*
X109621485Y-2833333D02*
X109811961Y-2880952D01*
X109811961Y-2880952D02*
X109907200Y-2976190D01*
X109907200Y-2976190D02*
X109954819Y-3071428D01*
X109954819Y-3071428D02*
X109954819Y-3261904D01*
X109954819Y-3261904D02*
X109907200Y-3357142D01*
X109907200Y-3357142D02*
X109811961Y-3452380D01*
X109811961Y-3452380D02*
X109621485Y-3499999D01*
X109621485Y-3499999D02*
X109288152Y-3499999D01*
X109288152Y-3499999D02*
X109097676Y-3452380D01*
X109097676Y-3452380D02*
X109002438Y-3357142D01*
X109002438Y-3357142D02*
X108954819Y-3261904D01*
X109954819Y-1928571D02*
X109954819Y-2404761D01*
X109954819Y-2404761D02*
X108954819Y-2404761D01*
X109431009Y-1595237D02*
X109431009Y-1261904D01*
X109954819Y-1119047D02*
X109954819Y-1595237D01*
X109954819Y-1595237D02*
X108954819Y-1595237D01*
X108954819Y-1595237D02*
X108954819Y-1119047D01*
X109954819Y-690475D02*
X108954819Y-690475D01*
X108954819Y-690475D02*
X108954819Y-452380D01*
X108954819Y-452380D02*
X109002438Y-309523D01*
X109002438Y-309523D02*
X109097676Y-214285D01*
X109097676Y-214285D02*
X109192914Y-166666D01*
X109192914Y-166666D02*
X109383390Y-119047D01*
X109383390Y-119047D02*
X109526247Y-119047D01*
X109526247Y-119047D02*
X109716723Y-166666D01*
X109716723Y-166666D02*
X109811961Y-214285D01*
X109811961Y-214285D02*
X109907200Y-309523D01*
X109907200Y-309523D02*
X109954819Y-452380D01*
X109954819Y-452380D02*
X109954819Y-690475D01*
X110050057Y71429D02*
X110050057Y833333D01*
X108954819Y1261905D02*
X108954819Y1452381D01*
X108954819Y1452381D02*
X109002438Y1547619D01*
X109002438Y1547619D02*
X109097676Y1642857D01*
X109097676Y1642857D02*
X109288152Y1690476D01*
X109288152Y1690476D02*
X109621485Y1690476D01*
X109621485Y1690476D02*
X109811961Y1642857D01*
X109811961Y1642857D02*
X109907200Y1547619D01*
X109907200Y1547619D02*
X109954819Y1452381D01*
X109954819Y1452381D02*
X109954819Y1261905D01*
X109954819Y1261905D02*
X109907200Y1166667D01*
X109907200Y1166667D02*
X109811961Y1071429D01*
X109811961Y1071429D02*
X109621485Y1023810D01*
X109621485Y1023810D02*
X109288152Y1023810D01*
X109288152Y1023810D02*
X109097676Y1071429D01*
X109097676Y1071429D02*
X109002438Y1166667D01*
X109002438Y1166667D02*
X108954819Y1261905D01*
X108954819Y2119048D02*
X109764342Y2119048D01*
X109764342Y2119048D02*
X109859580Y2166667D01*
X109859580Y2166667D02*
X109907200Y2214286D01*
X109907200Y2214286D02*
X109954819Y2309524D01*
X109954819Y2309524D02*
X109954819Y2500000D01*
X109954819Y2500000D02*
X109907200Y2595238D01*
X109907200Y2595238D02*
X109859580Y2642857D01*
X109859580Y2642857D02*
X109764342Y2690476D01*
X109764342Y2690476D02*
X108954819Y2690476D01*
X108954819Y3023810D02*
X108954819Y3595238D01*
X109954819Y3309524D02*
X108954819Y3309524D01*
X-33583347Y24153442D02*
X-33535728Y24201061D01*
X-33535728Y24201061D02*
X-33440490Y24248680D01*
X-33440490Y24248680D02*
X-33202395Y24248680D01*
X-33202395Y24248680D02*
X-33107157Y24201061D01*
X-33107157Y24201061D02*
X-33059538Y24153442D01*
X-33059538Y24153442D02*
X-33011919Y24058204D01*
X-33011919Y24058204D02*
X-33011919Y23962966D01*
X-33011919Y23962966D02*
X-33059538Y23820109D01*
X-33059538Y23820109D02*
X-33630966Y23248680D01*
X-33630966Y23248680D02*
X-33011919Y23248680D01*
X-32630966Y24153442D02*
X-32583347Y24201061D01*
X-32583347Y24201061D02*
X-32488109Y24248680D01*
X-32488109Y24248680D02*
X-32250014Y24248680D01*
X-32250014Y24248680D02*
X-32154776Y24201061D01*
X-32154776Y24201061D02*
X-32107157Y24153442D01*
X-32107157Y24153442D02*
X-32059538Y24058204D01*
X-32059538Y24058204D02*
X-32059538Y23962966D01*
X-32059538Y23962966D02*
X-32107157Y23820109D01*
X-32107157Y23820109D02*
X-32678585Y23248680D01*
X-32678585Y23248680D02*
X-32059538Y23248680D01*
X-31440490Y24248680D02*
X-31345252Y24248680D01*
X-31345252Y24248680D02*
X-31250014Y24201061D01*
X-31250014Y24201061D02*
X-31202395Y24153442D01*
X-31202395Y24153442D02*
X-31154776Y24058204D01*
X-31154776Y24058204D02*
X-31107157Y23867728D01*
X-31107157Y23867728D02*
X-31107157Y23629633D01*
X-31107157Y23629633D02*
X-31154776Y23439157D01*
X-31154776Y23439157D02*
X-31202395Y23343919D01*
X-31202395Y23343919D02*
X-31250014Y23296300D01*
X-31250014Y23296300D02*
X-31345252Y23248680D01*
X-31345252Y23248680D02*
X-31440490Y23248680D01*
X-31440490Y23248680D02*
X-31535728Y23296300D01*
X-31535728Y23296300D02*
X-31583347Y23343919D01*
X-31583347Y23343919D02*
X-31630966Y23439157D01*
X-31630966Y23439157D02*
X-31678585Y23629633D01*
X-31678585Y23629633D02*
X-31678585Y23867728D01*
X-31678585Y23867728D02*
X-31630966Y24058204D01*
X-31630966Y24058204D02*
X-31583347Y24153442D01*
X-31583347Y24153442D02*
X-31535728Y24201061D01*
X-31535728Y24201061D02*
X-31440490Y24248680D01*
X-30250014Y23915347D02*
X-30250014Y23248680D01*
X-30678585Y23915347D02*
X-30678585Y23391538D01*
X-30678585Y23391538D02*
X-30630966Y23296300D01*
X-30630966Y23296300D02*
X-30535728Y23248680D01*
X-30535728Y23248680D02*
X-30392871Y23248680D01*
X-30392871Y23248680D02*
X-30297633Y23296300D01*
X-30297633Y23296300D02*
X-30250014Y23343919D01*
X-29440490Y23772490D02*
X-29773823Y23772490D01*
X-29773823Y23248680D02*
X-29773823Y24248680D01*
X-29773823Y24248680D02*
X-29297633Y24248680D01*
D13*
X-31978585Y25715835D02*
X-32016681Y25677740D01*
X-32016681Y25677740D02*
X-32130966Y25639644D01*
X-32130966Y25639644D02*
X-32207157Y25639644D01*
X-32207157Y25639644D02*
X-32321443Y25677740D01*
X-32321443Y25677740D02*
X-32397633Y25753930D01*
X-32397633Y25753930D02*
X-32435728Y25830120D01*
X-32435728Y25830120D02*
X-32473824Y25982501D01*
X-32473824Y25982501D02*
X-32473824Y26096787D01*
X-32473824Y26096787D02*
X-32435728Y26249168D01*
X-32435728Y26249168D02*
X-32397633Y26325359D01*
X-32397633Y26325359D02*
X-32321443Y26401549D01*
X-32321443Y26401549D02*
X-32207157Y26439644D01*
X-32207157Y26439644D02*
X-32130966Y26439644D01*
X-32130966Y26439644D02*
X-32016681Y26401549D01*
X-32016681Y26401549D02*
X-31978585Y26363454D01*
X-31673824Y26363454D02*
X-31635728Y26401549D01*
X-31635728Y26401549D02*
X-31559538Y26439644D01*
X-31559538Y26439644D02*
X-31369062Y26439644D01*
X-31369062Y26439644D02*
X-31292871Y26401549D01*
X-31292871Y26401549D02*
X-31254776Y26363454D01*
X-31254776Y26363454D02*
X-31216681Y26287263D01*
X-31216681Y26287263D02*
X-31216681Y26211073D01*
X-31216681Y26211073D02*
X-31254776Y26096787D01*
X-31254776Y26096787D02*
X-31711919Y25639644D01*
X-31711919Y25639644D02*
X-31216681Y25639644D01*
X-30492871Y26439644D02*
X-30873823Y26439644D01*
X-30873823Y26439644D02*
X-30911919Y26058692D01*
X-30911919Y26058692D02*
X-30873823Y26096787D01*
X-30873823Y26096787D02*
X-30797633Y26134882D01*
X-30797633Y26134882D02*
X-30607157Y26134882D01*
X-30607157Y26134882D02*
X-30530966Y26096787D01*
X-30530966Y26096787D02*
X-30492871Y26058692D01*
X-30492871Y26058692D02*
X-30454776Y25982501D01*
X-30454776Y25982501D02*
X-30454776Y25792025D01*
X-30454776Y25792025D02*
X-30492871Y25715835D01*
X-30492871Y25715835D02*
X-30530966Y25677740D01*
X-30530966Y25677740D02*
X-30607157Y25639644D01*
X-30607157Y25639644D02*
X-30797633Y25639644D01*
X-30797633Y25639644D02*
X-30873823Y25677740D01*
X-30873823Y25677740D02*
X-30911919Y25715835D01*
D10*
X-22542856Y548142D02*
X-22495237Y595761D01*
X-22495237Y595761D02*
X-22399999Y643380D01*
X-22399999Y643380D02*
X-22161904Y643380D01*
X-22161904Y643380D02*
X-22066666Y595761D01*
X-22066666Y595761D02*
X-22019047Y548142D01*
X-22019047Y548142D02*
X-21971428Y452904D01*
X-21971428Y452904D02*
X-21971428Y357666D01*
X-21971428Y357666D02*
X-22019047Y214809D01*
X-22019047Y214809D02*
X-22590475Y-356619D01*
X-22590475Y-356619D02*
X-21971428Y-356619D01*
X-21590475Y548142D02*
X-21542856Y595761D01*
X-21542856Y595761D02*
X-21447618Y643380D01*
X-21447618Y643380D02*
X-21209523Y643380D01*
X-21209523Y643380D02*
X-21114285Y595761D01*
X-21114285Y595761D02*
X-21066666Y548142D01*
X-21066666Y548142D02*
X-21019047Y452904D01*
X-21019047Y452904D02*
X-21019047Y357666D01*
X-21019047Y357666D02*
X-21066666Y214809D01*
X-21066666Y214809D02*
X-21638094Y-356619D01*
X-21638094Y-356619D02*
X-21019047Y-356619D01*
X-20161904Y310047D02*
X-20161904Y-356619D01*
X-20590475Y310047D02*
X-20590475Y-213761D01*
X-20590475Y-213761D02*
X-20542856Y-309000D01*
X-20542856Y-309000D02*
X-20447618Y-356619D01*
X-20447618Y-356619D02*
X-20304761Y-356619D01*
X-20304761Y-356619D02*
X-20209523Y-309000D01*
X-20209523Y-309000D02*
X-20161904Y-261380D01*
X-19352380Y167190D02*
X-19685713Y167190D01*
X-19685713Y-356619D02*
X-19685713Y643380D01*
X-19685713Y643380D02*
X-19209523Y643380D01*
D13*
X-21414285Y2110535D02*
X-21452381Y2072440D01*
X-21452381Y2072440D02*
X-21566666Y2034344D01*
X-21566666Y2034344D02*
X-21642857Y2034344D01*
X-21642857Y2034344D02*
X-21757143Y2072440D01*
X-21757143Y2072440D02*
X-21833333Y2148630D01*
X-21833333Y2148630D02*
X-21871428Y2224820D01*
X-21871428Y2224820D02*
X-21909524Y2377201D01*
X-21909524Y2377201D02*
X-21909524Y2491487D01*
X-21909524Y2491487D02*
X-21871428Y2643868D01*
X-21871428Y2643868D02*
X-21833333Y2720059D01*
X-21833333Y2720059D02*
X-21757143Y2796249D01*
X-21757143Y2796249D02*
X-21642857Y2834344D01*
X-21642857Y2834344D02*
X-21566666Y2834344D01*
X-21566666Y2834344D02*
X-21452381Y2796249D01*
X-21452381Y2796249D02*
X-21414285Y2758154D01*
X-21109524Y2758154D02*
X-21071428Y2796249D01*
X-21071428Y2796249D02*
X-20995238Y2834344D01*
X-20995238Y2834344D02*
X-20804762Y2834344D01*
X-20804762Y2834344D02*
X-20728571Y2796249D01*
X-20728571Y2796249D02*
X-20690476Y2758154D01*
X-20690476Y2758154D02*
X-20652381Y2681963D01*
X-20652381Y2681963D02*
X-20652381Y2605773D01*
X-20652381Y2605773D02*
X-20690476Y2491487D01*
X-20690476Y2491487D02*
X-21147619Y2034344D01*
X-21147619Y2034344D02*
X-20652381Y2034344D01*
X-19966666Y2567678D02*
X-19966666Y2034344D01*
X-20157142Y2872440D02*
X-20347619Y2301011D01*
X-20347619Y2301011D02*
X-19852380Y2301011D01*
%TO.C,J5*%
D14*
X-8500000Y-33000000D02*
X8500000Y-33000000D01*
X-8500000Y-39000000D02*
X-8500000Y-33000000D01*
X8500000Y-33000000D02*
X8500000Y-39000000D01*
X8500000Y-39000000D02*
X-8500000Y-39000000D01*
%TO.C,J6*%
X15500000Y-33000000D02*
X32500000Y-33000000D01*
X15500000Y-39000000D02*
X15500000Y-33000000D01*
X32500000Y-33000000D02*
X32500000Y-39000000D01*
X32500000Y-39000000D02*
X15500000Y-39000000D01*
%TO.C,J3*%
X15500000Y38000000D02*
X32500000Y38000000D01*
X15500000Y32000000D02*
X15500000Y38000000D01*
X32500000Y38000000D02*
X32500000Y32000000D01*
X32500000Y32000000D02*
X15500000Y32000000D01*
%TO.C,J4*%
X-32500000Y-33000000D02*
X-15500000Y-33000000D01*
X-32500000Y-39000000D02*
X-32500000Y-33000000D01*
X-15500000Y-33000000D02*
X-15500000Y-39000000D01*
X-15500000Y-39000000D02*
X-32500000Y-39000000D01*
%TO.C,J1*%
X-32500000Y38000000D02*
X-15500000Y38000000D01*
X-32500000Y32000000D02*
X-32500000Y38000000D01*
X-15500000Y38000000D02*
X-15500000Y32000000D01*
X-15500000Y32000000D02*
X-32500000Y32000000D01*
%TO.C,J2*%
X-8500000Y38000000D02*
X8500000Y38000000D01*
X-8500000Y32000000D02*
X-8500000Y38000000D01*
X8500000Y38000000D02*
X8500000Y32000000D01*
X8500000Y32000000D02*
X-8500000Y32000000D01*
%TO.C,U2*%
X12000000Y3000000D02*
X18000000Y3000000D01*
X12000000Y-3000000D02*
X12000000Y3000000D01*
X18000000Y3000000D02*
X18000000Y-3000000D01*
X18000000Y-3000000D02*
X12000000Y-3000000D01*
%TO.C,U6*%
X82400000Y5600000D02*
X93600000Y5600000D01*
X82400000Y-5600000D02*
X82400000Y5600000D01*
X93600000Y5600000D02*
X93600000Y-5600000D01*
X93600000Y-5600000D02*
X82400000Y-5600000D01*
%TO.C,R2*%
X27475000Y12270000D02*
X28525000Y12270000D01*
X28525000Y11730000D01*
X27475000Y11730000D01*
X27475000Y12270000D01*
%TO.C,R1*%
X23534500Y12270000D02*
X24584500Y12270000D01*
X24584500Y11730000D01*
X23534500Y11730000D01*
X23534500Y12270000D01*
%TO.C,U3*%
X-3200000Y16500000D02*
X3200000Y16500000D01*
X-3200000Y13500000D02*
X-3200000Y16500000D01*
X3200000Y16500000D02*
X3200000Y13500000D01*
X3200000Y13500000D02*
X-3200000Y13500000D01*
%TO.C,J7*%
X-36000000Y12000000D02*
X-24000000Y12000000D01*
X-36000000Y4000000D02*
X-36000000Y12000000D01*
X-24000000Y12000000D02*
X-24000000Y4000000D01*
X-24000000Y4000000D02*
X-36000000Y4000000D01*
%TO.C,J8*%
X7000000Y-8000000D02*
X37000000Y-8000000D01*
X7000000Y-36000000D02*
X7000000Y-8000000D01*
X37000000Y-8000000D02*
X37000000Y-36000000D01*
X37000000Y-36000000D02*
X7000000Y-36000000D01*
%TO.C,D4*%
X-16700000Y10900000D02*
X-15300000Y10900000D01*
X-16700000Y9100000D02*
X-16700000Y10900000D01*
X-16350000Y10200000D02*
X-15650000Y10200000D01*
X-16350000Y9700000D02*
X-15650000Y9700000D01*
X-16000000Y10200000D02*
X-16000000Y10450000D01*
X-16000000Y9700000D02*
X-16350000Y10200000D01*
X-16000000Y9700000D02*
X-16000000Y9500000D01*
X-15650000Y10200000D02*
X-16000000Y9700000D01*
X-15300000Y10900000D02*
X-15300000Y9100000D01*
X-15300000Y9100000D02*
X-16700000Y9100000D01*
%TO.C,D1*%
X-18972000Y22701800D02*
X-17572000Y22701800D01*
X-18972000Y20901800D02*
X-18972000Y22701800D01*
X-18622000Y22001800D02*
X-17922000Y22001800D01*
X-18622000Y21501800D02*
X-17922000Y21501800D01*
X-18272000Y22001800D02*
X-18272000Y22251800D01*
X-18272000Y21501800D02*
X-18622000Y22001800D01*
X-18272000Y21501800D02*
X-18272000Y21301800D01*
X-17922000Y22001800D02*
X-18272000Y21501800D01*
X-17572000Y22701800D02*
X-17572000Y20901800D01*
X-17572000Y20901800D02*
X-18972000Y20901800D01*
%TO.C,D2*%
X-19226700Y10900000D02*
X-17826700Y10900000D01*
X-19226700Y9100000D02*
X-19226700Y10900000D01*
X-18876700Y10200000D02*
X-18176700Y10200000D01*
X-18876700Y9700000D02*
X-18176700Y9700000D01*
X-18526700Y10200000D02*
X-18526700Y10450000D01*
X-18526700Y9700000D02*
X-18876700Y10200000D01*
X-18526700Y9700000D02*
X-18526700Y9500000D01*
X-18176700Y10200000D02*
X-18526700Y9700000D01*
X-17826700Y10900000D02*
X-17826700Y9100000D01*
X-17826700Y9100000D02*
X-19226700Y9100000D01*
%TO.C,D3*%
X-16700000Y19507100D02*
X-15300000Y19507100D01*
X-16700000Y17707100D02*
X-16700000Y19507100D01*
X-16350000Y18807100D02*
X-15650000Y18807100D01*
X-16350000Y18307100D02*
X-15650000Y18307100D01*
X-16000000Y18807100D02*
X-16000000Y19057100D01*
X-16000000Y18307100D02*
X-16350000Y18807100D01*
X-16000000Y18307100D02*
X-16000000Y18107100D01*
X-15650000Y18807100D02*
X-16000000Y18307100D01*
X-15300000Y19507100D02*
X-15300000Y17707100D01*
X-15300000Y17707100D02*
X-16700000Y17707100D01*
%TO.C,C2*%
X-8500000Y250000D02*
X-7500000Y250000D01*
X-7500000Y-250000D01*
X-8500000Y-250000D01*
X-8500000Y250000D01*
%TO.C,C5*%
X7500000Y-591700D02*
X8500000Y-591700D01*
X8500000Y-1091700D01*
X7500000Y-1091700D01*
X7500000Y-591700D01*
%TO.C,C6*%
X7500000Y8250000D02*
X8500000Y8250000D01*
X8500000Y7750000D01*
X7500000Y7750000D01*
X7500000Y8250000D01*
%TO.C,C3*%
X-8500000Y-4750000D02*
X-7500000Y-4750000D01*
X-7500000Y-5250000D01*
X-8500000Y-5250000D01*
X-8500000Y-4750000D01*
%TO.C,C4*%
X-500000Y-7750000D02*
X500000Y-7750000D01*
X500000Y-8250000D01*
X-500000Y-8250000D01*
X-500000Y-7750000D01*
%TO.C,C10*%
X-3238100Y8893500D02*
X-2238100Y8893500D01*
X-2238100Y8393500D01*
X-3238100Y8393500D01*
X-3238100Y8893500D01*
%TO.C,C11*%
X2131000Y8893500D02*
X3131000Y8893500D01*
X3131000Y8393500D01*
X2131000Y8393500D01*
X2131000Y8893500D01*
%TO.C,C12*%
X9500000Y12766500D02*
X10500000Y12766500D01*
X10500000Y12266500D01*
X9500000Y12266500D01*
X9500000Y12766500D01*
%TO.C,C1*%
X-8500000Y5250000D02*
X-7500000Y5250000D01*
X-7500000Y4750000D01*
X-8500000Y4750000D01*
X-8500000Y5250000D01*
%TO.C,C9*%
X21500000Y-591700D02*
X22500000Y-591700D01*
X22500000Y-1091700D01*
X21500000Y-1091700D01*
X21500000Y-591700D01*
%TO.C,C7*%
X14500000Y-3090000D02*
X15500000Y-3090000D01*
X15500000Y-3590000D01*
X14500000Y-3590000D01*
X14500000Y-3090000D01*
%TO.C,C8*%
X21500000Y3924800D02*
X22500000Y3924800D01*
X22500000Y3424800D01*
X21500000Y3424800D01*
X21500000Y3924800D01*
%TO.C,U7*%
X-31500000Y-23500000D02*
X-28500000Y-23500000D01*
X-31500000Y-26500000D02*
X-31500000Y-23500000D01*
X-28500000Y-23500000D02*
X-28500000Y-26500000D01*
X-28500000Y-26500000D02*
X-31500000Y-26500000D01*
%TO.C,U8*%
X-1500000Y-28500000D02*
X1500000Y-28500000D01*
X-1500000Y-31500000D02*
X-1500000Y-28500000D01*
X1500000Y-28500000D02*
X1500000Y-31500000D01*
X1500000Y-31500000D02*
X-1500000Y-31500000D01*
%TO.C,U9*%
X28500000Y-23500000D02*
X31500000Y-23500000D01*
X28500000Y-26500000D02*
X28500000Y-23500000D01*
X31500000Y-23500000D02*
X31500000Y-26500000D01*
X31500000Y-26500000D02*
X28500000Y-26500000D01*
%TO.C,U10*%
X30500000Y1500000D02*
X33500000Y1500000D01*
X30500000Y-1500000D02*
X30500000Y1500000D01*
X33500000Y1500000D02*
X33500000Y-1500000D01*
X33500000Y-1500000D02*
X30500000Y-1500000D01*
%TO.C,U4*%
X-27000000Y27000000D02*
X-23000000Y27000000D01*
X-27000000Y23000000D02*
X-27000000Y27000000D01*
X-23000000Y27000000D02*
X-23000000Y23000000D01*
X-23000000Y23000000D02*
X-27000000Y23000000D01*
%TO.C,U5*%
X-28000000Y15000000D02*
X-22000000Y15000000D01*
X-28000000Y9000000D02*
X-28000000Y15000000D01*
X-22000000Y15000000D02*
X-22000000Y9000000D01*
X-22000000Y9000000D02*
X-28000000Y9000000D01*
%TO.C,U1*%
X-3500000Y3500000D02*
X3500000Y3500000D01*
X-3500000Y-3500000D02*
X-3500000Y3500000D01*
X3500000Y3500000D02*
X3500000Y-3500000D01*
X3500000Y-3500000D02*
X-3500000Y-3500000D01*
%TO.C,C23*%
X-11793400Y20625000D02*
X-9793400Y20625000D01*
X-9793400Y19375000D01*
X-11793400Y19375000D01*
X-11793400Y20625000D01*
%TO.C,C21*%
X-17739900Y20625000D02*
X-15739900Y20625000D01*
X-15739900Y19375000D01*
X-17739900Y19375000D01*
X-17739900Y20625000D01*
%TO.C,C20*%
X-19416700Y26414000D02*
X-17416700Y26414000D01*
X-17416700Y25164000D01*
X-19416700Y25164000D01*
X-19416700Y26414000D01*
%TO.C,C22*%
X-15000000Y26414000D02*
X-13000000Y26414000D01*
X-13000000Y25164000D01*
X-15000000Y25164000D01*
X-15000000Y26414000D01*
%TO.C,L1*%
X-34600000Y21250000D02*
X-31400000Y21250000D01*
X-31400000Y18750000D01*
X-34600000Y18750000D01*
X-34600000Y21250000D01*
%TO.C,J9*%
X102000000Y11500000D02*
X108000000Y11500000D01*
X102000000Y-11500000D02*
X102000000Y11500000D01*
X108000000Y11500000D02*
X108000000Y-11500000D01*
X108000000Y-11500000D02*
X102000000Y-11500000D01*
%TO.C,C25*%
X-33064300Y27253500D02*
X-29864300Y27253500D01*
X-29864300Y24753500D01*
X-33064300Y24753500D01*
X-33064300Y27253500D01*
%TO.C,C24*%
X-22500000Y3648200D02*
X-19300000Y3648200D01*
X-19300000Y1148200D01*
X-22500000Y1148200D01*
X-22500000Y3648200D01*
%TD*%
M02*
