%TF.GenerationSoftware,KiCad,Pcbnew,10.0.5*%
%TF.CreationDate,2026-08-04T17:35:45-07:00*%
%TF.ProjectId,palpod-orb-real,70616c70-6f64-42d6-9f72-622d7265616c,A0*%
%TF.SameCoordinates,Original*%
%TF.FileFunction,Copper,L6,Bot*%
%TF.FilePolarity,Positive*%
%FSLAX46Y46*%
G04 Gerber Fmt 4.6, Leading zero omitted, Abs format (unit mm)*
G04 Created by KiCad (PCBNEW 10.0.5) date 2026-08-04 17:35:45*
%MOMM*%
%LPD*%
G01*
G04 APERTURE LIST*
%TA.AperFunction,ComponentPad*%
%ADD10R,0.700000X3.000000*%
%TD*%
%TA.AperFunction,ComponentPad*%
%ADD11C,2.600000*%
%TD*%
%TA.AperFunction,ViaPad*%
%ADD12C,0.300000*%
%TD*%
%TA.AperFunction,ViaPad*%
%ADD13C,0.450000*%
%TD*%
%TA.AperFunction,ViaPad*%
%ADD14C,0.600000*%
%TD*%
%TA.AperFunction,ViaPad*%
%ADD15C,0.800000*%
%TD*%
%TA.AperFunction,ViaPad*%
%ADD16C,0.400000*%
%TD*%
%TA.AperFunction,Conductor*%
%ADD17C,0.100000*%
%TD*%
%TA.AperFunction,Conductor*%
%ADD18C,0.150000*%
%TD*%
%TA.AperFunction,Conductor*%
%ADD19C,0.400000*%
%TD*%
%TA.AperFunction,Conductor*%
%ADD20C,0.600000*%
%TD*%
%TA.AperFunction,Conductor*%
%ADD21C,0.140000*%
%TD*%
G04 APERTURE END LIST*
D10*
%TO.P,J7,1*%
%TO.N,+5V*%
X-34500000Y8000000D03*
%TO.P,J7,2*%
%TO.N,GND*%
X-33500000Y8000000D03*
%TO.P,J7,3*%
%TO.N,LIDAR_UART_TX*%
X-32500000Y8000000D03*
%TO.P,J7,4*%
%TO.N,LIDAR_UART_RX*%
X-31500000Y8000000D03*
%TO.P,J7,5*%
%TO.N,LIDAR_MOTOR_PWM*%
X-30500000Y8000000D03*
%TO.P,J7,6*%
%TO.N,LIDAR_SYNC*%
X-29500000Y8000000D03*
%TO.P,J7,7*%
%TO.N,+3V3*%
X-28500000Y8000000D03*
%TO.P,J7,8*%
X-27500000Y8000000D03*
%TO.P,J7,9*%
%TO.N,N/C*%
X-26500000Y8000000D03*
%TO.P,J7,10*%
X-25500000Y8000000D03*
%TD*%
D11*
%TO.P,J8,MTG*%
%TO.N,N/C*%
X34000000Y-22000000D03*
%TD*%
D12*
%TO.N,CAM6_D0_P*%
X18127300Y-38389300D03*
X12374800Y3000D03*
D13*
%TO.N,GND*%
X13969600Y-37139800D03*
X17892700Y-37637500D03*
D14*
%TO.N,+3V3*%
X-24280000Y8303700D03*
%TO.N,+1V8*%
X7024300Y-2253400D03*
X6734700Y9355700D03*
X15500300Y2915600D03*
D12*
%TO.N,CAM3_D0_N*%
X16847000Y32151700D03*
X17647100Y-110700D03*
%TO.N,CAM3_CLK_P*%
X17866400Y-641300D03*
X18112900Y30201400D03*
D14*
%TO.N,+5V*%
X-26552800Y11348400D03*
D13*
%TO.N,LIDAR_UART_TX*%
X-2150300Y-1540700D03*
%TO.N,LIDAR_UART_RX*%
X-2546500Y-2000000D03*
%TO.N,LIDAR_MOTOR_PWM*%
X-2156100Y-2461200D03*
%TO.N,WIFI_UART_RX*%
X4170600Y-28000000D03*
X2040200Y-742200D03*
%TO.N,WIFI_UART_TX*%
X2613800Y400000D03*
X4513900Y-27000000D03*
%TO.N,WIFI_WAKE_N*%
X6482800Y-25990600D03*
X4706500Y-332700D03*
%TO.N,WIFI_PERST_N*%
X4066400Y-800000D03*
X5754200Y-25000000D03*
D15*
%TO.N,COIL_AC2*%
X-20022800Y11348400D03*
X-23152700Y13250000D03*
D13*
%TO.N,+BATT*%
X-31984100Y26003500D03*
X-22534900Y24440000D03*
D16*
%TO.N,DSI_CLK_P*%
X17867400Y-6057700D03*
X10616100Y1200000D03*
%TO.N,DSI_CLK_N*%
X10857700Y362000D03*
X17869600Y-6841600D03*
%TD*%
%TO.N,CAM6_D0_P*%
D17*
X18127300Y-38389300D02*
X18320000Y-38196600D01*
X18320000Y-38196600D02*
X18320000Y-5942200D01*
X18320000Y-5942200D02*
X12374800Y3000D01*
%TO.N,GND*%
D18*
X17892700Y-37637500D02*
X14467300Y-37637500D01*
X14467300Y-37637500D02*
X13969600Y-37139800D01*
%TO.N,+3V3*%
D19*
X-24921700Y9901700D02*
X-24280000Y9260000D01*
X-27500000Y8000000D02*
X-27500000Y9901700D01*
X-24280000Y9260000D02*
X-24280000Y8303700D01*
X-27500000Y9901700D02*
X-24921700Y9901700D01*
%TO.N,+1V8*%
X7024300Y2915600D02*
X6734700Y3205200D01*
X7024300Y2915600D02*
X7024300Y-2253400D01*
X6734700Y3205200D02*
X6734700Y9355700D01*
X15500300Y2915600D02*
X7024300Y2915600D01*
%TO.N,CAM3_D0_N*%
D17*
X16847000Y689400D02*
X16847000Y32151700D01*
X17647100Y-110700D02*
X16847000Y689400D01*
%TO.N,CAM3_CLK_P*%
X18112900Y-394800D02*
X17866400Y-641300D01*
X18112900Y30201400D02*
X18112900Y-394800D01*
%TO.N,+5V*%
D19*
X-26552800Y11348400D02*
X-33053300Y11348400D01*
X-34500000Y8000000D02*
X-34500000Y9901700D01*
X-33053300Y11348400D02*
X-34500000Y9901700D01*
%TO.N,LIDAR_UART_TX*%
D18*
X-31487000Y10739700D02*
X-32500000Y9726700D01*
X-8090600Y-1540700D02*
X-20371000Y10739700D01*
X-2150300Y-1540700D02*
X-8090600Y-1540700D01*
X-32500000Y8000000D02*
X-32500000Y9726700D01*
X-20371000Y10739700D02*
X-31487000Y10739700D01*
%TO.N,LIDAR_UART_RX*%
X-31500000Y8000000D02*
X-31500000Y9726700D01*
X-30844300Y10382400D02*
X-31500000Y9726700D01*
X-8058000Y-2000000D02*
X-20440400Y10382400D01*
X-2546500Y-2000000D02*
X-8058000Y-2000000D01*
X-20440400Y10382400D02*
X-30844300Y10382400D01*
%TO.N,LIDAR_MOTOR_PWM*%
X-30500000Y6273300D02*
X-21765500Y-2461200D01*
X-30500000Y8000000D02*
X-30500000Y6273300D01*
X-21765500Y-2461200D02*
X-2156100Y-2461200D01*
%TO.N,WIFI_UART_RX*%
X2040200Y-25869600D02*
X4170600Y-28000000D01*
X2040200Y-742200D02*
X2040200Y-25869600D01*
%TO.N,WIFI_UART_TX*%
X4513900Y-27000000D02*
X2613800Y-25099900D01*
X2613800Y-25099900D02*
X2613800Y400000D01*
%TO.N,WIFI_WAKE_N*%
X4706500Y-2025400D02*
X6482800Y-3801700D01*
X6482800Y-3801700D02*
X6482800Y-25990600D01*
X4706500Y-332700D02*
X4706500Y-2025400D01*
%TO.N,WIFI_PERST_N*%
X4066400Y-800000D02*
X4066400Y-23312200D01*
X4066400Y-23312200D02*
X5754200Y-25000000D01*
%TO.N,COIL_AC2*%
D20*
X-21924400Y13250000D02*
X-23152700Y13250000D01*
X-20022800Y11348400D02*
X-21924400Y13250000D01*
%TO.N,+BATT*%
D18*
X-22534900Y24440000D02*
X-30420600Y24440000D01*
X-30420600Y24440000D02*
X-31984100Y26003500D01*
%TO.N,DSI_CLK_P*%
D21*
X17867400Y-6057700D02*
X17867400Y-6051300D01*
X17867400Y-6051300D02*
X10616100Y1200000D01*
%TO.N,DSI_CLK_N*%
X10857700Y170300D02*
X10857700Y362000D01*
X17869600Y-6841600D02*
X10857700Y170300D01*
%TD*%
M02*
