%TF.GenerationSoftware,KiCad,Pcbnew,10.0.5*%
%TF.CreationDate,2026-08-04T17:35:45-07:00*%
%TF.ProjectId,palpod-orb-real,70616c70-6f64-42d6-9f72-622d7265616c,A0*%
%TF.SameCoordinates,Original*%
%TF.FileFunction,Copper,L3,Inr*%
%TF.FilePolarity,Positive*%
%FSLAX46Y46*%
G04 Gerber Fmt 4.6, Leading zero omitted, Abs format (unit mm)*
G04 Created by KiCad (PCBNEW 10.0.5) date 2026-08-04 17:35:45*
%MOMM*%
%LPD*%
G01*
G04 APERTURE LIST*
%TA.AperFunction,ComponentPad*%
%ADD10R,0.700000X3.000000*%
%TD*%
%TA.AperFunction,ComponentPad*%
%ADD11C,2.600000*%
%TD*%
%TA.AperFunction,ViaPad*%
%ADD12C,0.300000*%
%TD*%
%TA.AperFunction,ViaPad*%
%ADD13C,0.450000*%
%TD*%
%TA.AperFunction,ViaPad*%
%ADD14C,0.600000*%
%TD*%
%TA.AperFunction,ViaPad*%
%ADD15C,0.800000*%
%TD*%
%TA.AperFunction,ViaPad*%
%ADD16C,0.400000*%
%TD*%
G04 APERTURE END LIST*
D10*
%TO.N,+5V*%
%TO.C,J7*%
X-34500000Y8000000D03*
%TO.N,GND*%
X-33500000Y8000000D03*
%TO.N,LIDAR_UART_TX*%
X-32500000Y8000000D03*
%TO.N,LIDAR_UART_RX*%
X-31500000Y8000000D03*
%TO.N,LIDAR_MOTOR_PWM*%
X-30500000Y8000000D03*
%TO.N,LIDAR_SYNC*%
X-29500000Y8000000D03*
%TO.N,+3V3*%
X-28500000Y8000000D03*
X-27500000Y8000000D03*
%TO.N,N/C*%
X-26500000Y8000000D03*
X-25500000Y8000000D03*
%TD*%
D11*
%TO.N,N/C*%
%TO.C,J8*%
X34000000Y-22000000D03*
%TD*%
D12*
%TO.N,CAM6_D0_P*%
X18127300Y-38389300D03*
X12374800Y3000D03*
D13*
%TO.N,GND*%
X13969600Y-37139800D03*
X17892700Y-37637500D03*
D14*
%TO.N,+3V3*%
X-24280000Y8303700D03*
%TO.N,+1V8*%
X7024300Y-2253400D03*
X6734700Y9355700D03*
X15500300Y2915600D03*
D12*
%TO.N,CAM3_D0_N*%
X16847000Y32151700D03*
X17647100Y-110700D03*
%TO.N,CAM3_CLK_P*%
X17866400Y-641300D03*
X18112900Y30201400D03*
D14*
%TO.N,+5V*%
X-26552800Y11348400D03*
D13*
%TO.N,LIDAR_UART_TX*%
X-2150300Y-1540700D03*
%TO.N,LIDAR_UART_RX*%
X-2546500Y-2000000D03*
%TO.N,LIDAR_MOTOR_PWM*%
X-2156100Y-2461200D03*
%TO.N,WIFI_UART_RX*%
X4170600Y-28000000D03*
X2040200Y-742200D03*
%TO.N,WIFI_UART_TX*%
X2613800Y400000D03*
X4513900Y-27000000D03*
%TO.N,WIFI_WAKE_N*%
X6482800Y-25990600D03*
X4706500Y-332700D03*
%TO.N,WIFI_PERST_N*%
X4066400Y-800000D03*
X5754200Y-25000000D03*
D15*
%TO.N,COIL_AC2*%
X-20022800Y11348400D03*
X-23152700Y13250000D03*
D13*
%TO.N,+BATT*%
X-31984100Y26003500D03*
X-22534900Y24440000D03*
D16*
%TO.N,DSI_CLK_P*%
X17867400Y-6057700D03*
X10616100Y1200000D03*
%TO.N,DSI_CLK_N*%
X10857700Y362000D03*
X17869600Y-6841600D03*
%TD*%
M02*
