M48
; DRILL file KiCad 10.0.5 date 2026-08-04T17:35:45
; FORMAT={-:-/ absolute / metric / decimal}
; #@! TF.CreationDate,2026-08-04T17:35:45-07:00
; #@! TF.GenerationSoftware,Kicad,Pcbnew,10.0.5
; #@! TF.FileFunction,MixedPlating,1,6
FMAT,2
METRIC
; #@! TA.AperFunction,Plated,PTH,ViaDrill
T1C0.150
; #@! TA.AperFunction,Plated,PTH,ViaDrill
T2C0.200
; #@! TA.AperFunction,Plated,PTH,ViaDrill
T3C0.300
; #@! TA.AperFunction,Plated,PTH,ViaDrill
T4C0.400
; #@! TA.AperFunction,Plated,PTH,ComponentDrill
T5C1.000
; #@! TA.AperFunction,Plated,PTH,ComponentDrill
T6C1.700
%
G90
G05
T1
X12.375Y0.003
X16.847Y32.152
X17.647Y-0.111
X17.866Y-0.641
X18.113Y30.201
X18.127Y-38.389
T2
X-31.984Y26.003
X-22.535Y24.44
X-2.546Y-2.0
X-2.156Y-2.461
X-2.15Y-1.541
X2.04Y-0.742
X2.614Y0.4
X4.066Y-0.8
X4.171Y-28.0
X4.514Y-27.0
X4.707Y-0.333
X5.754Y-25.0
X6.483Y-25.991
X10.616Y1.2
X10.858Y0.362
X13.97Y-37.14
X17.867Y-6.058
X17.87Y-6.842
X17.893Y-37.637
T3
X-26.553Y11.348
X-24.28Y8.304
X6.735Y9.356
X7.024Y-2.253
X15.5Y2.916
T4
X-23.153Y13.25
X-20.023Y11.348
T5
X-34.5Y8.0
X-33.5Y8.0
X-32.5Y8.0
X-31.5Y8.0
X-30.5Y8.0
X-29.5Y8.0
X-28.5Y8.0
X-27.5Y8.0
X-26.5Y8.0
X-25.5Y8.0
T6
X34.0Y-22.0
M30
