%TF.GenerationSoftware,KiCad,Pcbnew,10.0.5*%
%TF.CreationDate,2026-08-04T17:22:55-07:00*%
%TF.ProjectId,palpod-extender-sbc-real,70616c70-6f64-42d6-9578-74656e646572,A0*%
%TF.SameCoordinates,Original*%
%TF.FileFunction,Soldermask,Top*%
%TF.FilePolarity,Negative*%
%FSLAX46Y46*%
G04 Gerber Fmt 4.6, Leading zero omitted, Abs format (unit mm)*
G04 Created by KiCad (PCBNEW 10.0.5) date 2026-08-04 17:22:55*
%MOMM*%
%LPD*%
G01*
G04 APERTURE LIST*
G04 Aperture macros list*
%AMRoundRect*
0 Rectangle with rounded corners*
0 $1 Rounding radius*
0 $2 $3 $4 $5 $6 $7 $8 $9 X,Y pos of 4 corners*
0 Add a 4 corners polygon primitive as box body*
4,1,4,$2,$3,$4,$5,$6,$7,$8,$9,$2,$3,0*
0 Add four circle primitives for the rounded corners*
1,1,$1+$1,$2,$3*
1,1,$1+$1,$4,$5*
1,1,$1+$1,$6,$7*
1,1,$1+$1,$8,$9*
0 Add four rect primitives between the rounded corners*
20,1,$1+$1,$2,$3,$4,$5,0*
20,1,$1+$1,$4,$5,$6,$7,0*
20,1,$1+$1,$6,$7,$8,$9,0*
20,1,$1+$1,$8,$9,$2,$3,0*%
G04 Aperture macros list end*
%ADD10C,0.280000*%
%ADD11RoundRect,0.135000X-0.135000X-0.185000X0.135000X-0.185000X0.135000X0.185000X-0.135000X0.185000X0*%
%ADD12C,3.170000*%
%ADD13RoundRect,0.140000X-1.130000X0.140000X-1.130000X-0.140000X1.130000X-0.140000X1.130000X0.140000X0*%
%ADD14RoundRect,0.250000X-1.145000X0.955000X-1.145000X-0.955000X1.145000X-0.955000X1.145000X0.955000X0*%
%ADD15RoundRect,0.250000X-0.955000X1.920000X-0.955000X-1.920000X0.955000X-1.920000X0.955000X1.920000X0*%
%ADD16C,1.600000*%
%ADD17R,2.000000X4.000000*%
%ADD18O,2.000000X3.300000*%
%ADD19O,3.500000X2.000000*%
%ADD20C,0.400000*%
%ADD21R,0.300000X2.600000*%
%ADD22O,1.500000X3.300000*%
%ADD23O,1.500000X2.300000*%
%ADD24C,0.650000*%
%ADD25RoundRect,0.150000X-0.150000X-0.425000X0.150000X-0.425000X0.150000X0.425000X-0.150000X0.425000X0*%
%ADD26RoundRect,0.075000X-0.075000X-0.500000X0.075000X-0.500000X0.075000X0.500000X-0.075000X0.500000X0*%
%ADD27O,1.000000X2.100000*%
%ADD28O,1.000000X1.800000*%
%ADD29RoundRect,0.062500X-0.237500X-0.062500X0.237500X-0.062500X0.237500X0.062500X-0.237500X0.062500X0*%
%ADD30RoundRect,0.062500X-0.062500X-0.237500X0.062500X-0.237500X0.062500X0.237500X-0.062500X0.237500X0*%
%ADD31R,4.500000X4.500000*%
%ADD32RoundRect,0.250000X-0.350000X0.350000X-0.350000X-0.350000X0.350000X-0.350000X0.350000X0.350000X0*%
%ADD33C,1.200000*%
%ADD34O,2.400000X1.200000*%
%ADD35O,2.100000X1.200000*%
%ADD36RoundRect,0.250000X0.350000X-0.350000X0.350000X0.350000X-0.350000X0.350000X-0.350000X-0.350000X0*%
%ADD37C,0.240000*%
%ADD38RoundRect,0.062500X-0.350000X-0.062500X0.350000X-0.062500X0.350000X0.062500X-0.350000X0.062500X0*%
%ADD39RoundRect,0.062500X-0.062500X-0.350000X0.062500X-0.350000X0.062500X0.350000X-0.062500X0.350000X0*%
%ADD40R,3.600000X3.600000*%
%ADD41RoundRect,0.087500X-0.412500X-0.087500X0.412500X-0.087500X0.412500X0.087500X-0.412500X0.087500X0*%
%ADD42RoundRect,0.087500X-0.087500X-0.412500X0.087500X-0.412500X0.087500X0.412500X-0.087500X0.412500X0*%
%ADD43R,5.000000X5.000000*%
%ADD44RoundRect,0.225000X-0.225000X-0.250000X0.225000X-0.250000X0.225000X0.250000X-0.225000X0.250000X0*%
%ADD45RoundRect,0.062500X-0.187500X-0.062500X0.187500X-0.062500X0.187500X0.062500X-0.187500X0.062500X0*%
%ADD46RoundRect,0.062500X-0.062500X-0.187500X0.062500X-0.187500X0.062500X0.187500X-0.062500X0.187500X0*%
%ADD47R,2.500000X2.500000*%
%ADD48RoundRect,0.125000X-0.625000X-0.125000X0.625000X-0.125000X0.625000X0.125000X-0.625000X0.125000X0*%
%ADD49RoundRect,0.125000X-0.125000X-0.625000X0.125000X-0.625000X0.125000X0.625000X-0.125000X0.625000X0*%
%ADD50RoundRect,0.050000X-0.200000X-0.050000X0.200000X-0.050000X0.200000X0.050000X-0.200000X0.050000X0*%
%ADD51RoundRect,0.050000X-0.050000X-0.200000X0.050000X-0.200000X0.050000X0.200000X-0.050000X0.200000X0*%
%ADD52C,2.400000*%
%ADD53R,0.350000X3.000000*%
G04 APERTURE END LIST*
D10*
%TO.C,U3*%
X48000000Y-18500000D03*
X48500000Y-18500000D03*
X49000000Y-18500000D03*
X49500000Y-18500000D03*
X50000000Y-18500000D03*
X50500000Y-18500000D03*
X51000000Y-18500000D03*
X51500000Y-18500000D03*
X48000000Y-19000000D03*
X48500000Y-19000000D03*
X49000000Y-19000000D03*
X49500000Y-19000000D03*
X50000000Y-19000000D03*
X50500000Y-19000000D03*
X51000000Y-19000000D03*
X51500000Y-19000000D03*
X48000000Y-19500000D03*
X48500000Y-19500000D03*
X49000000Y-19500000D03*
X49500000Y-19500000D03*
X50000000Y-19500000D03*
X50500000Y-19500000D03*
X51000000Y-19500000D03*
X51500000Y-19500000D03*
X48000000Y-20000000D03*
X48500000Y-20000000D03*
X49000000Y-20000000D03*
X49500000Y-20000000D03*
X50000000Y-20000000D03*
X50500000Y-20000000D03*
X51000000Y-20000000D03*
X51500000Y-20000000D03*
X48000000Y-20500000D03*
X48500000Y-20500000D03*
X49000000Y-20500000D03*
X49500000Y-20500000D03*
X50000000Y-20500000D03*
X50500000Y-20500000D03*
X51000000Y-20500000D03*
X51500000Y-20500000D03*
X45500000Y-21000000D03*
X46000000Y-21000000D03*
X46500000Y-21000000D03*
X47000000Y-21000000D03*
X47500000Y-21000000D03*
X48000000Y-21000000D03*
X48500000Y-21000000D03*
X49000000Y-21000000D03*
X49500000Y-21000000D03*
X50000000Y-21000000D03*
X50500000Y-21000000D03*
X51000000Y-21000000D03*
X51500000Y-21000000D03*
X52000000Y-21000000D03*
X52500000Y-21000000D03*
X53000000Y-21000000D03*
X53500000Y-21000000D03*
X54000000Y-21000000D03*
X45500000Y-21500000D03*
X46000000Y-21500000D03*
X46500000Y-21500000D03*
X47000000Y-21500000D03*
X47500000Y-21500000D03*
X48000000Y-21500000D03*
X48500000Y-21500000D03*
X49000000Y-21500000D03*
X49500000Y-21500000D03*
X50000000Y-21500000D03*
X50500000Y-21500000D03*
X51000000Y-21500000D03*
X51500000Y-21500000D03*
X52000000Y-21500000D03*
X52500000Y-21500000D03*
X53000000Y-21500000D03*
X53500000Y-21500000D03*
X54000000Y-21500000D03*
X45500000Y-22000000D03*
X46000000Y-22000000D03*
X46500000Y-22000000D03*
X47000000Y-22000000D03*
X47500000Y-22000000D03*
X48000000Y-22000000D03*
X48500000Y-22000000D03*
X49000000Y-22000000D03*
X49500000Y-22000000D03*
X50000000Y-22000000D03*
X50500000Y-22000000D03*
X51000000Y-22000000D03*
X51500000Y-22000000D03*
X52000000Y-22000000D03*
X52500000Y-22000000D03*
X53000000Y-22000000D03*
X53500000Y-22000000D03*
X54000000Y-22000000D03*
X45500000Y-22500000D03*
X46000000Y-22500000D03*
X46500000Y-22500000D03*
X47000000Y-22500000D03*
X47500000Y-22500000D03*
X48000000Y-22500000D03*
X48500000Y-22500000D03*
X49000000Y-22500000D03*
X49500000Y-22500000D03*
X50000000Y-22500000D03*
X50500000Y-22500000D03*
X51000000Y-22500000D03*
X51500000Y-22500000D03*
X52000000Y-22500000D03*
X52500000Y-22500000D03*
X53000000Y-22500000D03*
X53500000Y-22500000D03*
X54000000Y-22500000D03*
X45500000Y-23000000D03*
X46000000Y-23000000D03*
X46500000Y-23000000D03*
X47000000Y-23000000D03*
X47500000Y-23000000D03*
X48000000Y-23000000D03*
X48500000Y-23000000D03*
X49000000Y-23000000D03*
X49500000Y-23000000D03*
X50000000Y-23000000D03*
X50500000Y-23000000D03*
X51000000Y-23000000D03*
X51500000Y-23000000D03*
X52000000Y-23000000D03*
X52500000Y-23000000D03*
X53000000Y-23000000D03*
X53500000Y-23000000D03*
X54000000Y-23000000D03*
X45500000Y-23500000D03*
X46000000Y-23500000D03*
X46500000Y-23500000D03*
X47000000Y-23500000D03*
X47500000Y-23500000D03*
X48000000Y-23500000D03*
X48500000Y-23500000D03*
X49000000Y-23500000D03*
X49500000Y-23500000D03*
X50000000Y-23500000D03*
X50500000Y-23500000D03*
X51000000Y-23500000D03*
X51500000Y-23500000D03*
X52000000Y-23500000D03*
X52500000Y-23500000D03*
X53000000Y-23500000D03*
X53500000Y-23500000D03*
X54000000Y-23500000D03*
X45500000Y-24000000D03*
X46000000Y-24000000D03*
X46500000Y-24000000D03*
X47000000Y-24000000D03*
X47500000Y-24000000D03*
X48000000Y-24000000D03*
X48500000Y-24000000D03*
X49000000Y-24000000D03*
X49500000Y-24000000D03*
X50000000Y-24000000D03*
X50500000Y-24000000D03*
X51000000Y-24000000D03*
X51500000Y-24000000D03*
X52000000Y-24000000D03*
X52500000Y-24000000D03*
X53000000Y-24000000D03*
X53500000Y-24000000D03*
X54000000Y-24000000D03*
X45500000Y-24500000D03*
X46000000Y-24500000D03*
X46500000Y-24500000D03*
X47000000Y-24500000D03*
X47500000Y-24500000D03*
X48000000Y-24500000D03*
X48500000Y-24500000D03*
X49000000Y-24500000D03*
X49500000Y-24500000D03*
X50000000Y-24500000D03*
X50500000Y-24500000D03*
X51000000Y-24500000D03*
X51500000Y-24500000D03*
X52000000Y-24500000D03*
X52500000Y-24500000D03*
X53000000Y-24500000D03*
X53500000Y-24500000D03*
X54000000Y-24500000D03*
X48000000Y-25000000D03*
X48500000Y-25000000D03*
X49000000Y-25000000D03*
X49500000Y-25000000D03*
X50000000Y-25000000D03*
X50500000Y-25000000D03*
X51000000Y-25000000D03*
X51500000Y-25000000D03*
X48000000Y-25500000D03*
X48500000Y-25500000D03*
X49000000Y-25500000D03*
X49500000Y-25500000D03*
X50000000Y-25500000D03*
X50500000Y-25500000D03*
X51000000Y-25500000D03*
X51500000Y-25500000D03*
X48000000Y-26000000D03*
X48500000Y-26000000D03*
X49000000Y-26000000D03*
X49500000Y-26000000D03*
X50000000Y-26000000D03*
X50500000Y-26000000D03*
X51000000Y-26000000D03*
X51500000Y-26000000D03*
X48000000Y-26500000D03*
X48500000Y-26500000D03*
X49000000Y-26500000D03*
X49500000Y-26500000D03*
X50000000Y-26500000D03*
X50500000Y-26500000D03*
X51000000Y-26500000D03*
X51500000Y-26500000D03*
X48000000Y-27000000D03*
X48500000Y-27000000D03*
X49000000Y-27000000D03*
X49500000Y-27000000D03*
X50000000Y-27000000D03*
X50500000Y-27000000D03*
X51000000Y-27000000D03*
X51500000Y-27000000D03*
%TD*%
D11*
%TO.C,R1*%
X74490000Y-22333500D03*
X75510000Y-22333500D03*
%TD*%
%TO.C,R4*%
X80788178Y-62000000D03*
X81808178Y-62000000D03*
%TD*%
%TO.C,R3*%
X82118571Y-25000000D03*
X83138571Y-25000000D03*
%TD*%
%TO.C,R2*%
X77490000Y-22333500D03*
X78510000Y-22333500D03*
%TD*%
D12*
%TO.C,J2*%
X93010000Y-56285000D03*
X93010000Y-67715000D03*
D13*
X106340000Y-55655000D03*
X106340000Y-56925000D03*
X106340000Y-58195000D03*
X106340000Y-59465000D03*
X106340000Y-60735000D03*
X106340000Y-62005000D03*
X106340000Y-64545000D03*
X106340000Y-65815000D03*
X106340000Y-67085000D03*
X106340000Y-68355000D03*
D14*
X96665000Y-55525000D03*
D15*
X86955000Y-57415000D03*
X86955000Y-66585000D03*
D14*
X96665000Y-68475000D03*
%TD*%
D16*
%TO.C,J6*%
X13000000Y-40000000D03*
D17*
X4000000Y-40000000D03*
D18*
X10000000Y-40000000D03*
D19*
X11000000Y-44500000D03*
X11000000Y-35500000D03*
%TD*%
D20*
%TO.C,U1*%
X39500000Y-38000000D03*
X40250000Y-38000000D03*
X41000000Y-38000000D03*
X41750000Y-38000000D03*
X42500000Y-38000000D03*
X43250000Y-38000000D03*
X44000000Y-38000000D03*
X44750000Y-38000000D03*
X45500000Y-38000000D03*
X46250000Y-38000000D03*
X47000000Y-38000000D03*
X47750000Y-38000000D03*
X48500000Y-38000000D03*
X49250000Y-38000000D03*
X50000000Y-38000000D03*
X50750000Y-38000000D03*
X51500000Y-38000000D03*
X52250000Y-38000000D03*
X53000000Y-38000000D03*
X53750000Y-38000000D03*
X54500000Y-38000000D03*
X55250000Y-38000000D03*
X56000000Y-38000000D03*
X56750000Y-38000000D03*
X57500000Y-38000000D03*
X58250000Y-38000000D03*
X59000000Y-38000000D03*
X59750000Y-38000000D03*
X38000000Y-57500000D03*
X38750000Y-57500000D03*
X39500000Y-57500000D03*
X40250000Y-57500000D03*
X41000000Y-57500000D03*
X41750000Y-57500000D03*
X42500000Y-57500000D03*
X43250000Y-57500000D03*
X44000000Y-57500000D03*
X44750000Y-57500000D03*
X45500000Y-57500000D03*
X46250000Y-57500000D03*
X47000000Y-57500000D03*
X47750000Y-57500000D03*
X48500000Y-57500000D03*
X49250000Y-57500000D03*
X50000000Y-57500000D03*
X50750000Y-57500000D03*
X51500000Y-57500000D03*
X52250000Y-57500000D03*
X53000000Y-57500000D03*
X53750000Y-57500000D03*
X54500000Y-57500000D03*
X55250000Y-57500000D03*
X56000000Y-57500000D03*
X56750000Y-57500000D03*
X57500000Y-57500000D03*
X58250000Y-57500000D03*
X59000000Y-57500000D03*
X59750000Y-57500000D03*
X60500000Y-57500000D03*
X61250000Y-57500000D03*
X38000000Y-58250000D03*
X38750000Y-58250000D03*
X39500000Y-58250000D03*
X40250000Y-58250000D03*
X41000000Y-58250000D03*
X41750000Y-58250000D03*
X42500000Y-58250000D03*
X43250000Y-58250000D03*
X44000000Y-58250000D03*
X44750000Y-58250000D03*
X45500000Y-58250000D03*
X46250000Y-58250000D03*
X47000000Y-58250000D03*
X47750000Y-58250000D03*
X48500000Y-58250000D03*
X49250000Y-58250000D03*
X50000000Y-58250000D03*
X50750000Y-58250000D03*
X51500000Y-58250000D03*
X52250000Y-58250000D03*
X53000000Y-58250000D03*
X53750000Y-58250000D03*
X54500000Y-58250000D03*
X55250000Y-58250000D03*
X56000000Y-58250000D03*
X56750000Y-58250000D03*
X57500000Y-58250000D03*
X58250000Y-58250000D03*
X59000000Y-58250000D03*
X59750000Y-58250000D03*
X60500000Y-58250000D03*
X61250000Y-58250000D03*
X38000000Y-59000000D03*
X38750000Y-59000000D03*
X39500000Y-59000000D03*
X40250000Y-59000000D03*
X41000000Y-59000000D03*
X41750000Y-59000000D03*
X42500000Y-59000000D03*
X43250000Y-59000000D03*
X44000000Y-59000000D03*
X44750000Y-59000000D03*
X45500000Y-59000000D03*
X46250000Y-59000000D03*
X47000000Y-59000000D03*
X47750000Y-59000000D03*
X48500000Y-59000000D03*
X49250000Y-59000000D03*
X50000000Y-59000000D03*
X50750000Y-59000000D03*
X51500000Y-59000000D03*
X52250000Y-59000000D03*
X53000000Y-59000000D03*
X53750000Y-59000000D03*
X54500000Y-59000000D03*
X55250000Y-59000000D03*
X56000000Y-59000000D03*
X56750000Y-59000000D03*
X57500000Y-59000000D03*
X58250000Y-59000000D03*
X59000000Y-59000000D03*
X59750000Y-59000000D03*
X60500000Y-59000000D03*
X61250000Y-59000000D03*
X38000000Y-59750000D03*
X38750000Y-59750000D03*
X39500000Y-59750000D03*
X40250000Y-59750000D03*
X41000000Y-59750000D03*
X41750000Y-59750000D03*
X42500000Y-59750000D03*
X43250000Y-59750000D03*
X44000000Y-59750000D03*
X44750000Y-59750000D03*
X45500000Y-59750000D03*
X46250000Y-59750000D03*
X47000000Y-59750000D03*
X47750000Y-59750000D03*
X48500000Y-59750000D03*
X49250000Y-59750000D03*
X50000000Y-59750000D03*
X50750000Y-59750000D03*
X51500000Y-59750000D03*
X52250000Y-59750000D03*
X53000000Y-59750000D03*
X53750000Y-59750000D03*
X54500000Y-59750000D03*
X55250000Y-59750000D03*
X56000000Y-59750000D03*
X56750000Y-59750000D03*
X57500000Y-59750000D03*
X58250000Y-59750000D03*
X59000000Y-59750000D03*
X59750000Y-59750000D03*
X60500000Y-59750000D03*
X61250000Y-59750000D03*
X39500000Y-60500000D03*
X40250000Y-60500000D03*
X41000000Y-60500000D03*
X41750000Y-60500000D03*
X42500000Y-60500000D03*
X43250000Y-60500000D03*
X44000000Y-60500000D03*
X44750000Y-60500000D03*
X45500000Y-60500000D03*
X46250000Y-60500000D03*
X47000000Y-60500000D03*
X47750000Y-60500000D03*
X48500000Y-60500000D03*
X49250000Y-60500000D03*
X50000000Y-60500000D03*
X50750000Y-60500000D03*
X51500000Y-60500000D03*
X52250000Y-60500000D03*
X53000000Y-60500000D03*
X53750000Y-60500000D03*
X54500000Y-60500000D03*
X55250000Y-60500000D03*
X56000000Y-60500000D03*
X56750000Y-60500000D03*
X57500000Y-60500000D03*
X58250000Y-60500000D03*
X59000000Y-60500000D03*
X59750000Y-60500000D03*
X39500000Y-61250000D03*
X40250000Y-61250000D03*
X41000000Y-61250000D03*
X41750000Y-61250000D03*
X42500000Y-61250000D03*
X43250000Y-61250000D03*
X44000000Y-61250000D03*
X44750000Y-61250000D03*
X45500000Y-61250000D03*
X46250000Y-61250000D03*
X47000000Y-61250000D03*
X47750000Y-61250000D03*
X48500000Y-61250000D03*
X49250000Y-61250000D03*
X50000000Y-61250000D03*
X50750000Y-61250000D03*
X51500000Y-61250000D03*
X52250000Y-61250000D03*
X53000000Y-61250000D03*
X53750000Y-61250000D03*
X54500000Y-61250000D03*
X55250000Y-61250000D03*
X56000000Y-61250000D03*
X56750000Y-61250000D03*
X57500000Y-61250000D03*
X58250000Y-61250000D03*
X59000000Y-61250000D03*
X59750000Y-61250000D03*
X39500000Y-38750000D03*
X40250000Y-38750000D03*
X41000000Y-38750000D03*
X41750000Y-38750000D03*
X42500000Y-38750000D03*
X43250000Y-38750000D03*
X44000000Y-38750000D03*
X44750000Y-38750000D03*
X45500000Y-38750000D03*
X46250000Y-38750000D03*
X47000000Y-38750000D03*
X47750000Y-38750000D03*
X48500000Y-38750000D03*
X49250000Y-38750000D03*
X50000000Y-38750000D03*
X50750000Y-38750000D03*
X51500000Y-38750000D03*
X52250000Y-38750000D03*
X53000000Y-38750000D03*
X53750000Y-38750000D03*
X54500000Y-38750000D03*
X55250000Y-38750000D03*
X56000000Y-38750000D03*
X56750000Y-38750000D03*
X57500000Y-38750000D03*
X58250000Y-38750000D03*
X59000000Y-38750000D03*
X59750000Y-38750000D03*
X38000000Y-39500000D03*
X38750000Y-39500000D03*
X39500000Y-39500000D03*
X40250000Y-39500000D03*
X41000000Y-39500000D03*
X41750000Y-39500000D03*
X42500000Y-39500000D03*
X43250000Y-39500000D03*
X44000000Y-39500000D03*
X44750000Y-39500000D03*
X45500000Y-39500000D03*
X46250000Y-39500000D03*
X47000000Y-39500000D03*
X47750000Y-39500000D03*
X48500000Y-39500000D03*
X49250000Y-39500000D03*
X50000000Y-39500000D03*
X50750000Y-39500000D03*
X51500000Y-39500000D03*
X52250000Y-39500000D03*
X53000000Y-39500000D03*
X53750000Y-39500000D03*
X54500000Y-39500000D03*
X55250000Y-39500000D03*
X56000000Y-39500000D03*
X56750000Y-39500000D03*
X57500000Y-39500000D03*
X58250000Y-39500000D03*
X59000000Y-39500000D03*
X59750000Y-39500000D03*
X60500000Y-39500000D03*
X61250000Y-39500000D03*
X38000000Y-40250000D03*
X38750000Y-40250000D03*
X39500000Y-40250000D03*
X40250000Y-40250000D03*
X41000000Y-40250000D03*
X41750000Y-40250000D03*
X42500000Y-40250000D03*
X43250000Y-40250000D03*
X44000000Y-40250000D03*
X44750000Y-40250000D03*
X45500000Y-40250000D03*
X46250000Y-40250000D03*
X47000000Y-40250000D03*
X47750000Y-40250000D03*
X48500000Y-40250000D03*
X49250000Y-40250000D03*
X50000000Y-40250000D03*
X50750000Y-40250000D03*
X51500000Y-40250000D03*
X52250000Y-40250000D03*
X53000000Y-40250000D03*
X53750000Y-40250000D03*
X54500000Y-40250000D03*
X55250000Y-40250000D03*
X56000000Y-40250000D03*
X56750000Y-40250000D03*
X57500000Y-40250000D03*
X58250000Y-40250000D03*
X59000000Y-40250000D03*
X59750000Y-40250000D03*
X60500000Y-40250000D03*
X61250000Y-40250000D03*
X38000000Y-41000000D03*
X38750000Y-41000000D03*
X39500000Y-41000000D03*
X40250000Y-41000000D03*
X41000000Y-41000000D03*
X41750000Y-41000000D03*
X42500000Y-41000000D03*
X43250000Y-41000000D03*
X44000000Y-41000000D03*
X44750000Y-41000000D03*
X45500000Y-41000000D03*
X46250000Y-41000000D03*
X47000000Y-41000000D03*
X47750000Y-41000000D03*
X48500000Y-41000000D03*
X49250000Y-41000000D03*
X50000000Y-41000000D03*
X50750000Y-41000000D03*
X51500000Y-41000000D03*
X52250000Y-41000000D03*
X53000000Y-41000000D03*
X53750000Y-41000000D03*
X54500000Y-41000000D03*
X55250000Y-41000000D03*
X56000000Y-41000000D03*
X56750000Y-41000000D03*
X57500000Y-41000000D03*
X58250000Y-41000000D03*
X59000000Y-41000000D03*
X59750000Y-41000000D03*
X60500000Y-41000000D03*
X61250000Y-41000000D03*
X38000000Y-41750000D03*
X38750000Y-41750000D03*
X39500000Y-41750000D03*
X40250000Y-41750000D03*
X41000000Y-41750000D03*
X41750000Y-41750000D03*
X42500000Y-41750000D03*
X43250000Y-41750000D03*
X44000000Y-41750000D03*
X44750000Y-41750000D03*
X45500000Y-41750000D03*
X46250000Y-41750000D03*
X47000000Y-41750000D03*
X47750000Y-41750000D03*
X48500000Y-41750000D03*
X49250000Y-41750000D03*
X50000000Y-41750000D03*
X50750000Y-41750000D03*
X51500000Y-41750000D03*
X52250000Y-41750000D03*
X53000000Y-41750000D03*
X53750000Y-41750000D03*
X54500000Y-41750000D03*
X55250000Y-41750000D03*
X56000000Y-41750000D03*
X56750000Y-41750000D03*
X57500000Y-41750000D03*
X58250000Y-41750000D03*
X59000000Y-41750000D03*
X59750000Y-41750000D03*
X60500000Y-41750000D03*
X61250000Y-41750000D03*
X38000000Y-42500000D03*
X38750000Y-42500000D03*
X39500000Y-42500000D03*
X40250000Y-42500000D03*
X41000000Y-42500000D03*
X41750000Y-42500000D03*
X42500000Y-42500000D03*
X43250000Y-42500000D03*
X44000000Y-42500000D03*
X44750000Y-42500000D03*
X45500000Y-42500000D03*
X46250000Y-42500000D03*
X47000000Y-42500000D03*
X47750000Y-42500000D03*
X48500000Y-42500000D03*
X49250000Y-42500000D03*
X50000000Y-42500000D03*
X50750000Y-42500000D03*
X51500000Y-42500000D03*
X52250000Y-42500000D03*
X53000000Y-42500000D03*
X53750000Y-42500000D03*
X54500000Y-42500000D03*
X55250000Y-42500000D03*
X56000000Y-42500000D03*
X56750000Y-42500000D03*
X57500000Y-42500000D03*
X58250000Y-42500000D03*
X59000000Y-42500000D03*
X59750000Y-42500000D03*
X60500000Y-42500000D03*
X61250000Y-42500000D03*
X38000000Y-43250000D03*
X38750000Y-43250000D03*
X39500000Y-43250000D03*
X40250000Y-43250000D03*
X41000000Y-43250000D03*
X41750000Y-43250000D03*
X42500000Y-43250000D03*
X43250000Y-43250000D03*
X44000000Y-43250000D03*
X44750000Y-43250000D03*
X45500000Y-43250000D03*
X46250000Y-43250000D03*
X47000000Y-43250000D03*
X47750000Y-43250000D03*
X48500000Y-43250000D03*
X49250000Y-43250000D03*
X50000000Y-43250000D03*
X50750000Y-43250000D03*
X51500000Y-43250000D03*
X52250000Y-43250000D03*
X53000000Y-43250000D03*
X53750000Y-43250000D03*
X54500000Y-43250000D03*
X55250000Y-43250000D03*
X56000000Y-43250000D03*
X56750000Y-43250000D03*
X57500000Y-43250000D03*
X58250000Y-43250000D03*
X59000000Y-43250000D03*
X59750000Y-43250000D03*
X60500000Y-43250000D03*
X61250000Y-43250000D03*
X38000000Y-44000000D03*
X38750000Y-44000000D03*
X39500000Y-44000000D03*
X40250000Y-44000000D03*
X41000000Y-44000000D03*
X41750000Y-44000000D03*
X42500000Y-44000000D03*
X43250000Y-44000000D03*
X44000000Y-44000000D03*
X44750000Y-44000000D03*
X45500000Y-44000000D03*
X46250000Y-44000000D03*
X47000000Y-44000000D03*
X47750000Y-44000000D03*
X48500000Y-44000000D03*
X49250000Y-44000000D03*
X50000000Y-44000000D03*
X50750000Y-44000000D03*
X51500000Y-44000000D03*
X52250000Y-44000000D03*
X53000000Y-44000000D03*
X53750000Y-44000000D03*
X54500000Y-44000000D03*
X55250000Y-44000000D03*
X56000000Y-44000000D03*
X56750000Y-44000000D03*
X57500000Y-44000000D03*
X58250000Y-44000000D03*
X59000000Y-44000000D03*
X59750000Y-44000000D03*
X60500000Y-44000000D03*
X61250000Y-44000000D03*
X38000000Y-44750000D03*
X38750000Y-44750000D03*
X39500000Y-44750000D03*
X40250000Y-44750000D03*
X41000000Y-44750000D03*
X41750000Y-44750000D03*
X42500000Y-44750000D03*
X43250000Y-44750000D03*
X44000000Y-44750000D03*
X44750000Y-44750000D03*
X45500000Y-44750000D03*
X46250000Y-44750000D03*
X47000000Y-44750000D03*
X47750000Y-44750000D03*
X48500000Y-44750000D03*
X49250000Y-44750000D03*
X50000000Y-44750000D03*
X50750000Y-44750000D03*
X51500000Y-44750000D03*
X52250000Y-44750000D03*
X53000000Y-44750000D03*
X53750000Y-44750000D03*
X54500000Y-44750000D03*
X55250000Y-44750000D03*
X56000000Y-44750000D03*
X56750000Y-44750000D03*
X57500000Y-44750000D03*
X58250000Y-44750000D03*
X59000000Y-44750000D03*
X59750000Y-44750000D03*
X60500000Y-44750000D03*
X61250000Y-44750000D03*
X38000000Y-45500000D03*
X38750000Y-45500000D03*
X39500000Y-45500000D03*
X40250000Y-45500000D03*
X41000000Y-45500000D03*
X41750000Y-45500000D03*
X42500000Y-45500000D03*
X43250000Y-45500000D03*
X44000000Y-45500000D03*
X44750000Y-45500000D03*
X45500000Y-45500000D03*
X46250000Y-45500000D03*
X47000000Y-45500000D03*
X47750000Y-45500000D03*
X48500000Y-45500000D03*
X49250000Y-45500000D03*
X50000000Y-45500000D03*
X50750000Y-45500000D03*
X51500000Y-45500000D03*
X52250000Y-45500000D03*
X53000000Y-45500000D03*
X53750000Y-45500000D03*
X54500000Y-45500000D03*
X55250000Y-45500000D03*
X56000000Y-45500000D03*
X56750000Y-45500000D03*
X57500000Y-45500000D03*
X58250000Y-45500000D03*
X59000000Y-45500000D03*
X59750000Y-45500000D03*
X60500000Y-45500000D03*
X61250000Y-45500000D03*
X38000000Y-46250000D03*
X38750000Y-46250000D03*
X39500000Y-46250000D03*
X40250000Y-46250000D03*
X41000000Y-46250000D03*
X41750000Y-46250000D03*
X42500000Y-46250000D03*
X43250000Y-46250000D03*
X44000000Y-46250000D03*
X44750000Y-46250000D03*
X45500000Y-46250000D03*
X46250000Y-46250000D03*
X47000000Y-46250000D03*
X47750000Y-46250000D03*
X48500000Y-46250000D03*
X49250000Y-46250000D03*
X50000000Y-46250000D03*
X50750000Y-46250000D03*
X51500000Y-46250000D03*
X52250000Y-46250000D03*
X53000000Y-46250000D03*
X53750000Y-46250000D03*
X54500000Y-46250000D03*
X55250000Y-46250000D03*
X56000000Y-46250000D03*
X56750000Y-46250000D03*
X57500000Y-46250000D03*
X58250000Y-46250000D03*
X59000000Y-46250000D03*
X59750000Y-46250000D03*
X60500000Y-46250000D03*
X61250000Y-46250000D03*
X38000000Y-47000000D03*
X38750000Y-47000000D03*
X39500000Y-47000000D03*
X40250000Y-47000000D03*
X41000000Y-47000000D03*
X41750000Y-47000000D03*
X42500000Y-47000000D03*
X43250000Y-47000000D03*
X44000000Y-47000000D03*
X44750000Y-47000000D03*
X45500000Y-47000000D03*
X46250000Y-47000000D03*
X47000000Y-47000000D03*
X47750000Y-47000000D03*
X48500000Y-47000000D03*
X49250000Y-47000000D03*
X50000000Y-47000000D03*
X50750000Y-47000000D03*
X51500000Y-47000000D03*
X52250000Y-47000000D03*
X53000000Y-47000000D03*
X53750000Y-47000000D03*
X54500000Y-47000000D03*
X55250000Y-47000000D03*
X56000000Y-47000000D03*
X56750000Y-47000000D03*
X57500000Y-47000000D03*
X58250000Y-47000000D03*
X59000000Y-47000000D03*
X59750000Y-47000000D03*
X60500000Y-47000000D03*
X61250000Y-47000000D03*
X38000000Y-47750000D03*
X38750000Y-47750000D03*
X39500000Y-47750000D03*
X40250000Y-47750000D03*
X41000000Y-47750000D03*
X41750000Y-47750000D03*
X42500000Y-47750000D03*
X43250000Y-47750000D03*
X44000000Y-47750000D03*
X44750000Y-47750000D03*
X45500000Y-47750000D03*
X46250000Y-47750000D03*
X47000000Y-47750000D03*
X47750000Y-47750000D03*
X48500000Y-47750000D03*
X49250000Y-47750000D03*
X50000000Y-47750000D03*
X50750000Y-47750000D03*
X51500000Y-47750000D03*
X52250000Y-47750000D03*
X53000000Y-47750000D03*
X53750000Y-47750000D03*
X54500000Y-47750000D03*
X55250000Y-47750000D03*
X56000000Y-47750000D03*
X56750000Y-47750000D03*
X57500000Y-47750000D03*
X58250000Y-47750000D03*
X59000000Y-47750000D03*
X59750000Y-47750000D03*
X60500000Y-47750000D03*
X61250000Y-47750000D03*
X38000000Y-48500000D03*
X38750000Y-48500000D03*
X39500000Y-48500000D03*
X40250000Y-48500000D03*
X41000000Y-48500000D03*
X41750000Y-48500000D03*
X42500000Y-48500000D03*
X43250000Y-48500000D03*
X44000000Y-48500000D03*
X44750000Y-48500000D03*
X45500000Y-48500000D03*
X46250000Y-48500000D03*
X47000000Y-48500000D03*
X47750000Y-48500000D03*
X48500000Y-48500000D03*
X49250000Y-48500000D03*
X50000000Y-48500000D03*
X50750000Y-48500000D03*
X51500000Y-48500000D03*
X52250000Y-48500000D03*
X53000000Y-48500000D03*
X53750000Y-48500000D03*
X54500000Y-48500000D03*
X55250000Y-48500000D03*
X56000000Y-48500000D03*
X56750000Y-48500000D03*
X57500000Y-48500000D03*
X58250000Y-48500000D03*
X59000000Y-48500000D03*
X59750000Y-48500000D03*
X60500000Y-48500000D03*
X61250000Y-48500000D03*
X38000000Y-49250000D03*
X38750000Y-49250000D03*
X39500000Y-49250000D03*
X40250000Y-49250000D03*
X41000000Y-49250000D03*
X41750000Y-49250000D03*
X42500000Y-49250000D03*
X43250000Y-49250000D03*
X44000000Y-49250000D03*
X44750000Y-49250000D03*
X45500000Y-49250000D03*
X46250000Y-49250000D03*
X47000000Y-49250000D03*
X47750000Y-49250000D03*
X48500000Y-49250000D03*
X49250000Y-49250000D03*
X50000000Y-49250000D03*
X50750000Y-49250000D03*
X51500000Y-49250000D03*
X52250000Y-49250000D03*
X53000000Y-49250000D03*
X53750000Y-49250000D03*
X54500000Y-49250000D03*
X55250000Y-49250000D03*
X56000000Y-49250000D03*
X56750000Y-49250000D03*
X57500000Y-49250000D03*
X58250000Y-49250000D03*
X59000000Y-49250000D03*
X59750000Y-49250000D03*
X60500000Y-49250000D03*
X61250000Y-49250000D03*
X38000000Y-50000000D03*
X38750000Y-50000000D03*
X39500000Y-50000000D03*
X40250000Y-50000000D03*
X41000000Y-50000000D03*
X41750000Y-50000000D03*
X42500000Y-50000000D03*
X43250000Y-50000000D03*
X44000000Y-50000000D03*
X44750000Y-50000000D03*
X45500000Y-50000000D03*
X46250000Y-50000000D03*
X47000000Y-50000000D03*
X47750000Y-50000000D03*
X48500000Y-50000000D03*
X49250000Y-50000000D03*
X50000000Y-50000000D03*
X50750000Y-50000000D03*
X51500000Y-50000000D03*
X52250000Y-50000000D03*
X53000000Y-50000000D03*
X53750000Y-50000000D03*
X54500000Y-50000000D03*
X55250000Y-50000000D03*
X56000000Y-50000000D03*
X56750000Y-50000000D03*
X57500000Y-50000000D03*
X58250000Y-50000000D03*
X59000000Y-50000000D03*
X59750000Y-50000000D03*
X60500000Y-50000000D03*
X61250000Y-50000000D03*
X38000000Y-50750000D03*
X38750000Y-50750000D03*
X39500000Y-50750000D03*
X40250000Y-50750000D03*
X41000000Y-50750000D03*
X41750000Y-50750000D03*
X42500000Y-50750000D03*
X43250000Y-50750000D03*
X44000000Y-50750000D03*
X44750000Y-50750000D03*
X45500000Y-50750000D03*
X46250000Y-50750000D03*
X47000000Y-50750000D03*
X47750000Y-50750000D03*
X48500000Y-50750000D03*
X49250000Y-50750000D03*
X50000000Y-50750000D03*
X50750000Y-50750000D03*
X51500000Y-50750000D03*
X52250000Y-50750000D03*
X53000000Y-50750000D03*
X53750000Y-50750000D03*
X54500000Y-50750000D03*
X55250000Y-50750000D03*
X56000000Y-50750000D03*
X56750000Y-50750000D03*
X57500000Y-50750000D03*
X58250000Y-50750000D03*
X59000000Y-50750000D03*
X59750000Y-50750000D03*
X60500000Y-50750000D03*
X61250000Y-50750000D03*
X38000000Y-51500000D03*
X38750000Y-51500000D03*
X39500000Y-51500000D03*
X40250000Y-51500000D03*
X41000000Y-51500000D03*
X41750000Y-51500000D03*
X42500000Y-51500000D03*
X43250000Y-51500000D03*
X44000000Y-51500000D03*
X44750000Y-51500000D03*
X45500000Y-51500000D03*
X46250000Y-51500000D03*
X47000000Y-51500000D03*
X47750000Y-51500000D03*
X48500000Y-51500000D03*
X49250000Y-51500000D03*
X50000000Y-51500000D03*
X50750000Y-51500000D03*
X51500000Y-51500000D03*
X52250000Y-51500000D03*
X53000000Y-51500000D03*
X53750000Y-51500000D03*
X54500000Y-51500000D03*
X55250000Y-51500000D03*
X56000000Y-51500000D03*
X56750000Y-51500000D03*
X57500000Y-51500000D03*
X58250000Y-51500000D03*
X59000000Y-51500000D03*
X59750000Y-51500000D03*
X60500000Y-51500000D03*
X61250000Y-51500000D03*
X38000000Y-52250000D03*
X38750000Y-52250000D03*
X39500000Y-52250000D03*
X40250000Y-52250000D03*
X41000000Y-52250000D03*
X41750000Y-52250000D03*
X42500000Y-52250000D03*
X43250000Y-52250000D03*
X44000000Y-52250000D03*
X44750000Y-52250000D03*
X45500000Y-52250000D03*
X46250000Y-52250000D03*
X47000000Y-52250000D03*
X47750000Y-52250000D03*
X48500000Y-52250000D03*
X49250000Y-52250000D03*
X50000000Y-52250000D03*
X50750000Y-52250000D03*
X51500000Y-52250000D03*
X52250000Y-52250000D03*
X53000000Y-52250000D03*
X53750000Y-52250000D03*
X54500000Y-52250000D03*
X55250000Y-52250000D03*
X56000000Y-52250000D03*
X56750000Y-52250000D03*
X57500000Y-52250000D03*
X58250000Y-52250000D03*
X59000000Y-52250000D03*
X59750000Y-52250000D03*
X60500000Y-52250000D03*
X61250000Y-52250000D03*
X38000000Y-53000000D03*
X38750000Y-53000000D03*
X39500000Y-53000000D03*
X40250000Y-53000000D03*
X41000000Y-53000000D03*
X41750000Y-53000000D03*
X42500000Y-53000000D03*
X43250000Y-53000000D03*
X44000000Y-53000000D03*
X44750000Y-53000000D03*
X45500000Y-53000000D03*
X46250000Y-53000000D03*
X47000000Y-53000000D03*
X47750000Y-53000000D03*
X48500000Y-53000000D03*
X49250000Y-53000000D03*
X50000000Y-53000000D03*
X50750000Y-53000000D03*
X51500000Y-53000000D03*
X52250000Y-53000000D03*
X53000000Y-53000000D03*
X53750000Y-53000000D03*
X54500000Y-53000000D03*
X55250000Y-53000000D03*
X56000000Y-53000000D03*
X56750000Y-53000000D03*
X57500000Y-53000000D03*
X58250000Y-53000000D03*
X59000000Y-53000000D03*
X59750000Y-53000000D03*
X60500000Y-53000000D03*
X61250000Y-53000000D03*
X38000000Y-53750000D03*
X38750000Y-53750000D03*
X39500000Y-53750000D03*
X40250000Y-53750000D03*
X41000000Y-53750000D03*
X41750000Y-53750000D03*
X42500000Y-53750000D03*
X43250000Y-53750000D03*
X44000000Y-53750000D03*
X44750000Y-53750000D03*
X45500000Y-53750000D03*
X46250000Y-53750000D03*
X47000000Y-53750000D03*
X47750000Y-53750000D03*
X48500000Y-53750000D03*
X49250000Y-53750000D03*
X50000000Y-53750000D03*
X50750000Y-53750000D03*
X51500000Y-53750000D03*
X52250000Y-53750000D03*
X53000000Y-53750000D03*
X53750000Y-53750000D03*
X54500000Y-53750000D03*
X55250000Y-53750000D03*
X56000000Y-53750000D03*
X56750000Y-53750000D03*
X57500000Y-53750000D03*
X58250000Y-53750000D03*
X59000000Y-53750000D03*
X59750000Y-53750000D03*
X60500000Y-53750000D03*
X61250000Y-53750000D03*
X38000000Y-54500000D03*
X38750000Y-54500000D03*
X39500000Y-54500000D03*
X40250000Y-54500000D03*
X41000000Y-54500000D03*
X41750000Y-54500000D03*
X42500000Y-54500000D03*
X43250000Y-54500000D03*
X44000000Y-54500000D03*
X44750000Y-54500000D03*
X45500000Y-54500000D03*
X46250000Y-54500000D03*
X47000000Y-54500000D03*
X47750000Y-54500000D03*
X48500000Y-54500000D03*
X49250000Y-54500000D03*
X50000000Y-54500000D03*
X50750000Y-54500000D03*
X51500000Y-54500000D03*
X52250000Y-54500000D03*
X53000000Y-54500000D03*
X53750000Y-54500000D03*
X54500000Y-54500000D03*
X55250000Y-54500000D03*
X56000000Y-54500000D03*
X56750000Y-54500000D03*
X57500000Y-54500000D03*
X58250000Y-54500000D03*
X59000000Y-54500000D03*
X59750000Y-54500000D03*
X60500000Y-54500000D03*
X61250000Y-54500000D03*
X38000000Y-55250000D03*
X38750000Y-55250000D03*
X39500000Y-55250000D03*
X40250000Y-55250000D03*
X41000000Y-55250000D03*
X41750000Y-55250000D03*
X42500000Y-55250000D03*
X43250000Y-55250000D03*
X44000000Y-55250000D03*
X44750000Y-55250000D03*
X45500000Y-55250000D03*
X46250000Y-55250000D03*
X47000000Y-55250000D03*
X47750000Y-55250000D03*
X48500000Y-55250000D03*
X49250000Y-55250000D03*
X50000000Y-55250000D03*
X50750000Y-55250000D03*
X51500000Y-55250000D03*
X52250000Y-55250000D03*
X53000000Y-55250000D03*
X53750000Y-55250000D03*
X54500000Y-55250000D03*
X55250000Y-55250000D03*
X56000000Y-55250000D03*
X56750000Y-55250000D03*
X57500000Y-55250000D03*
X58250000Y-55250000D03*
X59000000Y-55250000D03*
X59750000Y-55250000D03*
X60500000Y-55250000D03*
X61250000Y-55250000D03*
X38000000Y-56000000D03*
X38750000Y-56000000D03*
X39500000Y-56000000D03*
X40250000Y-56000000D03*
X41000000Y-56000000D03*
X41750000Y-56000000D03*
X42500000Y-56000000D03*
X43250000Y-56000000D03*
X44000000Y-56000000D03*
X44750000Y-56000000D03*
X45500000Y-56000000D03*
X46250000Y-56000000D03*
X47000000Y-56000000D03*
X47750000Y-56000000D03*
X48500000Y-56000000D03*
X49250000Y-56000000D03*
X50000000Y-56000000D03*
X50750000Y-56000000D03*
X51500000Y-56000000D03*
X52250000Y-56000000D03*
X53000000Y-56000000D03*
X53750000Y-56000000D03*
X54500000Y-56000000D03*
X55250000Y-56000000D03*
X56000000Y-56000000D03*
X56750000Y-56000000D03*
X57500000Y-56000000D03*
X58250000Y-56000000D03*
X59000000Y-56000000D03*
X59750000Y-56000000D03*
X60500000Y-56000000D03*
X61250000Y-56000000D03*
X38000000Y-56750000D03*
X38750000Y-56750000D03*
X39500000Y-56750000D03*
X40250000Y-56750000D03*
X41000000Y-56750000D03*
X41750000Y-56750000D03*
X42500000Y-56750000D03*
X43250000Y-56750000D03*
X44000000Y-56750000D03*
X44750000Y-56750000D03*
X45500000Y-56750000D03*
X46250000Y-56750000D03*
X47000000Y-56750000D03*
X47750000Y-56750000D03*
X48500000Y-56750000D03*
X49250000Y-56750000D03*
X50000000Y-56750000D03*
X50750000Y-56750000D03*
X51500000Y-56750000D03*
X52250000Y-56750000D03*
X53000000Y-56750000D03*
X53750000Y-56750000D03*
X54500000Y-56750000D03*
X55250000Y-56750000D03*
X56000000Y-56750000D03*
X56750000Y-56750000D03*
X57500000Y-56750000D03*
X58250000Y-56750000D03*
X59000000Y-56750000D03*
X59750000Y-56750000D03*
X60500000Y-56750000D03*
X61250000Y-56750000D03*
%TD*%
D21*
%TO.C,J1*%
X100500000Y-31715000D03*
X100000000Y-31715000D03*
X99500000Y-31715000D03*
X99000000Y-31715000D03*
X98500000Y-31715000D03*
X98000000Y-31715000D03*
X97500000Y-31715000D03*
X97000000Y-31715000D03*
X96500000Y-31715000D03*
X96000000Y-31715000D03*
X95500000Y-31715000D03*
X95000000Y-31715000D03*
X94500000Y-31715000D03*
X94000000Y-31715000D03*
X93500000Y-31715000D03*
X93000000Y-31715000D03*
X92500000Y-31715000D03*
X92000000Y-31715000D03*
X91500000Y-31715000D03*
D22*
X103250000Y-32475000D03*
X88750000Y-32475000D03*
D23*
X103250000Y-38435000D03*
X88750000Y-38435000D03*
%TD*%
D24*
%TO.C,J5*%
X47110000Y-93395000D03*
X52890000Y-93395000D03*
D25*
X46800000Y-92320000D03*
X47600000Y-92320000D03*
D26*
X48750000Y-92320000D03*
X49750000Y-92320000D03*
X50250000Y-92320000D03*
X51250000Y-92320000D03*
D25*
X52400000Y-92320000D03*
X53200000Y-92320000D03*
X53200000Y-92320000D03*
X52400000Y-92320000D03*
D26*
X51750000Y-92320000D03*
X50750000Y-92320000D03*
X49250000Y-92320000D03*
X48250000Y-92320000D03*
D25*
X47600000Y-92320000D03*
X46800000Y-92320000D03*
D27*
X45680000Y-92895000D03*
D28*
X45680000Y-97075000D03*
D27*
X54320000Y-92895000D03*
D28*
X54320000Y-97075000D03*
%TD*%
D29*
%TO.C,U2*%
X12700000Y-46000000D03*
X12700000Y-46500000D03*
X12700000Y-47000000D03*
X12700000Y-47500000D03*
X12700000Y-48000000D03*
X12700000Y-48500000D03*
X12700000Y-49000000D03*
X12700000Y-49500000D03*
X12700000Y-50000000D03*
X12700000Y-50500000D03*
X12700000Y-51000000D03*
X12700000Y-51500000D03*
X12700000Y-52000000D03*
X12700000Y-52500000D03*
X12700000Y-53000000D03*
X12700000Y-53500000D03*
X12700000Y-54000000D03*
D30*
X13000000Y-54300000D03*
X13500000Y-54300000D03*
X14000000Y-54300000D03*
X14500000Y-54300000D03*
X15000000Y-54300000D03*
X15500000Y-54300000D03*
X16000000Y-54300000D03*
X16500000Y-54300000D03*
X17000000Y-54300000D03*
X17500000Y-54300000D03*
X18000000Y-54300000D03*
X18500000Y-54300000D03*
X19000000Y-54300000D03*
X19500000Y-54300000D03*
X20000000Y-54300000D03*
X20500000Y-54300000D03*
X21000000Y-54300000D03*
D29*
X21300000Y-54000000D03*
X21300000Y-53500000D03*
X21300000Y-53000000D03*
X21300000Y-52500000D03*
X21300000Y-52000000D03*
X21300000Y-51500000D03*
X21300000Y-51000000D03*
X21300000Y-50500000D03*
X21300000Y-50000000D03*
X21300000Y-49500000D03*
X21300000Y-49000000D03*
X21300000Y-48500000D03*
X21300000Y-48000000D03*
X21300000Y-47500000D03*
X21300000Y-47000000D03*
X21300000Y-46500000D03*
X21300000Y-46000000D03*
D30*
X21000000Y-45700000D03*
X20500000Y-45700000D03*
X20000000Y-45700000D03*
X19500000Y-45700000D03*
X19000000Y-45700000D03*
X18500000Y-45700000D03*
X18000000Y-45700000D03*
X17500000Y-45700000D03*
X17000000Y-45700000D03*
X16500000Y-45700000D03*
X16000000Y-45700000D03*
X15500000Y-45700000D03*
X15000000Y-45700000D03*
X14500000Y-45700000D03*
X14000000Y-45700000D03*
X13500000Y-45700000D03*
X13000000Y-45700000D03*
D31*
X17000000Y-50000000D03*
%TD*%
D32*
%TO.C,J3*%
X96000000Y-5000000D03*
D33*
X96000000Y-7500000D03*
X96000000Y-9500000D03*
X96000000Y-12000000D03*
X97500000Y-12500000D03*
X97500000Y-10500000D03*
X97500000Y-8500000D03*
X97500000Y-6500000D03*
X97500000Y-4500000D03*
D34*
X96750000Y-2100000D03*
D35*
X88250000Y-2100000D03*
D34*
X96750000Y-14900000D03*
D35*
X88250000Y-14900000D03*
%TD*%
D36*
%TO.C,J4*%
X4000000Y-5000000D03*
D33*
X4000000Y-2500000D03*
X4000000Y-500000D03*
X4000000Y2000000D03*
X2500000Y2500000D03*
X2500000Y500000D03*
X2500000Y-1500000D03*
X2500000Y-3500000D03*
X2500000Y-5500000D03*
D34*
X3250000Y-7900000D03*
D35*
X11750000Y-7900000D03*
D34*
X3250000Y4900000D03*
D35*
X11750000Y4900000D03*
%TD*%
D37*
%TO.C,U4*%
X46750000Y-74750000D03*
X47250000Y-74750000D03*
X47750000Y-74750000D03*
X48250000Y-74750000D03*
X48750000Y-74750000D03*
X49250000Y-74750000D03*
X49750000Y-74750000D03*
X50250000Y-74750000D03*
X50750000Y-74750000D03*
X51250000Y-74750000D03*
X51750000Y-74750000D03*
X52250000Y-74750000D03*
X52750000Y-74750000D03*
X53250000Y-74750000D03*
X46750000Y-75250000D03*
X47250000Y-75250000D03*
X47750000Y-75250000D03*
X48250000Y-75250000D03*
X48750000Y-75250000D03*
X49250000Y-75250000D03*
X49750000Y-75250000D03*
X50250000Y-75250000D03*
X50750000Y-75250000D03*
X51250000Y-75250000D03*
X51750000Y-75250000D03*
X52250000Y-75250000D03*
X52750000Y-75250000D03*
X53250000Y-75250000D03*
X46750000Y-75750000D03*
X47250000Y-75750000D03*
X47750000Y-75750000D03*
X48250000Y-75750000D03*
X48750000Y-75750000D03*
X49250000Y-75750000D03*
X49750000Y-75750000D03*
X50250000Y-75750000D03*
X50750000Y-75750000D03*
X51250000Y-75750000D03*
X51750000Y-75750000D03*
X52250000Y-75750000D03*
X52750000Y-75750000D03*
X53250000Y-75750000D03*
X46750000Y-76250000D03*
X47250000Y-76250000D03*
X47750000Y-76250000D03*
X48250000Y-76250000D03*
X52250000Y-76250000D03*
X52750000Y-76250000D03*
X53250000Y-76250000D03*
X46750000Y-76750000D03*
X47250000Y-76750000D03*
X47750000Y-76750000D03*
X48750000Y-76750000D03*
X49250000Y-76750000D03*
X49750000Y-76750000D03*
X50250000Y-76750000D03*
X50750000Y-76750000D03*
X51250000Y-76750000D03*
X52250000Y-76750000D03*
X52750000Y-76750000D03*
X53250000Y-76750000D03*
X46750000Y-77250000D03*
X47250000Y-77250000D03*
X47750000Y-77250000D03*
X48750000Y-77250000D03*
X51250000Y-77250000D03*
X52250000Y-77250000D03*
X52750000Y-77250000D03*
X53250000Y-77250000D03*
X46750000Y-77750000D03*
X47250000Y-77750000D03*
X47750000Y-77750000D03*
X48750000Y-77750000D03*
X51250000Y-77750000D03*
X52250000Y-77750000D03*
X52750000Y-77750000D03*
X53250000Y-77750000D03*
X46750000Y-78250000D03*
X47250000Y-78250000D03*
X47750000Y-78250000D03*
X48750000Y-78250000D03*
X51250000Y-78250000D03*
X52250000Y-78250000D03*
X52750000Y-78250000D03*
X53250000Y-78250000D03*
X46750000Y-78750000D03*
X47250000Y-78750000D03*
X47750000Y-78750000D03*
X48750000Y-78750000D03*
X51250000Y-78750000D03*
X52250000Y-78750000D03*
X52750000Y-78750000D03*
X53250000Y-78750000D03*
X46750000Y-79250000D03*
X47250000Y-79250000D03*
X47750000Y-79250000D03*
X48750000Y-79250000D03*
X49250000Y-79250000D03*
X49750000Y-79250000D03*
X50250000Y-79250000D03*
X50750000Y-79250000D03*
X51250000Y-79250000D03*
X52250000Y-79250000D03*
X52750000Y-79250000D03*
X53250000Y-79250000D03*
X46750000Y-79750000D03*
X47250000Y-79750000D03*
X47750000Y-79750000D03*
X52250000Y-79750000D03*
X52750000Y-79750000D03*
X53250000Y-79750000D03*
X46750000Y-80250000D03*
X47250000Y-80250000D03*
X47750000Y-80250000D03*
X48250000Y-80250000D03*
X48750000Y-80250000D03*
X49250000Y-80250000D03*
X49750000Y-80250000D03*
X50250000Y-80250000D03*
X50750000Y-80250000D03*
X51250000Y-80250000D03*
X51750000Y-80250000D03*
X52250000Y-80250000D03*
X52750000Y-80250000D03*
X53250000Y-80250000D03*
X46750000Y-80750000D03*
X47250000Y-80750000D03*
X47750000Y-80750000D03*
X48250000Y-80750000D03*
X48750000Y-80750000D03*
X49250000Y-80750000D03*
X49750000Y-80750000D03*
X50250000Y-80750000D03*
X50750000Y-80750000D03*
X51250000Y-80750000D03*
X51750000Y-80750000D03*
X52250000Y-80750000D03*
X52750000Y-80750000D03*
X53250000Y-80750000D03*
X46750000Y-81250000D03*
X47250000Y-81250000D03*
X47750000Y-81250000D03*
X48250000Y-81250000D03*
X48750000Y-81250000D03*
X49250000Y-81250000D03*
X49750000Y-81250000D03*
X50250000Y-81250000D03*
X50750000Y-81250000D03*
X51250000Y-81250000D03*
X51750000Y-81250000D03*
X52250000Y-81250000D03*
X52750000Y-81250000D03*
X53250000Y-81250000D03*
%TD*%
D38*
%TO.C,U7*%
X82562500Y-50200000D03*
X82562500Y-50600000D03*
X82562500Y-51000000D03*
X82562500Y-51400000D03*
X82562500Y-51800000D03*
X82562500Y-52200000D03*
X82562500Y-52600000D03*
X82562500Y-53000000D03*
X82562500Y-53400000D03*
X82562500Y-53800000D03*
D39*
X83200000Y-54437500D03*
X83600000Y-54437500D03*
X84000000Y-54437500D03*
X84400000Y-54437500D03*
X84800000Y-54437500D03*
X85200000Y-54437500D03*
X85600000Y-54437500D03*
X86000000Y-54437500D03*
X86400000Y-54437500D03*
X86800000Y-54437500D03*
D38*
X87437500Y-53800000D03*
X87437500Y-53400000D03*
X87437500Y-53000000D03*
X87437500Y-52600000D03*
X87437500Y-52200000D03*
X87437500Y-51800000D03*
X87437500Y-51400000D03*
X87437500Y-51000000D03*
X87437500Y-50600000D03*
X87437500Y-50200000D03*
D39*
X86800000Y-49562500D03*
X86400000Y-49562500D03*
X86000000Y-49562500D03*
X85600000Y-49562500D03*
X85200000Y-49562500D03*
X84800000Y-49562500D03*
X84400000Y-49562500D03*
X84000000Y-49562500D03*
X83600000Y-49562500D03*
X83200000Y-49562500D03*
D40*
X85000000Y-52000000D03*
%TD*%
D41*
%TO.C,U6*%
X70400000Y-28750000D03*
X70400000Y-29400000D03*
X70400000Y-30050000D03*
X70400000Y-30700000D03*
X70400000Y-31350000D03*
X70400000Y-32000000D03*
X70400000Y-32650000D03*
X70400000Y-33300000D03*
X70400000Y-33950000D03*
X70400000Y-34600000D03*
X70400000Y-35250000D03*
D42*
X71750000Y-36600000D03*
X72400000Y-36600000D03*
X73050000Y-36600000D03*
X73700000Y-36600000D03*
X74350000Y-36600000D03*
X75000000Y-36600000D03*
X75650000Y-36600000D03*
X76300000Y-36600000D03*
X76950000Y-36600000D03*
X77600000Y-36600000D03*
X78250000Y-36600000D03*
D41*
X79600000Y-35250000D03*
X79600000Y-34600000D03*
X79600000Y-33950000D03*
X79600000Y-33300000D03*
X79600000Y-32650000D03*
X79600000Y-32000000D03*
X79600000Y-31350000D03*
X79600000Y-30700000D03*
X79600000Y-30050000D03*
X79600000Y-29400000D03*
X79600000Y-28750000D03*
D42*
X78250000Y-27400000D03*
X77600000Y-27400000D03*
X76950000Y-27400000D03*
X76300000Y-27400000D03*
X75650000Y-27400000D03*
X75000000Y-27400000D03*
X74350000Y-27400000D03*
X73700000Y-27400000D03*
X73050000Y-27400000D03*
X72400000Y-27400000D03*
X71750000Y-27400000D03*
D43*
X75000000Y-32000000D03*
%TD*%
D44*
%TO.C,C8*%
X64734524Y-39143500D03*
X66284524Y-39143500D03*
%TD*%
%TO.C,C9*%
X64225000Y-44000000D03*
X65775000Y-44000000D03*
%TD*%
%TO.C,C12*%
X39225000Y-32573500D03*
X40775000Y-32573500D03*
%TD*%
%TO.C,C10*%
X64734524Y-55143500D03*
X66284524Y-55143500D03*
%TD*%
%TO.C,C11*%
X64225000Y-60000000D03*
X65775000Y-60000000D03*
%TD*%
%TO.C,C13*%
X59225000Y-32573500D03*
X60775000Y-32573500D03*
%TD*%
%TO.C,C14*%
X39225000Y-68000000D03*
X40775000Y-68000000D03*
%TD*%
%TO.C,C1*%
X19331583Y-39143500D03*
X20881583Y-39143500D03*
%TD*%
%TO.C,C2*%
X8215476Y-48603250D03*
X9765476Y-48603250D03*
%TD*%
%TO.C,C3*%
X8691666Y-55143500D03*
X10241666Y-55143500D03*
%TD*%
%TO.C,C4*%
X12225000Y-60000000D03*
X13775000Y-60000000D03*
%TD*%
%TO.C,C5*%
X29225000Y-39143500D03*
X30775000Y-39143500D03*
%TD*%
%TO.C,C6*%
X29225000Y-44000000D03*
X30775000Y-44000000D03*
%TD*%
%TO.C,C7*%
X29225000Y-60000000D03*
X30775000Y-60000000D03*
%TD*%
D45*
%TO.C,U5*%
X82650000Y-13250000D03*
X82650000Y-13750000D03*
X82650000Y-14250000D03*
X82650000Y-14750000D03*
X82650000Y-15250000D03*
X82650000Y-15750000D03*
X82650000Y-16250000D03*
X82650000Y-16750000D03*
D46*
X83250000Y-17350000D03*
X83750000Y-17350000D03*
X84250000Y-17350000D03*
X84750000Y-17350000D03*
X85250000Y-17350000D03*
X85750000Y-17350000D03*
X86250000Y-17350000D03*
X86750000Y-17350000D03*
D45*
X87350000Y-16750000D03*
X87350000Y-16250000D03*
X87350000Y-15750000D03*
X87350000Y-15250000D03*
X87350000Y-14750000D03*
X87350000Y-14250000D03*
X87350000Y-13750000D03*
X87350000Y-13250000D03*
D46*
X86750000Y-12650000D03*
X86250000Y-12650000D03*
X85750000Y-12650000D03*
X85250000Y-12650000D03*
X84750000Y-12650000D03*
X84250000Y-12650000D03*
X83750000Y-12650000D03*
X83250000Y-12650000D03*
D47*
X85000000Y-15000000D03*
%TD*%
D48*
%TO.C,U8*%
X75825000Y-85200000D03*
X75825000Y-86000000D03*
X75825000Y-86800000D03*
X75825000Y-87600000D03*
X75825000Y-88400000D03*
X75825000Y-89200000D03*
X75825000Y-90000000D03*
X75825000Y-90800000D03*
D49*
X77200000Y-92175000D03*
X78000000Y-92175000D03*
X78800000Y-92175000D03*
X79600000Y-92175000D03*
X80400000Y-92175000D03*
X81200000Y-92175000D03*
X82000000Y-92175000D03*
X82800000Y-92175000D03*
D48*
X84175000Y-90800000D03*
X84175000Y-90000000D03*
X84175000Y-89200000D03*
X84175000Y-88400000D03*
X84175000Y-87600000D03*
X84175000Y-86800000D03*
X84175000Y-86000000D03*
X84175000Y-85200000D03*
D49*
X82800000Y-83825000D03*
X82000000Y-83825000D03*
X81200000Y-83825000D03*
X80400000Y-83825000D03*
X79600000Y-83825000D03*
X78800000Y-83825000D03*
X78000000Y-83825000D03*
X77200000Y-83825000D03*
%TD*%
D50*
%TO.C,U9*%
X89650000Y-76200000D03*
X89650000Y-76600000D03*
X89650000Y-77000000D03*
X89650000Y-77400000D03*
X89650000Y-77800000D03*
X89650000Y-78200000D03*
X89650000Y-78600000D03*
X89650000Y-79000000D03*
X89650000Y-79400000D03*
X89650000Y-79800000D03*
D51*
X90200000Y-80350000D03*
X90600000Y-80350000D03*
X91000000Y-80350000D03*
X91400000Y-80350000D03*
X91800000Y-80350000D03*
X92200000Y-80350000D03*
X92600000Y-80350000D03*
X93000000Y-80350000D03*
X93400000Y-80350000D03*
X93800000Y-80350000D03*
D50*
X94350000Y-79800000D03*
X94350000Y-79400000D03*
X94350000Y-79000000D03*
X94350000Y-78600000D03*
X94350000Y-78200000D03*
X94350000Y-77800000D03*
X94350000Y-77400000D03*
X94350000Y-77000000D03*
X94350000Y-76600000D03*
X94350000Y-76200000D03*
D51*
X93800000Y-75650000D03*
X93400000Y-75650000D03*
X93000000Y-75650000D03*
X92600000Y-75650000D03*
X92200000Y-75650000D03*
X91800000Y-75650000D03*
X91400000Y-75650000D03*
X91000000Y-75650000D03*
X90600000Y-75650000D03*
X90200000Y-75650000D03*
D47*
X92000000Y-78000000D03*
%TD*%
D52*
%TO.C,M1*%
X22000000Y-108000000D03*
D53*
X3500000Y-80000000D03*
X4000000Y-80000000D03*
X4500000Y-80000000D03*
X5000000Y-80000000D03*
X5500000Y-80000000D03*
X6000000Y-80000000D03*
X6500000Y-80000000D03*
X7000000Y-80000000D03*
X7500000Y-80000000D03*
X8000000Y-80000000D03*
X8500000Y-80000000D03*
X9000000Y-80000000D03*
X9500000Y-80000000D03*
X10000000Y-80000000D03*
X10500000Y-80000000D03*
X11000000Y-80000000D03*
X11500000Y-80000000D03*
X12000000Y-80000000D03*
X12500000Y-80000000D03*
X13000000Y-80000000D03*
X13500000Y-80000000D03*
X14000000Y-80000000D03*
X14500000Y-80000000D03*
X15000000Y-80000000D03*
X15500000Y-80000000D03*
X16000000Y-80000000D03*
X16500000Y-80000000D03*
X17000000Y-80000000D03*
X17500000Y-80000000D03*
X18000000Y-80000000D03*
X18500000Y-80000000D03*
X19000000Y-80000000D03*
X19500000Y-80000000D03*
X20000000Y-80000000D03*
X20500000Y-80000000D03*
X21000000Y-80000000D03*
X21500000Y-80000000D03*
X22000000Y-80000000D03*
X22500000Y-80000000D03*
X23000000Y-80000000D03*
X23500000Y-80000000D03*
X24000000Y-80000000D03*
X24500000Y-80000000D03*
X25000000Y-80000000D03*
X25500000Y-80000000D03*
X26000000Y-80000000D03*
X26500000Y-80000000D03*
X27000000Y-80000000D03*
X27500000Y-80000000D03*
X28000000Y-80000000D03*
X28500000Y-80000000D03*
X29000000Y-80000000D03*
X29500000Y-80000000D03*
X30000000Y-80000000D03*
X30500000Y-80000000D03*
X31000000Y-80000000D03*
X31500000Y-80000000D03*
X32000000Y-80000000D03*
X32500000Y-80000000D03*
X33000000Y-80000000D03*
X33500000Y-80000000D03*
X34000000Y-80000000D03*
X34500000Y-80000000D03*
X35000000Y-80000000D03*
X35500000Y-80000000D03*
X36000000Y-80000000D03*
X36500000Y-80000000D03*
X37000000Y-80000000D03*
X37500000Y-80000000D03*
X38000000Y-80000000D03*
X38500000Y-80000000D03*
X39000000Y-80000000D03*
X39500000Y-80000000D03*
X40000000Y-80000000D03*
X40500000Y-80000000D03*
%TD*%
M02*
