M48
; DRILL file KiCad 10.0.5 date 2026-08-04T17:23:01
; FORMAT={-:-/ absolute / metric / decimal}
; #@! TF.CreationDate,2026-08-04T17:23:01-07:00
; #@! TF.GenerationSoftware,Kicad,Pcbnew,10.0.5
; #@! TF.FileFunction,MixedPlating,1,8
FMAT,2
METRIC
; #@! TA.AperFunction,Plated,PTH,ComponentDrill
T1C0.600
; #@! TA.AperFunction,Plated,PTH,ComponentDrill
T2C0.700
; #@! TA.AperFunction,Plated,PTH,ComponentDrill
T3C0.900
; #@! TA.AperFunction,Plated,PTH,ComponentDrill
T4C1.000
; #@! TA.AperFunction,NonPlated,NPTH,ComponentDrill
T5C0.650
; #@! TA.AperFunction,NonPlated,NPTH,ComponentDrill
T6C1.600
; #@! TA.AperFunction,NonPlated,NPTH,ComponentDrill
T7C2.400
; #@! TA.AperFunction,NonPlated,NPTH,ComponentDrill
T8C3.170
%
G90
G05
T2
X2.5Y2.5
X2.5Y0.5
X2.5Y-1.5
X2.5Y-3.5
X2.5Y-5.5
X4.0Y2.0
X4.0Y-0.5
X4.0Y-2.5
X4.0Y-5.0
X96.0Y-5.0
X96.0Y-7.5
X96.0Y-9.5
X96.0Y-12.0
X97.5Y-4.5
X97.5Y-6.5
X97.5Y-8.5
X97.5Y-10.5
X97.5Y-12.5
T5
X47.11Y-93.395
X52.89Y-93.395
T6
X13.0Y-40.0
T7
X22.0Y-108.0
T8
X93.01Y-56.285
X93.01Y-67.715
T1
X2.7Y4.9G85X3.8Y4.9
G05
X2.7Y-7.9G85X3.8Y-7.9
G05
X11.35Y4.9G85X12.15Y4.9
G05
X11.35Y-7.9G85X12.15Y-7.9
G05
X45.68Y-92.345G85X45.68Y-93.445
G05
X45.68Y-96.675G85X45.68Y-97.475
G05
X54.32Y-92.345G85X54.32Y-93.445
G05
X54.32Y-96.675G85X54.32Y-97.475
G05
X88.65Y-2.1G85X87.85Y-2.1
G05
X88.65Y-14.9G85X87.85Y-14.9
G05
X97.3Y-2.1G85X96.2Y-2.1
G05
X97.3Y-14.9G85X96.2Y-14.9
G05
T3
X88.75Y-31.575G85X88.75Y-33.375
G05
X88.75Y-38.035G85X88.75Y-38.835
G05
X103.25Y-31.575G85X103.25Y-33.375
G05
X103.25Y-38.035G85X103.25Y-38.835
G05
T4
X4.0Y-41.0G85X4.0Y-39.0
G05
X10.0Y-40.65G85X10.0Y-39.35
G05
X10.25Y-35.5G85X11.75Y-35.5
G05
X10.25Y-44.5G85X11.75Y-44.5
G05
M30
