%TF.GenerationSoftware,KiCad,Pcbnew,10.0.5*%
%TF.CreationDate,2026-08-04T17:22:56-07:00*%
%TF.ProjectId,palpod-extender-sbc-real,70616c70-6f64-42d6-9578-74656e646572,A0*%
%TF.SameCoordinates,Original*%
%TF.FileFunction,OtherDrawing,Comment*%
%FSLAX46Y46*%
G04 Gerber Fmt 4.6, Leading zero omitted, Abs format (unit mm)*
G04 Created by KiCad (PCBNEW 10.0.5) date 2026-08-04 17:22:56*
%MOMM*%
%LPD*%
G01*
G04 APERTURE LIST*
%ADD10C,0.150000*%
%ADD11C,0.100000*%
G04 APERTURE END LIST*
D10*
X92571428Y-41169819D02*
X92571428Y-40169819D01*
X92571428Y-40169819D02*
X92952380Y-40169819D01*
X92952380Y-40169819D02*
X93047618Y-40217438D01*
X93047618Y-40217438D02*
X93095237Y-40265057D01*
X93095237Y-40265057D02*
X93142856Y-40360295D01*
X93142856Y-40360295D02*
X93142856Y-40503152D01*
X93142856Y-40503152D02*
X93095237Y-40598390D01*
X93095237Y-40598390D02*
X93047618Y-40646009D01*
X93047618Y-40646009D02*
X92952380Y-40693628D01*
X92952380Y-40693628D02*
X92571428Y-40693628D01*
X94142856Y-41074580D02*
X94095237Y-41122200D01*
X94095237Y-41122200D02*
X93952380Y-41169819D01*
X93952380Y-41169819D02*
X93857142Y-41169819D01*
X93857142Y-41169819D02*
X93714285Y-41122200D01*
X93714285Y-41122200D02*
X93619047Y-41026961D01*
X93619047Y-41026961D02*
X93571428Y-40931723D01*
X93571428Y-40931723D02*
X93523809Y-40741247D01*
X93523809Y-40741247D02*
X93523809Y-40598390D01*
X93523809Y-40598390D02*
X93571428Y-40407914D01*
X93571428Y-40407914D02*
X93619047Y-40312676D01*
X93619047Y-40312676D02*
X93714285Y-40217438D01*
X93714285Y-40217438D02*
X93857142Y-40169819D01*
X93857142Y-40169819D02*
X93952380Y-40169819D01*
X93952380Y-40169819D02*
X94095237Y-40217438D01*
X94095237Y-40217438D02*
X94142856Y-40265057D01*
X94904761Y-40646009D02*
X95047618Y-40693628D01*
X95047618Y-40693628D02*
X95095237Y-40741247D01*
X95095237Y-40741247D02*
X95142856Y-40836485D01*
X95142856Y-40836485D02*
X95142856Y-40979342D01*
X95142856Y-40979342D02*
X95095237Y-41074580D01*
X95095237Y-41074580D02*
X95047618Y-41122200D01*
X95047618Y-41122200D02*
X94952380Y-41169819D01*
X94952380Y-41169819D02*
X94571428Y-41169819D01*
X94571428Y-41169819D02*
X94571428Y-40169819D01*
X94571428Y-40169819D02*
X94904761Y-40169819D01*
X94904761Y-40169819D02*
X94999999Y-40217438D01*
X94999999Y-40217438D02*
X95047618Y-40265057D01*
X95047618Y-40265057D02*
X95095237Y-40360295D01*
X95095237Y-40360295D02*
X95095237Y-40455533D01*
X95095237Y-40455533D02*
X95047618Y-40550771D01*
X95047618Y-40550771D02*
X94999999Y-40598390D01*
X94999999Y-40598390D02*
X94904761Y-40646009D01*
X94904761Y-40646009D02*
X94571428Y-40646009D01*
X96333333Y-40646009D02*
X96666666Y-40646009D01*
X96809523Y-41169819D02*
X96333333Y-41169819D01*
X96333333Y-41169819D02*
X96333333Y-40169819D01*
X96333333Y-40169819D02*
X96809523Y-40169819D01*
X97666666Y-41169819D02*
X97666666Y-40169819D01*
X97666666Y-41122200D02*
X97571428Y-41169819D01*
X97571428Y-41169819D02*
X97380952Y-41169819D01*
X97380952Y-41169819D02*
X97285714Y-41122200D01*
X97285714Y-41122200D02*
X97238095Y-41074580D01*
X97238095Y-41074580D02*
X97190476Y-40979342D01*
X97190476Y-40979342D02*
X97190476Y-40693628D01*
X97190476Y-40693628D02*
X97238095Y-40598390D01*
X97238095Y-40598390D02*
X97285714Y-40550771D01*
X97285714Y-40550771D02*
X97380952Y-40503152D01*
X97380952Y-40503152D02*
X97571428Y-40503152D01*
X97571428Y-40503152D02*
X97666666Y-40550771D01*
X98571428Y-40503152D02*
X98571428Y-41312676D01*
X98571428Y-41312676D02*
X98523809Y-41407914D01*
X98523809Y-41407914D02*
X98476190Y-41455533D01*
X98476190Y-41455533D02*
X98380952Y-41503152D01*
X98380952Y-41503152D02*
X98238095Y-41503152D01*
X98238095Y-41503152D02*
X98142857Y-41455533D01*
X98571428Y-41122200D02*
X98476190Y-41169819D01*
X98476190Y-41169819D02*
X98285714Y-41169819D01*
X98285714Y-41169819D02*
X98190476Y-41122200D01*
X98190476Y-41122200D02*
X98142857Y-41074580D01*
X98142857Y-41074580D02*
X98095238Y-40979342D01*
X98095238Y-40979342D02*
X98095238Y-40693628D01*
X98095238Y-40693628D02*
X98142857Y-40598390D01*
X98142857Y-40598390D02*
X98190476Y-40550771D01*
X98190476Y-40550771D02*
X98285714Y-40503152D01*
X98285714Y-40503152D02*
X98476190Y-40503152D01*
X98476190Y-40503152D02*
X98571428Y-40550771D01*
X99428571Y-41122200D02*
X99333333Y-41169819D01*
X99333333Y-41169819D02*
X99142857Y-41169819D01*
X99142857Y-41169819D02*
X99047619Y-41122200D01*
X99047619Y-41122200D02*
X99000000Y-41026961D01*
X99000000Y-41026961D02*
X99000000Y-40646009D01*
X99000000Y-40646009D02*
X99047619Y-40550771D01*
X99047619Y-40550771D02*
X99142857Y-40503152D01*
X99142857Y-40503152D02*
X99333333Y-40503152D01*
X99333333Y-40503152D02*
X99428571Y-40550771D01*
X99428571Y-40550771D02*
X99476190Y-40646009D01*
X99476190Y-40646009D02*
X99476190Y-40741247D01*
X99476190Y-40741247D02*
X99000000Y-40836485D01*
D11*
X48285714Y-99326109D02*
X48285714Y-98826109D01*
X48285714Y-98826109D02*
X48476190Y-98826109D01*
X48476190Y-98826109D02*
X48523809Y-98849919D01*
X48523809Y-98849919D02*
X48547619Y-98873728D01*
X48547619Y-98873728D02*
X48571428Y-98921347D01*
X48571428Y-98921347D02*
X48571428Y-98992776D01*
X48571428Y-98992776D02*
X48547619Y-99040395D01*
X48547619Y-99040395D02*
X48523809Y-99064204D01*
X48523809Y-99064204D02*
X48476190Y-99088014D01*
X48476190Y-99088014D02*
X48285714Y-99088014D01*
X49071428Y-99278490D02*
X49047619Y-99302300D01*
X49047619Y-99302300D02*
X48976190Y-99326109D01*
X48976190Y-99326109D02*
X48928571Y-99326109D01*
X48928571Y-99326109D02*
X48857143Y-99302300D01*
X48857143Y-99302300D02*
X48809524Y-99254680D01*
X48809524Y-99254680D02*
X48785714Y-99207061D01*
X48785714Y-99207061D02*
X48761905Y-99111823D01*
X48761905Y-99111823D02*
X48761905Y-99040395D01*
X48761905Y-99040395D02*
X48785714Y-98945157D01*
X48785714Y-98945157D02*
X48809524Y-98897538D01*
X48809524Y-98897538D02*
X48857143Y-98849919D01*
X48857143Y-98849919D02*
X48928571Y-98826109D01*
X48928571Y-98826109D02*
X48976190Y-98826109D01*
X48976190Y-98826109D02*
X49047619Y-98849919D01*
X49047619Y-98849919D02*
X49071428Y-98873728D01*
X49452381Y-99064204D02*
X49523809Y-99088014D01*
X49523809Y-99088014D02*
X49547619Y-99111823D01*
X49547619Y-99111823D02*
X49571428Y-99159442D01*
X49571428Y-99159442D02*
X49571428Y-99230871D01*
X49571428Y-99230871D02*
X49547619Y-99278490D01*
X49547619Y-99278490D02*
X49523809Y-99302300D01*
X49523809Y-99302300D02*
X49476190Y-99326109D01*
X49476190Y-99326109D02*
X49285714Y-99326109D01*
X49285714Y-99326109D02*
X49285714Y-98826109D01*
X49285714Y-98826109D02*
X49452381Y-98826109D01*
X49452381Y-98826109D02*
X49500000Y-98849919D01*
X49500000Y-98849919D02*
X49523809Y-98873728D01*
X49523809Y-98873728D02*
X49547619Y-98921347D01*
X49547619Y-98921347D02*
X49547619Y-98968966D01*
X49547619Y-98968966D02*
X49523809Y-99016585D01*
X49523809Y-99016585D02*
X49500000Y-99040395D01*
X49500000Y-99040395D02*
X49452381Y-99064204D01*
X49452381Y-99064204D02*
X49285714Y-99064204D01*
X50166666Y-99064204D02*
X50333333Y-99064204D01*
X50404761Y-99326109D02*
X50166666Y-99326109D01*
X50166666Y-99326109D02*
X50166666Y-98826109D01*
X50166666Y-98826109D02*
X50404761Y-98826109D01*
X50833333Y-99326109D02*
X50833333Y-98826109D01*
X50833333Y-99302300D02*
X50785714Y-99326109D01*
X50785714Y-99326109D02*
X50690476Y-99326109D01*
X50690476Y-99326109D02*
X50642857Y-99302300D01*
X50642857Y-99302300D02*
X50619047Y-99278490D01*
X50619047Y-99278490D02*
X50595238Y-99230871D01*
X50595238Y-99230871D02*
X50595238Y-99088014D01*
X50595238Y-99088014D02*
X50619047Y-99040395D01*
X50619047Y-99040395D02*
X50642857Y-99016585D01*
X50642857Y-99016585D02*
X50690476Y-98992776D01*
X50690476Y-98992776D02*
X50785714Y-98992776D01*
X50785714Y-98992776D02*
X50833333Y-99016585D01*
X51285714Y-98992776D02*
X51285714Y-99397538D01*
X51285714Y-99397538D02*
X51261904Y-99445157D01*
X51261904Y-99445157D02*
X51238095Y-99468966D01*
X51238095Y-99468966D02*
X51190476Y-99492776D01*
X51190476Y-99492776D02*
X51119047Y-99492776D01*
X51119047Y-99492776D02*
X51071428Y-99468966D01*
X51285714Y-99302300D02*
X51238095Y-99326109D01*
X51238095Y-99326109D02*
X51142857Y-99326109D01*
X51142857Y-99326109D02*
X51095238Y-99302300D01*
X51095238Y-99302300D02*
X51071428Y-99278490D01*
X51071428Y-99278490D02*
X51047619Y-99230871D01*
X51047619Y-99230871D02*
X51047619Y-99088014D01*
X51047619Y-99088014D02*
X51071428Y-99040395D01*
X51071428Y-99040395D02*
X51095238Y-99016585D01*
X51095238Y-99016585D02*
X51142857Y-98992776D01*
X51142857Y-98992776D02*
X51238095Y-98992776D01*
X51238095Y-98992776D02*
X51285714Y-99016585D01*
X51714285Y-99302300D02*
X51666666Y-99326109D01*
X51666666Y-99326109D02*
X51571428Y-99326109D01*
X51571428Y-99326109D02*
X51523809Y-99302300D01*
X51523809Y-99302300D02*
X51500000Y-99254680D01*
X51500000Y-99254680D02*
X51500000Y-99064204D01*
X51500000Y-99064204D02*
X51523809Y-99016585D01*
X51523809Y-99016585D02*
X51571428Y-98992776D01*
X51571428Y-98992776D02*
X51666666Y-98992776D01*
X51666666Y-98992776D02*
X51714285Y-99016585D01*
X51714285Y-99016585D02*
X51738095Y-99064204D01*
X51738095Y-99064204D02*
X51738095Y-99111823D01*
X51738095Y-99111823D02*
X51500000Y-99159442D01*
%TO.C,J1*%
X103500000Y-42025000D02*
X88500000Y-42025000D01*
%TO.C,J5*%
X55000000Y-99675000D02*
X45000000Y-99675000D01*
%TD*%
M02*
