%TF.GenerationSoftware,KiCad,Pcbnew,10.0.5*%
%TF.CreationDate,2026-08-04T17:22:56-07:00*%
%TF.ProjectId,palpod-extender-sbc-real,70616c70-6f64-42d6-9578-74656e646572,A0*%
%TF.SameCoordinates,Original*%
%TF.FileFunction,Soldermask,Bot*%
%TF.FilePolarity,Negative*%
%FSLAX46Y46*%
G04 Gerber Fmt 4.6, Leading zero omitted, Abs format (unit mm)*
G04 Created by KiCad (PCBNEW 10.0.5) date 2026-08-04 17:22:56*
%MOMM*%
%LPD*%
G01*
G04 APERTURE LIST*
G04 Aperture macros list*
%AMRoundRect*
0 Rectangle with rounded corners*
0 $1 Rounding radius*
0 $2 $3 $4 $5 $6 $7 $8 $9 X,Y pos of 4 corners*
0 Add a 4 corners polygon primitive as box body*
4,1,4,$2,$3,$4,$5,$6,$7,$8,$9,$2,$3,0*
0 Add four circle primitives for the rounded corners*
1,1,$1+$1,$2,$3*
1,1,$1+$1,$4,$5*
1,1,$1+$1,$6,$7*
1,1,$1+$1,$8,$9*
0 Add four rect primitives between the rounded corners*
20,1,$1+$1,$2,$3,$4,$5,0*
20,1,$1+$1,$4,$5,$6,$7,0*
20,1,$1+$1,$6,$7,$8,$9,0*
20,1,$1+$1,$8,$9,$2,$3,0*%
G04 Aperture macros list end*
%ADD10C,3.170000*%
%ADD11C,1.600000*%
%ADD12R,2.000000X4.000000*%
%ADD13O,2.000000X3.300000*%
%ADD14O,3.500000X2.000000*%
%ADD15O,1.500000X3.300000*%
%ADD16O,1.500000X2.300000*%
%ADD17C,0.650000*%
%ADD18O,1.000000X2.100000*%
%ADD19O,1.000000X1.800000*%
%ADD20RoundRect,0.250000X-0.350000X0.350000X-0.350000X-0.350000X0.350000X-0.350000X0.350000X0.350000X0*%
%ADD21C,1.200000*%
%ADD22O,2.400000X1.200000*%
%ADD23O,2.100000X1.200000*%
%ADD24RoundRect,0.250000X0.350000X-0.350000X0.350000X0.350000X-0.350000X0.350000X-0.350000X-0.350000X0*%
%ADD25C,2.400000*%
G04 APERTURE END LIST*
D10*
%TO.C,J2*%
X93010000Y-56285000D03*
X93010000Y-67715000D03*
%TD*%
D11*
%TO.C,J6*%
X13000000Y-40000000D03*
D12*
X4000000Y-40000000D03*
D13*
X10000000Y-40000000D03*
D14*
X11000000Y-44500000D03*
X11000000Y-35500000D03*
%TD*%
D15*
%TO.C,J1*%
X103250000Y-32475000D03*
X88750000Y-32475000D03*
D16*
X103250000Y-38435000D03*
X88750000Y-38435000D03*
%TD*%
D17*
%TO.C,J5*%
X47110000Y-93395000D03*
X52890000Y-93395000D03*
D18*
X45680000Y-92895000D03*
D19*
X45680000Y-97075000D03*
D18*
X54320000Y-92895000D03*
D19*
X54320000Y-97075000D03*
%TD*%
D20*
%TO.C,J3*%
X96000000Y-5000000D03*
D21*
X96000000Y-7500000D03*
X96000000Y-9500000D03*
X96000000Y-12000000D03*
X97500000Y-12500000D03*
X97500000Y-10500000D03*
X97500000Y-8500000D03*
X97500000Y-6500000D03*
X97500000Y-4500000D03*
D22*
X96750000Y-2100000D03*
D23*
X88250000Y-2100000D03*
D22*
X96750000Y-14900000D03*
D23*
X88250000Y-14900000D03*
%TD*%
D24*
%TO.C,J4*%
X4000000Y-5000000D03*
D21*
X4000000Y-2500000D03*
X4000000Y-500000D03*
X4000000Y2000000D03*
X2500000Y2500000D03*
X2500000Y500000D03*
X2500000Y-1500000D03*
X2500000Y-3500000D03*
X2500000Y-5500000D03*
D22*
X3250000Y-7900000D03*
D23*
X11750000Y-7900000D03*
D22*
X3250000Y4900000D03*
D23*
X11750000Y4900000D03*
%TD*%
D25*
%TO.C,M1*%
X22000000Y-108000000D03*
%TD*%
M02*
