%TF.GenerationSoftware,KiCad,Pcbnew,10.0.5*%
%TF.CreationDate,2026-08-04T17:22:55-07:00*%
%TF.ProjectId,palpod-extender-sbc-real,70616c70-6f64-42d6-9578-74656e646572,A0*%
%TF.SameCoordinates,Original*%
%TF.FileFunction,Copper,L1,Top*%
%TF.FilePolarity,Positive*%
%FSLAX46Y46*%
G04 Gerber Fmt 4.6, Leading zero omitted, Abs format (unit mm)*
G04 Created by KiCad (PCBNEW 10.0.5) date 2026-08-04 17:22:55*
%MOMM*%
%LPD*%
G01*
G04 APERTURE LIST*
G04 Aperture macros list*
%AMRoundRect*
0 Rectangle with rounded corners*
0 $1 Rounding radius*
0 $2 $3 $4 $5 $6 $7 $8 $9 X,Y pos of 4 corners*
0 Add a 4 corners polygon primitive as box body*
4,1,4,$2,$3,$4,$5,$6,$7,$8,$9,$2,$3,0*
0 Add four circle primitives for the rounded corners*
1,1,$1+$1,$2,$3*
1,1,$1+$1,$4,$5*
1,1,$1+$1,$6,$7*
1,1,$1+$1,$8,$9*
0 Add four rect primitives between the rounded corners*
20,1,$1+$1,$2,$3,$4,$5,0*
20,1,$1+$1,$4,$5,$6,$7,0*
20,1,$1+$1,$6,$7,$8,$9,0*
20,1,$1+$1,$8,$9,$2,$3,0*%
G04 Aperture macros list end*
%TA.AperFunction,SMDPad,CuDef*%
%ADD10C,0.280000*%
%TD*%
%TA.AperFunction,SMDPad,CuDef*%
%ADD11RoundRect,0.135000X-0.135000X-0.185000X0.135000X-0.185000X0.135000X0.185000X-0.135000X0.185000X0*%
%TD*%
%TA.AperFunction,SMDPad,CuDef*%
%ADD12RoundRect,0.140000X-1.130000X0.140000X-1.130000X-0.140000X1.130000X-0.140000X1.130000X0.140000X0*%
%TD*%
%TA.AperFunction,SMDPad,CuDef*%
%ADD13RoundRect,0.250000X-1.145000X0.955000X-1.145000X-0.955000X1.145000X-0.955000X1.145000X0.955000X0*%
%TD*%
%TA.AperFunction,SMDPad,CuDef*%
%ADD14RoundRect,0.250000X-0.955000X1.920000X-0.955000X-1.920000X0.955000X-1.920000X0.955000X1.920000X0*%
%TD*%
%TA.AperFunction,ComponentPad*%
%ADD15R,2.000000X4.000000*%
%TD*%
%TA.AperFunction,ComponentPad*%
%ADD16O,2.000000X3.300000*%
%TD*%
%TA.AperFunction,ComponentPad*%
%ADD17O,3.500000X2.000000*%
%TD*%
%TA.AperFunction,SMDPad,CuDef*%
%ADD18C,0.400000*%
%TD*%
%TA.AperFunction,SMDPad,CuDef*%
%ADD19R,0.300000X2.600000*%
%TD*%
%TA.AperFunction,ComponentPad*%
%ADD20O,1.500000X3.300000*%
%TD*%
%TA.AperFunction,ComponentPad*%
%ADD21O,1.500000X2.300000*%
%TD*%
%TA.AperFunction,SMDPad,CuDef*%
%ADD22RoundRect,0.150000X-0.150000X-0.425000X0.150000X-0.425000X0.150000X0.425000X-0.150000X0.425000X0*%
%TD*%
%TA.AperFunction,SMDPad,CuDef*%
%ADD23RoundRect,0.075000X-0.075000X-0.500000X0.075000X-0.500000X0.075000X0.500000X-0.075000X0.500000X0*%
%TD*%
%TA.AperFunction,ComponentPad*%
%ADD24O,1.000000X2.100000*%
%TD*%
%TA.AperFunction,ComponentPad*%
%ADD25O,1.000000X1.800000*%
%TD*%
%TA.AperFunction,SMDPad,CuDef*%
%ADD26RoundRect,0.062500X-0.237500X-0.062500X0.237500X-0.062500X0.237500X0.062500X-0.237500X0.062500X0*%
%TD*%
%TA.AperFunction,SMDPad,CuDef*%
%ADD27RoundRect,0.062500X-0.062500X-0.237500X0.062500X-0.237500X0.062500X0.237500X-0.062500X0.237500X0*%
%TD*%
%TA.AperFunction,SMDPad,CuDef*%
%ADD28R,4.500000X4.500000*%
%TD*%
%TA.AperFunction,ComponentPad*%
%ADD29RoundRect,0.250000X-0.350000X0.350000X-0.350000X-0.350000X0.350000X-0.350000X0.350000X0.350000X0*%
%TD*%
%TA.AperFunction,ComponentPad*%
%ADD30C,1.200000*%
%TD*%
%TA.AperFunction,ComponentPad*%
%ADD31O,2.400000X1.200000*%
%TD*%
%TA.AperFunction,ComponentPad*%
%ADD32O,2.100000X1.200000*%
%TD*%
%TA.AperFunction,ComponentPad*%
%ADD33RoundRect,0.250000X0.350000X-0.350000X0.350000X0.350000X-0.350000X0.350000X-0.350000X-0.350000X0*%
%TD*%
%TA.AperFunction,BGAPad,CuDef*%
%ADD34C,0.240000*%
%TD*%
%TA.AperFunction,SMDPad,CuDef*%
%ADD35RoundRect,0.062500X-0.350000X-0.062500X0.350000X-0.062500X0.350000X0.062500X-0.350000X0.062500X0*%
%TD*%
%TA.AperFunction,SMDPad,CuDef*%
%ADD36RoundRect,0.062500X-0.062500X-0.350000X0.062500X-0.350000X0.062500X0.350000X-0.062500X0.350000X0*%
%TD*%
%TA.AperFunction,HeatsinkPad*%
%ADD37R,3.600000X3.600000*%
%TD*%
%TA.AperFunction,SMDPad,CuDef*%
%ADD38RoundRect,0.087500X-0.412500X-0.087500X0.412500X-0.087500X0.412500X0.087500X-0.412500X0.087500X0*%
%TD*%
%TA.AperFunction,SMDPad,CuDef*%
%ADD39RoundRect,0.087500X-0.087500X-0.412500X0.087500X-0.412500X0.087500X0.412500X-0.087500X0.412500X0*%
%TD*%
%TA.AperFunction,SMDPad,CuDef*%
%ADD40R,5.000000X5.000000*%
%TD*%
%TA.AperFunction,SMDPad,CuDef*%
%ADD41RoundRect,0.225000X-0.225000X-0.250000X0.225000X-0.250000X0.225000X0.250000X-0.225000X0.250000X0*%
%TD*%
%TA.AperFunction,SMDPad,CuDef*%
%ADD42RoundRect,0.062500X-0.187500X-0.062500X0.187500X-0.062500X0.187500X0.062500X-0.187500X0.062500X0*%
%TD*%
%TA.AperFunction,SMDPad,CuDef*%
%ADD43RoundRect,0.062500X-0.062500X-0.187500X0.062500X-0.187500X0.062500X0.187500X-0.062500X0.187500X0*%
%TD*%
%TA.AperFunction,SMDPad,CuDef*%
%ADD44R,2.500000X2.500000*%
%TD*%
%TA.AperFunction,SMDPad,CuDef*%
%ADD45RoundRect,0.125000X-0.625000X-0.125000X0.625000X-0.125000X0.625000X0.125000X-0.625000X0.125000X0*%
%TD*%
%TA.AperFunction,SMDPad,CuDef*%
%ADD46RoundRect,0.125000X-0.125000X-0.625000X0.125000X-0.625000X0.125000X0.625000X-0.125000X0.625000X0*%
%TD*%
%TA.AperFunction,SMDPad,CuDef*%
%ADD47RoundRect,0.050000X-0.200000X-0.050000X0.200000X-0.050000X0.200000X0.050000X-0.200000X0.050000X0*%
%TD*%
%TA.AperFunction,SMDPad,CuDef*%
%ADD48RoundRect,0.050000X-0.050000X-0.200000X0.050000X-0.200000X0.050000X0.200000X-0.050000X0.200000X0*%
%TD*%
%TA.AperFunction,SMDPad,CuDef*%
%ADD49R,0.350000X3.000000*%
%TD*%
G04 APERTURE END LIST*
D10*
%TO.P,U3,A6*%
%TO.N,N/C*%
X48000000Y-18500000D03*
%TO.P,U3,A7*%
X48500000Y-18500000D03*
%TO.P,U3,A8*%
X49000000Y-18500000D03*
%TO.P,U3,A9*%
X49500000Y-18500000D03*
%TO.P,U3,A10*%
X50000000Y-18500000D03*
%TO.P,U3,A11*%
X50500000Y-18500000D03*
%TO.P,U3,A12*%
X51000000Y-18500000D03*
%TO.P,U3,A13*%
X51500000Y-18500000D03*
%TO.P,U3,B6*%
X48000000Y-19000000D03*
%TO.P,U3,B7*%
X48500000Y-19000000D03*
%TO.P,U3,B8*%
X49000000Y-19000000D03*
%TO.P,U3,B9*%
X49500000Y-19000000D03*
%TO.P,U3,B10*%
X50000000Y-19000000D03*
%TO.P,U3,B11*%
X50500000Y-19000000D03*
%TO.P,U3,B12*%
X51000000Y-19000000D03*
%TO.P,U3,B13*%
X51500000Y-19000000D03*
%TO.P,U3,C6*%
X48000000Y-19500000D03*
%TO.P,U3,C7*%
X48500000Y-19500000D03*
%TO.P,U3,C8*%
X49000000Y-19500000D03*
%TO.P,U3,C9*%
X49500000Y-19500000D03*
%TO.P,U3,C10*%
X50000000Y-19500000D03*
%TO.P,U3,C11*%
X50500000Y-19500000D03*
%TO.P,U3,C12*%
X51000000Y-19500000D03*
%TO.P,U3,C13*%
X51500000Y-19500000D03*
%TO.P,U3,D6*%
X48000000Y-20000000D03*
%TO.P,U3,D7*%
X48500000Y-20000000D03*
%TO.P,U3,D8*%
X49000000Y-20000000D03*
%TO.P,U3,D9*%
X49500000Y-20000000D03*
%TO.P,U3,D10*%
X50000000Y-20000000D03*
%TO.P,U3,D11*%
X50500000Y-20000000D03*
%TO.P,U3,D12*%
X51000000Y-20000000D03*
%TO.P,U3,D13*%
X51500000Y-20000000D03*
%TO.P,U3,E6*%
X48000000Y-20500000D03*
%TO.P,U3,E7*%
X48500000Y-20500000D03*
%TO.P,U3,E8*%
X49000000Y-20500000D03*
%TO.P,U3,E9*%
X49500000Y-20500000D03*
%TO.P,U3,E10*%
X50000000Y-20500000D03*
%TO.P,U3,E11*%
X50500000Y-20500000D03*
%TO.P,U3,E12*%
X51000000Y-20500000D03*
%TO.P,U3,E13*%
X51500000Y-20500000D03*
%TO.P,U3,F1*%
X45500000Y-21000000D03*
%TO.P,U3,F2*%
X46000000Y-21000000D03*
%TO.P,U3,F3*%
X46500000Y-21000000D03*
%TO.P,U3,F4*%
X47000000Y-21000000D03*
%TO.P,U3,F5*%
X47500000Y-21000000D03*
%TO.P,U3,F6*%
X48000000Y-21000000D03*
%TO.P,U3,F7*%
X48500000Y-21000000D03*
%TO.P,U3,F8*%
X49000000Y-21000000D03*
%TO.P,U3,F9*%
X49500000Y-21000000D03*
%TO.P,U3,F10*%
X50000000Y-21000000D03*
%TO.P,U3,F11*%
X50500000Y-21000000D03*
%TO.P,U3,F12*%
X51000000Y-21000000D03*
%TO.P,U3,F13*%
X51500000Y-21000000D03*
%TO.P,U3,F14*%
X52000000Y-21000000D03*
%TO.P,U3,F15*%
X52500000Y-21000000D03*
%TO.P,U3,F16*%
X53000000Y-21000000D03*
%TO.P,U3,F17*%
X53500000Y-21000000D03*
%TO.P,U3,F18*%
X54000000Y-21000000D03*
%TO.P,U3,G1*%
X45500000Y-21500000D03*
%TO.P,U3,G2*%
X46000000Y-21500000D03*
%TO.P,U3,G3*%
X46500000Y-21500000D03*
%TO.P,U3,G4*%
X47000000Y-21500000D03*
%TO.P,U3,G5*%
X47500000Y-21500000D03*
%TO.P,U3,G6*%
X48000000Y-21500000D03*
%TO.P,U3,G7*%
X48500000Y-21500000D03*
%TO.P,U3,G8*%
X49000000Y-21500000D03*
%TO.P,U3,G9*%
X49500000Y-21500000D03*
%TO.P,U3,G10*%
X50000000Y-21500000D03*
%TO.P,U3,G11*%
X50500000Y-21500000D03*
%TO.P,U3,G12*%
X51000000Y-21500000D03*
%TO.P,U3,G13*%
X51500000Y-21500000D03*
%TO.P,U3,G14*%
X52000000Y-21500000D03*
%TO.P,U3,G15*%
X52500000Y-21500000D03*
%TO.P,U3,G16*%
X53000000Y-21500000D03*
%TO.P,U3,G17*%
X53500000Y-21500000D03*
%TO.P,U3,G18*%
X54000000Y-21500000D03*
%TO.P,U3,H1*%
X45500000Y-22000000D03*
%TO.P,U3,H2*%
X46000000Y-22000000D03*
%TO.P,U3,H3*%
X46500000Y-22000000D03*
%TO.P,U3,H4*%
X47000000Y-22000000D03*
%TO.P,U3,H5*%
X47500000Y-22000000D03*
%TO.P,U3,H6*%
X48000000Y-22000000D03*
%TO.P,U3,H7*%
X48500000Y-22000000D03*
%TO.P,U3,H8*%
X49000000Y-22000000D03*
%TO.P,U3,H9*%
X49500000Y-22000000D03*
%TO.P,U3,H10*%
X50000000Y-22000000D03*
%TO.P,U3,H11*%
X50500000Y-22000000D03*
%TO.P,U3,H12*%
X51000000Y-22000000D03*
%TO.P,U3,H13*%
X51500000Y-22000000D03*
%TO.P,U3,H14*%
X52000000Y-22000000D03*
%TO.P,U3,H15*%
X52500000Y-22000000D03*
%TO.P,U3,H16*%
X53000000Y-22000000D03*
%TO.P,U3,H17*%
X53500000Y-22000000D03*
%TO.P,U3,H18*%
X54000000Y-22000000D03*
%TO.P,U3,I1*%
X45500000Y-22500000D03*
%TO.P,U3,I2*%
X46000000Y-22500000D03*
%TO.P,U3,I3*%
X46500000Y-22500000D03*
%TO.P,U3,I4*%
X47000000Y-22500000D03*
%TO.P,U3,I5*%
X47500000Y-22500000D03*
%TO.P,U3,I6*%
X48000000Y-22500000D03*
%TO.P,U3,I7*%
X48500000Y-22500000D03*
%TO.P,U3,I8*%
X49000000Y-22500000D03*
%TO.P,U3,I9*%
X49500000Y-22500000D03*
%TO.P,U3,I10*%
X50000000Y-22500000D03*
%TO.P,U3,I11*%
X50500000Y-22500000D03*
%TO.P,U3,I12*%
X51000000Y-22500000D03*
%TO.P,U3,I13*%
X51500000Y-22500000D03*
%TO.P,U3,I14*%
X52000000Y-22500000D03*
%TO.P,U3,I15*%
X52500000Y-22500000D03*
%TO.P,U3,I16*%
X53000000Y-22500000D03*
%TO.P,U3,I17*%
X53500000Y-22500000D03*
%TO.P,U3,I18*%
X54000000Y-22500000D03*
%TO.P,U3,J1*%
X45500000Y-23000000D03*
%TO.P,U3,J2*%
X46000000Y-23000000D03*
%TO.P,U3,J3*%
X46500000Y-23000000D03*
%TO.P,U3,J4*%
X47000000Y-23000000D03*
%TO.P,U3,J5*%
X47500000Y-23000000D03*
%TO.P,U3,J6*%
X48000000Y-23000000D03*
%TO.P,U3,J7*%
X48500000Y-23000000D03*
%TO.P,U3,J8*%
X49000000Y-23000000D03*
%TO.P,U3,J9*%
X49500000Y-23000000D03*
%TO.P,U3,J10*%
X50000000Y-23000000D03*
%TO.P,U3,J11*%
X50500000Y-23000000D03*
%TO.P,U3,J12*%
X51000000Y-23000000D03*
%TO.P,U3,J13*%
X51500000Y-23000000D03*
%TO.P,U3,J14*%
X52000000Y-23000000D03*
%TO.P,U3,J15*%
X52500000Y-23000000D03*
%TO.P,U3,J16*%
X53000000Y-23000000D03*
%TO.P,U3,J17*%
X53500000Y-23000000D03*
%TO.P,U3,J18*%
X54000000Y-23000000D03*
%TO.P,U3,K1*%
X45500000Y-23500000D03*
%TO.P,U3,K2*%
X46000000Y-23500000D03*
%TO.P,U3,K3*%
X46500000Y-23500000D03*
%TO.P,U3,K4*%
X47000000Y-23500000D03*
%TO.P,U3,K5*%
X47500000Y-23500000D03*
%TO.P,U3,K6*%
X48000000Y-23500000D03*
%TO.P,U3,K7*%
X48500000Y-23500000D03*
%TO.P,U3,K8*%
X49000000Y-23500000D03*
%TO.P,U3,K9*%
X49500000Y-23500000D03*
%TO.P,U3,K10*%
X50000000Y-23500000D03*
%TO.P,U3,K11*%
X50500000Y-23500000D03*
%TO.P,U3,K12*%
X51000000Y-23500000D03*
%TO.P,U3,K13*%
X51500000Y-23500000D03*
%TO.P,U3,K14*%
X52000000Y-23500000D03*
%TO.P,U3,K15*%
X52500000Y-23500000D03*
%TO.P,U3,K16*%
X53000000Y-23500000D03*
%TO.P,U3,K17*%
X53500000Y-23500000D03*
%TO.P,U3,K18*%
X54000000Y-23500000D03*
%TO.P,U3,L1*%
X45500000Y-24000000D03*
%TO.P,U3,L2*%
X46000000Y-24000000D03*
%TO.P,U3,L3*%
X46500000Y-24000000D03*
%TO.P,U3,L4*%
X47000000Y-24000000D03*
%TO.P,U3,L5*%
X47500000Y-24000000D03*
%TO.P,U3,L6*%
X48000000Y-24000000D03*
%TO.P,U3,L7*%
X48500000Y-24000000D03*
%TO.P,U3,L8*%
X49000000Y-24000000D03*
%TO.P,U3,L9*%
X49500000Y-24000000D03*
%TO.P,U3,L10*%
X50000000Y-24000000D03*
%TO.P,U3,L11*%
X50500000Y-24000000D03*
%TO.P,U3,L12*%
X51000000Y-24000000D03*
%TO.P,U3,L13*%
X51500000Y-24000000D03*
%TO.P,U3,L14*%
X52000000Y-24000000D03*
%TO.P,U3,L15*%
X52500000Y-24000000D03*
%TO.P,U3,L16*%
X53000000Y-24000000D03*
%TO.P,U3,L17*%
X53500000Y-24000000D03*
%TO.P,U3,L18*%
X54000000Y-24000000D03*
%TO.P,U3,M1*%
X45500000Y-24500000D03*
%TO.P,U3,M2*%
X46000000Y-24500000D03*
%TO.P,U3,M3*%
X46500000Y-24500000D03*
%TO.P,U3,M4*%
X47000000Y-24500000D03*
%TO.P,U3,M5*%
X47500000Y-24500000D03*
%TO.P,U3,M6*%
X48000000Y-24500000D03*
%TO.P,U3,M7*%
X48500000Y-24500000D03*
%TO.P,U3,M8*%
X49000000Y-24500000D03*
%TO.P,U3,M9*%
X49500000Y-24500000D03*
%TO.P,U3,M10*%
X50000000Y-24500000D03*
%TO.P,U3,M11*%
X50500000Y-24500000D03*
%TO.P,U3,M12*%
X51000000Y-24500000D03*
%TO.P,U3,M13*%
X51500000Y-24500000D03*
%TO.P,U3,M14*%
X52000000Y-24500000D03*
%TO.P,U3,M15*%
X52500000Y-24500000D03*
%TO.P,U3,M16*%
X53000000Y-24500000D03*
%TO.P,U3,M17*%
X53500000Y-24500000D03*
%TO.P,U3,M18*%
X54000000Y-24500000D03*
%TO.P,U3,N6*%
X48000000Y-25000000D03*
%TO.P,U3,N7*%
X48500000Y-25000000D03*
%TO.P,U3,N8*%
X49000000Y-25000000D03*
%TO.P,U3,N9*%
X49500000Y-25000000D03*
%TO.P,U3,N10*%
X50000000Y-25000000D03*
%TO.P,U3,N11*%
X50500000Y-25000000D03*
%TO.P,U3,N12*%
X51000000Y-25000000D03*
%TO.P,U3,N13*%
X51500000Y-25000000D03*
%TO.P,U3,O6*%
X48000000Y-25500000D03*
%TO.P,U3,O7*%
X48500000Y-25500000D03*
%TO.P,U3,O8*%
X49000000Y-25500000D03*
%TO.P,U3,O9*%
X49500000Y-25500000D03*
%TO.P,U3,O10*%
X50000000Y-25500000D03*
%TO.P,U3,O11*%
X50500000Y-25500000D03*
%TO.P,U3,O12*%
X51000000Y-25500000D03*
%TO.P,U3,O13*%
X51500000Y-25500000D03*
%TO.P,U3,P6*%
X48000000Y-26000000D03*
%TO.P,U3,P7*%
X48500000Y-26000000D03*
%TO.P,U3,P8*%
X49000000Y-26000000D03*
%TO.P,U3,P9*%
X49500000Y-26000000D03*
%TO.P,U3,P10*%
X50000000Y-26000000D03*
%TO.P,U3,P11*%
X50500000Y-26000000D03*
%TO.P,U3,P12*%
X51000000Y-26000000D03*
%TO.P,U3,P13*%
X51500000Y-26000000D03*
%TO.P,U3,Q6*%
X48000000Y-26500000D03*
%TO.P,U3,Q7*%
X48500000Y-26500000D03*
%TO.P,U3,Q8*%
X49000000Y-26500000D03*
%TO.P,U3,Q9*%
X49500000Y-26500000D03*
%TO.P,U3,Q10*%
X50000000Y-26500000D03*
%TO.P,U3,Q11*%
X50500000Y-26500000D03*
%TO.P,U3,Q12*%
X51000000Y-26500000D03*
%TO.P,U3,Q13*%
X51500000Y-26500000D03*
%TO.P,U3,R6*%
X48000000Y-27000000D03*
%TO.P,U3,R7*%
X48500000Y-27000000D03*
%TO.P,U3,R8*%
X49000000Y-27000000D03*
%TO.P,U3,R9*%
X49500000Y-27000000D03*
%TO.P,U3,R10*%
X50000000Y-27000000D03*
%TO.P,U3,R11*%
X50500000Y-27000000D03*
%TO.P,U3,R12*%
X51000000Y-27000000D03*
%TO.P,U3,R13*%
X51500000Y-27000000D03*
%TD*%
D11*
%TO.P,R1,1*%
%TO.N,N/C*%
X74490000Y-22333500D03*
%TO.P,R1,2*%
X75510000Y-22333500D03*
%TD*%
%TO.P,R4,1*%
%TO.N,N/C*%
X80788178Y-62000000D03*
%TO.P,R4,2*%
X81808178Y-62000000D03*
%TD*%
%TO.P,R3,1*%
%TO.N,N/C*%
X82118571Y-25000000D03*
%TO.P,R3,2*%
X83138571Y-25000000D03*
%TD*%
%TO.P,R2,1*%
%TO.N,N/C*%
X77490000Y-22333500D03*
%TO.P,R2,2*%
X78510000Y-22333500D03*
%TD*%
D12*
%TO.P,J2,1*%
%TO.N,GMAC_MDI0_P*%
X106340000Y-55655000D03*
%TO.P,J2,2*%
%TO.N,GMAC_MDI0_N*%
X106340000Y-56925000D03*
%TO.P,J2,3*%
%TO.N,GMAC_MDI1_P*%
X106340000Y-58195000D03*
%TO.P,J2,4*%
%TO.N,MDI_BI_C_P*%
X106340000Y-59465000D03*
%TO.P,J2,5*%
%TO.N,MDI_BI_C_N*%
X106340000Y-60735000D03*
%TO.P,J2,6*%
%TO.N,GMAC_MDI1_N*%
X106340000Y-62005000D03*
%TO.P,J2,7*%
%TO.N,MDI_BI_D_P*%
X106340000Y-64545000D03*
%TO.P,J2,8*%
%TO.N,MDI_BI_D_N*%
X106340000Y-65815000D03*
%TO.P,J2,9*%
%TO.N,ETH_LED0*%
X106340000Y-67085000D03*
%TO.P,J2,10*%
%TO.N,GND*%
X106340000Y-68355000D03*
D13*
%TO.P,J2,MP*%
%TO.N,N/C*%
X96665000Y-55525000D03*
D14*
X86955000Y-57415000D03*
X86955000Y-66585000D03*
D13*
X96665000Y-68475000D03*
%TD*%
D15*
%TO.P,J6,1*%
%TO.N,+12V*%
X4000000Y-40000000D03*
D16*
%TO.P,J6,2*%
%TO.N,GND*%
X10000000Y-40000000D03*
D17*
%TO.P,J6,MP*%
%TO.N,N/C*%
X11000000Y-44500000D03*
X11000000Y-35500000D03*
%TD*%
D18*
%TO.P,U1,A3*%
%TO.N,N/C*%
X39500000Y-38000000D03*
%TO.P,U1,A4*%
X40250000Y-38000000D03*
%TO.P,U1,A5*%
X41000000Y-38000000D03*
%TO.P,U1,A6*%
X41750000Y-38000000D03*
%TO.P,U1,A7*%
X42500000Y-38000000D03*
%TO.P,U1,A8*%
X43250000Y-38000000D03*
%TO.P,U1,A9*%
X44000000Y-38000000D03*
%TO.P,U1,A10*%
X44750000Y-38000000D03*
%TO.P,U1,A11*%
X45500000Y-38000000D03*
%TO.P,U1,A12*%
X46250000Y-38000000D03*
%TO.P,U1,A13*%
X47000000Y-38000000D03*
%TO.P,U1,A14*%
X47750000Y-38000000D03*
%TO.P,U1,A15*%
X48500000Y-38000000D03*
%TO.P,U1,A16*%
X49250000Y-38000000D03*
%TO.P,U1,A17*%
X50000000Y-38000000D03*
%TO.P,U1,A18*%
X50750000Y-38000000D03*
%TO.P,U1,A19*%
X51500000Y-38000000D03*
%TO.P,U1,A20*%
X52250000Y-38000000D03*
%TO.P,U1,A21*%
X53000000Y-38000000D03*
%TO.P,U1,A22*%
X53750000Y-38000000D03*
%TO.P,U1,A23*%
X54500000Y-38000000D03*
%TO.P,U1,A24*%
X55250000Y-38000000D03*
%TO.P,U1,A25*%
X56000000Y-38000000D03*
%TO.P,U1,A26*%
X56750000Y-38000000D03*
%TO.P,U1,A27*%
X57500000Y-38000000D03*
%TO.P,U1,A28*%
X58250000Y-38000000D03*
%TO.P,U1,A29*%
X59000000Y-38000000D03*
%TO.P,U1,A30*%
X59750000Y-38000000D03*
%TO.P,U1,AA1*%
X38000000Y-57500000D03*
%TO.P,U1,AA2*%
X38750000Y-57500000D03*
%TO.P,U1,AA3*%
X39500000Y-57500000D03*
%TO.P,U1,AA4*%
X40250000Y-57500000D03*
%TO.P,U1,AA5*%
X41000000Y-57500000D03*
%TO.P,U1,AA6*%
X41750000Y-57500000D03*
%TO.P,U1,AA7*%
X42500000Y-57500000D03*
%TO.P,U1,AA8*%
X43250000Y-57500000D03*
%TO.P,U1,AA9*%
X44000000Y-57500000D03*
%TO.P,U1,AA10*%
X44750000Y-57500000D03*
%TO.P,U1,AA11*%
X45500000Y-57500000D03*
%TO.P,U1,AA12*%
X46250000Y-57500000D03*
%TO.P,U1,AA13*%
X47000000Y-57500000D03*
%TO.P,U1,AA14*%
X47750000Y-57500000D03*
%TO.P,U1,AA15*%
X48500000Y-57500000D03*
%TO.P,U1,AA16*%
X49250000Y-57500000D03*
%TO.P,U1,AA17*%
X50000000Y-57500000D03*
%TO.P,U1,AA18*%
X50750000Y-57500000D03*
%TO.P,U1,AA19*%
X51500000Y-57500000D03*
%TO.P,U1,AA20*%
X52250000Y-57500000D03*
%TO.P,U1,AA21*%
X53000000Y-57500000D03*
%TO.P,U1,AA22*%
X53750000Y-57500000D03*
%TO.P,U1,AA23*%
X54500000Y-57500000D03*
%TO.P,U1,AA24*%
X55250000Y-57500000D03*
%TO.P,U1,AA25*%
X56000000Y-57500000D03*
%TO.P,U1,AA26*%
X56750000Y-57500000D03*
%TO.P,U1,AA27*%
X57500000Y-57500000D03*
%TO.P,U1,AA28*%
X58250000Y-57500000D03*
%TO.P,U1,AA29*%
X59000000Y-57500000D03*
%TO.P,U1,AA30*%
X59750000Y-57500000D03*
%TO.P,U1,AA31*%
X60500000Y-57500000D03*
%TO.P,U1,AA32*%
X61250000Y-57500000D03*
%TO.P,U1,AB1*%
X38000000Y-58250000D03*
%TO.P,U1,AB2*%
X38750000Y-58250000D03*
%TO.P,U1,AB3*%
X39500000Y-58250000D03*
%TO.P,U1,AB4*%
X40250000Y-58250000D03*
%TO.P,U1,AB5*%
X41000000Y-58250000D03*
%TO.P,U1,AB6*%
X41750000Y-58250000D03*
%TO.P,U1,AB7*%
X42500000Y-58250000D03*
%TO.P,U1,AB8*%
X43250000Y-58250000D03*
%TO.P,U1,AB9*%
X44000000Y-58250000D03*
%TO.P,U1,AB10*%
X44750000Y-58250000D03*
%TO.P,U1,AB11*%
X45500000Y-58250000D03*
%TO.P,U1,AB12*%
X46250000Y-58250000D03*
%TO.P,U1,AB13*%
X47000000Y-58250000D03*
%TO.P,U1,AB14*%
X47750000Y-58250000D03*
%TO.P,U1,AB15*%
X48500000Y-58250000D03*
%TO.P,U1,AB16*%
X49250000Y-58250000D03*
%TO.P,U1,AB17*%
X50000000Y-58250000D03*
%TO.P,U1,AB18*%
X50750000Y-58250000D03*
%TO.P,U1,AB19*%
X51500000Y-58250000D03*
%TO.P,U1,AB20*%
X52250000Y-58250000D03*
%TO.P,U1,AB21*%
X53000000Y-58250000D03*
%TO.P,U1,AB22*%
X53750000Y-58250000D03*
%TO.P,U1,AB23*%
X54500000Y-58250000D03*
%TO.P,U1,AB24*%
X55250000Y-58250000D03*
%TO.P,U1,AB25*%
X56000000Y-58250000D03*
%TO.P,U1,AB26*%
X56750000Y-58250000D03*
%TO.P,U1,AB27*%
X57500000Y-58250000D03*
%TO.P,U1,AB28*%
X58250000Y-58250000D03*
%TO.P,U1,AB29*%
X59000000Y-58250000D03*
%TO.P,U1,AB30*%
X59750000Y-58250000D03*
%TO.P,U1,AB31*%
X60500000Y-58250000D03*
%TO.P,U1,AB32*%
X61250000Y-58250000D03*
%TO.P,U1,AC1*%
X38000000Y-59000000D03*
%TO.P,U1,AC2*%
X38750000Y-59000000D03*
%TO.P,U1,AC3*%
X39500000Y-59000000D03*
%TO.P,U1,AC4*%
X40250000Y-59000000D03*
%TO.P,U1,AC5*%
X41000000Y-59000000D03*
%TO.P,U1,AC6*%
X41750000Y-59000000D03*
%TO.P,U1,AC7*%
X42500000Y-59000000D03*
%TO.P,U1,AC8*%
X43250000Y-59000000D03*
%TO.P,U1,AC9*%
X44000000Y-59000000D03*
%TO.P,U1,AC10*%
X44750000Y-59000000D03*
%TO.P,U1,AC11*%
X45500000Y-59000000D03*
%TO.P,U1,AC12*%
X46250000Y-59000000D03*
%TO.P,U1,AC13*%
X47000000Y-59000000D03*
%TO.P,U1,AC14*%
X47750000Y-59000000D03*
%TO.P,U1,AC15*%
X48500000Y-59000000D03*
%TO.P,U1,AC16*%
X49250000Y-59000000D03*
%TO.P,U1,AC17*%
X50000000Y-59000000D03*
%TO.P,U1,AC18*%
X50750000Y-59000000D03*
%TO.P,U1,AC19*%
X51500000Y-59000000D03*
%TO.P,U1,AC20*%
X52250000Y-59000000D03*
%TO.P,U1,AC21*%
X53000000Y-59000000D03*
%TO.P,U1,AC22*%
X53750000Y-59000000D03*
%TO.P,U1,AC23*%
X54500000Y-59000000D03*
%TO.P,U1,AC24*%
X55250000Y-59000000D03*
%TO.P,U1,AC25*%
X56000000Y-59000000D03*
%TO.P,U1,AC26*%
X56750000Y-59000000D03*
%TO.P,U1,AC27*%
X57500000Y-59000000D03*
%TO.P,U1,AC28*%
X58250000Y-59000000D03*
%TO.P,U1,AC29*%
X59000000Y-59000000D03*
%TO.P,U1,AC30*%
X59750000Y-59000000D03*
%TO.P,U1,AC31*%
X60500000Y-59000000D03*
%TO.P,U1,AC32*%
X61250000Y-59000000D03*
%TO.P,U1,AD1*%
X38000000Y-59750000D03*
%TO.P,U1,AD2*%
X38750000Y-59750000D03*
%TO.P,U1,AD3*%
X39500000Y-59750000D03*
%TO.P,U1,AD4*%
X40250000Y-59750000D03*
%TO.P,U1,AD5*%
X41000000Y-59750000D03*
%TO.P,U1,AD6*%
X41750000Y-59750000D03*
%TO.P,U1,AD7*%
X42500000Y-59750000D03*
%TO.P,U1,AD8*%
X43250000Y-59750000D03*
%TO.P,U1,AD9*%
X44000000Y-59750000D03*
%TO.P,U1,AD10*%
X44750000Y-59750000D03*
%TO.P,U1,AD11*%
X45500000Y-59750000D03*
%TO.P,U1,AD12*%
X46250000Y-59750000D03*
%TO.P,U1,AD13*%
X47000000Y-59750000D03*
%TO.P,U1,AD14*%
X47750000Y-59750000D03*
%TO.P,U1,AD15*%
X48500000Y-59750000D03*
%TO.P,U1,AD16*%
X49250000Y-59750000D03*
%TO.P,U1,AD17*%
X50000000Y-59750000D03*
%TO.P,U1,AD18*%
X50750000Y-59750000D03*
%TO.P,U1,AD19*%
X51500000Y-59750000D03*
%TO.P,U1,AD20*%
X52250000Y-59750000D03*
%TO.P,U1,AD21*%
X53000000Y-59750000D03*
%TO.P,U1,AD22*%
X53750000Y-59750000D03*
%TO.P,U1,AD23*%
X54500000Y-59750000D03*
%TO.P,U1,AD24*%
X55250000Y-59750000D03*
%TO.P,U1,AD25*%
X56000000Y-59750000D03*
%TO.P,U1,AD26*%
X56750000Y-59750000D03*
%TO.P,U1,AD27*%
X57500000Y-59750000D03*
%TO.P,U1,AD28*%
X58250000Y-59750000D03*
%TO.P,U1,AD29*%
X59000000Y-59750000D03*
%TO.P,U1,AD30*%
X59750000Y-59750000D03*
%TO.P,U1,AD31*%
X60500000Y-59750000D03*
%TO.P,U1,AD32*%
X61250000Y-59750000D03*
%TO.P,U1,AE3*%
X39500000Y-60500000D03*
%TO.P,U1,AE4*%
X40250000Y-60500000D03*
%TO.P,U1,AE5*%
X41000000Y-60500000D03*
%TO.P,U1,AE6*%
X41750000Y-60500000D03*
%TO.P,U1,AE7*%
X42500000Y-60500000D03*
%TO.P,U1,AE8*%
X43250000Y-60500000D03*
%TO.P,U1,AE9*%
X44000000Y-60500000D03*
%TO.P,U1,AE10*%
X44750000Y-60500000D03*
%TO.P,U1,AE11*%
X45500000Y-60500000D03*
%TO.P,U1,AE12*%
X46250000Y-60500000D03*
%TO.P,U1,AE13*%
X47000000Y-60500000D03*
%TO.P,U1,AE14*%
X47750000Y-60500000D03*
%TO.P,U1,AE15*%
X48500000Y-60500000D03*
%TO.P,U1,AE16*%
X49250000Y-60500000D03*
%TO.P,U1,AE17*%
X50000000Y-60500000D03*
%TO.P,U1,AE18*%
X50750000Y-60500000D03*
%TO.P,U1,AE19*%
X51500000Y-60500000D03*
%TO.P,U1,AE20*%
X52250000Y-60500000D03*
%TO.P,U1,AE21*%
X53000000Y-60500000D03*
%TO.P,U1,AE22*%
X53750000Y-60500000D03*
%TO.P,U1,AE23*%
X54500000Y-60500000D03*
%TO.P,U1,AE24*%
X55250000Y-60500000D03*
%TO.P,U1,AE25*%
X56000000Y-60500000D03*
%TO.P,U1,AE26*%
X56750000Y-60500000D03*
%TO.P,U1,AE27*%
X57500000Y-60500000D03*
%TO.P,U1,AE28*%
X58250000Y-60500000D03*
%TO.P,U1,AE29*%
X59000000Y-60500000D03*
%TO.P,U1,AE30*%
X59750000Y-60500000D03*
%TO.P,U1,AF3*%
X39500000Y-61250000D03*
%TO.P,U1,AF4*%
X40250000Y-61250000D03*
%TO.P,U1,AF5*%
X41000000Y-61250000D03*
%TO.P,U1,AF6*%
X41750000Y-61250000D03*
%TO.P,U1,AF7*%
X42500000Y-61250000D03*
%TO.P,U1,AF8*%
X43250000Y-61250000D03*
%TO.P,U1,AF9*%
X44000000Y-61250000D03*
%TO.P,U1,AF10*%
X44750000Y-61250000D03*
%TO.P,U1,AF11*%
X45500000Y-61250000D03*
%TO.P,U1,AF12*%
X46250000Y-61250000D03*
%TO.P,U1,AF13*%
X47000000Y-61250000D03*
%TO.P,U1,AF14*%
X47750000Y-61250000D03*
%TO.P,U1,AF15*%
X48500000Y-61250000D03*
%TO.P,U1,AF16*%
X49250000Y-61250000D03*
%TO.P,U1,AF17*%
X50000000Y-61250000D03*
%TO.P,U1,AF18*%
X50750000Y-61250000D03*
%TO.P,U1,AF19*%
X51500000Y-61250000D03*
%TO.P,U1,AF20*%
X52250000Y-61250000D03*
%TO.P,U1,AF21*%
X53000000Y-61250000D03*
%TO.P,U1,AF22*%
X53750000Y-61250000D03*
%TO.P,U1,AF23*%
X54500000Y-61250000D03*
%TO.P,U1,AF24*%
X55250000Y-61250000D03*
%TO.P,U1,AF25*%
X56000000Y-61250000D03*
%TO.P,U1,AF26*%
X56750000Y-61250000D03*
%TO.P,U1,AF27*%
X57500000Y-61250000D03*
%TO.P,U1,AF28*%
X58250000Y-61250000D03*
%TO.P,U1,AF29*%
X59000000Y-61250000D03*
%TO.P,U1,AF30*%
X59750000Y-61250000D03*
%TO.P,U1,B3*%
X39500000Y-38750000D03*
%TO.P,U1,B4*%
X40250000Y-38750000D03*
%TO.P,U1,B5*%
X41000000Y-38750000D03*
%TO.P,U1,B6*%
X41750000Y-38750000D03*
%TO.P,U1,B7*%
X42500000Y-38750000D03*
%TO.P,U1,B8*%
X43250000Y-38750000D03*
%TO.P,U1,B9*%
X44000000Y-38750000D03*
%TO.P,U1,B10*%
X44750000Y-38750000D03*
%TO.P,U1,B11*%
X45500000Y-38750000D03*
%TO.P,U1,B12*%
X46250000Y-38750000D03*
%TO.P,U1,B13*%
X47000000Y-38750000D03*
%TO.P,U1,B14*%
X47750000Y-38750000D03*
%TO.P,U1,B15*%
X48500000Y-38750000D03*
%TO.P,U1,B16*%
X49250000Y-38750000D03*
%TO.P,U1,B17*%
X50000000Y-38750000D03*
%TO.P,U1,B18*%
X50750000Y-38750000D03*
%TO.P,U1,B19*%
X51500000Y-38750000D03*
%TO.P,U1,B20*%
X52250000Y-38750000D03*
%TO.P,U1,B21*%
X53000000Y-38750000D03*
%TO.P,U1,B22*%
X53750000Y-38750000D03*
%TO.P,U1,B23*%
X54500000Y-38750000D03*
%TO.P,U1,B24*%
X55250000Y-38750000D03*
%TO.P,U1,B25*%
X56000000Y-38750000D03*
%TO.P,U1,B26*%
X56750000Y-38750000D03*
%TO.P,U1,B27*%
X57500000Y-38750000D03*
%TO.P,U1,B28*%
X58250000Y-38750000D03*
%TO.P,U1,B29*%
X59000000Y-38750000D03*
%TO.P,U1,B30*%
X59750000Y-38750000D03*
%TO.P,U1,C1*%
X38000000Y-39500000D03*
%TO.P,U1,C2*%
X38750000Y-39500000D03*
%TO.P,U1,C3*%
X39500000Y-39500000D03*
%TO.P,U1,C4*%
X40250000Y-39500000D03*
%TO.P,U1,C5*%
X41000000Y-39500000D03*
%TO.P,U1,C6*%
X41750000Y-39500000D03*
%TO.P,U1,C7*%
X42500000Y-39500000D03*
%TO.P,U1,C8*%
X43250000Y-39500000D03*
%TO.P,U1,C9*%
X44000000Y-39500000D03*
%TO.P,U1,C10*%
X44750000Y-39500000D03*
%TO.P,U1,C11*%
X45500000Y-39500000D03*
%TO.P,U1,C12*%
X46250000Y-39500000D03*
%TO.P,U1,C13*%
X47000000Y-39500000D03*
%TO.P,U1,C14*%
X47750000Y-39500000D03*
%TO.P,U1,C15*%
X48500000Y-39500000D03*
%TO.P,U1,C16*%
X49250000Y-39500000D03*
%TO.P,U1,C17*%
X50000000Y-39500000D03*
%TO.P,U1,C18*%
X50750000Y-39500000D03*
%TO.P,U1,C19*%
X51500000Y-39500000D03*
%TO.P,U1,C20*%
X52250000Y-39500000D03*
%TO.P,U1,C21*%
X53000000Y-39500000D03*
%TO.P,U1,C22*%
X53750000Y-39500000D03*
%TO.P,U1,C23*%
X54500000Y-39500000D03*
%TO.P,U1,C24*%
X55250000Y-39500000D03*
%TO.P,U1,C25*%
X56000000Y-39500000D03*
%TO.P,U1,C26*%
X56750000Y-39500000D03*
%TO.P,U1,C27*%
X57500000Y-39500000D03*
%TO.P,U1,C28*%
X58250000Y-39500000D03*
%TO.P,U1,C29*%
X59000000Y-39500000D03*
%TO.P,U1,C30*%
X59750000Y-39500000D03*
%TO.P,U1,C31*%
X60500000Y-39500000D03*
%TO.P,U1,C32*%
X61250000Y-39500000D03*
%TO.P,U1,D1*%
X38000000Y-40250000D03*
%TO.P,U1,D2*%
X38750000Y-40250000D03*
%TO.P,U1,D3*%
X39500000Y-40250000D03*
%TO.P,U1,D4*%
X40250000Y-40250000D03*
%TO.P,U1,D5*%
X41000000Y-40250000D03*
%TO.P,U1,D6*%
X41750000Y-40250000D03*
%TO.P,U1,D7*%
X42500000Y-40250000D03*
%TO.P,U1,D8*%
X43250000Y-40250000D03*
%TO.P,U1,D9*%
X44000000Y-40250000D03*
%TO.P,U1,D10*%
X44750000Y-40250000D03*
%TO.P,U1,D11*%
X45500000Y-40250000D03*
%TO.P,U1,D12*%
X46250000Y-40250000D03*
%TO.P,U1,D13*%
X47000000Y-40250000D03*
%TO.P,U1,D14*%
X47750000Y-40250000D03*
%TO.P,U1,D15*%
X48500000Y-40250000D03*
%TO.P,U1,D16*%
X49250000Y-40250000D03*
%TO.P,U1,D17*%
X50000000Y-40250000D03*
%TO.P,U1,D18*%
X50750000Y-40250000D03*
%TO.P,U1,D19*%
X51500000Y-40250000D03*
%TO.P,U1,D20*%
X52250000Y-40250000D03*
%TO.P,U1,D21*%
X53000000Y-40250000D03*
%TO.P,U1,D22*%
X53750000Y-40250000D03*
%TO.P,U1,D23*%
X54500000Y-40250000D03*
%TO.P,U1,D24*%
X55250000Y-40250000D03*
%TO.P,U1,D25*%
X56000000Y-40250000D03*
%TO.P,U1,D26*%
X56750000Y-40250000D03*
%TO.P,U1,D27*%
X57500000Y-40250000D03*
%TO.P,U1,D28*%
X58250000Y-40250000D03*
%TO.P,U1,D29*%
X59000000Y-40250000D03*
%TO.P,U1,D30*%
X59750000Y-40250000D03*
%TO.P,U1,D31*%
X60500000Y-40250000D03*
%TO.P,U1,D32*%
X61250000Y-40250000D03*
%TO.P,U1,E1*%
X38000000Y-41000000D03*
%TO.P,U1,E2*%
X38750000Y-41000000D03*
%TO.P,U1,E3*%
X39500000Y-41000000D03*
%TO.P,U1,E4*%
X40250000Y-41000000D03*
%TO.P,U1,E5*%
X41000000Y-41000000D03*
%TO.P,U1,E6*%
X41750000Y-41000000D03*
%TO.P,U1,E7*%
X42500000Y-41000000D03*
%TO.P,U1,E8*%
X43250000Y-41000000D03*
%TO.P,U1,E9*%
X44000000Y-41000000D03*
%TO.P,U1,E10*%
X44750000Y-41000000D03*
%TO.P,U1,E11*%
X45500000Y-41000000D03*
%TO.P,U1,E12*%
X46250000Y-41000000D03*
%TO.P,U1,E13*%
X47000000Y-41000000D03*
%TO.P,U1,E14*%
X47750000Y-41000000D03*
%TO.P,U1,E15*%
X48500000Y-41000000D03*
%TO.P,U1,E16*%
X49250000Y-41000000D03*
%TO.P,U1,E17*%
X50000000Y-41000000D03*
%TO.P,U1,E18*%
X50750000Y-41000000D03*
%TO.P,U1,E19*%
X51500000Y-41000000D03*
%TO.P,U1,E20*%
X52250000Y-41000000D03*
%TO.P,U1,E21*%
X53000000Y-41000000D03*
%TO.P,U1,E22*%
X53750000Y-41000000D03*
%TO.P,U1,E23*%
X54500000Y-41000000D03*
%TO.P,U1,E24*%
X55250000Y-41000000D03*
%TO.P,U1,E25*%
X56000000Y-41000000D03*
%TO.P,U1,E26*%
X56750000Y-41000000D03*
%TO.P,U1,E27*%
X57500000Y-41000000D03*
%TO.P,U1,E28*%
X58250000Y-41000000D03*
%TO.P,U1,E29*%
X59000000Y-41000000D03*
%TO.P,U1,E30*%
X59750000Y-41000000D03*
%TO.P,U1,E31*%
X60500000Y-41000000D03*
%TO.P,U1,E32*%
X61250000Y-41000000D03*
%TO.P,U1,F1*%
X38000000Y-41750000D03*
%TO.P,U1,F2*%
X38750000Y-41750000D03*
%TO.P,U1,F3*%
X39500000Y-41750000D03*
%TO.P,U1,F4*%
X40250000Y-41750000D03*
%TO.P,U1,F5*%
X41000000Y-41750000D03*
%TO.P,U1,F6*%
X41750000Y-41750000D03*
%TO.P,U1,F7*%
X42500000Y-41750000D03*
%TO.P,U1,F8*%
X43250000Y-41750000D03*
%TO.P,U1,F9*%
X44000000Y-41750000D03*
%TO.P,U1,F10*%
X44750000Y-41750000D03*
%TO.P,U1,F11*%
X45500000Y-41750000D03*
%TO.P,U1,F12*%
X46250000Y-41750000D03*
%TO.P,U1,F13*%
X47000000Y-41750000D03*
%TO.P,U1,F14*%
X47750000Y-41750000D03*
%TO.P,U1,F15*%
X48500000Y-41750000D03*
%TO.P,U1,F16*%
X49250000Y-41750000D03*
%TO.P,U1,F17*%
X50000000Y-41750000D03*
%TO.P,U1,F18*%
X50750000Y-41750000D03*
%TO.P,U1,F19*%
X51500000Y-41750000D03*
%TO.P,U1,F20*%
X52250000Y-41750000D03*
%TO.P,U1,F21*%
X53000000Y-41750000D03*
%TO.P,U1,F22*%
X53750000Y-41750000D03*
%TO.P,U1,F23*%
X54500000Y-41750000D03*
%TO.P,U1,F24*%
X55250000Y-41750000D03*
%TO.P,U1,F25*%
X56000000Y-41750000D03*
%TO.P,U1,F26*%
X56750000Y-41750000D03*
%TO.P,U1,F27*%
X57500000Y-41750000D03*
%TO.P,U1,F28*%
X58250000Y-41750000D03*
%TO.P,U1,F29*%
X59000000Y-41750000D03*
%TO.P,U1,F30*%
X59750000Y-41750000D03*
%TO.P,U1,F31*%
X60500000Y-41750000D03*
%TO.P,U1,F32*%
X61250000Y-41750000D03*
%TO.P,U1,G1*%
X38000000Y-42500000D03*
%TO.P,U1,G2*%
X38750000Y-42500000D03*
%TO.P,U1,G3*%
X39500000Y-42500000D03*
%TO.P,U1,G4*%
X40250000Y-42500000D03*
%TO.P,U1,G5*%
X41000000Y-42500000D03*
%TO.P,U1,G6*%
X41750000Y-42500000D03*
%TO.P,U1,G7*%
X42500000Y-42500000D03*
%TO.P,U1,G8*%
X43250000Y-42500000D03*
%TO.P,U1,G9*%
X44000000Y-42500000D03*
%TO.P,U1,G10*%
X44750000Y-42500000D03*
%TO.P,U1,G11*%
X45500000Y-42500000D03*
%TO.P,U1,G12*%
X46250000Y-42500000D03*
%TO.P,U1,G13*%
X47000000Y-42500000D03*
%TO.P,U1,G14*%
X47750000Y-42500000D03*
%TO.P,U1,G15*%
X48500000Y-42500000D03*
%TO.P,U1,G16*%
X49250000Y-42500000D03*
%TO.P,U1,G17*%
X50000000Y-42500000D03*
%TO.P,U1,G18*%
X50750000Y-42500000D03*
%TO.P,U1,G19*%
X51500000Y-42500000D03*
%TO.P,U1,G20*%
X52250000Y-42500000D03*
%TO.P,U1,G21*%
X53000000Y-42500000D03*
%TO.P,U1,G22*%
X53750000Y-42500000D03*
%TO.P,U1,G23*%
X54500000Y-42500000D03*
%TO.P,U1,G24*%
X55250000Y-42500000D03*
%TO.P,U1,G25*%
X56000000Y-42500000D03*
%TO.P,U1,G26*%
X56750000Y-42500000D03*
%TO.P,U1,G27*%
X57500000Y-42500000D03*
%TO.P,U1,G28*%
X58250000Y-42500000D03*
%TO.P,U1,G29*%
X59000000Y-42500000D03*
%TO.P,U1,G30*%
X59750000Y-42500000D03*
%TO.P,U1,G31*%
X60500000Y-42500000D03*
%TO.P,U1,G32*%
X61250000Y-42500000D03*
%TO.P,U1,H1*%
X38000000Y-43250000D03*
%TO.P,U1,H2*%
X38750000Y-43250000D03*
%TO.P,U1,H3*%
X39500000Y-43250000D03*
%TO.P,U1,H4*%
X40250000Y-43250000D03*
%TO.P,U1,H5*%
X41000000Y-43250000D03*
%TO.P,U1,H6*%
X41750000Y-43250000D03*
%TO.P,U1,H7*%
X42500000Y-43250000D03*
%TO.P,U1,H8*%
X43250000Y-43250000D03*
%TO.P,U1,H9*%
X44000000Y-43250000D03*
%TO.P,U1,H10*%
X44750000Y-43250000D03*
%TO.P,U1,H11*%
X45500000Y-43250000D03*
%TO.P,U1,H12*%
X46250000Y-43250000D03*
%TO.P,U1,H13*%
X47000000Y-43250000D03*
%TO.P,U1,H14*%
X47750000Y-43250000D03*
%TO.P,U1,H15*%
X48500000Y-43250000D03*
%TO.P,U1,H16*%
X49250000Y-43250000D03*
%TO.P,U1,H17*%
X50000000Y-43250000D03*
%TO.P,U1,H18*%
X50750000Y-43250000D03*
%TO.P,U1,H19*%
X51500000Y-43250000D03*
%TO.P,U1,H20*%
X52250000Y-43250000D03*
%TO.P,U1,H21*%
X53000000Y-43250000D03*
%TO.P,U1,H22*%
X53750000Y-43250000D03*
%TO.P,U1,H23*%
X54500000Y-43250000D03*
%TO.P,U1,H24*%
X55250000Y-43250000D03*
%TO.P,U1,H25*%
X56000000Y-43250000D03*
%TO.P,U1,H26*%
X56750000Y-43250000D03*
%TO.P,U1,H27*%
X57500000Y-43250000D03*
%TO.P,U1,H28*%
X58250000Y-43250000D03*
%TO.P,U1,H29*%
X59000000Y-43250000D03*
%TO.P,U1,H30*%
X59750000Y-43250000D03*
%TO.P,U1,H31*%
X60500000Y-43250000D03*
%TO.P,U1,H32*%
X61250000Y-43250000D03*
%TO.P,U1,I1*%
X38000000Y-44000000D03*
%TO.P,U1,I2*%
X38750000Y-44000000D03*
%TO.P,U1,I3*%
X39500000Y-44000000D03*
%TO.P,U1,I4*%
X40250000Y-44000000D03*
%TO.P,U1,I5*%
X41000000Y-44000000D03*
%TO.P,U1,I6*%
X41750000Y-44000000D03*
%TO.P,U1,I7*%
X42500000Y-44000000D03*
%TO.P,U1,I8*%
X43250000Y-44000000D03*
%TO.P,U1,I9*%
X44000000Y-44000000D03*
%TO.P,U1,I10*%
X44750000Y-44000000D03*
%TO.P,U1,I11*%
X45500000Y-44000000D03*
%TO.P,U1,I12*%
X46250000Y-44000000D03*
%TO.P,U1,I13*%
X47000000Y-44000000D03*
%TO.P,U1,I14*%
X47750000Y-44000000D03*
%TO.P,U1,I15*%
X48500000Y-44000000D03*
%TO.P,U1,I16*%
X49250000Y-44000000D03*
%TO.P,U1,I17*%
X50000000Y-44000000D03*
%TO.P,U1,I18*%
X50750000Y-44000000D03*
%TO.P,U1,I19*%
X51500000Y-44000000D03*
%TO.P,U1,I20*%
X52250000Y-44000000D03*
%TO.P,U1,I21*%
X53000000Y-44000000D03*
%TO.P,U1,I22*%
X53750000Y-44000000D03*
%TO.P,U1,I23*%
X54500000Y-44000000D03*
%TO.P,U1,I24*%
X55250000Y-44000000D03*
%TO.P,U1,I25*%
X56000000Y-44000000D03*
%TO.P,U1,I26*%
X56750000Y-44000000D03*
%TO.P,U1,I27*%
X57500000Y-44000000D03*
%TO.P,U1,I28*%
X58250000Y-44000000D03*
%TO.P,U1,I29*%
X59000000Y-44000000D03*
%TO.P,U1,I30*%
X59750000Y-44000000D03*
%TO.P,U1,I31*%
X60500000Y-44000000D03*
%TO.P,U1,I32*%
X61250000Y-44000000D03*
%TO.P,U1,J1*%
X38000000Y-44750000D03*
%TO.P,U1,J2*%
X38750000Y-44750000D03*
%TO.P,U1,J3*%
X39500000Y-44750000D03*
%TO.P,U1,J4*%
X40250000Y-44750000D03*
%TO.P,U1,J5*%
X41000000Y-44750000D03*
%TO.P,U1,J6*%
X41750000Y-44750000D03*
%TO.P,U1,J7*%
X42500000Y-44750000D03*
%TO.P,U1,J8*%
X43250000Y-44750000D03*
%TO.P,U1,J9*%
X44000000Y-44750000D03*
%TO.P,U1,J10*%
X44750000Y-44750000D03*
%TO.P,U1,J11*%
X45500000Y-44750000D03*
%TO.P,U1,J12*%
X46250000Y-44750000D03*
%TO.P,U1,J13*%
X47000000Y-44750000D03*
%TO.P,U1,J14*%
X47750000Y-44750000D03*
%TO.P,U1,J15*%
X48500000Y-44750000D03*
%TO.P,U1,J16*%
X49250000Y-44750000D03*
%TO.P,U1,J17*%
X50000000Y-44750000D03*
%TO.P,U1,J18*%
X50750000Y-44750000D03*
%TO.P,U1,J19*%
X51500000Y-44750000D03*
%TO.P,U1,J20*%
X52250000Y-44750000D03*
%TO.P,U1,J21*%
X53000000Y-44750000D03*
%TO.P,U1,J22*%
X53750000Y-44750000D03*
%TO.P,U1,J23*%
X54500000Y-44750000D03*
%TO.P,U1,J24*%
X55250000Y-44750000D03*
%TO.P,U1,J25*%
X56000000Y-44750000D03*
%TO.P,U1,J26*%
X56750000Y-44750000D03*
%TO.P,U1,J27*%
X57500000Y-44750000D03*
%TO.P,U1,J28*%
X58250000Y-44750000D03*
%TO.P,U1,J29*%
X59000000Y-44750000D03*
%TO.P,U1,J30*%
X59750000Y-44750000D03*
%TO.P,U1,J31*%
X60500000Y-44750000D03*
%TO.P,U1,J32*%
X61250000Y-44750000D03*
%TO.P,U1,K1*%
X38000000Y-45500000D03*
%TO.P,U1,K2*%
X38750000Y-45500000D03*
%TO.P,U1,K3*%
X39500000Y-45500000D03*
%TO.P,U1,K4*%
X40250000Y-45500000D03*
%TO.P,U1,K5*%
X41000000Y-45500000D03*
%TO.P,U1,K6*%
X41750000Y-45500000D03*
%TO.P,U1,K7*%
X42500000Y-45500000D03*
%TO.P,U1,K8*%
X43250000Y-45500000D03*
%TO.P,U1,K9*%
X44000000Y-45500000D03*
%TO.P,U1,K10*%
X44750000Y-45500000D03*
%TO.P,U1,K11*%
X45500000Y-45500000D03*
%TO.P,U1,K12*%
X46250000Y-45500000D03*
%TO.P,U1,K13*%
X47000000Y-45500000D03*
%TO.P,U1,K14*%
X47750000Y-45500000D03*
%TO.P,U1,K15*%
X48500000Y-45500000D03*
%TO.P,U1,K16*%
X49250000Y-45500000D03*
%TO.P,U1,K17*%
X50000000Y-45500000D03*
%TO.P,U1,K18*%
X50750000Y-45500000D03*
%TO.P,U1,K19*%
X51500000Y-45500000D03*
%TO.P,U1,K20*%
X52250000Y-45500000D03*
%TO.P,U1,K21*%
X53000000Y-45500000D03*
%TO.P,U1,K22*%
X53750000Y-45500000D03*
%TO.P,U1,K23*%
X54500000Y-45500000D03*
%TO.P,U1,K24*%
X55250000Y-45500000D03*
%TO.P,U1,K25*%
X56000000Y-45500000D03*
%TO.P,U1,K26*%
X56750000Y-45500000D03*
%TO.P,U1,K27*%
X57500000Y-45500000D03*
%TO.P,U1,K28*%
X58250000Y-45500000D03*
%TO.P,U1,K29*%
X59000000Y-45500000D03*
%TO.P,U1,K30*%
X59750000Y-45500000D03*
%TO.P,U1,K31*%
X60500000Y-45500000D03*
%TO.P,U1,K32*%
X61250000Y-45500000D03*
%TO.P,U1,L1*%
X38000000Y-46250000D03*
%TO.P,U1,L2*%
X38750000Y-46250000D03*
%TO.P,U1,L3*%
X39500000Y-46250000D03*
%TO.P,U1,L4*%
X40250000Y-46250000D03*
%TO.P,U1,L5*%
X41000000Y-46250000D03*
%TO.P,U1,L6*%
X41750000Y-46250000D03*
%TO.P,U1,L7*%
X42500000Y-46250000D03*
%TO.P,U1,L8*%
X43250000Y-46250000D03*
%TO.P,U1,L9*%
X44000000Y-46250000D03*
%TO.P,U1,L10*%
X44750000Y-46250000D03*
%TO.P,U1,L11*%
X45500000Y-46250000D03*
%TO.P,U1,L12*%
X46250000Y-46250000D03*
%TO.P,U1,L13*%
X47000000Y-46250000D03*
%TO.P,U1,L14*%
X47750000Y-46250000D03*
%TO.P,U1,L15*%
X48500000Y-46250000D03*
%TO.P,U1,L16*%
X49250000Y-46250000D03*
%TO.P,U1,L17*%
X50000000Y-46250000D03*
%TO.P,U1,L18*%
X50750000Y-46250000D03*
%TO.P,U1,L19*%
X51500000Y-46250000D03*
%TO.P,U1,L20*%
X52250000Y-46250000D03*
%TO.P,U1,L21*%
X53000000Y-46250000D03*
%TO.P,U1,L22*%
X53750000Y-46250000D03*
%TO.P,U1,L23*%
X54500000Y-46250000D03*
%TO.P,U1,L24*%
X55250000Y-46250000D03*
%TO.P,U1,L25*%
X56000000Y-46250000D03*
%TO.P,U1,L26*%
X56750000Y-46250000D03*
%TO.P,U1,L27*%
X57500000Y-46250000D03*
%TO.P,U1,L28*%
X58250000Y-46250000D03*
%TO.P,U1,L29*%
X59000000Y-46250000D03*
%TO.P,U1,L30*%
X59750000Y-46250000D03*
%TO.P,U1,L31*%
X60500000Y-46250000D03*
%TO.P,U1,L32*%
X61250000Y-46250000D03*
%TO.P,U1,M1*%
X38000000Y-47000000D03*
%TO.P,U1,M2*%
X38750000Y-47000000D03*
%TO.P,U1,M3*%
X39500000Y-47000000D03*
%TO.P,U1,M4*%
X40250000Y-47000000D03*
%TO.P,U1,M5*%
X41000000Y-47000000D03*
%TO.P,U1,M6*%
X41750000Y-47000000D03*
%TO.P,U1,M7*%
X42500000Y-47000000D03*
%TO.P,U1,M8*%
X43250000Y-47000000D03*
%TO.P,U1,M9*%
X44000000Y-47000000D03*
%TO.P,U1,M10*%
X44750000Y-47000000D03*
%TO.P,U1,M11*%
X45500000Y-47000000D03*
%TO.P,U1,M12*%
X46250000Y-47000000D03*
%TO.P,U1,M13*%
X47000000Y-47000000D03*
%TO.P,U1,M14*%
X47750000Y-47000000D03*
%TO.P,U1,M15*%
X48500000Y-47000000D03*
%TO.P,U1,M16*%
X49250000Y-47000000D03*
%TO.P,U1,M17*%
X50000000Y-47000000D03*
%TO.P,U1,M18*%
X50750000Y-47000000D03*
%TO.P,U1,M19*%
X51500000Y-47000000D03*
%TO.P,U1,M20*%
X52250000Y-47000000D03*
%TO.P,U1,M21*%
X53000000Y-47000000D03*
%TO.P,U1,M22*%
X53750000Y-47000000D03*
%TO.P,U1,M23*%
X54500000Y-47000000D03*
%TO.P,U1,M24*%
X55250000Y-47000000D03*
%TO.P,U1,M25*%
X56000000Y-47000000D03*
%TO.P,U1,M26*%
X56750000Y-47000000D03*
%TO.P,U1,M27*%
X57500000Y-47000000D03*
%TO.P,U1,M28*%
X58250000Y-47000000D03*
%TO.P,U1,M29*%
X59000000Y-47000000D03*
%TO.P,U1,M30*%
X59750000Y-47000000D03*
%TO.P,U1,M31*%
X60500000Y-47000000D03*
%TO.P,U1,M32*%
X61250000Y-47000000D03*
%TO.P,U1,N1*%
X38000000Y-47750000D03*
%TO.P,U1,N2*%
X38750000Y-47750000D03*
%TO.P,U1,N3*%
X39500000Y-47750000D03*
%TO.P,U1,N4*%
X40250000Y-47750000D03*
%TO.P,U1,N5*%
X41000000Y-47750000D03*
%TO.P,U1,N6*%
X41750000Y-47750000D03*
%TO.P,U1,N7*%
X42500000Y-47750000D03*
%TO.P,U1,N8*%
X43250000Y-47750000D03*
%TO.P,U1,N9*%
X44000000Y-47750000D03*
%TO.P,U1,N10*%
X44750000Y-47750000D03*
%TO.P,U1,N11*%
X45500000Y-47750000D03*
%TO.P,U1,N12*%
X46250000Y-47750000D03*
%TO.P,U1,N13*%
X47000000Y-47750000D03*
%TO.P,U1,N14*%
X47750000Y-47750000D03*
%TO.P,U1,N15*%
X48500000Y-47750000D03*
%TO.P,U1,N16*%
X49250000Y-47750000D03*
%TO.P,U1,N17*%
X50000000Y-47750000D03*
%TO.P,U1,N18*%
X50750000Y-47750000D03*
%TO.P,U1,N19*%
X51500000Y-47750000D03*
%TO.P,U1,N20*%
X52250000Y-47750000D03*
%TO.P,U1,N21*%
X53000000Y-47750000D03*
%TO.P,U1,N22*%
X53750000Y-47750000D03*
%TO.P,U1,N23*%
X54500000Y-47750000D03*
%TO.P,U1,N24*%
X55250000Y-47750000D03*
%TO.P,U1,N25*%
X56000000Y-47750000D03*
%TO.P,U1,N26*%
X56750000Y-47750000D03*
%TO.P,U1,N27*%
X57500000Y-47750000D03*
%TO.P,U1,N28*%
X58250000Y-47750000D03*
%TO.P,U1,N29*%
X59000000Y-47750000D03*
%TO.P,U1,N30*%
X59750000Y-47750000D03*
%TO.P,U1,N31*%
X60500000Y-47750000D03*
%TO.P,U1,N32*%
X61250000Y-47750000D03*
%TO.P,U1,O1*%
X38000000Y-48500000D03*
%TO.P,U1,O2*%
X38750000Y-48500000D03*
%TO.P,U1,O3*%
X39500000Y-48500000D03*
%TO.P,U1,O4*%
X40250000Y-48500000D03*
%TO.P,U1,O5*%
X41000000Y-48500000D03*
%TO.P,U1,O6*%
X41750000Y-48500000D03*
%TO.P,U1,O7*%
X42500000Y-48500000D03*
%TO.P,U1,O8*%
X43250000Y-48500000D03*
%TO.P,U1,O9*%
X44000000Y-48500000D03*
%TO.P,U1,O10*%
X44750000Y-48500000D03*
%TO.P,U1,O11*%
X45500000Y-48500000D03*
%TO.P,U1,O12*%
X46250000Y-48500000D03*
%TO.P,U1,O13*%
X47000000Y-48500000D03*
%TO.P,U1,O14*%
X47750000Y-48500000D03*
%TO.P,U1,O15*%
X48500000Y-48500000D03*
%TO.P,U1,O16*%
X49250000Y-48500000D03*
%TO.P,U1,O17*%
X50000000Y-48500000D03*
%TO.P,U1,O18*%
X50750000Y-48500000D03*
%TO.P,U1,O19*%
X51500000Y-48500000D03*
%TO.P,U1,O20*%
X52250000Y-48500000D03*
%TO.P,U1,O21*%
X53000000Y-48500000D03*
%TO.P,U1,O22*%
X53750000Y-48500000D03*
%TO.P,U1,O23*%
X54500000Y-48500000D03*
%TO.P,U1,O24*%
X55250000Y-48500000D03*
%TO.P,U1,O25*%
X56000000Y-48500000D03*
%TO.P,U1,O26*%
X56750000Y-48500000D03*
%TO.P,U1,O27*%
X57500000Y-48500000D03*
%TO.P,U1,O28*%
X58250000Y-48500000D03*
%TO.P,U1,O29*%
X59000000Y-48500000D03*
%TO.P,U1,O30*%
X59750000Y-48500000D03*
%TO.P,U1,O31*%
X60500000Y-48500000D03*
%TO.P,U1,O32*%
X61250000Y-48500000D03*
%TO.P,U1,P1*%
X38000000Y-49250000D03*
%TO.P,U1,P2*%
X38750000Y-49250000D03*
%TO.P,U1,P3*%
X39500000Y-49250000D03*
%TO.P,U1,P4*%
X40250000Y-49250000D03*
%TO.P,U1,P5*%
X41000000Y-49250000D03*
%TO.P,U1,P6*%
X41750000Y-49250000D03*
%TO.P,U1,P7*%
X42500000Y-49250000D03*
%TO.P,U1,P8*%
X43250000Y-49250000D03*
%TO.P,U1,P9*%
X44000000Y-49250000D03*
%TO.P,U1,P10*%
X44750000Y-49250000D03*
%TO.P,U1,P11*%
X45500000Y-49250000D03*
%TO.P,U1,P12*%
X46250000Y-49250000D03*
%TO.P,U1,P13*%
X47000000Y-49250000D03*
%TO.P,U1,P14*%
X47750000Y-49250000D03*
%TO.P,U1,P15*%
X48500000Y-49250000D03*
%TO.P,U1,P16*%
X49250000Y-49250000D03*
%TO.P,U1,P17*%
X50000000Y-49250000D03*
%TO.P,U1,P18*%
X50750000Y-49250000D03*
%TO.P,U1,P19*%
X51500000Y-49250000D03*
%TO.P,U1,P20*%
X52250000Y-49250000D03*
%TO.P,U1,P21*%
X53000000Y-49250000D03*
%TO.P,U1,P22*%
X53750000Y-49250000D03*
%TO.P,U1,P23*%
X54500000Y-49250000D03*
%TO.P,U1,P24*%
X55250000Y-49250000D03*
%TO.P,U1,P25*%
X56000000Y-49250000D03*
%TO.P,U1,P26*%
X56750000Y-49250000D03*
%TO.P,U1,P27*%
X57500000Y-49250000D03*
%TO.P,U1,P28*%
X58250000Y-49250000D03*
%TO.P,U1,P29*%
X59000000Y-49250000D03*
%TO.P,U1,P30*%
X59750000Y-49250000D03*
%TO.P,U1,P31*%
X60500000Y-49250000D03*
%TO.P,U1,P32*%
X61250000Y-49250000D03*
%TO.P,U1,Q1*%
X38000000Y-50000000D03*
%TO.P,U1,Q2*%
X38750000Y-50000000D03*
%TO.P,U1,Q3*%
X39500000Y-50000000D03*
%TO.P,U1,Q4*%
X40250000Y-50000000D03*
%TO.P,U1,Q5*%
X41000000Y-50000000D03*
%TO.P,U1,Q6*%
X41750000Y-50000000D03*
%TO.P,U1,Q7*%
X42500000Y-50000000D03*
%TO.P,U1,Q8*%
X43250000Y-50000000D03*
%TO.P,U1,Q9*%
X44000000Y-50000000D03*
%TO.P,U1,Q10*%
X44750000Y-50000000D03*
%TO.P,U1,Q11*%
X45500000Y-50000000D03*
%TO.P,U1,Q12*%
X46250000Y-50000000D03*
%TO.P,U1,Q13*%
X47000000Y-50000000D03*
%TO.P,U1,Q14*%
X47750000Y-50000000D03*
%TO.P,U1,Q15*%
X48500000Y-50000000D03*
%TO.P,U1,Q16*%
X49250000Y-50000000D03*
%TO.P,U1,Q17*%
X50000000Y-50000000D03*
%TO.P,U1,Q18*%
X50750000Y-50000000D03*
%TO.P,U1,Q19*%
X51500000Y-50000000D03*
%TO.P,U1,Q20*%
X52250000Y-50000000D03*
%TO.P,U1,Q21*%
X53000000Y-50000000D03*
%TO.P,U1,Q22*%
X53750000Y-50000000D03*
%TO.P,U1,Q23*%
X54500000Y-50000000D03*
%TO.P,U1,Q24*%
X55250000Y-50000000D03*
%TO.P,U1,Q25*%
X56000000Y-50000000D03*
%TO.P,U1,Q26*%
X56750000Y-50000000D03*
%TO.P,U1,Q27*%
X57500000Y-50000000D03*
%TO.P,U1,Q28*%
X58250000Y-50000000D03*
%TO.P,U1,Q29*%
X59000000Y-50000000D03*
%TO.P,U1,Q30*%
X59750000Y-50000000D03*
%TO.P,U1,Q31*%
X60500000Y-50000000D03*
%TO.P,U1,Q32*%
X61250000Y-50000000D03*
%TO.P,U1,R1*%
X38000000Y-50750000D03*
%TO.P,U1,R2*%
X38750000Y-50750000D03*
%TO.P,U1,R3*%
X39500000Y-50750000D03*
%TO.P,U1,R4*%
X40250000Y-50750000D03*
%TO.P,U1,R5*%
X41000000Y-50750000D03*
%TO.P,U1,R6*%
X41750000Y-50750000D03*
%TO.P,U1,R7*%
X42500000Y-50750000D03*
%TO.P,U1,R8*%
X43250000Y-50750000D03*
%TO.P,U1,R9*%
X44000000Y-50750000D03*
%TO.P,U1,R10*%
X44750000Y-50750000D03*
%TO.P,U1,R11*%
X45500000Y-50750000D03*
%TO.P,U1,R12*%
X46250000Y-50750000D03*
%TO.P,U1,R13*%
X47000000Y-50750000D03*
%TO.P,U1,R14*%
X47750000Y-50750000D03*
%TO.P,U1,R15*%
X48500000Y-50750000D03*
%TO.P,U1,R16*%
X49250000Y-50750000D03*
%TO.P,U1,R17*%
X50000000Y-50750000D03*
%TO.P,U1,R18*%
X50750000Y-50750000D03*
%TO.P,U1,R19*%
X51500000Y-50750000D03*
%TO.P,U1,R20*%
X52250000Y-50750000D03*
%TO.P,U1,R21*%
X53000000Y-50750000D03*
%TO.P,U1,R22*%
X53750000Y-50750000D03*
%TO.P,U1,R23*%
X54500000Y-50750000D03*
%TO.P,U1,R24*%
X55250000Y-50750000D03*
%TO.P,U1,R25*%
X56000000Y-50750000D03*
%TO.P,U1,R26*%
X56750000Y-50750000D03*
%TO.P,U1,R27*%
X57500000Y-50750000D03*
%TO.P,U1,R28*%
X58250000Y-50750000D03*
%TO.P,U1,R29*%
X59000000Y-50750000D03*
%TO.P,U1,R30*%
X59750000Y-50750000D03*
%TO.P,U1,R31*%
X60500000Y-50750000D03*
%TO.P,U1,R32*%
X61250000Y-50750000D03*
%TO.P,U1,S1*%
X38000000Y-51500000D03*
%TO.P,U1,S2*%
X38750000Y-51500000D03*
%TO.P,U1,S3*%
X39500000Y-51500000D03*
%TO.P,U1,S4*%
X40250000Y-51500000D03*
%TO.P,U1,S5*%
X41000000Y-51500000D03*
%TO.P,U1,S6*%
X41750000Y-51500000D03*
%TO.P,U1,S7*%
X42500000Y-51500000D03*
%TO.P,U1,S8*%
X43250000Y-51500000D03*
%TO.P,U1,S9*%
X44000000Y-51500000D03*
%TO.P,U1,S10*%
X44750000Y-51500000D03*
%TO.P,U1,S11*%
X45500000Y-51500000D03*
%TO.P,U1,S12*%
X46250000Y-51500000D03*
%TO.P,U1,S13*%
X47000000Y-51500000D03*
%TO.P,U1,S14*%
X47750000Y-51500000D03*
%TO.P,U1,S15*%
X48500000Y-51500000D03*
%TO.P,U1,S16*%
X49250000Y-51500000D03*
%TO.P,U1,S17*%
X50000000Y-51500000D03*
%TO.P,U1,S18*%
X50750000Y-51500000D03*
%TO.P,U1,S19*%
X51500000Y-51500000D03*
%TO.P,U1,S20*%
X52250000Y-51500000D03*
%TO.P,U1,S21*%
X53000000Y-51500000D03*
%TO.P,U1,S22*%
X53750000Y-51500000D03*
%TO.P,U1,S23*%
X54500000Y-51500000D03*
%TO.P,U1,S24*%
X55250000Y-51500000D03*
%TO.P,U1,S25*%
X56000000Y-51500000D03*
%TO.P,U1,S26*%
X56750000Y-51500000D03*
%TO.P,U1,S27*%
X57500000Y-51500000D03*
%TO.P,U1,S28*%
X58250000Y-51500000D03*
%TO.P,U1,S29*%
X59000000Y-51500000D03*
%TO.P,U1,S30*%
X59750000Y-51500000D03*
%TO.P,U1,S31*%
X60500000Y-51500000D03*
%TO.P,U1,S32*%
X61250000Y-51500000D03*
%TO.P,U1,T1*%
X38000000Y-52250000D03*
%TO.P,U1,T2*%
X38750000Y-52250000D03*
%TO.P,U1,T3*%
X39500000Y-52250000D03*
%TO.P,U1,T4*%
X40250000Y-52250000D03*
%TO.P,U1,T5*%
X41000000Y-52250000D03*
%TO.P,U1,T6*%
X41750000Y-52250000D03*
%TO.P,U1,T7*%
X42500000Y-52250000D03*
%TO.P,U1,T8*%
X43250000Y-52250000D03*
%TO.P,U1,T9*%
X44000000Y-52250000D03*
%TO.P,U1,T10*%
X44750000Y-52250000D03*
%TO.P,U1,T11*%
X45500000Y-52250000D03*
%TO.P,U1,T12*%
X46250000Y-52250000D03*
%TO.P,U1,T13*%
X47000000Y-52250000D03*
%TO.P,U1,T14*%
X47750000Y-52250000D03*
%TO.P,U1,T15*%
X48500000Y-52250000D03*
%TO.P,U1,T16*%
X49250000Y-52250000D03*
%TO.P,U1,T17*%
X50000000Y-52250000D03*
%TO.P,U1,T18*%
X50750000Y-52250000D03*
%TO.P,U1,T19*%
X51500000Y-52250000D03*
%TO.P,U1,T20*%
X52250000Y-52250000D03*
%TO.P,U1,T21*%
X53000000Y-52250000D03*
%TO.P,U1,T22*%
X53750000Y-52250000D03*
%TO.P,U1,T23*%
X54500000Y-52250000D03*
%TO.P,U1,T24*%
X55250000Y-52250000D03*
%TO.P,U1,T25*%
X56000000Y-52250000D03*
%TO.P,U1,T26*%
X56750000Y-52250000D03*
%TO.P,U1,T27*%
X57500000Y-52250000D03*
%TO.P,U1,T28*%
X58250000Y-52250000D03*
%TO.P,U1,T29*%
X59000000Y-52250000D03*
%TO.P,U1,T30*%
X59750000Y-52250000D03*
%TO.P,U1,T31*%
X60500000Y-52250000D03*
%TO.P,U1,T32*%
X61250000Y-52250000D03*
%TO.P,U1,U1*%
X38000000Y-53000000D03*
%TO.P,U1,U2*%
X38750000Y-53000000D03*
%TO.P,U1,U3*%
X39500000Y-53000000D03*
%TO.P,U1,U4*%
X40250000Y-53000000D03*
%TO.P,U1,U5*%
X41000000Y-53000000D03*
%TO.P,U1,U6*%
X41750000Y-53000000D03*
%TO.P,U1,U7*%
X42500000Y-53000000D03*
%TO.P,U1,U8*%
X43250000Y-53000000D03*
%TO.P,U1,U9*%
X44000000Y-53000000D03*
%TO.P,U1,U10*%
X44750000Y-53000000D03*
%TO.P,U1,U11*%
X45500000Y-53000000D03*
%TO.P,U1,U12*%
X46250000Y-53000000D03*
%TO.P,U1,U13*%
X47000000Y-53000000D03*
%TO.P,U1,U14*%
X47750000Y-53000000D03*
%TO.P,U1,U15*%
X48500000Y-53000000D03*
%TO.P,U1,U16*%
X49250000Y-53000000D03*
%TO.P,U1,U17*%
X50000000Y-53000000D03*
%TO.P,U1,U18*%
X50750000Y-53000000D03*
%TO.P,U1,U19*%
X51500000Y-53000000D03*
%TO.P,U1,U20*%
X52250000Y-53000000D03*
%TO.P,U1,U21*%
X53000000Y-53000000D03*
%TO.P,U1,U22*%
X53750000Y-53000000D03*
%TO.P,U1,U23*%
X54500000Y-53000000D03*
%TO.P,U1,U24*%
X55250000Y-53000000D03*
%TO.P,U1,U25*%
X56000000Y-53000000D03*
%TO.P,U1,U26*%
X56750000Y-53000000D03*
%TO.P,U1,U27*%
X57500000Y-53000000D03*
%TO.P,U1,U28*%
X58250000Y-53000000D03*
%TO.P,U1,U29*%
X59000000Y-53000000D03*
%TO.P,U1,U30*%
X59750000Y-53000000D03*
%TO.P,U1,U31*%
X60500000Y-53000000D03*
%TO.P,U1,U32*%
X61250000Y-53000000D03*
%TO.P,U1,V1*%
X38000000Y-53750000D03*
%TO.P,U1,V2*%
X38750000Y-53750000D03*
%TO.P,U1,V3*%
X39500000Y-53750000D03*
%TO.P,U1,V4*%
X40250000Y-53750000D03*
%TO.P,U1,V5*%
X41000000Y-53750000D03*
%TO.P,U1,V6*%
X41750000Y-53750000D03*
%TO.P,U1,V7*%
X42500000Y-53750000D03*
%TO.P,U1,V8*%
X43250000Y-53750000D03*
%TO.P,U1,V9*%
X44000000Y-53750000D03*
%TO.P,U1,V10*%
X44750000Y-53750000D03*
%TO.P,U1,V11*%
X45500000Y-53750000D03*
%TO.P,U1,V12*%
X46250000Y-53750000D03*
%TO.P,U1,V13*%
X47000000Y-53750000D03*
%TO.P,U1,V14*%
X47750000Y-53750000D03*
%TO.P,U1,V15*%
X48500000Y-53750000D03*
%TO.P,U1,V16*%
X49250000Y-53750000D03*
%TO.P,U1,V17*%
X50000000Y-53750000D03*
%TO.P,U1,V18*%
X50750000Y-53750000D03*
%TO.P,U1,V19*%
X51500000Y-53750000D03*
%TO.P,U1,V20*%
X52250000Y-53750000D03*
%TO.P,U1,V21*%
X53000000Y-53750000D03*
%TO.P,U1,V22*%
X53750000Y-53750000D03*
%TO.P,U1,V23*%
X54500000Y-53750000D03*
%TO.P,U1,V24*%
X55250000Y-53750000D03*
%TO.P,U1,V25*%
X56000000Y-53750000D03*
%TO.P,U1,V26*%
X56750000Y-53750000D03*
%TO.P,U1,V27*%
X57500000Y-53750000D03*
%TO.P,U1,V28*%
X58250000Y-53750000D03*
%TO.P,U1,V29*%
X59000000Y-53750000D03*
%TO.P,U1,V30*%
X59750000Y-53750000D03*
%TO.P,U1,V31*%
X60500000Y-53750000D03*
%TO.P,U1,V32*%
X61250000Y-53750000D03*
%TO.P,U1,W1*%
X38000000Y-54500000D03*
%TO.P,U1,W2*%
X38750000Y-54500000D03*
%TO.P,U1,W3*%
X39500000Y-54500000D03*
%TO.P,U1,W4*%
X40250000Y-54500000D03*
%TO.P,U1,W5*%
X41000000Y-54500000D03*
%TO.P,U1,W6*%
X41750000Y-54500000D03*
%TO.P,U1,W7*%
X42500000Y-54500000D03*
%TO.P,U1,W8*%
X43250000Y-54500000D03*
%TO.P,U1,W9*%
X44000000Y-54500000D03*
%TO.P,U1,W10*%
X44750000Y-54500000D03*
%TO.P,U1,W11*%
X45500000Y-54500000D03*
%TO.P,U1,W12*%
X46250000Y-54500000D03*
%TO.P,U1,W13*%
X47000000Y-54500000D03*
%TO.P,U1,W14*%
X47750000Y-54500000D03*
%TO.P,U1,W15*%
X48500000Y-54500000D03*
%TO.P,U1,W16*%
X49250000Y-54500000D03*
%TO.P,U1,W17*%
X50000000Y-54500000D03*
%TO.P,U1,W18*%
X50750000Y-54500000D03*
%TO.P,U1,W19*%
X51500000Y-54500000D03*
%TO.P,U1,W20*%
X52250000Y-54500000D03*
%TO.P,U1,W21*%
X53000000Y-54500000D03*
%TO.P,U1,W22*%
X53750000Y-54500000D03*
%TO.P,U1,W23*%
X54500000Y-54500000D03*
%TO.P,U1,W24*%
X55250000Y-54500000D03*
%TO.P,U1,W25*%
X56000000Y-54500000D03*
%TO.P,U1,W26*%
X56750000Y-54500000D03*
%TO.P,U1,W27*%
X57500000Y-54500000D03*
%TO.P,U1,W28*%
X58250000Y-54500000D03*
%TO.P,U1,W29*%
X59000000Y-54500000D03*
%TO.P,U1,W30*%
X59750000Y-54500000D03*
%TO.P,U1,W31*%
X60500000Y-54500000D03*
%TO.P,U1,W32*%
X61250000Y-54500000D03*
%TO.P,U1,X1*%
X38000000Y-55250000D03*
%TO.P,U1,X2*%
X38750000Y-55250000D03*
%TO.P,U1,X3*%
X39500000Y-55250000D03*
%TO.P,U1,X4*%
X40250000Y-55250000D03*
%TO.P,U1,X5*%
X41000000Y-55250000D03*
%TO.P,U1,X6*%
X41750000Y-55250000D03*
%TO.P,U1,X7*%
X42500000Y-55250000D03*
%TO.P,U1,X8*%
X43250000Y-55250000D03*
%TO.P,U1,X9*%
X44000000Y-55250000D03*
%TO.P,U1,X10*%
X44750000Y-55250000D03*
%TO.P,U1,X11*%
X45500000Y-55250000D03*
%TO.P,U1,X12*%
X46250000Y-55250000D03*
%TO.P,U1,X13*%
X47000000Y-55250000D03*
%TO.P,U1,X14*%
X47750000Y-55250000D03*
%TO.P,U1,X15*%
X48500000Y-55250000D03*
%TO.P,U1,X16*%
X49250000Y-55250000D03*
%TO.P,U1,X17*%
X50000000Y-55250000D03*
%TO.P,U1,X18*%
X50750000Y-55250000D03*
%TO.P,U1,X19*%
X51500000Y-55250000D03*
%TO.P,U1,X20*%
X52250000Y-55250000D03*
%TO.P,U1,X21*%
X53000000Y-55250000D03*
%TO.P,U1,X22*%
X53750000Y-55250000D03*
%TO.P,U1,X23*%
X54500000Y-55250000D03*
%TO.P,U1,X24*%
X55250000Y-55250000D03*
%TO.P,U1,X25*%
X56000000Y-55250000D03*
%TO.P,U1,X26*%
X56750000Y-55250000D03*
%TO.P,U1,X27*%
X57500000Y-55250000D03*
%TO.P,U1,X28*%
X58250000Y-55250000D03*
%TO.P,U1,X29*%
X59000000Y-55250000D03*
%TO.P,U1,X30*%
X59750000Y-55250000D03*
%TO.P,U1,X31*%
X60500000Y-55250000D03*
%TO.P,U1,X32*%
X61250000Y-55250000D03*
%TO.P,U1,Y1*%
X38000000Y-56000000D03*
%TO.P,U1,Y2*%
X38750000Y-56000000D03*
%TO.P,U1,Y3*%
X39500000Y-56000000D03*
%TO.P,U1,Y4*%
X40250000Y-56000000D03*
%TO.P,U1,Y5*%
X41000000Y-56000000D03*
%TO.P,U1,Y6*%
X41750000Y-56000000D03*
%TO.P,U1,Y7*%
X42500000Y-56000000D03*
%TO.P,U1,Y8*%
X43250000Y-56000000D03*
%TO.P,U1,Y9*%
X44000000Y-56000000D03*
%TO.P,U1,Y10*%
X44750000Y-56000000D03*
%TO.P,U1,Y11*%
X45500000Y-56000000D03*
%TO.P,U1,Y12*%
X46250000Y-56000000D03*
%TO.P,U1,Y13*%
X47000000Y-56000000D03*
%TO.P,U1,Y14*%
X47750000Y-56000000D03*
%TO.P,U1,Y15*%
X48500000Y-56000000D03*
%TO.P,U1,Y16*%
X49250000Y-56000000D03*
%TO.P,U1,Y17*%
X50000000Y-56000000D03*
%TO.P,U1,Y18*%
X50750000Y-56000000D03*
%TO.P,U1,Y19*%
X51500000Y-56000000D03*
%TO.P,U1,Y20*%
X52250000Y-56000000D03*
%TO.P,U1,Y21*%
X53000000Y-56000000D03*
%TO.P,U1,Y22*%
X53750000Y-56000000D03*
%TO.P,U1,Y23*%
X54500000Y-56000000D03*
%TO.P,U1,Y24*%
X55250000Y-56000000D03*
%TO.P,U1,Y25*%
X56000000Y-56000000D03*
%TO.P,U1,Y26*%
X56750000Y-56000000D03*
%TO.P,U1,Y27*%
X57500000Y-56000000D03*
%TO.P,U1,Y28*%
X58250000Y-56000000D03*
%TO.P,U1,Y29*%
X59000000Y-56000000D03*
%TO.P,U1,Y30*%
X59750000Y-56000000D03*
%TO.P,U1,Y31*%
X60500000Y-56000000D03*
%TO.P,U1,Y32*%
X61250000Y-56000000D03*
%TO.P,U1,Z1*%
X38000000Y-56750000D03*
%TO.P,U1,Z2*%
X38750000Y-56750000D03*
%TO.P,U1,Z3*%
X39500000Y-56750000D03*
%TO.P,U1,Z4*%
X40250000Y-56750000D03*
%TO.P,U1,Z5*%
X41000000Y-56750000D03*
%TO.P,U1,Z6*%
X41750000Y-56750000D03*
%TO.P,U1,Z7*%
X42500000Y-56750000D03*
%TO.P,U1,Z8*%
X43250000Y-56750000D03*
%TO.P,U1,Z9*%
X44000000Y-56750000D03*
%TO.P,U1,Z10*%
X44750000Y-56750000D03*
%TO.P,U1,Z11*%
X45500000Y-56750000D03*
%TO.P,U1,Z12*%
X46250000Y-56750000D03*
%TO.P,U1,Z13*%
X47000000Y-56750000D03*
%TO.P,U1,Z14*%
X47750000Y-56750000D03*
%TO.P,U1,Z15*%
X48500000Y-56750000D03*
%TO.P,U1,Z16*%
X49250000Y-56750000D03*
%TO.P,U1,Z17*%
X50000000Y-56750000D03*
%TO.P,U1,Z18*%
X50750000Y-56750000D03*
%TO.P,U1,Z19*%
X51500000Y-56750000D03*
%TO.P,U1,Z20*%
X52250000Y-56750000D03*
%TO.P,U1,Z21*%
X53000000Y-56750000D03*
%TO.P,U1,Z22*%
X53750000Y-56750000D03*
%TO.P,U1,Z23*%
X54500000Y-56750000D03*
%TO.P,U1,Z24*%
X55250000Y-56750000D03*
%TO.P,U1,Z25*%
X56000000Y-56750000D03*
%TO.P,U1,Z26*%
X56750000Y-56750000D03*
%TO.P,U1,Z27*%
X57500000Y-56750000D03*
%TO.P,U1,Z28*%
X58250000Y-56750000D03*
%TO.P,U1,Z29*%
X59000000Y-56750000D03*
%TO.P,U1,Z30*%
X59750000Y-56750000D03*
%TO.P,U1,Z31*%
X60500000Y-56750000D03*
%TO.P,U1,Z32*%
X61250000Y-56750000D03*
%TD*%
D19*
%TO.P,J1,1*%
%TO.N,HDMI_TX0_P*%
X100500000Y-31715000D03*
%TO.P,J1,2*%
%TO.N,GND*%
X100000000Y-31715000D03*
%TO.P,J1,3*%
%TO.N,HDMI_TX0_N*%
X99500000Y-31715000D03*
%TO.P,J1,4*%
%TO.N,HDMI_TX1_P*%
X99000000Y-31715000D03*
%TO.P,J1,5*%
%TO.N,GND*%
X98500000Y-31715000D03*
%TO.P,J1,6*%
%TO.N,HDMI_TX1_N*%
X98000000Y-31715000D03*
%TO.P,J1,7*%
%TO.N,HDMI_TX2_P*%
X97500000Y-31715000D03*
%TO.P,J1,8*%
%TO.N,GND*%
X97000000Y-31715000D03*
%TO.P,J1,9*%
%TO.N,HDMI_TX2_N*%
X96500000Y-31715000D03*
%TO.P,J1,10*%
%TO.N,HDMI_CLK_P*%
X96000000Y-31715000D03*
%TO.P,J1,11*%
%TO.N,GND*%
X95500000Y-31715000D03*
%TO.P,J1,12*%
%TO.N,HDMI_CLK_N*%
X95000000Y-31715000D03*
%TO.P,J1,13*%
%TO.N,HDMI_CEC*%
X94500000Y-31715000D03*
%TO.P,J1,14*%
%TO.N,GND*%
X94000000Y-31715000D03*
%TO.P,J1,15*%
%TO.N,HDMI_SCL*%
X93500000Y-31715000D03*
%TO.P,J1,16*%
%TO.N,HDMI_SDA*%
X93000000Y-31715000D03*
%TO.P,J1,17*%
%TO.N,GND*%
X92500000Y-31715000D03*
%TO.P,J1,18*%
%TO.N,+5V*%
X92000000Y-31715000D03*
%TO.P,J1,19*%
%TO.N,HDMI_HPD*%
X91500000Y-31715000D03*
D20*
%TO.P,J1,SH*%
%TO.N,N/C*%
X103250000Y-32475000D03*
X88750000Y-32475000D03*
D21*
X103250000Y-38435000D03*
X88750000Y-38435000D03*
%TD*%
D22*
%TO.P,J5,A1*%
%TO.N,GND*%
X46800000Y-92320000D03*
%TO.P,J5,A4*%
%TO.N,+5V*%
X47600000Y-92320000D03*
D23*
%TO.P,J5,A5*%
%TO.N,CC1*%
X48750000Y-92320000D03*
%TO.P,J5,A6*%
%TO.N,USBC_DP*%
X49750000Y-92320000D03*
%TO.P,J5,A7*%
%TO.N,USBC_DN*%
X50250000Y-92320000D03*
%TO.P,J5,A8*%
%TO.N,SBU1*%
X51250000Y-92320000D03*
D22*
%TO.P,J5,A9*%
%TO.N,N/C*%
X52400000Y-92320000D03*
%TO.P,J5,A12*%
%TO.N,GND*%
X53200000Y-92320000D03*
%TO.P,J5,B1*%
X53200000Y-92320000D03*
%TO.P,J5,B4*%
%TO.N,+5V*%
X52400000Y-92320000D03*
D23*
%TO.P,J5,B5*%
%TO.N,CC2*%
X51750000Y-92320000D03*
%TO.P,J5,B6*%
%TO.N,USBC_DP*%
X50750000Y-92320000D03*
%TO.P,J5,B7*%
%TO.N,USBC_DN*%
X49250000Y-92320000D03*
%TO.P,J5,B8*%
%TO.N,SBU2*%
X48250000Y-92320000D03*
D22*
%TO.P,J5,B9*%
%TO.N,N/C*%
X47600000Y-92320000D03*
%TO.P,J5,B12*%
%TO.N,GND*%
X46800000Y-92320000D03*
D24*
%TO.P,J5,SH*%
%TO.N,N/C*%
X45680000Y-92895000D03*
D25*
X45680000Y-97075000D03*
D24*
X54320000Y-92895000D03*
D25*
X54320000Y-97075000D03*
%TD*%
D26*
%TO.P,U2,1*%
%TO.N,+5V*%
X12700000Y-46000000D03*
%TO.P,U2,2*%
X12700000Y-46500000D03*
%TO.P,U2,3*%
X12700000Y-47000000D03*
%TO.P,U2,4*%
X12700000Y-47500000D03*
%TO.P,U2,5*%
X12700000Y-48000000D03*
%TO.P,U2,6*%
X12700000Y-48500000D03*
%TO.P,U2,7*%
X12700000Y-49000000D03*
%TO.P,U2,8*%
X12700000Y-49500000D03*
%TO.P,U2,9*%
X12700000Y-50000000D03*
%TO.P,U2,10*%
X12700000Y-50500000D03*
%TO.P,U2,11*%
X12700000Y-51000000D03*
%TO.P,U2,12*%
X12700000Y-51500000D03*
%TO.P,U2,13*%
%TO.N,GND*%
X12700000Y-52000000D03*
%TO.P,U2,14*%
X12700000Y-52500000D03*
%TO.P,U2,15*%
X12700000Y-53000000D03*
%TO.P,U2,16*%
X12700000Y-53500000D03*
%TO.P,U2,17*%
%TO.N,SPI0_SCK*%
X12700000Y-54000000D03*
D27*
%TO.P,U2,18*%
%TO.N,SPI0_MOSI*%
X13000000Y-54300000D03*
%TO.P,U2,19*%
%TO.N,SPI0_MISO*%
X13500000Y-54300000D03*
%TO.P,U2,20*%
%TO.N,SPI0_CS_N*%
X14000000Y-54300000D03*
%TO.P,U2,21*%
%TO.N,PWRON_N*%
X14500000Y-54300000D03*
%TO.P,U2,22*%
%TO.N,SYS_RST_N*%
X15000000Y-54300000D03*
%TO.P,U2,23*%
%TO.N,SLEEP*%
X15500000Y-54300000D03*
%TO.P,U2,24*%
%TO.N,PMIC_INT_N*%
X16000000Y-54300000D03*
%TO.P,U2,25*%
%TO.N,OSC_32K_IN*%
X16500000Y-54300000D03*
%TO.P,U2,26*%
%TO.N,PMIC_BUCK1_CPUB*%
X17000000Y-54300000D03*
%TO.P,U2,27*%
%TO.N,PMIC_BUCK2_CPUL*%
X17500000Y-54300000D03*
%TO.P,U2,28*%
%TO.N,PMIC_BUCK3_GPU*%
X18000000Y-54300000D03*
%TO.P,U2,29*%
%TO.N,PMIC_BUCK4_NPU*%
X18500000Y-54300000D03*
%TO.P,U2,30*%
%TO.N,PMIC_BUCK5_LOGIC*%
X19000000Y-54300000D03*
%TO.P,U2,31*%
%TO.N,PMIC_BUCK6_CENTER*%
X19500000Y-54300000D03*
%TO.P,U2,32*%
%TO.N,+1V1*%
X20000000Y-54300000D03*
%TO.P,U2,33*%
%TO.N,+1V8*%
X20500000Y-54300000D03*
%TO.P,U2,34*%
%TO.N,+3V3*%
X21000000Y-54300000D03*
D26*
%TO.P,U2,35*%
%TO.N,+0V9*%
X21300000Y-54000000D03*
%TO.P,U2,36*%
%TO.N,PMIC_LDO1_0V75*%
X21300000Y-53500000D03*
%TO.P,U2,37*%
%TO.N,+0V9*%
X21300000Y-53000000D03*
%TO.P,U2,38*%
%TO.N,+1V8*%
X21300000Y-52500000D03*
%TO.P,U2,39*%
X21300000Y-52000000D03*
%TO.P,U2,40*%
%TO.N,+3V3*%
X21300000Y-51500000D03*
%TO.P,U2,41*%
X21300000Y-51000000D03*
%TO.P,U2,42*%
%TO.N,PMIC_LDO7_RTC*%
X21300000Y-50500000D03*
%TO.P,U2,43*%
%TO.N,+1V0*%
X21300000Y-50000000D03*
%TO.P,U2,44*%
%TO.N,+1V8*%
X21300000Y-49500000D03*
%TO.P,U2,45*%
%TO.N,N/C*%
X21300000Y-49000000D03*
%TO.P,U2,46*%
X21300000Y-48500000D03*
%TO.P,U2,47*%
X21300000Y-48000000D03*
%TO.P,U2,48*%
X21300000Y-47500000D03*
%TO.P,U2,49*%
X21300000Y-47000000D03*
%TO.P,U2,50*%
X21300000Y-46500000D03*
%TO.P,U2,51*%
X21300000Y-46000000D03*
D27*
%TO.P,U2,52*%
X21000000Y-45700000D03*
%TO.P,U2,53*%
X20500000Y-45700000D03*
%TO.P,U2,54*%
X20000000Y-45700000D03*
%TO.P,U2,55*%
X19500000Y-45700000D03*
%TO.P,U2,56*%
X19000000Y-45700000D03*
%TO.P,U2,57*%
X18500000Y-45700000D03*
%TO.P,U2,58*%
X18000000Y-45700000D03*
%TO.P,U2,59*%
X17500000Y-45700000D03*
%TO.P,U2,60*%
X17000000Y-45700000D03*
%TO.P,U2,61*%
X16500000Y-45700000D03*
%TO.P,U2,62*%
X16000000Y-45700000D03*
%TO.P,U2,63*%
X15500000Y-45700000D03*
%TO.P,U2,64*%
X15000000Y-45700000D03*
%TO.P,U2,65*%
X14500000Y-45700000D03*
%TO.P,U2,66*%
X14000000Y-45700000D03*
%TO.P,U2,67*%
X13500000Y-45700000D03*
%TO.P,U2,68*%
X13000000Y-45700000D03*
D28*
%TO.P,U2,69*%
X17000000Y-50000000D03*
%TD*%
D29*
%TO.P,J3,1*%
%TO.N,+5V*%
X96000000Y-5000000D03*
D30*
%TO.P,J3,2*%
%TO.N,USB0_DN*%
X96000000Y-7500000D03*
%TO.P,J3,3*%
%TO.N,USB0_DP*%
X96000000Y-9500000D03*
%TO.P,J3,4*%
%TO.N,GND*%
X96000000Y-12000000D03*
%TO.P,J3,5*%
%TO.N,USB3_RX0_N*%
X97500000Y-12500000D03*
%TO.P,J3,6*%
%TO.N,USB3_RX0_P*%
X97500000Y-10500000D03*
%TO.P,J3,7*%
%TO.N,GND*%
X97500000Y-8500000D03*
%TO.P,J3,8*%
%TO.N,USB3_TX0_N*%
X97500000Y-6500000D03*
%TO.P,J3,9*%
%TO.N,USB3_TX0_P*%
X97500000Y-4500000D03*
D31*
%TO.P,J3,SH*%
%TO.N,N/C*%
X96750000Y-2100000D03*
D32*
X88250000Y-2100000D03*
D31*
X96750000Y-14900000D03*
D32*
X88250000Y-14900000D03*
%TD*%
D33*
%TO.P,J4,1*%
%TO.N,+5V*%
X4000000Y-5000000D03*
D30*
%TO.P,J4,2*%
%TO.N,USB1_DN*%
X4000000Y-2500000D03*
%TO.P,J4,3*%
%TO.N,USB1_DP*%
X4000000Y-500000D03*
%TO.P,J4,4*%
%TO.N,GND*%
X4000000Y2000000D03*
%TO.P,J4,5*%
%TO.N,USB3_RX1_N*%
X2500000Y2500000D03*
%TO.P,J4,6*%
%TO.N,USB3_RX1_P*%
X2500000Y500000D03*
%TO.P,J4,7*%
%TO.N,GND*%
X2500000Y-1500000D03*
%TO.P,J4,8*%
%TO.N,USB3_TX1_N*%
X2500000Y-3500000D03*
%TO.P,J4,9*%
%TO.N,USB3_TX1_P*%
X2500000Y-5500000D03*
D31*
%TO.P,J4,SH*%
%TO.N,N/C*%
X3250000Y-7900000D03*
D32*
X11750000Y-7900000D03*
D31*
X3250000Y4900000D03*
D32*
X11750000Y4900000D03*
%TD*%
D34*
%TO.P,U4,A1*%
%TO.N,N/C*%
X46750000Y-74750000D03*
%TO.P,U4,A2*%
X47250000Y-74750000D03*
%TO.P,U4,A3*%
X47750000Y-74750000D03*
%TO.P,U4,A4*%
X48250000Y-74750000D03*
%TO.P,U4,A5*%
X48750000Y-74750000D03*
%TO.P,U4,A6*%
X49250000Y-74750000D03*
%TO.P,U4,A7*%
X49750000Y-74750000D03*
%TO.P,U4,A8*%
X50250000Y-74750000D03*
%TO.P,U4,A9*%
X50750000Y-74750000D03*
%TO.P,U4,A10*%
X51250000Y-74750000D03*
%TO.P,U4,A11*%
X51750000Y-74750000D03*
%TO.P,U4,A12*%
X52250000Y-74750000D03*
%TO.P,U4,A13*%
X52750000Y-74750000D03*
%TO.P,U4,A14*%
X53250000Y-74750000D03*
%TO.P,U4,B1*%
X46750000Y-75250000D03*
%TO.P,U4,B2*%
X47250000Y-75250000D03*
%TO.P,U4,B3*%
X47750000Y-75250000D03*
%TO.P,U4,B4*%
X48250000Y-75250000D03*
%TO.P,U4,B5*%
X48750000Y-75250000D03*
%TO.P,U4,B6*%
X49250000Y-75250000D03*
%TO.P,U4,B7*%
X49750000Y-75250000D03*
%TO.P,U4,B8*%
X50250000Y-75250000D03*
%TO.P,U4,B9*%
X50750000Y-75250000D03*
%TO.P,U4,B10*%
X51250000Y-75250000D03*
%TO.P,U4,B11*%
X51750000Y-75250000D03*
%TO.P,U4,B12*%
X52250000Y-75250000D03*
%TO.P,U4,B13*%
X52750000Y-75250000D03*
%TO.P,U4,B14*%
X53250000Y-75250000D03*
%TO.P,U4,C1*%
X46750000Y-75750000D03*
%TO.P,U4,C2*%
X47250000Y-75750000D03*
%TO.P,U4,C3*%
X47750000Y-75750000D03*
%TO.P,U4,C4*%
X48250000Y-75750000D03*
%TO.P,U4,C5*%
X48750000Y-75750000D03*
%TO.P,U4,C6*%
X49250000Y-75750000D03*
%TO.P,U4,C7*%
X49750000Y-75750000D03*
%TO.P,U4,C8*%
X50250000Y-75750000D03*
%TO.P,U4,C9*%
X50750000Y-75750000D03*
%TO.P,U4,C10*%
X51250000Y-75750000D03*
%TO.P,U4,C11*%
X51750000Y-75750000D03*
%TO.P,U4,C12*%
X52250000Y-75750000D03*
%TO.P,U4,C13*%
X52750000Y-75750000D03*
%TO.P,U4,C14*%
X53250000Y-75750000D03*
%TO.P,U4,D1*%
X46750000Y-76250000D03*
%TO.P,U4,D2*%
X47250000Y-76250000D03*
%TO.P,U4,D3*%
X47750000Y-76250000D03*
%TO.P,U4,D4*%
X48250000Y-76250000D03*
%TO.P,U4,D12*%
X52250000Y-76250000D03*
%TO.P,U4,D13*%
X52750000Y-76250000D03*
%TO.P,U4,D14*%
X53250000Y-76250000D03*
%TO.P,U4,E1*%
X46750000Y-76750000D03*
%TO.P,U4,E2*%
X47250000Y-76750000D03*
%TO.P,U4,E3*%
X47750000Y-76750000D03*
%TO.P,U4,E5*%
X48750000Y-76750000D03*
%TO.P,U4,E6*%
X49250000Y-76750000D03*
%TO.P,U4,E7*%
X49750000Y-76750000D03*
%TO.P,U4,E8*%
X50250000Y-76750000D03*
%TO.P,U4,E9*%
X50750000Y-76750000D03*
%TO.P,U4,E10*%
X51250000Y-76750000D03*
%TO.P,U4,E12*%
X52250000Y-76750000D03*
%TO.P,U4,E13*%
X52750000Y-76750000D03*
%TO.P,U4,E14*%
X53250000Y-76750000D03*
%TO.P,U4,F1*%
X46750000Y-77250000D03*
%TO.P,U4,F2*%
X47250000Y-77250000D03*
%TO.P,U4,F3*%
X47750000Y-77250000D03*
%TO.P,U4,F5*%
X48750000Y-77250000D03*
%TO.P,U4,F10*%
X51250000Y-77250000D03*
%TO.P,U4,F12*%
X52250000Y-77250000D03*
%TO.P,U4,F13*%
X52750000Y-77250000D03*
%TO.P,U4,F14*%
X53250000Y-77250000D03*
%TO.P,U4,G1*%
X46750000Y-77750000D03*
%TO.P,U4,G2*%
X47250000Y-77750000D03*
%TO.P,U4,G3*%
X47750000Y-77750000D03*
%TO.P,U4,G5*%
X48750000Y-77750000D03*
%TO.P,U4,G10*%
X51250000Y-77750000D03*
%TO.P,U4,G12*%
X52250000Y-77750000D03*
%TO.P,U4,G13*%
X52750000Y-77750000D03*
%TO.P,U4,G14*%
X53250000Y-77750000D03*
%TO.P,U4,H1*%
X46750000Y-78250000D03*
%TO.P,U4,H2*%
X47250000Y-78250000D03*
%TO.P,U4,H3*%
X47750000Y-78250000D03*
%TO.P,U4,H5*%
X48750000Y-78250000D03*
%TO.P,U4,H10*%
X51250000Y-78250000D03*
%TO.P,U4,H12*%
X52250000Y-78250000D03*
%TO.P,U4,H13*%
X52750000Y-78250000D03*
%TO.P,U4,H14*%
X53250000Y-78250000D03*
%TO.P,U4,J1*%
X46750000Y-78750000D03*
%TO.P,U4,J2*%
X47250000Y-78750000D03*
%TO.P,U4,J3*%
X47750000Y-78750000D03*
%TO.P,U4,J5*%
X48750000Y-78750000D03*
%TO.P,U4,J10*%
X51250000Y-78750000D03*
%TO.P,U4,J12*%
X52250000Y-78750000D03*
%TO.P,U4,J13*%
X52750000Y-78750000D03*
%TO.P,U4,J14*%
X53250000Y-78750000D03*
%TO.P,U4,K1*%
X46750000Y-79250000D03*
%TO.P,U4,K2*%
X47250000Y-79250000D03*
%TO.P,U4,K3*%
X47750000Y-79250000D03*
%TO.P,U4,K5*%
X48750000Y-79250000D03*
%TO.P,U4,K6*%
X49250000Y-79250000D03*
%TO.P,U4,K7*%
X49750000Y-79250000D03*
%TO.P,U4,K8*%
X50250000Y-79250000D03*
%TO.P,U4,K9*%
X50750000Y-79250000D03*
%TO.P,U4,K10*%
X51250000Y-79250000D03*
%TO.P,U4,K12*%
X52250000Y-79250000D03*
%TO.P,U4,K13*%
X52750000Y-79250000D03*
%TO.P,U4,K14*%
X53250000Y-79250000D03*
%TO.P,U4,L1*%
X46750000Y-79750000D03*
%TO.P,U4,L2*%
X47250000Y-79750000D03*
%TO.P,U4,L3*%
X47750000Y-79750000D03*
%TO.P,U4,L12*%
X52250000Y-79750000D03*
%TO.P,U4,L13*%
X52750000Y-79750000D03*
%TO.P,U4,L14*%
X53250000Y-79750000D03*
%TO.P,U4,M1*%
X46750000Y-80250000D03*
%TO.P,U4,M2*%
X47250000Y-80250000D03*
%TO.P,U4,M3*%
X47750000Y-80250000D03*
%TO.P,U4,M4*%
X48250000Y-80250000D03*
%TO.P,U4,M5*%
X48750000Y-80250000D03*
%TO.P,U4,M6*%
X49250000Y-80250000D03*
%TO.P,U4,M7*%
X49750000Y-80250000D03*
%TO.P,U4,M8*%
X50250000Y-80250000D03*
%TO.P,U4,M9*%
X50750000Y-80250000D03*
%TO.P,U4,M10*%
X51250000Y-80250000D03*
%TO.P,U4,M11*%
X51750000Y-80250000D03*
%TO.P,U4,M12*%
X52250000Y-80250000D03*
%TO.P,U4,M13*%
X52750000Y-80250000D03*
%TO.P,U4,M14*%
X53250000Y-80250000D03*
%TO.P,U4,N1*%
X46750000Y-80750000D03*
%TO.P,U4,N2*%
X47250000Y-80750000D03*
%TO.P,U4,N3*%
X47750000Y-80750000D03*
%TO.P,U4,N4*%
X48250000Y-80750000D03*
%TO.P,U4,N5*%
X48750000Y-80750000D03*
%TO.P,U4,N6*%
X49250000Y-80750000D03*
%TO.P,U4,N7*%
X49750000Y-80750000D03*
%TO.P,U4,N8*%
X50250000Y-80750000D03*
%TO.P,U4,N9*%
X50750000Y-80750000D03*
%TO.P,U4,N10*%
X51250000Y-80750000D03*
%TO.P,U4,N11*%
X51750000Y-80750000D03*
%TO.P,U4,N12*%
X52250000Y-80750000D03*
%TO.P,U4,N13*%
X52750000Y-80750000D03*
%TO.P,U4,N14*%
X53250000Y-80750000D03*
%TO.P,U4,P1*%
X46750000Y-81250000D03*
%TO.P,U4,P2*%
X47250000Y-81250000D03*
%TO.P,U4,P3*%
X47750000Y-81250000D03*
%TO.P,U4,P4*%
X48250000Y-81250000D03*
%TO.P,U4,P5*%
X48750000Y-81250000D03*
%TO.P,U4,P6*%
X49250000Y-81250000D03*
%TO.P,U4,P7*%
X49750000Y-81250000D03*
%TO.P,U4,P8*%
X50250000Y-81250000D03*
%TO.P,U4,P9*%
X50750000Y-81250000D03*
%TO.P,U4,P10*%
X51250000Y-81250000D03*
%TO.P,U4,P11*%
X51750000Y-81250000D03*
%TO.P,U4,P12*%
X52250000Y-81250000D03*
%TO.P,U4,P13*%
X52750000Y-81250000D03*
%TO.P,U4,P14*%
X53250000Y-81250000D03*
%TD*%
D35*
%TO.P,U7,1*%
%TO.N,+1V0*%
X82562500Y-50200000D03*
%TO.P,U7,2*%
%TO.N,GND*%
X82562500Y-50600000D03*
%TO.P,U7,3*%
%TO.N,+1V8*%
X82562500Y-51000000D03*
%TO.P,U7,4*%
%TO.N,N/C*%
X82562500Y-51400000D03*
%TO.P,U7,5*%
%TO.N,+3V3*%
X82562500Y-51800000D03*
%TO.P,U7,6*%
%TO.N,ETH_XI*%
X82562500Y-52200000D03*
%TO.P,U7,7*%
%TO.N,ETH_XO*%
X82562500Y-52600000D03*
%TO.P,U7,8*%
%TO.N,SYS_RST_N*%
X82562500Y-53000000D03*
%TO.P,U7,9*%
%TO.N,ETH_PME_N*%
X82562500Y-53400000D03*
%TO.P,U7,10*%
%TO.N,ETH_LED0*%
X82562500Y-53800000D03*
D36*
%TO.P,U7,11*%
%TO.N,ETH_LED1*%
X83200000Y-54437500D03*
%TO.P,U7,12*%
%TO.N,ETH_LED2*%
X83600000Y-54437500D03*
%TO.P,U7,13*%
%TO.N,GMAC_MDC*%
X84000000Y-54437500D03*
%TO.P,U7,14*%
%TO.N,GMAC_MDIO*%
X84400000Y-54437500D03*
%TO.P,U7,15*%
%TO.N,GMAC_MDI0_P*%
X84800000Y-54437500D03*
%TO.P,U7,16*%
%TO.N,GMAC_MDI0_N*%
X85200000Y-54437500D03*
%TO.P,U7,17*%
%TO.N,GMAC_MDI1_P*%
X85600000Y-54437500D03*
%TO.P,U7,18*%
%TO.N,GMAC_MDI1_N*%
X86000000Y-54437500D03*
%TO.P,U7,19*%
%TO.N,MDI_BI_C_P*%
X86400000Y-54437500D03*
%TO.P,U7,20*%
%TO.N,MDI_BI_C_N*%
X86800000Y-54437500D03*
D35*
%TO.P,U7,21*%
%TO.N,MDI_BI_D_P*%
X87437500Y-53800000D03*
%TO.P,U7,22*%
%TO.N,MDI_BI_D_N*%
X87437500Y-53400000D03*
%TO.P,U7,23*%
%TO.N,GMAC_RXD0*%
X87437500Y-53000000D03*
%TO.P,U7,24*%
%TO.N,GMAC_RXD1*%
X87437500Y-52600000D03*
%TO.P,U7,25*%
%TO.N,GMAC_RXD2*%
X87437500Y-52200000D03*
%TO.P,U7,26*%
%TO.N,GMAC_RXD3*%
X87437500Y-51800000D03*
%TO.P,U7,27*%
%TO.N,GMAC_RX_CLK*%
X87437500Y-51400000D03*
%TO.P,U7,28*%
%TO.N,GMAC_RX_CTL*%
X87437500Y-51000000D03*
%TO.P,U7,29*%
%TO.N,GMAC_TXD0*%
X87437500Y-50600000D03*
%TO.P,U7,30*%
%TO.N,GMAC_TXD1*%
X87437500Y-50200000D03*
D36*
%TO.P,U7,31*%
%TO.N,GMAC_TXD2*%
X86800000Y-49562500D03*
%TO.P,U7,32*%
%TO.N,GMAC_TXD3*%
X86400000Y-49562500D03*
%TO.P,U7,33*%
%TO.N,GMAC_TX_CLK*%
X86000000Y-49562500D03*
%TO.P,U7,34*%
%TO.N,GMAC_TX_CTL*%
X85600000Y-49562500D03*
%TO.P,U7,35*%
%TO.N,N/C*%
X85200000Y-49562500D03*
%TO.P,U7,36*%
X84800000Y-49562500D03*
%TO.P,U7,37*%
X84400000Y-49562500D03*
%TO.P,U7,38*%
X84000000Y-49562500D03*
%TO.P,U7,39*%
X83600000Y-49562500D03*
%TO.P,U7,40*%
X83200000Y-49562500D03*
D37*
%TO.P,U7,41*%
X85000000Y-52000000D03*
%TD*%
D38*
%TO.P,U6,1*%
%TO.N,AMP_PVDD_A*%
X70400000Y-28750000D03*
%TO.P,U6,2*%
%TO.N,AMP_PVDD_B*%
X70400000Y-29400000D03*
%TO.P,U6,3*%
%TO.N,AMP_PVDD_C*%
X70400000Y-30050000D03*
%TO.P,U6,4*%
%TO.N,AMP_PVDD_D*%
X70400000Y-30700000D03*
%TO.P,U6,5*%
%TO.N,+12V*%
X70400000Y-31350000D03*
%TO.P,U6,6*%
%TO.N,+3V3*%
X70400000Y-32000000D03*
%TO.P,U6,7*%
%TO.N,+1V8*%
X70400000Y-32650000D03*
%TO.P,U6,8*%
%TO.N,GND*%
X70400000Y-33300000D03*
%TO.P,U6,9*%
X70400000Y-33950000D03*
%TO.P,U6,10*%
%TO.N,AMP_INPUT_A_P*%
X70400000Y-34600000D03*
%TO.P,U6,11*%
%TO.N,AMP_INPUT_A_N*%
X70400000Y-35250000D03*
D39*
%TO.P,U6,12*%
%TO.N,AMP_INPUT_B_P*%
X71750000Y-36600000D03*
%TO.P,U6,13*%
%TO.N,AMP_INPUT_B_N*%
X72400000Y-36600000D03*
%TO.P,U6,14*%
%TO.N,AMP_INPUT_C_P*%
X73050000Y-36600000D03*
%TO.P,U6,15*%
%TO.N,AMP_INPUT_C_N*%
X73700000Y-36600000D03*
%TO.P,U6,16*%
%TO.N,AMP_INPUT_D_P*%
X74350000Y-36600000D03*
%TO.P,U6,17*%
%TO.N,AMP_INPUT_D_N*%
X75000000Y-36600000D03*
%TO.P,U6,18*%
%TO.N,AMP_RESET_AB*%
X75650000Y-36600000D03*
%TO.P,U6,19*%
%TO.N,AMP_RESET_CD*%
X76300000Y-36600000D03*
%TO.P,U6,20*%
%TO.N,AMP_MODE_M1*%
X76950000Y-36600000D03*
%TO.P,U6,21*%
%TO.N,AMP_MODE_M2*%
X77600000Y-36600000D03*
%TO.P,U6,22*%
%TO.N,AMP_MODE_M3*%
X78250000Y-36600000D03*
D38*
%TO.P,U6,23*%
%TO.N,AMP_FAULT_N*%
X79600000Y-35250000D03*
%TO.P,U6,24*%
%TO.N,AMP_CLIP_OTW_N*%
X79600000Y-34600000D03*
%TO.P,U6,25*%
%TO.N,AMP_OUT_A_P*%
X79600000Y-33950000D03*
%TO.P,U6,26*%
%TO.N,AMP_OUT_A_N*%
X79600000Y-33300000D03*
%TO.P,U6,27*%
%TO.N,AMP_OUT_B_P*%
X79600000Y-32650000D03*
%TO.P,U6,28*%
%TO.N,AMP_OUT_B_N*%
X79600000Y-32000000D03*
%TO.P,U6,29*%
%TO.N,AMP_OUT_C_P*%
X79600000Y-31350000D03*
%TO.P,U6,30*%
%TO.N,AMP_OUT_C_N*%
X79600000Y-30700000D03*
%TO.P,U6,31*%
%TO.N,AMP_OUT_D_P*%
X79600000Y-30050000D03*
%TO.P,U6,32*%
%TO.N,AMP_OUT_D_N*%
X79600000Y-29400000D03*
%TO.P,U6,33*%
%TO.N,AMP_BST_A*%
X79600000Y-28750000D03*
D39*
%TO.P,U6,34*%
%TO.N,AMP_BST_B*%
X78250000Y-27400000D03*
%TO.P,U6,35*%
%TO.N,AMP_BST_C*%
X77600000Y-27400000D03*
%TO.P,U6,36*%
%TO.N,AMP_BST_D*%
X76950000Y-27400000D03*
%TO.P,U6,37*%
%TO.N,AMP_GVDD_A_REG*%
X76300000Y-27400000D03*
%TO.P,U6,38*%
%TO.N,AMP_GVDD_B_REG*%
X75650000Y-27400000D03*
%TO.P,U6,39*%
%TO.N,AMP_GVDD_C_REG*%
X75000000Y-27400000D03*
%TO.P,U6,40*%
%TO.N,AMP_GVDD_D_REG*%
X74350000Y-27400000D03*
%TO.P,U6,41*%
%TO.N,N/C*%
X73700000Y-27400000D03*
%TO.P,U6,42*%
X73050000Y-27400000D03*
%TO.P,U6,43*%
X72400000Y-27400000D03*
%TO.P,U6,44*%
X71750000Y-27400000D03*
D40*
%TO.P,U6,45*%
X75000000Y-32000000D03*
%TD*%
D41*
%TO.P,C8,1*%
%TO.N,N/C*%
X64734524Y-39143500D03*
%TO.P,C8,2*%
X66284524Y-39143500D03*
%TD*%
%TO.P,C9,1*%
%TO.N,N/C*%
X64225000Y-44000000D03*
%TO.P,C9,2*%
X65775000Y-44000000D03*
%TD*%
%TO.P,C12,1*%
%TO.N,N/C*%
X39225000Y-32573500D03*
%TO.P,C12,2*%
X40775000Y-32573500D03*
%TD*%
%TO.P,C10,1*%
%TO.N,N/C*%
X64734524Y-55143500D03*
%TO.P,C10,2*%
X66284524Y-55143500D03*
%TD*%
%TO.P,C11,1*%
%TO.N,N/C*%
X64225000Y-60000000D03*
%TO.P,C11,2*%
X65775000Y-60000000D03*
%TD*%
%TO.P,C13,1*%
%TO.N,N/C*%
X59225000Y-32573500D03*
%TO.P,C13,2*%
X60775000Y-32573500D03*
%TD*%
%TO.P,C14,1*%
%TO.N,N/C*%
X39225000Y-68000000D03*
%TO.P,C14,2*%
X40775000Y-68000000D03*
%TD*%
%TO.P,C1,1*%
%TO.N,N/C*%
X19331583Y-39143500D03*
%TO.P,C1,2*%
X20881583Y-39143500D03*
%TD*%
%TO.P,C2,1*%
%TO.N,N/C*%
X8215476Y-48603250D03*
%TO.P,C2,2*%
X9765476Y-48603250D03*
%TD*%
%TO.P,C3,1*%
%TO.N,N/C*%
X8691666Y-55143500D03*
%TO.P,C3,2*%
X10241666Y-55143500D03*
%TD*%
%TO.P,C4,1*%
%TO.N,N/C*%
X12225000Y-60000000D03*
%TO.P,C4,2*%
X13775000Y-60000000D03*
%TD*%
%TO.P,C5,1*%
%TO.N,N/C*%
X29225000Y-39143500D03*
%TO.P,C5,2*%
X30775000Y-39143500D03*
%TD*%
%TO.P,C6,1*%
%TO.N,N/C*%
X29225000Y-44000000D03*
%TO.P,C6,2*%
X30775000Y-44000000D03*
%TD*%
%TO.P,C7,1*%
%TO.N,N/C*%
X29225000Y-60000000D03*
%TO.P,C7,2*%
X30775000Y-60000000D03*
%TD*%
D42*
%TO.P,U5,1*%
%TO.N,+3V3*%
X82650000Y-13250000D03*
%TO.P,U5,2*%
X82650000Y-13750000D03*
%TO.P,U5,3*%
X82650000Y-14250000D03*
%TO.P,U5,4*%
%TO.N,GND*%
X82650000Y-14750000D03*
%TO.P,U5,5*%
X82650000Y-15250000D03*
%TO.P,U5,6*%
%TO.N,DAC_FILT+*%
X82650000Y-15750000D03*
%TO.P,U5,7*%
%TO.N,DAC_VQ*%
X82650000Y-16250000D03*
%TO.P,U5,8*%
%TO.N,I2S0_MCLK*%
X82650000Y-16750000D03*
D43*
%TO.P,U5,9*%
%TO.N,I2S0_BCLK*%
X83250000Y-17350000D03*
%TO.P,U5,10*%
%TO.N,I2S0_LRCK*%
X83750000Y-17350000D03*
%TO.P,U5,11*%
%TO.N,I2S0_SDO*%
X84250000Y-17350000D03*
%TO.P,U5,12*%
%TO.N,SYS_RST_N*%
X84750000Y-17350000D03*
%TO.P,U5,13*%
%TO.N,DAC_MUTE_N*%
X85250000Y-17350000D03*
%TO.P,U5,14*%
%TO.N,DAC_L_P*%
X85750000Y-17350000D03*
%TO.P,U5,15*%
%TO.N,DAC_L_N*%
X86250000Y-17350000D03*
%TO.P,U5,16*%
%TO.N,DAC_R_P*%
X86750000Y-17350000D03*
D42*
%TO.P,U5,17*%
%TO.N,DAC_R_N*%
X87350000Y-16750000D03*
%TO.P,U5,18*%
%TO.N,DAC_VREF*%
X87350000Y-16250000D03*
%TO.P,U5,19*%
%TO.N,DAC_FILT-*%
X87350000Y-15750000D03*
%TO.P,U5,20*%
%TO.N,I2C0_SCL*%
X87350000Y-15250000D03*
%TO.P,U5,21*%
%TO.N,I2C0_SDA*%
X87350000Y-14750000D03*
%TO.P,U5,22*%
%TO.N,DAC_AD0*%
X87350000Y-14250000D03*
%TO.P,U5,23*%
%TO.N,DAC_AD1*%
X87350000Y-13750000D03*
%TO.P,U5,24*%
%TO.N,N/C*%
X87350000Y-13250000D03*
D43*
%TO.P,U5,25*%
X86750000Y-12650000D03*
%TO.P,U5,26*%
X86250000Y-12650000D03*
%TO.P,U5,27*%
X85750000Y-12650000D03*
%TO.P,U5,28*%
X85250000Y-12650000D03*
%TO.P,U5,29*%
X84750000Y-12650000D03*
%TO.P,U5,30*%
X84250000Y-12650000D03*
%TO.P,U5,31*%
X83750000Y-12650000D03*
%TO.P,U5,32*%
X83250000Y-12650000D03*
D44*
%TO.P,U5,33*%
X85000000Y-15000000D03*
%TD*%
D45*
%TO.P,U8,1*%
%TO.N,+3V3*%
X75825000Y-85200000D03*
%TO.P,U8,2*%
%TO.N,N/C*%
X75825000Y-86000000D03*
%TO.P,U8,3*%
%TO.N,SYS_RST_N*%
X75825000Y-86800000D03*
%TO.P,U8,4*%
%TO.N,GND*%
X75825000Y-87600000D03*
%TO.P,U8,5*%
%TO.N,+3V3*%
X75825000Y-88400000D03*
%TO.P,U8,6*%
%TO.N,GND*%
X75825000Y-89200000D03*
%TO.P,U8,7*%
%TO.N,CC1*%
X75825000Y-90000000D03*
%TO.P,U8,8*%
%TO.N,CC2*%
X75825000Y-90800000D03*
D46*
%TO.P,U8,9*%
%TO.N,STM32_UART_TX*%
X77200000Y-92175000D03*
%TO.P,U8,10*%
%TO.N,STM32_UART_RX*%
X78000000Y-92175000D03*
%TO.P,U8,11*%
%TO.N,SPI1_CS_N*%
X78800000Y-92175000D03*
%TO.P,U8,12*%
%TO.N,SPI1_SCK*%
X79600000Y-92175000D03*
%TO.P,U8,13*%
%TO.N,SPI1_MISO*%
X80400000Y-92175000D03*
%TO.P,U8,14*%
%TO.N,SPI1_MOSI*%
X81200000Y-92175000D03*
%TO.P,U8,15*%
%TO.N,VBUS_EN*%
X82000000Y-92175000D03*
%TO.P,U8,16*%
%TO.N,FAULT_N*%
X82800000Y-92175000D03*
D45*
%TO.P,U8,17*%
%TO.N,N/C*%
X84175000Y-90800000D03*
%TO.P,U8,18*%
X84175000Y-90000000D03*
%TO.P,U8,19*%
%TO.N,I2C1_SCL*%
X84175000Y-89200000D03*
%TO.P,U8,20*%
%TO.N,I2C1_SDA*%
X84175000Y-88400000D03*
%TO.P,U8,21*%
%TO.N,STM32_SWDIO*%
X84175000Y-87600000D03*
%TO.P,U8,22*%
%TO.N,STM32_SWCLK*%
X84175000Y-86800000D03*
%TO.P,U8,23*%
%TO.N,N/C*%
X84175000Y-86000000D03*
%TO.P,U8,24*%
X84175000Y-85200000D03*
D46*
%TO.P,U8,25*%
X82800000Y-83825000D03*
%TO.P,U8,26*%
X82000000Y-83825000D03*
%TO.P,U8,27*%
X81200000Y-83825000D03*
%TO.P,U8,28*%
%TO.N,BOOT0*%
X80400000Y-83825000D03*
%TO.P,U8,29*%
%TO.N,N/C*%
X79600000Y-83825000D03*
%TO.P,U8,30*%
X78800000Y-83825000D03*
%TO.P,U8,31*%
X78000000Y-83825000D03*
%TO.P,U8,32*%
X77200000Y-83825000D03*
%TD*%
D47*
%TO.P,U9,1*%
%TO.N,+3V3*%
X89650000Y-76200000D03*
%TO.P,U9,2*%
X89650000Y-76600000D03*
%TO.P,U9,3*%
%TO.N,VBUS_IN_MON*%
X89650000Y-77000000D03*
%TO.P,U9,4*%
%TO.N,+5V*%
X89650000Y-77400000D03*
%TO.P,U9,5*%
X89650000Y-77800000D03*
%TO.P,U9,6*%
%TO.N,CCG_VCONN_IN*%
X89650000Y-78200000D03*
%TO.P,U9,7*%
%TO.N,GND*%
X89650000Y-78600000D03*
%TO.P,U9,8*%
X89650000Y-79000000D03*
%TO.P,U9,9*%
%TO.N,SYS_RST_N*%
X89650000Y-79400000D03*
%TO.P,U9,10*%
%TO.N,CCG_SWD_IO*%
X89650000Y-79800000D03*
D48*
%TO.P,U9,11*%
%TO.N,CCG_SWD_CLK*%
X90200000Y-80350000D03*
%TO.P,U9,12*%
%TO.N,I2C0_SCL*%
X90600000Y-80350000D03*
%TO.P,U9,13*%
%TO.N,I2C0_SDA*%
X91000000Y-80350000D03*
%TO.P,U9,14*%
%TO.N,CCG_P1_0_GPIO*%
X91400000Y-80350000D03*
%TO.P,U9,15*%
%TO.N,CCG_P1_1_GPIO*%
X91800000Y-80350000D03*
%TO.P,U9,16*%
%TO.N,CC1*%
X92200000Y-80350000D03*
%TO.P,U9,17*%
%TO.N,CC2*%
X92600000Y-80350000D03*
%TO.P,U9,18*%
%TO.N,USBC_DP*%
X93000000Y-80350000D03*
%TO.P,U9,19*%
%TO.N,USBC_DN*%
X93400000Y-80350000D03*
%TO.P,U9,20*%
%TO.N,CCG_VBUS_EN_N*%
X93800000Y-80350000D03*
D47*
%TO.P,U9,21*%
%TO.N,CCG_VBUS_DIS_N*%
X94350000Y-79800000D03*
%TO.P,U9,22*%
%TO.N,VBUS_MON*%
X94350000Y-79400000D03*
%TO.P,U9,23*%
%TO.N,CCG_VCONN_1_EN*%
X94350000Y-79000000D03*
%TO.P,U9,24*%
%TO.N,CCG_VCONN_2_EN*%
X94350000Y-78600000D03*
%TO.P,U9,25*%
%TO.N,CCG_OCP_ADJ*%
X94350000Y-78200000D03*
%TO.P,U9,26*%
%TO.N,CCG_INT_N*%
X94350000Y-77800000D03*
%TO.P,U9,27*%
%TO.N,CCG_STAT_LED*%
X94350000Y-77400000D03*
%TO.P,U9,28*%
%TO.N,CCG_SR_FB*%
X94350000Y-77000000D03*
%TO.P,U9,29*%
%TO.N,CCG_SR_GATE*%
X94350000Y-76600000D03*
%TO.P,U9,30*%
%TO.N,N/C*%
X94350000Y-76200000D03*
D48*
%TO.P,U9,31*%
X93800000Y-75650000D03*
%TO.P,U9,32*%
X93400000Y-75650000D03*
%TO.P,U9,33*%
X93000000Y-75650000D03*
%TO.P,U9,34*%
X92600000Y-75650000D03*
%TO.P,U9,35*%
X92200000Y-75650000D03*
%TO.P,U9,36*%
X91800000Y-75650000D03*
%TO.P,U9,37*%
X91400000Y-75650000D03*
%TO.P,U9,38*%
X91000000Y-75650000D03*
%TO.P,U9,39*%
X90600000Y-75650000D03*
%TO.P,U9,40*%
X90200000Y-75650000D03*
D44*
%TO.P,U9,41*%
X92000000Y-78000000D03*
%TD*%
D49*
%TO.P,M1,1*%
%TO.N,GND*%
X3500000Y-80000000D03*
%TO.P,M1,2*%
%TO.N,USB2_DP*%
X4000000Y-80000000D03*
%TO.P,M1,3*%
%TO.N,USB2_DN*%
X4500000Y-80000000D03*
%TO.P,M1,4*%
%TO.N,GND*%
X5000000Y-80000000D03*
%TO.P,M1,5*%
%TO.N,SDIO_CLK*%
X5500000Y-80000000D03*
%TO.P,M1,6*%
%TO.N,SDIO_CMD*%
X6000000Y-80000000D03*
%TO.P,M1,7*%
%TO.N,SDIO_DAT0*%
X6500000Y-80000000D03*
%TO.P,M1,8*%
%TO.N,SDIO_DAT1*%
X7000000Y-80000000D03*
%TO.P,M1,9*%
%TO.N,SDIO_DAT2*%
X7500000Y-80000000D03*
%TO.P,M1,10*%
%TO.N,SDIO_DAT3*%
X8000000Y-80000000D03*
%TO.P,M1,11*%
%TO.N,PCIE_PERST_N*%
X8500000Y-80000000D03*
%TO.P,M1,12*%
%TO.N,WIFI_DISABLE1_N*%
X9000000Y-80000000D03*
%TO.P,M1,13*%
%TO.N,WIFI_DISABLE2_N*%
X9500000Y-80000000D03*
%TO.P,M1,14*%
%TO.N,PCIE_CLKREQ_N*%
X10000000Y-80000000D03*
%TO.P,M1,15*%
%TO.N,PCIE_WAKE_N*%
X10500000Y-80000000D03*
%TO.P,M1,16*%
%TO.N,PCIE_REFCLK_P*%
X11000000Y-80000000D03*
%TO.P,M1,17*%
%TO.N,PCIE_REFCLK_N*%
X11500000Y-80000000D03*
%TO.P,M1,18*%
%TO.N,PCIE_RX_N*%
X12000000Y-80000000D03*
%TO.P,M1,19*%
%TO.N,PCIE_RX_P*%
X12500000Y-80000000D03*
%TO.P,M1,20*%
%TO.N,PCIE_TX_N*%
X13000000Y-80000000D03*
%TO.P,M1,21*%
%TO.N,PCIE_TX_P*%
X13500000Y-80000000D03*
%TO.P,M1,22*%
%TO.N,UART_WAKE*%
X14000000Y-80000000D03*
%TO.P,M1,23*%
%TO.N,BT_UART_TXD*%
X14500000Y-80000000D03*
%TO.P,M1,24*%
%TO.N,BT_UART_RXD*%
X15000000Y-80000000D03*
%TO.P,M1,25*%
%TO.N,BT_UART_RTS*%
X15500000Y-80000000D03*
%TO.P,M1,26*%
%TO.N,BT_UART_CTS*%
X16000000Y-80000000D03*
%TO.P,M1,27*%
%TO.N,BT_PCM_CLK*%
X16500000Y-80000000D03*
%TO.P,M1,28*%
%TO.N,BT_PCM_SYNC*%
X17000000Y-80000000D03*
%TO.P,M1,29*%
%TO.N,BT_PCM_IN*%
X17500000Y-80000000D03*
%TO.P,M1,30*%
%TO.N,BT_PCM_OUT*%
X18000000Y-80000000D03*
%TO.P,M1,31*%
%TO.N,BT_EN*%
X18500000Y-80000000D03*
%TO.P,M1,32*%
%TO.N,WIFI_LED_N*%
X19000000Y-80000000D03*
%TO.P,M1,33*%
%TO.N,COEX_TXD*%
X19500000Y-80000000D03*
%TO.P,M1,34*%
%TO.N,COEX_RXD*%
X20000000Y-80000000D03*
%TO.P,M1,35*%
%TO.N,GND*%
X20500000Y-80000000D03*
%TO.P,M1,36*%
%TO.N,+3V3*%
X21000000Y-80000000D03*
%TO.P,M1,37*%
%TO.N,+3V3_AUX*%
X21500000Y-80000000D03*
%TO.P,M1,38*%
%TO.N,ANT1*%
X22000000Y-80000000D03*
%TO.P,M1,39*%
%TO.N,ANT2*%
X22500000Y-80000000D03*
%TO.P,M1,40*%
%TO.N,N/C*%
X23000000Y-80000000D03*
%TO.P,M1,41*%
X23500000Y-80000000D03*
%TO.P,M1,42*%
X24000000Y-80000000D03*
%TO.P,M1,43*%
X24500000Y-80000000D03*
%TO.P,M1,44*%
X25000000Y-80000000D03*
%TO.P,M1,45*%
X25500000Y-80000000D03*
%TO.P,M1,46*%
X26000000Y-80000000D03*
%TO.P,M1,47*%
X26500000Y-80000000D03*
%TO.P,M1,48*%
X27000000Y-80000000D03*
%TO.P,M1,49*%
X27500000Y-80000000D03*
%TO.P,M1,50*%
X28000000Y-80000000D03*
%TO.P,M1,51*%
X28500000Y-80000000D03*
%TO.P,M1,52*%
X29000000Y-80000000D03*
%TO.P,M1,53*%
X29500000Y-80000000D03*
%TO.P,M1,54*%
X30000000Y-80000000D03*
%TO.P,M1,55*%
X30500000Y-80000000D03*
%TO.P,M1,56*%
X31000000Y-80000000D03*
%TO.P,M1,57*%
X31500000Y-80000000D03*
%TO.P,M1,58*%
X32000000Y-80000000D03*
%TO.P,M1,59*%
X32500000Y-80000000D03*
%TO.P,M1,60*%
X33000000Y-80000000D03*
%TO.P,M1,61*%
X33500000Y-80000000D03*
%TO.P,M1,62*%
X34000000Y-80000000D03*
%TO.P,M1,63*%
X34500000Y-80000000D03*
%TO.P,M1,64*%
X35000000Y-80000000D03*
%TO.P,M1,65*%
X35500000Y-80000000D03*
%TO.P,M1,66*%
X36000000Y-80000000D03*
%TO.P,M1,67*%
X36500000Y-80000000D03*
%TO.P,M1,68*%
X37000000Y-80000000D03*
%TO.P,M1,69*%
X37500000Y-80000000D03*
%TO.P,M1,70*%
X38000000Y-80000000D03*
%TO.P,M1,71*%
X38500000Y-80000000D03*
%TO.P,M1,72*%
X39000000Y-80000000D03*
%TO.P,M1,73*%
X39500000Y-80000000D03*
%TO.P,M1,74*%
X40000000Y-80000000D03*
%TO.P,M1,75*%
X40500000Y-80000000D03*
%TD*%
M02*
