%TF.GenerationSoftware,KiCad,Pcbnew,10.0.5*%
%TF.CreationDate,2026-08-03T20:26:13-07:00*%
%TF.ProjectId,palpod-audio-amp-routed,70616c70-6f64-42d6-9175-64696f2d616d,A0*%
%TF.SameCoordinates,Original*%
%TF.FileFunction,Other,Comment*%
%FSLAX46Y46*%
G04 Gerber Fmt 4.6, Leading zero omitted, Abs format (unit mm)*
G04 Created by KiCad (PCBNEW 10.0.5) date 2026-08-03 20:26:13*
%MOMM*%
%LPD*%
G01*
G04 APERTURE LIST*
%ADD10C,0.250000*%
%ADD11C,0.300000*%
G04 APERTURE END LIST*
D10*
X10469234Y-194715000D02*
X10697806Y-194791190D01*
X10697806Y-194791190D02*
X11078758Y-194791190D01*
X11078758Y-194791190D02*
X11231139Y-194715000D01*
X11231139Y-194715000D02*
X11307330Y-194638809D01*
X11307330Y-194638809D02*
X11383520Y-194486428D01*
X11383520Y-194486428D02*
X11383520Y-194334047D01*
X11383520Y-194334047D02*
X11307330Y-194181666D01*
X11307330Y-194181666D02*
X11231139Y-194105476D01*
X11231139Y-194105476D02*
X11078758Y-194029285D01*
X11078758Y-194029285D02*
X10773996Y-193953095D01*
X10773996Y-193953095D02*
X10621615Y-193876904D01*
X10621615Y-193876904D02*
X10545425Y-193800714D01*
X10545425Y-193800714D02*
X10469234Y-193648333D01*
X10469234Y-193648333D02*
X10469234Y-193495952D01*
X10469234Y-193495952D02*
X10545425Y-193343571D01*
X10545425Y-193343571D02*
X10621615Y-193267380D01*
X10621615Y-193267380D02*
X10773996Y-193191190D01*
X10773996Y-193191190D02*
X11154949Y-193191190D01*
X11154949Y-193191190D02*
X11383520Y-193267380D01*
X11840663Y-193724523D02*
X12450187Y-193724523D01*
X12069235Y-193191190D02*
X12069235Y-194562619D01*
X12069235Y-194562619D02*
X12145425Y-194715000D01*
X12145425Y-194715000D02*
X12297806Y-194791190D01*
X12297806Y-194791190D02*
X12450187Y-194791190D01*
X13669235Y-194791190D02*
X13669235Y-193953095D01*
X13669235Y-193953095D02*
X13593045Y-193800714D01*
X13593045Y-193800714D02*
X13440664Y-193724523D01*
X13440664Y-193724523D02*
X13135902Y-193724523D01*
X13135902Y-193724523D02*
X12983521Y-193800714D01*
X13669235Y-194715000D02*
X13516854Y-194791190D01*
X13516854Y-194791190D02*
X13135902Y-194791190D01*
X13135902Y-194791190D02*
X12983521Y-194715000D01*
X12983521Y-194715000D02*
X12907330Y-194562619D01*
X12907330Y-194562619D02*
X12907330Y-194410238D01*
X12907330Y-194410238D02*
X12983521Y-194257857D01*
X12983521Y-194257857D02*
X13135902Y-194181666D01*
X13135902Y-194181666D02*
X13516854Y-194181666D01*
X13516854Y-194181666D02*
X13669235Y-194105476D01*
X14431140Y-194791190D02*
X14431140Y-193724523D01*
X14431140Y-194029285D02*
X14507330Y-193876904D01*
X14507330Y-193876904D02*
X14583521Y-193800714D01*
X14583521Y-193800714D02*
X14735902Y-193724523D01*
X14735902Y-193724523D02*
X14888283Y-193724523D01*
X17326378Y-193724523D02*
X17326378Y-195019761D01*
X17326378Y-195019761D02*
X17250188Y-195172142D01*
X17250188Y-195172142D02*
X17173997Y-195248333D01*
X17173997Y-195248333D02*
X17021616Y-195324523D01*
X17021616Y-195324523D02*
X16793045Y-195324523D01*
X16793045Y-195324523D02*
X16640664Y-195248333D01*
X17326378Y-194715000D02*
X17173997Y-194791190D01*
X17173997Y-194791190D02*
X16869235Y-194791190D01*
X16869235Y-194791190D02*
X16716854Y-194715000D01*
X16716854Y-194715000D02*
X16640664Y-194638809D01*
X16640664Y-194638809D02*
X16564473Y-194486428D01*
X16564473Y-194486428D02*
X16564473Y-194029285D01*
X16564473Y-194029285D02*
X16640664Y-193876904D01*
X16640664Y-193876904D02*
X16716854Y-193800714D01*
X16716854Y-193800714D02*
X16869235Y-193724523D01*
X16869235Y-193724523D02*
X17173997Y-193724523D01*
X17173997Y-193724523D02*
X17326378Y-193800714D01*
X18088283Y-194791190D02*
X18088283Y-193724523D01*
X18088283Y-194029285D02*
X18164473Y-193876904D01*
X18164473Y-193876904D02*
X18240664Y-193800714D01*
X18240664Y-193800714D02*
X18393045Y-193724523D01*
X18393045Y-193724523D02*
X18545426Y-193724523D01*
X19307330Y-194791190D02*
X19154949Y-194715000D01*
X19154949Y-194715000D02*
X19078759Y-194638809D01*
X19078759Y-194638809D02*
X19002568Y-194486428D01*
X19002568Y-194486428D02*
X19002568Y-194029285D01*
X19002568Y-194029285D02*
X19078759Y-193876904D01*
X19078759Y-193876904D02*
X19154949Y-193800714D01*
X19154949Y-193800714D02*
X19307330Y-193724523D01*
X19307330Y-193724523D02*
X19535902Y-193724523D01*
X19535902Y-193724523D02*
X19688283Y-193800714D01*
X19688283Y-193800714D02*
X19764473Y-193876904D01*
X19764473Y-193876904D02*
X19840664Y-194029285D01*
X19840664Y-194029285D02*
X19840664Y-194486428D01*
X19840664Y-194486428D02*
X19764473Y-194638809D01*
X19764473Y-194638809D02*
X19688283Y-194715000D01*
X19688283Y-194715000D02*
X19535902Y-194791190D01*
X19535902Y-194791190D02*
X19307330Y-194791190D01*
X21212092Y-193724523D02*
X21212092Y-194791190D01*
X20526378Y-193724523D02*
X20526378Y-194562619D01*
X20526378Y-194562619D02*
X20602568Y-194715000D01*
X20602568Y-194715000D02*
X20754949Y-194791190D01*
X20754949Y-194791190D02*
X20983521Y-194791190D01*
X20983521Y-194791190D02*
X21135902Y-194715000D01*
X21135902Y-194715000D02*
X21212092Y-194638809D01*
X21973997Y-193724523D02*
X21973997Y-194791190D01*
X21973997Y-193876904D02*
X22050187Y-193800714D01*
X22050187Y-193800714D02*
X22202568Y-193724523D01*
X22202568Y-193724523D02*
X22431140Y-193724523D01*
X22431140Y-193724523D02*
X22583521Y-193800714D01*
X22583521Y-193800714D02*
X22659711Y-193953095D01*
X22659711Y-193953095D02*
X22659711Y-194791190D01*
X24107330Y-194791190D02*
X24107330Y-193191190D01*
X24107330Y-194715000D02*
X23954949Y-194791190D01*
X23954949Y-194791190D02*
X23650187Y-194791190D01*
X23650187Y-194791190D02*
X23497806Y-194715000D01*
X23497806Y-194715000D02*
X23421616Y-194638809D01*
X23421616Y-194638809D02*
X23345425Y-194486428D01*
X23345425Y-194486428D02*
X23345425Y-194029285D01*
X23345425Y-194029285D02*
X23421616Y-193876904D01*
X23421616Y-193876904D02*
X23497806Y-193800714D01*
X23497806Y-193800714D02*
X23650187Y-193724523D01*
X23650187Y-193724523D02*
X23954949Y-193724523D01*
X23954949Y-193724523D02*
X24107330Y-193800714D01*
X26088283Y-193724523D02*
X26088283Y-195324523D01*
X26088283Y-193800714D02*
X26240664Y-193724523D01*
X26240664Y-193724523D02*
X26545426Y-193724523D01*
X26545426Y-193724523D02*
X26697807Y-193800714D01*
X26697807Y-193800714D02*
X26773997Y-193876904D01*
X26773997Y-193876904D02*
X26850188Y-194029285D01*
X26850188Y-194029285D02*
X26850188Y-194486428D01*
X26850188Y-194486428D02*
X26773997Y-194638809D01*
X26773997Y-194638809D02*
X26697807Y-194715000D01*
X26697807Y-194715000D02*
X26545426Y-194791190D01*
X26545426Y-194791190D02*
X26240664Y-194791190D01*
X26240664Y-194791190D02*
X26088283Y-194715000D01*
X27764473Y-194791190D02*
X27612092Y-194715000D01*
X27612092Y-194715000D02*
X27535902Y-194638809D01*
X27535902Y-194638809D02*
X27459711Y-194486428D01*
X27459711Y-194486428D02*
X27459711Y-194029285D01*
X27459711Y-194029285D02*
X27535902Y-193876904D01*
X27535902Y-193876904D02*
X27612092Y-193800714D01*
X27612092Y-193800714D02*
X27764473Y-193724523D01*
X27764473Y-193724523D02*
X27993045Y-193724523D01*
X27993045Y-193724523D02*
X28145426Y-193800714D01*
X28145426Y-193800714D02*
X28221616Y-193876904D01*
X28221616Y-193876904D02*
X28297807Y-194029285D01*
X28297807Y-194029285D02*
X28297807Y-194486428D01*
X28297807Y-194486428D02*
X28221616Y-194638809D01*
X28221616Y-194638809D02*
X28145426Y-194715000D01*
X28145426Y-194715000D02*
X27993045Y-194791190D01*
X27993045Y-194791190D02*
X27764473Y-194791190D01*
X28983521Y-194791190D02*
X28983521Y-193724523D01*
X28983521Y-193191190D02*
X28907330Y-193267380D01*
X28907330Y-193267380D02*
X28983521Y-193343571D01*
X28983521Y-193343571D02*
X29059711Y-193267380D01*
X29059711Y-193267380D02*
X28983521Y-193191190D01*
X28983521Y-193191190D02*
X28983521Y-193343571D01*
X29745426Y-193724523D02*
X29745426Y-194791190D01*
X29745426Y-193876904D02*
X29821616Y-193800714D01*
X29821616Y-193800714D02*
X29973997Y-193724523D01*
X29973997Y-193724523D02*
X30202569Y-193724523D01*
X30202569Y-193724523D02*
X30354950Y-193800714D01*
X30354950Y-193800714D02*
X30431140Y-193953095D01*
X30431140Y-193953095D02*
X30431140Y-194791190D01*
X30964473Y-193724523D02*
X31573997Y-193724523D01*
X31193045Y-193191190D02*
X31193045Y-194562619D01*
X31193045Y-194562619D02*
X31269235Y-194715000D01*
X31269235Y-194715000D02*
X31421616Y-194791190D01*
X31421616Y-194791190D02*
X31573997Y-194791190D01*
X33326379Y-194181666D02*
X34545427Y-194181666D01*
X36450188Y-194715000D02*
X36602569Y-194791190D01*
X36602569Y-194791190D02*
X36907331Y-194791190D01*
X36907331Y-194791190D02*
X37059712Y-194715000D01*
X37059712Y-194715000D02*
X37135903Y-194562619D01*
X37135903Y-194562619D02*
X37135903Y-194486428D01*
X37135903Y-194486428D02*
X37059712Y-194334047D01*
X37059712Y-194334047D02*
X36907331Y-194257857D01*
X36907331Y-194257857D02*
X36678760Y-194257857D01*
X36678760Y-194257857D02*
X36526379Y-194181666D01*
X36526379Y-194181666D02*
X36450188Y-194029285D01*
X36450188Y-194029285D02*
X36450188Y-193953095D01*
X36450188Y-193953095D02*
X36526379Y-193800714D01*
X36526379Y-193800714D02*
X36678760Y-193724523D01*
X36678760Y-193724523D02*
X36907331Y-193724523D01*
X36907331Y-193724523D02*
X37059712Y-193800714D01*
X37821617Y-194791190D02*
X37821617Y-193724523D01*
X37821617Y-193191190D02*
X37745426Y-193267380D01*
X37745426Y-193267380D02*
X37821617Y-193343571D01*
X37821617Y-193343571D02*
X37897807Y-193267380D01*
X37897807Y-193267380D02*
X37821617Y-193191190D01*
X37821617Y-193191190D02*
X37821617Y-193343571D01*
X38583522Y-193724523D02*
X38583522Y-194791190D01*
X38583522Y-193876904D02*
X38659712Y-193800714D01*
X38659712Y-193800714D02*
X38812093Y-193724523D01*
X38812093Y-193724523D02*
X39040665Y-193724523D01*
X39040665Y-193724523D02*
X39193046Y-193800714D01*
X39193046Y-193800714D02*
X39269236Y-193953095D01*
X39269236Y-193953095D02*
X39269236Y-194791190D01*
X40716855Y-193724523D02*
X40716855Y-195019761D01*
X40716855Y-195019761D02*
X40640665Y-195172142D01*
X40640665Y-195172142D02*
X40564474Y-195248333D01*
X40564474Y-195248333D02*
X40412093Y-195324523D01*
X40412093Y-195324523D02*
X40183522Y-195324523D01*
X40183522Y-195324523D02*
X40031141Y-195248333D01*
X40716855Y-194715000D02*
X40564474Y-194791190D01*
X40564474Y-194791190D02*
X40259712Y-194791190D01*
X40259712Y-194791190D02*
X40107331Y-194715000D01*
X40107331Y-194715000D02*
X40031141Y-194638809D01*
X40031141Y-194638809D02*
X39954950Y-194486428D01*
X39954950Y-194486428D02*
X39954950Y-194029285D01*
X39954950Y-194029285D02*
X40031141Y-193876904D01*
X40031141Y-193876904D02*
X40107331Y-193800714D01*
X40107331Y-193800714D02*
X40259712Y-193724523D01*
X40259712Y-193724523D02*
X40564474Y-193724523D01*
X40564474Y-193724523D02*
X40716855Y-193800714D01*
X41707331Y-194791190D02*
X41554950Y-194715000D01*
X41554950Y-194715000D02*
X41478760Y-194562619D01*
X41478760Y-194562619D02*
X41478760Y-193191190D01*
X42926379Y-194715000D02*
X42773998Y-194791190D01*
X42773998Y-194791190D02*
X42469236Y-194791190D01*
X42469236Y-194791190D02*
X42316855Y-194715000D01*
X42316855Y-194715000D02*
X42240664Y-194562619D01*
X42240664Y-194562619D02*
X42240664Y-193953095D01*
X42240664Y-193953095D02*
X42316855Y-193800714D01*
X42316855Y-193800714D02*
X42469236Y-193724523D01*
X42469236Y-193724523D02*
X42773998Y-193724523D01*
X42773998Y-193724523D02*
X42926379Y-193800714D01*
X42926379Y-193800714D02*
X43002569Y-193953095D01*
X43002569Y-193953095D02*
X43002569Y-194105476D01*
X43002569Y-194105476D02*
X42240664Y-194257857D01*
X43688284Y-194181666D02*
X44907332Y-194181666D01*
X45669236Y-193724523D02*
X45669236Y-195324523D01*
X45669236Y-193800714D02*
X45821617Y-193724523D01*
X45821617Y-193724523D02*
X46126379Y-193724523D01*
X46126379Y-193724523D02*
X46278760Y-193800714D01*
X46278760Y-193800714D02*
X46354950Y-193876904D01*
X46354950Y-193876904D02*
X46431141Y-194029285D01*
X46431141Y-194029285D02*
X46431141Y-194486428D01*
X46431141Y-194486428D02*
X46354950Y-194638809D01*
X46354950Y-194638809D02*
X46278760Y-194715000D01*
X46278760Y-194715000D02*
X46126379Y-194791190D01*
X46126379Y-194791190D02*
X45821617Y-194791190D01*
X45821617Y-194791190D02*
X45669236Y-194715000D01*
X47345426Y-194791190D02*
X47193045Y-194715000D01*
X47193045Y-194715000D02*
X47116855Y-194638809D01*
X47116855Y-194638809D02*
X47040664Y-194486428D01*
X47040664Y-194486428D02*
X47040664Y-194029285D01*
X47040664Y-194029285D02*
X47116855Y-193876904D01*
X47116855Y-193876904D02*
X47193045Y-193800714D01*
X47193045Y-193800714D02*
X47345426Y-193724523D01*
X47345426Y-193724523D02*
X47573998Y-193724523D01*
X47573998Y-193724523D02*
X47726379Y-193800714D01*
X47726379Y-193800714D02*
X47802569Y-193876904D01*
X47802569Y-193876904D02*
X47878760Y-194029285D01*
X47878760Y-194029285D02*
X47878760Y-194486428D01*
X47878760Y-194486428D02*
X47802569Y-194638809D01*
X47802569Y-194638809D02*
X47726379Y-194715000D01*
X47726379Y-194715000D02*
X47573998Y-194791190D01*
X47573998Y-194791190D02*
X47345426Y-194791190D01*
X48564474Y-194791190D02*
X48564474Y-193724523D01*
X48564474Y-193191190D02*
X48488283Y-193267380D01*
X48488283Y-193267380D02*
X48564474Y-193343571D01*
X48564474Y-193343571D02*
X48640664Y-193267380D01*
X48640664Y-193267380D02*
X48564474Y-193191190D01*
X48564474Y-193191190D02*
X48564474Y-193343571D01*
X49326379Y-193724523D02*
X49326379Y-194791190D01*
X49326379Y-193876904D02*
X49402569Y-193800714D01*
X49402569Y-193800714D02*
X49554950Y-193724523D01*
X49554950Y-193724523D02*
X49783522Y-193724523D01*
X49783522Y-193724523D02*
X49935903Y-193800714D01*
X49935903Y-193800714D02*
X50012093Y-193953095D01*
X50012093Y-193953095D02*
X50012093Y-194791190D01*
X50545426Y-193724523D02*
X51154950Y-193724523D01*
X50773998Y-193191190D02*
X50773998Y-194562619D01*
X50773998Y-194562619D02*
X50850188Y-194715000D01*
X50850188Y-194715000D02*
X51002569Y-194791190D01*
X51002569Y-194791190D02*
X51154950Y-194791190D01*
X52678760Y-193724523D02*
X53288284Y-193724523D01*
X52907332Y-193191190D02*
X52907332Y-194562619D01*
X52907332Y-194562619D02*
X52983522Y-194715000D01*
X52983522Y-194715000D02*
X53135903Y-194791190D01*
X53135903Y-194791190D02*
X53288284Y-194791190D01*
X53821618Y-194791190D02*
X53821618Y-193724523D01*
X53821618Y-193191190D02*
X53745427Y-193267380D01*
X53745427Y-193267380D02*
X53821618Y-193343571D01*
X53821618Y-193343571D02*
X53897808Y-193267380D01*
X53897808Y-193267380D02*
X53821618Y-193191190D01*
X53821618Y-193191190D02*
X53821618Y-193343571D01*
X55193047Y-194715000D02*
X55040666Y-194791190D01*
X55040666Y-194791190D02*
X54735904Y-194791190D01*
X54735904Y-194791190D02*
X54583523Y-194715000D01*
X54583523Y-194715000D02*
X54507332Y-194562619D01*
X54507332Y-194562619D02*
X54507332Y-193953095D01*
X54507332Y-193953095D02*
X54583523Y-193800714D01*
X54583523Y-193800714D02*
X54735904Y-193724523D01*
X54735904Y-193724523D02*
X55040666Y-193724523D01*
X55040666Y-193724523D02*
X55193047Y-193800714D01*
X55193047Y-193800714D02*
X55269237Y-193953095D01*
X55269237Y-193953095D02*
X55269237Y-194105476D01*
X55269237Y-194105476D02*
X54507332Y-194257857D01*
X57174000Y-194791190D02*
X57174000Y-193191190D01*
X57174000Y-193800714D02*
X57326381Y-193724523D01*
X57326381Y-193724523D02*
X57631143Y-193724523D01*
X57631143Y-193724523D02*
X57783524Y-193800714D01*
X57783524Y-193800714D02*
X57859714Y-193876904D01*
X57859714Y-193876904D02*
X57935905Y-194029285D01*
X57935905Y-194029285D02*
X57935905Y-194486428D01*
X57935905Y-194486428D02*
X57859714Y-194638809D01*
X57859714Y-194638809D02*
X57783524Y-194715000D01*
X57783524Y-194715000D02*
X57631143Y-194791190D01*
X57631143Y-194791190D02*
X57326381Y-194791190D01*
X57326381Y-194791190D02*
X57174000Y-194715000D01*
X59231143Y-194715000D02*
X59078762Y-194791190D01*
X59078762Y-194791190D02*
X58774000Y-194791190D01*
X58774000Y-194791190D02*
X58621619Y-194715000D01*
X58621619Y-194715000D02*
X58545428Y-194562619D01*
X58545428Y-194562619D02*
X58545428Y-193953095D01*
X58545428Y-193953095D02*
X58621619Y-193800714D01*
X58621619Y-193800714D02*
X58774000Y-193724523D01*
X58774000Y-193724523D02*
X59078762Y-193724523D01*
X59078762Y-193724523D02*
X59231143Y-193800714D01*
X59231143Y-193800714D02*
X59307333Y-193953095D01*
X59307333Y-193953095D02*
X59307333Y-194105476D01*
X59307333Y-194105476D02*
X58545428Y-194257857D01*
X59764476Y-193724523D02*
X60374000Y-193724523D01*
X59993048Y-193191190D02*
X59993048Y-194562619D01*
X59993048Y-194562619D02*
X60069238Y-194715000D01*
X60069238Y-194715000D02*
X60221619Y-194791190D01*
X60221619Y-194791190D02*
X60374000Y-194791190D01*
X60754953Y-193724523D02*
X61059715Y-194791190D01*
X61059715Y-194791190D02*
X61364477Y-194029285D01*
X61364477Y-194029285D02*
X61669239Y-194791190D01*
X61669239Y-194791190D02*
X61974001Y-193724523D01*
X63193048Y-194715000D02*
X63040667Y-194791190D01*
X63040667Y-194791190D02*
X62735905Y-194791190D01*
X62735905Y-194791190D02*
X62583524Y-194715000D01*
X62583524Y-194715000D02*
X62507333Y-194562619D01*
X62507333Y-194562619D02*
X62507333Y-193953095D01*
X62507333Y-193953095D02*
X62583524Y-193800714D01*
X62583524Y-193800714D02*
X62735905Y-193724523D01*
X62735905Y-193724523D02*
X63040667Y-193724523D01*
X63040667Y-193724523D02*
X63193048Y-193800714D01*
X63193048Y-193800714D02*
X63269238Y-193953095D01*
X63269238Y-193953095D02*
X63269238Y-194105476D01*
X63269238Y-194105476D02*
X62507333Y-194257857D01*
X64564477Y-194715000D02*
X64412096Y-194791190D01*
X64412096Y-194791190D02*
X64107334Y-194791190D01*
X64107334Y-194791190D02*
X63954953Y-194715000D01*
X63954953Y-194715000D02*
X63878762Y-194562619D01*
X63878762Y-194562619D02*
X63878762Y-193953095D01*
X63878762Y-193953095D02*
X63954953Y-193800714D01*
X63954953Y-193800714D02*
X64107334Y-193724523D01*
X64107334Y-193724523D02*
X64412096Y-193724523D01*
X64412096Y-193724523D02*
X64564477Y-193800714D01*
X64564477Y-193800714D02*
X64640667Y-193953095D01*
X64640667Y-193953095D02*
X64640667Y-194105476D01*
X64640667Y-194105476D02*
X63878762Y-194257857D01*
X65326382Y-193724523D02*
X65326382Y-194791190D01*
X65326382Y-193876904D02*
X65402572Y-193800714D01*
X65402572Y-193800714D02*
X65554953Y-193724523D01*
X65554953Y-193724523D02*
X65783525Y-193724523D01*
X65783525Y-193724523D02*
X65935906Y-193800714D01*
X65935906Y-193800714D02*
X66012096Y-193953095D01*
X66012096Y-193953095D02*
X66012096Y-194791190D01*
X68831144Y-193267380D02*
X68678763Y-193191190D01*
X68678763Y-193191190D02*
X68450192Y-193191190D01*
X68450192Y-193191190D02*
X68221620Y-193267380D01*
X68221620Y-193267380D02*
X68069239Y-193419761D01*
X68069239Y-193419761D02*
X67993049Y-193572142D01*
X67993049Y-193572142D02*
X67916858Y-193876904D01*
X67916858Y-193876904D02*
X67916858Y-194105476D01*
X67916858Y-194105476D02*
X67993049Y-194410238D01*
X67993049Y-194410238D02*
X68069239Y-194562619D01*
X68069239Y-194562619D02*
X68221620Y-194715000D01*
X68221620Y-194715000D02*
X68450192Y-194791190D01*
X68450192Y-194791190D02*
X68602573Y-194791190D01*
X68602573Y-194791190D02*
X68831144Y-194715000D01*
X68831144Y-194715000D02*
X68907335Y-194638809D01*
X68907335Y-194638809D02*
X68907335Y-194105476D01*
X68907335Y-194105476D02*
X68602573Y-194105476D01*
X69593049Y-194791190D02*
X69593049Y-193191190D01*
X69593049Y-193191190D02*
X70507335Y-194791190D01*
X70507335Y-194791190D02*
X70507335Y-193191190D01*
X71269239Y-194791190D02*
X71269239Y-193191190D01*
X71269239Y-193191190D02*
X71650191Y-193191190D01*
X71650191Y-193191190D02*
X71878763Y-193267380D01*
X71878763Y-193267380D02*
X72031144Y-193419761D01*
X72031144Y-193419761D02*
X72107334Y-193572142D01*
X72107334Y-193572142D02*
X72183525Y-193876904D01*
X72183525Y-193876904D02*
X72183525Y-194105476D01*
X72183525Y-194105476D02*
X72107334Y-194410238D01*
X72107334Y-194410238D02*
X72031144Y-194562619D01*
X72031144Y-194562619D02*
X71878763Y-194715000D01*
X71878763Y-194715000D02*
X71650191Y-194791190D01*
X71650191Y-194791190D02*
X71269239Y-194791190D01*
X72488287Y-194943571D02*
X73707334Y-194943571D01*
X74012096Y-194334047D02*
X74774001Y-194334047D01*
X73859715Y-194791190D02*
X74393049Y-193191190D01*
X74393049Y-193191190D02*
X74926382Y-194791190D01*
X75459716Y-194791190D02*
X75459716Y-193191190D01*
X75459716Y-193191190D02*
X76374002Y-194791190D01*
X76374002Y-194791190D02*
X76374002Y-193191190D01*
X77059715Y-194334047D02*
X77821620Y-194334047D01*
X76907334Y-194791190D02*
X77440668Y-193191190D01*
X77440668Y-193191190D02*
X77974001Y-194791190D01*
X80869240Y-193115000D02*
X79497811Y-195172142D01*
X83459716Y-193267380D02*
X83307335Y-193191190D01*
X83307335Y-193191190D02*
X83078764Y-193191190D01*
X83078764Y-193191190D02*
X82850192Y-193267380D01*
X82850192Y-193267380D02*
X82697811Y-193419761D01*
X82697811Y-193419761D02*
X82621621Y-193572142D01*
X82621621Y-193572142D02*
X82545430Y-193876904D01*
X82545430Y-193876904D02*
X82545430Y-194105476D01*
X82545430Y-194105476D02*
X82621621Y-194410238D01*
X82621621Y-194410238D02*
X82697811Y-194562619D01*
X82697811Y-194562619D02*
X82850192Y-194715000D01*
X82850192Y-194715000D02*
X83078764Y-194791190D01*
X83078764Y-194791190D02*
X83231145Y-194791190D01*
X83231145Y-194791190D02*
X83459716Y-194715000D01*
X83459716Y-194715000D02*
X83535907Y-194638809D01*
X83535907Y-194638809D02*
X83535907Y-194105476D01*
X83535907Y-194105476D02*
X83231145Y-194105476D01*
X84221621Y-194791190D02*
X84221621Y-193191190D01*
X84221621Y-193191190D02*
X85135907Y-194791190D01*
X85135907Y-194791190D02*
X85135907Y-193191190D01*
X85897811Y-194791190D02*
X85897811Y-193191190D01*
X85897811Y-193191190D02*
X86278763Y-193191190D01*
X86278763Y-193191190D02*
X86507335Y-193267380D01*
X86507335Y-193267380D02*
X86659716Y-193419761D01*
X86659716Y-193419761D02*
X86735906Y-193572142D01*
X86735906Y-193572142D02*
X86812097Y-193876904D01*
X86812097Y-193876904D02*
X86812097Y-194105476D01*
X86812097Y-194105476D02*
X86735906Y-194410238D01*
X86735906Y-194410238D02*
X86659716Y-194562619D01*
X86659716Y-194562619D02*
X86507335Y-194715000D01*
X86507335Y-194715000D02*
X86278763Y-194791190D01*
X86278763Y-194791190D02*
X85897811Y-194791190D01*
X87116859Y-194943571D02*
X88335906Y-194943571D01*
X88716859Y-194791190D02*
X88716859Y-193191190D01*
X88716859Y-193953095D02*
X89631145Y-193953095D01*
X89631145Y-194791190D02*
X89631145Y-193191190D01*
X90164477Y-193191190D02*
X90697811Y-194791190D01*
X90697811Y-194791190D02*
X91231144Y-193191190D01*
X94126383Y-193115000D02*
X92754954Y-195172142D01*
X96564478Y-194715000D02*
X96412097Y-194791190D01*
X96412097Y-194791190D02*
X96107335Y-194791190D01*
X96107335Y-194791190D02*
X95954954Y-194715000D01*
X95954954Y-194715000D02*
X95878764Y-194638809D01*
X95878764Y-194638809D02*
X95802573Y-194486428D01*
X95802573Y-194486428D02*
X95802573Y-194029285D01*
X95802573Y-194029285D02*
X95878764Y-193876904D01*
X95878764Y-193876904D02*
X95954954Y-193800714D01*
X95954954Y-193800714D02*
X96107335Y-193724523D01*
X96107335Y-193724523D02*
X96412097Y-193724523D01*
X96412097Y-193724523D02*
X96564478Y-193800714D01*
X97250193Y-194791190D02*
X97250193Y-193191190D01*
X97935907Y-194791190D02*
X97935907Y-193953095D01*
X97935907Y-193953095D02*
X97859717Y-193800714D01*
X97859717Y-193800714D02*
X97707336Y-193724523D01*
X97707336Y-193724523D02*
X97478764Y-193724523D01*
X97478764Y-193724523D02*
X97326383Y-193800714D01*
X97326383Y-193800714D02*
X97250193Y-193876904D01*
X99383526Y-194791190D02*
X99383526Y-193953095D01*
X99383526Y-193953095D02*
X99307336Y-193800714D01*
X99307336Y-193800714D02*
X99154955Y-193724523D01*
X99154955Y-193724523D02*
X98850193Y-193724523D01*
X98850193Y-193724523D02*
X98697812Y-193800714D01*
X99383526Y-194715000D02*
X99231145Y-194791190D01*
X99231145Y-194791190D02*
X98850193Y-194791190D01*
X98850193Y-194791190D02*
X98697812Y-194715000D01*
X98697812Y-194715000D02*
X98621621Y-194562619D01*
X98621621Y-194562619D02*
X98621621Y-194410238D01*
X98621621Y-194410238D02*
X98697812Y-194257857D01*
X98697812Y-194257857D02*
X98850193Y-194181666D01*
X98850193Y-194181666D02*
X99231145Y-194181666D01*
X99231145Y-194181666D02*
X99383526Y-194105476D01*
X100069240Y-194715000D02*
X100221621Y-194791190D01*
X100221621Y-194791190D02*
X100526383Y-194791190D01*
X100526383Y-194791190D02*
X100678764Y-194715000D01*
X100678764Y-194715000D02*
X100754955Y-194562619D01*
X100754955Y-194562619D02*
X100754955Y-194486428D01*
X100754955Y-194486428D02*
X100678764Y-194334047D01*
X100678764Y-194334047D02*
X100526383Y-194257857D01*
X100526383Y-194257857D02*
X100297812Y-194257857D01*
X100297812Y-194257857D02*
X100145431Y-194181666D01*
X100145431Y-194181666D02*
X100069240Y-194029285D01*
X100069240Y-194029285D02*
X100069240Y-193953095D01*
X100069240Y-193953095D02*
X100145431Y-193800714D01*
X100145431Y-193800714D02*
X100297812Y-193724523D01*
X100297812Y-193724523D02*
X100526383Y-193724523D01*
X100526383Y-193724523D02*
X100678764Y-193800714D01*
X101364478Y-194715000D02*
X101516859Y-194791190D01*
X101516859Y-194791190D02*
X101821621Y-194791190D01*
X101821621Y-194791190D02*
X101974002Y-194715000D01*
X101974002Y-194715000D02*
X102050193Y-194562619D01*
X102050193Y-194562619D02*
X102050193Y-194486428D01*
X102050193Y-194486428D02*
X101974002Y-194334047D01*
X101974002Y-194334047D02*
X101821621Y-194257857D01*
X101821621Y-194257857D02*
X101593050Y-194257857D01*
X101593050Y-194257857D02*
X101440669Y-194181666D01*
X101440669Y-194181666D02*
X101364478Y-194029285D01*
X101364478Y-194029285D02*
X101364478Y-193953095D01*
X101364478Y-193953095D02*
X101440669Y-193800714D01*
X101440669Y-193800714D02*
X101593050Y-193724523D01*
X101593050Y-193724523D02*
X101821621Y-193724523D01*
X101821621Y-193724523D02*
X101974002Y-193800714D01*
X102735907Y-194791190D02*
X102735907Y-193724523D01*
X102735907Y-193191190D02*
X102659716Y-193267380D01*
X102659716Y-193267380D02*
X102735907Y-193343571D01*
X102735907Y-193343571D02*
X102812097Y-193267380D01*
X102812097Y-193267380D02*
X102735907Y-193191190D01*
X102735907Y-193191190D02*
X102735907Y-193343571D01*
X103421621Y-194715000D02*
X103574002Y-194791190D01*
X103574002Y-194791190D02*
X103878764Y-194791190D01*
X103878764Y-194791190D02*
X104031145Y-194715000D01*
X104031145Y-194715000D02*
X104107336Y-194562619D01*
X104107336Y-194562619D02*
X104107336Y-194486428D01*
X104107336Y-194486428D02*
X104031145Y-194334047D01*
X104031145Y-194334047D02*
X103878764Y-194257857D01*
X103878764Y-194257857D02*
X103650193Y-194257857D01*
X103650193Y-194257857D02*
X103497812Y-194181666D01*
X103497812Y-194181666D02*
X103421621Y-194029285D01*
X103421621Y-194029285D02*
X103421621Y-193953095D01*
X103421621Y-193953095D02*
X103497812Y-193800714D01*
X103497812Y-193800714D02*
X103650193Y-193724523D01*
X103650193Y-193724523D02*
X103878764Y-193724523D01*
X103878764Y-193724523D02*
X104031145Y-193800714D01*
D11*
X130673558Y-189739638D02*
X130673558Y-187739638D01*
X130673558Y-188692019D02*
X131816415Y-188692019D01*
X131816415Y-189739638D02*
X131816415Y-187739638D01*
X132483082Y-187739638D02*
X133149748Y-189739638D01*
X133149748Y-189739638D02*
X133816415Y-187739638D01*
X136864035Y-189739638D02*
X136864035Y-187739638D01*
X136864035Y-189644400D02*
X136673559Y-189739638D01*
X136673559Y-189739638D02*
X136292606Y-189739638D01*
X136292606Y-189739638D02*
X136102130Y-189644400D01*
X136102130Y-189644400D02*
X136006892Y-189549161D01*
X136006892Y-189549161D02*
X135911654Y-189358685D01*
X135911654Y-189358685D02*
X135911654Y-188787257D01*
X135911654Y-188787257D02*
X136006892Y-188596780D01*
X136006892Y-188596780D02*
X136102130Y-188501542D01*
X136102130Y-188501542D02*
X136292606Y-188406304D01*
X136292606Y-188406304D02*
X136673559Y-188406304D01*
X136673559Y-188406304D02*
X136864035Y-188501542D01*
X138102130Y-189739638D02*
X137911654Y-189644400D01*
X137911654Y-189644400D02*
X137816416Y-189549161D01*
X137816416Y-189549161D02*
X137721178Y-189358685D01*
X137721178Y-189358685D02*
X137721178Y-188787257D01*
X137721178Y-188787257D02*
X137816416Y-188596780D01*
X137816416Y-188596780D02*
X137911654Y-188501542D01*
X137911654Y-188501542D02*
X138102130Y-188406304D01*
X138102130Y-188406304D02*
X138387845Y-188406304D01*
X138387845Y-188406304D02*
X138578321Y-188501542D01*
X138578321Y-188501542D02*
X138673559Y-188596780D01*
X138673559Y-188596780D02*
X138768797Y-188787257D01*
X138768797Y-188787257D02*
X138768797Y-189358685D01*
X138768797Y-189358685D02*
X138673559Y-189549161D01*
X138673559Y-189549161D02*
X138578321Y-189644400D01*
X138578321Y-189644400D02*
X138387845Y-189739638D01*
X138387845Y-189739638D02*
X138102130Y-189739638D01*
X139625940Y-189739638D02*
X139625940Y-188406304D01*
X139625940Y-188596780D02*
X139721178Y-188501542D01*
X139721178Y-188501542D02*
X139911654Y-188406304D01*
X139911654Y-188406304D02*
X140197369Y-188406304D01*
X140197369Y-188406304D02*
X140387845Y-188501542D01*
X140387845Y-188501542D02*
X140483083Y-188692019D01*
X140483083Y-188692019D02*
X140483083Y-189739638D01*
X140483083Y-188692019D02*
X140578321Y-188501542D01*
X140578321Y-188501542D02*
X140768797Y-188406304D01*
X140768797Y-188406304D02*
X141054511Y-188406304D01*
X141054511Y-188406304D02*
X141244988Y-188501542D01*
X141244988Y-188501542D02*
X141340226Y-188692019D01*
X141340226Y-188692019D02*
X141340226Y-189739638D01*
X143149750Y-189739638D02*
X143149750Y-188692019D01*
X143149750Y-188692019D02*
X143054512Y-188501542D01*
X143054512Y-188501542D02*
X142864036Y-188406304D01*
X142864036Y-188406304D02*
X142483083Y-188406304D01*
X142483083Y-188406304D02*
X142292607Y-188501542D01*
X143149750Y-189644400D02*
X142959274Y-189739638D01*
X142959274Y-189739638D02*
X142483083Y-189739638D01*
X142483083Y-189739638D02*
X142292607Y-189644400D01*
X142292607Y-189644400D02*
X142197369Y-189453923D01*
X142197369Y-189453923D02*
X142197369Y-189263447D01*
X142197369Y-189263447D02*
X142292607Y-189072971D01*
X142292607Y-189072971D02*
X142483083Y-188977733D01*
X142483083Y-188977733D02*
X142959274Y-188977733D01*
X142959274Y-188977733D02*
X143149750Y-188882495D01*
X144102131Y-189739638D02*
X144102131Y-188406304D01*
X144102131Y-187739638D02*
X144006893Y-187834876D01*
X144006893Y-187834876D02*
X144102131Y-187930114D01*
X144102131Y-187930114D02*
X144197369Y-187834876D01*
X144197369Y-187834876D02*
X144102131Y-187739638D01*
X144102131Y-187739638D02*
X144102131Y-187930114D01*
X145054512Y-188406304D02*
X145054512Y-189739638D01*
X145054512Y-188596780D02*
X145149750Y-188501542D01*
X145149750Y-188501542D02*
X145340226Y-188406304D01*
X145340226Y-188406304D02*
X145625941Y-188406304D01*
X145625941Y-188406304D02*
X145816417Y-188501542D01*
X145816417Y-188501542D02*
X145911655Y-188692019D01*
X145911655Y-188692019D02*
X145911655Y-189739638D01*
X148959275Y-190501542D02*
X148864036Y-190406304D01*
X148864036Y-190406304D02*
X148673560Y-190120590D01*
X148673560Y-190120590D02*
X148578322Y-189930114D01*
X148578322Y-189930114D02*
X148483084Y-189644400D01*
X148483084Y-189644400D02*
X148387846Y-189168209D01*
X148387846Y-189168209D02*
X148387846Y-188787257D01*
X148387846Y-188787257D02*
X148483084Y-188311066D01*
X148483084Y-188311066D02*
X148578322Y-188025352D01*
X148578322Y-188025352D02*
X148673560Y-187834876D01*
X148673560Y-187834876D02*
X148864036Y-187549161D01*
X148864036Y-187549161D02*
X148959275Y-187453923D01*
X149721179Y-189739638D02*
X149721179Y-188406304D01*
X149721179Y-188787257D02*
X149816417Y-188596780D01*
X149816417Y-188596780D02*
X149911655Y-188501542D01*
X149911655Y-188501542D02*
X150102131Y-188406304D01*
X150102131Y-188406304D02*
X150292608Y-188406304D01*
X150959274Y-189739638D02*
X150959274Y-188406304D01*
X150959274Y-187739638D02*
X150864036Y-187834876D01*
X150864036Y-187834876D02*
X150959274Y-187930114D01*
X150959274Y-187930114D02*
X151054512Y-187834876D01*
X151054512Y-187834876D02*
X150959274Y-187739638D01*
X150959274Y-187739638D02*
X150959274Y-187930114D01*
X152768798Y-188406304D02*
X152768798Y-190025352D01*
X152768798Y-190025352D02*
X152673560Y-190215828D01*
X152673560Y-190215828D02*
X152578322Y-190311066D01*
X152578322Y-190311066D02*
X152387845Y-190406304D01*
X152387845Y-190406304D02*
X152102131Y-190406304D01*
X152102131Y-190406304D02*
X151911655Y-190311066D01*
X152768798Y-189644400D02*
X152578322Y-189739638D01*
X152578322Y-189739638D02*
X152197369Y-189739638D01*
X152197369Y-189739638D02*
X152006893Y-189644400D01*
X152006893Y-189644400D02*
X151911655Y-189549161D01*
X151911655Y-189549161D02*
X151816417Y-189358685D01*
X151816417Y-189358685D02*
X151816417Y-188787257D01*
X151816417Y-188787257D02*
X151911655Y-188596780D01*
X151911655Y-188596780D02*
X152006893Y-188501542D01*
X152006893Y-188501542D02*
X152197369Y-188406304D01*
X152197369Y-188406304D02*
X152578322Y-188406304D01*
X152578322Y-188406304D02*
X152768798Y-188501542D01*
X153721179Y-189739638D02*
X153721179Y-187739638D01*
X154578322Y-189739638D02*
X154578322Y-188692019D01*
X154578322Y-188692019D02*
X154483084Y-188501542D01*
X154483084Y-188501542D02*
X154292608Y-188406304D01*
X154292608Y-188406304D02*
X154006893Y-188406304D01*
X154006893Y-188406304D02*
X153816417Y-188501542D01*
X153816417Y-188501542D02*
X153721179Y-188596780D01*
X155244989Y-188406304D02*
X156006893Y-188406304D01*
X155530703Y-187739638D02*
X155530703Y-189453923D01*
X155530703Y-189453923D02*
X155625941Y-189644400D01*
X155625941Y-189644400D02*
X155816417Y-189739638D01*
X155816417Y-189739638D02*
X156006893Y-189739638D01*
X158197370Y-189739638D02*
X158197370Y-187739638D01*
X159054513Y-189739638D02*
X159054513Y-188692019D01*
X159054513Y-188692019D02*
X158959275Y-188501542D01*
X158959275Y-188501542D02*
X158768799Y-188406304D01*
X158768799Y-188406304D02*
X158483084Y-188406304D01*
X158483084Y-188406304D02*
X158292608Y-188501542D01*
X158292608Y-188501542D02*
X158197370Y-188596780D01*
X160864037Y-189739638D02*
X160864037Y-188692019D01*
X160864037Y-188692019D02*
X160768799Y-188501542D01*
X160768799Y-188501542D02*
X160578323Y-188406304D01*
X160578323Y-188406304D02*
X160197370Y-188406304D01*
X160197370Y-188406304D02*
X160006894Y-188501542D01*
X160864037Y-189644400D02*
X160673561Y-189739638D01*
X160673561Y-189739638D02*
X160197370Y-189739638D01*
X160197370Y-189739638D02*
X160006894Y-189644400D01*
X160006894Y-189644400D02*
X159911656Y-189453923D01*
X159911656Y-189453923D02*
X159911656Y-189263447D01*
X159911656Y-189263447D02*
X160006894Y-189072971D01*
X160006894Y-189072971D02*
X160197370Y-188977733D01*
X160197370Y-188977733D02*
X160673561Y-188977733D01*
X160673561Y-188977733D02*
X160864037Y-188882495D01*
X162102132Y-189739638D02*
X161911656Y-189644400D01*
X161911656Y-189644400D02*
X161816418Y-189453923D01*
X161816418Y-189453923D02*
X161816418Y-187739638D01*
X162578323Y-188406304D02*
X163340227Y-188406304D01*
X162864037Y-189739638D02*
X162864037Y-188025352D01*
X162864037Y-188025352D02*
X162959275Y-187834876D01*
X162959275Y-187834876D02*
X163149751Y-187739638D01*
X163149751Y-187739638D02*
X163340227Y-187739638D01*
X163816418Y-190501542D02*
X163911656Y-190406304D01*
X163911656Y-190406304D02*
X164102132Y-190120590D01*
X164102132Y-190120590D02*
X164197370Y-189930114D01*
X164197370Y-189930114D02*
X164292608Y-189644400D01*
X164292608Y-189644400D02*
X164387846Y-189168209D01*
X164387846Y-189168209D02*
X164387846Y-188787257D01*
X164387846Y-188787257D02*
X164292608Y-188311066D01*
X164292608Y-188311066D02*
X164197370Y-188025352D01*
X164197370Y-188025352D02*
X164102132Y-187834876D01*
X164102132Y-187834876D02*
X163911656Y-187549161D01*
X163911656Y-187549161D02*
X163816418Y-187453923D01*
X166864037Y-188977733D02*
X168387847Y-188977733D01*
X170864037Y-189739638D02*
X170864037Y-187739638D01*
X171054513Y-188977733D02*
X171625942Y-189739638D01*
X171625942Y-188406304D02*
X170864037Y-189168209D01*
X173244990Y-189644400D02*
X173054514Y-189739638D01*
X173054514Y-189739638D02*
X172673561Y-189739638D01*
X172673561Y-189739638D02*
X172483085Y-189644400D01*
X172483085Y-189644400D02*
X172387847Y-189453923D01*
X172387847Y-189453923D02*
X172387847Y-188692019D01*
X172387847Y-188692019D02*
X172483085Y-188501542D01*
X172483085Y-188501542D02*
X172673561Y-188406304D01*
X172673561Y-188406304D02*
X173054514Y-188406304D01*
X173054514Y-188406304D02*
X173244990Y-188501542D01*
X173244990Y-188501542D02*
X173340228Y-188692019D01*
X173340228Y-188692019D02*
X173340228Y-188882495D01*
X173340228Y-188882495D02*
X172387847Y-189072971D01*
X174959276Y-189644400D02*
X174768800Y-189739638D01*
X174768800Y-189739638D02*
X174387847Y-189739638D01*
X174387847Y-189739638D02*
X174197371Y-189644400D01*
X174197371Y-189644400D02*
X174102133Y-189453923D01*
X174102133Y-189453923D02*
X174102133Y-188692019D01*
X174102133Y-188692019D02*
X174197371Y-188501542D01*
X174197371Y-188501542D02*
X174387847Y-188406304D01*
X174387847Y-188406304D02*
X174768800Y-188406304D01*
X174768800Y-188406304D02*
X174959276Y-188501542D01*
X174959276Y-188501542D02*
X175054514Y-188692019D01*
X175054514Y-188692019D02*
X175054514Y-188882495D01*
X175054514Y-188882495D02*
X174102133Y-189072971D01*
X175911657Y-188406304D02*
X175911657Y-190406304D01*
X175911657Y-188501542D02*
X176102133Y-188406304D01*
X176102133Y-188406304D02*
X176483086Y-188406304D01*
X176483086Y-188406304D02*
X176673562Y-188501542D01*
X176673562Y-188501542D02*
X176768800Y-188596780D01*
X176768800Y-188596780D02*
X176864038Y-188787257D01*
X176864038Y-188787257D02*
X176864038Y-189358685D01*
X176864038Y-189358685D02*
X176768800Y-189549161D01*
X176768800Y-189549161D02*
X176673562Y-189644400D01*
X176673562Y-189644400D02*
X176483086Y-189739638D01*
X176483086Y-189739638D02*
X176102133Y-189739638D01*
X176102133Y-189739638D02*
X175911657Y-189644400D01*
X179054515Y-187739638D02*
X180292610Y-187739638D01*
X180292610Y-187739638D02*
X179625943Y-188501542D01*
X179625943Y-188501542D02*
X179911658Y-188501542D01*
X179911658Y-188501542D02*
X180102134Y-188596780D01*
X180102134Y-188596780D02*
X180197372Y-188692019D01*
X180197372Y-188692019D02*
X180292610Y-188882495D01*
X180292610Y-188882495D02*
X180292610Y-189358685D01*
X180292610Y-189358685D02*
X180197372Y-189549161D01*
X180197372Y-189549161D02*
X180102134Y-189644400D01*
X180102134Y-189644400D02*
X179911658Y-189739638D01*
X179911658Y-189739638D02*
X179340229Y-189739638D01*
X179340229Y-189739638D02*
X179149753Y-189644400D01*
X179149753Y-189644400D02*
X179054515Y-189549161D01*
X181149753Y-189739638D02*
X181149753Y-188406304D01*
X181149753Y-188596780D02*
X181244991Y-188501542D01*
X181244991Y-188501542D02*
X181435467Y-188406304D01*
X181435467Y-188406304D02*
X181721182Y-188406304D01*
X181721182Y-188406304D02*
X181911658Y-188501542D01*
X181911658Y-188501542D02*
X182006896Y-188692019D01*
X182006896Y-188692019D02*
X182006896Y-189739638D01*
X182006896Y-188692019D02*
X182102134Y-188501542D01*
X182102134Y-188501542D02*
X182292610Y-188406304D01*
X182292610Y-188406304D02*
X182578324Y-188406304D01*
X182578324Y-188406304D02*
X182768801Y-188501542D01*
X182768801Y-188501542D02*
X182864039Y-188692019D01*
X182864039Y-188692019D02*
X182864039Y-189739638D01*
X183816420Y-189739638D02*
X183816420Y-188406304D01*
X183816420Y-188596780D02*
X183911658Y-188501542D01*
X183911658Y-188501542D02*
X184102134Y-188406304D01*
X184102134Y-188406304D02*
X184387849Y-188406304D01*
X184387849Y-188406304D02*
X184578325Y-188501542D01*
X184578325Y-188501542D02*
X184673563Y-188692019D01*
X184673563Y-188692019D02*
X184673563Y-189739638D01*
X184673563Y-188692019D02*
X184768801Y-188501542D01*
X184768801Y-188501542D02*
X184959277Y-188406304D01*
X184959277Y-188406304D02*
X185244991Y-188406304D01*
X185244991Y-188406304D02*
X185435468Y-188501542D01*
X185435468Y-188501542D02*
X185530706Y-188692019D01*
X185530706Y-188692019D02*
X185530706Y-189739638D01*
X188006897Y-189739638D02*
X188006897Y-188406304D01*
X188006897Y-188596780D02*
X188102135Y-188501542D01*
X188102135Y-188501542D02*
X188292611Y-188406304D01*
X188292611Y-188406304D02*
X188578326Y-188406304D01*
X188578326Y-188406304D02*
X188768802Y-188501542D01*
X188768802Y-188501542D02*
X188864040Y-188692019D01*
X188864040Y-188692019D02*
X188864040Y-189739638D01*
X188864040Y-188692019D02*
X188959278Y-188501542D01*
X188959278Y-188501542D02*
X189149754Y-188406304D01*
X189149754Y-188406304D02*
X189435468Y-188406304D01*
X189435468Y-188406304D02*
X189625945Y-188501542D01*
X189625945Y-188501542D02*
X189721183Y-188692019D01*
X189721183Y-188692019D02*
X189721183Y-189739638D01*
X190673564Y-189739638D02*
X190673564Y-188406304D01*
X190673564Y-187739638D02*
X190578326Y-187834876D01*
X190578326Y-187834876D02*
X190673564Y-187930114D01*
X190673564Y-187930114D02*
X190768802Y-187834876D01*
X190768802Y-187834876D02*
X190673564Y-187739638D01*
X190673564Y-187739638D02*
X190673564Y-187930114D01*
X191625945Y-188406304D02*
X191625945Y-189739638D01*
X191625945Y-188596780D02*
X191721183Y-188501542D01*
X191721183Y-188501542D02*
X191911659Y-188406304D01*
X191911659Y-188406304D02*
X192197374Y-188406304D01*
X192197374Y-188406304D02*
X192387850Y-188501542D01*
X192387850Y-188501542D02*
X192483088Y-188692019D01*
X192483088Y-188692019D02*
X192483088Y-189739638D01*
X195816422Y-189644400D02*
X195625946Y-189739638D01*
X195625946Y-189739638D02*
X195244993Y-189739638D01*
X195244993Y-189739638D02*
X195054517Y-189644400D01*
X195054517Y-189644400D02*
X194959279Y-189549161D01*
X194959279Y-189549161D02*
X194864041Y-189358685D01*
X194864041Y-189358685D02*
X194864041Y-188787257D01*
X194864041Y-188787257D02*
X194959279Y-188596780D01*
X194959279Y-188596780D02*
X195054517Y-188501542D01*
X195054517Y-188501542D02*
X195244993Y-188406304D01*
X195244993Y-188406304D02*
X195625946Y-188406304D01*
X195625946Y-188406304D02*
X195816422Y-188501542D01*
X196959279Y-189739638D02*
X196768803Y-189644400D01*
X196768803Y-189644400D02*
X196673565Y-189453923D01*
X196673565Y-189453923D02*
X196673565Y-187739638D01*
X198483089Y-189644400D02*
X198292613Y-189739638D01*
X198292613Y-189739638D02*
X197911660Y-189739638D01*
X197911660Y-189739638D02*
X197721184Y-189644400D01*
X197721184Y-189644400D02*
X197625946Y-189453923D01*
X197625946Y-189453923D02*
X197625946Y-188692019D01*
X197625946Y-188692019D02*
X197721184Y-188501542D01*
X197721184Y-188501542D02*
X197911660Y-188406304D01*
X197911660Y-188406304D02*
X198292613Y-188406304D01*
X198292613Y-188406304D02*
X198483089Y-188501542D01*
X198483089Y-188501542D02*
X198578327Y-188692019D01*
X198578327Y-188692019D02*
X198578327Y-188882495D01*
X198578327Y-188882495D02*
X197625946Y-189072971D01*
X200292613Y-189739638D02*
X200292613Y-188692019D01*
X200292613Y-188692019D02*
X200197375Y-188501542D01*
X200197375Y-188501542D02*
X200006899Y-188406304D01*
X200006899Y-188406304D02*
X199625946Y-188406304D01*
X199625946Y-188406304D02*
X199435470Y-188501542D01*
X200292613Y-189644400D02*
X200102137Y-189739638D01*
X200102137Y-189739638D02*
X199625946Y-189739638D01*
X199625946Y-189739638D02*
X199435470Y-189644400D01*
X199435470Y-189644400D02*
X199340232Y-189453923D01*
X199340232Y-189453923D02*
X199340232Y-189263447D01*
X199340232Y-189263447D02*
X199435470Y-189072971D01*
X199435470Y-189072971D02*
X199625946Y-188977733D01*
X199625946Y-188977733D02*
X200102137Y-188977733D01*
X200102137Y-188977733D02*
X200292613Y-188882495D01*
X201244994Y-189739638D02*
X201244994Y-188406304D01*
X201244994Y-188787257D02*
X201340232Y-188596780D01*
X201340232Y-188596780D02*
X201435470Y-188501542D01*
X201435470Y-188501542D02*
X201625946Y-188406304D01*
X201625946Y-188406304D02*
X201816423Y-188406304D01*
X203340232Y-189739638D02*
X203340232Y-188692019D01*
X203340232Y-188692019D02*
X203244994Y-188501542D01*
X203244994Y-188501542D02*
X203054518Y-188406304D01*
X203054518Y-188406304D02*
X202673565Y-188406304D01*
X202673565Y-188406304D02*
X202483089Y-188501542D01*
X203340232Y-189644400D02*
X203149756Y-189739638D01*
X203149756Y-189739638D02*
X202673565Y-189739638D01*
X202673565Y-189739638D02*
X202483089Y-189644400D01*
X202483089Y-189644400D02*
X202387851Y-189453923D01*
X202387851Y-189453923D02*
X202387851Y-189263447D01*
X202387851Y-189263447D02*
X202483089Y-189072971D01*
X202483089Y-189072971D02*
X202673565Y-188977733D01*
X202673565Y-188977733D02*
X203149756Y-188977733D01*
X203149756Y-188977733D02*
X203340232Y-188882495D01*
X204292613Y-188406304D02*
X204292613Y-189739638D01*
X204292613Y-188596780D02*
X204387851Y-188501542D01*
X204387851Y-188501542D02*
X204578327Y-188406304D01*
X204578327Y-188406304D02*
X204864042Y-188406304D01*
X204864042Y-188406304D02*
X205054518Y-188501542D01*
X205054518Y-188501542D02*
X205149756Y-188692019D01*
X205149756Y-188692019D02*
X205149756Y-189739638D01*
X206959280Y-189644400D02*
X206768804Y-189739638D01*
X206768804Y-189739638D02*
X206387851Y-189739638D01*
X206387851Y-189739638D02*
X206197375Y-189644400D01*
X206197375Y-189644400D02*
X206102137Y-189549161D01*
X206102137Y-189549161D02*
X206006899Y-189358685D01*
X206006899Y-189358685D02*
X206006899Y-188787257D01*
X206006899Y-188787257D02*
X206102137Y-188596780D01*
X206102137Y-188596780D02*
X206197375Y-188501542D01*
X206197375Y-188501542D02*
X206387851Y-188406304D01*
X206387851Y-188406304D02*
X206768804Y-188406304D01*
X206768804Y-188406304D02*
X206959280Y-188501542D01*
X208578328Y-189644400D02*
X208387852Y-189739638D01*
X208387852Y-189739638D02*
X208006899Y-189739638D01*
X208006899Y-189739638D02*
X207816423Y-189644400D01*
X207816423Y-189644400D02*
X207721185Y-189453923D01*
X207721185Y-189453923D02*
X207721185Y-188692019D01*
X207721185Y-188692019D02*
X207816423Y-188501542D01*
X207816423Y-188501542D02*
X208006899Y-188406304D01*
X208006899Y-188406304D02*
X208387852Y-188406304D01*
X208387852Y-188406304D02*
X208578328Y-188501542D01*
X208578328Y-188501542D02*
X208673566Y-188692019D01*
X208673566Y-188692019D02*
X208673566Y-188882495D01*
X208673566Y-188882495D02*
X207721185Y-189072971D01*
X210768805Y-188406304D02*
X211530709Y-188406304D01*
X211054519Y-187739638D02*
X211054519Y-189453923D01*
X211054519Y-189453923D02*
X211149757Y-189644400D01*
X211149757Y-189644400D02*
X211340233Y-189739638D01*
X211340233Y-189739638D02*
X211530709Y-189739638D01*
X212483090Y-189739638D02*
X212292614Y-189644400D01*
X212292614Y-189644400D02*
X212197376Y-189549161D01*
X212197376Y-189549161D02*
X212102138Y-189358685D01*
X212102138Y-189358685D02*
X212102138Y-188787257D01*
X212102138Y-188787257D02*
X212197376Y-188596780D01*
X212197376Y-188596780D02*
X212292614Y-188501542D01*
X212292614Y-188501542D02*
X212483090Y-188406304D01*
X212483090Y-188406304D02*
X212768805Y-188406304D01*
X212768805Y-188406304D02*
X212959281Y-188501542D01*
X212959281Y-188501542D02*
X213054519Y-188596780D01*
X213054519Y-188596780D02*
X213149757Y-188787257D01*
X213149757Y-188787257D02*
X213149757Y-189358685D01*
X213149757Y-189358685D02*
X213054519Y-189549161D01*
X213054519Y-189549161D02*
X212959281Y-189644400D01*
X212959281Y-189644400D02*
X212768805Y-189739638D01*
X212768805Y-189739638D02*
X212483090Y-189739638D01*
X216483091Y-189739638D02*
X215530710Y-189739638D01*
X215530710Y-189739638D02*
X215530710Y-187739638D01*
X216864044Y-187739638D02*
X217530710Y-189739638D01*
X217530710Y-189739638D02*
X218197377Y-187739638D01*
X221244997Y-189739638D02*
X221244997Y-187739638D01*
X221244997Y-189644400D02*
X221054521Y-189739638D01*
X221054521Y-189739638D02*
X220673568Y-189739638D01*
X220673568Y-189739638D02*
X220483092Y-189644400D01*
X220483092Y-189644400D02*
X220387854Y-189549161D01*
X220387854Y-189549161D02*
X220292616Y-189358685D01*
X220292616Y-189358685D02*
X220292616Y-188787257D01*
X220292616Y-188787257D02*
X220387854Y-188596780D01*
X220387854Y-188596780D02*
X220483092Y-188501542D01*
X220483092Y-188501542D02*
X220673568Y-188406304D01*
X220673568Y-188406304D02*
X221054521Y-188406304D01*
X221054521Y-188406304D02*
X221244997Y-188501542D01*
X222483092Y-189739638D02*
X222292616Y-189644400D01*
X222292616Y-189644400D02*
X222197378Y-189549161D01*
X222197378Y-189549161D02*
X222102140Y-189358685D01*
X222102140Y-189358685D02*
X222102140Y-188787257D01*
X222102140Y-188787257D02*
X222197378Y-188596780D01*
X222197378Y-188596780D02*
X222292616Y-188501542D01*
X222292616Y-188501542D02*
X222483092Y-188406304D01*
X222483092Y-188406304D02*
X222768807Y-188406304D01*
X222768807Y-188406304D02*
X222959283Y-188501542D01*
X222959283Y-188501542D02*
X223054521Y-188596780D01*
X223054521Y-188596780D02*
X223149759Y-188787257D01*
X223149759Y-188787257D02*
X223149759Y-189358685D01*
X223149759Y-189358685D02*
X223054521Y-189549161D01*
X223054521Y-189549161D02*
X222959283Y-189644400D01*
X222959283Y-189644400D02*
X222768807Y-189739638D01*
X222768807Y-189739638D02*
X222483092Y-189739638D01*
X224006902Y-189739638D02*
X224006902Y-188406304D01*
X224006902Y-188596780D02*
X224102140Y-188501542D01*
X224102140Y-188501542D02*
X224292616Y-188406304D01*
X224292616Y-188406304D02*
X224578331Y-188406304D01*
X224578331Y-188406304D02*
X224768807Y-188501542D01*
X224768807Y-188501542D02*
X224864045Y-188692019D01*
X224864045Y-188692019D02*
X224864045Y-189739638D01*
X224864045Y-188692019D02*
X224959283Y-188501542D01*
X224959283Y-188501542D02*
X225149759Y-188406304D01*
X225149759Y-188406304D02*
X225435473Y-188406304D01*
X225435473Y-188406304D02*
X225625950Y-188501542D01*
X225625950Y-188501542D02*
X225721188Y-188692019D01*
X225721188Y-188692019D02*
X225721188Y-189739638D01*
X227530712Y-189739638D02*
X227530712Y-188692019D01*
X227530712Y-188692019D02*
X227435474Y-188501542D01*
X227435474Y-188501542D02*
X227244998Y-188406304D01*
X227244998Y-188406304D02*
X226864045Y-188406304D01*
X226864045Y-188406304D02*
X226673569Y-188501542D01*
X227530712Y-189644400D02*
X227340236Y-189739638D01*
X227340236Y-189739638D02*
X226864045Y-189739638D01*
X226864045Y-189739638D02*
X226673569Y-189644400D01*
X226673569Y-189644400D02*
X226578331Y-189453923D01*
X226578331Y-189453923D02*
X226578331Y-189263447D01*
X226578331Y-189263447D02*
X226673569Y-189072971D01*
X226673569Y-189072971D02*
X226864045Y-188977733D01*
X226864045Y-188977733D02*
X227340236Y-188977733D01*
X227340236Y-188977733D02*
X227530712Y-188882495D01*
X228483093Y-189739638D02*
X228483093Y-188406304D01*
X228483093Y-187739638D02*
X228387855Y-187834876D01*
X228387855Y-187834876D02*
X228483093Y-187930114D01*
X228483093Y-187930114D02*
X228578331Y-187834876D01*
X228578331Y-187834876D02*
X228483093Y-187739638D01*
X228483093Y-187739638D02*
X228483093Y-187930114D01*
X229435474Y-188406304D02*
X229435474Y-189739638D01*
X229435474Y-188596780D02*
X229530712Y-188501542D01*
X229530712Y-188501542D02*
X229721188Y-188406304D01*
X229721188Y-188406304D02*
X230006903Y-188406304D01*
X230006903Y-188406304D02*
X230197379Y-188501542D01*
X230197379Y-188501542D02*
X230292617Y-188692019D01*
X230292617Y-188692019D02*
X230292617Y-189739638D01*
X233625951Y-189739638D02*
X233625951Y-188692019D01*
X233625951Y-188692019D02*
X233530713Y-188501542D01*
X233530713Y-188501542D02*
X233340237Y-188406304D01*
X233340237Y-188406304D02*
X232959284Y-188406304D01*
X232959284Y-188406304D02*
X232768808Y-188501542D01*
X233625951Y-189644400D02*
X233435475Y-189739638D01*
X233435475Y-189739638D02*
X232959284Y-189739638D01*
X232959284Y-189739638D02*
X232768808Y-189644400D01*
X232768808Y-189644400D02*
X232673570Y-189453923D01*
X232673570Y-189453923D02*
X232673570Y-189263447D01*
X232673570Y-189263447D02*
X232768808Y-189072971D01*
X232768808Y-189072971D02*
X232959284Y-188977733D01*
X232959284Y-188977733D02*
X233435475Y-188977733D01*
X233435475Y-188977733D02*
X233625951Y-188882495D01*
X235435475Y-189644400D02*
X235244999Y-189739638D01*
X235244999Y-189739638D02*
X234864046Y-189739638D01*
X234864046Y-189739638D02*
X234673570Y-189644400D01*
X234673570Y-189644400D02*
X234578332Y-189549161D01*
X234578332Y-189549161D02*
X234483094Y-189358685D01*
X234483094Y-189358685D02*
X234483094Y-188787257D01*
X234483094Y-188787257D02*
X234578332Y-188596780D01*
X234578332Y-188596780D02*
X234673570Y-188501542D01*
X234673570Y-188501542D02*
X234864046Y-188406304D01*
X234864046Y-188406304D02*
X235244999Y-188406304D01*
X235244999Y-188406304D02*
X235435475Y-188501542D01*
X236292618Y-189739638D02*
X236292618Y-188406304D01*
X236292618Y-188787257D02*
X236387856Y-188596780D01*
X236387856Y-188596780D02*
X236483094Y-188501542D01*
X236483094Y-188501542D02*
X236673570Y-188406304D01*
X236673570Y-188406304D02*
X236864047Y-188406304D01*
X237816427Y-189739638D02*
X237625951Y-189644400D01*
X237625951Y-189644400D02*
X237530713Y-189549161D01*
X237530713Y-189549161D02*
X237435475Y-189358685D01*
X237435475Y-189358685D02*
X237435475Y-188787257D01*
X237435475Y-188787257D02*
X237530713Y-188596780D01*
X237530713Y-188596780D02*
X237625951Y-188501542D01*
X237625951Y-188501542D02*
X237816427Y-188406304D01*
X237816427Y-188406304D02*
X238102142Y-188406304D01*
X238102142Y-188406304D02*
X238292618Y-188501542D01*
X238292618Y-188501542D02*
X238387856Y-188596780D01*
X238387856Y-188596780D02*
X238483094Y-188787257D01*
X238483094Y-188787257D02*
X238483094Y-189358685D01*
X238483094Y-189358685D02*
X238387856Y-189549161D01*
X238387856Y-189549161D02*
X238292618Y-189644400D01*
X238292618Y-189644400D02*
X238102142Y-189739638D01*
X238102142Y-189739638D02*
X237816427Y-189739638D01*
X239244999Y-189644400D02*
X239435475Y-189739638D01*
X239435475Y-189739638D02*
X239816427Y-189739638D01*
X239816427Y-189739638D02*
X240006904Y-189644400D01*
X240006904Y-189644400D02*
X240102142Y-189453923D01*
X240102142Y-189453923D02*
X240102142Y-189358685D01*
X240102142Y-189358685D02*
X240006904Y-189168209D01*
X240006904Y-189168209D02*
X239816427Y-189072971D01*
X239816427Y-189072971D02*
X239530713Y-189072971D01*
X239530713Y-189072971D02*
X239340237Y-188977733D01*
X239340237Y-188977733D02*
X239244999Y-188787257D01*
X239244999Y-188787257D02*
X239244999Y-188692019D01*
X239244999Y-188692019D02*
X239340237Y-188501542D01*
X239340237Y-188501542D02*
X239530713Y-188406304D01*
X239530713Y-188406304D02*
X239816427Y-188406304D01*
X239816427Y-188406304D02*
X240006904Y-188501542D01*
X240864047Y-189644400D02*
X241054523Y-189739638D01*
X241054523Y-189739638D02*
X241435475Y-189739638D01*
X241435475Y-189739638D02*
X241625952Y-189644400D01*
X241625952Y-189644400D02*
X241721190Y-189453923D01*
X241721190Y-189453923D02*
X241721190Y-189358685D01*
X241721190Y-189358685D02*
X241625952Y-189168209D01*
X241625952Y-189168209D02*
X241435475Y-189072971D01*
X241435475Y-189072971D02*
X241149761Y-189072971D01*
X241149761Y-189072971D02*
X240959285Y-188977733D01*
X240959285Y-188977733D02*
X240864047Y-188787257D01*
X240864047Y-188787257D02*
X240864047Y-188692019D01*
X240864047Y-188692019D02*
X240959285Y-188501542D01*
X240959285Y-188501542D02*
X241149761Y-188406304D01*
X241149761Y-188406304D02*
X241435475Y-188406304D01*
X241435475Y-188406304D02*
X241625952Y-188501542D01*
X243816429Y-188406304D02*
X244578333Y-188406304D01*
X244102143Y-187739638D02*
X244102143Y-189453923D01*
X244102143Y-189453923D02*
X244197381Y-189644400D01*
X244197381Y-189644400D02*
X244387857Y-189739638D01*
X244387857Y-189739638D02*
X244578333Y-189739638D01*
X245245000Y-189739638D02*
X245245000Y-187739638D01*
X246102143Y-189739638D02*
X246102143Y-188692019D01*
X246102143Y-188692019D02*
X246006905Y-188501542D01*
X246006905Y-188501542D02*
X245816429Y-188406304D01*
X245816429Y-188406304D02*
X245530714Y-188406304D01*
X245530714Y-188406304D02*
X245340238Y-188501542D01*
X245340238Y-188501542D02*
X245245000Y-188596780D01*
X247816429Y-189644400D02*
X247625953Y-189739638D01*
X247625953Y-189739638D02*
X247245000Y-189739638D01*
X247245000Y-189739638D02*
X247054524Y-189644400D01*
X247054524Y-189644400D02*
X246959286Y-189453923D01*
X246959286Y-189453923D02*
X246959286Y-188692019D01*
X246959286Y-188692019D02*
X247054524Y-188501542D01*
X247054524Y-188501542D02*
X247245000Y-188406304D01*
X247245000Y-188406304D02*
X247625953Y-188406304D01*
X247625953Y-188406304D02*
X247816429Y-188501542D01*
X247816429Y-188501542D02*
X247911667Y-188692019D01*
X247911667Y-188692019D02*
X247911667Y-188882495D01*
X247911667Y-188882495D02*
X246959286Y-189072971D01*
X251149763Y-187739638D02*
X250768810Y-187739638D01*
X250768810Y-187739638D02*
X250578334Y-187834876D01*
X250578334Y-187834876D02*
X250483096Y-187930114D01*
X250483096Y-187930114D02*
X250292620Y-188215828D01*
X250292620Y-188215828D02*
X250197382Y-188596780D01*
X250197382Y-188596780D02*
X250197382Y-189358685D01*
X250197382Y-189358685D02*
X250292620Y-189549161D01*
X250292620Y-189549161D02*
X250387858Y-189644400D01*
X250387858Y-189644400D02*
X250578334Y-189739638D01*
X250578334Y-189739638D02*
X250959287Y-189739638D01*
X250959287Y-189739638D02*
X251149763Y-189644400D01*
X251149763Y-189644400D02*
X251245001Y-189549161D01*
X251245001Y-189549161D02*
X251340239Y-189358685D01*
X251340239Y-189358685D02*
X251340239Y-188882495D01*
X251340239Y-188882495D02*
X251245001Y-188692019D01*
X251245001Y-188692019D02*
X251149763Y-188596780D01*
X251149763Y-188596780D02*
X250959287Y-188501542D01*
X250959287Y-188501542D02*
X250578334Y-188501542D01*
X250578334Y-188501542D02*
X250387858Y-188596780D01*
X250387858Y-188596780D02*
X250292620Y-188692019D01*
X250292620Y-188692019D02*
X250197382Y-188882495D01*
X252578334Y-187739638D02*
X252768811Y-187739638D01*
X252768811Y-187739638D02*
X252959287Y-187834876D01*
X252959287Y-187834876D02*
X253054525Y-187930114D01*
X253054525Y-187930114D02*
X253149763Y-188120590D01*
X253149763Y-188120590D02*
X253245001Y-188501542D01*
X253245001Y-188501542D02*
X253245001Y-188977733D01*
X253245001Y-188977733D02*
X253149763Y-189358685D01*
X253149763Y-189358685D02*
X253054525Y-189549161D01*
X253054525Y-189549161D02*
X252959287Y-189644400D01*
X252959287Y-189644400D02*
X252768811Y-189739638D01*
X252768811Y-189739638D02*
X252578334Y-189739638D01*
X252578334Y-189739638D02*
X252387858Y-189644400D01*
X252387858Y-189644400D02*
X252292620Y-189549161D01*
X252292620Y-189549161D02*
X252197382Y-189358685D01*
X252197382Y-189358685D02*
X252102144Y-188977733D01*
X252102144Y-188977733D02*
X252102144Y-188501542D01*
X252102144Y-188501542D02*
X252197382Y-188120590D01*
X252197382Y-188120590D02*
X252292620Y-187930114D01*
X252292620Y-187930114D02*
X252387858Y-187834876D01*
X252387858Y-187834876D02*
X252578334Y-187739638D01*
X253816430Y-187739638D02*
X254483096Y-189739638D01*
X254483096Y-189739638D02*
X255149763Y-187739638D01*
X257340240Y-189739638D02*
X257340240Y-188406304D01*
X257340240Y-187739638D02*
X257245002Y-187834876D01*
X257245002Y-187834876D02*
X257340240Y-187930114D01*
X257340240Y-187930114D02*
X257435478Y-187834876D01*
X257435478Y-187834876D02*
X257340240Y-187739638D01*
X257340240Y-187739638D02*
X257340240Y-187930114D01*
X258197383Y-189644400D02*
X258387859Y-189739638D01*
X258387859Y-189739638D02*
X258768811Y-189739638D01*
X258768811Y-189739638D02*
X258959288Y-189644400D01*
X258959288Y-189644400D02*
X259054526Y-189453923D01*
X259054526Y-189453923D02*
X259054526Y-189358685D01*
X259054526Y-189358685D02*
X258959288Y-189168209D01*
X258959288Y-189168209D02*
X258768811Y-189072971D01*
X258768811Y-189072971D02*
X258483097Y-189072971D01*
X258483097Y-189072971D02*
X258292621Y-188977733D01*
X258292621Y-188977733D02*
X258197383Y-188787257D01*
X258197383Y-188787257D02*
X258197383Y-188692019D01*
X258197383Y-188692019D02*
X258292621Y-188501542D01*
X258292621Y-188501542D02*
X258483097Y-188406304D01*
X258483097Y-188406304D02*
X258768811Y-188406304D01*
X258768811Y-188406304D02*
X258959288Y-188501542D01*
X260197383Y-189739638D02*
X260006907Y-189644400D01*
X260006907Y-189644400D02*
X259911669Y-189549161D01*
X259911669Y-189549161D02*
X259816431Y-189358685D01*
X259816431Y-189358685D02*
X259816431Y-188787257D01*
X259816431Y-188787257D02*
X259911669Y-188596780D01*
X259911669Y-188596780D02*
X260006907Y-188501542D01*
X260006907Y-188501542D02*
X260197383Y-188406304D01*
X260197383Y-188406304D02*
X260483098Y-188406304D01*
X260483098Y-188406304D02*
X260673574Y-188501542D01*
X260673574Y-188501542D02*
X260768812Y-188596780D01*
X260768812Y-188596780D02*
X260864050Y-188787257D01*
X260864050Y-188787257D02*
X260864050Y-189358685D01*
X260864050Y-189358685D02*
X260768812Y-189549161D01*
X260768812Y-189549161D02*
X260673574Y-189644400D01*
X260673574Y-189644400D02*
X260483098Y-189739638D01*
X260483098Y-189739638D02*
X260197383Y-189739638D01*
X262006907Y-189739638D02*
X261816431Y-189644400D01*
X261816431Y-189644400D02*
X261721193Y-189453923D01*
X261721193Y-189453923D02*
X261721193Y-187739638D01*
X263625955Y-189739638D02*
X263625955Y-188692019D01*
X263625955Y-188692019D02*
X263530717Y-188501542D01*
X263530717Y-188501542D02*
X263340241Y-188406304D01*
X263340241Y-188406304D02*
X262959288Y-188406304D01*
X262959288Y-188406304D02*
X262768812Y-188501542D01*
X263625955Y-189644400D02*
X263435479Y-189739638D01*
X263435479Y-189739638D02*
X262959288Y-189739638D01*
X262959288Y-189739638D02*
X262768812Y-189644400D01*
X262768812Y-189644400D02*
X262673574Y-189453923D01*
X262673574Y-189453923D02*
X262673574Y-189263447D01*
X262673574Y-189263447D02*
X262768812Y-189072971D01*
X262768812Y-189072971D02*
X262959288Y-188977733D01*
X262959288Y-188977733D02*
X263435479Y-188977733D01*
X263435479Y-188977733D02*
X263625955Y-188882495D01*
X264292622Y-188406304D02*
X265054526Y-188406304D01*
X264578336Y-187739638D02*
X264578336Y-189453923D01*
X264578336Y-189453923D02*
X264673574Y-189644400D01*
X264673574Y-189644400D02*
X264864050Y-189739638D01*
X264864050Y-189739638D02*
X265054526Y-189739638D01*
X265721193Y-189739638D02*
X265721193Y-188406304D01*
X265721193Y-187739638D02*
X265625955Y-187834876D01*
X265625955Y-187834876D02*
X265721193Y-187930114D01*
X265721193Y-187930114D02*
X265816431Y-187834876D01*
X265816431Y-187834876D02*
X265721193Y-187739638D01*
X265721193Y-187739638D02*
X265721193Y-187930114D01*
X266959288Y-189739638D02*
X266768812Y-189644400D01*
X266768812Y-189644400D02*
X266673574Y-189549161D01*
X266673574Y-189549161D02*
X266578336Y-189358685D01*
X266578336Y-189358685D02*
X266578336Y-188787257D01*
X266578336Y-188787257D02*
X266673574Y-188596780D01*
X266673574Y-188596780D02*
X266768812Y-188501542D01*
X266768812Y-188501542D02*
X266959288Y-188406304D01*
X266959288Y-188406304D02*
X267245003Y-188406304D01*
X267245003Y-188406304D02*
X267435479Y-188501542D01*
X267435479Y-188501542D02*
X267530717Y-188596780D01*
X267530717Y-188596780D02*
X267625955Y-188787257D01*
X267625955Y-188787257D02*
X267625955Y-189358685D01*
X267625955Y-189358685D02*
X267530717Y-189549161D01*
X267530717Y-189549161D02*
X267435479Y-189644400D01*
X267435479Y-189644400D02*
X267245003Y-189739638D01*
X267245003Y-189739638D02*
X266959288Y-189739638D01*
X268483098Y-188406304D02*
X268483098Y-189739638D01*
X268483098Y-188596780D02*
X268578336Y-188501542D01*
X268578336Y-188501542D02*
X268768812Y-188406304D01*
X268768812Y-188406304D02*
X269054527Y-188406304D01*
X269054527Y-188406304D02*
X269245003Y-188501542D01*
X269245003Y-188501542D02*
X269340241Y-188692019D01*
X269340241Y-188692019D02*
X269340241Y-189739638D01*
X271816432Y-189739638D02*
X271816432Y-188406304D01*
X271816432Y-188596780D02*
X271911670Y-188501542D01*
X271911670Y-188501542D02*
X272102146Y-188406304D01*
X272102146Y-188406304D02*
X272387861Y-188406304D01*
X272387861Y-188406304D02*
X272578337Y-188501542D01*
X272578337Y-188501542D02*
X272673575Y-188692019D01*
X272673575Y-188692019D02*
X272673575Y-189739638D01*
X272673575Y-188692019D02*
X272768813Y-188501542D01*
X272768813Y-188501542D02*
X272959289Y-188406304D01*
X272959289Y-188406304D02*
X273245003Y-188406304D01*
X273245003Y-188406304D02*
X273435480Y-188501542D01*
X273435480Y-188501542D02*
X273530718Y-188692019D01*
X273530718Y-188692019D02*
X273530718Y-189739638D01*
X274768813Y-189739638D02*
X274578337Y-189644400D01*
X274578337Y-189644400D02*
X274483099Y-189549161D01*
X274483099Y-189549161D02*
X274387861Y-189358685D01*
X274387861Y-189358685D02*
X274387861Y-188787257D01*
X274387861Y-188787257D02*
X274483099Y-188596780D01*
X274483099Y-188596780D02*
X274578337Y-188501542D01*
X274578337Y-188501542D02*
X274768813Y-188406304D01*
X274768813Y-188406304D02*
X275054528Y-188406304D01*
X275054528Y-188406304D02*
X275245004Y-188501542D01*
X275245004Y-188501542D02*
X275340242Y-188596780D01*
X275340242Y-188596780D02*
X275435480Y-188787257D01*
X275435480Y-188787257D02*
X275435480Y-189358685D01*
X275435480Y-189358685D02*
X275340242Y-189549161D01*
X275340242Y-189549161D02*
X275245004Y-189644400D01*
X275245004Y-189644400D02*
X275054528Y-189739638D01*
X275054528Y-189739638D02*
X274768813Y-189739638D01*
X277149766Y-189739638D02*
X277149766Y-188692019D01*
X277149766Y-188692019D02*
X277054528Y-188501542D01*
X277054528Y-188501542D02*
X276864052Y-188406304D01*
X276864052Y-188406304D02*
X276483099Y-188406304D01*
X276483099Y-188406304D02*
X276292623Y-188501542D01*
X277149766Y-189644400D02*
X276959290Y-189739638D01*
X276959290Y-189739638D02*
X276483099Y-189739638D01*
X276483099Y-189739638D02*
X276292623Y-189644400D01*
X276292623Y-189644400D02*
X276197385Y-189453923D01*
X276197385Y-189453923D02*
X276197385Y-189263447D01*
X276197385Y-189263447D02*
X276292623Y-189072971D01*
X276292623Y-189072971D02*
X276483099Y-188977733D01*
X276483099Y-188977733D02*
X276959290Y-188977733D01*
X276959290Y-188977733D02*
X277149766Y-188882495D01*
X277816433Y-188406304D02*
X278578337Y-188406304D01*
X278102147Y-187739638D02*
X278102147Y-189453923D01*
X278102147Y-189453923D02*
X278197385Y-189644400D01*
X278197385Y-189644400D02*
X278387861Y-189739638D01*
X278387861Y-189739638D02*
X278578337Y-189739638D01*
M02*
