%TF.GenerationSoftware,KiCad,Pcbnew,10.0.5*%
%TF.CreationDate,2026-08-03T20:26:12-07:00*%
%TF.ProjectId,palpod-audio-amp-routed,70616c70-6f64-42d6-9175-64696f2d616d,A0*%
%TF.SameCoordinates,Original*%
%TF.FileFunction,Copper,L2,Inr*%
%TF.FilePolarity,Positive*%
%FSLAX46Y46*%
G04 Gerber Fmt 4.6, Leading zero omitted, Abs format (unit mm)*
G04 Created by KiCad (PCBNEW 10.0.5) date 2026-08-03 20:26:12*
%MOMM*%
%LPD*%
G01*
G04 APERTURE LIST*
G04 Aperture macros list*
%AMRoundRect*
0 Rectangle with rounded corners*
0 $1 Rounding radius*
0 $2 $3 $4 $5 $6 $7 $8 $9 X,Y pos of 4 corners*
0 Add a 4 corners polygon primitive as box body*
4,1,4,$2,$3,$4,$5,$6,$7,$8,$9,$2,$3,0*
0 Add four circle primitives for the rounded corners*
1,1,$1+$1,$2,$3*
1,1,$1+$1,$4,$5*
1,1,$1+$1,$6,$7*
1,1,$1+$1,$8,$9*
0 Add four rect primitives between the rounded corners*
20,1,$1+$1,$2,$3,$4,$5,0*
20,1,$1+$1,$4,$5,$6,$7,0*
20,1,$1+$1,$6,$7,$8,$9,0*
20,1,$1+$1,$8,$9,$2,$3,0*%
G04 Aperture macros list end*
%TA.AperFunction,ComponentPad*%
%ADD10C,2.200000*%
%TD*%
%TA.AperFunction,ComponentPad*%
%ADD11C,6.000000*%
%TD*%
%TA.AperFunction,ComponentPad*%
%ADD12RoundRect,0.250001X-0.949999X-0.949999X0.949999X-0.949999X0.949999X0.949999X-0.949999X0.949999X0*%
%TD*%
%TA.AperFunction,ComponentPad*%
%ADD13C,2.400000*%
%TD*%
%TA.AperFunction,ComponentPad*%
%ADD14R,1.700000X1.700000*%
%TD*%
%TA.AperFunction,ComponentPad*%
%ADD15C,1.700000*%
%TD*%
%TA.AperFunction,ComponentPad*%
%ADD16C,9.000000*%
%TD*%
G04 APERTURE END LIST*
D10*
%TO.N,N/C*%
%TO.C,A13*%
X55000000Y-36846875D03*
X55000000Y-41846875D03*
%TO.N,GND*%
X55000000Y-46846875D03*
%TO.N,N/C*%
X55000000Y-51846875D03*
X55000000Y-56846875D03*
X55000000Y-61846875D03*
X55000000Y-66846875D03*
X55000000Y-71846875D03*
X55000000Y-76846875D03*
X55000000Y-81846875D03*
X55000000Y-86846875D03*
%TO.N,GND*%
X55000000Y-91846875D03*
D11*
%TO.N,N/C*%
X52500000Y-46846875D03*
X197500000Y-46846875D03*
X197500000Y-81846875D03*
X52500000Y-81846875D03*
%TD*%
D10*
%TO.N,N/C*%
%TO.C,A15*%
X108366666Y-36846875D03*
X108366666Y-41846875D03*
%TO.N,GND*%
X108366666Y-46846875D03*
%TO.N,N/C*%
X108366666Y-51846875D03*
X108366666Y-56846875D03*
X108366666Y-61846875D03*
X108366666Y-66846875D03*
X108366666Y-71846875D03*
X108366666Y-76846875D03*
X108366666Y-81846875D03*
X108366666Y-86846875D03*
%TO.N,GND*%
X108366666Y-91846875D03*
D11*
%TO.N,N/C*%
X105866666Y-46846875D03*
X250866666Y-46846875D03*
X250866666Y-81846875D03*
X105866666Y-81846875D03*
%TD*%
D10*
%TO.N,N/C*%
%TO.C,A14*%
X81683333Y-36846875D03*
X81683333Y-41846875D03*
%TO.N,GND*%
X81683333Y-46846875D03*
%TO.N,N/C*%
X81683333Y-51846875D03*
X81683333Y-56846875D03*
X81683333Y-61846875D03*
X81683333Y-66846875D03*
X81683333Y-71846875D03*
X81683333Y-76846875D03*
X81683333Y-81846875D03*
X81683333Y-86846875D03*
%TO.N,GND*%
X81683333Y-91846875D03*
D11*
%TO.N,N/C*%
X79183333Y-46846875D03*
X224183333Y-46846875D03*
X224183333Y-81846875D03*
X79183333Y-81846875D03*
%TD*%
D10*
%TO.N,N/C*%
%TO.C,A16*%
X135049999Y-36846875D03*
X135049999Y-41846875D03*
%TO.N,GND*%
X135049999Y-46846875D03*
%TO.N,N/C*%
X135049999Y-51846875D03*
X135049999Y-56846875D03*
X135049999Y-61846875D03*
X135049999Y-66846875D03*
X135049999Y-71846875D03*
X135049999Y-76846875D03*
X135049999Y-81846875D03*
X135049999Y-86846875D03*
%TO.N,GND*%
X135049999Y-91846875D03*
D11*
%TO.N,N/C*%
X132549999Y-46846875D03*
X277549999Y-46846875D03*
X277549999Y-81846875D03*
X132549999Y-81846875D03*
%TD*%
D12*
%TO.N,N/C*%
%TO.C,C63*%
X205049999Y-159421875D03*
D13*
X212549999Y-159421875D03*
%TD*%
D12*
%TO.N,N/C*%
%TO.C,C60*%
X125000000Y-159421875D03*
D13*
X132500000Y-159421875D03*
%TD*%
D12*
%TO.N,N/C*%
%TO.C,C61*%
X151683333Y-159421875D03*
D13*
X159183333Y-159421875D03*
%TD*%
D12*
%TO.N,N/C*%
%TO.C,C62*%
X178366666Y-159421875D03*
D13*
X185866666Y-159421875D03*
%TD*%
D14*
%TO.N,N/C*%
%TO.C,J2*%
X231733333Y-40578125D03*
D15*
X231733333Y-43118125D03*
X231733333Y-45658125D03*
X231733333Y-48198125D03*
%TD*%
D16*
%TO.N,N/C*%
%TO.C,J25*%
X35425000Y-64346875D03*
X54475000Y-64346875D03*
%TD*%
%TO.N,N/C*%
%TO.C,J26*%
X62108333Y-64346875D03*
X81158333Y-64346875D03*
%TD*%
%TO.N,N/C*%
%TO.C,J27*%
X88791666Y-64346875D03*
X107841666Y-64346875D03*
%TD*%
%TO.N,N/C*%
%TO.C,J24*%
X8741666Y-64346875D03*
X27791666Y-64346875D03*
%TD*%
M02*
