%TF.GenerationSoftware,KiCad,Pcbnew,10.0.5*%
%TF.CreationDate,2026-08-03T20:26:12-07:00*%
%TF.ProjectId,palpod-audio-amp-routed,70616c70-6f64-42d6-9175-64696f2d616d,A0*%
%TF.SameCoordinates,Original*%
%TF.FileFunction,Paste,Top*%
%TF.FilePolarity,Positive*%
%FSLAX46Y46*%
G04 Gerber Fmt 4.6, Leading zero omitted, Abs format (unit mm)*
G04 Created by KiCad (PCBNEW 10.0.5) date 2026-08-03 20:26:12*
%MOMM*%
%LPD*%
G01*
G04 APERTURE LIST*
G04 Aperture macros list*
%AMRoundRect*
0 Rectangle with rounded corners*
0 $1 Rounding radius*
0 $2 $3 $4 $5 $6 $7 $8 $9 X,Y pos of 4 corners*
0 Add a 4 corners polygon primitive as box body*
4,1,4,$2,$3,$4,$5,$6,$7,$8,$9,$2,$3,0*
0 Add four circle primitives for the rounded corners*
1,1,$1+$1,$2,$3*
1,1,$1+$1,$4,$5*
1,1,$1+$1,$6,$7*
1,1,$1+$1,$8,$9*
0 Add four rect primitives between the rounded corners*
20,1,$1+$1,$2,$3,$4,$5,0*
20,1,$1+$1,$4,$5,$6,$7,0*
20,1,$1+$1,$6,$7,$8,$9,0*
20,1,$1+$1,$8,$9,$2,$3,0*%
G04 Aperture macros list end*
%ADD10RoundRect,0.075000X-0.625000X-0.075000X0.625000X-0.075000X0.625000X0.075000X-0.625000X0.075000X0*%
%ADD11RoundRect,0.150000X-0.150000X-0.450000X0.150000X-0.450000X0.150000X0.450000X-0.150000X0.450000X0*%
%ADD12RoundRect,0.100000X-0.650000X-0.100000X0.650000X-0.100000X0.650000X0.100000X-0.650000X0.100000X0*%
%ADD13R,3.400000X5.000000*%
%ADD14RoundRect,0.150000X-0.625000X-0.150000X0.625000X-0.150000X0.625000X0.150000X-0.625000X0.150000X0*%
%ADD15RoundRect,0.135000X-0.135000X-0.185000X0.135000X-0.185000X0.135000X0.185000X-0.135000X0.185000X0*%
%ADD16RoundRect,0.150000X-0.850000X-0.150000X0.850000X-0.150000X0.850000X0.150000X-0.850000X0.150000X0*%
%ADD17RoundRect,0.100000X-0.600000X-0.100000X0.600000X-0.100000X0.600000X0.100000X-0.600000X0.100000X0*%
%ADD18RoundRect,0.070000X-0.280000X-0.070000X0.280000X-0.070000X0.280000X0.070000X-0.280000X0.070000X0*%
%ADD19RoundRect,0.070000X-0.070000X-0.280000X0.070000X-0.280000X0.070000X0.280000X-0.070000X0.280000X0*%
%ADD20R,3.100000X3.100000*%
%ADD21RoundRect,0.140000X-0.140000X-0.170000X0.140000X-0.170000X0.140000X0.170000X-0.140000X0.170000X0*%
%ADD22RoundRect,0.250000X-0.250000X-0.475000X0.250000X-0.475000X0.250000X0.475000X-0.250000X0.475000X0*%
G04 APERTURE END LIST*
D10*
%TO.C,U3*%
X42850000Y-39578125D03*
X42850000Y-40078125D03*
X42850000Y-40578125D03*
X42850000Y-41078125D03*
X42850000Y-41578125D03*
X47050000Y-41578125D03*
X47050000Y-41078125D03*
X47050000Y-40578125D03*
X47050000Y-40078125D03*
X47050000Y-39578125D03*
%TD*%
D11*
%TO.C,U19*%
X150733333Y-18209375D03*
X151683333Y-18209375D03*
X152633333Y-18209375D03*
X152633333Y-15409375D03*
X150733333Y-15409375D03*
%TD*%
D12*
%TO.C,U17*%
X93766666Y-13234375D03*
X93766666Y-13884375D03*
X93766666Y-14534375D03*
X93766666Y-15184375D03*
X93766666Y-15834375D03*
X93766666Y-16484375D03*
X93766666Y-17134375D03*
X93766666Y-17784375D03*
X93766666Y-18434375D03*
X93766666Y-19084375D03*
X93766666Y-19734375D03*
X93766666Y-20384375D03*
X102866666Y-20384375D03*
X102866666Y-19734375D03*
X102866666Y-19084375D03*
X102866666Y-18434375D03*
X102866666Y-17784375D03*
X102866666Y-17134375D03*
X102866666Y-16484375D03*
X102866666Y-15834375D03*
X102866666Y-15184375D03*
X102866666Y-14534375D03*
X102866666Y-13884375D03*
X102866666Y-13234375D03*
D13*
X98316666Y-16809375D03*
%TD*%
D12*
%TO.C,U18*%
X120450000Y-13234375D03*
X120450000Y-13884375D03*
X120450000Y-14534375D03*
X120450000Y-15184375D03*
X120450000Y-15834375D03*
X120450000Y-16484375D03*
X120450000Y-17134375D03*
X120450000Y-17784375D03*
X120450000Y-18434375D03*
X120450000Y-19084375D03*
X120450000Y-19734375D03*
X120450000Y-20384375D03*
X129550000Y-20384375D03*
X129550000Y-19734375D03*
X129550000Y-19084375D03*
X129550000Y-18434375D03*
X129550000Y-17784375D03*
X129550000Y-17134375D03*
X129550000Y-16484375D03*
X129550000Y-15834375D03*
X129550000Y-15184375D03*
X129550000Y-14534375D03*
X129550000Y-13884375D03*
X129550000Y-13234375D03*
D13*
X125000000Y-16809375D03*
%TD*%
D14*
%TO.C,U12*%
X69008333Y-14904375D03*
X69008333Y-16174375D03*
X69008333Y-17444375D03*
X69008333Y-18714375D03*
X74258333Y-18714375D03*
X74258333Y-17444375D03*
X74258333Y-16174375D03*
X74258333Y-14904375D03*
%TD*%
%TO.C,U11*%
X42325000Y-14904375D03*
X42325000Y-16174375D03*
X42325000Y-17444375D03*
X42325000Y-18714375D03*
X47575000Y-18714375D03*
X47575000Y-17444375D03*
X47575000Y-16174375D03*
X47575000Y-14904375D03*
%TD*%
%TO.C,U10*%
X15641666Y-14904375D03*
X15641666Y-16174375D03*
X15641666Y-17444375D03*
X15641666Y-18714375D03*
X20891666Y-18714375D03*
X20891666Y-17444375D03*
X20891666Y-16174375D03*
X20891666Y-14904375D03*
%TD*%
%TO.C,U9*%
X202424999Y-38673125D03*
X202424999Y-39943125D03*
X202424999Y-41213125D03*
X202424999Y-42483125D03*
X207674999Y-42483125D03*
X207674999Y-41213125D03*
X207674999Y-39943125D03*
X207674999Y-38673125D03*
%TD*%
D15*
%TO.C,R64*%
X231223333Y-159421875D03*
X232243333Y-159421875D03*
%TD*%
%TO.C,R65*%
X17756666Y-183190625D03*
X18776666Y-183190625D03*
%TD*%
%TO.C,R66*%
X44440000Y-183190625D03*
X45460000Y-183190625D03*
%TD*%
%TO.C,R67*%
X71123333Y-183190625D03*
X72143333Y-183190625D03*
%TD*%
%TO.C,R68*%
X97806666Y-183190625D03*
X98826666Y-183190625D03*
%TD*%
%TO.C,R69*%
X124490000Y-183190625D03*
X125510000Y-183190625D03*
%TD*%
%TO.C,R70*%
X151173333Y-183190625D03*
X152193333Y-183190625D03*
%TD*%
%TO.C,R71*%
X177856666Y-183190625D03*
X178876666Y-183190625D03*
%TD*%
D16*
%TO.C,U4*%
X65583333Y-36133125D03*
X65583333Y-37403125D03*
X65583333Y-38673125D03*
X65583333Y-39943125D03*
X65583333Y-41213125D03*
X65583333Y-42483125D03*
X65583333Y-43753125D03*
X65583333Y-45023125D03*
X77683333Y-45023125D03*
X77683333Y-43753125D03*
X77683333Y-42483125D03*
X77683333Y-41213125D03*
X77683333Y-39943125D03*
X77683333Y-38673125D03*
X77683333Y-37403125D03*
X77683333Y-36133125D03*
%TD*%
D17*
%TO.C,U22*%
X229633333Y-15834375D03*
X229633333Y-16484375D03*
X229633333Y-17134375D03*
X229633333Y-17784375D03*
X233833333Y-17784375D03*
X233833333Y-17134375D03*
X233833333Y-16484375D03*
X233833333Y-15834375D03*
%TD*%
%TO.C,U23*%
X16166666Y-39603125D03*
X16166666Y-40253125D03*
X16166666Y-40903125D03*
X16166666Y-41553125D03*
X20366666Y-41553125D03*
X20366666Y-40903125D03*
X20366666Y-40253125D03*
X20366666Y-39603125D03*
%TD*%
%TO.C,U20*%
X176266666Y-15834375D03*
X176266666Y-16484375D03*
X176266666Y-17134375D03*
X176266666Y-17784375D03*
X180466666Y-17784375D03*
X180466666Y-17134375D03*
X180466666Y-16484375D03*
X180466666Y-15834375D03*
%TD*%
%TO.C,U21*%
X202949999Y-15834375D03*
X202949999Y-16484375D03*
X202949999Y-17134375D03*
X202949999Y-17784375D03*
X207149999Y-17784375D03*
X207149999Y-17134375D03*
X207149999Y-16484375D03*
X207149999Y-15834375D03*
%TD*%
D18*
%TO.C,U5*%
X95566666Y-38828125D03*
X95566666Y-39328125D03*
X95566666Y-39828125D03*
X95566666Y-40328125D03*
X95566666Y-40828125D03*
X95566666Y-41328125D03*
X95566666Y-41828125D03*
X95566666Y-42328125D03*
D19*
X96566666Y-43328125D03*
X97066666Y-43328125D03*
X97566666Y-43328125D03*
X98066666Y-43328125D03*
X98566666Y-43328125D03*
X99066666Y-43328125D03*
X99566666Y-43328125D03*
X100066666Y-43328125D03*
D18*
X101066666Y-42328125D03*
X101066666Y-41828125D03*
X101066666Y-41328125D03*
X101066666Y-40828125D03*
X101066666Y-40328125D03*
X101066666Y-39828125D03*
X101066666Y-39328125D03*
X101066666Y-38828125D03*
D19*
X100066666Y-37828125D03*
X99566666Y-37828125D03*
X99066666Y-37828125D03*
X98566666Y-37828125D03*
X98066666Y-37828125D03*
X97566666Y-37828125D03*
X97066666Y-37828125D03*
X96566666Y-37828125D03*
D20*
X98316666Y-40578125D03*
%TD*%
D18*
%TO.C,U6*%
X122250000Y-38828125D03*
X122250000Y-39328125D03*
X122250000Y-39828125D03*
X122250000Y-40328125D03*
X122250000Y-40828125D03*
X122250000Y-41328125D03*
X122250000Y-41828125D03*
X122250000Y-42328125D03*
D19*
X123250000Y-43328125D03*
X123750000Y-43328125D03*
X124250000Y-43328125D03*
X124750000Y-43328125D03*
X125250000Y-43328125D03*
X125750000Y-43328125D03*
X126250000Y-43328125D03*
X126750000Y-43328125D03*
D18*
X127750000Y-42328125D03*
X127750000Y-41828125D03*
X127750000Y-41328125D03*
X127750000Y-40828125D03*
X127750000Y-40328125D03*
X127750000Y-39828125D03*
X127750000Y-39328125D03*
X127750000Y-38828125D03*
D19*
X126750000Y-37828125D03*
X126250000Y-37828125D03*
X125750000Y-37828125D03*
X125250000Y-37828125D03*
X124750000Y-37828125D03*
X124250000Y-37828125D03*
X123750000Y-37828125D03*
X123250000Y-37828125D03*
D20*
X125000000Y-40578125D03*
%TD*%
D18*
%TO.C,U7*%
X148933333Y-38828125D03*
X148933333Y-39328125D03*
X148933333Y-39828125D03*
X148933333Y-40328125D03*
X148933333Y-40828125D03*
X148933333Y-41328125D03*
X148933333Y-41828125D03*
X148933333Y-42328125D03*
D19*
X149933333Y-43328125D03*
X150433333Y-43328125D03*
X150933333Y-43328125D03*
X151433333Y-43328125D03*
X151933333Y-43328125D03*
X152433333Y-43328125D03*
X152933333Y-43328125D03*
X153433333Y-43328125D03*
D18*
X154433333Y-42328125D03*
X154433333Y-41828125D03*
X154433333Y-41328125D03*
X154433333Y-40828125D03*
X154433333Y-40328125D03*
X154433333Y-39828125D03*
X154433333Y-39328125D03*
X154433333Y-38828125D03*
D19*
X153433333Y-37828125D03*
X152933333Y-37828125D03*
X152433333Y-37828125D03*
X151933333Y-37828125D03*
X151433333Y-37828125D03*
X150933333Y-37828125D03*
X150433333Y-37828125D03*
X149933333Y-37828125D03*
D20*
X151683333Y-40578125D03*
%TD*%
D18*
%TO.C,U8*%
X175616666Y-38828125D03*
X175616666Y-39328125D03*
X175616666Y-39828125D03*
X175616666Y-40328125D03*
X175616666Y-40828125D03*
X175616666Y-41328125D03*
X175616666Y-41828125D03*
X175616666Y-42328125D03*
D19*
X176616666Y-43328125D03*
X177116666Y-43328125D03*
X177616666Y-43328125D03*
X178116666Y-43328125D03*
X178616666Y-43328125D03*
X179116666Y-43328125D03*
X179616666Y-43328125D03*
X180116666Y-43328125D03*
D18*
X181116666Y-42328125D03*
X181116666Y-41828125D03*
X181116666Y-41328125D03*
X181116666Y-40828125D03*
X181116666Y-40328125D03*
X181116666Y-39828125D03*
X181116666Y-39328125D03*
X181116666Y-38828125D03*
D19*
X180116666Y-37828125D03*
X179616666Y-37828125D03*
X179116666Y-37828125D03*
X178616666Y-37828125D03*
X178116666Y-37828125D03*
X177616666Y-37828125D03*
X177116666Y-37828125D03*
X176616666Y-37828125D03*
D20*
X178366666Y-40578125D03*
%TD*%
D21*
%TO.C,C28*%
X231253333Y-64346875D03*
X232213333Y-64346875D03*
%TD*%
%TO.C,C29*%
X17786666Y-88115625D03*
X18746666Y-88115625D03*
%TD*%
%TO.C,C34*%
X151203333Y-88115625D03*
X152163333Y-88115625D03*
%TD*%
%TO.C,C35*%
X177886666Y-88115625D03*
X178846666Y-88115625D03*
%TD*%
%TO.C,C36*%
X204569999Y-88115625D03*
X205529999Y-88115625D03*
%TD*%
%TO.C,C37*%
X231253333Y-88115625D03*
X232213333Y-88115625D03*
%TD*%
%TO.C,C51*%
X124520000Y-135653125D03*
X125480000Y-135653125D03*
%TD*%
%TO.C,C42*%
X124520000Y-111884375D03*
X125480000Y-111884375D03*
%TD*%
%TO.C,C38*%
X17786666Y-111884375D03*
X18746666Y-111884375D03*
%TD*%
%TO.C,C39*%
X44470000Y-111884375D03*
X45430000Y-111884375D03*
%TD*%
%TO.C,C40*%
X71153333Y-111884375D03*
X72113333Y-111884375D03*
%TD*%
%TO.C,C41*%
X97836666Y-111884375D03*
X98796666Y-111884375D03*
%TD*%
%TO.C,C43*%
X151203333Y-111884375D03*
X152163333Y-111884375D03*
%TD*%
%TO.C,C44*%
X177886666Y-111884375D03*
X178846666Y-111884375D03*
%TD*%
%TO.C,C45*%
X204569999Y-111884375D03*
X205529999Y-111884375D03*
%TD*%
%TO.C,C46*%
X231253333Y-111884375D03*
X232213333Y-111884375D03*
%TD*%
%TO.C,C47*%
X17786666Y-135653125D03*
X18746666Y-135653125D03*
%TD*%
%TO.C,C48*%
X44470000Y-135653125D03*
X45430000Y-135653125D03*
%TD*%
%TO.C,C30*%
X44470000Y-88115625D03*
X45430000Y-88115625D03*
%TD*%
%TO.C,C31*%
X71153333Y-88115625D03*
X72113333Y-88115625D03*
%TD*%
%TO.C,C32*%
X97836666Y-88115625D03*
X98796666Y-88115625D03*
%TD*%
%TO.C,C33*%
X124520000Y-88115625D03*
X125480000Y-88115625D03*
%TD*%
%TO.C,C49*%
X71153333Y-135653125D03*
X72113333Y-135653125D03*
%TD*%
%TO.C,C50*%
X97836666Y-135653125D03*
X98796666Y-135653125D03*
%TD*%
D22*
%TO.C,C52*%
X150733333Y-135653125D03*
X152633333Y-135653125D03*
%TD*%
%TO.C,C53*%
X177416666Y-135653125D03*
X179316666Y-135653125D03*
%TD*%
%TO.C,C54*%
X204099999Y-135653125D03*
X205999999Y-135653125D03*
%TD*%
%TO.C,C55*%
X230783333Y-135653125D03*
X232683333Y-135653125D03*
%TD*%
%TO.C,C56*%
X17316666Y-159421875D03*
X19216666Y-159421875D03*
%TD*%
%TO.C,C57*%
X44000000Y-159421875D03*
X45900000Y-159421875D03*
%TD*%
%TO.C,C58*%
X70683333Y-159421875D03*
X72583333Y-159421875D03*
%TD*%
%TO.C,C59*%
X97366666Y-159421875D03*
X99266666Y-159421875D03*
%TD*%
M02*
