M48
; DRILL file KiCad 10.0.5 date 2026-08-03T20:26:13
; FORMAT={-:-/ absolute / metric / decimal}
; #@! TF.CreationDate,2026-08-03T20:26:13-07:00
; #@! TF.GenerationSoftware,Kicad,Pcbnew,10.0.5
; #@! TF.FileFunction,MixedPlating,1,6
FMAT,2
METRIC
; #@! TA.AperFunction,Plated,PTH,ComponentDrill
T1C1.000
; #@! TA.AperFunction,Plated,PTH,ComponentDrill
T2C1.200
; #@! TA.AperFunction,Plated,PTH,ComponentDrill
T3C3.200
; #@! TA.AperFunction,Plated,PTH,ComponentDrill
T4C5.500
%
G90
G05
T1
X231.733Y-40.578
X231.733Y-43.118
X231.733Y-45.658
X231.733Y-48.198
T2
X55.0Y-36.847
X55.0Y-41.847
X55.0Y-46.847
X55.0Y-51.847
X55.0Y-56.847
X55.0Y-61.847
X55.0Y-66.847
X55.0Y-71.847
X55.0Y-76.847
X55.0Y-81.847
X55.0Y-86.847
X55.0Y-91.847
X81.683Y-36.847
X81.683Y-41.847
X81.683Y-46.847
X81.683Y-51.847
X81.683Y-56.847
X81.683Y-61.847
X81.683Y-66.847
X81.683Y-71.847
X81.683Y-76.847
X81.683Y-81.847
X81.683Y-86.847
X81.683Y-91.847
X108.367Y-36.847
X108.367Y-41.847
X108.367Y-46.847
X108.367Y-51.847
X108.367Y-56.847
X108.367Y-61.847
X108.367Y-66.847
X108.367Y-71.847
X108.367Y-76.847
X108.367Y-81.847
X108.367Y-86.847
X108.367Y-91.847
X125.0Y-159.422
X132.5Y-159.422
X135.05Y-36.847
X135.05Y-41.847
X135.05Y-46.847
X135.05Y-51.847
X135.05Y-56.847
X135.05Y-61.847
X135.05Y-66.847
X135.05Y-71.847
X135.05Y-76.847
X135.05Y-81.847
X135.05Y-86.847
X135.05Y-91.847
X151.683Y-159.422
X159.183Y-159.422
X178.367Y-159.422
X185.867Y-159.422
X205.05Y-159.422
X212.55Y-159.422
T3
X52.5Y-46.847
X52.5Y-81.847
X79.183Y-46.847
X79.183Y-81.847
X105.867Y-46.847
X105.867Y-81.847
X132.55Y-46.847
X132.55Y-81.847
X197.5Y-46.847
X197.5Y-81.847
X224.183Y-46.847
X224.183Y-81.847
X250.867Y-46.847
X250.867Y-81.847
X277.55Y-46.847
X277.55Y-81.847
T4
X8.742Y-64.347
X27.792Y-64.347
X35.425Y-64.347
X54.475Y-64.347
X62.108Y-64.347
X81.158Y-64.347
X88.792Y-64.347
X107.842Y-64.347
M30
